<?xml version="1.0" encoding="utf-8"?>
<!-- Generator: Adobe Illustrator 18.1.0, SVG Export Plug-In . SVG Version: 6.00 Build 0)  -->
<svg version="1.1" id="Layer_1" xmlns="http://www.w3.org/2000/svg" xmlns:xlink="http://www.w3.org/1999/xlink" x="0px" y="0px"
	 width="135.3px" height="28.4px" viewBox="0 0 135.3 28.4" enable-background="new 0 0 135.3 28.4" xml:space="preserve">
<rect x="0" y="0.3" fill="#231F20" width="4.7" height="21.9"/>
<path fill="#231F20" d="M22.5,18.6c0,1.5,0.1,2.8,0.2,3.7h-4.2l-0.3-1.5h-0.1c-1,1.2-2.5,1.9-4.3,1.9c-3.1,0-4.9-2.2-4.9-4.6
	c0-3.9,3.5-5.8,8.9-5.8V12c0-0.8-0.4-1.9-2.7-1.9c-1.5,0-3.2,0.5-4.2,1.1l-0.9-3c1-0.6,3.1-1.3,5.9-1.3c5,0,6.6,3,6.6,6.5V18.6
	 M17.9,15.1c-2.5,0-4.4,0.6-4.4,2.4c0,1.2,0.8,1.8,1.9,1.8c1.2,0,2.1-0.8,2.4-1.7c0.1-0.2,0.1-0.5,0.1-0.8V15.1z"/>
<path fill="#231F20" d="M41,17.4c0,2,0.1,3.6,0.1,4.8H37l-0.2-2.1h-0.1c-0.6,0.9-2,2.5-4.7,2.5c-3.1,0-5.3-1.9-5.3-6.6V7.2h4.7v8.1
	c0,2.2,0.7,3.5,2.3,3.5c1.3,0,2-0.9,2.3-1.6c0.1-0.3,0.2-0.6,0.2-1v-9H41V17.4"/>
<path fill="#231F20" d="M47,22.3V10.6h-2V7.2h2V6.6c0-1.8,0.6-3.8,1.9-5.1C50,0.4,51.7,0,53,0c1,0,1.9,0.1,2.5,0.3l-0.2,3.6
	c-0.4-0.1-0.9-0.2-1.5-0.2c-1.5,0-2.2,1.2-2.2,2.7v0.8h3v3.5h-3v11.6H47"/>
<path fill="#231F20" d="M62,16.2c0.2,1.9,2.1,2.9,4.3,2.9c1.6,0,2.9-0.2,4.2-0.6l0.6,3.2c-1.5,0.6-3.4,1-5.5,1c-5.1,0-8.1-3-8.1-7.7
	c0-3.8,2.4-8.1,7.6-8.1c4.9,0,6.7,3.8,6.7,7.5c0,0.8-0.1,1.5-0.2,1.9H62 M67.5,13c0-1.1-0.5-3.1-2.7-3.1c-2,0-2.8,1.8-2.9,3.1H67.5z
	"/>
<path fill="#231F20" d="M75.6,12c0-1.9-0.1-3.5-0.1-4.8h4.1l0.2,2.1h0.1c0.6-1,2.2-2.4,4.7-2.4c3.1,0,5.4,2,5.4,6.5v9h-4.7v-8.4
	c0-1.9-0.7-3.3-2.4-3.3c-1.3,0-2.1,0.9-2.4,1.8c-0.1,0.3-0.2,0.7-0.2,1.2v8.7h-4.7V12"/>
<path fill="#231F20" d="M95.2,12.2c0-1.9-0.1-3.3-0.1-4.7h1.4l0.1,2.8h0.1c1-2,2.9-3.1,5.5-3.1c3.8,0,6.4,3.1,6.4,7.5
	c0,5.3-3.2,8-6.7,8c-2.1,0-4-1-5-2.7h-0.1v8.5h-1.5V12.2 M96.7,16.4c0,0.4,0.1,0.8,0.1,1.2c0.6,2.3,2.6,3.8,4.9,3.8
	c3.4,0,5.3-2.7,5.3-6.7c0-3.3-1.9-6.4-5.2-6.4c-2.2,0-4.3,1.5-4.9,4c-0.1,0.4-0.2,0.9-0.2,1.3V16.4z"/>
<path fill="#231F20" d="M112.9,11.9c0-1.5-0.1-3-0.1-4.4h1.4l0.1,3h0.1c0.6-1.9,2.2-3.3,4.2-3.3c0.2,0,0.4,0,0.6,0.1v1.4
	c-0.2-0.1-0.4-0.1-0.7-0.1c-2,0-3.5,1.8-3.9,4.1c-0.1,0.4-0.1,0.9-0.1,1.4v8.2h-1.5V11.9"/>
<path fill="#231F20" d="M135.3,14.7c0,5.6-3.8,7.9-7.1,7.9c-3.8,0-6.8-3-6.8-7.6c0-5.1,3.3-7.9,7-7.9
	C132.5,7.1,135.3,10.2,135.3,14.7 M122.9,14.9c0,3.7,2.4,6.5,5.4,6.5c3.1,0,5.5-2.8,5.5-6.6c0-2.7-1.5-6.5-5.4-6.5
	C124.6,8.3,122.9,11.7,122.9,14.9z"/>
</svg>
