<?xml version="1.0" encoding="utf-8"?>
<!-- Generator: Adobe Illustrator 18.1.0, SVG Export Plug-In . SVG Version: 6.00 Build 0)  -->
<svg version="1.1" id="Layer_1" xmlns="http://www.w3.org/2000/svg" xmlns:xlink="http://www.w3.org/1999/xlink" x="0px" y="0px"
	 width="81.6px" height="16.3px" viewBox="0 0 81.6 16.3" enable-background="new 0 0 81.6 16.3" xml:space="preserve">
<path fill="#F6A2B6" d="M21.9,7.2v6.9c0,0.7-0.2,1.3-0.7,1.7c-0.5,0.4-1,0.6-1.6,0.6c-0.6,0-1.1-0.2-1.6-0.6
	c-0.5-0.4-0.7-0.9-0.7-1.7V6.5c0-1.3-0.7-2-2.1-2c-1.4,0-2.1,0.7-2.1,2v0.7c0,0,0,0,0,0v6.9c0,0.6-0.2,1.1-0.5,1.5
	c0,0.1-0.1,0.1-0.2,0.2c-0.5,0.4-1,0.6-1.6,0.6c-0.6,0-1.1-0.2-1.6-0.6c-0.1,0-0.1-0.1-0.2-0.2c-0.4-0.4-0.5-0.9-0.5-1.5V7.2
	c0,0,0,0,0,0V6.5c0-1.3-0.7-2-2.1-2c-1.4,0-2.1,0.7-2.1,2v7.6c0,0.7-0.2,1.3-0.7,1.7c-0.5,0.4-1,0.6-1.6,0.6c-0.6,0-1.1-0.2-1.6-0.6
	C0.2,15.4,0,14.8,0,14.1V7.2C0,2.4,2.2,0,6.6,0C8.4,0,9.9,0.4,11,1.2C12,0.4,13.5,0,15.3,0C19.7,0,21.9,2.4,21.9,7.2 M49.9,0
	c-1.8,0-3.3,0.4-4.3,1.2C44.5,0.4,43,0,41.2,0c-4.4,0-6.6,2.4-6.6,7.2v6.9c0,0.7,0.2,1.3,0.7,1.7c0.4,0.4,1,0.6,1.6,0.6
	c0.6,0,1.1-0.2,1.6-0.6c0.4-0.4,0.7-0.9,0.7-1.7V6.5c0-1.3,0.7-2,2.1-2c1.4,0,2.1,0.7,2.1,2v0.7c0,0,0,0,0,0v6.9
	c0,0.6,0.2,1.1,0.5,1.5c0.1,0.1,0.1,0.1,0.2,0.2c0.4,0.4,1,0.6,1.6,0.6c0.6,0,1.1-0.2,1.6-0.6c0.1,0,0.1-0.1,0.2-0.2
	c0.3-0.4,0.5-0.9,0.5-1.5V7.2c0,0,0,0,0,0V6.5c0-1.3,0.7-2,2.1-2c1.4,0,2.1,0.7,2.1,2v7.6c0,0.7,0.2,1.3,0.7,1.7
	c0.4,0.4,1,0.6,1.6,0.6c0.6,0,1.1-0.2,1.6-0.6c0.4-0.4,0.7-0.9,0.7-1.7V7.2C56.6,2.4,54.3,0,49.9,0z M30.5,14.1V2.2
	c0-0.7-0.2-1.3-0.7-1.7c-0.4-0.4-1-0.6-1.6-0.6c-0.6,0-1.2,0.2-1.6,0.6C26.2,1,26,1.5,26,2.2v11.8c0,0.7,0.2,1.3,0.7,1.7
	c0.4,0.4,1,0.6,1.6,0.6c0.6,0,1.1-0.2,1.6-0.6C30.3,15.4,30.5,14.8,30.5,14.1z M81.6,8.2c0,0,0,0.3,0,0.5c-0.2,4.5-1.6,6.7-6.6,7.4
	c-1.6,0.2-4,0.2-4,0.2s-2.3,0-4-0.2c-5-0.7-6.4-2.9-6.6-7.4c0-0.3,0-0.5,0-0.5s0-0.3,0-0.5c0.2-4.5,1.6-6.7,6.6-7.4
	C68.7,0,71,0,71,0s2.3,0,4,0.2c5,0.7,6.4,2.9,6.6,7.4C81.6,7.9,81.6,8.2,81.6,8.2z M74.1,8.2c0,0,0-0.1,0-0.2
	c-0.1-2.1-0.8-3.2-3.1-3.5c-0.8-0.1-1.8-0.1-1.8-0.1s-1.1,0-1.8,0.1c-2.3,0.3-3,1.4-3.1,3.5c0,0.1,0,0.2,0,0.2s0,0.1,0,0.2
	c0.1,2.1,0.8,3.2,3.1,3.5c0.8,0.1,1.8,0.1,1.8,0.1s1.1,0,1.8-0.1c2.3-0.3,3-1.4,3.1-3.5C74.1,8.3,74.1,8.2,74.1,8.2z"/>
</svg>
