<?xml version="1.0" encoding="utf-8"?>
<!-- Generator: Adobe Illustrator 18.1.0, SVG Export Plug-In . SVG Version: 6.00 Build 0)  -->
<svg version="1.1" id="Layer_1" xmlns="http://www.w3.org/2000/svg" xmlns:xlink="http://www.w3.org/1999/xlink" x="0px" y="0px"
	 width="184px" height="16.2px" viewBox="0 0 184 16.2" enable-background="new 0 0 184 16.2" xml:space="preserve">
<path fill="#ED1C24" d="M167.4,14.5c-1.7,1.8-4.7,2-6.9,1.2c-0.5-0.2-0.9-0.5-1.4-0.8l-0.1-0.1l0.1-3.9c0,0,0,0,0,0
	c0.8,0.9,1.9,1.3,3.1,1.4c0.5-0.1,1.1-0.1,1.4-0.6c0.2-0.4,0.1-0.9-0.2-1.2c-0.8-0.8-1.8-1.1-2.7-1.7c-0.1,0-0.1-0.1-0.2-0.1
	c-1.1-0.7-1.7-1.8-1.8-3.1c-0.1-1.9,0.6-3.5,2.2-4.5c1.9-1.2,4.9-1,6.8,0.3c0.1,0,0.1,0.3,0.1,0.3c0,1.2,0,2.5,0,3.8
	c-0.3-0.1-0.6-0.4-0.9-0.6c-0.8-0.4-1.8-0.9-2.6-0.3c-0.4,0.3-0.5,0.7-0.4,1.2c0.2,0.6,0.8,0.9,1.3,1.2c1.2,0.7,2.7,1.5,3.1,2.9
	C168.7,11.5,168.4,13.3,167.4,14.5"/>
<path fill="#ED1C24" d="M177.5,14.5c-1.7,1.8-4.6,2-6.9,1.2c-0.5-0.2-0.9-0.5-1.4-0.8l-0.1-0.1l0.1-3.9c0,0,0,0,0,0
	c0.8,0.9,1.9,1.3,3.1,1.4c0.5-0.1,1.1-0.1,1.4-0.6c0.2-0.4,0.1-0.9-0.2-1.2c-0.8-0.8-1.8-1.1-2.7-1.7c-0.1,0-0.1-0.1-0.2-0.1
	c-1.1-0.7-1.7-1.8-1.8-3.1c-0.1-1.9,0.6-3.5,2.2-4.5c1.9-1.2,4.9-1,6.8,0.3c0.1,0,0.1,0.3,0.1,0.3c0,1.2,0,2.5,0,3.8
	c-0.3-0.1-0.6-0.4-0.9-0.6c-0.8-0.4-1.8-0.9-2.6-0.3c-0.4,0.3-0.5,0.7-0.4,1.2c0.2,0.6,0.8,0.9,1.3,1.2c1.2,0.7,2.7,1.5,3.1,2.9
	C178.9,11.5,178.6,13.3,177.5,14.5"/>
<polyline fill="#ED1C24" points="148.4,0.6 157.8,0.6 157.8,4 153.1,4 153.1,6.5 157.7,6.5 157.7,9.9 153,9.9 153,12.5 157.8,12.5 
	157.8,15.8 148.4,15.8 148.4,0.6 "/>
<polyline fill="#ED1C24" points="137.9,15.8 137.9,0.6 142.5,0.6 142.5,12.5 147.4,12.5 147.4,15.8 137.9,15.8 "/>
<path fill="#ED1C24" d="M122.9,15.8l4.4-15.1h5.5l4.5,15.1h-4.9l-0.6-2.2h-3.5l-0.6,2.2H122.9 M130.9,9.9L130,6.8l-0.8,3.1H130.9z"
	/>
<polyline fill="#ED1C24" points="179.4,0.6 184,0.6 184,15.9 179.4,15.9 179.4,0.6 "/>
<path fill="#231F20" d="M64.2,0.6h5c1.9,0,4.6,0.5,4.6,4c0,1.8-1.3,3-3,3.4v0c1.9,0.2,3.1,1.4,3.1,3.3c0,4.2-3,4.4-5.5,4.4h-4.3V0.6
	 M65.5,7.5h3.7c1.5,0,3.2-0.5,3.2-2.7c0-2.2-1.7-2.7-3.2-2.7h-3.7V7.5z M65.5,14.5h3.5c1.5,0,3.5-0.1,3.5-2.8s-2.1-2.8-3.5-2.8h-3.5
	V14.5z"/>
<path fill="#231F20" d="M79.4,0.6h1.9l5.2,15.2h-1.5l-1.7-5.1h-5.8l-1.6,5.1h-1.5L79.4,0.6 M80.4,1.7L80.4,1.7l-2.5,7.8h5L80.4,1.7z
	"/>
<path fill="#231F20" d="M96.6,14c-1,1.4-2.6,2.1-4.3,2.1c-4.3,0-5.7-4-5.7-7.8c0-6.9,3.7-7.8,5.7-7.8c1,0,3,0.3,4.2,2v1.9
	c-0.9-1.3-2.2-2.4-4.2-2.4c-2.7,0-4.4,1.6-4.4,6.4c0,3,1.1,6.4,4.4,6.4c1.1,0,2.1-0.2,3-1.1V8.2h1.4V14"/>
<polyline fill="#231F20" points="98.6,0.6 100.8,0.6 108.3,13.8 108.4,13.8 108.4,0.6 109.7,0.6 109.7,15.8 108.1,15.8 100,2 100,2 
	100,15.8 98.6,15.8 98.6,0.6 "/>
<path fill="#231F20" d="M111.1,8.2c0-6.9,3.8-7.8,5.7-7.8c2,0,5.7,0.9,5.7,7.8c0,3.8-1.4,7.8-5.7,7.8C112.5,16.1,111.1,12,111.1,8.2
	 M121.2,8.3c0-4.8-1.7-6.4-4.4-6.4c-2.7,0-4.4,1.6-4.4,6.4c0,3,1.1,6.4,4.4,6.4C120.1,14.7,121.2,11.3,121.2,8.3z"/>
<rect x="49.5" y="0.6" fill="#231F20" width="1.4" height="15.2"/>
<polyline fill="#231F20" points="54.3,0.7 55.6,0.7 55.6,14.5 61.4,14.5 61.4,15.8 54.3,15.8 54.3,0.7 "/>
<path fill="#231F20" d="M8.2,16.1C4,16.1,0,13,0,8.1C0,3.2,4,0,8.2,0c4.2,0,8.2,3.2,8.2,8.1C16.4,13,12.4,16.1,8.2,16.1 M8.2,1.8
	C5.1,1.8,2,4.2,2,8.1s3,6.4,6.2,6.4c3.1,0,6.2-2.4,6.2-6.4S11.3,1.8,8.2,1.8z"/>
<path fill="#231F20" d="M26.4,15.9V8.7c0-1.3-0.9-2.5-2.8-2.5c-1.9,0-2.9,1.1-2.9,2.5v7.2h-1.9V4.8h1.7v1.5h0c0.4-1,1.5-1.8,3.5-1.8
	c2.4,0,4.2,1.5,4.2,4v7.4H26.4"/>
<path fill="#231F20" d="M40.7,9.6l-1,1.1h-7.2c0,1.8,1.5,3.9,4.3,3.9c1.4,0,2.4-0.4,3.2-1l-0.2,1.8c-0.8,0.4-1.8,0.8-3.2,0.8
	c-3.2,0-5.9-2.4-5.9-5.8c0-3.6,2.8-5.8,5.4-5.8c3.1,0,4.8,2.1,4.8,4.2C40.7,9.1,40.7,9.4,40.7,9.6 M36.1,6.1c-1.7,0-3.2,1.4-3.5,3.1
	h6.3c0-0.1,0-0.2,0-0.3C38.9,7.5,37.9,6.1,36.1,6.1z"/>
<path fill="#231F20" d="M8.2,16.1C4,16.1,0,13,0,8.1C0,3.2,4,0,8.2,0c4.2,0,8.2,3.2,8.2,8.1C16.4,13,12.4,16.1,8.2,16.1 M8.2,1.8
	C5.1,1.8,2,4.2,2,8.1s3,6.4,6.2,6.4c3.1,0,6.2-2.4,6.2-6.4S11.3,1.8,8.2,1.8z"/>
<path fill="#231F20" d="M26.4,15.9V8.7c0-1.3-0.9-2.5-2.8-2.5c-1.9,0-2.9,1.1-2.9,2.5v7.2h-1.9V4.8h1.7v1.5h0c0.4-1,1.5-1.8,3.5-1.8
	c2.4,0,4.2,1.5,4.2,4v7.4H26.4"/>
<path fill="#231F20" d="M40.7,9.6l-1,1.1h-7.2c0,1.8,1.5,3.9,4.3,3.9c1.4,0,2.4-0.4,3.2-1l-0.2,1.8c-0.8,0.4-1.8,0.8-3.2,0.8
	c-3.2,0-5.9-2.4-5.9-5.8c0-3.6,2.8-5.8,5.4-5.8c3.1,0,4.8,2.1,4.8,4.2C40.7,9.1,40.7,9.4,40.7,9.6 M36.1,6.1c-1.7,0-3.2,1.4-3.5,3.1
	h6.3c0-0.1,0-0.2,0-0.3C38.9,7.5,37.9,6.1,36.1,6.1z"/>
</svg>
