<?xml version="1.0" encoding="utf-8"?>
<!-- Generator: Adobe Illustrator 18.1.0, SVG Export Plug-In . SVG Version: 6.00 Build 0)  -->
<svg version="1.1" id="Layer_1" xmlns="http://www.w3.org/2000/svg" xmlns:xlink="http://www.w3.org/1999/xlink" x="0px" y="0px"
	 width="240.7px" height="16.3px" viewBox="0 0 240.7 16.3" enable-background="new 0 0 240.7 16.3" xml:space="preserve">
<g>
	<path d="M0,0.4h6.9c4.5,0,5.3,2.9,5.3,4.8c0,1.9-0.9,4.8-5.3,4.8H2.7v6H0V0.4 M2.7,7.8h4c1.2,0,2.7-0.6,2.7-2.6
		c0-2.1-1.2-2.6-2.7-2.6h-4V7.8z"/>
	<path d="M17.1,0.4H20L26,16h-2.9l-1.5-4.1h-6.2L14,16h-2.8L17.1,0.4 M16.2,9.8h4.8l-2.3-6.7h-0.1L16.2,9.8z"/>
	<polyline points="27.5,0.4 30.2,0.4 30.2,13.6 38.2,13.6 38.2,16 27.5,16 27.5,0.4 	"/>
	<path d="M54.1,8.2c0,4.5-2.8,8.2-7.5,8.2c-4.7,0-7.5-3.7-7.5-8.2C39.2,3.7,42,0,46.7,0C51.4,0,54.1,3.7,54.1,8.2 M41.9,8.2
		c0,3,1.4,5.9,4.7,5.9c3.3,0,4.7-2.9,4.7-5.9c0-3-1.4-5.9-4.7-5.9C43.3,2.2,41.9,5.2,41.9,8.2z"/>
	<polyline points="56.6,0.4 60.4,0.4 64.7,12.6 64.8,12.6 69,0.4 72.8,0.4 72.8,16 70.2,16 70.2,3.9 70.1,3.9 65.8,16 63.6,16 
		59.2,3.9 59.2,3.9 59.2,16 56.6,16 56.6,0.4 	"/>
	<path d="M76,0.4h7.6c2.8,0,4.6,1.3,4.6,3.9c0,1.6-0.8,2.7-2.2,3.3v0c1.9,0.4,2.9,1.9,2.9,4c0,2.4-1.7,4.3-5.7,4.3H76V0.4 M78.8,6.9
		h4.5c1.3,0,2.3-0.8,2.3-2.2c0-1.6-0.8-2.1-2.3-2.1h-4.5V6.9z M78.8,13.7h4.8c1.7,0,2.6-0.9,2.6-2.5c0-1.5-1-2.4-2.6-2.4h-4.8V13.7z
		"/>
	<path d="M95.6,0.4h2.9l6,15.6h-2.9l-1.5-4.1h-6.2L92.4,16h-2.8L95.6,0.4 M94.6,9.8h4.8l-2.3-6.7H97L94.6,9.8z"/>
	<path d="M123.4,5.1c-0.5-2.4-2.5-3.8-4.8-3.8c-4.1,0-5.9,3.5-5.9,6.9c0,3.4,1.7,6.9,5.9,6.9c2.9,0,4.7-2.2,5-5h1.5
		c-0.4,3.8-2.8,6.3-6.5,6.3c-4.9,0-7.4-3.9-7.4-8.1s2.4-8.1,7.4-8.1c2.9,0,5.9,1.8,6.3,5H123.4"/>
	<path d="M133.9,0c4.9,0,7.3,3.9,7.3,8.1c0,4.3-2.4,8.1-7.3,8.1c-4.9,0-7.4-3.9-7.4-8.1C126.5,3.9,128.9,0,133.9,0 M133.9,15
		c4.1,0,5.9-3.4,5.9-6.9c0-3.4-1.7-6.9-5.9-6.9c-4.1,0-5.9,3.5-5.9,6.9C128,11.6,129.7,15,133.9,15z"/>
	<polyline points="143.5,0.4 145,0.4 145,14.7 153.7,14.7 153.7,16 143.5,16 143.5,0.4 	"/>
	<polyline points="155.2,0.4 156.7,0.4 156.7,14.7 165.5,14.7 165.5,16 155.2,16 155.2,0.4 	"/>
	<polyline points="167,0.4 177.7,0.4 177.7,1.6 168.4,1.6 168.4,7.3 177.1,7.3 177.1,8.5 168.4,8.5 168.4,14.7 177.8,14.7 177.8,16 
		167,16 167,0.4 	"/>
	<path d="M191.3,5.1c-0.5-2.4-2.5-3.8-4.8-3.8c-4.1,0-5.9,3.5-5.9,6.9c0,3.4,1.7,6.9,5.9,6.9c2.9,0,4.7-2.2,5-5h1.5
		c-0.4,3.8-2.8,6.3-6.5,6.3c-4.9,0-7.4-3.9-7.4-8.1s2.4-8.1,7.4-8.1c2.9,0,5.9,1.8,6.3,5H191.3"/>
	<polyline points="193.6,0.4 206,0.4 206,1.6 200.5,1.6 200.5,16 199,16 199,1.6 193.6,1.6 193.6,0.4 	"/>
	<rect x="207.5" y="0.4" width="1.5" height="15.6"/>
	<path d="M218.8,0c4.9,0,7.3,3.9,7.3,8.1c0,4.3-2.4,8.1-7.3,8.1c-4.9,0-7.4-3.9-7.4-8.1C211.4,3.9,213.9,0,218.8,0 M218.8,15
		c4.1,0,5.9-3.4,5.9-6.9c0-3.4-1.7-6.9-5.9-6.9c-4.1,0-5.9,3.5-5.9,6.9C212.9,11.6,214.7,15,218.8,15z"/>
	<polyline points="228.4,0.4 230.1,0.4 239.2,13.6 239.2,13.6 239.2,0.4 240.7,0.4 240.7,16 239,16 229.9,2.8 229.9,2.8 229.9,16 
		228.4,16 228.4,0.4 	"/>
</g>
</svg>
