<?xml version="1.0" encoding="utf-8"?>
<!-- Generator: Adobe Illustrator 18.1.0, SVG Export Plug-In . SVG Version: 6.00 Build 0)  -->
<svg version="1.1" xmlns="http://www.w3.org/2000/svg" xmlns:xlink="http://www.w3.org/1999/xlink" x="0px" y="0px" width="213px"
	 height="116px" viewBox="0 0 213 116" enable-background="new 0 0 213 116" xml:space="preserve">
<g id="Shape_10_xA0_Image_1_">
	<g>
		<path fill="#FFFFFF" d="M210.3,4v107.2H3.3V4H210.3 M213.3,1H0.3v113.2h213V1L213.3,1z"/>
	</g>
</g>
<g id="picture_icon_xA0_Image_1_">
	<path fill="#FFFFFF" d="M85.2,31v35h43.1V31H85.2z M125.6,63.3H87.9V33.7h37.7V63.3z M114.8,40.4c0,2.2,1.8,4,4,4s4-1.8,4-4
		c0-2.2-1.8-4-4-4S114.8,38.2,114.8,40.4z M122.9,60.6H90.6l8.1-21.5l10.8,13.5l5.4-4L122.9,60.6z"/>
</g>
<g id="Attach_image">
	<g>
		<path fill="#FFFFFF" d="M70.2,78.5l3.7,10h-2.3l-0.8-2.2h-3.7l-0.8,2.2h-2.2l3.8-10H70.2z M70.3,84.6L69,81h0l-1.3,3.7H70.3z"/>
		<path fill="#FFFFFF" d="M78.3,81.3v1.3h-1.5v3.6c0,0.3,0.1,0.6,0.2,0.7s0.3,0.2,0.7,0.2c0.1,0,0.2,0,0.3,0c0.1,0,0.2,0,0.3,0v1.5
			c-0.2,0-0.4,0-0.6,0.1c-0.2,0-0.4,0-0.6,0c-0.3,0-0.6,0-0.9-0.1s-0.5-0.1-0.7-0.2S75.1,88,75,87.7c-0.1-0.2-0.2-0.5-0.2-0.9v-4.3
			h-1.2v-1.3h1.2v-2.2h2v2.2H78.3z"/>
		<path fill="#FFFFFF" d="M82.9,81.3v1.3h-1.5v3.6c0,0.3,0.1,0.6,0.2,0.7C81.7,87,82,87,82.3,87c0.1,0,0.2,0,0.3,0
			c0.1,0,0.2,0,0.3,0v1.5c-0.2,0-0.4,0-0.6,0.1c-0.2,0-0.4,0-0.6,0c-0.3,0-0.6,0-0.9-0.1s-0.5-0.1-0.7-0.2s-0.4-0.3-0.5-0.5
			c-0.1-0.2-0.2-0.5-0.2-0.9v-4.3h-1.2v-1.3h1.2v-2.2h2v2.2H82.9z"/>
		<path fill="#FFFFFF" d="M83.9,82.3c0.2-0.3,0.5-0.6,0.8-0.7s0.7-0.3,1.1-0.4c0.4-0.1,0.8-0.1,1.2-0.1c0.4,0,0.7,0,1.1,0.1
			c0.4,0.1,0.7,0.2,1,0.3c0.3,0.1,0.6,0.4,0.8,0.6c0.2,0.3,0.3,0.6,0.3,1.1v3.8c0,0.3,0,0.6,0.1,0.9s0.1,0.5,0.2,0.7h-2
			c0-0.1-0.1-0.2-0.1-0.3c0-0.1,0-0.2,0-0.4c-0.3,0.3-0.7,0.6-1.1,0.7c-0.4,0.1-0.9,0.2-1.3,0.2c-0.3,0-0.7,0-1-0.1
			c-0.3-0.1-0.6-0.2-0.8-0.4c-0.2-0.2-0.4-0.4-0.5-0.7c-0.1-0.3-0.2-0.6-0.2-1c0-0.4,0.1-0.7,0.2-1c0.1-0.3,0.3-0.5,0.6-0.6
			c0.2-0.2,0.5-0.3,0.8-0.4s0.6-0.1,0.9-0.2c0.3,0,0.6-0.1,0.9-0.1c0.3,0,0.5-0.1,0.8-0.1s0.4-0.1,0.5-0.2c0.1-0.1,0.2-0.3,0.2-0.5
			c0-0.2,0-0.4-0.1-0.5c-0.1-0.1-0.2-0.2-0.3-0.3c-0.1-0.1-0.3-0.1-0.4-0.1c-0.2,0-0.3,0-0.5,0c-0.4,0-0.7,0.1-0.9,0.3
			s-0.4,0.4-0.4,0.8h-2C83.5,83,83.7,82.6,83.9,82.3z M87.8,85.1c-0.1,0-0.3,0.1-0.4,0.1c-0.1,0-0.3,0.1-0.5,0.1
			c-0.2,0-0.3,0-0.5,0.1c-0.1,0-0.3,0.1-0.4,0.1c-0.1,0-0.3,0.1-0.4,0.2c-0.1,0.1-0.2,0.2-0.3,0.3c-0.1,0.1-0.1,0.3-0.1,0.5
			c0,0.2,0,0.3,0.1,0.4s0.2,0.2,0.3,0.3c0.1,0.1,0.2,0.1,0.4,0.1c0.1,0,0.3,0,0.5,0c0.4,0,0.7-0.1,0.9-0.2c0.2-0.1,0.4-0.3,0.5-0.5
			c0.1-0.2,0.2-0.4,0.2-0.6c0-0.2,0-0.3,0-0.4V85C88,85,87.9,85.1,87.8,85.1z"/>
		<path fill="#FFFFFF" d="M94.8,82.6c-0.3,0-0.6,0.1-0.8,0.2c-0.2,0.1-0.4,0.3-0.5,0.6s-0.2,0.5-0.3,0.8c-0.1,0.3-0.1,0.5-0.1,0.8
			c0,0.3,0,0.5,0.1,0.8c0.1,0.3,0.1,0.5,0.3,0.7c0.1,0.2,0.3,0.4,0.5,0.5c0.2,0.1,0.5,0.2,0.8,0.2c0.5,0,0.8-0.1,1.1-0.4
			s0.4-0.6,0.5-1.1h1.9c-0.1,1-0.5,1.7-1.1,2.2s-1.4,0.8-2.4,0.8c-0.5,0-1-0.1-1.5-0.3c-0.5-0.2-0.8-0.4-1.2-0.8
			c-0.3-0.3-0.6-0.7-0.7-1.2c-0.2-0.5-0.3-0.9-0.3-1.5c0-0.6,0.1-1.1,0.2-1.6c0.2-0.5,0.4-0.9,0.7-1.2c0.3-0.3,0.7-0.6,1.2-0.8
			c0.5-0.2,1-0.3,1.6-0.3c0.4,0,0.8,0.1,1.2,0.2c0.4,0.1,0.8,0.3,1.1,0.5c0.3,0.2,0.6,0.5,0.8,0.9c0.2,0.3,0.3,0.7,0.3,1.2h-1.9
			C96.1,83,95.7,82.6,94.8,82.6z"/>
		<path fill="#FFFFFF" d="M101.1,78.5v3.8h0c0.3-0.4,0.6-0.7,1-0.9c0.4-0.2,0.8-0.3,1.1-0.3c0.5,0,1,0.1,1.3,0.2
			c0.3,0.1,0.6,0.3,0.8,0.6c0.2,0.3,0.3,0.6,0.4,0.9c0.1,0.4,0.1,0.8,0.1,1.2v4.5h-2v-4.1c0-0.6-0.1-1-0.3-1.3
			c-0.2-0.3-0.5-0.4-1-0.4c-0.5,0-0.9,0.2-1.2,0.5c-0.2,0.3-0.4,0.9-0.4,1.6v3.8h-2v-10H101.1z"/>
		<path fill="#FFFFFF" d="M110.8,80.1v-1.6h2v1.6H110.8z M112.8,81.3v7.2h-2v-7.2H112.8z"/>
		<path fill="#FFFFFF" d="M116,81.3v1h0c0.3-0.4,0.6-0.7,0.9-0.9s0.8-0.3,1.3-0.3c0.5,0,0.9,0.1,1.3,0.3c0.4,0.2,0.7,0.5,0.9,0.9
			c0.2-0.3,0.5-0.6,0.9-0.8c0.4-0.2,0.8-0.4,1.3-0.4c0.4,0,0.7,0,1.1,0.1c0.3,0.1,0.6,0.2,0.8,0.4c0.2,0.2,0.4,0.5,0.5,0.8
			s0.2,0.7,0.2,1.2v4.8h-2v-4.1c0-0.2,0-0.5,0-0.7c0-0.2-0.1-0.4-0.2-0.6c-0.1-0.2-0.2-0.3-0.4-0.4c-0.2-0.1-0.4-0.1-0.7-0.1
			c-0.3,0-0.5,0.1-0.7,0.2c-0.2,0.1-0.3,0.2-0.4,0.4c-0.1,0.2-0.2,0.4-0.2,0.6c0,0.2,0,0.4,0,0.7v4h-2v-4.1c0-0.2,0-0.4,0-0.6
			c0-0.2,0-0.4-0.1-0.6c-0.1-0.2-0.2-0.3-0.4-0.4c-0.2-0.1-0.4-0.2-0.7-0.2c-0.1,0-0.2,0-0.4,0.1c-0.2,0-0.3,0.1-0.4,0.2
			c-0.1,0.1-0.3,0.3-0.4,0.5c-0.1,0.2-0.2,0.5-0.2,0.9v4.2h-2v-7.2H116z"/>
		<path fill="#FFFFFF" d="M126.7,82.3c0.2-0.3,0.5-0.6,0.8-0.7s0.7-0.3,1.1-0.4c0.4-0.1,0.8-0.1,1.2-0.1c0.4,0,0.7,0,1.1,0.1
			c0.4,0.1,0.7,0.2,1,0.3c0.3,0.1,0.6,0.4,0.8,0.6c0.2,0.3,0.3,0.6,0.3,1.1v3.8c0,0.3,0,0.6,0.1,0.9c0,0.3,0.1,0.5,0.2,0.7h-2
			c0-0.1-0.1-0.2-0.1-0.3c0-0.1,0-0.2,0-0.4c-0.3,0.3-0.7,0.6-1.1,0.7c-0.4,0.1-0.9,0.2-1.3,0.2c-0.3,0-0.7,0-1-0.1
			s-0.6-0.2-0.8-0.4c-0.2-0.2-0.4-0.4-0.5-0.7c-0.1-0.3-0.2-0.6-0.2-1c0-0.4,0.1-0.7,0.2-1s0.3-0.5,0.6-0.6c0.2-0.2,0.5-0.3,0.8-0.4
			s0.6-0.1,0.9-0.2c0.3,0,0.6-0.1,0.9-0.1c0.3,0,0.5-0.1,0.8-0.1s0.4-0.1,0.5-0.2s0.2-0.3,0.2-0.5c0-0.2,0-0.4-0.1-0.5
			c-0.1-0.1-0.2-0.2-0.3-0.3c-0.1-0.1-0.3-0.1-0.4-0.1s-0.3,0-0.5,0c-0.4,0-0.7,0.1-0.9,0.3s-0.4,0.4-0.4,0.8h-2
			C126.4,83,126.5,82.6,126.7,82.3z M130.7,85.1c-0.1,0-0.3,0.1-0.4,0.1c-0.1,0-0.3,0.1-0.5,0.1s-0.3,0-0.5,0.1
			c-0.1,0-0.3,0.1-0.4,0.1c-0.1,0-0.3,0.1-0.4,0.2s-0.2,0.2-0.3,0.3c-0.1,0.1-0.1,0.3-0.1,0.5c0,0.2,0,0.3,0.1,0.4s0.2,0.2,0.3,0.3
			s0.2,0.1,0.4,0.1c0.1,0,0.3,0,0.5,0c0.4,0,0.7-0.1,0.9-0.2c0.2-0.1,0.4-0.3,0.5-0.5c0.1-0.2,0.2-0.4,0.2-0.6c0-0.2,0-0.3,0-0.4V85
			C130.9,85,130.8,85.1,130.7,85.1z"/>
		<path fill="#FFFFFF" d="M141.1,89c-0.1,0.4-0.2,0.7-0.5,1c-0.3,0.3-0.6,0.6-1.1,0.8c-0.5,0.2-1.2,0.3-2,0.3c-0.4,0-0.7,0-1.1-0.1
			c-0.4-0.1-0.7-0.2-1-0.4s-0.6-0.4-0.8-0.7s-0.3-0.6-0.3-1.1h2c0.1,0.4,0.3,0.6,0.5,0.8s0.6,0.2,0.9,0.2c0.6,0,1-0.2,1.2-0.5
			s0.4-0.8,0.4-1.3v-1h0c-0.2,0.4-0.5,0.7-0.9,0.8c-0.4,0.2-0.8,0.3-1.3,0.3c-0.5,0-1-0.1-1.4-0.3s-0.7-0.5-1-0.8s-0.4-0.7-0.6-1.2
			s-0.2-0.9-0.2-1.4c0-0.5,0.1-0.9,0.2-1.4c0.1-0.4,0.3-0.8,0.6-1.1c0.3-0.3,0.6-0.6,1-0.8c0.4-0.2,0.8-0.3,1.3-0.3
			c0.5,0,0.9,0.1,1.3,0.3c0.4,0.2,0.7,0.5,0.9,0.9h0v-1h1.9V88C141.2,88.3,141.2,88.7,141.1,89z M138.3,86.6
			c0.2-0.1,0.4-0.3,0.5-0.4c0.1-0.2,0.2-0.4,0.3-0.6c0.1-0.2,0.1-0.5,0.1-0.7c0-0.3,0-0.6-0.1-0.8c-0.1-0.3-0.1-0.5-0.3-0.7
			c-0.1-0.2-0.3-0.4-0.5-0.5c-0.2-0.1-0.5-0.2-0.8-0.2c-0.3,0-0.5,0.1-0.7,0.2c-0.2,0.1-0.4,0.3-0.5,0.5s-0.2,0.4-0.3,0.7
			c-0.1,0.2-0.1,0.5-0.1,0.8c0,0.3,0,0.5,0.1,0.8c0.1,0.3,0.1,0.5,0.3,0.7s0.3,0.4,0.5,0.5c0.2,0.1,0.5,0.2,0.8,0.2
			C137.9,86.8,138.1,86.7,138.3,86.6z"/>
		<path fill="#FFFFFF" d="M144.6,86.8c0.3,0.3,0.7,0.4,1.3,0.4c0.4,0,0.7-0.1,1-0.3c0.3-0.2,0.5-0.4,0.5-0.6h1.8
			c-0.3,0.9-0.7,1.5-1.3,1.9c-0.6,0.4-1.3,0.6-2.1,0.6c-0.6,0-1.1-0.1-1.5-0.3c-0.5-0.2-0.8-0.4-1.2-0.8c-0.3-0.3-0.6-0.7-0.7-1.2
			c-0.2-0.5-0.3-1-0.3-1.5c0-0.5,0.1-1,0.3-1.5s0.4-0.9,0.8-1.2s0.7-0.6,1.2-0.8c0.5-0.2,1-0.3,1.5-0.3c0.6,0,1.2,0.1,1.6,0.4
			c0.5,0.2,0.8,0.6,1.1,1s0.5,0.9,0.6,1.4c0.1,0.5,0.2,1,0.1,1.6h-5.2C144.2,86,144.3,86.5,144.6,86.8z M146.9,83
			c-0.2-0.3-0.6-0.4-1.1-0.4c-0.3,0-0.6,0.1-0.8,0.2s-0.4,0.2-0.5,0.4c-0.1,0.2-0.2,0.3-0.3,0.5c-0.1,0.2-0.1,0.3-0.1,0.5h3.2
			C147.3,83.6,147.1,83.2,146.9,83z"/>
	</g>
</g>
</svg>
