<?xml version="1.0" encoding="utf-8"?>
<!-- Generator: Adobe Illustrator 18.1.0, SVG Export Plug-In . SVG Version: 6.00 Build 0)  -->
<svg version="1.1" id="Layer_1" xmlns="http://www.w3.org/2000/svg" xmlns:xlink="http://www.w3.org/1999/xlink" x="0px" y="0px"
	 width="200px" height="200px" viewBox="0 0 200 200" enable-background="new 0 0 200 200" xml:space="preserve">
<g>
	<g>
		<path fill="#FFFFFF" d="M36.7,127.4c0.6-0.2,1.5-0.8,1.3-2.4c-0.2-1.1-1-1.7-1.7-1.6c-0.6,0.1-1,0.6-1,1.5l-0.1,1.8
			c-0.1,2.5-1.5,4.1-3.3,4.4c-2,0.3-4.4-1.1-4.8-4.1c-0.6-3.6,1.5-5.5,3.3-6l1.1,2.5c-1.2,0.3-2.1,1.3-1.8,3
			c0.2,1.1,0.8,1.7,1.6,1.6c0.7-0.1,1-0.7,1.1-1.6l0-1.8c0.1-2.3,1.3-3.8,3.2-4.1c2.4-0.4,4.5,1.5,4.9,4c0.5,3.2-1.2,4.8-2.7,5.3
			L36.7,127.4z"/>
		<path fill="#FFFFFF" d="M34.8,149.8l7.9-3.6l-9.3,0.4l-1-2.2l6.4-6.6l-7.8,3.5l-1.1-2.5l12-5.4l1.6,3.5l-6.6,6.9l9.5-0.5l1.6,3.7
			l-12,5.4L34.8,149.8z"/>
		<path fill="#FFFFFF" d="M47.8,163.7l-3.3-3.9l-2.6,1l-2-2.3l13.2-4.7l2.2,2.6l-6.9,12.2l-2.1-2.4L47.8,163.7z M47.2,158.8l2.1,2.4
			l2.4-4.1L47.2,158.8z"/>
		<path fill="#FFFFFF" d="M59.7,171.5l-0.8-0.6l-2.9,3.9l-2.4-1.7l7.8-10.5l4.2,3.1c2.1,1.5,2.4,4,1,5.8c-1.1,1.4-2.6,1.9-4.3,1.4
			l-1,5.8l-2.6-1.9L59.7,171.5z M61.7,169.9c1,0.7,1.9,0.6,2.4-0.2c0.6-0.8,0.4-1.7-0.5-2.4l-1.4-1l-1.9,2.6L61.7,169.9z"/>
		<path fill="#FFFFFF" d="M77.2,175.2l-4.1,9.5l-2.7-1.2l4.1-9.5l-3.7-1.6l1.1-2.6l10.1,4.4l-1.1,2.6L77.2,175.2z"/>
		<path fill="#FFFFFF" d="M102.2,190.5l-0.1-1.3c-0.6,0.8-1.9,1.5-3.8,1.4c-3.6-0.2-6.5-3-6.3-7.1c0.2-4.1,3.4-6.7,7.1-6.5
			c3.7,0.2,5.4,2.5,5.9,4.3l-2.9,0.8c-0.2-0.8-1-2.3-3.1-2.4c-1.8-0.1-3.9,1-4.1,3.9c-0.1,2.7,1.6,4.2,3.7,4.3
			c2.2,0.1,3.1-1.3,3.3-2l-3.9-0.2l0.1-2.5l6.7,0.3l-0.3,7L102.2,190.5z"/>
		<path fill="#FFFFFF" d="M119.4,185.7l-5,1l-0.4,2.8l-3,0.6l2.1-13.8l3.3-0.7l7.5,11.8l-3.1,0.7L119.4,185.7z M114.9,183.9l3.1-0.7
			l-2.5-4.1L114.9,183.9z"/>
		<path fill="#FFFFFF" d="M132,178.9l-0.9,0.4l2.1,4.4l-2.6,1.3l-5.6-11.8l4.7-2.2c2.3-1.1,4.6-0.2,5.6,1.9c0.8,1.6,0.5,3.2-0.7,4.5
			l4.7,3.6l-2.9,1.4L132,178.9z M131.5,176.3c1.1-0.5,1.4-1.4,1-2.2c-0.4-0.9-1.3-1.2-2.4-0.6l-1.6,0.7l1.4,2.9L131.5,176.3z"/>
		<path fill="#FFFFFF" d="M145.3,177l-8.2-10.2l3.7-3c3.1-2.5,6.7-2.2,9.2,1c2.5,3.2,2,6.8-1,9.2L145.3,177z M147.2,172
			c1.6-1.3,2.1-3.2,0.5-5.2c-1.6-2-3.7-1.9-5.2-0.7l-1.3,1.1l4.8,5.9L147.2,172z"/>
		<path fill="#FFFFFF" d="M159.1,164.5l-10.3-8.1l5.1-6.5l2.2,1.7l-3.3,4.2l2,1.5l3-3.8l2,1.6l-3,3.8l2,1.6l3.3-4.2l2.2,1.7
			L159.1,164.5z"/>
		<path fill="#FFFFFF" d="M171.9,143.9l-10.1,1.3l7.8,3.6l-1.2,2.6l-11.9-5.5l1.5-3.2l9.3-1.1l-7.2-3.3l1.2-2.7l11.9,5.5
			L171.9,143.9z"/>
		<path fill="#FFFFFF" d="M167.7,125.3c-0.6,0-1.7,0.3-2,1.8c-0.2,1.1,0.3,1.9,1,2c0.6,0.1,1.1-0.2,1.5-1l0.7-1.7
			c0.9-2.4,2.8-3.3,4.6-3c2,0.4,3.7,2.5,3.1,5.5c-0.7,3.6-3.3,4.6-5.1,4.5l-0.1-2.8c1.2,0.1,2.4-0.5,2.7-2.2c0.2-1.1-0.2-1.9-1-2.1
			c-0.7-0.1-1.2,0.3-1.6,1.1l-0.7,1.7c-0.8,2.1-2.5,3.1-4.5,2.8c-2.4-0.5-3.7-2.9-3.2-5.4c0.6-3.2,2.8-4.1,4.3-4L167.7,125.3z"/>
	</g>
	<g>
		<path fill="#FFFFFF" d="M101.9,112.8c0,0,9.5,2.3,11.7,2.8c0,0,11.2,1.5,10.5,10.5c0,0,0.2,2.8-2.8,5.8c0,0-2.4,2.7-6.1,2.8
			c0,0-7.6,0.3-10-8.2C105.3,126.5,102.5,114.1,101.9,112.8"/>
		<path fill="#FFFFFF" d="M102.1,111.4c0,0,3.8-7.3,9.4-13.4c3.7-4,13.1-13.4,21.5-6.9c0,0,5.5,4.5,3.5,11.6c-0.6,2-2.2,4.2-4.1,5.4
			c0,0-6,5-14.5,1.8C118,109.9,108.8,106,102.1,111.4"/>
		<path fill="#FFFFFF" d="M100.7,110.4c0,0-6.3-7.4-7.8-9.1c0,0-8.2-7.8-2.4-14.7c0,0,1.5-2.3,5.7-3.1c0,0,3.5-0.8,6.5,1.3
			c0,0,6.3,4.2,3.3,12.5C106,97.4,101,109,100.7,110.4"/>
		<path fill="#FFFFFF" d="M99.5,111.5c0,0-9,3.7-11.1,4.6c0,0-10,5.4-14.7-2.3c0,0-1.8-2.2-1.2-6.4c0,0,0.3-3.6,3.3-5.8
			c0,0,5.9-4.7,12.9,0.8C88.8,102.4,98.3,110.8,99.5,111.5"/>
		<path fill="#FFFFFF" d="M100.2,113.1c0,0,0.7,9.7,0.9,12c0,0,2,11.2-6.7,13.3c0,0-2.6,1-6.4-0.9c0,0-3.3-1.4-4.5-4.9
			c0,0-2.6-7.1,4.7-12.1C88.3,120.5,99.2,114,100.2,113.1"/>
	</g>
	<g>
		<path fill="#FFFFFF" d="M114.1,24.7c0.7,0.1,1.3,0,1.8-0.1c0.5-0.2,0.9-0.4,1.3-0.7c0.3-0.3,0.6-0.7,0.8-1.1
			c0.2-0.4,0.3-0.8,0.3-1.3c0-0.5,0-0.9-0.2-1.3c-0.1-0.4-0.4-0.7-0.6-0.9c-0.3-0.2-0.6-0.4-1-0.6c-0.4-0.1-0.8-0.2-1.3-0.3
			c-0.7-0.1-1.4,0-1.9,0.2c-0.5,0.2-0.9,0.4-1.3,0.7c-0.3,0.3-0.6,0.7-0.7,1c-0.2,0.4-0.3,0.7-0.3,1c-0.1,0.9,0.1,1.7,0.6,2.3
			C112.1,24.3,112.9,24.6,114.1,24.7z"/>
		<path fill="#FFFFFF" d="M192.4,58c-0.5-0.7-1.2-1.2-2.1-1.5c-0.9-0.4-1.9-0.6-3-0.7c-1.1-0.1-2.3-0.1-3.6,0.1
			c-1.3,0.1-2.7,0.4-4.1,0.7c-1.4,0.3-3.1,0.9-5.2,1.7c-2.1,0.8-3.1,1.3-3.1,1.3s-1,0.5-2.9,1.5c-2,1-3.4,1.9-4.5,2.7
			c-0.7,0.6-1.9,1.4-1.9,1.4c-1.2-0.1-2.3-0.2-3.3-0.4c-0.4-0.1-0.9-0.2-1.3-0.3c-0.4-0.1-0.9-0.2-1.3-0.3c-0.4-0.1-0.7-0.3-1.1-0.4
			c-0.3-0.1-0.6-0.3-0.7-0.5c-0.1-0.1-0.1-0.2-0.1-0.4s0.1-0.4,0.2-0.7c0.1-0.3,0.2-0.5,0.4-0.8c0.2-0.3,0.4-0.6,0.6-0.8l0.2-0.2
			c0.2-0.2,0.4-0.3,0.7-0.5c0.2-0.2,0.5-0.3,0.7-0.4s0.4-0.3,0.6-0.4c0.2-0.1,0.4-0.2,0.5-0.2c1.3-0.5,2.6-0.9,4-1.3
			c1.4-0.4,2.8-0.9,4.2-1.3c1.4-0.5,2.8-0.9,4.2-1.4c1.4-0.5,2.7-1.1,4-1.7c1.3-0.6,2.4-1.3,3.5-2c1.1-0.7,2.1-1.6,2.9-2.5
			c0.3-0.4,0.6-0.8,0.9-1.2c0.3-0.4,0.4-0.8,0.5-1.3c0.1-0.4,0.1-0.9-0.1-1.3c-0.1-0.4-0.4-0.9-0.9-1.3c-0.6-0.6-1.4-1-2.3-1.2
			c-0.9-0.2-1.9-0.3-3.1-0.2c-1.1,0.1-2.3,0.3-3.6,0.7c-1.3,0.4-2.6,0.8-3.9,1.4c-1.3,0.6-2.9,1.4-4.8,2.6c-1.9,1.2-2.8,1.8-2.8,1.8
			s-0.9,0.7-2.6,2c-1.8,1.3-3.1,2.4-4,3.4c-0.4,0.4-0.7,0.8-1,1.2c-0.2,0.1-0.5,0.1-0.8,0.2c-0.5,0.1-1,0.2-1.6,0.3
			c-0.6,0.1-1.1,0.1-1.7,0.1c-0.6,0-1.1,0-1.7,0c-0.5,0-1-0.1-1.4-0.2c-0.4-0.1-0.8-0.2-1-0.3c-0.2-0.1-0.3-0.3-0.4-0.4
			c0-0.2,0-0.4,0-0.6s0.2-0.5,0.3-0.8c0.1-0.3,0.3-0.6,0.5-0.9c0.1-0.2,0.3-0.5,0.7-0.9s0.7-0.8,1.2-1.4c0.4-0.5,1-1.2,1.7-2
			c0.7-0.8,1.3-1.5,1.8-2c0.5-0.6,0.9-1.1,1.2-1.6c0.3-0.5,0.6-0.9,0.8-1.2c0.2-0.3,0.2-0.7,0-1.1c-0.2-0.4-0.6-0.8-1.2-1.1
			c-0.5-0.3-1-0.5-1.5-0.5c-0.5,0-0.9,0.1-1.1,0.3l-7.4,8.2c-0.4,0.4-0.8,0.8-1.1,1c-0.4,0.3-0.8,0.4-1.2,0.5
			c-0.4,0.1-0.7,0.2-1.1,0.1c-0.3,0-0.6-0.1-0.9-0.3c-0.2-0.1-0.3-0.2-0.4-0.4s-0.1-0.4-0.1-0.6c0-0.2,0.1-0.4,0.1-0.6
			c0.1-0.2,0.2-0.4,0.3-0.6c0,0,0.1-0.2,0.4-0.5c0.3-0.3,0.6-0.7,1-1.1c0.4-0.5,0.9-1.1,1.6-1.9c0.7-0.8,1.3-1.5,1.8-2.1
			c0.6-0.6,1.1-1.3,1.6-1.9c0.5-0.6,1.1-1.3,1.6-2c0.1-0.2,0.1-0.5,0-0.8c-0.2-0.3-0.5-0.7-1.1-1.1c-0.4-0.2-0.8-0.3-1.1-0.3
			c-0.4,0-0.8,0.1-1.2,0.3c-0.3,0.1-0.6,0.3-0.9,0.5l0.1-0.1c-0.1,0.1-0.2,0.1-0.3,0.2c0,0,0,0,0,0c0,0,0,0,0,0
			c-1.6,1.1-3.3,1.4-6.3,1.5c-3.2,0-5.2-0.2-6.4-0.6c-0.1,0-0.2-0.1-0.3-0.1c-0.1-0.1-0.2-0.1-0.2-0.2c-0.1-0.1-0.2-0.1-0.3-0.2
			c-0.1-0.1-0.2-0.1-0.4-0.2c-0.1,0-0.3-0.1-0.4-0.1c-0.1,0-0.4,0-0.7,0l0.1-0.3c1.1-0.8,2.2-1.6,3.3-2.5c1.1-0.9,2.2-1.9,3.2-2.8
			c1.1-1,2-2,3-3c0.9-1,1.8-2,2.6-3c0.8-1,1.4-1.9,1.9-2.8c0.5-0.9,0.9-1.7,1.1-2.5c0.2-0.8,0.3-1.5,0.2-2.1
			c-0.1-0.6-0.3-1.2-0.6-1.6c-0.3-0.4-0.7-0.8-1.1-1.1c-0.4-0.3-0.9-0.5-1.3-0.6c-1.1-0.3-2.2-0.3-3.3,0.1c-1.1,0.4-2.2,1-3.3,1.9
			c-1.1,0.9-2.2,2-3.2,3.3c-1.1,1.3-2.1,2.8-3,4.3c-1,1.6-1.9,3.2-2.8,4.9c-0.9,1.7-1.7,3.4-2.4,5c-0.8,1.6-3.2,4.4-3.8,4.8
			c-0.6,0.4-1.2,0.9-1.9,1.3c-0.6,0.4-1.3,0.8-1.9,1c-0.6,0.3-1.1,0.4-1.6,0.3c-0.4,0-0.7-0.2-0.8-0.6c-0.1-0.4-0.1-0.8-0.1-1.4
			c0.1-0.6,0.2-1.3,0.5-2c0.3-0.7,0.5-1.4,0.7-2.2c0.2-0.7,0.5-1.6,0.9-2.7c0.4-1,0.8-1.9,1-2.5c0.2-0.7,0.4-1.2,0.6-1.8
			c0.2-0.5,0.3-0.9,0.3-1.2c0-0.3,0-0.6-0.2-0.8c-0.2-0.2-0.5-0.4-1.1-0.4c-0.3,0-0.6,0-1,0c-0.4,0-0.7,0.1-1.1,0.2
			c-0.4,0.1-0.7,0.3-1,0.5c-0.3,0.2-0.5,0.5-0.6,0.8c-0.2,0.5-0.6,1.5-1.2,3c-0.7,1.9-3.7,4.9-4.2,5.4c-0.4,0.5-0.9,0.9-1.4,1.3
			c-0.5,0.4-1,0.8-1.5,1.2c-0.5,0.4-1,0.7-1.5,1c-0.5,0.3-0.9,0.5-1.3,0.7c-0.4,0.2-0.7,0.3-1,0.3c-0.4,0-0.9,0-1.2-0.1
			c-0.4-0.1-0.7-0.3-1-0.6c-0.3-0.3-0.5-0.7-0.7-1.1c-0.2-0.5-0.3-1.1-0.4-1.8c0-0.3-0.1-0.6-0.1-0.9c0-0.3-0.1-0.7-0.1-1
			c0-0.4,0-0.7-0.1-1.1c0-0.4,0-0.7-0.1-1.1c0-0.8-0.1-1.6-0.1-2.4c0.3-0.4,0.6-0.9,0.9-1.5c0.3-0.5,0.7-1.1,1-1.7l7.6-0.8
			c0.3,0,0.6-0.2,0.8-0.6c0.2-0.3,0.3-0.7,0.3-1.2c0-0.4-0.1-0.8-0.3-1c-0.1-0.3-0.4-0.4-0.6-0.4c-0.2,0-0.5,0-0.8,0
			c-0.3,0-0.7,0-1.1,0.1c-0.4,0-0.8,0.1-1.2,0.1c-0.4,0-0.8,0.1-1.2,0.1c-0.4,0-0.7,0-1,0c-0.3,0-0.5,0-0.6,0.1
			c0.4-0.8,0.8-1.6,1.1-2.4c0.3-0.8,0.6-1.6,0.9-2.3c0.2-0.8,0.4-1.5,0.5-2.2c0.1-0.7,0.1-1.4,0.1-2c-0.1-0.8-0.2-1.5-0.5-2.2
			c-0.2-0.7-0.6-1.3-0.9-1.8c-0.4-0.5-0.8-0.9-1.3-1.1c-0.5-0.3-1-0.4-1.6-0.3c-0.9,0.1-1.7,0.6-2.4,1.4c-0.7,0.9-1.3,2-1.9,3.3
			c-0.5,1.4-1,2.9-1.4,4.6c-0.4,1.7-0.6,3.5-0.8,5.3c-0.1,0-0.4,0.1-0.7,0.1c-0.4,0-0.7,0.1-1.2,0.1c-0.4,0-0.9,0.1-1.4,0.1
			c-0.5,0.1-0.9,0.1-1.3,0.2c-0.4,0.1-0.7,0.2-1,0.3c-0.2,0.1-0.4,0.3-0.3,0.5c0,0.1,0,0.3,0.1,0.5c0,0.2,0.1,0.4,0.2,0.5
			c0.1,0.2,0.2,0.3,0.4,0.4c0.2,0.1,0.4,0.2,0.8,0.2c0.7,0,1.3,0,1.7,0c0.4,0,0.7,0,0.9,0.1c0.2,0,0.5,0.1,0.7,0.1
			c0.2,0,0.5,0.1,0.9,0.1c0,0.9,0,1.8,0,2.7c0,0.9,0.1,1.7,0.2,2.5c0.1,0.5,0.1,1,0.2,1.6c-0.4,1.1-1,2.5-1.1,2.8
			c-0.2,0.4-0.5,0.9-0.8,1.4c-0.3,0.5-0.6,0.9-1,1.4c-0.4,0.5-0.7,0.9-1.1,1.3c-0.4,0.4-0.7,0.7-1,1c-0.3,0.3-0.6,0.5-0.9,0.6
			c-0.2,0.1-0.4,0.1-0.6,0c-0.2-0.1-0.3-0.2-0.4-0.4c-0.1-0.2-0.3-0.4-0.4-0.7c-0.1-0.3-0.2-0.6-0.4-1c-0.1-0.2-0.2-0.6-0.2-1.1
			c-0.1-0.5-0.2-1.1-0.3-1.8c-0.1-0.7-0.3-1.5-0.4-2.6c-0.2-1-0.3-1.9-0.4-2.6c-0.1-0.7-0.3-1.4-0.5-2c-0.2-0.6-0.3-1-0.5-1.4
			c-0.1-0.3-0.4-0.6-0.8-0.7c-0.4-0.1-1,0-1.6,0.2c-0.5,0.2-1,0.5-1.3,0.8c-0.3,0.4-0.5,0.7-0.5,1l1.6,10.9c0.1,0.6,0.1,1.1,0,1.5
			c-0.1,0.5-0.2,0.9-0.3,1.2c-0.1,0.4-0.3,0.7-0.6,0.9c-0.2,0.2-0.5,0.4-0.8,0.5c-0.2,0.1-0.4,0.1-0.5,0c-0.2-0.1-0.3-0.1-0.5-0.3
			c-0.1-0.1-0.3-0.3-0.4-0.5c-0.1-0.2-0.2-0.4-0.3-0.6c0,0,0-0.2-0.1-0.6c-0.1-0.4-0.2-0.9-0.3-1.5c-0.1-0.6-0.2-1.4-0.4-2.5
			c-0.2-1-0.3-1.9-0.5-2.8c-0.1-0.8-0.3-1.7-0.4-2.5c-0.1-0.8-0.3-1.7-0.5-2.5c-0.1-0.3-0.3-0.4-0.7-0.5c-0.4-0.1-0.9,0-1.5,0.2
			c-0.4,0.2-0.7,0.4-1,0.7c-0.2,0.3-0.4,0.7-0.5,1.1c-0.1,0.4-0.2,0.8-0.2,1.3c0,0.4,0,0.9,0,1.3c0,0.4,0.1,0.8,0.1,1.1
			c0.1,0.3,0.6,2.7,0.6,2.7c0.5,2.1-1.7,8.2-1.8,8.6c-0.1,0.4-0.3,0.7-0.4,1c-0.2,0.3-0.4,0.5-0.6,0.7c-0.3,0.2-0.6,0.2-0.9,0
			c-0.3-0.2-0.6-0.6-1-1.1c-0.4-0.6-0.8-1.3-1.3-2.3c-0.4-1-0.8-1.8-1.1-2.6c-0.3-0.8-0.7-1.5-1-2.2c-0.3-0.7-0.7-1.3-1.1-1.8
			c-0.2-0.3-0.5-0.6-0.7-0.7s-0.4-0.2-0.6-0.3c-0.2,0-0.4,0-0.5,0.1c-0.2,0.1-0.3,0.2-0.5,0.3c-0.1,0.1-0.2,0.2-0.4,0.3
			c-0.1,0.1-0.2,0.2-0.4,0.3c-0.1,0.1-0.3,0.2-0.4,0.3c-0.1,0.1-0.3,0.1-0.5,0.2c-0.2,0-0.3,0-0.5,0c-0.2-0.1-0.3-0.1-0.5-0.2
			c-0.2-0.1-0.4-0.1-0.6-0.1c-0.2,0-0.4,0.1-0.7,0.3c-0.7,0.5-1.4,1.2-1.9,2c-0.5,0.8-0.9,1.7-1.1,2.7c-0.3,1-0.4,2-0.4,3.2
			c0,1.1,0.1,2.3,0.3,3.6c0.2,1,0.3,2.8,0.3,2.8c0,0.7,0,1.5,0,2.4s-0.2,1.8-0.4,2.8c-0.2,0.9-0.4,1.8-0.8,2.7
			c-0.3,0.9-0.8,1.6-1.3,2.2c-0.2,0.2-0.3,0.4-0.5,0.5c-0.2,0.1-0.4,0.2-0.6,0.3c-0.2,0.1-0.5,0.1-0.8,0.1c-0.3,0-0.6,0-1-0.1
			c0.5-1.1,0.9-2.2,1.1-3.3c0.2-1.1,0.3-2.2,0.2-3.2c-0.1-1-0.3-2-0.7-3.1c-0.4-1.1-0.9-1.8-1.5-2.4c-0.6-0.5-1.2-0.8-1.8-1
			c-0.6-0.2-1.3-0.2-1.9-0.2c-0.6,0.1-1.2,0.3-1.8,0.6c-0.6,0.3-1.1,0.8-1.6,1.3c-0.6,0.7-1,1.4-1.2,2.2c-0.2,0.8-0.3,1.6-0.3,2.4
			c0,0.8,0.2,1.6,0.4,2.4c0.3,0.8,0.6,1.6,1,2.3c1,1.8,1,4.5,1.2,5.2c0.1,0.6,0.2,2.4,0.2,3c0.1,0.6,0.1,1.2,0.1,1.7
			c0,0.6,0.1,1.1,0.1,1.7c-0.4-0.6-0.8-1.2-1.2-1.6c-0.4-0.5-0.8-0.9-1.3-1.3c-0.5-0.4-0.9-0.7-1.5-1c-0.5-0.3-1.1-0.6-1.7-0.9
			c-0.7-0.4-1.4-0.6-2.2-0.7c-0.8-0.1-1.5-0.1-2.2,0c-0.7,0.1-1.3,0.4-1.9,0.8c-0.6,0.4-1,0.9-1.4,1.6c-0.3,0.5-0.3,1.2-0.1,2
			c0.2,0.8,0.6,1.7,1.1,2.8l-0.3,0.2c-0.6-1.3-1.2-2.7-2-4.1c-0.7-1.4-1.5-2.7-2.3-4c-0.8-1.3-1.8-2.4-2.7-3.4c-1-1-2-1.8-3.1-2.3
			c-0.8-0.4-1.6-0.7-2.3-1c-0.8-0.3-1.5-0.4-2.1-0.3c-0.7,0-1.3,0.2-1.9,0.6c-0.6,0.4-1.1,1-1.5,1.9C6.9,66.1,6.9,67,7.2,68
			c0.3,1,0.9,2.1,1.6,3.2c0.8,1.1,1.7,2.3,2.9,3.4c1.1,1.2,2.4,2.3,3.9,3.4c1.5,1.1,2.7,2,3.7,2.7c1.3,0.9,2.5,1.7,3.7,2.4
			c0.9,0.7,2.5,1.8,4.6,3.1c1.4,0.9,2.6,1.7,3.7,2.3c1.2,0.7,2.2,1.3,3.1,1.8c0.8-0.4,5.3-3.6,6.2-7.3c0.9-3.7,0.7-8,0.8-8.8
			c0-0.8,0-1.7-0.2-2.6c-0.1-0.6-0.2-1.2-0.4-1.8c0.5,0.3,1,0.6,1.5,0.8c1,0.4,1.9,0.7,2.9,0.7c1,0,2-0.2,2.9-0.6
			c0.9-0.4,1.8-1.1,2.6-2c0.5-0.6,1-1.3,1.3-2c0.4-0.7,0.7-1.4,0.9-2.2c0.2-0.7,0.4-1.5,0.5-2.2c0.1-0.6,0.2-1.2,0.2-1.8
			c0,0,0,0,0,0c0.6,0.4,1.3,0.7,1.9,0.8c0.7,0.1,1.3,0.1,1.9,0c0.6-0.1,1.2-0.4,1.7-0.8c0.5-0.3,0.9-0.8,1.3-1.3
			c0.4-0.5,0.7-1,1-1.6c0.3-0.6,0.5-1.1,0.6-1.7c0.2-0.6,0.3-1.1,0.3-1.6c1,0.6,1.8,1,2.6,1.1c0.8,0.1,1.6-0.1,2.3-0.6
			c0.6-0.4,1.1-1,1.5-1.7c0.4-0.7,0.7-1.5,0.9-2.3c0.1-0.4,0.2-0.9,0.3-1.3c0.2,0.3,0.3,0.6,0.5,0.8c0.4,0.5,0.7,0.8,1.1,1
			c0.4,0.2,0.8,0.3,1.2,0.3c0.4,0,0.8-0.1,1.2-0.2c0.5-0.2,1-0.5,1.4-0.9c0.5-0.4,0.9-0.9,1.3-1.4c0.4-0.5,0.7-1.1,1.1-1.8
			c0.3-0.7,0.6-1.4,0.8-2.1c0.3,0.5,0.7,1,1,1.4s0.7,0.7,1,1c0.4,0.2,0.7,0.4,1.1,0.5c0.4,0.1,0.8,0,1.3-0.2
			c0.5-0.2,0.9-0.4,1.4-0.7c0.5-0.3,1-0.7,1.4-1.1c0.5-0.4,0.9-0.9,1.4-1.3c0.4-0.5,0.9-1,1.2-1.4c0.4-0.5,0.7-1,1-1.4
			c0.1-0.2,0.5-1,0.9-1.9c0.4,1.1,0.8,2,1.2,2.8c0.6,1.1,1.3,1.9,2.2,2.4c0.8,0.5,1.7,0.7,2.7,0.6c0.5-0.1,1-0.2,1.6-0.4
			c0.6-0.2,1.2-0.6,2-1c0.7-0.4,1.6-1,2.5-1.6c0.8-0.6,1.7-1.2,2.8-2c-0.1,0.3-0.1,0.6-0.1,0.9c-0.1,0.6,0,1.1,0,1.6
			c0.1,0.5,0.2,0.9,0.5,1.3c0.3,0.4,0.6,0.7,1.1,0.9c0.4,0.2,1,0.4,1.7,0.4c0.8,0.1,1.6,0,2.4-0.2c0.9-0.2,1.7-0.5,2.6-0.8
			c0.8-0.3,1.6-0.7,2.4-1.2c0.4-0.2,0.7-0.4,1-0.6c0,0.1-0.1,0.3-0.1,0.4c-0.5,1.1-0.8,2.1-1,2.8c-0.2,0.7-0.4,1.1-0.4,1.1
			c-0.2,0.8-0.4,1.6-0.6,2.4c-0.2,0.8-0.3,1.7-0.4,2.5c-0.1,0.8-0.1,1.6-0.1,2.4c0,0.8,0.2,1.5,0.4,2.1c0.2,0.6,0.5,1.2,0.9,1.7
			c0.4,0.5,1,0.8,1.7,1c0.7,0.2,1.4,0.3,2.1,0.1c0.7-0.1,1.3-0.4,1.9-0.7c0.6-0.3,1.1-0.8,1.6-1.3c0.5-0.5,1-1.1,1.4-1.7
			c0.4-0.6,0.8-1.2,1.1-1.8c0.3-0.6,0.6-1.2,0.9-1.7c0.2-0.5,0.4-0.9,0.6-1.3c0.1-0.4,0.2-0.6,0.3-0.7c0.3-1,0.4-2,0.4-3
			c0-1-0.1-2-0.2-2.9c-0.1-1-0.3-2-0.6-3c0.9,0.2,1.8,0.4,2.8,0.5c0.8,0.1,1.7,0.2,2.7,0.2c0.8,0,3,0,4.3-0.2
			c-0.7,0.8-1.3,1.4-1.8,1.9c-0.7,0.7-1.5,1.7-2.4,3.2c-0.4,0.7-0.7,1.4-0.8,1.9c-0.1,0.6-0.2,1.1-0.1,1.5c0.1,0.4,0.2,0.8,0.5,1.1
			c0.3,0.3,0.6,0.6,0.9,0.8c0.5,0.3,1,0.5,1.6,0.6c0.6,0.1,1.2,0.1,1.9,0.1c0.7,0,1.4-0.2,2.1-0.3c0.7-0.2,1.4-0.4,2.2-0.7
			c-0.2,0.6-0.3,1.1-0.4,1.6c-0.1,0.5-0.1,1-0.1,1.4c0,0.4,0.2,0.8,0.4,1.2c0.2,0.3,0.5,0.6,0.9,0.9c0.4,0.2,0.9,0.5,1.5,0.6
			c0.6,0.2,1.1,0.3,1.8,0.4c0.6,0.1,1.3,0.2,1.9,0.2c0.7,0,1.3,0.1,1.9,0c0.6,0,1.2-0.1,1.7-0.1c0.2,0,0.4-0.1,0.6-0.1
			c-0.3,0.6-0.6,1.2-0.8,1.8c-0.4,1.1-0.6,2-0.5,2.9c0,0.9,0.3,1.5,0.8,2c0.3,0.3,0.7,0.6,1.2,0.9c0.5,0.3,1,0.5,1.5,0.8
			c0.5,0.2,1.1,0.4,1.7,0.6c0.6,0.2,1.1,0.4,1.7,0.5c0.8,0.2,1.7,0.4,2.5,0.6c-0.1,0.2-0.3,0.4-0.4,0.6c-0.6,1-0.9,1.9-1,2.8
			c-0.1,0.9,0,1.6,0.5,2.1c0.3,0.4,0.6,0.7,1,1.1c0.4,0.4,0.9,0.7,1.4,1c0.5,0.3,1,0.6,1.5,0.9c0.5,0.3,1.1,0.6,1.6,0.8
			c0.1,0,0.2,0.1,0.3,0.1c-0.2,0.3-0.4,0.7-0.6,1c-0.2,0.6-0.4,1.3-0.3,1.9c0,0.7,0.2,1.3,0.4,1.8c0.3,0.7,0.8,1.3,1.5,1.8
			c0.7,0.5,1.4,1,2.3,1.4l-2.4,0.6c-1-0.5-1.9-0.8-2.7-1.1c-0.8-0.3-1.9-0.6-3.2-1c-0.6-0.2-1.3-0.4-2.1-0.5
			c-0.8-0.1-1.3-0.2-1.7-0.2c-0.4,0-1.1-0.1-2.1-0.2c-1.8-0.1-3.3,0.1-4.5,0.8c-0.6,0.4-1.2,0.8-1.5,1.3c-0.4,0.5-0.6,1-0.7,1.6
			c-0.1,0.6-0.1,1.1,0,1.7c0.1,0.6,0.3,1.2,0.6,1.8c0.3,0.8,0.8,1.4,1.3,1.9c0.5,0.5,1.1,0.9,1.7,1.2c0.6,0.3,1.3,0.5,2,0.6
			c0.7,0.1,1.4,0.2,2.1,0.1c0.7,0,1.4-0.1,2.1-0.2c0.7-0.1,1.4-0.3,1.9-0.5c0.5-0.2,1.1-0.3,1.7-0.5c0.2-0.1,0.6-0.2,1.1-0.3
			c1.6-0.5,2.7-0.9,3.4-1c0.6-0.1,1.1-0.1,1.5,0.1c1.5,0.9,2.4,1.5,2.7,1.6c1,0.5,1.5,0.8,1.6,0.8c0.3,0.2,0.9,0.4,1.7,0.8
			c0.6,0.2,1.1,0.4,1.7,0.6c0.5,0.2,1,0.3,1.5,0.3l3.6-2.7c-1.5-0.3-2.8-0.6-3.8-0.8c-1-0.3-1.9-0.6-2.7-0.9
			c-0.7-0.3-1.4-0.6-1.8-0.9c-0.5-0.3-0.9-0.6-1.3-0.8c2.2-0.6,4.2-1.2,6.2-1.7c0.8-0.2,1.9-0.5,3.2-0.8c1.3-0.3,2.4-0.6,3.1-0.8
			c0.7-0.2,1.4-0.4,2-0.5c0.6-0.2,1-0.3,1.4-0.4c0.2,0,0.3-0.1,0.4-0.1c0.3-0.2,0.5-0.4,0.6-0.7c0-0.3,0-0.7-0.2-1
			c-0.1-0.3-0.3-0.6-0.6-0.9c-0.3-0.3-0.6-0.6-1-0.8c-0.4-0.2-0.8-0.4-1.2-0.5c-0.4-0.1-0.9-0.1-1.3,0l-7.4,1.6
			c-0.4,0.1-0.9,0.2-1.6,0.3c-0.7,0.1-1.3,0.1-2,0.1c-0.7,0-1.3-0.1-1.8-0.3c-0.5-0.2-0.9-0.5-1.1-0.9c-0.1-0.3-0.2-0.5-0.1-0.8
			c0.1-0.2,0.2-0.5,0.4-0.7c0.2-0.2,0.4-0.4,0.7-0.6c0.3-0.2,0.5-0.3,0.9-0.5c0.6-0.3,1.3-0.5,2.1-0.7c0.8-0.2,1.9-0.5,3.3-0.8
			c1.4-0.3,2.5-0.6,3.3-0.8c0.8-0.2,1.6-0.3,2.2-0.4c0.2,0,0.4,0,0.6-0.1c0.2,0,0.3-0.1,0.5-0.2c0.4-0.2,0.7-0.5,0.8-0.9
			c0.1-0.4,0-0.8-0.2-1.2c-0.2-0.5-0.6-0.9-1.1-1.3s-1.1-0.6-1.8-0.6c-0.9,0-1.8,0-2.7,0c-0.9,0-2,0.3-3.4,0.6
			c-1.4,0.4-2.5,0.7-3.5,0.9c-0.3,0.1-0.7,0.2-1,0.3c-0.6-0.2-1.3-0.4-1.8-0.6c-0.4-0.1-0.8-0.3-1.2-0.5c-0.4-0.2-0.8-0.4-1.2-0.5
			c-0.4-0.2-0.7-0.4-1-0.6c-0.3-0.2-0.5-0.4-0.7-0.6c-0.1-0.1-0.1-0.2,0-0.4c0-0.2,0.1-0.4,0.3-0.6c0.1-0.2,0.3-0.5,0.5-0.7
			c0.2-0.3,0.5-0.5,0.7-0.7l0.2-0.2c0.2-0.1,0.5-0.3,0.7-0.4c0.3-0.1,0.5-0.2,0.7-0.3c0.2-0.1,0.5-0.2,0.7-0.2
			c0.2-0.1,0.4-0.1,0.5-0.1c1.3-0.2,2.7-0.4,4.1-0.6c1.4-0.2,2.9-0.4,4.3-0.6c1.5-0.2,2.9-0.4,4.4-0.7s2.8-0.6,4.2-1
			c1.3-0.4,2.6-0.9,3.8-1.4c1.2-0.5,2.3-1.2,3.3-1.9c0.4-0.3,0.8-0.6,1.1-1c0.3-0.4,0.6-0.8,0.7-1.2c0.2-0.4,0.2-0.8,0.2-1.3
			C193,59,192.7,58.5,192.4,58z M164.7,51.2c1.5-1.1,2.2-1.6,2.2-1.6c0,0,0.9-0.5,2.6-1.5c1.7-1,3.1-1.7,3.9-2
			c0.9-0.3,1.7-0.5,2.3-0.6c0.7-0.1,1.1,0,1.4,0.3c0.1,0.1,0,0.2-0.1,0.4c-0.2,0.2-0.4,0.5-0.7,0.7c-0.9,0.8-2,1.6-3.3,2.3
			c-1.3,0.7-2.6,1.4-4,2c-1.4,0.6-2.8,1.2-4.2,1.7c-1.4,0.5-2.7,1-3.8,1.3C162,53.3,163.2,52.3,164.7,51.2z M127.4,31.2
			c0.3-0.8,0.8-1.7,1.3-2.7c0.5-1,1.2-2.1,2.1-3.4c0.9-1.4,2-2.8,3.2-4.2c0.8-0.9,1.3-1.4,1.5-1.6c0.3-0.2,0.8-0.2,1.5,0
			c0.4,0.1,0.7,0.4,0.8,0.7c0.1,0.4,0,0.9-0.2,1.5c-0.1,0.5-0.6,1.2-1.4,2.2s-1.7,2-2.7,3c-1,1-2.1,2.1-3.4,3.2
			c-1.3,1.1-2.5,2.3-3.8,3.5C126.8,32.7,127.1,31.9,127.4,31.2z M21.7,78.1c-0.6-0.4-1.2-0.9-1.9-1.5c-0.7-0.5-1.4-1.1-2.2-1.7
			c-0.8-0.6-1.5-1.2-2.2-1.9c-0.7-0.6-1.4-1.2-2-1.9c-0.6-0.6-1.2-1.2-1.6-1.7c-0.5-0.5-0.8-1-1-1.4c-0.2-0.4-0.3-0.7-0.1-1
			c0.1-0.2,0.2-0.3,0.4-0.4s0.4-0.1,0.6-0.1c0.2,0,0.4,0.1,0.5,0.1c0.2,0.1,0.3,0.1,0.3,0.1c0.8,0.5,1.6,1,2.3,1.6
			c0.7,0.6,1.4,1.3,2,2c0.6,0.7,1.2,1.4,1.8,2.2c0.6,0.8,1.1,1.5,1.6,2.3c0.5,0.8,1,1.5,1.5,2.2c0.5,0.7,0.9,1.4,1.4,2
			C22.7,78.9,22.2,78.5,21.7,78.1z M36.8,82.6c-0.2,0.3-0.3,0.7-0.4,1.1c-0.1,0.4-0.3,0.8-0.6,1.1c-0.3,0.3-0.6,0.7-0.9,1
			c-0.4-0.3-0.8-0.5-1.3-0.8c-0.4-0.2-0.8-0.5-1.3-0.9c-1.3-0.9-2.9-1.8-3.8-2.9c-0.4-0.6-0.8-1.1-0.9-1.6c-0.2-0.5-0.3-1.1-0.2-1.6
			c0-0.5,0.2-1,0.4-1.4c0.2-0.5,0.5-0.8,0.8-1.1c0.3-0.2,0.6-0.4,0.8-0.5c0.3-0.1,0.6-0.1,0.9,0c0.3,0.1,0.6,0.2,0.9,0.3
			c0.5,0.2,0.9,0.5,1.4,0.8c0.5,0.3,1,0.7,1.5,1.1c0.5,0.4,1,0.8,1.4,1.3c0.4,0.4,0.8,0.9,1,1.4c0.3,0.5,0.4,0.9,0.5,1.4
			C37.1,81.8,37,82.2,36.8,82.6z M42.6,63.3c-0.2,0.6-0.4,1.1-0.7,1.4c-0.2-0.2-0.5-0.4-0.8-0.7c-0.3-0.3-0.6-0.7-0.9-1.3
			c-0.3-0.6-0.6-1.1-0.8-1.4c-0.2-0.4-0.4-0.8-0.4-1.2c-0.1-0.4-0.1-0.8,0-1.3c0.1-0.4,0.3-0.9,0.7-1.3c0.2-0.2,0.5-0.3,0.9-0.2
			c0.4,0.1,0.9,0.3,1.3,0.7c0.3,0.3,0.6,0.8,0.7,1.5c0.2,0.8,0.3,1.4,0.2,2.1C42.9,62.1,42.8,62.7,42.6,63.3z M59.2,55.3
			c-0.1,0.6-0.3,1-0.7,1.3c-0.2,0.2-0.5,0.3-0.7,0.2c-0.3,0-0.5-0.1-0.7-0.2c-0.2-0.1-0.5-0.3-0.7-0.6c-0.2-0.2-0.4-0.5-0.6-0.8
			c-0.3-0.5-0.6-1-0.9-1.6c-0.3-0.6-0.5-1.4-0.7-2.3c-0.2-0.9-0.3-1.7-0.3-2.4c0-0.7,0-1.4,0.1-2c0.1-0.6,0.3-1.2,0.5-1.7
			c0.3-0.5,0.6-0.9,1.1-1.2l2.5,6.1c0.2,0.4,0.4,0.9,0.6,1.5c0.2,0.6,0.4,1.3,0.5,1.9C59.2,54.2,59.2,54.8,59.2,55.3z M93,24.9
			c0.1-1.1,0.3-2.2,0.4-3.3c0.2-1.1,0.4-2.2,0.6-3.2c0.2-1,0.5-1.8,0.8-2.4c0.3-0.6,0.6-1,0.9-1c0.2,0,0.4,0,0.6,0.1
			c0.1,0.1,0.3,0.2,0.3,0.4c0.1,0.1,0.1,0.3,0.2,0.5s0.1,0.3,0.1,0.5c0,0.4,0,1-0.2,1.6c-0.2,0.7-0.4,1.4-0.6,2.2
			c-0.3,0.8-0.6,1.6-0.9,2.4c-0.3,0.8-0.7,1.6-1,2.3c-0.2,0-0.4,0-0.6,0C93.4,24.9,93.2,24.9,93,24.9z M124.1,43.6
			c-0.1,1-0.3,1.9-0.4,2.6c-0.2,0.8-0.3,1.5-0.5,2.1c-0.2,0.7-0.3,1.2-0.4,1.6c-0.2,0.7-0.4,1.3-0.7,2c-0.3,0.7-0.5,1.3-0.9,1.9
			c-0.3,0.6-0.7,1-1,1.3c-0.4,0.3-0.8,0.4-1.2,0.3c-0.1,0-0.3-0.2-0.3-0.4c-0.1-0.2-0.1-0.6,0-1.2c0.1-0.6,0.2-1.5,0.5-2.6
			c0.3-1.1,0.7-2.6,1.2-4.5c0.1-0.3,0.2-0.6,0.4-1.1c0.2-0.5,0.3-0.9,0.5-1.4c0.2-0.5,0.4-1.1,0.7-1.9c0.3-0.8,0.5-1.4,0.7-1.8
			c0.2-0.4,0.3-0.8,0.5-1c0.1-0.3,0.2-0.4,0.3-0.4c0.2,0,0.3,0.3,0.3,0.7c0.1,0.4,0.2,0.9,0.3,1.4C124.2,41.9,124.3,42.7,124.1,43.6
			z M159.2,89.5c-0.6,0.2-1.2,0.4-1.6,0.5c-0.5,0.1-0.9,0.2-1.3,0.3c-0.7,0.1-1.3,0.2-1.8,0.2c-0.4,0.1-0.9,0.1-1.4,0.1
			c-0.5,0-0.9,0-1.1,0c-0.3,0-0.6-0.1-0.8-0.2c-0.3-0.1-0.5-0.3-0.7-0.5c-0.2-0.2-0.3-0.4-0.5-0.7c-0.4-0.8,0.1-1.3,1.5-1.4
			c1.6-0.1,3.2-0.1,4.9,0.1c1.7,0.2,3,0.6,4,1.2C160.2,89.1,159.8,89.3,159.2,89.5z M187.6,59.9c-0.2,0.2-0.5,0.4-0.8,0.6
			c-1,0.6-2.2,1.2-3.6,1.7c-1.4,0.5-2.8,0.9-4.3,1.3c-1.5,0.4-3,0.7-4.4,1c-1.5,0.3-2.8,0.5-4,0.7c1.1-0.8,2.5-1.5,4.1-2.3
			c1.6-0.8,2.5-1.2,2.5-1.2c0,0,0.9-0.3,2.8-1c1.9-0.7,3.3-1.1,4.2-1.3c0.9-0.2,1.7-0.3,2.4-0.2c0.7,0,1.1,0.2,1.3,0.5
			C187.8,59.6,187.8,59.7,187.6,59.9z"/>
	</g>
</g>
</svg>
