<?xml version="1.0" encoding="utf-8"?>
<!-- Generator: Adobe Illustrator 18.1.0, SVG Export Plug-In . SVG Version: 6.00 Build 0)  -->
<svg version="1.1" id="Layer_1" xmlns="http://www.w3.org/2000/svg" xmlns:xlink="http://www.w3.org/1999/xlink" x="0px" y="0px"
	 width="119.3px" height="102px" viewBox="0 0 119.3 102" enable-background="new 0 0 119.3 102" xml:space="preserve">
<g>
	<path fill="#FFFFFF" d="M54.5,54.3c0,0,17.5,4.3,21.6,5.2c0,0,20.8,2.8,19.5,19.3c0,0,0.3,5.2-5.2,10.8c0,0-4.4,5-11.2,5.1
		c0,0-14,0.5-18.5-15.2C60.7,79.6,55.6,56.8,54.5,54.3"/>
	<path fill="#FFFFFF" d="M54.9,51.8c0,0,7-13.5,17.4-24.8c6.8-7.4,24.2-24.8,39.7-12.8c0,0,10.1,8.3,6.5,21.4
		c-1,3.8-4.1,7.7-7.6,10.1c0,0-11.1,9.2-26.8,3.3C84.1,49,67.1,41.8,54.9,51.8"/>
	<path fill="#FFFFFF" d="M52.2,49.9c0,0-11.6-13.8-14.4-16.9c0,0-15.2-14.5-4.4-27.1c0,0,2.8-4.3,10.5-5.7c0,0,6.5-1.5,12.1,2.5
		c0,0,11.6,7.8,6.1,23.2C62.1,25.9,52.7,47.3,52.2,49.9"/>
	<path fill="#FFFFFF" d="M50,52c0,0-16.7,6.8-20.5,8.5c0,0-18.4,10-27.1-4.2c0,0-3.3-4-2.2-11.8c0,0,0.6-6.6,6.1-10.7
		c0,0,11-8.7,23.9,1.4C30.2,35.2,47.7,50.7,50,52"/>
	<path fill="#FFFFFF" d="M51.4,54.8c0,0,1.3,18,1.7,22.1c0,0,3.8,20.6-12.4,24.5c0,0-4.8,1.9-11.9-1.6c0,0-6.1-2.6-8.3-9.1
		c0,0-4.8-13.1,8.7-22.3C29.3,68.5,49.4,56.6,51.4,54.8"/>
</g>
</svg>
