<?xml version="1.0" encoding="utf-8"?>
<!-- Generator: Adobe Illustrator 18.1.0, SVG Export Plug-In . SVG Version: 6.00 Build 0)  -->
<svg version="1.1" id="Layer_1" xmlns="http://www.w3.org/2000/svg" xmlns:xlink="http://www.w3.org/1999/xlink" x="0px" y="0px"
	 width="520.9px" height="605.4px" viewBox="0 0 520.9 605.4" enable-background="new 0 0 520.9 605.4" xml:space="preserve">
<g>
	<defs>
		<path id="SVGID_1_" d="M0.9,605.4H520c0.5,0,0.9-0.4,0.9-0.9V28.5l-0.5-28.3c0-0.1-0.1-0.2-0.2-0.2L0,0.2v21.3v583
			C0,604.9,0.4,605.4,0.9,605.4z"/>
	</defs>
	<clipPath id="SVGID_2_">
		<use xlink:href="#SVGID_1_"  overflow="visible"/>
	</clipPath>
	<path clip-path="url(#SVGID_2_)" fill="#FFFFFF" d="M0,0.2c0,0,0,21.3,0,28.3L0,577c0,0,0,28.3,28.3,28.3h464.2
		c0,0,28.3,0,28.3-28.3V28.5l-0.5-28.3H0z"/>
</g>
<g>
	<defs>
		<rect id="SVGID_3_" x="57.4" y="254.2" width="398.1" height="292.3"/>
	</defs>
	<clipPath id="SVGID_4_">
		<use xlink:href="#SVGID_3_"  overflow="visible"/>
	</clipPath>
	<path clip-path="url(#SVGID_4_)" fill="#63A70A" d="M70.4,302.4c0.2,3.4,2.6,6.8,7.9,6.8c3.9,0,5.8-2.1,5.8-4.3
		c0-1.8-1.2-3.3-4.9-4.1l-5.7-1.3c-10.7-2.3-14.9-8.4-14.9-15.4c0-9.2,8.1-16.6,19.3-16.6c14.5,0,19.6,9.1,20.1,14.9l-12.7,2.3
		c-0.4-3.3-2.5-6.2-7.2-6.2c-2.9,0-5.4,1.7-5.4,4.3c0,2.1,1.7,3.3,3.9,3.7l6.7,1.3c10.4,2.1,15.4,8.4,15.4,15.7
		c0,8.6-6.6,16.9-20,16.9c-15.7,0-20.8-10.2-21.2-15.7L70.4,302.4z"/>
	<path clip-path="url(#SVGID_4_)" fill="#63A70A" d="M105.6,318.9v-50.1h14.6v5.7c2.5-4.4,9-7.3,14.4-7.3c7.2,0,12.3,2.9,14.8,7.9
		c3.9-5.6,8.8-7.9,15.5-7.9c9.5,0,18.6,5.5,18.6,19.2v32.5h-14.8v-29c0-4.7-2.5-8.5-8-8.5c-5.4,0-8.4,4.1-8.4,8.6v28.9h-15.1v-29
		c0-4.7-2.5-8.5-8.1-8.5c-5.3,0-8.3,4.1-8.3,8.7v28.8H105.6z"/>
	<path clip-path="url(#SVGID_4_)" fill="#63A70A" d="M205.4,290l11.8-1.8c2.7-0.4,3.6-1.7,3.6-3.4c0-2.9-2.5-5.4-7.4-5.4
		c-5.3,0-8.3,3.6-8.6,7.4l-13.3-2.7c0.6-7.2,7.3-16.6,22-16.6c16.2,0,22.2,9.1,22.2,19.4v24.5c0,3.9,0.5,7.3,0.6,7.8h-13.8
		c-0.1-0.4-0.5-2.2-0.5-5.6c-2.6,4.2-7.5,7.1-14.1,7.1c-11,0-17.3-7.3-17.3-15.2C190.5,296.2,197.1,291.2,205.4,290 M220.8,299.2
		V297l-9.5,1.5c-3.2,0.5-5.6,2-5.6,5.5c0,2.6,1.7,5.1,6,5.1C216.2,309.2,220.8,307,220.8,299.2"/>
	<path clip-path="url(#SVGID_4_)" fill="#63A70A" d="M277.6,283.9c-1.7-0.4-3.3-0.5-4.8-0.5c-6.2,0-11.7,3.6-11.7,13.6v21.9h-15.3
		v-50.1h14.8v6.8c2.6-5.6,9-7.3,13-7.3c1.5,0,3,0.2,4,0.5V283.9z"/>
	<path clip-path="url(#SVGID_4_)" fill="#63A70A" d="M303.8,268.8h9.8v13.4h-9.8V301c0,4.1,2.2,5.2,5.5,5.2c1.6,0,3.1-0.3,4-0.5
		v12.7c-0.6,0.3-3.1,1.4-8,1.4c-10.4,0-16.7-6.2-16.7-16.1v-21.5h-8.9v-13.4h2.5c5.2,0,7.8-3.5,7.8-8.2v-6.5h13.7V268.8z"/>
	<path clip-path="url(#SVGID_4_)" fill="#63A70A" d="M69.1,325.2c5,0,9.1,4,9.1,9c0,4.9-4,9-9.1,9c-4.8,0-8.9-4-8.9-9
		C60.2,329.2,64.3,325.2,69.1,325.2 M61.5,349.5h15.3v50.1H61.5V349.5z"/>
	<path clip-path="url(#SVGID_4_)" fill="#63A70A" d="M118.2,364.6c-1.7-0.4-3.3-0.5-4.8-0.5c-6.2,0-11.7,3.6-11.7,13.6v21.9H86.3
		v-50.1h14.8v6.8c2.6-5.6,9-7.3,13-7.3c1.5,0,3,0.2,4,0.5V364.6z"/>
	<path clip-path="url(#SVGID_4_)" fill="#63A70A" d="M155.4,364.6c-1.7-0.4-3.3-0.5-4.8-0.5c-6.2,0-11.7,3.6-11.7,13.6v21.9h-15.3
		v-50.1h14.8v6.8c2.6-5.6,9-7.3,13-7.3c1.5,0,3,0.2,4,0.5V364.6z"/>
	<path clip-path="url(#SVGID_4_)" fill="#63A70A" d="M168.2,325.2c5,0,9.1,4,9.1,9c0,4.9-4,9-9.1,9c-4.8,0-8.9-4-8.9-9
		C159.4,329.2,163.4,325.2,168.2,325.2 M160.7,349.5H176v50.1h-15.3V349.5z"/>
	<path clip-path="url(#SVGID_4_)" fill="#63A70A" d="M195.5,398.6c1,4.8,5,8.4,10.8,8.4c7.7,0,12.4-3.7,12.4-12.8v-2.3
		c-1.8,2.7-6.2,5.6-13.4,5.6c-13.3,0-23.3-10.5-23.3-24.4c0-13.2,9.6-24.5,23.3-24.5c8.2,0,12.5,3.6,13.9,6.3v-5.3h14.6v43.9
		c0,14.4-8.1,26.9-26.8,26.9c-14.4,0-23.6-8.9-25-17.9L195.5,398.6z M218.8,373.1c0-6.9-4.9-11.1-10.7-11.1
		c-5.7,0-10.8,4.2-10.8,11.1c0,6.9,4.6,11.1,10.8,11.1C214.3,384.2,218.8,379.9,218.8,373.1"/>
	<path clip-path="url(#SVGID_4_)" fill="#63A70A" d="M254.1,370.7l11.8-1.8c2.7-0.4,3.6-1.7,3.6-3.4c0-2.9-2.5-5.4-7.4-5.4
		c-5.3,0-8.3,3.6-8.6,7.4l-13.3-2.7c0.6-7.2,7.3-16.6,22-16.6c16.2,0,22.2,9.1,22.2,19.4v24.5c0,3.9,0.5,7.3,0.6,7.8h-13.8
		c-0.1-0.4-0.5-2.2-0.5-5.6c-2.6,4.2-7.5,7.1-14.1,7.1c-11,0-17.3-7.3-17.3-15.2C239.3,376.9,245.8,371.9,254.1,370.7 M269.5,379.9
		v-2.2l-9.5,1.5c-3.2,0.5-5.6,2-5.6,5.5c0,2.6,1.7,5.1,6,5.1C264.9,389.9,269.5,387.7,269.5,379.9"/>
	<path clip-path="url(#SVGID_4_)" fill="#63A70A" d="M311.3,349.5h9.8v13.4h-9.8v18.8c0,4.1,2.2,5.2,5.5,5.2c1.6,0,3.1-0.3,4-0.5
		v12.7c-0.6,0.3-3.1,1.4-8,1.4c-10.4,0-16.7-6.2-16.7-16.1v-21.5h-8.9v-13.4h2.5c5.2,0,7.8-3.5,7.8-8.2v-6.5h13.7V349.5z"/>
	<path clip-path="url(#SVGID_4_)" fill="#63A70A" d="M335.6,325.2c5,0,9.1,4,9.1,9c0,4.9-4,9-9.1,9c-4.8,0-8.9-4-8.9-9
		C326.7,329.2,330.7,325.2,335.6,325.2 M328,349.5h15.3v50.1H328V349.5z"/>
	<path clip-path="url(#SVGID_4_)" fill="#63A70A" d="M402.4,374.5c0,15.5-11.6,26.6-26.6,26.6c-14.9,0-26.6-11.1-26.6-26.6
		s11.7-26.5,26.6-26.5C390.8,348,402.4,359,402.4,374.5 M387.1,374.5c0-8.5-5.4-12.4-11.3-12.4c-5.7,0-11.3,3.9-11.3,12.4
		c0,8.4,5.5,12.5,11.3,12.5C381.7,387,387.1,383,387.1,374.5"/>
	<path clip-path="url(#SVGID_4_)" fill="#63A70A" d="M423.7,399.6h-15.3v-50.1h14.8v5.7c2.7-4.7,8.9-7.1,14-7.1
		c12.6,0,18.3,9,18.3,20v31.5h-15.3v-28.8c0-4.9-2.6-8.7-8.2-8.7c-5,0-8.3,3.7-8.3,8.8V399.6z"/>
	<path clip-path="url(#SVGID_4_)" fill="#63A70A" d="M61.5,485.3v-50.1h14.6v5.7c2.5-4.4,9-7.3,14.4-7.3c7.2,0,12.3,2.9,14.8,7.9
		c3.9-5.6,8.8-7.9,15.5-7.9c9.5,0,18.6,5.5,18.6,19.2v32.5h-14.8v-29c0-4.7-2.5-8.5-8-8.5c-5.4,0-8.4,4.1-8.4,8.6v28.9H93.2v-29
		c0-4.7-2.5-8.5-8.1-8.5c-5.3,0-8.3,4.1-8.3,8.7v28.8H61.5z"/>
	<path clip-path="url(#SVGID_4_)" fill="#63A70A" d="M200.1,460.2c0,15.5-11.6,26.6-26.6,26.6c-14.9,0-26.6-11.1-26.6-26.6
		c0-15.5,11.7-26.5,26.6-26.5C188.5,433.7,200.1,444.7,200.1,460.2 M184.8,460.2c0-8.5-5.4-12.4-11.3-12.4
		c-5.7,0-11.3,3.9-11.3,12.4c0,8.4,5.5,12.5,11.3,12.5C179.3,472.7,184.8,468.7,184.8,460.2"/>
	<path clip-path="url(#SVGID_4_)" fill="#63A70A" d="M223.4,485.3h-15.3v-50.1h14.8v5.7c2.7-4.7,8.9-7.1,14-7.1
		c12.6,0,18.3,9,18.3,20v31.5h-15.3v-28.8c0-4.9-2.6-8.7-8.2-8.7c-5,0-8.3,3.7-8.3,8.8V485.3z"/>
	<path clip-path="url(#SVGID_4_)" fill="#63A70A" d="M284.5,435.2h9.8v13.4h-9.8v18.8c0,4.1,2.2,5.2,5.5,5.2c1.6,0,3.1-0.3,4-0.5
		v12.7c-0.6,0.3-3.1,1.4-8,1.4c-10.4,0-16.7-6.2-16.7-16.1v-21.5h-8.9v-13.4h2.5c5.2,0,7.8-3.5,7.8-8.2v-6.5h13.7V435.2z"/>
	<path clip-path="url(#SVGID_4_)" fill="#63A70A" d="M314.9,485.3h-15.3v-73h15.3v26.1c3.1-3.1,8.4-4.5,12.8-4.5c13.1,0,19,9,19,20
		v31.5h-15.3v-28.8c0-4.9-2.6-8.7-8.2-8.7c-4.8,0-8,3.4-8.3,8.1V485.3z"/>
	<polygon clip-path="url(#SVGID_4_)" fill="#231F20" points="77.4,545.8 65,526 65,545.8 58.3,545.8 58.3,515.7 66.4,515.7 
		77.8,534 77.8,515.7 84.5,515.7 84.5,545.8 	"/>
	<path clip-path="url(#SVGID_4_)" fill="#231F20" d="M112.6,515c8.5,0,15.7,6.2,15.7,15.7c0,9.5-7.2,15.7-15.7,15.7
		c-8.5,0-15.7-6.2-15.7-15.7C96.9,521.2,104.1,515,112.6,515 M112.6,539.8c4.2,0,8.7-2.8,8.7-9.1c0-6.3-4.5-9.2-8.7-9.2
		c-4.2,0-8.7,2.9-8.7,9.2C103.9,537,108.4,539.8,112.6,539.8"/>
	<polygon clip-path="url(#SVGID_4_)" fill="#231F20" points="158.7,515.7 165.8,515.7 154.8,545.8 147.9,545.8 136.8,515.7 
		144.2,515.7 151.5,536.9 	"/>
	<polygon clip-path="url(#SVGID_4_)" fill="#231F20" points="177.2,545.8 177.2,515.7 196.3,515.7 196.3,522 183.9,522 183.9,527.8 
		195.2,527.8 195.2,533.7 183.9,533.7 183.9,539.5 196.3,539.5 196.3,545.8 	"/>
	<polygon clip-path="url(#SVGID_4_)" fill="#231F20" points="237.2,545.8 237.2,525.8 229.4,545.8 223.9,545.8 216,526.1 216,545.8 
		209.7,545.8 209.7,515.7 218.4,515.7 226.7,536.1 234.6,515.7 243.8,515.7 243.8,545.8 	"/>
	<path clip-path="url(#SVGID_4_)" fill="#231F20" d="M269.3,515.7c6,0,9.4,3.4,9.4,8.1c0,3.1-2,5.7-4.4,6.5c2.7,0.6,5.4,3.1,5.4,7.1
		c0,4.9-3.7,8.6-9.4,8.6H258v-30.2H269.3z M268.3,527.8c2.3,0,3.9-1.2,3.9-3.3c0-2-1.3-3.2-4-3.2h-3.6v6.5H268.3z M268.8,540.4
		c2.6,0,4.2-1.4,4.2-3.5c0-2.1-1.5-3.5-4.2-3.5h-4.2v7.1H268.8z"/>
	<polygon clip-path="url(#SVGID_4_)" fill="#231F20" points="292,545.8 292,515.7 311.1,515.7 311.1,522 298.7,522 298.7,527.8 
		309.9,527.8 309.9,533.7 298.7,533.7 298.7,539.5 311.1,539.5 311.1,545.8 	"/>
	<path clip-path="url(#SVGID_4_)" fill="#231F20" d="M333.5,534.6h-2.4v11.2h-6.7v-30.2h12c6,0,9.8,4.1,9.8,9.4c0,4.1-2.3,7.2-6,8.5
		l6.1,12.2h-7.4L333.5,534.6z M335.1,528.8c2.8,0,4.3-1.5,4.3-3.7c0-2.3-1.5-3.7-4.3-3.7h-4v7.3H335.1z"/>
	<path clip-path="url(#SVGID_4_)" fill="#63A70A" d="M409.5,451.8c0,0,12.3,3,15.2,3.7c0,0,14.7,2,13.7,13.6c0,0,0.2,3.6-3.6,7.6
		c0,0-3.1,3.5-7.9,3.6c0,0-9.8,0.4-13.1-10.7C413.8,469.7,410.2,453.5,409.5,451.8"/>
	<path clip-path="url(#SVGID_4_)" fill="#8DD7F7" d="M409.7,450c0,0,5-9.5,12.3-17.5c4.8-5.3,17.1-17.5,28-9c0,0,7.2,5.8,4.6,15.1
		c-0.7,2.7-2.9,5.4-5.4,7.1c0,0-7.8,6.5-18.9,2.4C430.3,448.1,418.4,443,409.7,450"/>
	<path clip-path="url(#SVGID_4_)" fill="#63A70A" d="M407.8,448.7c0,0-8.2-9.7-10.2-11.9c0,0-10.7-10.2-3.1-19.1c0,0,2-3.1,7.4-4
		c0,0,4.6-1,8.5,1.7c0,0,8.2,5.5,4.3,16.3C414.8,431.8,408.2,446.9,407.8,448.7"/>
	<path clip-path="url(#SVGID_4_)" fill="#63A70A" d="M406.3,450.2c0,0-11.8,4.8-14.5,6c0,0-13,7-19.1-3c0,0-2.3-2.8-1.5-8.3
		c0,0,0.4-4.7,4.3-7.6c0,0,7.7-6.1,16.8,1C392.3,438.3,404.7,449.3,406.3,450.2"/>
	<path clip-path="url(#SVGID_4_)" fill="#63A70A" d="M407.3,452.2c0,0,0.9,12.7,1.2,15.6c0,0,2.7,14.5-8.7,17.3c0,0-3.4,1.3-8.4-1.1
		c0,0-4.3-1.9-5.9-6.4c0,0-3.4-9.2,6.1-15.7C391.6,461.8,405.9,453.5,407.3,452.2"/>
</g>
</svg>
