<?xml version="1.0" encoding="utf-8"?>
<!-- Generator: Adobe Illustrator 18.1.0, SVG Export Plug-In . SVG Version: 6.00 Build 0)  -->
<svg version="1.1" id="Layer_1" xmlns="http://www.w3.org/2000/svg" xmlns:xlink="http://www.w3.org/1999/xlink" x="0px" y="0px"
	 width="150.7px" height="395.3px" viewBox="0 0 150.7 395.3" enable-background="new 0 0 150.7 395.3" xml:space="preserve">
<g id="stem">
	<line fill="none" stroke="#57A519" stroke-width="7" x1="76" y1="143.6" x2="76" y2="395.3"/>
</g>
<g id="leaf1">
	<path fill="#57A519" d="M31.5,169.6c0,0,20.7,59,40.8,36.7C92.4,184.1,31.5,169.6,31.5,169.6"/>
	<path fill="none" stroke="#57A519" stroke-width="4" stroke-linecap="round" stroke-linejoin="round" d="M31.5,169.6
		c0,0,20.7,59,40.8,36.7C92.4,184.1,31.5,169.6,31.5,169.6z"/>
	<path fill="#90D400" d="M32.8,168.1l40.8,36.7C93,183.4,32.8,168.1,32.8,168.1"/>
	<path fill="none" stroke="#90D400" stroke-width="4" stroke-linecap="round" stroke-linejoin="round" d="M32.8,168.1l40.8,36.7
		C93,183.4,32.8,168.1,32.8,168.1z"/>
</g>
<g id="leaf2">
	<path fill="#90D400" d="M120,213.6c0,0-61.3,12.3-42,35.3S120,213.6,120,213.6"/>
	<path fill="none" stroke="#90D400" stroke-width="4" stroke-linecap="round" stroke-linejoin="round" d="M120,213.6
		c0,0-61.3,12.3-42,35.3S120,213.6,120,213.6z"/>
	<path fill="#57A519" d="M121.4,215.1l-42.1,35.3C97.8,272.5,121.4,215.1,121.4,215.1"/>
	<path fill="none" stroke="#57A519" stroke-width="4" stroke-linecap="round" stroke-linejoin="round" d="M121.4,215.1l-42.1,35.3
		C97.8,272.5,121.4,215.1,121.4,215.1z"/>
</g>
<g id="flower">
	<path fill="#D8D5D3" d="M61.2,85.6c0,0-58.2,22.8-35.3,42.1C48.9,147,61.2,85.6,61.2,85.6"/>
	<path fill="none" stroke="#D8D5D3" stroke-width="4" stroke-linecap="round" stroke-linejoin="round" d="M61.2,85.6
		c0,0-58.2,22.8-35.3,42.1C48.9,147,61.2,85.6,61.2,85.6z"/>
	<path fill="#FFFFFF" d="M62.8,86.9L27.5,129C49.6,147.6,62.8,86.9,62.8,86.9"/>
	<path fill="none" stroke="#FFFFFF" stroke-width="4" stroke-linecap="round" stroke-linejoin="round" d="M62.8,86.9L27.5,129
		C49.6,147.6,62.8,86.9,62.8,86.9z"/>
	<path fill="#D8D5D3" d="M60.4,61.9c0,0-58.2-22.8-35.3-42.1S60.4,61.9,60.4,61.9"/>
	<path fill="none" stroke="#D8D5D3" stroke-width="4" stroke-linecap="round" stroke-linejoin="round" d="M60.4,61.9
		c0,0-58.2-22.8-35.3-42.1S60.4,61.9,60.4,61.9z"/>
	<path fill="#FFFFFF" d="M61.9,60.6L26.6,18.5C48.7,0,61.9,60.6,61.9,60.6"/>
	<path fill="none" stroke="#FFFFFF" stroke-width="4" stroke-linecap="round" stroke-linejoin="round" d="M61.9,60.6L26.6,18.5
		C48.7,0,61.9,60.6,61.9,60.6z"/>
	<path fill="#FFFFFF" d="M91.3,85.6c0,0,58.2,22.8,35.3,42.1C103.6,147,91.3,85.6,91.3,85.6"/>
	<path fill="none" stroke="#FFFFFF" stroke-width="4" stroke-linecap="round" stroke-linejoin="round" d="M91.3,85.6
		c0,0,58.2,22.8,35.3,42.1C103.6,147,91.3,85.6,91.3,85.6z"/>
	<path fill="#D8D5D3" d="M89.8,86.9l35.3,42.1C103,147.6,89.8,86.9,89.8,86.9"/>
	<path fill="none" stroke="#D8D5D3" stroke-width="4" stroke-linecap="round" stroke-linejoin="round" d="M89.8,86.9l35.3,42.1
		C103,147.6,89.8,86.9,89.8,86.9z"/>
	<path fill="#FFFFFF" d="M91.3,62.2c0,0,58.2-22.8,35.3-42.1S91.3,62.2,91.3,62.2"/>
	<path fill="none" stroke="#FFFFFF" stroke-width="4" stroke-linecap="round" stroke-linejoin="round" d="M91.3,62.2
		c0,0,58.2-22.8,35.3-42.1S91.3,62.2,91.3,62.2z"/>
	<path fill="#D8D5D3" d="M89.8,60.9l35.3-42.1C103,0.3,89.8,60.9,89.8,60.9"/>
	<path fill="none" stroke="#D8D5D3" stroke-width="4" stroke-linecap="round" stroke-linejoin="round" d="M89.8,60.9l35.3-42.1
		C103,0.3,89.8,60.9,89.8,60.9z"/>
	<path fill="#D8D5D3" d="M76.3,56.9c0,0-30-54.9,0-54.9C106.3,2,76.3,56.9,76.3,56.9"/>
	<path fill="none" stroke="#D8D5D3" stroke-width="4" stroke-linecap="round" stroke-linejoin="round" d="M76.3,56.9
		c0,0-30-54.9,0-54.9C106.3,2,76.3,56.9,76.3,56.9z"/>
	<path fill="#FFFFFF" d="M78.3,56.9l0-54.9C107.2,2,78.3,56.9,78.3,56.9"/>
	<path fill="none" stroke="#FFFFFF" stroke-width="4" stroke-linecap="round" stroke-linejoin="round" d="M78.3,56.9l0-54.9
		C107.2,2,78.3,56.9,78.3,56.9z"/>
	<path fill="#D8D5D3" d="M76.3,90.6c0,0-30,54.9,0,54.9C106.3,145.5,76.3,90.6,76.3,90.6"/>
	<path fill="none" stroke="#D8D5D3" stroke-width="4" stroke-linecap="round" stroke-linejoin="round" d="M76.3,90.6
		c0,0-30,54.9,0,54.9C106.3,145.5,76.3,90.6,76.3,90.6z"/>
	<path fill="#FFFFFF" d="M78.3,90.6l0,54.9C107.2,145.6,78.3,90.6,78.3,90.6"/>
	<path fill="none" stroke="#FFFFFF" stroke-width="4" stroke-linecap="round" stroke-linejoin="round" d="M78.3,90.6l0,54.9
		C107.2,145.6,78.3,90.6,78.3,90.6z"/>
	<path fill="#D8D5D3" d="M93.8,74.2c0,0,54.9,30,54.9,0C148.7,44.1,93.8,74.2,93.8,74.2"/>
	<path fill="none" stroke="#D8D5D3" stroke-width="4" stroke-linecap="round" stroke-linejoin="round" d="M93.8,74.2
		c0,0,54.9,30,54.9,0C148.7,44.1,93.8,74.2,93.8,74.2z"/>
	<path fill="#FFFFFF" d="M93.8,72.1l54.9,0C148.7,43.3,93.8,72.1,93.8,72.1"/>
	<path fill="none" stroke="#FFFFFF" stroke-width="4" stroke-linecap="round" stroke-linejoin="round" d="M93.8,72.1l54.9,0
		C148.7,43.3,93.8,72.1,93.8,72.1z"/>
	<path fill="#D8D5D3" d="M56.9,74.2c0,0-54.9,30-54.9,0C2,44.1,56.9,74.2,56.9,74.2"/>
	<path fill="none" stroke="#D8D5D3" stroke-width="4" stroke-linecap="round" stroke-linejoin="round" d="M56.9,74.2
		c0,0-54.9,30-54.9,0C2,44.1,56.9,74.2,56.9,74.2z"/>
	<path fill="#FFFFFF" d="M56.9,72.1L2,72.1C2,43.3,56.9,72.1,56.9,72.1"/>
	<path fill="none" stroke="#FFFFFF" stroke-width="4" stroke-linecap="round" stroke-linejoin="round" d="M56.9,72.1L2,72.1
		C2,43.3,56.9,72.1,56.9,72.1z"/>
	<path fill="#EEB755" d="M76,95.8c12.4,0,22.4-10,22.4-22.4C98.4,61,88.3,51,76,51S53.6,61,53.6,73.4C53.6,85.7,63.6,95.8,76,95.8"
		/>
	<path fill="#FFF200" d="M83.2,69.9c3.1,0,5.7-2.6,5.7-5.7c0-3.2-2.6-5.7-5.7-5.7c-3.2,0-5.7,2.6-5.7,5.7
		C77.5,67.4,80,69.9,83.2,69.9"/>
</g>
</svg>
