<?xml version="1.0" encoding="utf-8"?>
<!-- Generator: Adobe Illustrator 18.1.0, SVG Export Plug-In . SVG Version: 6.00 Build 0)  -->
<svg version="1.1" id="Layer_1" xmlns="http://www.w3.org/2000/svg" xmlns:xlink="http://www.w3.org/1999/xlink" x="0px" y="0px"
	 width="80.4px" height="79px" viewBox="0 0 80.4 79" enable-background="new 0 0 80.4 79" xml:space="preserve">
<polygon fill="#FFFFFF" points="12.2,0 19.9,12.7 60.6,12.7 68.3,0 "/>
<g>
	<path fill="#FFFFFF" d="M9.7,0.2c-0.4,0.1-0.8,0.4-1,0.6L0.5,6.8C0,7.4-0.2,8.2,0.3,8.7l24.9,41.4c2.9-3.2,6.7-5.4,11-6.3l-11-18.3
		H25L9.7,0.2C9.7,0.2,9.7,0.2,9.7,0.2L9.7,0.2z"/>
	<path fill="#FFFFFF" d="M70.8,0.2L55.6,25.5h-0.2l-11,18.3c4.3,0.9,8.1,3.1,11,6.3L80.2,8.7c0.3-0.5,0.3-1.6-0.2-1.8l-8.1-6.1
		C71.6,0.5,71.2,0.3,70.8,0.2L70.8,0.2z"/>
	<path fill="#FFFFFF" d="M40.3,48.4c-8.4,0-15.3,6.8-15.3,15.3S31.8,79,40.3,79s15.3-6.8,15.3-15.3S48.7,48.4,40.3,48.4"/>
</g>
</svg>
