<?xml version="1.0" encoding="utf-8"?>
<!-- Generator: Adobe Illustrator 19.0.0, SVG Export Plug-In . SVG Version: 6.00 Build 0)  -->
<svg version="1.1" id="Layer_1" xmlns="http://www.w3.org/2000/svg" xmlns:xlink="http://www.w3.org/1999/xlink" x="0px" y="0px"
	 width="142.4px" height="13.5px" viewBox="0 0 142.4 13.5" style="enable-background:new 0 0 142.4 13.5;" xml:space="preserve">
<style type="text/css">
	.st0{fill:#009CB6;}
</style>
<path id="XMLID_67_" class="st0" d="M0,13.5L0,0c3.5,0,5.2,1,7,2.1c1.8,1.1,3.6,2.2,7.3,2.2c3.6,0,5.5-1.1,7.3-2.2
	C23.3,1,25,0,28.5,0s5.2,1,7,2.1c1.8,1.1,3.6,2.2,7.3,2.2c3.6,0,5.5-1.1,7.3-2.2C51.8,1,53.5,0,57,0c3.5,0,5.2,1,7,2.1
	c1.8,1.1,3.6,2.2,7.3,2.2s5.5-1.1,7.3-2.2C80.3,1,82,0,85.4,0c3.5,0,5.2,1,7,2.1c1.8,1.1,3.6,2.2,7.3,2.2c3.6,0,5.5-1.1,7.3-2.2
	c1.8-1.1,3.5-2.1,7-2.1c3.5,0,5.2,1,7,2.1c1.8,1.1,3.6,2.2,7.3,2.2c3.6,0,5.5-1.1,7.3-2.2c1.8-1.1,3.5-2.1,7-2.1v13.5H0z"/>
</svg>
