<?xml version="1.0" encoding="utf-8"?>
<!-- Generator: Adobe Illustrator 19.2.1, SVG Export Plug-In . SVG Version: 6.00 Build 0)  -->
<svg version="1.1" id="Layer_1" xmlns="http://www.w3.org/2000/svg" xmlns:xlink="http://www.w3.org/1999/xlink" x="0px" y="0px"
	 width="142px" height="13.4px" viewBox="0 0 142 13.4" style="enable-background:new 0 0 142 13.4;" xml:space="preserve">
<path id="XMLID_67_" style="fill:#EDEBEB;" d="M0,13.4V0c3.5,0,5.2,1,7,2.1s3.6,2.2,7.3,2.2c3.6,0,5.5-1.1,7.3-2.2
	C23.2,1,24.9,0,28.4,0s5.2,1,7,2.1c1.8,1.1,3.6,2.2,7.3,2.2c3.6,0,5.5-1.1,7.3-2.2C51.6,1,53.3,0,56.8,0c3.5,0,5.2,1,7,2.1
	s3.6,2.2,7.3,2.2s5.5-1.1,7.3-2.2C80,1,81.7,0,85,0c3.5,0,5.2,1,7,2.1c1.8,1.1,3.6,2.2,7.3,2.2c3.6,0,5.5-1.1,7.3-2.2
	c1.8-1.1,3.5-2.1,7-2.1s5.2,1,7,2.1c1.8,1.1,3.6,2.2,7.3,2.2c3.6,0,5.5-1.1,7.3-2.2c1.8-1.1,3.5-2.1,7-2.1v13.4H0z"/>
</svg>
