<?xml version="1.0" encoding="utf-8"?>
<!-- Generator: Adobe Illustrator 16.0.0, SVG Export Plug-In . SVG Version: 6.00 Build 0)  -->
<!DOCTYPE svg PUBLIC "-//W3C//DTD SVG 1.1//EN" "http://www.w3.org/Graphics/SVG/1.1/DTD/svg11.dtd">
<svg version="1.1" id="Layer_1" xmlns="http://www.w3.org/2000/svg" xmlns:xlink="http://www.w3.org/1999/xlink" x="0px" y="0px"
	 width="120px" height="55px" viewBox="0 0 120 55" enable-background="new 0 0 120 55" xml:space="preserve">
<g>
	<path fill="#003767" d="M60,8.798c-27.096,0-47.546,4.169-47.546,4.169s-3.408,0.532-3.408,3.666v21.503
		c0,2.97,3.408,3.545,3.408,3.545S33.159,46.203,60,46.203s47.546-4.522,47.546-4.522s3.408-0.575,3.408-3.545V16.633
		c0-3.134-3.408-3.666-3.408-3.666S87.096,8.798,60,8.798z"/>
	<path fill="#FFFFFF" d="M26.285,23.222h0.057c1.003-1.806,2.723-2.607,4.758-2.607h1.003v5.016
		c-0.716-0.401-1.405-0.488-2.207-0.488c-2.895,0-3.611,1.92-3.611,4.443v5.933h-5.216V20.814h5.216V23.222z"/>
	<path fill="#FFFFFF" d="M49.57,29.039H38.593c0,2.122,1.117,3.269,3.267,3.269c1.118,0,1.92-0.372,2.494-1.347h5.016
		c-0.832,3.469-4.128,5.045-7.48,5.045c-4.873,0-8.513-2.753-8.513-7.825c0-4.901,3.354-7.854,8.14-7.854
		c5.102,0,8.054,3.153,8.054,8.168V29.039z M44.726,26.031c-0.258-1.405-1.547-2.322-2.952-2.322c-1.519,0-2.78,0.802-3.095,2.322
		H44.726z"/>
	<path fill="#FFFFFF" d="M67.511,29.039H56.533c0,2.122,1.118,3.269,3.267,3.269c1.118,0,1.92-0.372,2.494-1.347h5.016
		c-0.83,3.469-4.126,5.045-7.479,5.045c-4.873,0-8.513-2.753-8.513-7.825c0-4.901,3.353-7.854,8.14-7.854
		c5.102,0,8.054,3.153,8.054,8.168V29.039z M62.667,26.031c-0.258-1.405-1.548-2.322-2.952-2.322c-1.52,0-2.78,0.802-3.096,2.322
		H62.667z"/>
	<path fill="#FFFFFF" d="M99.274,29.039H88.297c0,2.122,1.119,3.269,3.268,3.269c1.118,0,1.921-0.372,2.494-1.347h5.015
		c-0.831,3.469-4.127,5.045-7.48,5.045c-4.871,0-8.513-2.753-8.513-7.825c0-4.901,3.354-7.854,8.14-7.854
		c5.102,0,8.055,3.153,8.055,8.168V29.039z M94.431,26.031c-0.259-1.405-1.547-2.322-2.952-2.322c-1.519,0-2.78,0.802-3.096,2.322
		H94.431z"/>
	<path fill="#FFFFFF" d="M80.859,25.599c-0.773-0.574-1.692-1.033-2.694-1.033c-2.008,0-3.586,1.549-3.586,3.585
		c0,2.123,1.521,3.613,3.672,3.613c0.916,0,1.921-0.372,2.608-1.004l1.328,3.679c-1.636,1.252-3.736,1.569-4.998,1.569
		c-4.358,0-8-3.24-8-7.685c0-4.732,3.612-8.001,8.229-8.001c1.204,0,3.507,0.534,4.802,1.647L80.859,25.599z"/>
</g>
</svg>
