<?xml version="1.0" encoding="utf-8"?>
<!-- Generator: Adobe Illustrator 16.0.0, SVG Export Plug-In . SVG Version: 6.00 Build 0)  -->
<!DOCTYPE svg PUBLIC "-//W3C//DTD SVG 1.1//EN" "http://www.w3.org/Graphics/SVG/1.1/DTD/svg11.dtd">
<svg version="1.1" id="Layer_1" xmlns="http://www.w3.org/2000/svg" xmlns:xlink="http://www.w3.org/1999/xlink" x="0px" y="0px"
	 width="100px" height="80px" viewBox="0 0 100 80" enable-background="new 0 0 100 80" xml:space="preserve">
<g>
	<path fill="#231F20" d="M12.681,27.071H0v-9.885h1.958c11.842,0,14.639-6.153,15.385-10.349h11.002v66.016H12.681V27.071z"/>
	<path fill="#231F20" d="M38.32,56.069h14.545v16.783H38.32V56.069z"/>
	<path fill="#231F20" d="M73.097,53.459v2.424c0,4.383,1.026,8.392,5.596,8.392c5.035,0,6.059-5.129,6.059-14.172
		c0-7.739-1.678-11.47-5.78-11.47c-2.798,0-5.315,1.399-5.78,5.222H58.644l2.053-35.712h37.017v12.122H72.726l-0.748,12.4
		l0.187,0.187c1.679-3.356,6.713-5.222,10.909-5.222c12.028,0,17.344,6.994,17.344,22.938c0,16.784-6.9,23.59-21.633,23.59
		c-13.985,0-20.793-6.714-20.793-18.274v-2.424H73.097z"/>
</g>
</svg>
