<?xml version="1.0" encoding="utf-8"?>
<!-- Generator: Adobe Illustrator 16.0.0, SVG Export Plug-In . SVG Version: 6.00 Build 0)  -->
<!DOCTYPE svg PUBLIC "-//W3C//DTD SVG 1.1//EN" "http://www.w3.org/Graphics/SVG/1.1/DTD/svg11.dtd">
<svg version="1.1" id="Layer_1" xmlns="http://www.w3.org/2000/svg" xmlns:xlink="http://www.w3.org/1999/xlink" x="0px" y="0px"
	 width="80px" height="116px" viewBox="0 0 80 116" enable-background="new 0 0 80 116" xml:space="preserve">
<rect x="12.604" fill="#6D6E70" width="1" height="88.651"/>
<rect x="59.57" fill="#6D6E70" width="1" height="82.476"/>
<rect x="1.382" y="84.737" transform="matrix(0.9919 -0.1272 0.1272 0.9919 -12.1487 5.7795)" fill="#EC1C24" width="75.598" height="26.563"/>
<g>
	<path fill="#FFFFFF" d="M14.184,104.322c0.273,2.128,2.037,2.744,3.918,2.503c1.232-0.158,3.068-0.757,2.858-2.392
		c-0.221-1.725-2.655-1.708-5.088-2.035c-2.454-0.324-4.969-0.934-5.354-3.935c-0.419-3.271,2.472-5.234,5.361-5.605
		c3.337-0.428,6.593,0.635,7.066,4.33l-3.404,0.437c-0.359-1.912-1.789-2.229-3.469-2.014c-1.12,0.144-2.359,0.781-2.187,2.125
		c0.157,1.231,0.939,1.291,5.081,1.807c1.202,0.142,4.881,0.421,5.347,4.049c0.376,2.936-1.649,5.426-5.995,5.983
		c-3.539,0.454-7.079-0.868-7.539-4.816L14.184,104.322z"/>
	<path fill="#FFFFFF" d="M29.32,91.522l3.605-0.462l8.032,15.226l-3.651,0.468l-1.666-3.407l-5.98,0.767l-0.798,3.724l-3.562,0.457
		L29.32,91.522z M30.241,101.375l4.145-0.531l-2.769-5.609l-0.045,0.006L30.241,101.375z"/>
	<path fill="#FFFFFF" d="M40.293,90.115l3.517-0.451l1.672,13.035l7.794-1l0.38,2.958l-11.312,1.45L40.293,90.115z"/>
	<path fill="#FFFFFF" d="M53.573,88.412l11.961-1.534l0.379,2.956l-8.444,1.083l0.439,3.427l7.75-0.994l0.351,2.733l-7.75,0.994
		l0.503,3.919l8.623-1.106l0.38,2.958l-12.141,1.557L53.573,88.412z"/>
</g>
</svg>
