<?xml version="1.0" encoding="utf-8"?>
<!-- Generator: Adobe Illustrator 16.0.0, SVG Export Plug-In . SVG Version: 6.00 Build 0)  -->
<!DOCTYPE svg PUBLIC "-//W3C//DTD SVG 1.1//EN" "http://www.w3.org/Graphics/SVG/1.1/DTD/svg11.dtd">
<svg version="1.1" id="Layer_1" xmlns="http://www.w3.org/2000/svg" xmlns:xlink="http://www.w3.org/1999/xlink" x="0px" y="0px"
	 width="550px" height="116px" viewBox="0 0 550 116" enable-background="new 0 0 550 116" xml:space="preserve">
<path opacity="0.3" fill="#FFFFFF" d="M-0.04,116.423c0,0,1-23.134,16.111-25.915c15.111-2.781,25.815,6.599,25.815,6.599
	s-3.521-21.182,16.372-31.736s42.548,16.02,42.548,16.02s-13.712-43.009,21.601-43.01c35.313-0.001,66.81,39.021,66.81,39.021
	s-6.417-53.744,21.381-55.342c27.797-1.598,82.193,47.181,82.193,47.181s7.493-78.84,55.565-67.749
	c48.073,11.092,63.544,57.724,63.544,57.724s34.261-11.507,51.39,0s6.63,37.89,6.63,37.89s6.079-14.031,18.788-11.158
	c12.709,2.874,9.394,24.679,9.394,24.679s7.509-13.876,20.331-10.437c12.822,3.44,12.619,10.437,12.619,10.437
	s6.915-6.872,12.912-5.837c5.997,1.035,5.997,11.632,5.997,11.632H-0.04z"/>
</svg>
