<?xml version="1.0" encoding="utf-8"?>
<!-- Generator: Adobe Illustrator 16.0.0, SVG Export Plug-In . SVG Version: 6.00 Build 0)  -->
<!DOCTYPE svg PUBLIC "-//W3C//DTD SVG 1.1//EN" "http://www.w3.org/Graphics/SVG/1.1/DTD/svg11.dtd">
<svg version="1.1" id="Layer_1" xmlns="http://www.w3.org/2000/svg" xmlns:xlink="http://www.w3.org/1999/xlink" x="0px" y="0px"
	 width="312px" height="158px" viewBox="0 0 312 158" enable-background="new 0 0 312 158" xml:space="preserve">
<g>
	<path fill="#FFFFFF" d="M46.906,99.1h4.94l4.567,8.434h0.044V99.1h4.567v15.765h-4.699l-4.809-8.611h-0.044v8.611h-4.567V99.1
		H46.906z"/>
	<path fill="#FFFFFF" d="M71.032,98.725c4.765,0,7.948,3.443,7.948,8.258c0,4.813-3.184,8.258-7.948,8.258
		c-4.765,0-7.949-3.444-7.949-8.258C63.083,102.168,66.267,98.725,71.032,98.725z M71.032,111.309c1.229,0,3.118-0.816,3.118-4.328
		c0-3.51-1.888-4.328-3.118-4.328c-1.23,0-3.118,0.818-3.118,4.328C67.914,110.492,69.802,111.309,71.032,111.309z"/>
	<path fill="#FFFFFF" d="M96.672,114.864h-4.699l-1.691-9.604h-0.044l-1.647,9.604H83.87L79.61,99.1h4.743l1.911,9.736h0.044
		l1.888-9.736h4.26l1.844,9.869h0.044l1.954-9.869h4.765L96.672,114.864z"/>
	<path fill="#FFFFFF" d="M49.488,116.789c4.765,0,7.948,3.443,7.948,8.258s-3.184,8.258-7.948,8.258
		c-4.765,0-7.949-3.443-7.949-8.258S44.723,116.789,49.488,116.789z M49.488,129.375c1.229,0,3.118-0.816,3.118-4.328
		c0-3.511-1.888-4.328-3.118-4.328s-3.118,0.817-3.118,4.328C46.37,128.559,48.258,129.375,49.488,129.375z"/>
	<path fill="#FFFFFF" d="M59.473,117.165h8.081c4.26,0,5.753,3.135,5.753,5.387c0,3.82-2.547,5.608-6.148,5.608h-2.854v4.77h-4.831
		L59.473,117.165L59.473,117.165z M64.303,124.407h1.867c1.251,0,2.569-0.089,2.569-1.679c0-1.435-1.098-1.522-2.284-1.522h-2.152
		V124.407z"/>
	<path fill="#FFFFFF" d="M74.925,117.165h12.977v4.041h-8.146v1.965h7.4v3.754h-7.4v1.966h8.388v4.041H74.925V117.165z"/>
	<path fill="#FFFFFF" d="M90.4,117.165h4.94l4.567,8.435h0.044v-8.435h4.567v15.765H99.82l-4.809-8.611h-0.044v8.611H90.4V117.165z"
		/>
</g>
</svg>
