<?xml version="1.0" encoding="utf-8"?>
<!-- Generator: Adobe Illustrator 16.0.0, SVG Export Plug-In . SVG Version: 6.00 Build 0)  -->
<!DOCTYPE svg PUBLIC "-//W3C//DTD SVG 1.1//EN" "http://www.w3.org/Graphics/SVG/1.1/DTD/svg11.dtd">
<svg version="1.1" id="Layer_1" xmlns="http://www.w3.org/2000/svg" xmlns:xlink="http://www.w3.org/1999/xlink" x="0px" y="0px"
	 width="312px" height="158px" viewBox="0 0 312 158" enable-background="new 0 0 312 158" xml:space="preserve">
<polygon fill="#754C28" points="304,7 304,0 287,0 287,7 289,7 289,52 27,52 27,7 29,7 29,0 12,0 12,7 13,7 13,158 303,158 303,7 
	"/>
<rect x="27" y="89" fill="#3B2314" stroke="#8A5D3B" stroke-width="1.5" stroke-miterlimit="10" width="92" height="56"/>
<path d="M174.904,69.096c0.015,0.001,0.027,0.002,0.039,0.002"/>
<rect y="52" fill="#8A5D3B" width="312.355" height="14"/>
<rect x="27" y="71" fill="#3B2314" stroke="#8A5D3B" stroke-miterlimit="10" width="92" height="18"/>
<rect x="123" y="71" fill="#3B2314" stroke="#8A5D3B" stroke-width="0.6" stroke-miterlimit="10" width="27" height="18"/>
<rect x="123" y="89" fill="#3B2314" stroke="#8A5D3B" stroke-width="1.5" stroke-miterlimit="10" width="27" height="68"/>
<rect x="167" y="71" fill="#3B2314" stroke="#8A5D3B" stroke-width="0.6" stroke-miterlimit="10" width="27" height="18"/>
<rect x="167" y="89" fill="#3B2314" stroke="#8A5D3B" stroke-width="1.5" stroke-miterlimit="10" width="27" height="68"/>
<line fill="none" stroke="#8A5D3B" stroke-miterlimit="10" x1="64.5" y1="71" x2="64.5" y2="89"/>
<line fill="none" stroke="#8A5D3B" stroke-miterlimit="10" x1="46" y1="71" x2="46" y2="89"/>
<line fill="none" stroke="#8A5D3B" stroke-miterlimit="10" x1="82.667" y1="71" x2="82.667" y2="89"/>
<line fill="none" stroke="#8A5D3B" stroke-miterlimit="10" x1="101" y1="71" x2="101" y2="89"/>
<rect x="197" y="89" fill="#3B2314" stroke="#8A5D3B" stroke-width="1.5" stroke-miterlimit="10" width="92" height="56"/>
<rect x="197" y="71" fill="#3B2314" stroke="#8A5D3B" stroke-miterlimit="10" width="92" height="18"/>
<line fill="none" stroke="#8A5D3B" stroke-miterlimit="10" x1="234.5" y1="71" x2="234.5" y2="89"/>
<line fill="none" stroke="#8A5D3B" stroke-miterlimit="10" x1="216" y1="71" x2="216" y2="89"/>
<line fill="none" stroke="#8A5D3B" stroke-miterlimit="10" x1="252.667" y1="71" x2="252.667" y2="89"/>
<line fill="none" stroke="#8A5D3B" stroke-miterlimit="10" x1="271" y1="71" x2="271" y2="89"/>
<rect y="52.08" fill="#A87C4F" width="312" height="7.923"/>
<rect x="27" y="10" fill="#E2C5AC" width="262" height="42"/>
<rect x="27" y="10" fill="#A87C4F" width="262" height="3"/>
<polygon fill="#E2C5AC" points="167,0 149,0 149,7 151,7 151,52 165,52 165,7 167,7 "/>
<rect x="27" y="10" opacity="0.14" fill="#231F20" enable-background="new    " width="4" height="42"/>
<rect x="285" y="10" opacity="0.14" fill="#231F20" enable-background="new    " width="4" height="42"/>
<rect x="165" y="10" opacity="0.14" fill="#231F20" enable-background="new    " width="4" height="42"/>
<rect x="147" y="10" opacity="0.14" fill="#231F20" enable-background="new    " width="4" height="42"/>
<rect x="152" y="66" opacity="0.48" fill="#C1B49A" enable-background="new    " width="13" height="92"/>
<g>
	<path fill="#3B2314" d="M47.951,34.229h3.341v4.697h4.4v-4.697h3.34v12.899h-3.34v-5.312h-4.4v5.312h-3.341V34.229z"/>
	<path fill="#3B2314" d="M64.779,34.229h3.394l4.795,12.899h-3.484l-0.79-2.312h-4.472l-0.808,2.312h-3.43L64.779,34.229z
		 M64.995,42.323h2.91l-1.419-4.517H66.45L64.995,42.323z"/>
	<path fill="#3B2314" d="M73.938,34.229h6.537c2.263,0,4.49,1.03,4.49,3.631c0,1.391-0.665,2.71-2.012,3.234v0.036
		c1.365,0.325,1.76,1.861,1.868,3.089c0.036,0.542,0.09,2.439,0.539,2.909h-3.305c-0.287-0.434-0.341-1.698-0.377-2.06
		c-0.09-1.301-0.306-2.638-1.868-2.638h-2.532v4.697h-3.34V34.229z M77.278,39.83h2.802c1.006,0,1.544-0.542,1.544-1.518
		c0-0.958-0.754-1.391-1.688-1.391h-2.658V39.83z"/>
	<path fill="#3B2314" d="M86.904,34.229h5.514c3.933,0,6.286,2.403,6.286,6.396c0,4.228-2.389,6.504-6.286,6.504h-5.514V34.229z
		 M90.245,44.238h1.581c2.532-0.054,3.538-1.048,3.538-3.631c0-2.349-1.257-3.487-3.538-3.487h-1.581V44.238z"/>
	<path fill="#3B2314" d="M113.143,47.129h-3.34l-1.76-8.889h-0.036l-1.76,8.889h-3.394L99.387,34.23h3.34l1.814,9.431h0.036
		l1.886-9.431h3.143l1.886,9.431h0.036l1.814-9.431h3.34L113.143,47.129z"/>
	<path fill="#3B2314" d="M120.652,34.229h3.394l4.795,12.899h-3.484l-0.79-2.312h-4.472l-0.808,2.312h-3.43L120.652,34.229z
		 M120.867,42.323h2.909l-1.418-4.517h-0.036L120.867,42.323z"/>
	<path fill="#3B2314" d="M129.811,34.229h6.537c2.263,0,4.49,1.03,4.49,3.631c0,1.391-0.665,2.71-2.012,3.234v0.036
		c1.365,0.325,1.76,1.861,1.868,3.089c0.036,0.542,0.09,2.439,0.539,2.909h-3.305c-0.287-0.434-0.341-1.698-0.377-2.06
		c-0.09-1.301-0.306-2.638-1.868-2.638h-2.532v4.697h-3.34V34.229L129.811,34.229z M133.151,39.83h2.802
		c1.006,0,1.544-0.542,1.544-1.518c0-0.958-0.754-1.391-1.688-1.391h-2.658V39.83z"/>
	<path fill="#3B2314" d="M142.777,34.229h10.219v2.692h-6.879v2.258h6.286v2.602h-6.286v2.457h7.058v2.891h-10.398V34.229z"/>
	<path fill="#3B2314" d="M160.754,34.229h4.921l2.209,8.6h0.036l2.209-8.6h4.921v12.899h-3.143v-9.792h-0.036l-2.694,9.792h-2.55
		l-2.693-9.792h-0.037v9.792h-3.143V34.229z"/>
	<path fill="#3B2314" d="M177.366,34.229h10.219v2.692h-6.879v2.258h6.286v2.602h-6.286v2.457h7.058v2.891h-10.397V34.229z"/>
	<path fill="#3B2314" d="M189.667,34.229h6.537c2.263,0,4.489,1.03,4.489,3.631c0,1.391-0.664,2.71-2.012,3.234v0.036
		c1.365,0.325,1.76,1.861,1.868,3.089c0.036,0.542,0.091,2.439,0.539,2.909h-3.305c-0.287-0.434-0.341-1.698-0.377-2.06
		c-0.091-1.301-0.306-2.638-1.868-2.638h-2.532v4.697h-3.34V34.229L189.667,34.229z M193.008,39.83h2.803
		c1.006,0,1.543-0.542,1.543-1.518c0-0.958-0.754-1.391-1.688-1.391h-2.658V39.83z"/>
	<path fill="#3B2314" d="M211.146,38.836c-0.181-1.301-1.186-1.987-2.586-1.987c-2.156,0-2.981,1.915-2.981,3.83
		c0,1.915,0.825,3.83,2.981,3.83c1.562,0,2.459-0.903,2.586-2.385h3.34c-0.18,3.324-2.604,5.275-5.854,5.275
		c-3.879,0-6.394-2.981-6.394-6.721c0-3.74,2.514-6.721,6.394-6.721c2.767,0,5.765,1.771,5.854,4.878L211.146,38.836L211.146,38.836
		z"/>
	<path fill="#3B2314" d="M216.229,34.229h3.342v4.697h4.4v-4.697h3.34v12.899h-3.34v-5.312h-4.4v5.312h-3.342V34.229z"/>
	<path fill="#3B2314" d="M233.057,34.229h3.395l4.795,12.899h-3.484l-0.789-2.312H232.5l-0.809,2.312h-3.43L233.057,34.229z
		 M233.271,42.323h2.91l-1.418-4.517h-0.037L233.271,42.323z"/>
	<path fill="#3B2314" d="M242.18,34.229h3.43l4.455,7.949h0.035v-7.949h3.144v12.899h-3.431l-4.455-8.04h-0.035v8.04h-3.143V34.229z
		"/>
	<path fill="#3B2314" d="M265.688,37.12h-3.824v10.009h-3.342V37.12h-3.824v-2.891h10.99V37.12z"/>
	<path fill="#3B2314" d="M265.188,43.769h3.34v3.36h-3.34V43.769z"/>
</g>
<g>
	<path fill="#3B2314" d="M96.867,27.112v-8.178h-1.958V17.57h6.593v1.364H99.47v3.121h7.498v-3.121h-2.02V17.57h6.593v1.364h-1.971
		v8.178h1.971v1.364h-6.593v-1.364h2.02v-3.693H99.47v3.693h2.032v1.364h-6.593v-1.364H96.867z"/>
	<path fill="#3B2314" d="M114.379,28.476v-1.929h3.049v1.929H114.379z"/>
	<path fill="#3B2314" d="M118.717,31.714v-1.529c0.645,0.104,1.264,0.157,1.859,0.157c0.744,0,1.237-0.129,1.481-0.388
		c0.244-0.259,0.366-0.778,0.366-1.557v-9.464h-2.206v-1.364h7.015v1.364h-2.206v9.542c0,0.821-0.097,1.444-0.291,1.87
		c-0.194,0.426-0.661,0.791-1.401,1.094c-0.739,0.303-1.617,0.455-2.633,0.455C119.998,31.895,119.337,31.834,118.717,31.714z"/>
	<path fill="#3B2314" d="M128.979,28.476v-1.929h3.049v1.929H128.979z"/>
	<path fill="#3B2314" d="M141.212,27.112v-8.178h-2.367V17.57h7.002c1.462,0,2.623,0.072,3.482,0.216s1.57,0.447,2.132,0.909
		c0.562,0.463,0.843,1.039,0.843,1.729c0,1.442-1.185,2.349-3.554,2.72l3.045,3.968h2.107v1.364h-3.734l-3.925-5.097h-2.429v3.732
		h2.206v1.364h-7.176v-1.364L141.212,27.112L141.212,27.112z M143.814,22.015h2.033c0.983,0,1.708-0.041,2.175-0.122
		c0.467-0.081,0.849-0.246,1.146-0.494c0.297-0.249,0.446-0.582,0.446-1c0-0.355-0.151-0.656-0.452-0.902
		c-0.302-0.246-0.674-0.401-1.116-0.466c-0.442-0.065-1.118-0.098-2.026-0.098h-2.206V22.015L143.814,22.015z"/>
	<path fill="#3B2314" d="M156.777,27.112v-8.178h-2.23V17.57h14.327v3.285h-2.132v-1.921h-7.362v3.246h6.408v1.364h-6.408v3.568
		h7.362v-1.984h2.132v3.348h-14.327v-1.364H156.777z"/>
	<path fill="#3B2314" d="M172.643,27.112v-8.178h-2.231V17.57h14.327v3.285h-2.133v-1.921h-7.361v3.246h6.408v1.364h-6.408v3.568
		h7.361v-1.984h2.133v3.348h-14.327v-1.364H172.643z"/>
	<path fill="#3B2314" d="M201.408,24.038l2.242,0.792c-0.504,1.213-1.521,2.152-3.055,2.819s-3.295,1-5.285,1
		c-2.611,0-4.707-0.536-6.285-1.607c-1.577-1.071-2.366-2.396-2.366-3.975c0-1.73,0.793-3.107,2.38-4.132
		c1.586-1.024,3.656-1.537,6.209-1.537c2.256,0,4.152,0.389,5.689,1.168V17.57h2.229v3.505h-2.229
		c-0.496-0.711-1.26-1.261-2.293-1.65c-1.033-0.39-2.121-0.584-3.261-0.584c-1.718,0-3.129,0.392-4.231,1.176
		c-1.104,0.784-1.654,1.775-1.654,2.972c0,1.229,0.59,2.232,1.771,3.011c1.183,0.779,2.582,1.168,4.203,1.168
		c1.33,0,2.541-0.271,3.631-0.812S200.961,25.042,201.408,24.038z"/>
	<path fill="#3B2314" d="M207.791,27.112v-8.178h-2.23V17.57h14.326v3.285h-2.132v-1.921h-7.362v3.246h6.408v1.364h-6.408v3.568
		h7.362v-1.984h2.132v3.348h-14.326v-1.364H207.791z"/>
</g>
<line fill="none" stroke="#3B2314" stroke-width="2" stroke-miterlimit="10" x1="48.055" y1="24.13" x2="89.584" y2="24.13"/>
<line fill="none" stroke="#3B2314" stroke-width="2" stroke-miterlimit="10" x1="225.823" y1="24.13" x2="267.352" y2="24.13"/>
</svg>
