<?xml version="1.0" encoding="utf-8"?>
<!-- Generator: Adobe Illustrator 16.0.0, SVG Export Plug-In . SVG Version: 6.00 Build 0)  -->
<!DOCTYPE svg PUBLIC "-//W3C//DTD SVG 1.1//EN" "http://www.w3.org/Graphics/SVG/1.1/DTD/svg11.dtd">
<svg version="1.1" id="Layer_1" xmlns="http://www.w3.org/2000/svg" xmlns:xlink="http://www.w3.org/1999/xlink" x="0px" y="0px"
	 width="360px" height="216px" viewBox="0 -0.5 360 216" enable-background="new 0 -0.5 360 216" xml:space="preserve">
<g>
	<path fill="#FFFFFF" d="M4.224,95.883c0-4.129-0.432-4.512-4.224-4.561v-1.295h14.593c11.425,0,16.322,4.031,16.322,10.176
		c0,4.465-4.225,6.625-8.113,7.008v0.146c0.672,0.289,1.296,0.672,1.68,1.297l8.113,13.248c0.576,0.912,1.296,1.774,4.656,1.774
		v1.298H25.874l-6.865-13.44c-1.056-2.113-2.016-3.553-3.744-3.553h-4.081v11.137c0,4.129,0.432,4.512,4.849,4.562v1.295H0v-1.295
		c3.792-0.05,4.224-0.433,4.224-4.562V95.883z M11.184,106.685h3.408c5.953-0.097,9.217-2.4,9.217-7.681
		c0-5.281-3.264-7.682-9.217-7.682h-3.408V106.685z"/>
	<path fill="#FFFFFF" d="M44.448,95.883c0-4.129-0.432-4.512-3.553-4.561v-1.295H68.93l3.648,9.168l-0.864,0.336
		c-4.368-5.473-7.249-8.209-12.433-8.209h-7.873v14.977h2.784c4.849,0,9.793-1.584,10.321-7.055h1.152v16.271h-1.152
		c-0.528-5.427-3.12-7.923-10.321-7.923h-2.784v13.729c0,1.871,0.144,2.354,1.824,2.354h5.041c7.968,0,9.601-2.592,14.065-8.834
		l1.056,0.576l-2.688,9.555H40.895v-1.297c3.121-0.049,3.553-0.432,3.553-4.561V95.883z"/>
	<path fill="#FFFFFF" d="M81.792,95.883c0-4.129-0.432-4.512-3.553-4.561v-1.295h28.035l3.648,9.168l-0.865,0.336
		c-4.367-5.473-7.248-8.209-12.433-8.209h-7.872v14.977h2.783c4.85,0,9.793-1.584,10.321-7.055h1.152v16.271h-1.152
		c-0.528-5.427-3.12-7.923-10.321-7.923h-2.783v13.729c0,1.871,0.144,2.354,1.824,2.354h5.04c7.968,0,9.601-2.592,14.065-8.834
		l1.056,0.576l-2.688,9.555h-29.81v-1.297c3.121-0.049,3.553-0.432,3.553-4.561V95.883L81.792,95.883z"/>
	<path fill="#FFFFFF" d="M150.098,101.692h-1.537c-2.447-5.617-7.584-10.992-14.113-11.041c-10.272,0.049-12.912,7.824-12.816,16.85
		c0,7.633,2.496,16.851,10.896,16.851c10.033,0,15.121-8.209,16.273-11.281h1.104v12.576h-0.769
		c-0.815-1.248-1.68-2.543-2.832-2.543c-0.576,0-2.641,0.815-4.656,1.395c-1.824,0.525-4.944,1.148-9.121,1.148
		c-9.696,0-18.338-8.062-18.338-18.146s8.642-18.146,18.338-18.146c4.561,0,6.816,0.575,8.545,1.104
		c1.776,0.576,3.024,1.152,5.521,1.152c1.585,0,1.872-0.912,2.304-1.777h1.201V101.692L150.098,101.692z"/>
	<path fill="#FFFFFF" d="M159.12,95.883c0-4.129-0.433-4.512-3.553-4.561v-1.295h28.035l3.647,9.168l-0.865,0.336
		c-4.366-5.473-7.248-8.209-12.433-8.209h-7.872v14.977h2.784c4.849,0,9.792-1.584,10.321-7.055h1.151v16.271h-1.151
		c-0.527-5.427-3.119-7.923-10.321-7.923h-2.784v13.729c0,1.871,0.144,2.354,1.824,2.354h5.04c7.968,0,9.601-2.592,14.064-8.834
		l1.058,0.576l-2.688,9.555h-29.811v-1.297c3.12-0.049,3.553-0.432,3.553-4.561V95.883H159.12z"/>
</g>
</svg>
