<?xml version="1.0" encoding="utf-8"?>
<!-- Generator: Adobe Illustrator 16.0.0, SVG Export Plug-In . SVG Version: 6.00 Build 0)  -->
<!DOCTYPE svg PUBLIC "-//W3C//DTD SVG 1.1//EN" "http://www.w3.org/Graphics/SVG/1.1/DTD/svg11.dtd">
<svg version="1.1" id="Layer_1" xmlns="http://www.w3.org/2000/svg" xmlns:xlink="http://www.w3.org/1999/xlink" x="0px" y="0px"
	 width="151px" height="266px" viewBox="0 0 151 266" enable-background="new 0 0 151 266" xml:space="preserve">
<path fill="#BA8138" d="M151,178H29.857C24.689,178,20,185.666,20,194.808V257c0,3.321,1.059,6.408,2.011,9H151V178z"/>
<path fill="#FAAF40" d="M41,266v-45.772c0-3.659-3.011-6.228-6.67-6.228H6.671C3.011,214,0,216.568,0,220.228V266H41z"/>
<path fill="#DD9A43" d="M151,248H49.18c-4.542,0-8.18,2.913-8.18,6.573V266h110V248z"/>
<rect x="55.88" y="128.53" fill="#D0D2D3" width="95.415" height="10.01"/>
<rect x="72.459" y="137.54" fill="#D0D2D3" width="11.028" height="16.925"/>
<rect x="96.528" y="84.599" fill="#F6921E" width="14.568" height="43.932"/>
<rect x="72.459" y="138.54" fill="#A6A8AB" width="11.029" height="3.668"/>
<rect x="96.459" y="90.762" fill="#F1F1F2" width="14.638" height="7.785"/>
<rect x="88.147" y="88.152" fill="#754C28" width="8.381" height="40.378"/>
<rect x="80.551" y="82.154" fill="#EC1C24" width="7.597" height="46.376"/>
<rect x="80.551" y="95.56" fill="#F1F1F2" width="7.597" height="7.785"/>
<rect x="111.097" y="92.913" fill="#8F9EBC" width="12.077" height="35.617"/>
<rect x="111.097" y="120.163" fill="#5C697F" width="12.077" height="4.781"/>
</svg>
