<?xml version="1.0" encoding="utf-8"?>
<!-- Generator: Adobe Illustrator 15.0.0, SVG Export Plug-In . SVG Version: 6.00 Build 0)  -->
<!DOCTYPE svg PUBLIC "-//W3C//DTD SVG 1.1//EN" "http://www.w3.org/Graphics/SVG/1.1/DTD/svg11.dtd">
<svg version="1.1" id="Layer_1" xmlns="http://www.w3.org/2000/svg" xmlns:xlink="http://www.w3.org/1999/xlink" x="0px" y="0px"
	 width="550px" height="242.939px" viewBox="0 0 550 242.939" enable-background="new 0 0 550 242.939" xml:space="preserve">
<path d="M297.189,216.465c0.014,0,0.024,0.002,0.037,0.002"/>
<rect x="343.197" fill="#58595B" width="0.5" height="170.455"/>
<circle fill="#58595B" cx="343.447" cy="169.045" r="4.252"/>
<rect x="320.069" y="155.646" transform="matrix(0.4957 0.8685 -0.8685 0.4957 319.8637 -186.2562)" fill="#58595B" width="0.5" height="53.328"/>
<rect x="339.864" y="182.064" transform="matrix(0.864 0.5034 -0.5034 0.864 141.5676 -159.5704)" fill="#58595B" width="52.699" height="0.501"/>
<polygon fill="#A87C4F" points="401,194.939 289,194.939 289,207.939 294,207.939 294,242.939 396,242.939 396,207.939 401,207.939 
	"/>
<rect x="327.17" y="188.98" fill="#E6E7E8" width="34.903" height="16.629"/>
<g>
	<path fill="#003056" d="M345.098,192.91c-7.059,0-12.383,1.086-12.383,1.086s-0.889,0.139-0.889,0.955v5.6
		c0,0.771,0.889,0.922,0.889,0.922s5.391,1.18,12.383,1.18c6.987,0,12.381-1.18,12.381-1.18s0.891-0.149,0.891-0.922v-5.6
		c0-0.816-0.891-0.955-0.891-0.955S352.152,192.91,345.098,192.91z"/>
	<path fill="#FFFFFF" d="M336.314,196.666h0.016c0.263-0.469,0.71-0.678,1.24-0.678h0.26v1.305
		c-0.186-0.104-0.363-0.125-0.572-0.125c-0.755,0-0.941,0.5-0.941,1.156v1.545h-1.356v-3.828h1.356L336.314,196.666L336.314,196.666
		z"/>
	<path fill="#FFFFFF" d="M342.379,198.182h-2.855c0,0.553,0.291,0.853,0.851,0.853c0.292,0,0.501-0.099,0.649-0.353h1.307
		c-0.219,0.904-1.076,1.314-1.947,1.314c-1.271,0-2.217-0.719-2.217-2.037c0-1.277,0.871-2.045,2.118-2.045
		c1.33,0,2.097,0.82,2.097,2.127L342.379,198.182L342.379,198.182z M341.117,197.398c-0.065-0.367-0.402-0.604-0.768-0.604
		c-0.396,0-0.726,0.207-0.807,0.604H341.117z"/>
	<path fill="#FFFFFF" d="M347.053,198.182h-2.859c0,0.553,0.293,0.853,0.854,0.853c0.289,0,0.498-0.099,0.647-0.353H347
		c-0.214,0.904-1.073,1.314-1.947,1.314c-1.268,0-2.216-0.719-2.216-2.037c0-1.277,0.873-2.045,2.117-2.045
		c1.33,0,2.101,0.82,2.101,2.127L347.053,198.182L347.053,198.182z M345.791,197.398c-0.068-0.367-0.405-0.604-0.77-0.604
		c-0.396,0-0.727,0.207-0.807,0.604H345.791z"/>
	<path fill="#FFFFFF" d="M355.324,198.182h-2.857c0,0.553,0.289,0.853,0.852,0.853c0.289,0,0.498-0.099,0.646-0.353h1.309
		c-0.217,0.904-1.073,1.314-1.947,1.314c-1.27,0-2.217-0.719-2.217-2.037c0-1.277,0.873-2.045,2.117-2.045
		c1.33,0,2.101,0.82,2.101,2.127L355.324,198.182L355.324,198.182z M354.062,197.398c-0.065-0.367-0.402-0.604-0.771-0.604
		c-0.395,0-0.723,0.207-0.805,0.604H354.062z"/>
	<path fill="#FFFFFF" d="M350.527,197.285c-0.199-0.146-0.44-0.268-0.7-0.268c-0.522,0-0.935,0.401-0.935,0.932
		c0,0.553,0.395,0.943,0.953,0.943c0.239,0,0.502-0.099,0.682-0.265l0.347,0.959c-0.427,0.326-0.974,0.408-1.301,0.408
		c-1.136,0-2.085-0.845-2.085-2c0-1.233,0.941-2.084,2.145-2.084c0.313,0,0.913,0.137,1.25,0.426L350.527,197.285z"/>
</g>
<rect x="296.113" y="211.004" fill="#67CFE3" width="22.676" height="30.148"/>
<rect x="320.977" y="211.004" fill="#67CFE3" width="22.678" height="30.148"/>
<rect x="345.84" y="211.004" fill="#67CFE3" width="22.678" height="30.148"/>
<rect x="370.704" y="211.004" fill="#67CFE3" width="22.677" height="30.148"/>
</svg>
