<?xml version="1.0" encoding="utf-8"?>
<!-- Generator: Adobe Illustrator 15.0.0, SVG Export Plug-In . SVG Version: 6.00 Build 0)  -->
<!DOCTYPE svg PUBLIC "-//W3C//DTD SVG 1.1//EN" "http://www.w3.org/Graphics/SVG/1.1/DTD/svg11.dtd">
<svg version="1.1" id="Layer_1" xmlns="http://www.w3.org/2000/svg" xmlns:xlink="http://www.w3.org/1999/xlink" x="0px" y="0px"
	 width="550px" height="242.939px" viewBox="0 0 550 242.939" enable-background="new 0 0 550 242.939" xml:space="preserve">
<rect x="16.336" y="200.652" fill="#08516E" width="102.289" height="42.287"/>
<polygon fill="#FFFFFE" points="247.424,206.65 247.783,206.65 247.783,206.65 "/>
<rect x="16.336" y="194.295" fill="#08516E" width="102.289" height="5.041"/>
<rect x="19.917" y="202.652" fill="#022432" width="29.831" height="37.521"/>
<rect x="52.564" y="202.652" fill="#022432" width="29.832" height="37.521"/>
<rect x="85.52" y="202.652" fill="#022432" width="29.831" height="37.521"/>
<rect x="156.516" y="200.652" fill="#08516E" width="102.289" height="42.287"/>
<rect x="156.516" y="194.295" fill="#08516E" width="102.289" height="5.041"/>
<rect x="160.098" y="202.652" fill="#022432" width="29.831" height="37.521"/>
<rect x="192.744" y="202.652" fill="#022432" width="29.832" height="37.521"/>
<rect x="225.699" y="202.652" fill="#022432" width="29.832" height="37.521"/>
<rect x="431.662" y="200.652" fill="#08516E" width="102.289" height="42.287"/>
<rect x="431.662" y="194.295" fill="#08516E" width="102.289" height="5.041"/>
<rect x="435.243" y="202.652" fill="#022432" width="29.831" height="37.521"/>
<rect x="467.891" y="202.652" fill="#022432" width="29.832" height="37.521"/>
<rect x="500.846" y="202.652" fill="#022432" width="29.831" height="37.521"/>
<g>
	<path fill="#FFFFFF" d="M311.466,218.027c-0.433-1.98-2.071-3.115-3.942-3.115c-3.402,0-4.844,2.845-4.844,5.654
		c0,2.809,1.439,5.65,4.844,5.65c2.377,0,3.891-1.836,4.123-4.121h1.226c-0.343,3.149-2.341,5.168-5.349,5.168
		c-4.053,0-6.066-3.188-6.066-6.697c0-3.512,2.016-6.699,6.066-6.699c2.432,0,4.845,1.459,5.168,4.16H311.466L311.466,218.027z"/>
	<path fill="#FFFFFF" d="M314.738,214.139h5.889c2.124,0,3.906,1.025,3.906,3.348c0,1.621-0.846,2.953-2.502,3.277v0.036
		c1.674,0.216,2.16,1.368,2.25,2.899c0.055,0.882,0.055,2.646,0.595,3.295h-1.351c-0.309-0.506-0.309-1.459-0.344-1.999
		c-0.106-1.802-0.252-3.8-2.574-3.709h-4.646v5.708h-1.226L314.738,214.139L314.738,214.139z M315.963,220.242h4.574
		c1.494,0,2.771-0.938,2.771-2.504s-0.938-2.557-2.771-2.557h-4.574V220.242z"/>
	<path fill="#FFFFFF" d="M332.129,213.867c4.033,0,6.049,3.188,6.049,6.699c0,3.51-2.016,6.697-6.049,6.697
		c-4.052,0-6.068-3.188-6.068-6.697C326.061,217.055,328.077,213.867,332.129,213.867z M332.129,226.219
		c3.385,0,4.824-2.844,4.824-5.652c0-2.81-1.439-5.652-4.824-5.652c-3.404,0-4.844,2.845-4.844,5.652
		C327.285,223.375,328.725,226.219,332.129,226.219z"/>
	<path fill="#FFFFFF" d="M343.666,221.7l-5.061-7.562h1.459l4.229,6.519l4.213-6.519h1.458l-5.076,7.562v5.294h-1.225L343.666,221.7
		L343.666,221.7z"/>
	<path fill="#FFFFFF" d="M351.08,214.139h4.447c3.871,0.09,5.904,2.215,5.904,6.428s-2.033,6.338-5.904,6.43h-4.447V214.139z
		 M352.305,225.949h2.611c3.691,0.018,5.293-1.549,5.293-5.383c0-3.836-1.602-5.402-5.293-5.385h-2.611V225.949z"/>
	<path fill="#FFFFFF" d="M368.795,213.867c4.033,0,6.049,3.188,6.049,6.699c0,3.51-2.016,6.697-6.049,6.697
		c-4.052,0-6.068-3.188-6.068-6.697C362.727,217.055,364.743,213.867,368.795,213.867z M368.795,226.219
		c3.385,0,4.824-2.844,4.824-5.652c0-2.81-1.439-5.652-4.824-5.652c-3.404,0-4.844,2.845-4.844,5.652
		C363.951,223.375,365.391,226.219,368.795,226.219z"/>
	<path fill="#FFFFFF" d="M376.73,214.139h1.367l7.49,10.875h0.035v-10.875h1.225v12.855h-1.367l-7.49-10.876h-0.035v10.876h-1.225
		V214.139z"/>
</g>
</svg>
