<?xml version="1.0" encoding="utf-8"?>
<!-- Generator: Adobe Illustrator 16.0.0, SVG Export Plug-In . SVG Version: 6.00 Build 0)  -->
<!DOCTYPE svg PUBLIC "-//W3C//DTD SVG 1.1//EN" "http://www.w3.org/Graphics/SVG/1.1/DTD/svg11.dtd">
<svg version="1.1" id="Layer_1" xmlns="http://www.w3.org/2000/svg" xmlns:xlink="http://www.w3.org/1999/xlink" x="0px" y="0px"
	 width="86px" height="52px" viewBox="0 0 86 52" enable-background="new 0 0 86 52" xml:space="preserve">
<rect x="6.832" y="6" fill="#C1B49A" width="72.336" height="46"/>
<rect y="6" fill="#C1B49A" width="86" height="7.677"/>
<rect x="10.379" y="20.818" fill="#8F8472" width="20.195" height="28.38"/>
<rect x="32.857" y="20.818" fill="#8F8472" width="20.196" height="28.38"/>
<rect x="55.335" y="20.818" fill="#8F8472" width="20.195" height="28.38"/>
<rect x="6.832" y="13.677" fill="#B0A48D" width="72.336" height="4.314"/>
<rect x="30.142" fill="#E6E7E8" width="25.628" height="12.209"/>
<g>
	<path fill="#003056" d="M43.304,2.885c-5.182,0-9.091,0.797-9.091,0.797s-0.653,0.103-0.653,0.702v4.111
		c0,0.567,0.653,0.677,0.653,0.677s3.957,0.867,9.091,0.867c5.131,0,9.091-0.867,9.091-0.867s0.653-0.11,0.653-0.677V4.384
		c0-0.6-0.653-0.702-0.653-0.702S48.485,2.885,43.304,2.885z"/>
	<path fill="#FFFFFF" d="M36.856,5.643h0.011c0.193-0.345,0.521-0.499,0.911-0.499h0.19v0.958c-0.135-0.076-0.266-0.092-0.42-0.092
		c-0.554,0-0.692,0.367-0.692,0.849v1.134H35.86V5.184h0.997V5.643z"/>
	<path fill="#FFFFFF" d="M41.309,6.755h-2.098c0,0.406,0.214,0.625,0.624,0.625c0.215,0,0.368-0.071,0.477-0.258h0.959
		c-0.16,0.664-0.79,0.965-1.429,0.965c-0.933,0-1.628-0.526-1.628-1.496c0-0.938,0.64-1.502,1.555-1.502
		c0.977,0,1.54,0.603,1.54,1.562V6.755z M40.382,6.181c-0.048-0.27-0.295-0.443-0.563-0.443c-0.291,0-0.532,0.152-0.591,0.443
		H40.382z"/>
	<path fill="#FFFFFF" d="M44.74,6.755h-2.1c0,0.406,0.215,0.625,0.626,0.625c0.213,0,0.366-0.071,0.476-0.258h0.958
		c-0.157,0.664-0.788,0.965-1.43,0.965c-0.931,0-1.627-0.526-1.627-1.496c0-0.938,0.641-1.502,1.554-1.502
		c0.977,0,1.542,0.603,1.542,1.562V6.755z M43.814,6.181c-0.05-0.27-0.298-0.443-0.565-0.443c-0.289,0-0.532,0.152-0.591,0.443
		H43.814z"/>
	<path fill="#FFFFFF" d="M50.814,6.755h-2.099c0,0.406,0.212,0.625,0.625,0.625c0.212,0,0.365-0.071,0.475-0.258h0.959
		c-0.157,0.664-0.788,0.965-1.43,0.965c-0.931,0-1.628-0.526-1.628-1.496c0-0.938,0.642-1.502,1.555-1.502
		c0.977,0,1.542,0.603,1.542,1.562V6.755z M49.888,6.181c-0.048-0.27-0.296-0.443-0.565-0.443c-0.289,0-0.529,0.152-0.591,0.443
		H49.888z"/>
	<path fill="#FFFFFF" d="M47.292,6.098c-0.146-0.109-0.324-0.196-0.515-0.196c-0.383,0-0.685,0.295-0.685,0.684
		c0,0.406,0.289,0.692,0.701,0.692c0.175,0,0.369-0.071,0.5-0.193l0.254,0.704c-0.313,0.24-0.714,0.3-0.955,0.3
		c-0.834,0-1.531-0.619-1.531-1.468c0-0.907,0.692-1.529,1.574-1.529c0.23,0,0.671,0.101,0.918,0.313L47.292,6.098z"/>
</g>
</svg>
