<?xml version="1.0" encoding="utf-8"?>
<!-- Generator: Adobe Illustrator 16.0.0, SVG Export Plug-In . SVG Version: 6.00 Build 0)  -->
<!DOCTYPE svg PUBLIC "-//W3C//DTD SVG 1.1//EN" "http://www.w3.org/Graphics/SVG/1.1/DTD/svg11.dtd">
<svg version="1.1" id="Layer_1" xmlns="http://www.w3.org/2000/svg" xmlns:xlink="http://www.w3.org/1999/xlink" x="0px" y="0px"
	 width="348px" height="138px" viewBox="0 0 348 138" enable-background="new 0 0 348 138" xml:space="preserve">
<polygon fill="#FFFFFF" points="211.501,45.107 151.639,70.773 161.962,94.85 221.823,69.182 211.501,45.107 "/>
<g>
	
		<rect x="151.647" y="55.866" transform="matrix(0.9191 -0.3941 0.3941 0.9191 -12.4655 79.2493)" fill="#FFFFFF" width="70.168" height="28.221"/>
	<path fill="#EC1C24" d="M211.732,47.397l8.591,20.037l-58.591,25.122l-8.592-20.038L211.732,47.397 M213.417,43.183l-64.492,27.651
		l11.121,25.938l64.49-27.652L213.417,43.183L213.417,43.183z"/>
</g>
<g>
	<path fill="#EC1C24" d="M164.005,82.045c0.787,1.617,2.037,1.711,3.592,1.045c1.102-0.475,2.074-1.357,1.628-2.398
		c-0.532-1.24-2.64-0.615-4.911-0.316c-2.25,0.289-4.742,0.287-5.848-2.289c-1.315-3.068,1.258-5.592,3.895-6.723
		c2.793-1.197,6.187-1.047,7.564,2.111l-3.658,1.568c-0.49-1.303-1.865-1.201-2.988-0.721c-0.785,0.336-1.651,1.033-1.254,1.957
		c0.463,1.084,2.574,0.41,4.862,0.104c2.271-0.297,4.722-0.23,5.81,2.307c1.527,3.559-1.014,6-4.102,7.324
		c-3.227,1.383-6.686,1.189-8.248-2.4L164.005,82.045z"/>
	<path fill="#EC1C24" d="M176.539,65.285c4.426-1.898,8.314,0.276,10.061,4.347c1.746,4.072,0.639,8.388-3.787,10.287
		c-4.424,1.896-8.314-0.277-10.061-4.35C171.006,71.498,172.113,67.181,176.539,65.285z M181.462,76.771
		c2.361-1.014,2.373-3.486,1.479-5.57c-0.895-2.085-2.693-3.783-5.053-2.77c-2.359,1.012-2.371,3.483-1.479,5.569
		C177.304,76.086,179.103,77.781,181.462,76.771z"/>
	<path fill="#EC1C24" d="M185.572,61.759l3.658-1.568l4.674,10.897l6.549-2.809l1.35,3.147l-10.209,4.377L185.572,61.759z"/>
	<path fill="#EC1C24" d="M197.587,56.608l6.037-2.589c4.307-1.848,8.004-0.336,9.869,4.011c1.975,4.604,0.42,8.203-3.848,10.033
		l-6.037,2.589L197.587,56.608z M205.917,65.936l1.73-0.742c2.748-1.247,3.385-2.802,2.18-5.615
		c-1.096-2.556-3.006-3.205-5.502-2.134l-1.732,0.741L205.917,65.936z"/>
</g>
</svg>
