<?xml version="1.0" encoding="utf-8"?>
<!-- Generator: Adobe Illustrator 16.0.0, SVG Export Plug-In . SVG Version: 6.00 Build 0)  -->
<!DOCTYPE svg PUBLIC "-//W3C//DTD SVG 1.1//EN" "http://www.w3.org/Graphics/SVG/1.1/DTD/svg11.dtd">
<svg version="1.1" id="Layer_1" xmlns="http://www.w3.org/2000/svg" xmlns:xlink="http://www.w3.org/1999/xlink" x="0px" y="0px"
	 width="348px" height="138px" viewBox="0 0 348 138" enable-background="new 0 0 348 138" xml:space="preserve">
<line fill="none" stroke="#A6A8AB" stroke-miterlimit="10" x1="34" y1="17.976" x2="314" y2="17.976"/>
<line fill="none" stroke="#A6A8AB" stroke-miterlimit="10" x1="34" y1="38.731" x2="314" y2="38.731"/>
<line fill="none" stroke="#A6A8AB" stroke-miterlimit="10" x1="34" y1="59.485" x2="314" y2="59.485"/>
<line fill="none" stroke="#A6A8AB" stroke-miterlimit="10" x1="34" y1="80.238" x2="314" y2="80.238"/>
<line fill="none" stroke="#A6A8AB" stroke-miterlimit="10" x1="34" y1="100.992" x2="314" y2="100.992"/>
<line fill="none" stroke="#A6A8AB" stroke-miterlimit="10" x1="34" y1="121.746" x2="314" y2="121.746"/>
<line fill="none" stroke="#A6A8AB" stroke-miterlimit="10" x1="52" y1="3" x2="52" y2="134"/>
<line fill="none" stroke="#A6A8AB" stroke-miterlimit="10" x1="76.24" y1="3" x2="76.24" y2="134"/>
<line fill="none" stroke="#A6A8AB" stroke-miterlimit="10" x1="100.479" y1="3" x2="100.479" y2="134"/>
<line fill="none" stroke="#A6A8AB" stroke-miterlimit="10" x1="124.719" y1="3" x2="124.719" y2="134"/>
<line fill="none" stroke="#A6A8AB" stroke-miterlimit="10" x1="148.959" y1="3" x2="148.959" y2="134"/>
<line fill="none" stroke="#A6A8AB" stroke-miterlimit="10" x1="173.199" y1="3" x2="173.199" y2="134"/>
<line fill="none" stroke="#A6A8AB" stroke-miterlimit="10" x1="197.438" y1="3" x2="197.438" y2="134"/>
<line fill="none" stroke="#A6A8AB" stroke-miterlimit="10" x1="221.678" y1="3" x2="221.678" y2="134"/>
<line fill="none" stroke="#A6A8AB" stroke-miterlimit="10" x1="245.918" y1="3" x2="245.918" y2="134"/>
<line fill="none" stroke="#A6A8AB" stroke-miterlimit="10" x1="270.159" y1="3" x2="270.159" y2="134"/>
<line fill="none" stroke="#A6A8AB" stroke-miterlimit="10" x1="294.396" y1="3" x2="294.396" y2="134"/>
<rect fill="#754C28" width="25" height="138"/>
<rect x="323" fill="#754C28" width="25" height="138"/>
<path fill="#808184" d="M309.331,138H38.669c-4.78,0-8.669-3.889-8.669-8.669V8.669C30,3.889,33.889,0,38.669,0H309.33
	c4.78,0,8.67,3.889,8.67,8.669v120.662C318,134.111,314.11,138,309.331,138z M38.669,6C37.197,6,36,7.197,36,8.669v120.662
	c0,1.472,1.197,2.669,2.669,2.669H309.33c1.473,0,2.67-1.197,2.67-2.669V8.669C312,7.197,310.803,6,309.331,6H38.669z"/>
<rect x="25" y="22" fill="#A6A8AB" width="14" height="14"/>
<rect x="25" y="104" fill="#A6A8AB" width="14" height="14"/>
<rect x="133" y="41.574" fill="#FFFFFF" width="106.078" height="56.705"/>
<g>
	<path fill="#404041" d="M154.79,66.505c0,5.281-2.707,7.954-8.251,7.954c-6.238,0-8.251-3.598-8.251-8.845v-1.023h5.776v2.179
		c0,1.551,0.858,2.409,2.376,2.409c1.419,0,2.211-0.792,2.211-3.069V50.4h6.139V66.505L154.79,66.505z"/>
	<path fill="#404041" d="M163.599,66.77c0.099,2.343,1.452,3.895,3.829,3.895c1.353,0,2.673-0.627,3.201-1.881h5.248
		c-1.023,3.96-4.687,5.676-8.515,5.676c-5.578,0-9.374-3.366-9.374-9.109c0-5.248,4.191-9.01,9.241-9.01
		c6.139,0,9.208,4.621,8.944,10.43L163.599,66.77L163.599,66.77z M170.562,63.634c-0.099-1.914-1.452-3.499-3.333-3.499
		c-1.98,0-3.3,1.419-3.63,3.499H170.562z"/>
	<path fill="#404041" d="M183.333,68.32c0,0.858,0.362,1.485,0.924,1.915c0.527,0.396,1.287,0.596,2.079,0.596
		c1.089,0,2.641-0.462,2.641-1.815c0-1.32-1.748-1.584-2.738-1.815c-3.53-0.891-7.954-0.99-7.954-5.611
		c0-4.125,4.457-5.248,7.821-5.248c3.765,0,7.689,1.089,7.89,5.545h-5.183c0-0.726-0.265-1.188-0.728-1.485
		c-0.462-0.297-1.089-0.429-1.78-0.429c-0.926,0-2.41,0.099-2.41,1.287c0,1.617,3.763,1.915,6.336,2.476
		c3.467,0.693,4.356,3.202,4.356,4.621c0,4.587-4.356,6.105-8.218,6.105c-4.061,0-8.219-1.354-8.385-6.139L183.333,68.32
		L183.333,68.32z"/>
	<path fill="#404041" d="M208.479,63.106c-0.033-1.452-1.318-2.476-2.737-2.476c-3.138,0-3.632,2.673-3.632,5.05
		c0,2.211,0.957,4.489,3.334,4.489c1.947,0,2.938-1.122,3.201-2.938h5.445c-0.494,4.587-4.061,7.228-8.615,7.228
		c-5.146,0-8.977-3.531-8.977-8.779c0-5.446,3.465-9.34,8.977-9.34c4.258,0,8.055,2.244,8.449,6.766H208.479z"/>
	<path fill="#404041" d="M225.077,56.34c5.313,0,9.044,3.928,9.044,9.076c0,5.148-3.729,9.043-9.044,9.043
		c-5.312,0-9.011-3.895-9.011-9.043C216.066,60.268,219.764,56.34,225.077,56.34z M225.077,70.169c2.606,0,3.435-2.575,3.435-4.753
		c0-2.178-0.826-4.786-3.435-4.786c-2.609,0-3.397,2.607-3.397,4.786S222.469,70.169,225.077,70.169z"/>
	<path fill="#404041" d="M139.133,79.4h3.802c1.535,0,2.542,0.898,2.542,2.447c0,1.547-1.007,2.445-2.542,2.445h-2.986v3.67h-0.815
		L139.133,79.4L139.133,79.4z M139.948,83.6h2.806c1.127,0,1.907-0.576,1.907-1.752s-0.78-1.75-1.907-1.75h-2.806V83.6z"/>
	<path fill="#404041" d="M146.561,79.4h0.756v8.562h-0.756V79.4z"/>
	<path fill="#404041" d="M153.782,87.965h-0.696V86.85h-0.024c-0.396,0.826-1.211,1.295-2.135,1.295
		c-1.559,0-2.171-0.912-2.171-2.352v-4.018h0.756v4.029c0.036,1.114,0.456,1.702,1.655,1.702c1.295,0,1.859-1.224,1.859-2.481v-3.25
		h0.756V87.965L153.782,87.965z"/>
	<path fill="#404041" d="M155.212,81.775h0.695v1.043h0.036c0.396-0.742,1.043-1.223,2.027-1.223c0.815,0,1.547,0.396,1.775,1.211
		c0.372-0.814,1.151-1.211,1.967-1.211c1.355,0,2.051,0.705,2.051,2.17v4.197h-0.756v-4.162c0-1.02-0.384-1.57-1.463-1.57
		c-1.308,0-1.679,1.08-1.679,2.23v3.502h-0.755v-4.197c0.012-0.84-0.336-1.535-1.295-1.535c-1.307,0-1.835,0.982-1.847,2.277v3.455
		h-0.755L155.212,81.775L155.212,81.775z"/>
	<path fill="#404041" d="M165.208,79.4h0.755v3.551h0.024c0.324-0.889,1.224-1.355,2.147-1.355c1.883,0,2.782,1.523,2.782,3.274
		s-0.899,3.274-2.782,3.274c-0.996,0-1.859-0.518-2.207-1.355h-0.024v1.176h-0.695V79.4z M168.135,82.23
		c-1.607,0-2.171,1.354-2.171,2.64c0,1.284,0.564,2.639,2.171,2.639c1.439,0,2.027-1.354,2.027-2.639
		C170.162,83.585,169.574,82.23,168.135,82.23z"/>
	<path fill="#404041" d="M172.108,79.4h0.756v1.211h-0.756V79.4z M172.108,81.775h0.756v6.188h-0.756V81.775z"/>
	<path fill="#404041" d="M174.304,81.775h0.756v1.066h0.022c0.274-0.742,1.104-1.246,1.979-1.246c1.737,0,2.268,0.91,2.268,2.387
		v3.98h-0.756v-3.861c0-1.066-0.348-1.871-1.571-1.871c-1.198,0-1.918,0.912-1.942,2.123v3.609h-0.754L174.304,81.775
		L174.304,81.775z"/>
	<path fill="#404041" d="M185.988,87.461c-0.012,1.848-0.719,2.975-2.745,2.975c-1.235,0-2.459-0.553-2.565-1.871h0.756
		c0.168,0.912,0.971,1.234,1.812,1.234c1.392,0,1.989-0.826,1.989-2.338v-0.84h-0.022c-0.348,0.756-1.079,1.271-1.967,1.271
		c-1.979,0-2.795-1.416-2.795-3.18c0-1.703,1.008-3.117,2.795-3.117c0.897,0,1.667,0.562,1.967,1.246h0.022v-1.066h0.757v5.686
		H185.988z M185.234,84.799c0-1.212-0.563-2.566-1.991-2.566c-1.438,0-2.039,1.283-2.039,2.566c0,1.246,0.647,2.458,2.039,2.458
		C184.549,87.257,185.234,86.059,185.234,84.799z"/>
	<path fill="#404041" d="M191.295,85.146c-0.035,1.762,1.234,2.303,2.795,2.303c0.898,0,2.268-0.492,2.268-1.74
		c0-0.971-0.973-1.354-1.764-1.547l-1.906-0.467c-1.008-0.252-1.932-0.732-1.932-2.063c0-0.839,0.539-2.411,2.95-2.411
		c1.69,0,3.179,0.912,3.166,2.663h-0.815c-0.048-1.308-1.127-1.967-2.339-1.967c-1.114,0-2.147,0.433-2.147,1.702
		c0,0.805,0.603,1.141,1.298,1.309l2.087,0.516c1.211,0.324,2.219,0.854,2.219,2.256c0,0.588-0.238,2.445-3.271,2.445
		c-2.027,0-3.517-0.912-3.42-2.998H191.295L191.295,85.146z"/>
	<path fill="#404041" d="M203.341,87.965h-0.696V86.85h-0.021c-0.396,0.826-1.211,1.295-2.137,1.295c-1.559,0-2.17-0.912-2.17-2.352
		v-4.018h0.757v4.029c0.034,1.114,0.454,1.702,1.653,1.702c1.295,0,1.858-1.224,1.858-2.481v-3.25h0.756V87.965z"/>
	<path fill="#404041" d="M204.771,81.775h0.694v1.176h0.022c0.35-0.84,1.213-1.355,2.207-1.355c1.884,0,2.783,1.523,2.783,3.274
		s-0.899,3.274-2.783,3.274c-0.924,0-1.821-0.471-2.146-1.355h-0.022v3.466h-0.756V81.775L204.771,81.775z M207.698,82.23
		c-1.666,0-2.171,1.234-2.171,2.64c0,1.282,0.562,2.639,2.171,2.639c1.438,0,2.026-1.354,2.026-2.639
		C209.725,83.585,209.137,82.23,207.698,82.23z"/>
	<path fill="#404041" d="M211.66,81.775h0.695v1.176h0.022c0.349-0.84,1.211-1.355,2.207-1.355c1.883,0,2.781,1.523,2.781,3.274
		s-0.898,3.274-2.781,3.274c-0.924,0-1.823-0.471-2.146-1.355h-0.024v3.466h-0.755V81.775z M214.586,82.23
		c-1.668,0-2.172,1.234-2.172,2.64c0,1.282,0.564,2.639,2.172,2.639c1.439,0,2.025-1.354,2.025-2.639
		C216.611,83.585,216.025,82.23,214.586,82.23z"/>
	<path fill="#404041" d="M218.559,79.4h0.756v8.562h-0.756V79.4z"/>
	<path fill="#404041" d="M220.779,79.4h0.757v1.211h-0.757V79.4z M220.779,81.775h0.757v6.188h-0.757V81.775z"/>
	<path fill="#404041" d="M223.432,85.074c0.012,1.104,0.586,2.435,2.037,2.435c1.104,0,1.703-0.647,1.943-1.583h0.756
		c-0.324,1.402-1.141,2.219-2.699,2.219c-1.967,0-2.794-1.512-2.794-3.272c0-1.632,0.827-3.272,2.794-3.272
		c1.992,0,2.783,1.737,2.723,3.479h-4.76V85.074z M227.436,84.438c-0.035-1.14-0.742-2.207-1.967-2.207
		c-1.234,0-1.918,1.08-2.037,2.207H227.436z"/>
	<path fill="#404041" d="M232.921,83.587c-0.036-0.937-0.756-1.354-1.619-1.354c-0.672,0-1.464,0.266-1.464,1.066
		c0,0.672,0.768,0.912,1.283,1.043l1.008,0.229c0.863,0.134,1.764,0.638,1.764,1.717c0,1.344-1.332,1.857-2.48,1.857
		c-1.438,0-2.426-0.672-2.543-2.184h0.756c0.061,1.02,0.812,1.548,1.82,1.548c0.709,0,1.691-0.312,1.691-1.175
		c0-0.721-0.672-0.961-1.354-1.128l-0.973-0.216c-0.982-0.264-1.728-0.6-1.728-1.655c0-1.259,1.235-1.739,2.327-1.739
		c1.234,0,2.219,0.648,2.266,1.991H232.921L232.921,83.587z"/>
</g>
</svg>
