<?xml version="1.0" encoding="utf-8"?>
<!-- Generator: Adobe Illustrator 16.0.0, SVG Export Plug-In . SVG Version: 6.00 Build 0)  -->
<!DOCTYPE svg PUBLIC "-//W3C//DTD SVG 1.1//EN" "http://www.w3.org/Graphics/SVG/1.1/DTD/svg11.dtd">
<svg version="1.1" id="Layer_1" xmlns="http://www.w3.org/2000/svg" xmlns:xlink="http://www.w3.org/1999/xlink" x="0px" y="0px"
	 width="230px" height="156px" viewBox="0 0 230 156" enable-background="new 0 0 230 156" xml:space="preserve">
<g>
	<path fill="#0075A0" d="M25.525,70.357c-2.286-11.496,2.599-13.897,9.523-17.21c8.602-4.115,17.145,1.729,21.334-9.421
		c4.19-11.151,7.122-12.443,15.62-18.154c2.235-1.502-1.224-6.374,1.578-8.983c3.882-3.616,14.237,0,18.735,0
		c5.183,0,6.354-9.569,17.021-9.569c10.666,0,13.375-7.02,17.586-2.636c7.742,8.06-0.801,17.41,2.377,21.981
		c3.177,4.572,9.688,0.223,10.103-3.451c0.412-3.673,1.178-19.674,6.891-21.197c5.715-1.524,12.934-4.758,15.99,5.431
		c3.058,10.189-0.754,23.458,9.916,25.776c10.666,2.318,16.008,5.746,17.338,15.651c1.33,9.905,5.592,18.827,6.889,26.748
		c1.299,7.921,5.182,30.701,0,35.692c-5.18,4.99-15.846,2.392-15.846,11.5c0,9.107,3.43,15.205-4.951,15.967
		c-8.383,0.763-11.096,2.668-11.07,6.857c0.022,4.188-7.707,9.145-10.318,9.145c-2.61,0-9.618-0.906-10.229-11.87
		c-0.613-10.963-7.818-1.386-12.097-8.597c-9.196-15.51-15.715-8.42-24.478-11.502c-8.763-3.08,4.877-16.103-7.086-13.78
		c-11.967,2.319-23.395,16.795-30.252,16.795c-6.858,0-33.525,8.382-33.525-0.381s9.145-9.868,3.81-16.743
		C35.049,101.53,27.43,96.621,27.43,90.885C27.43,85.149,25.525,70.357,25.525,70.357z"/>
	<path fill="#37B34A" d="M160.208,137.95h-0.945c0,0-2.471,0.599-3.486,0.72c-1.016,0.119-2.104-0.242-2.688-0.66
		s-2.09-1.733-2.76-1.733c-0.436,0,0.943,5.508,1.234,6.225c0.291,0.722,0.145,0.481-0.508,0.603
		c-0.654,0.119,0.871,2.215,1.088,2.812c0.219,0.602,0.942,0.838,1.455,1.438c0.508,0.601,0.649,0.719,1.45,1.315
		c0.8,0.599,1.89,0.119,1.962-0.12c0.069-0.238,0.801-1.677,1.231-1.854c0.438-0.179,1.312-1.196,1.452-1.854
		c0.146-0.658-0.071-1.854,0.511-2.634c0.58-0.78,1.16-1.317,1.813-2.575c0.652-1.259-0.146-2.035-0.146-2.035L160.208,137.95z"/>
	<g>
		<path fill="#37B34A" d="M137.373,129.294l2.726-52.899l-46.912-0.745l-0.068,26.593h-0.119c1.159,1,4.707-2.214,6.314-2.146
			c2.947,0.123,5.895-2.107,7.858-0.164c1.964,1.946,3.068,2.108,4.787,3.205c1.72,1.097,1.229,2.453,2.578,3.791
			c1.353,1.34,4.174,6.338,4.174,6.338s1.359-1.14,2.69-2.092c0.75-0.535,1.488-1.01,1.976-1.187
			c1.353-0.487,3.687-3.527,3.687-3.527s-0.246,2.921-0.615,3.287c-0.367,0.365-1.352,4.259-1.842,4.381
			c-0.103,0.025-0.33,0.159-0.576,0.345l1.203,1.511c0.287-0.035,0.606-0.083,0.969-0.148c5.402-0.974,3.316-0.853,3.316-0.364
			c0,0.485,0,1.461,0.979,2.312s3.562,4.14,3.312,5.354c-0.246,1.219,0.49,4.381,1.967,5.478c0.396,0.298,0.922,0.709,1.629,0.709
			c0.105,0,0.238-0.005,0.35-0.005L137.373,129.294z"/>
		<path fill="#37B34A" d="M94.345,25.643l-1.031-0.048l-0.125,49.25l37.486,0.47l0.943-41.217c-1.521-0.286-2.98-1.04-3.275-1.873
			c-0.369-1.033-1.041-0.668-1.717-1.154c-0.674-0.487-2.083-1.035-2.329-1.096c-0.245-0.062-0.551-0.425-1.104-0.729
			c-0.551-0.305-1.229-1.218-1.719-1.583c-0.49-0.366-0.183,0.669-0.429,0.852s-0.799-0.061-1.289-0.852
			c-0.491-0.791-2.641-3.042-1.965-4.198c0.677-1.156,1.412-2.068,1.353-2.981c-0.062-0.914-0.615-2.252,0.307-2.434
			c0.92-0.183,2.334,0.973,2.762-0.792c0.432-1.764,0.859-3.286,0.125-3.286c-0.738,0-1.537,0.062-1.537,0.487
			c0,0.426-1.104,0.183-1.104,0.183s-1.168-0.548-1.107-1.096c0.062-0.547-1.104-0.244-0.857-0.487
			c0.244-0.243-1.534,0.061-2.086,0.183c-0.555,0.122-1.66,1.095-2.149-0.061c-0.492-1.156-0.858-0.182-1.597-0.122
			c-0.737,0.061-1.045,0.122-1.045,0.122s-0.121-0.364-0.307-0.608c-0.184-0.243-0.859,0.304-1.043-0.184
			c-0.186-0.486,0.613-0.608-0.676-0.486c-1.289,0.121-1.412-0.548-1.719,0c-0.307,0.547,0.307,2.373-0.859,2.19
			c-1.166-0.182-2.334,0.183-2.518-0.486c-0.185-0.669-0.553-0.123-0.553-0.123s-0.92-0.304-0.981,0.184
			c-0.062,0.486-0.923,0.912-1.72,1.278c-0.799,0.365-1.043,2.129-1.533,2.251c-0.492,0.121,0.613,1.034-0.062,1.643
			c-0.675,0.608-1.533,0.608-1.533,0.608l-0.123,1.46c0,0-0.492,1.338-0.981,1.46c-0.491,0.122-0.983,0.73-0.615,1.339
			c0.369,0.608,1.104,1.946,1.104,1.946l-0.612,0.365L94.345,25.643z"/>
		<path fill="#37B34A" d="M92.157,102.242l0.193-77l-0.375,0.132l-1.609,1.063c-0.012,0.295-0.383,0.273-0.383,0.273
			s0.053-1.133-1.353-2.525c-2.823-2.798-3.069-4.01-6.016-2.064c-2.947,1.947-8.013,6.088-8.013,7.304
			c0,1.217-0.951,4.017-0.951,4.017s-2.088,0.123-2.18,0.123c-0.091,0-1.013,1.704-1.013,1.704l0.368,3.286l-3.807-3.285
			c0,0-1.842,3.895-1.842,5.354s-2.455,8.031-4.297,8.64c-1.842,0.608-6.753,2.799-8.595,3.408c-1.841,0.608-4.174,2.19-5.894,2.677
			c-1.719,0.487-1.474-0.609-3.438,0.365c-1.964,0.974-3.193,3.286-4.789,4.502s-4.176,4.989-4.176,4.989s-1.842-0.608-1.473,1.216
			c0.369,1.828,0.246,5.479,0,5.965c-0.242,0.488-0.365,2.556,1.107,4.748c1.475,2.188,3.316,4.989,2.456,5.719
			c-0.858,0.729-0.981,0.486,0,3.164s3.438,6.328,4.051,7.059c0.615,0.73,2.089,4.26,2.089,5.477s2.946,5.479,3.805,6.692
			c0.859,1.218,0.736,4.259,0.981,4.99c0.247,0.729,1.229,2.678-0.612,4.016c-1.842,1.341-0.123,2.8,0.859,3.408
			s4.911,2.19,7.734,1.826c2.824-0.366,5.281-2.923,5.646-3.166c0.37-0.243,2.947-2.433,2.947-2.433s0.615-0.73,3.438-1.097
			c2.824-0.364,6.078-0.364,7.582-0.364s3.101-2.68,4.941-4.625c1.842-1.947,4.299-4.904,7.859-4.299
			c1.421,0.243,3.166-0.262,4.902-1.262c0,0,0,0,0.002,0L92.157,102.242L92.157,102.242z"/>
		<path fill="#37B34A" d="M189.372,79.446c-0.367-0.914,0.432-3.166,0.061-2.981c-0.367,0.185-3.312-2.373-3.928-4.502
			c-0.613-2.13-1.656-1.462-2.148-2.07c-0.487-0.608-0.061-2.129-0.61-2.25c-0.556-0.123-1.535,0.974-1.229-2.252
			c0.307-3.227-0.734-3.164-0.734-3.164s0.188,1.156-0.555,0.547c-0.734-0.608-1.842-2.555-1.842-1.096
			c0,1.461-0.646,0.428-0.646,0.428s-0.951-0.305-1.013-1.584c-0.062-1.276,0.367-1.764-0.432-2.676
			c-0.799-0.914,0-1.277-0.553-2.008c-0.555-0.731-1.904-1.705-1.781-2.252c0.123-0.547,1.047-0.121,1.047-0.121
			s-0.924-1.339-1.291-1.704c-0.367-0.365-0.799-0.062-0.799-0.062s-0.553-0.486-0.553-0.79s0-0.122-1.045-0.73
			c-1.043-0.608-0.799-1.156-1.043-0.608c-0.246,0.548-0.982-1.217-1.41-1.765c-0.434-0.548-1.658,0-1.602-0.852
			c0.062-0.853,0,0.425-1.164-0.365c-1.166-0.791-1.9-1.643-1.596-2.982c0.307-1.339-0.308-1.459-0.615-1.399
			c-0.308,0.061,0.557-1.4-0.123-4.26c-0.674-2.859-2.086-2.737-2.086-4.258s-0.799-4.564-0.369-5.842
			c0.432-1.278-1.965-1.704-2.332-2.312s-1.166-1.947-1.166-1.947s-0.49,0.608-0.98,0.608s-0.859,1.825-1.533,0.608
			c-0.678-1.217-1.535-3.955-1.354-5.416s0.186-2.007,0.186-2.007s-1.164-0.183-0.799-0.548c0.367-0.365,0.062-0.426-0.186-0.791
			c-0.242-0.366-1.043-0.73-0.799-1.522c0.246-0.79,0.557-0.973-0.369-1.277c-0.92-0.304-0.674-1.582-0.674-3.042
			c0-1.461-0.31-0.486-0.797-1.278c-0.492-0.79-0.246-2.312-1.045-1.582c-0.798,0.73-0.921,1.278-1.351,1.826
			c-0.433,0.547-0.31,2.738-0.8,3.467c-0.491,0.731,0,1.338-0.799,1.583c-0.799,0.243-1.104,1.46-0.92,1.644
			c0.185,0.182,1.043,0.486,1.043,0.486s-0.49,0.73-0.735,0.912c-0.246,0.184-0.675,0.731-0.308,1.4
			c0.366,0.669-0.555,1.582-0.8,2.129c-0.245,0.548,0,1.157,0.245,1.643c0.244,0.487,0.369,1.035,0.123,1.339
			c-0.246,0.304,0.062,1.095,0,1.826c-0.062,0.73,0.613,0.668-0.368,2.676c-0.981,2.008-0.677,3.53-1.043,4.321
			c-0.368,0.791-1.534,2.86-1.78,3.467c-0.244,0.609-1.598,3.043-3.375,2.435c-1.781-0.607-2.211-0.549-2.766-1.278
			c-0.553-0.73-1.777-1.095-1.844-1.764c-0.059-0.655,0.504-1.191-1.419-1.317l-0.941,41.192l8.974,0.112l0.475,0.505l-0.645,12.488
			c3.979,0.293,28.34,2.076,29.719,2.248c0.75,0.094,0.9-0.059,1.275-0.416c0.217-0.207,0.484-0.465,0.907-0.709
			c1.354-0.783,3.459-1.064,4.69-0.047c0.57,0.474,0.969,0.539,1.316,0.598c0.271,0.044,0.577,0.095,0.832,0.346
			c0.293,0.289,0.854,1.193,1.198,1.764c0.544-0.33,1.44-0.771,2.157-0.613c0.146-0.035,0.281-0.438,0.342-0.608
			c0.105-0.312,0.206-0.606,0.412-0.812c0.377-0.373,1.066-0.625,2.115-0.774c0.408-0.058,0.86,0.101,1.299,0.253
			c0.22,0.077,0.55,0.189,0.656,0.18c0.52-0.472,1.571-0.352,1.875-0.305c0.061-0.48,0.086-0.854,0.074-1.083
			c0,0-0.188-0.485-0.557-1.276c-0.368-0.793-0.368-2.188,0-2.678c0.367-0.488,0.123-2.556,0.188-3.469
			C189.005,80.115,189.741,80.358,189.372,79.446z"/>
		<path fill="#37B34A" d="M187.905,90.61c-0.405,0.346-0.971,0.146-1.518-0.046c-0.299-0.104-0.666-0.235-0.849-0.208
			c-1.119,0.159-1.476,0.407-1.569,0.505c-0.052,0.056-0.131,0.287-0.183,0.439c-0.172,0.506-0.494,1.446-1.456,1.237
			c-0.43-0.094-1.324,0.378-1.826,0.743l-0.695-0.146c-0.406-0.699-1.08-1.781-1.306-2.002c-0.034-0.035-0.17-0.059-0.312-0.082
			c-0.398-0.064-1.002-0.166-1.772-0.805c-0.853-0.705-2.53-0.479-3.598,0.139c-0.323,0.188-0.527,0.385-0.726,0.572
			c-0.441,0.424-0.861,0.825-2.062,0.676c-1.336-0.166-25.771-1.957-29.646-2.24l-1.092,21.147c0.598,0.099,1.794,0.326,3.312,0.783
			c1.377,0.416,1.891,1.571,2.016,2.599c0.314-0.207,0.68-0.34,1.034-0.221l0.139,0.044c0.611,0.192,1.884,0.595,1.757,1.74
			c-0.068,0.584,0.62,1.536,1.279,2.026c0.684,0.508,2.355,2.478,2.998,3.271c0.374-0.312,0.99-0.812,1.872-0.812
			c1.065,0,2.674,0.614,3.849,1.063c0.241,0.094,0.461,0.176,0.646,0.242l0.392,0.146c0.652,0.239,0.771,0.283,1.475,0.283
			c0.252,0,0.506-0.125,0.828-0.281c0.57-0.281,1.281-0.635,2.385-0.438c0.404,0.069,0.729,0.294,0.94,0.646
			c0.541,0.898,0.205,2.506,0.005,3.25l5.623,3.258c1.09-2.668,1.756-7.155,3.021-8.051c1.717-1.218,3.293-7.91,8.151-10.467
			c4.094-2.152,7.265-14.057,8.09-19.141C188.729,90.43,188.115,90.43,187.905,90.61z"/>
		<path fill="#37B34A" d="M163.411,125.528l-0.217-0.563c0.259-0.793,0.539-2.265,0.197-2.834c-0.068-0.113-0.153-0.172-0.283-0.195
			c-0.793-0.139-1.279,0.104-1.797,0.355c-0.381,0.188-0.775,0.381-1.252,0.381c-0.875,0-1.109-0.087-1.809-0.345l-0.385-0.142
			c-0.188-0.066-0.411-0.152-0.661-0.248c-1.041-0.398-2.612-1-3.504-1c-0.552,0-0.974,0.349-1.274,0.604
			c-0.25,0.206-0.459,0.385-0.759,0.344l-0.389-0.244c-0.181-0.266-2.354-2.855-3.021-3.354c-0.712-0.527-1.794-1.784-1.664-2.904
			c0.036-0.332-0.543-0.545-1.091-0.718l-0.147-0.048c-0.139,0.005-0.565,0.372-0.851,0.745l-0.854-0.372
			c0.017-0.091,0.359-2.236-1.32-2.744c-1.374-0.414-2.482-0.634-3.082-0.734l-1.062,17.834l-0.229-0.006v0.01
			c2,0.336,4.021,0.819,5.294,2.305c2.086,2.438,3.389,1.828,4.614,0.729c1.229-1.096,3.473-3.408,3.842-2.799
			c0.367,0.608-0.229,1.703-0.229,1.703s0.744,0.975,1.481,0.975c0.733,0,3.315,0.608,4.547,1.584
			c1.228,0.974,2.091-2.437,4.179-3.045c2.086-0.605,4.664,0.121,6.752-0.729c0.367-0.146,0.666-0.566,0.953-1.08L163.411,125.528z"
			/>
		<path fill="#37B34A" d="M137.965,129.325l-0.062-0.003c0.033,0.005,0.054,0.013,0.054,0.025c0,0,0,0.121,0,0.123L137.965,129.325z
			"/>
	</g>
</g>
</svg>
