<?xml version="1.0" encoding="utf-8"?>
<!-- Generator: Adobe Illustrator 16.0.0, SVG Export Plug-In . SVG Version: 6.00 Build 0)  -->
<!DOCTYPE svg PUBLIC "-//W3C//DTD SVG 1.1//EN" "http://www.w3.org/Graphics/SVG/1.1/DTD/svg11.dtd">
<svg version="1.1" id="Layer_1" xmlns="http://www.w3.org/2000/svg" xmlns:xlink="http://www.w3.org/1999/xlink" x="0px" y="0px"
	 width="230px" height="156px" viewBox="0 0 230 156" enable-background="new 0 0 230 156" xml:space="preserve">
<g>
	<g>
		<path fill="#FFFFFF" d="M199.916,89.331h0.861l3.174,8.095h-0.826l-0.986-2.517h-3.686l-0.977,2.517h-0.828L199.916,89.331z
			 M198.691,94.251h3.186l-1.562-4.149L198.691,94.251z"/>
		<path fill="#FFFFFF" d="M204.564,89.331h0.715v8.095h-0.715V89.331z"/>
		<path fill="#FFFFFF" d="M206.652,89.331h0.713v3.354h0.023c0.307-0.838,1.154-1.281,2.027-1.281c1.777,0,2.631,1.441,2.631,3.097
			c0,1.656-0.854,3.095-2.631,3.095c-0.939,0-1.758-0.486-2.086-1.281h-0.021v1.111h-0.656V89.331L206.652,89.331z M209.418,92.007
			c-1.521,0-2.053,1.281-2.053,2.494s0.531,2.494,2.053,2.494c1.359,0,1.916-1.281,1.916-2.494S210.777,92.007,209.418,92.007z"/>
		<path fill="#FFFFFF" d="M217.898,97.426h-0.658v-1.055h-0.021c-0.375,0.781-1.146,1.225-2.021,1.225
			c-1.474,0-2.052-0.861-2.052-2.222v-3.798h0.713v3.809c0.035,1.055,0.433,1.61,1.562,1.61c1.227,0,1.76-1.156,1.76-2.347v-3.072
			h0.715L217.898,97.426L217.898,97.426z"/>
		<path fill="#FFFFFF" d="M219.248,91.576h0.658v1.371h0.021c0.362-0.94,1.155-1.496,2.212-1.451v0.715
			c-1.293-0.068-2.177,0.885-2.177,2.098v3.117h-0.716v-5.85H219.248z"/>
		<path fill="#FFFFFF" d="M222.162,91.576h0.76l1.928,4.988l1.803-4.988h0.715l-2.539,6.744c-0.408,0.986-0.646,1.271-1.541,1.271
			c-0.285-0.011-0.434-0.011-0.545-0.057v-0.601c0.17,0.03,0.326,0.057,0.484,0.057c0.637,0,0.783-0.374,1.021-0.918l0.25-0.67
			L222.162,91.576z"/>
	</g>
</g>
<polyline fill="none" stroke="#FFFFFF" stroke-linecap="round" stroke-linejoin="round" stroke-miterlimit="10" points="
	151.872,117 196,102 227,102 "/>
<circle fill="#FFFFFF" cx="152" cy="117" r="1.5"/>
</svg>
