<?xml version="1.0" encoding="utf-8"?>
<!-- Generator: Adobe Illustrator 16.0.0, SVG Export Plug-In . SVG Version: 6.00 Build 0)  -->
<!DOCTYPE svg PUBLIC "-//W3C//DTD SVG 1.1//EN" "http://www.w3.org/Graphics/SVG/1.1/DTD/svg11.dtd">
<svg version="1.1" id="Layer_1" xmlns="http://www.w3.org/2000/svg" xmlns:xlink="http://www.w3.org/1999/xlink" x="0px" y="0px"
	 width="204px" height="79px" viewBox="0 0 204 79" enable-background="new 0 0 204 79" xml:space="preserve">
<polygon fill="#58595B" points="106,3.5 106,25.5 0,25.5 0,79.5 198,79.5 198,3.5 "/>
<rect x="2.229" y="46.391" fill="#41424A" width="15.503" height="29.913"/>
<rect x="19.772" y="46.391" fill="#41424A" width="15.504" height="29.913"/>
<rect x="37.546" y="46.391" fill="#41424A" width="15.504" height="29.913"/>
<rect x="55.091" y="46.391" fill="#41424A" width="15.503" height="29.913"/>
<rect x="73.393" y="46.391" fill="#41424A" width="15.503" height="29.913"/>
<rect x="90.937" y="46.391" fill="#41424A" width="15.504" height="29.913"/>
<rect x="108.71" y="46.391" fill="#41424A" width="15.504" height="29.913"/>
<rect x="126.255" y="46.391" fill="#41424A" width="15.503" height="29.913"/>
<rect x="144.557" y="46.391" fill="#41424A" width="15.503" height="29.913"/>
<rect x="162.101" y="46.391" fill="#41424A" width="15.504" height="29.913"/>
<rect x="179.874" y="46.391" fill="#41424A" width="15.504" height="29.913"/>
<rect x="108.71" y="6.909" fill="#41424A" width="15.504" height="29.913"/>
<rect x="126.255" y="6.909" fill="#41424A" width="15.503" height="29.913"/>
<rect x="144.557" y="6.909" fill="#41424A" width="15.503" height="29.913"/>
<rect x="162.101" y="6.909" fill="#41424A" width="15.504" height="29.913"/>
<rect x="179.874" y="6.909" fill="#41424A" width="15.504" height="29.913"/>
<rect x="104.329" fill="#808184" width="98.927" height="3.951"/>
<rect y="39.911" fill="#808184" width="197.889" height="3.951"/>
<rect x="37.64" y="20.193" fill="#E6E7E8" width="34.903" height="16.629"/>
<g>
	<path fill="#003056" d="M55.566,24.123c-7.058,0-12.382,1.086-12.382,1.086s-0.889,0.139-0.889,0.955v5.6
		c0,0.771,0.889,0.922,0.889,0.922s5.39,1.18,12.382,1.18c6.988,0,12.382-1.18,12.382-1.18s0.889-0.15,0.889-0.922v-5.6
		c0-0.816-0.889-0.955-0.889-0.955S62.623,24.123,55.566,24.123z"/>
	<path fill="#FFFFFF" d="M46.785,27.879H46.8c0.263-0.469,0.71-0.678,1.24-0.678h0.26v1.305c-0.185-0.104-0.363-0.125-0.572-0.125
		c-0.755,0-0.942,0.5-0.942,1.156v1.545h-1.357v-3.828h1.357V27.879z"/>
	<path fill="#FFFFFF" d="M52.849,29.395h-2.857c0,0.553,0.292,0.852,0.851,0.852c0.292,0,0.501-0.098,0.649-0.352h1.307
		c-0.218,0.904-1.076,1.314-1.947,1.314c-1.271,0-2.217-0.717-2.217-2.037c0-1.277,0.871-2.045,2.118-2.045
		c1.33,0,2.097,0.82,2.097,2.127V29.395z M51.587,28.611c-0.065-0.367-0.402-0.604-0.767-0.604c-0.396,0-0.725,0.207-0.806,0.604
		H51.587z"/>
	<path fill="#FFFFFF" d="M57.522,29.395h-2.86c0,0.553,0.293,0.852,0.854,0.852c0.289,0,0.498-0.098,0.647-0.352h1.306
		c-0.214,0.904-1.073,1.314-1.947,1.314c-1.268,0-2.216-0.717-2.216-2.037c0-1.277,0.873-2.045,2.117-2.045
		c1.33,0,2.1,0.82,2.1,2.127V29.395z M56.261,28.611c-0.068-0.367-0.405-0.604-0.77-0.604c-0.394,0-0.725,0.207-0.805,0.604H56.261z
		"/>
	<path fill="#FFFFFF" d="M65.794,29.395h-2.857c0,0.553,0.289,0.852,0.851,0.852c0.289,0,0.498-0.098,0.646-0.352h1.307
		c-0.215,0.904-1.073,1.314-1.947,1.314c-1.268,0-2.217-0.717-2.217-2.037c0-1.277,0.874-2.045,2.118-2.045
		c1.33,0,2.1,0.82,2.1,2.127V29.395z M64.532,28.611c-0.065-0.367-0.402-0.604-0.77-0.604c-0.394,0-0.722,0.207-0.805,0.604H64.532z
		"/>
	<path fill="#FFFFFF" d="M60.998,28.498c-0.2-0.148-0.441-0.268-0.701-0.268c-0.522,0-0.934,0.402-0.934,0.932
		c0,0.553,0.394,0.943,0.954,0.943c0.239,0,0.502-0.098,0.681-0.264l0.346,0.959c-0.427,0.326-0.973,0.408-1.301,0.408
		c-1.136,0-2.085-0.844-2.085-2c0-1.234,0.943-2.082,2.145-2.082c0.313,0,0.913,0.137,1.25,0.426L60.998,28.498z"/>
</g>
</svg>
