<?xml version="1.0" encoding="utf-8"?>
<!-- Generator: Adobe Illustrator 16.0.0, SVG Export Plug-In . SVG Version: 6.00 Build 0)  -->
<!DOCTYPE svg PUBLIC "-//W3C//DTD SVG 1.1//EN" "http://www.w3.org/Graphics/SVG/1.1/DTD/svg11.dtd">
<svg version="1.1" id="Layer_1" xmlns="http://www.w3.org/2000/svg" xmlns:xlink="http://www.w3.org/1999/xlink" x="0px" y="0px"
	 width="86px" height="79px" viewBox="0 0 86 79" enable-background="new 0 0 86 79" xml:space="preserve">
<rect x="6.832" y="33" fill="#C1B49A" width="72.336" height="46"/>
<rect y="33" fill="#C1B49A" width="86" height="7.677"/>
<rect x="10.379" y="47.818" fill="#8F8472" width="20.195" height="28.38"/>
<rect x="32.857" y="47.818" fill="#8F8472" width="20.195" height="28.38"/>
<rect x="55.336" y="47.818" fill="#8F8472" width="20.193" height="28.38"/>
<rect x="6.832" y="40.677" fill="#B0A48D" width="72.336" height="4.314"/>
<rect x="30.143" y="27" fill="#E6E7E8" width="25.627" height="12.209"/>
<g>
	<path fill="#003056" d="M43.305,29.885c-5.182,0-9.092,0.797-9.092,0.797s-0.652,0.103-0.652,0.702v4.111
		c0,0.567,0.652,0.677,0.652,0.677s3.957,0.867,9.092,0.867c5.131,0,9.09-0.867,9.09-0.867s0.654-0.11,0.654-0.677v-4.111
		c0-0.6-0.654-0.702-0.654-0.702S48.484,29.885,43.305,29.885z"/>
	<path fill="#FFFFFF" d="M36.857,32.643h0.01c0.193-0.345,0.521-0.499,0.912-0.499h0.189v0.958c-0.135-0.076-0.266-0.092-0.42-0.092
		c-0.555,0-0.691,0.367-0.691,0.849v1.134h-0.996v-2.809h0.996V32.643L36.857,32.643z"/>
	<path fill="#FFFFFF" d="M41.311,33.755h-2.1c0,0.406,0.215,0.625,0.625,0.625c0.215,0,0.367-0.071,0.477-0.258h0.959
		c-0.16,0.664-0.789,0.965-1.43,0.965c-0.932,0-1.627-0.526-1.627-1.496c0-0.938,0.641-1.502,1.555-1.502
		c0.977,0,1.541,0.603,1.541,1.562V33.755L41.311,33.755z M40.383,33.181c-0.049-0.27-0.295-0.443-0.562-0.443
		c-0.291,0-0.533,0.152-0.592,0.443H40.383z"/>
	<path fill="#FFFFFF" d="M44.74,33.755h-2.1c0,0.406,0.215,0.625,0.627,0.625c0.213,0,0.365-0.071,0.475-0.258h0.959
		c-0.158,0.664-0.789,0.965-1.43,0.965c-0.932,0-1.627-0.526-1.627-1.496c0-0.938,0.641-1.502,1.553-1.502
		c0.977,0,1.543,0.603,1.543,1.562V33.755L44.74,33.755z M43.814,33.181c-0.051-0.27-0.299-0.443-0.564-0.443
		c-0.289,0-0.533,0.152-0.592,0.443H43.814z"/>
	<path fill="#FFFFFF" d="M50.814,33.755h-2.1c0,0.406,0.213,0.625,0.625,0.625c0.213,0,0.365-0.071,0.475-0.258h0.959
		c-0.156,0.664-0.787,0.965-1.43,0.965c-0.93,0-1.627-0.526-1.627-1.496c0-0.938,0.641-1.502,1.555-1.502
		c0.977,0,1.541,0.603,1.541,1.562v0.104H50.814z M49.889,33.181c-0.049-0.27-0.297-0.443-0.564-0.443
		c-0.289,0-0.529,0.152-0.592,0.443H49.889z"/>
	<path fill="#FFFFFF" d="M47.293,33.098c-0.146-0.109-0.324-0.196-0.516-0.196c-0.383,0-0.686,0.295-0.686,0.684
		c0,0.406,0.289,0.692,0.701,0.692c0.176,0,0.369-0.071,0.5-0.193l0.254,0.704c-0.312,0.24-0.713,0.3-0.955,0.3
		c-0.834,0-1.531-0.619-1.531-1.468c0-0.907,0.693-1.529,1.574-1.529c0.23,0,0.672,0.101,0.918,0.313L47.293,33.098z"/>
</g>
</svg>
