<?xml version="1.0" encoding="utf-8"?>
<!-- Generator: Adobe Illustrator 16.0.0, SVG Export Plug-In . SVG Version: 6.00 Build 0)  -->
<!DOCTYPE svg PUBLIC "-//W3C//DTD SVG 1.1//EN" "http://www.w3.org/Graphics/SVG/1.1/DTD/svg11.dtd">
<svg version="1.1" xmlns="http://www.w3.org/2000/svg" xmlns:xlink="http://www.w3.org/1999/xlink" x="0px" y="0px" width="164px"
	 height="184px" viewBox="32.5 145 164 184" enable-background="new 32.5 145 164 184" xml:space="preserve">
<g id="dial">
	<path fill="#A6A8AB" d="M158.709,178.055H70.29c-3.952,0-7.155,3.203-7.155,7.153v99.272c0,3.951,3.203,7.154,7.155,7.154h88.419
		c3.951,0,7.156-3.203,7.156-7.154v-99.272C165.865,181.258,162.66,178.055,158.709,178.055z M114.5,251.823
		c-8.187,0-14.823-6.637-14.823-14.823c0-8.186,6.637-14.822,14.823-14.822c8.186,0,14.822,6.637,14.822,14.822
		C129.322,245.187,122.686,251.823,114.5,251.823z M135.955,237c0-11.849-9.605-21.454-21.455-21.454
		c-11.849,0-21.454,9.605-21.454,21.454H72.223c0-23.349,18.928-42.276,42.277-42.276c23.35,0,42.277,18.928,42.277,42.276H135.955z
		"/>
	<path opacity="0.17" fill="#231F20" d="M145.543,237h11.234c0-23.349-18.928-42.276-42.277-42.276
		C114.5,194.724,142.932,197.892,145.543,237z"/>
	<path fill="#8B8C8F" d="M72.223,237c0-11.193,4.358-21.363,11.46-28.927l-6.616-30.019h-7.033c-3.952,0-7.155,3.203-7.155,7.153
		v99.272c0,3.951,3.203,7.154,7.155,7.154h32.066L90.059,237H72.223z"/>
	<circle fill="#7A7C7E" stroke="#6B6C6E" stroke-width="0.5" stroke-miterlimit="10" cx="74.747" cy="189.785" r="6.059"/>
	<circle fill="#929497" stroke="#808184" stroke-width="0.5" stroke-miterlimit="10" cx="153.999" cy="189.785" r="6.06"/>
	<circle fill="#7A7C7E" stroke="#6B6C6E" stroke-width="0.5" stroke-miterlimit="10" cx="74.747" cy="278.646" r="6.059"/>
	<circle fill="#929497" stroke="#808184" stroke-width="0.5" stroke-miterlimit="10" cx="153.999" cy="278.646" r="6.06"/>
	<path fill="#929497" d="M142.113,288.439H86.638c-0.883,0-1.599-0.716-1.599-1.599s0.716-1.599,1.599-1.599h55.476
		c0.883,0,1.599,0.716,1.599,1.599S142.996,288.439,142.113,288.439z"/>
	<path fill="#929497" d="M142.113,288.439H86.638c-0.883,0-1.599-0.716-1.599-1.599s0.716-1.599,1.599-1.599h55.476
		c0.883,0,1.599,0.716,1.599,1.599S142.996,288.439,142.113,288.439z"/>
	<path fill="#7A7C7E" d="M100.691,285.242H86.638c-0.883,0-1.599,0.716-1.599,1.599s0.716,1.599,1.599,1.599h14.759L100.691,285.242
		z"/>
</g>
<g id="sparkles">
	<g>
		<polygon fill="#F1F1F2" points="169.574,160.016 169.58,173.17 174.42,162.439 173.422,175.961 195.014,169.707 174.889,180.476 
			195.014,189.249 173.422,184.991 177.436,193.118 169.58,187.782 167.959,208.206 164.832,187.782 159.076,196.402 
			160.992,184.991 144.137,189.249 159.525,180.476 145.508,173.854 160.992,175.961 149.385,147.902 164.832,173.17 		"/>
		<polygon fill="#F1F1F2" points="118.855,179.066 124.8,177.637 119.424,176.613 125.645,175.596 120.473,166.516 127.525,174.443 
			129.305,164.394 129.726,174.615 132.962,171.919 131.404,176.05 140.811,174.564 131.92,178.194 136.441,179.859 
			131.076,180.233 134.83,187.39 129.194,181.387 127.725,188.441 126.994,181.213 115.572,189.508 125.314,179.781 		"/>
	</g>
</g>
</svg>
