<?xml version="1.0" encoding="utf-8"?>
<!-- Generator: Adobe Illustrator 15.0.0, SVG Export Plug-In . SVG Version: 6.00 Build 0)  -->
<!DOCTYPE svg PUBLIC "-//W3C//DTD SVG 1.1//EN" "http://www.w3.org/Graphics/SVG/1.1/DTD/svg11.dtd">
<svg version="1.1" id="Layer_1" xmlns="http://www.w3.org/2000/svg" xmlns:xlink="http://www.w3.org/1999/xlink" x="0px" y="0px"
	 width="550px" height="460px" viewBox="0 -59.5 550 460" enable-background="new 0 -59.5 550 460" xml:space="preserve">
<polygon fill="#00AEEF" points="4.5,-59.5 550,-60.406 549.962,400.5 0.039,400.5 "/>
<polygon fill="#006838" points="445.408,-60.406 480.899,78.876 478.054,89.852 480.899,101.234 495.94,101.234 495.94,114.648 
	486.997,125.727 475.615,147.981 467.891,165.055 478.867,172.777 471.143,186.6 457.729,175.624 444.523,175.624 442.688,163.835 
	437.81,167.087 444.523,181.314 451.631,190.664 451.631,201.691 431.306,211.167 419.387,201.691 399.191,198.389 381.712,211.167 
	370.331,223.998 347.29,229.688 313.6,211.167 273.989,204.893 262.2,217.889 238.623,213.021 226.834,211.167 226.834,219.525 
	240.655,217.889 253.664,223.998 262.606,225.624 275.615,215.868 291.875,217.889 307,222.372 318.703,233.157 328.23,242.916 
	351.225,238.227 367.484,235.38 380.493,233.157 401.631,219.934 419.387,223.186 428.867,240.258 440.249,236.193 452.85,217.889 
	466.265,211.167 470.737,201.691 474.395,204.486 471.957,231.314 464.233,247.575 468.297,274.811 457.729,279.282 
	453.371,291.329 445.647,294.988 444.523,400.5 0.039,400.5 0.039,-60.406 "/>
<polygon fill="#939598" points="467.891,70.392 480.899,78.755 478.054,89.73 480.899,101.113 495.94,101.113 495.94,114.527 
	486.997,125.606 475.615,147.86 467.891,164.934 478.867,172.657 471.143,186.479 457.729,175.503 444.523,175.503 442.688,163.714 
	437.81,166.966 444.523,181.193 451.631,190.543 451.631,201.57 431.306,211.046 419.387,201.57 399.191,198.268 381.712,211.046 
	370.331,223.877 347.29,229.566 313.6,211.046 273.989,204.771 262.201,217.768 238.623,212.9 226.834,211.046 226.834,219.404 
	240.655,217.768 253.664,223.877 262.607,225.503 275.615,215.747 291.875,217.768 307,222.251 318.703,233.036 328.23,242.795 
	351.225,238.104 367.484,235.259 380.493,233.036 401.631,219.812 419.387,223.062 428.867,240.137 440.249,236.072 452.85,217.768 
	466.265,211.046 470.737,201.57 474.395,204.365 471.957,231.193 464.233,247.454 468.297,274.689 457.729,279.161 453.371,291.208 
	445.647,294.867 444.523,303.402 415.973,303.402 397.273,286.045 368.958,281.031 368.005,268.973 351.745,265.721 344.021,272.63 
	333.875,268.372 321.257,255.15 297.954,246.952 226.542,246.952 214.56,213.76 217.192,191.32 207.842,170 187.534,138.891 
	197.656,113.675 219.224,127.507 242.872,124.78 285.891,149.053 316.199,153.931 335.484,159.643 350.119,150.679 365.085,111.655 
	393.208,114.093 407.029,105.963 431.419,106.37 451.479,86.582 457.208,80.93 "/>
<g>
	<rect x="349.451" y="187.525" fill="#808285" width="6.195" height="6.195"/>
	<rect x="349.451" y="194.723" fill="#808285" width="6.195" height="6.194"/>
	<rect x="349.451" y="180.331" fill="#808285" width="6.195" height="6.194"/>
	<rect x="349.451" y="165.94" fill="#808285" width="6.195" height="6.195"/>
	<rect x="349.451" y="173.137" fill="#808285" width="6.195" height="6.194"/>
	<rect x="349.451" y="209.111" fill="#808285" width="6.195" height="6.195"/>
	<rect x="342.255" y="158.745" fill="#808285" width="6.195" height="6.195"/>
	<rect x="349.451" y="158.745" fill="#808285" width="6.195" height="6.195"/>
	<rect x="349.451" y="216.309" fill="#808285" width="6.195" height="6.194"/>
	<polygon fill="#808285" points="349.451,228.857 355.646,227.328 355.646,223.503 349.451,223.503 	"/>
	<rect x="349.451" y="201.917" fill="#808285" width="6.195" height="6.194"/>
	<rect x="356.646" y="158.745" fill="#808285" width="6.191" height="6.195"/>
	<rect x="356.646" y="187.525" fill="#808285" width="6.191" height="6.195"/>
	<rect x="356.646" y="173.137" fill="#808285" width="6.191" height="6.194"/>
	<rect x="356.646" y="180.331" fill="#808285" width="6.191" height="6.194"/>
	<rect x="356.646" y="165.94" fill="#808285" width="6.191" height="6.195"/>
	<rect x="356.646" y="151.55" fill="#808285" width="6.191" height="6.195"/>
	<rect x="342.255" y="165.94" fill="#808285" width="6.195" height="6.195"/>
	<rect x="356.646" y="201.917" fill="#808285" width="6.191" height="6.194"/>
	<rect x="356.646" y="194.723" fill="#808285" width="6.191" height="6.194"/>
	<rect x="356.646" y="144.354" fill="#808285" width="6.191" height="6.195"/>
	<rect x="356.646" y="216.309" fill="#808285" width="6.191" height="6.194"/>
	<rect x="349.451" y="151.55" fill="#808285" width="6.195" height="6.195"/>
	<rect x="356.646" y="209.111" fill="#808285" width="6.191" height="6.195"/>
	<polygon fill="#808285" points="356.646,227.081 362.841,225.552 362.841,223.503 356.646,223.503 	"/>
	<polygon fill="#808285" points="341.255,223.503 336.579,223.503 341.255,226.074 	"/>
	<rect x="342.255" y="173.137" fill="#808285" width="6.195" height="6.194"/>
	<rect x="335.061" y="194.723" fill="#808285" width="6.194" height="6.194"/>
	<rect x="335.061" y="201.917" fill="#808285" width="6.194" height="6.194"/>
	<rect x="327.865" y="173.137" fill="#808285" width="6.193" height="6.194"/>
	<rect x="335.061" y="209.111" fill="#808285" width="6.194" height="6.195"/>
	<rect x="327.865" y="165.94" fill="#808285" width="6.193" height="6.195"/>
	<rect x="327.865" y="209.111" fill="#808285" width="6.193" height="6.195"/>
	<rect x="327.865" y="201.917" fill="#808285" width="6.193" height="6.194"/>
	<rect x="327.865" y="194.723" fill="#808285" width="6.193" height="6.194"/>
	<rect x="327.865" y="180.331" fill="#808285" width="6.193" height="6.194"/>
	<rect x="327.865" y="187.525" fill="#808285" width="6.193" height="6.195"/>
	<rect x="335.061" y="216.309" fill="#808285" width="6.194" height="6.194"/>
	<rect x="342.255" y="201.917" fill="#808285" width="6.195" height="6.194"/>
	<rect x="342.255" y="209.111" fill="#808285" width="6.195" height="6.195"/>
	<rect x="342.255" y="194.723" fill="#808285" width="6.195" height="6.194"/>
	<rect x="335.061" y="187.525" fill="#808285" width="6.194" height="6.195"/>
	<rect x="342.255" y="180.331" fill="#808285" width="6.195" height="6.194"/>
	<rect x="342.255" y="187.525" fill="#808285" width="6.195" height="6.195"/>
	<rect x="335.061" y="180.331" fill="#808285" width="6.194" height="6.194"/>
	<rect x="335.061" y="173.137" fill="#808285" width="6.194" height="6.194"/>
	<rect x="335.061" y="165.94" fill="#808285" width="6.194" height="6.195"/>
	<polygon fill="#808285" points="342.255,226.624 347.29,229.393 348.451,229.104 348.451,223.503 342.255,223.503 	"/>
	<rect x="342.255" y="216.309" fill="#808285" width="6.195" height="6.194"/>
	<rect x="371.037" y="187.525" fill="#808285" width="6.195" height="6.195"/>
	<polygon fill="#808285" points="378.232,214.794 381.712,210.87 384.118,209.111 378.232,209.111 	"/>
	<rect x="378.232" y="165.94" fill="#808285" width="6.191" height="6.195"/>
	<rect x="378.232" y="187.525" fill="#808285" width="6.191" height="6.195"/>
	<rect x="378.232" y="194.723" fill="#808285" width="6.191" height="6.194"/>
	<rect x="378.232" y="180.331" fill="#808285" width="6.191" height="6.194"/>
	<rect x="378.232" y="173.137" fill="#808285" width="6.191" height="6.194"/>
	<rect x="378.232" y="201.917" fill="#808285" width="6.191" height="6.194"/>
	<rect x="371.037" y="144.354" fill="#808285" width="6.195" height="6.195"/>
	<rect x="371.037" y="137.159" fill="#808285" width="6.195" height="6.195"/>
	<rect x="371.037" y="115.573" fill="#808285" width="6.195" height="6.195"/>
	<rect x="371.037" y="129.964" fill="#808285" width="6.195" height="6.195"/>
	<rect x="371.037" y="122.769" fill="#808285" width="6.195" height="6.195"/>
	<rect x="378.232" y="115.573" fill="#808285" width="6.191" height="6.195"/>
	<rect x="385.427" y="194.723" fill="#808285" width="6.195" height="6.194"/>
	<rect x="385.427" y="187.525" fill="#808285" width="6.195" height="6.195"/>
	<rect x="378.232" y="158.745" fill="#808285" width="6.191" height="6.195"/>
	<rect x="371.037" y="158.745" fill="#808285" width="6.195" height="6.195"/>
	<rect x="385.427" y="180.331" fill="#808285" width="6.195" height="6.194"/>
	<rect x="385.427" y="173.137" fill="#808285" width="6.195" height="6.194"/>
	<rect x="378.232" y="144.354" fill="#808285" width="6.191" height="6.195"/>
	<rect x="378.232" y="151.55" fill="#808285" width="6.191" height="6.195"/>
	<rect x="378.232" y="122.769" fill="#808285" width="6.191" height="6.195"/>
	<rect x="378.232" y="137.159" fill="#808285" width="6.191" height="6.195"/>
	<rect x="378.232" y="129.964" fill="#808285" width="6.191" height="6.195"/>
	<rect x="363.841" y="173.137" fill="#808285" width="6.195" height="6.194"/>
	<rect x="356.646" y="137.159" fill="#808285" width="6.191" height="6.195"/>
	<rect x="363.841" y="180.331" fill="#808285" width="6.195" height="6.194"/>
	<rect x="371.037" y="165.94" fill="#808285" width="6.195" height="6.195"/>
	<rect x="363.841" y="187.525" fill="#808285" width="6.195" height="6.195"/>
	<rect x="363.841" y="165.94" fill="#808285" width="6.195" height="6.195"/>
	<polygon fill="#808285" points="363.841,225.305 370.037,223.773 370.037,223.503 363.841,223.503 	"/>
	<rect x="363.841" y="216.309" fill="#808285" width="6.195" height="6.194"/>
	<rect x="363.841" y="151.55" fill="#808285" width="6.195" height="6.195"/>
	<rect x="363.841" y="209.111" fill="#808285" width="6.195" height="6.195"/>
	<rect x="363.841" y="201.917" fill="#808285" width="6.195" height="6.194"/>
	<rect x="363.841" y="194.723" fill="#808285" width="6.195" height="6.194"/>
	<rect x="363.841" y="158.745" fill="#808285" width="6.195" height="6.195"/>
	<rect x="371.037" y="201.917" fill="#808285" width="6.195" height="6.194"/>
	<rect x="371.037" y="194.723" fill="#808285" width="6.195" height="6.194"/>
	<polygon fill="#808285" points="327.865,218.713 334.061,222.118 334.061,216.309 327.865,216.309 	"/>
	<rect x="371.037" y="180.331" fill="#808285" width="6.195" height="6.194"/>
	<rect x="371.037" y="173.137" fill="#808285" width="6.195" height="6.194"/>
	<rect x="371.037" y="209.111" fill="#808285" width="6.195" height="6.195"/>
	<rect x="363.841" y="137.159" fill="#808285" width="6.195" height="6.195"/>
	<rect x="363.841" y="129.964" fill="#808285" width="6.195" height="6.195"/>
	<rect x="363.841" y="122.769" fill="#808285" width="6.195" height="6.195"/>
	<rect x="363.841" y="115.573" fill="#808285" width="6.195" height="6.195"/>
	<rect x="363.841" y="144.354" fill="#808285" width="6.195" height="6.195"/>
	<rect x="306.279" y="180.331" fill="#808285" width="6.193" height="6.194"/>
	<rect x="263.107" y="144.354" fill="#808285" width="6.195" height="6.195"/>
	<rect x="270.302" y="194.723" fill="#808285" width="6.195" height="6.194"/>
	<rect x="277.498" y="151.55" fill="#808285" width="6.195" height="6.195"/>
	<rect x="263.107" y="151.55" fill="#808285" width="6.195" height="6.195"/>
	<rect x="270.302" y="180.331" fill="#808285" width="6.195" height="6.194"/>
	<rect x="270.302" y="187.525" fill="#808285" width="6.195" height="6.195"/>
	<rect x="263.107" y="165.94" fill="#808285" width="6.195" height="6.195"/>
	<rect x="263.107" y="187.525" fill="#808285" width="6.195" height="6.195"/>
	<rect x="263.107" y="194.723" fill="#808285" width="6.195" height="6.194"/>
	<rect x="270.302" y="173.137" fill="#808285" width="6.195" height="6.194"/>
	<rect x="263.107" y="201.917" fill="#808285" width="6.195" height="6.194"/>
	<rect x="263.107" y="180.331" fill="#808285" width="6.195" height="6.194"/>
	<rect x="263.107" y="173.137" fill="#808285" width="6.195" height="6.194"/>
	<rect x="277.498" y="173.137" fill="#808285" width="6.195" height="6.194"/>
	<rect x="270.302" y="165.94" fill="#808285" width="6.195" height="6.195"/>
	<rect x="277.498" y="165.94" fill="#808285" width="6.195" height="6.195"/>
	<rect x="277.498" y="158.745" fill="#808285" width="6.195" height="6.195"/>
	<rect x="277.498" y="187.525" fill="#808285" width="6.195" height="6.195"/>
	<rect x="277.498" y="180.331" fill="#808285" width="6.195" height="6.194"/>
	<rect x="270.302" y="158.745" fill="#808285" width="6.195" height="6.195"/>
	<rect x="270.302" y="151.55" fill="#808285" width="6.195" height="6.195"/>
	<rect x="277.498" y="194.723" fill="#808285" width="6.195" height="6.194"/>
	<polygon fill="#808285" points="277.498,205.152 283.693,206.134 283.693,201.917 277.498,201.917 	"/>
	<rect x="270.302" y="144.354" fill="#808285" width="6.195" height="6.195"/>
	<rect x="263.107" y="158.745" fill="#808285" width="6.195" height="6.195"/>
	<rect x="248.716" y="151.55" fill="#808285" width="6.195" height="6.195"/>
	<rect x="248.716" y="158.745" fill="#808285" width="6.195" height="6.195"/>
	<rect x="248.716" y="144.354" fill="#808285" width="6.195" height="6.195"/>
	<rect x="248.716" y="137.159" fill="#808285" width="6.195" height="6.195"/>
	<polygon fill="#808285" points="262.107,216.309 255.982,216.309 262.107,217.57 	"/>
	<rect x="248.716" y="165.94" fill="#808285" width="6.195" height="6.195"/>
	<polygon fill="#808285" points="323.49,216.309 326.865,218.163 326.865,216.309 	"/>
	<rect x="248.716" y="201.917" fill="#808285" width="6.195" height="6.194"/>
	<rect x="248.716" y="194.723" fill="#808285" width="6.195" height="6.194"/>
	<rect x="248.716" y="173.137" fill="#808285" width="6.195" height="6.194"/>
	<rect x="248.716" y="180.331" fill="#808285" width="6.195" height="6.194"/>
	<rect x="255.912" y="209.111" fill="#808285" width="6.195" height="6.195"/>
	<rect x="255.912" y="144.354" fill="#808285" width="6.195" height="6.195"/>
	<rect x="255.912" y="158.745" fill="#808285" width="6.195" height="6.195"/>
	<polygon fill="#808285" points="263.107,215.309 264.272,215.309 269.302,209.764 269.302,209.111 263.107,209.111 	"/>
	<rect x="255.912" y="151.55" fill="#808285" width="6.195" height="6.195"/>
	<rect x="255.912" y="201.917" fill="#808285" width="6.195" height="6.194"/>
	<rect x="255.912" y="137.159" fill="#808285" width="6.195" height="6.195"/>
	<polygon fill="#808285" points="263.107,216.592 263.365,216.309 263.107,216.309 	"/>
	<rect x="255.912" y="194.723" fill="#808285" width="6.195" height="6.194"/>
	<rect x="255.912" y="165.94" fill="#808285" width="6.195" height="6.195"/>
	<rect x="255.912" y="187.525" fill="#808285" width="6.195" height="6.195"/>
	<rect x="255.912" y="180.331" fill="#808285" width="6.195" height="6.194"/>
	<rect x="255.912" y="173.137" fill="#808285" width="6.195" height="6.194"/>
	<rect x="248.716" y="187.525" fill="#808285" width="6.195" height="6.195"/>
	<polygon fill="#808285" points="313.475,210.852 313.6,210.87 319.669,214.207 319.669,209.111 313.475,209.111 	"/>
	<rect x="313.475" y="201.917" fill="#808285" width="6.194" height="6.194"/>
	<rect x="306.279" y="158.745" fill="#808285" width="6.193" height="6.195"/>
	<polygon fill="#808285" points="306.279,209.711 312.475,210.691 312.475,209.111 306.279,209.111 	"/>
	<rect x="313.475" y="187.525" fill="#808285" width="6.194" height="6.195"/>
	<rect x="313.475" y="180.331" fill="#808285" width="6.194" height="6.194"/>
	<rect x="313.475" y="194.723" fill="#808285" width="6.194" height="6.194"/>
	<rect x="306.279" y="201.917" fill="#808285" width="6.193" height="6.194"/>
	<rect x="306.279" y="194.723" fill="#808285" width="6.193" height="6.194"/>
	<rect x="306.279" y="187.525" fill="#808285" width="6.193" height="6.195"/>
	<rect x="306.279" y="173.137" fill="#808285" width="6.193" height="6.194"/>
	<rect x="385.427" y="165.94" fill="#808285" width="6.195" height="6.195"/>
	<rect x="306.279" y="165.94" fill="#808285" width="6.193" height="6.195"/>
	<rect x="320.669" y="180.331" fill="#808285" width="6.195" height="6.194"/>
	<rect x="320.669" y="173.137" fill="#808285" width="6.195" height="6.194"/>
	<rect x="320.669" y="165.94" fill="#808285" width="6.195" height="6.195"/>
	<rect x="320.669" y="158.745" fill="#808285" width="6.195" height="6.195"/>
	<rect x="320.669" y="187.525" fill="#808285" width="6.195" height="6.195"/>
	<rect x="320.669" y="201.917" fill="#808285" width="6.195" height="6.194"/>
	<rect x="313.475" y="165.94" fill="#808285" width="6.194" height="6.195"/>
	<rect x="313.475" y="158.745" fill="#808285" width="6.194" height="6.195"/>
	<rect x="313.475" y="173.137" fill="#808285" width="6.194" height="6.194"/>
	<polygon fill="#808285" points="320.669,214.757 321.67,215.309 326.865,215.309 326.865,209.111 320.669,209.111 	"/>
	<rect x="320.669" y="194.723" fill="#808285" width="6.195" height="6.194"/>
	<polygon fill="#808285" points="291.889,207.432 296.186,208.111 298.083,208.111 298.083,201.917 291.889,201.917 	"/>
	<rect x="284.693" y="158.745" fill="#808285" width="6.195" height="6.195"/>
	<rect x="284.693" y="151.55" fill="#808285" width="6.195" height="6.195"/>
	<polygon fill="#808285" points="284.693,206.292 290.889,207.273 290.889,201.917 284.693,201.917 	"/>
	<rect x="291.889" y="187.525" fill="#808285" width="6.194" height="6.195"/>
	<rect x="291.889" y="194.723" fill="#808285" width="6.194" height="6.194"/>
	<rect x="284.693" y="165.94" fill="#808285" width="6.195" height="6.195"/>
	<rect x="284.693" y="194.723" fill="#808285" width="6.195" height="6.194"/>
	<rect x="284.693" y="187.525" fill="#808285" width="6.195" height="6.195"/>
	<rect x="291.889" y="180.331" fill="#808285" width="6.194" height="6.194"/>
	<rect x="284.693" y="173.137" fill="#808285" width="6.195" height="6.194"/>
	<rect x="284.693" y="180.331" fill="#808285" width="6.195" height="6.194"/>
	<rect x="291.889" y="151.55" fill="#808285" width="6.194" height="6.195"/>
	<rect x="299.083" y="187.525" fill="#808285" width="6.194" height="6.195"/>
	<rect x="299.083" y="180.331" fill="#808285" width="6.194" height="6.194"/>
	<rect x="299.083" y="165.94" fill="#808285" width="6.194" height="6.195"/>
	<rect x="299.083" y="173.137" fill="#808285" width="6.194" height="6.194"/>
	<rect x="299.083" y="194.723" fill="#808285" width="6.194" height="6.194"/>
	<rect x="291.889" y="158.745" fill="#808285" width="6.194" height="6.195"/>
	<rect x="291.889" y="173.137" fill="#808285" width="6.194" height="6.194"/>
	<rect x="291.889" y="165.94" fill="#808285" width="6.194" height="6.195"/>
	<rect x="299.083" y="201.917" fill="#808285" width="6.194" height="6.194"/>
	<rect x="299.083" y="158.745" fill="#808285" width="6.194" height="6.195"/>
	<polygon fill="#808285" points="305.279,209.111 302.5,209.111 305.279,209.553 	"/>
	<polygon fill="#808285" points="464.576,252.284 464.576,258.479 465.905,258.479 464.98,252.284 	"/>
	<polygon fill="#808285" points="464.576,164.94 468.149,164.94 467.891,164.759 470.612,158.745 464.576,158.745 	"/>
	<rect x="450.185" y="101.183" fill="#808285" width="6.195" height="6.195"/>
	<rect x="450.185" y="93.987" fill="#808285" width="6.195" height="6.195"/>
	<polygon fill="#808285" points="457.38,175.327 457.729,175.327 462.622,179.331 463.576,179.331 463.576,173.137 457.38,173.137 	
		"/>
	<rect x="457.38" y="158.745" fill="#808285" width="6.195" height="6.195"/>
	<rect x="457.38" y="151.55" fill="#808285" width="6.195" height="6.195"/>
	<rect x="457.38" y="165.94" fill="#808285" width="6.195" height="6.195"/>
	<rect x="450.185" y="108.378" fill="#808285" width="6.195" height="6.195"/>
	<rect x="450.185" y="129.964" fill="#808285" width="6.195" height="6.195"/>
	<rect x="450.185" y="137.159" fill="#808285" width="6.195" height="6.195"/>
	<rect x="450.185" y="115.573" fill="#808285" width="6.195" height="6.195"/>
	<rect x="450.185" y="122.769" fill="#808285" width="6.195" height="6.195"/>
	<rect x="457.38" y="86.792" fill="#808285" width="6.195" height="6.195"/>
	<rect x="450.185" y="144.354" fill="#808285" width="6.195" height="6.195"/>
	<polygon fill="#808285" points="464.576,180.93 470.771,185.999 470.771,180.331 464.576,180.331 	"/>
	<polygon fill="#808285" points="464.576,172.137 470.771,172.137 470.771,166.785 469.571,165.94 464.576,165.94 	"/>
	<rect x="464.576" y="173.137" fill="#808285" width="6.195" height="6.194"/>
	<rect x="457.38" y="93.987" fill="#808285" width="6.195" height="6.195"/>
	<rect x="457.38" y="137.159" fill="#808285" width="6.195" height="6.195"/>
	<rect x="457.38" y="129.964" fill="#808285" width="6.195" height="6.195"/>
	<rect x="457.38" y="122.769" fill="#808285" width="6.195" height="6.195"/>
	<rect x="457.38" y="115.573" fill="#808285" width="6.195" height="6.195"/>
	<rect x="457.38" y="101.183" fill="#808285" width="6.195" height="6.195"/>
	<rect x="457.38" y="108.378" fill="#808285" width="6.195" height="6.195"/>
	<rect x="457.38" y="144.354" fill="#808285" width="6.195" height="6.195"/>
	<rect x="442.99" y="122.769" fill="#808285" width="6.191" height="6.195"/>
	<rect x="442.99" y="129.964" fill="#808285" width="6.191" height="6.195"/>
	<polygon fill="#808285" points="444.182,173.137 444.523,175.327 449.185,175.327 449.185,173.137 	"/>
	<rect x="442.99" y="115.573" fill="#808285" width="6.191" height="6.195"/>
	<rect x="442.99" y="108.378" fill="#808285" width="6.191" height="6.195"/>
	<rect x="442.99" y="101.183" fill="#808285" width="6.191" height="6.195"/>
	<rect x="442.99" y="137.159" fill="#808285" width="6.191" height="6.195"/>
	<rect x="435.794" y="115.573" fill="#808285" width="6.195" height="6.195"/>
	<rect x="442.99" y="144.354" fill="#808285" width="6.191" height="6.195"/>
	<rect x="435.794" y="108.378" fill="#808285" width="6.195" height="6.195"/>
	<rect x="442.99" y="158.745" fill="#808285" width="6.191" height="6.195"/>
	<rect x="442.99" y="151.55" fill="#808285" width="6.191" height="6.195"/>
	<polygon fill="#808285" points="442.99,201.917 442.99,205.424 449.185,202.536 449.185,201.917 	"/>
	<polygon fill="#808285" points="443.727,179.331 442.99,177.77 442.99,179.331 	"/>
	<rect x="450.185" y="173.137" fill="#808285" width="6.195" height="2.19"/>
	<rect x="450.185" y="151.55" fill="#808285" width="6.195" height="6.195"/>
	<polygon fill="#808285" points="450.185,188.466 450.185,193.723 451.631,193.723 451.631,190.368 	"/>
	<rect x="450.185" y="158.745" fill="#808285" width="6.195" height="6.195"/>
	<rect x="450.185" y="165.94" fill="#808285" width="6.195" height="6.195"/>
	<polygon fill="#808285" points="450.185,201.917 450.185,202.068 450.512,201.917 	"/>
	<rect x="450.185" y="194.723" fill="#808285" width="1.446" height="6.194"/>
	<polygon fill="#808285" points="444.199,180.331 442.99,180.331 442.99,186.525 448.71,186.525 444.523,181.02 	"/>
	<rect x="442.99" y="187.525" fill="#808285" width="6.191" height="6.195"/>
	<rect x="442.99" y="194.723" fill="#808285" width="6.191" height="6.194"/>
	<polygon fill="#808285" points="449.185,172.137 449.185,165.94 443.062,165.94 444.026,172.137 	"/>
	<rect x="471.771" y="108.378" fill="#808285" width="6.191" height="6.195"/>
	<rect x="471.771" y="115.573" fill="#808285" width="6.191" height="6.195"/>
	<rect x="471.771" y="101.183" fill="#808285" width="6.191" height="6.195"/>
	<rect x="471.771" y="129.964" fill="#808285" width="6.191" height="6.195"/>
	<rect x="471.771" y="122.769" fill="#808285" width="6.191" height="6.195"/>
	<rect x="471.771" y="93.987" fill="#808285" width="6.191" height="6.195"/>
	<polygon fill="#808285" points="464.576,259.479 464.576,265.675 466.978,265.675 466.053,259.479 	"/>
	<rect x="471.771" y="86.792" fill="#808285" width="6.191" height="6.195"/>
	<polygon fill="#808285" points="477.966,78.597 477.966,76.694 471.771,72.711 471.771,78.597 	"/>
	<polygon fill="#808285" points="248.716,214.809 251.135,215.309 254.912,215.309 254.912,209.111 248.716,209.111 	"/>
	<rect x="471.771" y="79.597" fill="#808285" width="6.191" height="6.195"/>
	<polygon fill="#808285" points="467.127,266.675 464.576,266.675 464.576,272.87 468.052,272.87 	"/>
	<polygon fill="#808285" points="464.576,251.284 464.831,251.284 464.576,249.575 	"/>
	<polygon fill="#808285" points="478.966,79.597 478.966,85.792 479.03,85.792 480.635,79.597 	"/>
	<rect x="486.162" y="108.378" fill="#808285" width="6.195" height="6.195"/>
	<rect x="486.162" y="101.183" fill="#808285" width="6.195" height="6.195"/>
	<rect x="464.576" y="151.55" fill="#808285" width="6.195" height="6.195"/>
	<polygon fill="#808285" points="493.357,108.378 493.357,114.573 495.761,114.573 495.94,114.352 495.94,108.378 	"/>
	<polygon fill="#808285" points="480.895,78.597 480.899,78.58 478.966,77.337 478.966,78.597 	"/>
	<rect x="478.966" y="108.378" fill="#808285" width="6.195" height="6.195"/>
	<polygon fill="#808285" points="478.966,100.183 480.71,100.183 479.162,93.987 478.966,93.987 	"/>
	<rect x="478.966" y="101.183" fill="#808285" width="6.195" height="6.195"/>
	<rect x="478.966" y="122.769" fill="#808285" width="6.195" height="6.195"/>
	<rect x="478.966" y="115.573" fill="#808285" width="6.195" height="6.195"/>
	<rect x="493.357" y="101.183" fill="#808285" width="2.583" height="6.195"/>
	<rect x="464.576" y="93.987" fill="#808285" width="6.195" height="6.195"/>
	<rect x="464.576" y="86.792" fill="#808285" width="6.195" height="6.195"/>
	<polygon fill="#808285" points="471.771,156.182 473.866,151.55 471.771,151.55 	"/>
	<rect x="464.576" y="79.597" fill="#808285" width="6.195" height="6.195"/>
	<polygon fill="#808285" points="471.771,180.331 471.771,185.18 474.481,180.331 	"/>
	<rect x="464.576" y="108.378" fill="#808285" width="6.195" height="6.195"/>
	<polygon fill="#808285" points="464.576,246.557 465.273,245.089 464.576,245.089 	"/>
	<rect x="464.576" y="137.159" fill="#808285" width="6.195" height="6.195"/>
	<rect x="464.576" y="115.573" fill="#808285" width="6.195" height="6.195"/>
	<rect x="464.576" y="144.354" fill="#808285" width="6.195" height="6.195"/>
	<rect x="464.576" y="129.964" fill="#808285" width="6.195" height="6.195"/>
	<rect x="464.576" y="122.769" fill="#808285" width="6.195" height="6.195"/>
	<rect x="464.576" y="101.183" fill="#808285" width="6.195" height="6.195"/>
	<polygon fill="#808285" points="442.99,301.65 444.731,301.65 445.546,295.456 442.99,295.456 	"/>
	<polygon fill="#808285" points="441.99,201.917 435.794,201.917 435.794,208.111 437.222,208.111 441.99,205.891 	"/>
	<polygon fill="#808285" points="464.576,244.089 465.748,244.089 468.691,237.895 464.576,237.895 	"/>
	<polygon fill="#808285" points="428.599,239.479 428.599,244.089 434.794,244.089 434.794,237.895 434.659,237.895 
		428.867,239.962 	"/>
	<rect x="385.427" y="158.745" fill="#808285" width="6.195" height="6.195"/>
	<polygon fill="#808285" points="449.185,229.698 449.185,223.503 448.781,223.503 444.516,229.698 	"/>
	<polygon fill="#808285" points="391.623,201.917 385.427,201.917 385.427,208.111 385.484,208.111 391.623,203.626 	"/>
	<polygon fill="#808285" points="378.232,233.247 378.232,236.895 384.427,236.895 384.427,230.698 383.949,230.698 
		380.493,232.859 	"/>
	<polygon fill="#808285" points="371.037,216.309 371.037,222.503 371.395,222.503 376.889,216.309 	"/>
	<polygon fill="#808285" points="349.451,238.29 349.451,244.089 355.646,244.089 355.646,237.895 351.425,237.895 351.225,237.93 	
		"/>
	<polygon fill="#808285" points="276.498,204.994 276.498,201.917 270.302,201.917 270.302,208.111 270.799,208.111 
		273.989,204.598 	"/>
	<polygon fill="#808285" points="450.185,221.462 450.185,222.503 456.38,222.503 456.38,216.309 455.412,216.309 452.85,217.591 	
		"/>
	<rect x="407.014" y="187.525" fill="#808285" width="6.194" height="6.195"/>
	<polygon fill="#808285" points="407.014,199.372 413.208,200.385 413.208,194.723 407.014,194.723 	"/>
	<rect x="435.794" y="122.769" fill="#808285" width="6.195" height="6.195"/>
	<rect x="399.818" y="115.573" fill="#808285" width="6.191" height="6.195"/>
	<rect x="407.014" y="173.137" fill="#808285" width="6.194" height="6.194"/>
	<rect x="407.014" y="165.94" fill="#808285" width="6.194" height="6.195"/>
	<rect x="399.818" y="144.354" fill="#808285" width="6.191" height="6.195"/>
	<rect x="399.818" y="151.55" fill="#808285" width="6.191" height="6.195"/>
	<rect x="407.014" y="158.745" fill="#808285" width="6.194" height="6.195"/>
	<rect x="399.818" y="129.964" fill="#808285" width="6.191" height="6.195"/>
	<rect x="399.818" y="122.769" fill="#808285" width="6.191" height="6.195"/>
	<rect x="399.818" y="137.159" fill="#808285" width="6.191" height="6.195"/>
	<rect x="407.014" y="108.378" fill="#808285" width="6.194" height="6.195"/>
	<rect x="407.014" y="151.55" fill="#808285" width="6.194" height="6.195"/>
	<rect x="414.208" y="165.94" fill="#808285" width="6.194" height="6.195"/>
	<rect x="399.818" y="158.745" fill="#808285" width="6.191" height="6.195"/>
	<rect x="414.208" y="180.331" fill="#808285" width="6.194" height="6.194"/>
	<rect x="414.208" y="173.137" fill="#808285" width="6.194" height="6.194"/>
	<polygon fill="#808285" points="414.208,200.549 416.461,200.917 420.404,200.917 420.404,194.723 414.208,194.723 	"/>
	<rect x="407.014" y="144.354" fill="#808285" width="6.194" height="6.195"/>
	<rect x="407.014" y="115.573" fill="#808285" width="6.194" height="6.195"/>
	<rect x="407.014" y="137.159" fill="#808285" width="6.194" height="6.195"/>
	<rect x="407.014" y="122.769" fill="#808285" width="6.194" height="6.195"/>
	<rect x="407.014" y="129.964" fill="#808285" width="6.194" height="6.195"/>
	<rect x="414.208" y="187.525" fill="#808285" width="6.194" height="6.195"/>
	<polygon fill="#808285" points="392.623,200.917 395.329,200.917 398.818,198.366 398.818,194.723 392.623,194.723 	"/>
	<polygon fill="#808285" points="392.623,202.895 393.96,201.917 392.623,201.917 	"/>
	<rect x="392.623" y="187.525" fill="#808285" width="6.195" height="6.195"/>
	<rect x="385.427" y="115.573" fill="#808285" width="6.195" height="6.195"/>
	<rect x="392.623" y="180.331" fill="#808285" width="6.195" height="6.194"/>
	<rect x="392.623" y="173.137" fill="#808285" width="6.195" height="6.194"/>
	<rect x="385.427" y="137.159" fill="#808285" width="6.195" height="6.195"/>
	<rect x="385.427" y="144.354" fill="#808285" width="6.195" height="6.195"/>
	<rect x="385.427" y="122.769" fill="#808285" width="6.195" height="6.195"/>
	<rect x="385.427" y="151.55" fill="#808285" width="6.195" height="6.195"/>
	<rect x="392.623" y="165.94" fill="#808285" width="6.195" height="6.195"/>
	<rect x="385.427" y="129.964" fill="#808285" width="6.195" height="6.195"/>
	<rect x="399.818" y="165.94" fill="#808285" width="6.191" height="6.195"/>
	<rect x="392.623" y="115.573" fill="#808285" width="6.195" height="6.195"/>
	<rect x="399.818" y="187.525" fill="#808285" width="6.191" height="6.195"/>
	<polygon fill="#808285" points="399.818,198.195 406.014,199.208 406.014,194.723 399.818,194.723 	"/>
	<rect x="392.623" y="158.745" fill="#808285" width="6.195" height="6.195"/>
	<rect x="399.818" y="180.331" fill="#808285" width="6.191" height="6.194"/>
	<rect x="399.818" y="173.137" fill="#808285" width="6.191" height="6.194"/>
	<rect x="392.623" y="151.55" fill="#808285" width="6.195" height="6.195"/>
	<rect x="392.623" y="144.354" fill="#808285" width="6.195" height="6.195"/>
	<rect x="392.623" y="122.769" fill="#808285" width="6.195" height="6.195"/>
	<rect x="392.623" y="137.159" fill="#808285" width="6.195" height="6.195"/>
	<rect x="392.623" y="129.964" fill="#808285" width="6.195" height="6.195"/>
	<rect x="407.014" y="180.331" fill="#808285" width="6.194" height="6.194"/>
	<rect x="428.599" y="144.354" fill="#808285" width="6.195" height="6.195"/>
	<rect x="428.599" y="158.745" fill="#808285" width="6.195" height="6.195"/>
	<rect x="428.599" y="151.55" fill="#808285" width="6.195" height="6.195"/>
	<rect x="428.599" y="137.159" fill="#808285" width="6.195" height="6.195"/>
	<rect x="428.599" y="129.964" fill="#808285" width="6.195" height="6.195"/>
	<rect x="428.599" y="122.769" fill="#808285" width="6.195" height="6.195"/>
	<rect x="428.599" y="115.573" fill="#808285" width="6.195" height="6.195"/>
	<rect x="428.599" y="187.525" fill="#808285" width="6.195" height="6.195"/>
	<rect x="428.599" y="194.723" fill="#808285" width="6.195" height="6.194"/>
	<rect x="428.599" y="180.331" fill="#808285" width="6.195" height="6.194"/>
	<rect x="428.599" y="173.137" fill="#808285" width="6.195" height="6.194"/>
	<rect x="428.599" y="165.94" fill="#808285" width="6.195" height="6.195"/>
	<rect x="428.599" y="201.917" fill="#808285" width="6.195" height="6.194"/>
	<rect x="435.794" y="151.55" fill="#808285" width="6.195" height="6.195"/>
	<rect x="435.794" y="144.354" fill="#808285" width="6.195" height="6.195"/>
	<polygon fill="#808285" points="435.794,164.94 440.587,164.94 441.99,164.006 441.99,158.745 435.794,158.745 	"/>
	<rect x="435.794" y="137.159" fill="#808285" width="6.195" height="6.195"/>
	<rect x="435.794" y="129.964" fill="#808285" width="6.195" height="6.195"/>
	<polygon fill="#808285" points="435.794,172.137 440.332,172.137 437.81,166.792 439.087,165.94 435.794,165.94 	"/>
	<rect x="435.794" y="194.723" fill="#808285" width="6.195" height="6.194"/>
	<rect x="435.794" y="187.525" fill="#808285" width="6.195" height="6.195"/>
	<polygon fill="#808285" points="435.794,179.331 441.99,179.331 441.99,175.65 440.803,173.137 435.794,173.137 	"/>
	<rect x="428.599" y="108.378" fill="#808285" width="6.195" height="6.195"/>
	<rect x="435.794" y="180.331" fill="#808285" width="6.195" height="6.194"/>
	<polygon fill="#808285" points="421.404,202.999 427.599,207.923 427.599,201.917 421.404,201.917 	"/>
	<rect x="414.208" y="115.573" fill="#808285" width="6.194" height="6.195"/>
	<polygon fill="#808285" points="420.043,201.917 420.404,202.204 420.404,201.917 	"/>
	<rect x="414.208" y="108.378" fill="#808285" width="6.194" height="6.195"/>
	<polygon fill="#808285" points="434.794,209.244 434.794,209.111 429.095,209.111 431.306,210.87 	"/>
	<rect x="414.208" y="158.745" fill="#808285" width="6.194" height="6.195"/>
	<rect x="414.208" y="144.354" fill="#808285" width="6.194" height="6.195"/>
	<rect x="421.404" y="187.525" fill="#808285" width="6.191" height="6.195"/>
	<rect x="414.208" y="122.769" fill="#808285" width="6.194" height="6.195"/>
	<rect x="414.208" y="151.55" fill="#808285" width="6.194" height="6.195"/>
	<rect x="414.208" y="137.159" fill="#808285" width="6.194" height="6.195"/>
	<rect x="414.208" y="129.964" fill="#808285" width="6.194" height="6.195"/>
	<rect x="421.404" y="194.723" fill="#808285" width="6.191" height="6.194"/>
	<rect x="421.404" y="137.159" fill="#808285" width="6.191" height="6.195"/>
	<rect x="421.404" y="129.964" fill="#808285" width="6.191" height="6.195"/>
	<rect x="421.404" y="122.769" fill="#808285" width="6.191" height="6.195"/>
	<rect x="421.404" y="115.573" fill="#808285" width="6.191" height="6.195"/>
	<rect x="421.404" y="108.378" fill="#808285" width="6.191" height="6.195"/>
	<rect x="421.404" y="173.137" fill="#808285" width="6.191" height="6.194"/>
	<rect x="421.404" y="165.94" fill="#808285" width="6.191" height="6.195"/>
	<rect x="421.404" y="144.354" fill="#808285" width="6.191" height="6.195"/>
	<rect x="421.404" y="180.331" fill="#808285" width="6.191" height="6.194"/>
	<rect x="421.404" y="158.745" fill="#808285" width="6.191" height="6.195"/>
	<rect x="421.404" y="151.55" fill="#808285" width="6.191" height="6.195"/>
	<rect x="371.037" y="151.55" fill="#808285" width="6.195" height="6.195"/>
	<polygon fill="#808285" points="362.841,136.159 362.841,129.964 357.997,129.964 356.646,133.485 356.646,136.159 	"/>
	<polygon fill="#808285" points="355.646,144.354 352.477,144.354 350.119,150.505 350.045,150.55 355.646,150.55 	"/>
	<polygon fill="#808285" points="441.99,100.183 441.99,95.768 437.514,100.183 	"/>
	<polygon fill="#808285" points="355.646,136.159 355.646,136.093 355.621,136.159 	"/>
	<polygon fill="#808285" points="362.841,128.964 362.841,122.769 360.756,122.769 358.379,128.964 	"/>
	<polygon fill="#808285" points="362.841,121.769 362.841,117.331 361.139,121.769 	"/>
	<polygon fill="#808285" points="355.646,143.354 355.646,137.159 355.236,137.159 352.861,143.354 	"/>
	<polygon fill="#808285" points="327.865,158.745 327.865,164.94 334.061,164.94 334.061,159.046 333.044,158.745 	"/>
	<polygon fill="#808285" points="348.451,157.745 348.451,151.55 348.413,151.55 342.255,155.321 342.255,157.745 	"/>
	<polygon fill="#808285" points="329.667,157.745 327.865,157.211 327.865,157.745 	"/>
	<polygon fill="#808285" points="341.255,164.94 341.255,158.745 336.665,158.745 335.484,159.468 335.061,159.342 335.061,164.94 	
		"/>
	<polygon fill="#808285" points="341.255,157.745 341.255,155.934 338.297,157.745 	"/>
	<polygon fill="#808285" points="413.208,107.378 413.208,105.891 407.029,105.788 407.014,105.797 407.014,107.378 	"/>
	<polygon fill="#808285" points="420.404,107.378 420.404,106.012 414.208,105.908 414.208,107.378 	"/>
	<polygon fill="#808285" points="326.865,157.745 326.865,156.915 320.669,155.081 320.669,157.745 	"/>
	<polygon fill="#808285" points="427.599,107.378 427.599,106.131 421.404,106.027 421.404,107.378 	"/>
	<polygon fill="#808285" points="441.99,107.378 441.99,101.183 436.5,101.183 435.794,101.879 435.794,107.378 	"/>
	<polygon fill="#808285" points="434.794,107.378 434.794,102.865 431.419,106.195 428.599,106.148 428.599,107.378 	"/>
	<polygon fill="#808285" points="398.818,114.573 398.818,110.618 393.208,113.918 392.623,113.867 392.623,114.573 	"/>
	<polygon fill="#808285" points="406.014,107.378 406.014,106.386 404.327,107.378 	"/>
	<polygon fill="#808285" points="391.623,114.573 391.623,113.78 385.427,113.243 385.427,114.573 	"/>
	<polygon fill="#808285" points="384.427,114.573 384.427,113.156 378.232,112.619 378.232,114.573 	"/>
	<polygon fill="#808285" points="377.232,114.573 377.232,112.533 371.037,111.996 371.037,114.573 	"/>
	<polygon fill="#808285" points="406.014,114.573 406.014,108.378 402.626,108.378 399.818,110.029 399.818,114.573 	"/>
	<polygon fill="#808285" points="370.037,111.908 365.085,111.479 363.898,114.573 370.037,114.573 	"/>
	<polygon fill="#808285" points="226.13,128.964 226.13,126.535 219.935,127.25 219.935,128.964 	"/>
	<polygon fill="#808285" points="247.716,128.964 247.716,127.338 242.872,124.604 241.521,124.761 241.521,128.964 	"/>
	<polygon fill="#808285" points="226.13,244.089 226.13,237.895 223.334,237.895 225.572,244.089 	"/>
	<polygon fill="#808285" points="240.521,128.964 240.521,124.876 234.326,125.59 234.326,128.964 	"/>
	<polygon fill="#808285" points="233.326,128.964 233.326,125.705 227.13,126.42 227.13,128.964 	"/>
	<polygon fill="#808285" points="225.932,245.089 226.13,245.639 226.13,245.089 	"/>
	<polygon fill="#808285" points="226.13,230.698 220.738,230.698 222.974,236.895 226.13,236.895 	"/>
	<rect x="219.935" y="158.745" fill="#808285" width="6.195" height="6.195"/>
	<rect x="219.935" y="151.55" fill="#808285" width="6.195" height="6.195"/>
	<rect x="219.935" y="137.159" fill="#808285" width="6.195" height="6.195"/>
	<rect x="219.935" y="129.964" fill="#808285" width="6.195" height="6.195"/>
	<rect x="219.935" y="144.354" fill="#808285" width="6.195" height="6.195"/>
	<polygon fill="#808285" points="312.475,157.745 312.475,153.157 306.279,152.16 306.279,157.745 	"/>
	<polygon fill="#808285" points="290.889,150.55 290.889,149.683 285.891,148.878 284.693,148.202 284.693,150.55 	"/>
	<polygon fill="#808285" points="277.498,150.55 283.693,150.55 283.693,147.638 277.875,144.354 277.498,144.354 	"/>
	<polygon fill="#808285" points="296.277,150.55 291.889,149.844 291.889,150.55 	"/>
	<polygon fill="#808285" points="299.083,157.745 305.279,157.745 305.279,151.999 302.489,151.55 299.083,151.55 	"/>
	<polygon fill="#808285" points="319.669,157.745 319.669,154.784 316.199,153.757 313.475,153.318 313.475,157.745 	"/>
	<polygon fill="#808285" points="250.598,128.964 248.716,127.902 248.716,128.964 	"/>
	<polygon fill="#808285" points="248.716,129.964 248.716,136.159 254.912,136.159 254.912,131.398 252.37,129.964 	"/>
	<polygon fill="#808285" points="262.107,136.159 262.107,135.458 255.912,131.962 255.912,136.159 	"/>
	<polygon fill="#808285" points="276.102,143.354 270.302,140.082 270.302,143.354 	"/>
	<polygon fill="#808285" points="263.107,137.159 263.107,143.354 269.302,143.354 269.302,139.518 265.123,137.159 	"/>
	<polygon fill="#808285" points="263.35,136.159 263.107,136.022 263.107,136.159 	"/>
	<polygon fill="#808285" points="441.99,233.368 440.249,235.896 437.459,236.895 441.99,236.895 	"/>
	<rect x="442.99" y="237.895" fill="#808285" width="6.191" height="6.194"/>
	<rect x="450.185" y="252.284" fill="#808285" width="6.195" height="6.194"/>
	<rect x="450.185" y="266.675" fill="#808285" width="6.195" height="6.195"/>
	<rect x="450.185" y="273.87" fill="#808285" width="6.195" height="6.194"/>
	<polygon fill="#808285" points="449.185,230.698 443.828,230.698 442.99,231.915 442.99,236.895 449.185,236.895 	"/>
	<rect x="450.185" y="245.089" fill="#808285" width="6.195" height="6.195"/>
	<rect x="450.185" y="259.479" fill="#808285" width="6.195" height="6.195"/>
	<rect x="457.38" y="252.284" fill="#808285" width="6.195" height="6.194"/>
	<rect x="457.38" y="259.479" fill="#808285" width="6.195" height="6.195"/>
	<rect x="450.185" y="237.895" fill="#808285" width="6.195" height="6.194"/>
	<rect x="450.185" y="230.698" fill="#808285" width="6.195" height="6.194"/>
	<rect x="450.185" y="223.503" fill="#808285" width="6.195" height="6.195"/>
	<rect x="457.38" y="266.675" fill="#808285" width="6.195" height="6.195"/>
	<rect x="435.794" y="237.895" fill="#808285" width="6.195" height="6.194"/>
	<rect x="219.935" y="165.94" fill="#808285" width="6.195" height="6.195"/>
	<rect x="442.99" y="245.089" fill="#808285" width="6.191" height="6.195"/>
	<rect x="435.794" y="252.284" fill="#808285" width="6.195" height="6.194"/>
	<rect x="435.794" y="259.479" fill="#808285" width="6.195" height="6.195"/>
	<rect x="435.794" y="245.089" fill="#808285" width="6.195" height="6.195"/>
	<rect x="442.99" y="259.479" fill="#808285" width="6.191" height="6.195"/>
	<rect x="442.99" y="252.284" fill="#808285" width="6.191" height="6.194"/>
	<rect x="442.99" y="273.87" fill="#808285" width="6.191" height="6.194"/>
	<rect x="442.99" y="281.064" fill="#808285" width="6.191" height="6.192"/>
	<rect x="442.99" y="266.675" fill="#808285" width="6.191" height="6.195"/>
	<polygon fill="#808285" points="463.576,78.597 463.576,74.474 459.396,78.597 	"/>
	<polygon fill="#808285" points="471.771,150.55 474.319,150.55 475.615,147.685 477.318,144.354 471.771,144.354 	"/>
	<polygon fill="#808285" points="471.771,167.489 471.771,172.137 477.966,172.137 477.966,171.848 	"/>
	<polygon fill="#808285" points="470.771,78.597 470.771,72.401 465.676,72.401 464.576,73.487 464.576,78.597 	"/>
	<polygon fill="#808285" points="469.734,71.401 467.891,70.217 466.69,71.401 	"/>
	<polygon fill="#808285" points="471.771,173.137 471.771,179.331 475.04,179.331 477.966,174.093 477.966,173.137 	"/>
	<polygon fill="#808285" points="471.771,209.111 471.771,215.309 473.384,215.309 473.948,209.111 	"/>
	<rect x="457.38" y="245.089" fill="#808285" width="6.195" height="6.195"/>
	<polygon fill="#808285" points="449.185,92.987 449.185,88.669 444.808,92.987 	"/>
	<polygon fill="#808285" points="456.38,92.987 456.38,86.792 451.088,86.792 450.185,87.683 450.185,92.987 	"/>
	<polygon fill="#808285" points="456.38,85.792 456.38,81.572 452.102,85.792 	"/>
	<polygon fill="#808285" points="463.576,85.792 463.576,79.597 458.382,79.597 457.38,80.585 457.38,85.792 	"/>
	<polygon fill="#808285" points="449.185,100.183 449.185,93.987 443.794,93.987 442.99,94.781 442.99,100.183 	"/>
	<polygon fill="#808285" points="471.771,202.186 471.771,208.111 474.039,208.111 474.395,204.189 	"/>
	<rect x="457.38" y="216.309" fill="#808285" width="6.195" height="6.194"/>
	<polygon fill="#808285" points="471.771,216.309 471.771,222.503 472.731,222.503 473.293,216.309 	"/>
	<rect x="457.38" y="237.895" fill="#808285" width="6.195" height="6.194"/>
	<polygon fill="#808285" points="463.576,212.218 457.408,215.309 463.576,215.309 	"/>
	<rect x="457.38" y="230.698" fill="#808285" width="6.195" height="6.194"/>
	<rect x="457.38" y="223.503" fill="#808285" width="6.195" height="6.195"/>
	<polygon fill="#808285" points="472.639,223.503 471.771,223.503 471.771,229.698 472.077,229.698 	"/>
	<polygon fill="#808285" points="470.771,201.917 470.491,201.917 467.567,208.111 470.771,208.111 	"/>
	<rect x="464.576" y="223.503" fill="#808285" width="6.195" height="6.195"/>
	<polygon fill="#808285" points="470.771,209.111 467.094,209.111 466.265,210.87 464.576,211.717 464.576,215.309 470.771,215.309 
			"/>
	<rect x="464.576" y="216.309" fill="#808285" width="6.195" height="6.194"/>
	<rect x="198.349" y="122.769" fill="#808285" width="6.195" height="6.195"/>
	<polygon fill="#808285" points="332.422,266.675 333.875,268.195 334.061,268.273 334.061,266.675 	"/>
	<rect x="241.521" y="129.964" fill="#808285" width="6.195" height="6.195"/>
	<polygon fill="#808285" points="313.607,252.284 319.669,254.417 319.669,252.284 	"/>
	<polygon fill="#808285" points="335.061,266.675 335.061,268.693 341.255,271.294 341.255,266.675 	"/>
	<polygon fill="#808285" points="325.555,259.479 326.865,260.852 326.865,259.479 	"/>
	<polygon fill="#808285" points="324.602,258.479 326.865,258.479 326.865,252.284 320.669,252.284 320.669,254.77 321.257,254.977 
			"/>
	<polygon fill="#808285" points="342.255,266.675 342.255,271.713 344.021,272.454 348.451,268.491 348.451,266.675 	"/>
	<polygon fill="#808285" points="370.037,273.87 368.407,273.87 368.896,280.064 370.037,280.064 	"/>
	<polygon fill="#808285" points="368.328,272.87 370.037,272.87 370.037,266.675 363.841,266.675 363.841,267.963 368.005,268.796 	
		"/>
	<polygon fill="#808285" points="357.398,266.675 362.841,267.764 362.841,266.675 	"/>
	<polygon fill="#808285" points="349.451,266.675 349.451,267.598 350.48,266.675 	"/>
	<polygon fill="#808285" points="355.646,259.479 349.451,259.479 349.451,265.675 351.598,265.675 351.745,265.544 
		352.398,265.675 355.646,265.675 	"/>
	<polygon fill="#808285" points="291.889,245.089 291.889,246.775 297.954,246.775 298.083,246.822 298.083,245.089 	"/>
	<rect x="248.716" y="245.089" fill="#808285" width="6.195" height="1.688"/>
	<rect x="255.912" y="245.089" fill="#808285" width="6.195" height="1.688"/>
	<rect x="234.326" y="245.089" fill="#808285" width="6.195" height="1.688"/>
	<rect x="263.107" y="245.089" fill="#808285" width="6.195" height="1.688"/>
	<rect x="241.521" y="245.089" fill="#808285" width="6.195" height="1.688"/>
	<polygon fill="#808285" points="299.083,245.089 299.083,247.174 305.279,249.354 305.279,245.089 	"/>
	<polygon fill="#808285" points="371.037,281.064 371.037,281.225 377.232,282.32 377.232,281.064 	"/>
	<polygon fill="#808285" points="312.475,245.089 306.279,245.089 306.279,249.705 310.766,251.284 312.475,251.284 	"/>
	<rect x="270.302" y="245.089" fill="#808285" width="6.195" height="1.688"/>
	<rect x="277.498" y="245.089" fill="#808285" width="6.195" height="1.688"/>
	<rect x="284.693" y="245.089" fill="#808285" width="6.195" height="1.688"/>
	<polygon fill="#808285" points="493.357,115.573 493.357,117.552 494.954,115.573 	"/>
	<polygon fill="#808285" points="464.576,230.698 464.576,236.895 469.166,236.895 470.771,233.516 470.771,230.698 	"/>
	<polygon fill="#808285" points="471.986,230.698 471.771,230.698 471.771,231.409 471.957,231.02 	"/>
	<polygon fill="#808285" points="471.771,137.159 471.771,143.354 477.83,143.354 477.966,143.087 477.966,137.159 	"/>
	<polygon fill="#808285" points="468.202,273.87 464.576,273.87 464.576,276.089 468.297,274.516 	"/>
	<polygon fill="#808285" points="457.38,273.87 457.38,279.949 457.729,278.984 463.576,276.512 463.576,273.87 	"/>
	<polygon fill="#808285" points="450.185,281.064 450.185,287.262 454.735,287.262 456.38,282.713 456.38,281.064 	"/>
	<polygon fill="#808285" points="478.966,136.159 481.509,136.159 484.678,129.964 478.966,129.964 	"/>
	<polygon fill="#808285" points="486.162,115.573 486.162,121.769 489.953,121.769 492.357,118.79 492.357,115.573 	"/>
	<rect x="227.13" y="245.089" fill="#808285" width="6.195" height="1.688"/>
	<polygon fill="#808285" points="454.374,288.262 450.185,288.262 450.185,292.542 453.371,291.032 	"/>
	<polygon fill="#808285" points="489.146,122.769 486.162,122.769 486.162,127.063 486.997,125.431 	"/>
	<polygon fill="#808285" points="378.232,281.064 378.232,282.498 384.427,283.596 384.427,281.064 	"/>
	<polygon fill="#808285" points="478.966,137.159 478.966,141.132 480.999,137.159 	"/>
	<polygon fill="#808285" points="442.99,288.262 442.99,294.456 446.146,294.456 449.185,293.016 449.185,288.262 	"/>
	<polygon fill="#808285" points="420.404,301.65 420.404,295.456 414.208,295.456 414.208,301.591 414.273,301.65 	"/>
	<polygon fill="#808285" points="407.6,295.456 413.208,300.662 413.208,295.456 	"/>
	<polygon fill="#808285" points="385.427,281.064 385.427,283.771 391.623,284.869 391.623,281.064 	"/>
	<polygon fill="#808285" points="398.818,281.064 392.623,281.064 392.623,285.047 397.273,285.87 398.771,287.262 398.818,287.262 
			"/>
	<polygon fill="#808285" points="399.848,288.262 406.014,293.982 406.014,288.262 	"/>
	<polygon fill="#808285" points="444.599,302.65 442.99,302.65 442.99,303.229 444.523,303.229 	"/>
	<rect x="435.794" y="302.65" fill="#808285" width="6.195" height="0.575"/>
	<polygon fill="#808285" points="415.352,302.65 415.973,303.229 420.404,303.229 420.404,302.65 	"/>
	<rect x="421.404" y="302.65" fill="#808285" width="6.191" height="0.575"/>
	<rect x="428.599" y="302.65" fill="#808285" width="6.195" height="0.575"/>
	<polygon fill="#808285" points="218.14,223.503 218.935,225.705 218.935,223.503 	"/>
	<rect x="205.544" y="158.745" fill="#808285" width="6.195" height="6.195"/>
	<rect x="205.544" y="137.159" fill="#808285" width="6.195" height="6.195"/>
	<rect x="205.544" y="144.354" fill="#808285" width="6.195" height="6.195"/>
	<rect x="205.544" y="151.55" fill="#808285" width="6.195" height="6.195"/>
	<rect x="212.74" y="137.159" fill="#808285" width="6.195" height="6.195"/>
	<rect x="212.74" y="129.964" fill="#808285" width="6.195" height="6.195"/>
	<rect x="205.544" y="129.964" fill="#808285" width="6.195" height="6.195"/>
	<rect x="198.349" y="129.964" fill="#808285" width="6.195" height="6.195"/>
	<rect x="198.349" y="137.159" fill="#808285" width="6.195" height="6.195"/>
	<polygon fill="#808285" points="210.549,121.769 205.544,118.559 205.544,121.769 	"/>
	<rect x="212.74" y="144.354" fill="#808285" width="6.195" height="6.195"/>
	<rect x="205.544" y="122.769" fill="#808285" width="6.195" height="6.195"/>
	<rect x="198.349" y="144.354" fill="#808285" width="6.195" height="6.195"/>
	<rect x="219.935" y="201.917" fill="#808285" width="6.195" height="6.194"/>
	<rect x="219.935" y="209.111" fill="#808285" width="6.195" height="6.195"/>
	<rect x="219.935" y="194.723" fill="#808285" width="6.195" height="6.194"/>
	<rect x="219.935" y="187.525" fill="#808285" width="6.195" height="6.195"/>
	<rect x="219.935" y="180.331" fill="#808285" width="6.195" height="6.194"/>
	<rect x="212.74" y="165.94" fill="#808285" width="6.195" height="6.195"/>
	<rect x="219.935" y="216.309" fill="#808285" width="6.195" height="6.194"/>
	<rect x="212.74" y="173.137" fill="#808285" width="6.195" height="6.194"/>
	<rect x="212.74" y="158.745" fill="#808285" width="6.195" height="6.195"/>
	<polygon fill="#808285" points="218.935,128.964 218.935,127.146 212.74,123.174 212.74,128.964 	"/>
	<rect x="212.74" y="151.55" fill="#808285" width="6.195" height="6.195"/>
	<polygon fill="#808285" points="209.294,173.137 211.74,178.713 211.74,173.137 	"/>
	<polygon fill="#808285" points="218.935,186.525 218.935,180.331 212.74,180.331 212.74,180.993 215.167,186.525 	"/>
	<polygon fill="#808285" points="218.935,216.309 215.542,216.309 217.78,222.503 218.935,222.503 	"/>
	<polygon fill="#808285" points="226.13,229.698 226.13,223.503 219.935,223.503 219.935,228.475 220.376,229.698 	"/>
	<polygon fill="#808285" points="208.856,172.137 211.74,172.137 211.74,165.94 205.544,165.94 205.544,166.305 207.842,169.825 	
		"/>
	<polygon fill="#808285" points="200.61,158.745 204.544,164.773 204.544,158.745 	"/>
	<polygon fill="#808285" points="218.935,201.917 215.928,201.917 215.202,208.111 218.935,208.111 	"/>
	<polygon fill="#808285" points="218.935,209.111 215.084,209.111 214.56,213.585 215.182,215.309 218.935,215.309 	"/>
	<polygon fill="#808285" points="218.935,187.525 215.605,187.525 217.192,191.146 216.89,193.723 218.935,193.723 	"/>
	<rect x="219.935" y="173.137" fill="#808285" width="6.195" height="6.194"/>
	<rect x="435.794" y="266.675" fill="#808285" width="6.195" height="6.195"/>
	<polygon fill="#808285" points="218.935,194.723 216.772,194.723 216.045,200.917 218.935,200.917 	"/>
	<polygon fill="#808285" points="204.544,157.745 204.544,151.55 198.349,151.55 198.349,155.282 199.957,157.745 	"/>
	<polygon fill="#808285" points="197.349,121.769 197.349,115.573 196.824,115.573 194.336,121.769 	"/>
	<polygon fill="#808285" points="197.349,114.264 197.225,114.573 197.349,114.573 	"/>
	<polygon fill="#808285" points="204.544,117.918 200.889,115.573 198.349,115.573 198.349,121.769 204.544,121.769 	"/>
	<polygon fill="#808285" points="197.349,122.769 193.935,122.769 191.449,128.964 197.349,128.964 	"/>
	<polygon fill="#808285" points="199.33,114.573 198.349,113.944 198.349,114.573 	"/>
	<rect x="191.154" y="129.964" fill="#808285" width="6.195" height="6.195"/>
	<polygon fill="#808285" points="188.16,137.159 187.535,138.716 190.154,142.729 190.154,137.159 	"/>
	<polygon fill="#808285" points="197.349,150.55 197.349,144.354 191.215,144.354 195.259,150.55 	"/>
	<polygon fill="#808285" points="190.154,132.19 188.561,136.159 190.154,136.159 	"/>
	<polygon fill="#808285" points="195.913,151.55 197.349,153.751 197.349,151.55 	"/>
	<rect x="191.154" y="137.159" fill="#808285" width="6.195" height="6.195"/>
	<polygon fill="#808285" points="334.061,265.675 334.061,259.479 327.865,259.479 327.865,261.898 331.468,265.675 	"/>
	<rect x="291.889" y="223.503" fill="#808285" width="6.194" height="6.195"/>
	<rect x="277.498" y="230.698" fill="#808285" width="6.195" height="6.194"/>
	<rect x="284.693" y="237.895" fill="#808285" width="6.195" height="6.194"/>
	<polygon fill="#808285" points="283.693,216.574 281.543,216.309 277.498,216.309 277.498,222.503 283.693,222.503 	"/>
	<polygon fill="#808285" points="276.498,216.309 274.633,216.309 270.302,219.557 270.302,222.503 276.498,222.503 	"/>
	<rect x="277.498" y="237.895" fill="#808285" width="6.195" height="6.194"/>
	<rect x="291.889" y="237.895" fill="#808285" width="6.194" height="6.194"/>
	<rect x="270.302" y="223.503" fill="#808285" width="6.195" height="6.195"/>
	<rect x="284.693" y="230.698" fill="#808285" width="6.195" height="6.194"/>
	<rect x="291.889" y="230.698" fill="#808285" width="6.194" height="6.194"/>
	<rect x="284.693" y="223.503" fill="#808285" width="6.195" height="6.195"/>
	<polygon fill="#808285" points="290.889,217.469 284.693,216.699 284.693,222.503 290.889,222.503 	"/>
	<rect x="277.498" y="223.503" fill="#808285" width="6.195" height="6.195"/>
	<rect x="270.302" y="230.698" fill="#808285" width="6.195" height="6.194"/>
	<rect x="255.912" y="237.895" fill="#808285" width="6.195" height="6.194"/>
	<polygon fill="#808285" points="262.107,225.236 255.912,224.109 255.912,229.698 262.107,229.698 	"/>
	<polygon fill="#808285" points="254.912,223.93 253.664,223.702 253.24,223.503 248.716,223.503 248.716,229.698 254.912,229.698 	
		"/>
	<rect x="248.716" y="230.698" fill="#808285" width="6.195" height="6.194"/>
	<rect x="255.912" y="230.698" fill="#808285" width="6.195" height="6.194"/>
	<rect x="270.302" y="237.895" fill="#808285" width="6.195" height="6.194"/>
	<rect x="435.794" y="273.87" fill="#808285" width="6.195" height="6.194"/>
	<rect x="263.107" y="237.895" fill="#808285" width="6.195" height="6.194"/>
	<rect x="263.107" y="230.698" fill="#808285" width="6.195" height="6.194"/>
	<polygon fill="#808285" points="269.302,223.503 265.04,223.503 263.107,224.952 263.107,229.698 269.302,229.698 	"/>
	<rect x="335.061" y="259.479" fill="#808285" width="6.194" height="6.195"/>
	<rect x="327.865" y="252.284" fill="#808285" width="6.193" height="6.194"/>
	<rect x="327.865" y="245.089" fill="#808285" width="6.193" height="6.195"/>
	<polygon fill="#808285" points="326.865,241.223 323.616,237.895 320.669,237.895 320.669,244.089 326.865,244.089 	"/>
	<polygon fill="#808285" points="322.641,236.895 320.669,234.875 320.669,236.895 	"/>
	<polygon fill="#808285" points="334.061,241.432 328.23,242.62 327.865,242.246 327.865,244.089 334.061,244.089 	"/>
	<rect x="320.669" y="245.089" fill="#808285" width="6.195" height="6.195"/>
	<polygon fill="#808285" points="341.255,239.963 335.061,241.227 335.061,244.089 341.255,244.089 	"/>
	<polygon fill="#808285" points="298.083,219.432 291.889,217.596 291.889,222.503 298.083,222.503 	"/>
	<rect x="248.716" y="237.895" fill="#808285" width="6.195" height="6.194"/>
	<polygon fill="#808285" points="319.669,233.852 318.703,232.859 316.357,230.698 313.475,230.698 313.475,236.895 
		319.669,236.895 	"/>
	<rect x="335.061" y="245.089" fill="#808285" width="6.194" height="6.195"/>
	<rect x="335.061" y="252.284" fill="#808285" width="6.194" height="6.194"/>
	<rect x="342.255" y="259.479" fill="#808285" width="6.195" height="6.195"/>
	<polygon fill="#808285" points="305.279,221.564 299.083,219.729 299.083,222.503 305.279,222.503 	"/>
	<rect x="299.083" y="223.503" fill="#808285" width="6.194" height="6.195"/>
	<rect x="299.083" y="237.895" fill="#808285" width="6.194" height="6.194"/>
	<polygon fill="#808285" points="307.463,222.503 307,222.075 306.279,221.861 306.279,222.503 	"/>
	<rect x="299.083" y="230.698" fill="#808285" width="6.194" height="6.194"/>
	<rect x="306.279" y="237.895" fill="#808285" width="6.193" height="6.194"/>
	<polygon fill="#808285" points="315.271,229.698 313.475,228.042 313.475,229.698 	"/>
	<rect x="313.475" y="245.089" fill="#808285" width="6.194" height="6.195"/>
	<polygon fill="#808285" points="312.475,227.12 308.548,223.503 306.279,223.503 306.279,229.698 312.475,229.698 	"/>
	<rect x="313.475" y="237.895" fill="#808285" width="6.194" height="6.194"/>
	<rect x="306.279" y="230.698" fill="#808285" width="6.193" height="6.194"/>
	<rect x="234.326" y="165.94" fill="#808285" width="6.195" height="6.195"/>
	<rect x="234.326" y="158.745" fill="#808285" width="6.195" height="6.195"/>
	<rect x="342.255" y="252.284" fill="#808285" width="6.195" height="6.194"/>
	<rect x="234.326" y="173.137" fill="#808285" width="6.195" height="6.194"/>
	<rect x="234.326" y="151.55" fill="#808285" width="6.195" height="6.195"/>
	<rect x="234.326" y="144.354" fill="#808285" width="6.195" height="6.195"/>
	<rect x="234.326" y="129.964" fill="#808285" width="6.195" height="6.195"/>
	<rect x="234.326" y="137.159" fill="#808285" width="6.195" height="6.195"/>
	<polygon fill="#808285" points="234.326,212.049 238.623,212.727 240.521,213.117 240.521,209.111 234.326,209.111 	"/>
	<rect x="234.326" y="201.917" fill="#808285" width="6.195" height="6.194"/>
	<rect x="234.326" y="194.723" fill="#808285" width="6.195" height="6.194"/>
	<rect x="234.326" y="180.331" fill="#808285" width="6.195" height="6.194"/>
	<rect x="234.326" y="187.525" fill="#808285" width="6.195" height="6.195"/>
	<rect x="241.521" y="194.723" fill="#808285" width="6.195" height="6.194"/>
	<polygon fill="#808285" points="241.521,213.323 247.716,214.604 247.716,209.111 241.521,209.111 	"/>
	<rect x="241.521" y="158.745" fill="#808285" width="6.195" height="6.195"/>
	<rect x="241.521" y="151.55" fill="#808285" width="6.195" height="6.195"/>
	<rect x="241.521" y="137.159" fill="#808285" width="6.195" height="6.195"/>
	<rect x="241.521" y="144.354" fill="#808285" width="6.195" height="6.195"/>
	<rect x="241.521" y="165.94" fill="#808285" width="6.195" height="6.195"/>
	<rect x="241.521" y="201.917" fill="#808285" width="6.195" height="6.194"/>
	<rect x="241.521" y="173.137" fill="#808285" width="6.195" height="6.194"/>
	<rect x="227.13" y="129.964" fill="#808285" width="6.195" height="6.195"/>
	<rect x="241.521" y="180.331" fill="#808285" width="6.195" height="6.194"/>
	<rect x="241.521" y="187.525" fill="#808285" width="6.195" height="6.195"/>
	<rect x="241.521" y="237.895" fill="#808285" width="6.195" height="6.194"/>
	<rect x="234.326" y="230.698" fill="#808285" width="6.195" height="6.194"/>
	<rect x="234.326" y="223.503" fill="#808285" width="6.195" height="6.195"/>
	<rect x="234.326" y="237.895" fill="#808285" width="6.195" height="6.194"/>
	<polygon fill="#808285" points="233.326,218.46 227.13,219.193 227.13,222.503 233.326,222.503 	"/>
	<rect x="227.13" y="223.503" fill="#808285" width="6.195" height="6.195"/>
	<rect x="227.13" y="137.159" fill="#808285" width="6.195" height="6.195"/>
	<polygon fill="#808285" points="247.716,220.908 241.521,217.997 241.521,222.503 247.716,222.503 	"/>
	<rect x="227.13" y="230.698" fill="#808285" width="6.195" height="6.194"/>
	<polygon fill="#808285" points="251.111,222.503 248.716,221.378 248.716,222.503 	"/>
	<polygon fill="#808285" points="240.521,217.605 234.326,218.341 234.326,222.503 240.521,222.503 	"/>
	<rect x="241.521" y="230.698" fill="#808285" width="6.195" height="6.194"/>
	<rect x="241.521" y="223.503" fill="#808285" width="6.195" height="6.195"/>
	<rect x="227.13" y="173.137" fill="#808285" width="6.195" height="6.194"/>
	<rect x="227.13" y="165.94" fill="#808285" width="6.195" height="6.195"/>
	<rect x="227.13" y="237.895" fill="#808285" width="6.195" height="6.194"/>
	<rect x="227.13" y="151.55" fill="#808285" width="6.195" height="6.195"/>
	<rect x="227.13" y="144.354" fill="#808285" width="6.195" height="6.195"/>
	<rect x="227.13" y="158.745" fill="#808285" width="6.195" height="6.195"/>
	<polygon fill="#808285" points="227.13,210.917 233.326,211.893 233.326,209.111 227.13,209.111 	"/>
	<rect x="227.13" y="201.917" fill="#808285" width="6.195" height="6.194"/>
	<rect x="227.13" y="180.331" fill="#808285" width="6.195" height="6.194"/>
	<rect x="227.13" y="187.525" fill="#808285" width="6.195" height="6.195"/>
	<rect x="227.13" y="194.723" fill="#808285" width="6.195" height="6.194"/>
	<polygon fill="#808285" points="269.302,220.307 266.373,222.503 269.302,222.503 	"/>
	<polygon fill="#808285" points="417.287,222.503 414.208,221.939 414.208,222.503 	"/>
	<rect x="414.208" y="288.262" fill="#808285" width="6.194" height="6.194"/>
	<rect x="414.208" y="281.064" fill="#808285" width="6.194" height="6.192"/>
	<polygon fill="#808285" points="413.208,221.756 407.014,220.621 407.014,222.503 413.208,222.503 	"/>
	<rect x="407.014" y="223.503" fill="#808285" width="6.194" height="6.195"/>
	<rect x="407.014" y="230.698" fill="#808285" width="6.194" height="6.194"/>
	<rect x="414.208" y="273.87" fill="#808285" width="6.194" height="6.194"/>
	<rect x="414.208" y="245.089" fill="#808285" width="6.194" height="6.195"/>
	<rect x="414.208" y="252.284" fill="#808285" width="6.194" height="6.194"/>
	<rect x="407.014" y="237.895" fill="#808285" width="6.194" height="6.194"/>
	<rect x="414.208" y="259.479" fill="#808285" width="6.194" height="6.195"/>
	<rect x="414.208" y="266.675" fill="#808285" width="6.194" height="6.195"/>
	<rect x="399.818" y="230.698" fill="#808285" width="6.191" height="6.194"/>
	<rect x="399.818" y="223.503" fill="#808285" width="6.191" height="6.195"/>
	<polygon fill="#808285" points="406.014,220.438 401.631,219.637 399.818,220.771 399.818,222.503 406.014,222.503 	"/>
	<rect x="399.818" y="237.895" fill="#808285" width="6.191" height="6.194"/>
	<rect x="407.014" y="245.089" fill="#808285" width="6.194" height="6.195"/>
	<rect x="407.014" y="288.262" fill="#808285" width="6.194" height="6.194"/>
	<rect x="414.208" y="237.895" fill="#808285" width="6.194" height="6.194"/>
	<rect x="407.014" y="252.284" fill="#808285" width="6.194" height="6.194"/>
	<rect x="407.014" y="259.479" fill="#808285" width="6.194" height="6.195"/>
	<rect x="407.014" y="281.064" fill="#808285" width="6.194" height="6.192"/>
	<rect x="407.014" y="266.675" fill="#808285" width="6.194" height="6.195"/>
	<rect x="407.014" y="273.87" fill="#808285" width="6.194" height="6.194"/>
	<rect x="428.599" y="288.262" fill="#808285" width="6.195" height="6.194"/>
	<rect x="428.599" y="273.87" fill="#808285" width="6.195" height="6.194"/>
	<rect x="428.599" y="266.675" fill="#808285" width="6.195" height="6.195"/>
	<rect x="428.599" y="281.064" fill="#808285" width="6.195" height="6.192"/>
	<rect x="428.599" y="259.479" fill="#808285" width="6.195" height="6.195"/>
	<rect x="414.208" y="230.698" fill="#808285" width="6.194" height="6.194"/>
	<rect x="428.599" y="295.456" fill="#808285" width="6.195" height="6.194"/>
	<polygon fill="#808285" points="421.404,230.698 421.404,236.895 427.163,236.895 423.723,230.698 	"/>
	<rect x="435.794" y="288.262" fill="#808285" width="6.195" height="6.194"/>
	<rect x="435.794" y="281.064" fill="#808285" width="6.195" height="6.192"/>
	<rect x="428.599" y="245.089" fill="#808285" width="6.195" height="6.195"/>
	<rect x="435.794" y="295.456" fill="#808285" width="6.195" height="6.194"/>
	<rect x="428.599" y="252.284" fill="#808285" width="6.195" height="6.194"/>
	<rect x="399.818" y="245.089" fill="#808285" width="6.191" height="6.195"/>
	<rect x="342.255" y="245.089" fill="#808285" width="6.195" height="6.195"/>
	<rect x="421.404" y="288.262" fill="#808285" width="6.191" height="6.194"/>
	<polygon fill="#808285" points="420.404,224.719 419.729,223.503 414.208,223.503 414.208,229.698 420.404,229.698 	"/>
	<rect x="421.404" y="237.895" fill="#808285" width="6.191" height="6.194"/>
	<rect x="421.404" y="281.064" fill="#808285" width="6.191" height="6.192"/>
	<polygon fill="#808285" points="423.168,229.698 421.404,226.52 421.404,229.698 	"/>
	<rect x="421.404" y="252.284" fill="#808285" width="6.191" height="6.194"/>
	<rect x="421.404" y="273.87" fill="#808285" width="6.191" height="6.194"/>
	<rect x="421.404" y="245.089" fill="#808285" width="6.191" height="6.195"/>
	<rect x="421.404" y="259.479" fill="#808285" width="6.191" height="6.195"/>
	<rect x="421.404" y="266.675" fill="#808285" width="6.191" height="6.195"/>
	<rect x="421.404" y="295.456" fill="#808285" width="6.191" height="6.194"/>
	<rect x="371.037" y="266.675" fill="#808285" width="6.195" height="6.195"/>
	<rect x="371.037" y="259.479" fill="#808285" width="6.195" height="6.195"/>
	<rect x="371.037" y="245.089" fill="#808285" width="6.195" height="6.195"/>
	<rect x="371.037" y="252.284" fill="#808285" width="6.195" height="6.194"/>
	<polygon fill="#808285" points="370.037,234.646 367.484,235.083 363.841,235.721 363.841,236.895 370.037,236.895 	"/>
	<rect x="371.037" y="273.87" fill="#808285" width="6.195" height="6.194"/>
	<rect x="371.037" y="237.895" fill="#808285" width="6.195" height="6.194"/>
	<rect x="363.841" y="237.895" fill="#808285" width="6.195" height="6.194"/>
	<rect x="378.232" y="266.675" fill="#808285" width="6.191" height="6.195"/>
	<rect x="378.232" y="259.479" fill="#808285" width="6.191" height="6.195"/>
	<polygon fill="#808285" points="377.232,233.418 371.037,234.477 371.037,236.895 377.232,236.895 	"/>
	<rect x="378.232" y="273.87" fill="#808285" width="6.191" height="6.194"/>
	<rect x="363.841" y="252.284" fill="#808285" width="6.195" height="6.194"/>
	<rect x="356.646" y="252.284" fill="#808285" width="6.191" height="6.194"/>
	<rect x="349.451" y="245.089" fill="#808285" width="6.195" height="6.195"/>
	<rect x="356.646" y="259.479" fill="#808285" width="6.191" height="6.195"/>
	<rect x="349.451" y="252.284" fill="#808285" width="6.195" height="6.194"/>
	<polygon fill="#808285" points="348.451,238.494 342.255,239.759 342.255,244.089 348.451,244.089 	"/>
	<rect x="363.841" y="259.479" fill="#808285" width="6.195" height="6.195"/>
	<rect x="356.646" y="245.089" fill="#808285" width="6.191" height="6.195"/>
	<rect x="378.232" y="252.284" fill="#808285" width="6.191" height="6.194"/>
	<rect x="363.841" y="245.089" fill="#808285" width="6.195" height="6.195"/>
	<rect x="356.646" y="237.895" fill="#808285" width="6.191" height="6.194"/>
	<polygon fill="#808285" points="362.841,235.896 357.139,236.895 362.841,236.895 	"/>
	<rect x="392.623" y="266.675" fill="#808285" width="6.195" height="6.195"/>
	<rect x="392.623" y="230.698" fill="#808285" width="6.195" height="6.194"/>
	<rect x="392.623" y="237.895" fill="#808285" width="6.195" height="6.194"/>
	<rect x="392.623" y="252.284" fill="#808285" width="6.195" height="6.194"/>
	<rect x="392.623" y="259.479" fill="#808285" width="6.195" height="6.195"/>
	<polygon fill="#808285" points="398.818,223.503 395.45,223.503 392.623,225.271 392.623,229.698 398.818,229.698 	"/>
	<rect x="392.623" y="245.089" fill="#808285" width="6.195" height="6.195"/>
	<rect x="399.818" y="266.675" fill="#808285" width="6.191" height="6.195"/>
	<rect x="399.818" y="259.479" fill="#808285" width="6.191" height="6.195"/>
	<rect x="399.818" y="273.87" fill="#808285" width="6.191" height="6.194"/>
	<rect x="399.818" y="281.064" fill="#808285" width="6.191" height="6.192"/>
	<polygon fill="#808285" points="398.818,221.396 397.048,222.503 398.818,222.503 	"/>
	<rect x="385.427" y="230.698" fill="#808285" width="6.195" height="6.194"/>
	<rect x="385.427" y="266.675" fill="#808285" width="6.195" height="6.195"/>
	<rect x="385.427" y="259.479" fill="#808285" width="6.195" height="6.195"/>
	<rect x="378.232" y="237.895" fill="#808285" width="6.191" height="6.194"/>
	<rect x="385.427" y="252.284" fill="#808285" width="6.195" height="6.194"/>
	<rect x="385.427" y="273.87" fill="#808285" width="6.195" height="6.194"/>
	<rect x="399.818" y="252.284" fill="#808285" width="6.191" height="6.194"/>
	<polygon fill="#808285" points="391.623,225.896 385.547,229.698 391.623,229.698 	"/>
	<rect x="392.623" y="273.87" fill="#808285" width="6.195" height="6.194"/>
	<rect x="378.232" y="245.089" fill="#808285" width="6.191" height="6.195"/>
	<rect x="385.427" y="237.895" fill="#808285" width="6.195" height="6.194"/>
	<rect x="385.427" y="245.089" fill="#808285" width="6.195" height="6.195"/>
</g>
<path opacity="0.37" fill="#FFFFFF" enable-background="new    " d="M466.044,215.2c0,30.688-24.873,55.565-55.556,55.565
	c-30.694,0-55.565-24.882-55.565-55.565c0-30.687,24.871-55.557,55.565-55.557C441.171,159.643,466.044,184.516,466.044,215.2z"/>
<circle fill="#F1F2F2" cx="311.096" cy="196.424" r="5.104"/>
<g enable-background="new    ">
	<path fill="#FFFFFF" d="M392.615,216.32c-0.035,1.763,1.234,2.303,2.795,2.303c0.898,0,2.268-0.492,2.268-1.739
		c0-0.972-0.973-1.354-1.764-1.547l-1.906-0.468c-1.008-0.252-1.932-0.73-1.932-2.062c0-0.84,0.539-2.41,2.951-2.41
		c1.688,0,3.178,0.91,3.166,2.662h-0.816c-0.047-1.308-1.127-1.968-2.338-1.968c-1.115,0-2.146,0.433-2.146,1.703
		c0,0.804,0.603,1.14,1.295,1.308l2.086,0.519c1.213,0.321,2.222,0.854,2.222,2.255c0,0.588-0.239,2.443-3.272,2.443
		c-2.025,0-3.515-0.908-3.419-2.995L392.615,216.32L392.615,216.32z"/>
	<path fill="#FFFFFF" d="M398.953,212.95h0.803l2.039,5.276l1.907-5.276h0.755l-2.686,7.136c-0.435,1.044-0.687,1.344-1.633,1.344
		c-0.302-0.013-0.457-0.013-0.574-0.061v-0.637c0.18,0.037,0.348,0.062,0.516,0.062c0.672,0,0.828-0.396,1.08-0.972l0.264-0.709
		L398.953,212.95z"/>
	<path fill="#FFFFFF" d="M410.648,219.139h-0.695v-1.176h-0.023c-0.322,0.805-1.308,1.355-2.207,1.355
		c-1.883,0-2.781-1.523-2.781-3.274s0.898-3.272,2.781-3.272c0.926,0,1.822,0.47,2.146,1.354h0.023v-3.55h0.756V219.139
		L410.648,219.139z M407.723,218.684c1.607,0,2.172-1.354,2.172-2.64c0-1.282-0.562-2.638-2.172-2.638
		c-1.438,0-2.024,1.354-2.024,2.638C405.695,217.328,406.283,218.684,407.723,218.684z"/>
	<path fill="#FFFFFF" d="M412.08,212.95h0.756v1.067h0.023c0.273-0.744,1.104-1.248,1.979-1.248c1.739,0,2.268,0.912,2.268,2.388
		v3.981h-0.756v-3.863c0-1.066-0.349-1.869-1.568-1.869c-1.199,0-1.922,0.91-1.943,2.121v3.611h-0.756L412.08,212.95L412.08,212.95z
		"/>
	<path fill="#FFFFFF" d="M418.98,216.248c0.012,1.104,0.586,2.436,2.035,2.436c1.104,0,1.703-0.646,1.942-1.584h0.756
		c-0.323,1.403-1.139,2.219-2.698,2.219c-1.967,0-2.793-1.51-2.793-3.271c0-1.631,0.826-3.271,2.793-3.271
		c1.991,0,2.782,1.738,2.726,3.479h-4.761V216.248L418.98,216.248z M422.985,215.611c-0.036-1.139-0.743-2.205-1.97-2.205
		c-1.232,0-1.918,1.078-2.035,2.205H422.985z"/>
	<path fill="#FFFFFF" d="M424.068,212.95h0.804l2.038,5.276l1.908-5.276h0.755l-2.688,7.136c-0.432,1.044-0.684,1.344-1.631,1.344
		c-0.3-0.013-0.456-0.013-0.576-0.061v-0.637c0.183,0.037,0.351,0.062,0.519,0.062c0.672,0,0.828-0.396,1.08-0.972l0.264-0.709
		L424.068,212.95z"/>
</g>
<path fill="#FFFFFF" d="M477.966,48.643c0,0,6.874,21.174,7.195,25.831c0.321,4.657-3.167,10.224,0,12.318s9.792,6.195,9.792,6.195
	s-5.804-5.161-5.812-9.306c-0.004-4.145,0.41-9.44,0-12.28C488.735,68.561,477.966,48.643,477.966,48.643z"/>
<path fill="#FFFFFF" d="M501.337,102.865c0,0,4.471,6.659,2.845,10.161s-5.688,8.742-5.688,8.742s4.015-6.802,3.021-10.289
	C500.523,107.992,501.337,102.865,501.337,102.865z"/>
<path fill="#FFFFFF" d="M480.999,164.94c0,0,4.072,13.844,0.823,18.488c-3.249,4.646-4.504,7.195-4.504,7.195
	s7.521-3.023,7.844-7.868S480.999,164.94,480.999,164.94z"/>
<path fill="#FFFFFF" d="M484.678,155.934l2.979,16.203c0,0,1.312-4.499,1.604-8.102S484.678,155.934,484.678,155.934z"/>
<path fill="#FFFFFF" d="M466.978,282.967c0,0,7.849-3.195,7.895-7.986c0.046-4.793-5.135-19.025-5.135-19.025
	s1.354-4.562,2.252-7.768c0.896-3.203,5.332-9.689,5.332-9.689s-2.396,10.67-4.024,16.889c-1.631,6.221,7.328,16.262,6.507,19.6
	C478.98,278.318,466.978,282.967,466.978,282.967z"/>
</svg>
