<?xml version="1.0" encoding="utf-8"?>
<!-- Generator: Adobe Illustrator 15.0.2, SVG Export Plug-In . SVG Version: 6.00 Build 0)  -->
<!DOCTYPE svg PUBLIC "-//W3C//DTD SVG 1.1//EN" "http://www.w3.org/Graphics/SVG/1.1/DTD/svg11.dtd">
<svg version="1.1" id="Layer_1" xmlns="http://www.w3.org/2000/svg" xmlns:xlink="http://www.w3.org/1999/xlink" x="0px" y="0px"
	 width="442px" height="35px" viewBox="0.02 0.302 442 35" enable-background="new 0.02 0.302 442 35" xml:space="preserve">
<g>
	<path fill="#FFFFFF" d="M51.425,31.029c1.719-0.186,2.793-0.502,3.223-0.95c0.43-0.449,0.645-1.622,0.645-3.519V7.503
		c0-1.575-0.24-2.601-0.72-3.072c-0.48-0.473-1.529-0.766-3.147-0.881V2.734h12.203V3.55c-1.61,0.115-2.657,0.408-3.141,0.881
		c-0.484,0.473-0.727,1.497-0.727,3.072v8.572h13.363V7.503c0-1.575-0.236-2.601-0.709-3.072S70.89,3.665,69.257,3.55V2.734H81.46
		V3.55c-1.619,0.115-2.668,0.408-3.147,0.881c-0.48,0.473-0.72,1.497-0.72,3.072v19.573c0,1.596,0.24,2.616,0.72,3.065
		c0.479,0.448,1.529,0.744,3.147,0.887v0.816H69.257v-0.816c1.733-0.172,2.811-0.483,3.233-0.94
		c0.422-0.456,0.634-1.632,0.634-3.527V18.01H59.761v9.067c0,1.596,0.242,2.621,0.727,3.075c0.484,0.456,1.531,0.748,3.141,0.877
		v0.816H51.425V31.029z"/>
	<path fill="#FFFFFF" d="M84.627,31.641c-0.473-0.479-0.709-1.056-0.709-1.729c0-0.675,0.24-1.246,0.72-1.72
		c0.479-0.473,1.056-0.709,1.729-0.709c0.673,0,1.246,0.236,1.719,0.709c0.473,0.474,0.709,1.045,0.709,1.72
		c0,0.673-0.233,1.25-0.698,1.729c-0.466,0.48-1.042,0.721-1.729,0.721S85.1,32.121,84.627,31.641z"/>
	<path fill="#FFFFFF" d="M92.397,27.623c0.437-0.336,0.906-0.504,1.407-0.504c0.988,0,1.719,0.607,2.191,1.825
		c0.473,1.218,0.974,1.826,1.504,1.826c0.573,0,0.97-0.251,1.192-0.752c0.222-0.5,0.333-1.373,0.333-2.619V7.503
		c0-1.633-0.265-2.678-0.795-3.137c-0.53-0.458-1.626-0.73-3.287-0.816V2.734h12.633V3.55c-1.705,0.101-2.811,0.405-3.319,0.913
		c-0.509,0.509-0.763,1.521-0.763,3.04V23.66c0,2.949-0.709,5.135-2.127,6.553c-1.418,1.432-3.173,2.147-5.264,2.147
		c-1.375,0-2.446-0.315-3.212-0.944c-0.767-0.631-1.149-1.332-1.149-2.105C91.742,28.522,91.96,27.961,92.397,27.623z"/>
	<path fill="#FFFFFF" d="M109.45,31.641c-0.473-0.479-0.709-1.056-0.709-1.729c0-0.675,0.24-1.246,0.72-1.72
		c0.479-0.473,1.056-0.709,1.729-0.709s1.246,0.236,1.719,0.709c0.473,0.474,0.709,1.045,0.709,1.72c0,0.673-0.233,1.25-0.698,1.729
		c-0.466,0.48-1.042,0.721-1.729,0.721S109.922,32.121,109.45,31.641z"/>
	<path fill="#FFFFFF" d="M126.508,31.029c1.69-0.156,2.743-0.484,3.158-0.983c0.415-0.498,0.623-1.66,0.623-3.484V7.503
		c0-1.547-0.233-2.561-0.698-3.04c-0.466-0.479-1.493-0.784-3.083-0.913V2.734h12.182c2.535,0,4.647,0.322,6.338,0.966
		c3.208,1.216,4.812,3.453,4.812,6.715c0,2.188-0.713,3.869-2.138,5.042c-1.425,1.173-3.362,1.944-5.812,2.316l9.066,11.167
		c0.559,0.684,1.117,1.181,1.676,1.492c0.559,0.312,1.274,0.512,2.148,0.598v0.816h-7.086l-11.006-13.557l-1.931,0.106v8.672
		c0,1.627,0.247,2.658,0.741,3.095c0.494,0.436,1.572,0.725,3.233,0.866v0.816h-12.225v-0.816H126.508z M141.547,15.775
		c2.334-0.958,3.502-2.759,3.502-5.403c0-2.545-1.046-4.282-3.137-5.211c-1.117-0.5-2.6-0.75-4.447-0.75
		c-1.246,0-2.009,0.09-2.288,0.268c-0.279,0.179-0.419,0.597-0.419,1.254v10.831C137.923,16.649,140.187,16.319,141.547,15.775z"/>
	<path fill="#FFFFFF" d="M170.745,13.788c1.518,1.396,2.277,3.377,2.277,5.939h-13.643c0.143,3.315,0.895,5.731,2.256,7.246
		c1.36,1.516,2.972,2.272,4.834,2.272c1.504,0,2.771-0.394,3.803-1.181c1.031-0.784,1.983-1.899,2.857-3.344l0.752,0.258
		c-0.587,1.822-1.687,3.508-3.298,5.058c-1.611,1.549-3.584,2.323-5.919,2.323c-2.693,0-4.773-1.018-6.241-3.051
		c-1.468-2.034-2.202-4.376-2.202-7.024c0-2.879,0.852-5.364,2.557-7.456c1.704-2.092,3.924-3.138,6.66-3.138
		C167.458,11.693,169.226,12.391,170.745,13.788z M160.454,15.431c-0.458,0.773-0.788,1.748-0.988,2.922h9.066
		c-0.158-1.432-0.43-2.499-0.816-3.201c-0.702-1.26-1.876-1.891-3.523-1.891C162.559,13.261,161.313,13.985,160.454,15.431z"/>
	<path fill="#FFFFFF" d="M190.274,13.788c1.518,1.396,2.277,3.377,2.277,5.939h-13.643c0.143,3.315,0.895,5.731,2.256,7.246
		c1.36,1.516,2.972,2.272,4.834,2.272c1.504,0,2.771-0.394,3.803-1.181c1.031-0.784,1.983-1.899,2.857-3.344l0.752,0.258
		c-0.587,1.822-1.687,3.508-3.298,5.058c-1.611,1.549-3.584,2.323-5.919,2.323c-2.693,0-4.773-1.018-6.241-3.051
		c-1.468-2.034-2.202-4.376-2.202-7.024c0-2.879,0.852-5.364,2.557-7.456c1.704-2.092,3.924-3.138,6.66-3.138
		C186.987,11.693,188.755,12.391,190.274,13.788z M179.983,15.431c-0.458,0.773-0.788,1.748-0.988,2.922h9.066
		c-0.158-1.432-0.43-2.499-0.816-3.201c-0.702-1.26-1.876-1.891-3.523-1.891C182.088,13.261,180.842,13.985,179.983,15.431z"/>
	<path fill="#FFFFFF" d="M209.986,12.966c1.296,0.921,1.944,1.931,1.944,3.03c0,0.471-0.165,0.91-0.494,1.316
		c-0.33,0.407-0.838,0.61-1.525,0.61c-0.501,0-0.942-0.172-1.321-0.516c-0.38-0.345-0.655-0.846-0.827-1.505l-0.258-1.03
		c-0.187-0.76-0.509-1.296-0.967-1.611c-0.473-0.301-1.096-0.451-1.869-0.451c-1.633,0-3.012,0.714-4.136,2.142
		c-1.125,1.427-1.687,3.323-1.687,5.689c0,2.166,0.619,4.109,1.858,5.83c1.239,1.721,2.911,2.582,5.017,2.582
		c1.489,0,2.814-0.488,3.975-1.465c0.659-0.56,1.403-1.449,2.234-2.668l0.602,0.365c-0.816,1.721-1.676,3.082-2.578,4.086
		c-1.733,1.922-3.738,2.883-6.016,2.883c-2.234,0-4.211-0.881-5.93-2.644c-1.719-1.762-2.578-4.153-2.578-7.176
		c0-2.965,0.938-5.515,2.814-7.648c1.876-2.135,4.247-3.201,7.111-3.201C207.146,11.585,208.689,12.046,209.986,12.966z"/>
	<path fill="#FFFFFF" d="M229.332,13.788c1.52,1.396,2.277,3.377,2.277,5.939h-13.643c0.143,3.315,0.895,5.731,2.256,7.246
		c1.36,1.516,2.972,2.272,4.833,2.272c1.504,0,2.771-0.394,3.803-1.181c1.031-0.784,1.983-1.899,2.856-3.344l0.752,0.258
		c-0.587,1.822-1.686,3.508-3.297,5.058c-1.61,1.549-3.585,2.323-5.919,2.323c-2.693,0-4.773-1.018-6.241-3.051
		c-1.468-2.034-2.202-4.376-2.202-7.024c0-2.879,0.852-5.364,2.557-7.456c1.704-2.092,3.924-3.138,6.659-3.138
		C226.045,11.693,227.814,12.391,229.332,13.788z M219.042,15.431c-0.458,0.773-0.788,1.748-0.988,2.922h9.066
		c-0.157-1.432-0.429-2.499-0.815-3.201c-0.703-1.26-1.877-1.891-3.523-1.891C221.147,13.261,219.901,13.985,219.042,15.431z"/>
	<path fill="#FFFFFF" d="M244.973,31.029c1.619-0.172,2.668-0.459,3.148-0.864c0.479-0.406,0.719-1.437,0.719-3.088V7.503
		c0-1.562-0.236-2.582-0.709-3.062c-0.473-0.479-1.525-0.776-3.158-0.892V2.734h12.418V3.55c-1.617,0.086-2.703,0.351-3.254,0.795
		c-0.553,0.444-0.828,1.396-0.828,2.857v21.141c0,0.486,0.082,0.869,0.248,1.148c0.164,0.278,0.527,0.454,1.086,0.526
		c0.33,0.043,0.678,0.071,1.043,0.086c0.366,0.015,1.051,0.021,2.056,0.021c3.915,0,6.561-0.322,7.938-0.967
		c1.377-0.646,2.711-2.292,4-4.941h1.118l-2.149,7.627h-23.674v-0.815H244.973z"/>
	<path fill="#FFFFFF" d="M272.215,31.244c1.533-0.145,2.5-0.404,2.9-0.785c0.4-0.379,0.602-1.406,0.602-3.082V17.128
		c0-0.932-0.064-1.575-0.193-1.935c-0.215-0.587-0.666-0.881-1.354-0.881c-0.156,0-0.311,0.016-0.461,0.043
		c-0.15,0.029-0.584,0.145-1.301,0.345v-0.666l0.924-0.302c2.507-0.815,4.254-1.432,5.242-1.848c0.4-0.172,0.658-0.258,0.773-0.258
		c0.028,0.101,0.043,0.208,0.043,0.322v15.426c0,1.633,0.196,2.656,0.592,3.071c0.393,0.415,1.285,0.681,2.674,0.796v0.602h-10.441
		V31.244L272.215,31.244z M275.631,2.516c0.43-0.441,0.96-0.663,1.59-0.663c0.616,0,1.144,0.218,1.58,0.652
		c0.436,0.435,0.654,0.966,0.654,1.593c0,0.613-0.219,1.137-0.654,1.572c-0.438,0.435-0.964,0.651-1.58,0.651
		c-0.63,0-1.16-0.217-1.59-0.651c-0.43-0.436-0.645-0.959-0.645-1.572S275.201,2.958,275.631,2.516z"/>
	<path fill="#FFFFFF" d="M284.289,31.287c1.117-0.102,1.861-0.287,2.234-0.56c0.572-0.416,0.858-1.246,0.858-2.492V17.128
		c0-1.061-0.139-1.754-0.418-2.084c-0.278-0.329-0.741-0.494-1.387-0.494c-0.302,0-0.524,0.015-0.677,0.043
		c-0.149,0.029-0.325,0.079-0.526,0.15v-0.752l1.547-0.517c0.56-0.186,1.476-0.521,2.75-1.01c1.274-0.487,1.948-0.73,2.021-0.73
		s0.115,0.036,0.129,0.107c0.015,0.072,0.021,0.208,0.021,0.408v2.899c1.418-1.289,2.644-2.181,3.675-2.675
		c1.03-0.494,2.092-0.741,3.18-0.741c1.476,0,2.65,0.501,3.522,1.504c0.46,0.545,0.839,1.282,1.14,2.214
		c1.061-1.074,1.983-1.869,2.771-2.386c1.361-0.888,2.75-1.332,4.168-1.332c2.308,0,3.847,0.938,4.619,2.814
		c0.444,1.06,0.666,2.736,0.666,5.027v8.917c0,1.017,0.228,1.707,0.678,2.071c0.451,0.365,1.265,0.605,2.438,0.722v0.559h-9.689
		v-0.602c1.246-0.115,2.066-0.365,2.461-0.752c0.393-0.388,0.59-1.176,0.59-2.363v-9.26c0-1.39-0.149-2.413-0.451-3.072
		c-0.528-1.174-1.567-1.762-3.114-1.762c-0.931,0-1.854,0.308-2.771,0.924c-0.529,0.357-1.183,0.931-1.955,1.719v11
		c0,1.16,0.205,2.041,0.612,2.643c0.408,0.603,1.271,0.925,2.589,0.968v0.559h-9.861v-0.559c1.361-0.172,2.228-0.502,2.6-0.988
		c0.373-0.487,0.559-1.69,0.559-3.609v-6.004c0-2.201-0.143-3.716-0.43-4.545c-0.473-1.403-1.475-2.104-3.008-2.104
		c-0.873,0-1.732,0.239-2.578,0.72c-0.845,0.479-1.59,1.105-2.234,1.88v11.752c0,1.088,0.189,1.84,0.57,2.256
		c0.379,0.415,1.206,0.63,2.48,0.646v0.559h-9.775v-0.56H284.289z"/>
	<path fill="#FFFFFF" d="M318.664,31.244c1.533-0.145,2.5-0.404,2.9-0.785c0.4-0.379,0.602-1.406,0.602-3.082V17.128
		c0-0.932-0.064-1.575-0.193-1.935c-0.215-0.587-0.666-0.881-1.354-0.881c-0.157,0-0.311,0.016-0.461,0.043
		c-0.15,0.029-0.584,0.145-1.301,0.345v-0.666l0.924-0.302c2.507-0.815,4.254-1.432,5.242-1.848c0.4-0.172,0.658-0.258,0.772-0.258
		c0.029,0.101,0.043,0.208,0.043,0.322v15.426c0,1.633,0.197,2.656,0.593,3.071c0.393,0.415,1.284,0.681,2.674,0.796v0.602h-10.441
		V31.244L318.664,31.244z M322.08,2.516c0.43-0.441,0.96-0.663,1.59-0.663c0.616,0,1.143,0.218,1.58,0.652
		c0.436,0.435,0.654,0.966,0.654,1.593c0,0.613-0.219,1.137-0.654,1.572c-0.438,0.435-0.964,0.651-1.58,0.651
		c-0.63,0-1.16-0.217-1.59-0.651c-0.43-0.436-0.645-0.959-0.645-1.572S321.65,2.958,322.08,2.516z"/>
	<path fill="#FFFFFF" d="M341.223,12.037v1.547h-4.383l-0.043,12.375c0,1.088,0.094,1.912,0.279,2.471
		c0.344,0.988,1.018,1.482,2.02,1.482c0.516,0,0.963-0.122,1.344-0.365c0.379-0.244,0.812-0.631,1.299-1.16l0.56,0.473l-0.473,0.646
		c-0.744,1.002-1.532,1.711-2.363,2.127c-0.83,0.414-1.633,0.623-2.405,0.623c-1.689,0-2.837-0.752-3.438-2.256
		c-0.329-0.816-0.494-1.948-0.494-3.396v-13.02h-2.342c-0.071-0.043-0.125-0.086-0.16-0.129c-0.037-0.043-0.056-0.101-0.056-0.172
		c0-0.144,0.033-0.255,0.099-0.333c0.063-0.079,0.269-0.262,0.61-0.549c0.988-0.815,1.701-1.479,2.14-1.986
		c0.437-0.508,1.464-1.852,3.082-4.028c0.187,0,0.297,0.015,0.334,0.043c0.035,0.029,0.053,0.136,0.053,0.322v5.285H341.223z"/>
	<path fill="#FFFFFF" d="M357.637,13.788c1.52,1.396,2.277,3.377,2.277,5.939h-13.643c0.144,3.315,0.896,5.731,2.256,7.246
		c1.361,1.516,2.973,2.272,4.834,2.272c1.504,0,2.771-0.394,3.803-1.181c1.031-0.784,1.984-1.899,2.857-3.344l0.752,0.258
		c-0.588,1.822-1.687,3.508-3.297,5.058c-1.611,1.549-3.586,2.323-5.92,2.323c-2.692,0-4.773-1.018-6.24-3.051
		c-1.469-2.034-2.203-4.376-2.203-7.024c0-2.879,0.853-5.364,2.557-7.456c1.705-2.092,3.926-3.138,6.66-3.138
		C354.35,11.693,356.119,12.391,357.637,13.788z M347.346,15.431c-0.457,0.773-0.787,1.748-0.988,2.922h9.066
		c-0.156-1.432-0.43-2.499-0.816-3.201c-0.7-1.26-1.875-1.891-3.522-1.891C349.451,13.261,348.205,13.985,347.346,15.431z"/>
	<path fill="#FFFFFF" d="M375.082,12.23c0.572,0.302,1.125,0.716,1.654,1.246V6.644c0-0.874-0.096-1.475-0.289-1.805
		c-0.193-0.329-0.656-0.494-1.387-0.494c-0.172,0-0.322,0.007-0.451,0.021s-0.416,0.043-0.859,0.086V3.744l1.762-0.451
		c0.646-0.172,1.289-0.352,1.934-0.537c0.646-0.187,1.212-0.365,1.697-0.537c0.229-0.071,0.609-0.208,1.14-0.408l0.129,0.043
		l-0.043,2.256c-0.015,0.816-0.028,1.658-0.043,2.524c-0.015,0.867-0.021,1.723-0.021,2.567l-0.044,17.553
		c0,0.931,0.115,1.582,0.345,1.955c0.229,0.372,0.838,0.559,1.826,0.559c0.157,0,0.314-0.004,0.473-0.012
		c0.158-0.006,0.314-0.024,0.473-0.053v0.709c-0.086,0.027-1.124,0.387-3.115,1.073l-3.373,1.269l-0.15-0.193v-2.643
		c-0.801,0.873-1.495,1.496-2.084,1.869c-1.045,0.645-2.256,0.967-3.631,0.967c-2.435,0-4.407-0.941-5.918-2.826
		c-1.512-1.883-2.268-4.062-2.268-6.541c0-3.108,0.906-5.776,2.719-8.003c1.812-2.227,4.027-3.341,6.648-3.341
		C373.249,11.542,374.209,11.772,375.082,12.23z M375.705,28.945c0.688-0.658,1.031-1.281,1.031-1.868v-9.218
		c0-1.861-0.498-3.176-1.492-3.941c-0.996-0.767-1.967-1.149-2.912-1.149c-1.805,0-3.208,0.799-4.211,2.396
		c-1.002,1.597-1.504,3.562-1.504,5.896c0,2.307,0.533,4.362,1.602,6.167c1.066,1.806,2.66,2.707,4.779,2.707
		C374.115,29.934,375.018,29.604,375.705,28.945z"/>
</g>
</svg>
