<?xml version="1.0" encoding="utf-8"?>
<!-- Generator: Adobe Illustrator 16.0.0, SVG Export Plug-In . SVG Version: 6.00 Build 0)  -->
<!DOCTYPE svg PUBLIC "-//W3C//DTD SVG 1.1//EN" "http://www.w3.org/Graphics/SVG/1.1/DTD/svg11.dtd">
<svg version="1.1" id="Layer_1" xmlns="http://www.w3.org/2000/svg" xmlns:xlink="http://www.w3.org/1999/xlink" x="0px" y="0px"
	 width="550px" height="266px" viewBox="0 0 550 266" enable-background="new 0 0 550 266" xml:space="preserve">
<g>
	<path fill="#FFFFFF" d="M66.719,109.476h18.386c7.424,0,12.296,4.35,12.296,11.832c0,7.481-4.872,11.832-12.296,11.832H70.663
		v17.748h-3.944V109.476z M70.663,129.775h13.572c5.452,0,9.222-2.784,9.222-8.468c0-5.684-3.77-8.468-9.222-8.468H70.663V129.775z"
		/>
	<path fill="#FFFFFF" d="M102.214,130.123c0.348-7.018,5.278-10.034,12.122-10.034c5.278,0,11.02,1.624,11.02,9.628v15.892
		c0,1.392,0.696,2.204,2.146,2.204c0.406,0,0.87-0.116,1.16-0.232v3.074c-0.812,0.174-1.392,0.232-2.378,0.232
		c-3.712,0-4.292-2.088-4.292-5.22h-0.116c-2.552,3.886-5.162,6.09-10.904,6.09c-5.51,0-10.034-2.726-10.034-8.758
		c0-8.41,8.178-8.7,16.065-9.628c3.016-0.348,4.698-0.754,4.698-4.06c0-4.93-3.538-6.147-7.83-6.147
		c-4.524,0-7.888,2.088-8.004,6.959H102.214z M121.702,134.531h-0.116c-0.464,0.87-2.088,1.16-3.074,1.334
		c-6.206,1.102-13.92,1.044-13.92,6.902c0,3.654,3.248,5.916,6.67,5.916c5.568,0,10.498-3.538,10.44-9.396V134.531z"/>
	<path fill="#FFFFFF" d="M132.664,120.959h3.364v7.018h0.116c1.856-4.813,5.916-7.656,11.31-7.424v3.654
		c-6.612-0.348-11.136,4.524-11.136,10.729v15.95h-3.654V120.959z"/>
	<path fill="#FFFFFF" d="M150.934,120.959h3.364v7.018h0.116c1.856-4.813,5.916-7.656,11.31-7.424v3.654
		c-6.612-0.348-11.136,4.524-11.136,10.729v15.95h-3.654V120.959z"/>
	<path fill="#FFFFFF" d="M168.854,130.123c0.348-7.018,5.278-10.034,12.122-10.034c5.278,0,11.02,1.624,11.02,9.628v15.892
		c0,1.392,0.696,2.204,2.146,2.204c0.406,0,0.87-0.116,1.16-0.232v3.074c-0.812,0.174-1.392,0.232-2.378,0.232
		c-3.712,0-4.292-2.088-4.292-5.22h-0.116c-2.552,3.886-5.162,6.09-10.904,6.09c-5.51,0-10.034-2.726-10.034-8.758
		c0-8.41,8.178-8.7,16.065-9.628c3.016-0.348,4.698-0.754,4.698-4.06c0-4.93-3.538-6.147-7.83-6.147
		c-4.524,0-7.888,2.088-8.004,6.959H168.854z M188.342,134.531h-0.116c-0.464,0.87-2.088,1.16-3.074,1.334
		c-6.206,1.102-13.92,1.044-13.92,6.902c0,3.654,3.248,5.916,6.67,5.916c5.568,0,10.498-3.538,10.44-9.396V134.531z"/>
	<path fill="#FFFFFF" d="M199.305,120.959h3.364v5.046h0.174c1.914-3.596,5.045-5.916,9.802-5.916c3.944,0,7.481,1.914,8.583,5.858
		c1.798-3.944,5.568-5.858,9.512-5.858c6.554,0,9.918,3.422,9.918,10.498v20.299h-3.654v-20.125c0-4.93-1.856-7.598-7.076-7.598
		c-6.322,0-8.12,5.22-8.12,10.788v16.936h-3.654v-20.299c0.058-4.06-1.624-7.424-6.264-7.424c-6.322,0-8.874,4.756-8.932,11.02
		v16.704h-3.654V120.959z"/>
	<path fill="#FFFFFF" d="M247.27,130.123c0.348-7.018,5.278-10.034,12.122-10.034c5.278,0,11.02,1.624,11.02,9.628v15.892
		c0,1.392,0.696,2.204,2.146,2.204c0.406,0,0.87-0.116,1.16-0.232v3.074c-0.812,0.174-1.392,0.232-2.378,0.232
		c-3.712,0-4.292-2.088-4.292-5.22h-0.116c-2.552,3.886-5.162,6.09-10.904,6.09c-5.51,0-10.034-2.726-10.034-8.758
		c0-8.41,8.178-8.7,16.065-9.628c3.016-0.348,4.698-0.754,4.698-4.06c0-4.93-3.538-6.147-7.83-6.147
		c-4.524,0-7.888,2.088-8.004,6.959H247.27z M266.758,134.531h-0.116c-0.464,0.87-2.088,1.16-3.074,1.334
		c-6.206,1.102-13.92,1.044-13.92,6.902c0,3.654,3.248,5.916,6.67,5.916c5.568,0,10.498-3.538,10.44-9.396V134.531z"/>
	<path fill="#FFFFFF" d="M283.52,120.959h6.09v3.074h-6.09v20.184c0,2.378,0.348,3.77,2.958,3.944c1.044,0,2.088-0.058,3.132-0.174
		v3.132c-1.102,0-2.146,0.116-3.248,0.116c-4.872,0-6.554-1.624-6.496-6.728v-20.474h-5.22v-3.074h5.22v-8.99h3.654V120.959z"/>
	<path fill="#FFFFFF" d="M300.687,120.959h6.09v3.074h-6.09v20.184c0,2.378,0.348,3.77,2.958,3.944c1.044,0,2.088-0.058,3.132-0.174
		v3.132c-1.102,0-2.146,0.116-3.248,0.116c-4.872,0-6.554-1.624-6.496-6.728v-20.474h-5.22v-3.074h5.22v-8.99h3.654V120.959z"/>
	<path fill="#FFFFFF" d="M311.707,130.123c0.348-7.018,5.278-10.034,12.122-10.034c5.278,0,11.02,1.624,11.02,9.628v15.892
		c0,1.392,0.696,2.204,2.146,2.204c0.406,0,0.87-0.116,1.16-0.232v3.074c-0.812,0.174-1.392,0.232-2.378,0.232
		c-3.712,0-4.292-2.088-4.292-5.22h-0.116c-2.552,3.886-5.162,6.09-10.904,6.09c-5.51,0-10.034-2.726-10.034-8.758
		c0-8.41,8.178-8.7,16.065-9.628c3.016-0.348,4.698-0.754,4.698-4.06c0-4.93-3.538-6.147-7.83-6.147
		c-4.524,0-7.888,2.088-8.004,6.959H311.707z M331.194,134.531h-0.116c-0.464,0.87-2.088,1.16-3.074,1.334
		c-6.206,1.102-13.92,1.044-13.92,6.902c0,3.654,3.248,5.916,6.67,5.916c5.568,0,10.498-3.538,10.44-9.396V134.531z"/>
</g>
</svg>
