<?xml version="1.0" encoding="utf-8"?>
<!-- Generator: Adobe Illustrator 16.0.0, SVG Export Plug-In . SVG Version: 6.00 Build 0)  -->
<!DOCTYPE svg PUBLIC "-//W3C//DTD SVG 1.1//EN" "http://www.w3.org/Graphics/SVG/1.1/DTD/svg11.dtd">
<svg version="1.1" id="face" xmlns="http://www.w3.org/2000/svg" xmlns:xlink="http://www.w3.org/1999/xlink" x="0px" y="0px"
	 width="164px" height="184px" viewBox="32.5 145 164 184" enable-background="new 32.5 145 164 184" xml:space="preserve">
<g>
	<path fill="#F6F6F6" d="M72.928,253.31c-9.007-22.892,2.249-48.75,25.14-57.757c22.892-9.008,48.75,2.247,57.757,25.139
		L72.928,253.31z"/>
	<path fill="#E30613" d="M155.824,220.691c9.007,22.891-2.248,48.749-25.14,57.757c-22.892,9.007-48.75-2.249-57.757-25.139
		L155.824,220.691z"/>
	<circle fill="#9D9D9C" cx="114.394" cy="236.646" r="19.437"/>
	
		<rect x="103.503" y="235.611" transform="matrix(0.3693 0.9293 -0.9293 0.3693 292.0089 43.093)" fill="#706F6F" width="21.504" height="2.157"/>
	<path fill="#3AAA35" d="M92.029,205.262c3.236-2.31,6.754-1.241,8.879,1.735c2.126,2.976,1.992,6.652-1.242,8.962
		c-3.236,2.31-6.758,1.24-8.881-1.736C88.66,211.247,88.793,207.572,92.029,205.262z M98.023,213.657
		c1.726-1.231,1.299-3.229,0.211-4.75c-1.087-1.524-2.838-2.577-4.564-1.346c-1.727,1.233-1.298,3.229-0.21,4.754
		C94.548,213.838,96.297,214.89,98.023,213.657z"/>
	<path fill="#3AAA35" d="M103.156,199.714l5.91-0.997c2.317-0.392,4.677,0.308,5.171,3.252c0.521,3.085-1.036,4.584-3.774,5.046
		l-2.665,0.449l0.698,4.147l-3.242,0.548L103.156,199.714z M107.375,204.953l2.176-0.368c1.01-0.17,1.672-0.711,1.481-1.843
		c-0.195-1.168-1.023-1.514-2.019-1.347l-2.179,0.369L107.375,204.953z"/>
	<path fill="#3AAA35" d="M119.287,198.371l9.728,2.537l-0.663,2.547l-6.547-1.707l-0.558,2.137l5.982,1.56l-0.643,2.463
		l-5.982-1.561l-0.605,2.324l6.718,1.751l-0.714,2.734l-9.896-2.58L119.287,198.371z"/>
	<path fill="#3AAA35" d="M134.688,203.741l2.592,2.164l-1.617,8.778l0.027,0.022l4.981-5.972l2.375,1.983l-8.084,9.687l-2.591-2.163
		l1.675-8.846l-0.028-0.022l-5.039,6.038l-2.375-1.982L134.688,203.741z"/>
</g>
</svg>
