<?xml version="1.0" encoding="utf-8"?>
<!-- Generator: Adobe Illustrator 15.0.2, SVG Export Plug-In . SVG Version: 6.00 Build 0)  -->
<!DOCTYPE svg PUBLIC "-//W3C//DTD SVG 1.1//EN" "http://www.w3.org/Graphics/SVG/1.1/DTD/svg11.dtd">
<svg version="1.1" id="Layer_1" xmlns="http://www.w3.org/2000/svg" xmlns:xlink="http://www.w3.org/1999/xlink" x="0px" y="0px"
	 width="442px" height="35px" viewBox="0.02 0.302 442 35" enable-background="new 0.02 0.302 442 35" xml:space="preserve">
<g>
	<path fill="#FFFFFF" d="M1.881,1.496h14.39c5.193,0,9.549,2.508,9.549,8.185c0,3.96-2.068,7.217-6.117,8.009v0.088
		c4.092,0.528,5.281,3.346,5.5,7.085c0.132,2.156,0.132,6.47,1.452,8.054h-3.3c-0.748-1.231-0.748-3.564-0.836-4.885
		c-0.264-4.4-0.616-9.285-6.293-9.065H4.874v13.95H1.881V1.496z M4.874,16.414h11.177c3.653,0,6.777-2.288,6.777-6.117
		s-2.288-6.249-6.777-6.249H4.874V16.414z"/>
	<path fill="#FFFFFF" d="M32.329,22.311c0.044,4.049,2.156,8.935,7.481,8.935c4.049,0,6.249-2.376,7.129-5.81h2.772
		c-1.188,5.148-4.181,8.142-9.902,8.142c-7.217,0-10.253-5.545-10.253-12.014c0-5.984,3.037-12.014,10.253-12.014
		c7.305,0,10.209,6.381,9.99,12.761H32.329z M47.027,19.979c-0.132-4.181-2.729-8.097-7.217-8.097c-4.533,0-7.041,3.96-7.481,8.097
		H47.027z"/>
	<path fill="#FFFFFF" d="M55.165,22.311c0.044,4.049,2.156,8.935,7.481,8.935c4.049,0,6.249-2.376,7.129-5.81h2.772
		c-1.188,5.148-4.181,8.142-9.902,8.142c-7.217,0-10.253-5.545-10.253-12.014c0-5.984,3.037-12.014,10.253-12.014
		c7.305,0,10.209,6.381,9.99,12.761H55.165z M69.863,19.979c-0.132-4.181-2.729-8.097-7.217-8.097c-4.533,0-7.041,3.96-7.481,8.097
		H69.863z"/>
	<path fill="#FFFFFF" d="M92.391,17.338c-0.748-3.389-2.816-5.457-6.425-5.457c-5.325,0-7.965,4.841-7.965,9.682
		c0,4.84,2.641,9.682,7.965,9.682c3.432,0,6.249-2.685,6.601-6.47h2.772c-0.748,5.457-4.312,8.802-9.373,8.802
		c-6.953,0-10.738-5.5-10.738-12.014c0-6.513,3.785-12.014,10.738-12.014c4.84,0,8.581,2.596,9.197,7.789H92.391z"/>
	<path fill="#FFFFFF" d="M100.836,22.311c0.044,4.049,2.156,8.935,7.481,8.935c4.049,0,6.249-2.376,7.129-5.81h2.772
		c-1.188,5.148-4.181,8.142-9.902,8.142c-7.217,0-10.253-5.545-10.253-12.014c0-5.984,3.037-12.014,10.253-12.014
		c7.305,0,10.209,6.381,9.99,12.761H100.836z M115.535,19.979c-0.132-4.181-2.729-8.097-7.217-8.097
		c-4.533,0-7.041,3.96-7.481,8.097H115.535z"/>
	<path fill="#FFFFFF" d="M144.001,1.496h3.345l12.322,31.42h-3.212l-3.829-9.771h-14.302l-3.785,9.771h-3.212L144.001,1.496z
		 M139.249,20.595h12.366L145.542,4.49L139.249,20.595z"/>
	<path fill="#FFFFFF" d="M180.39,32.916h-2.553v-4.092h-0.088c-1.452,3.035-4.444,4.752-7.833,4.752
		c-5.721,0-7.965-3.345-7.965-8.625V10.209h2.772v14.786c0.132,4.093,1.672,6.249,6.073,6.249c4.753,0,6.821-4.488,6.821-9.109
		V10.209h2.772L180.39,32.916L180.39,32.916z"/>
	<path fill="#FFFFFF" d="M199.221,16.854c-0.132-3.432-2.772-4.973-5.941-4.973c-2.464,0-5.369,0.968-5.369,3.917
		c0,2.464,2.816,3.345,4.708,3.829l3.697,0.836c3.168,0.483,6.469,2.332,6.469,6.293c0,4.929-4.885,6.82-9.109,6.82
		c-5.281,0-8.889-2.465-9.329-8.01h2.772c0.22,3.741,2.992,5.678,6.689,5.678c2.596,0,6.205-1.146,6.205-4.312
		c0-2.641-2.464-3.521-4.973-4.137l-3.564-0.792c-3.608-0.968-6.337-2.2-6.337-6.073c0-4.621,4.533-6.381,8.537-6.381
		c4.533,0,8.141,2.376,8.317,7.305H199.221z"/>
	<path fill="#FFFFFF" d="M211.187,10.209h4.621v2.333h-4.621v15.313c0,1.806,0.264,2.861,2.244,2.992
		c0.792,0,1.584-0.043,2.376-0.131v2.376c-0.836,0-1.628,0.088-2.464,0.088c-3.696,0-4.973-1.231-4.929-5.104V12.542h-3.96v-2.333
		h3.96V3.388h2.772L211.187,10.209L211.187,10.209z"/>
	<path fill="#FFFFFF" d="M219.81,10.209h2.551v5.325h0.089c1.407-3.653,4.489-5.81,8.581-5.634v2.772
		c-5.018-0.264-8.449,3.432-8.449,8.141v12.102h-2.772V10.209L219.81,10.209z"/>
	<path fill="#FFFFFF" d="M233.404,17.162c0.266-5.325,4.006-7.613,9.197-7.613c4.006,0,8.361,1.232,8.361,7.305v12.059
		c0,1.057,0.528,1.672,1.628,1.672c0.31,0,0.66-0.088,0.882-0.176v2.332c-0.617,0.133-1.058,0.176-1.806,0.176
		c-2.815,0-3.257-1.584-3.257-3.96h-0.088c-1.938,2.947-3.918,4.62-8.272,4.62c-4.182,0-7.612-2.068-7.612-6.646
		c0-6.381,6.205-6.601,12.188-7.305c2.288-0.265,3.563-0.572,3.563-3.081c0-3.74-2.685-4.665-5.94-4.665
		c-3.433,0-5.983,1.584-6.072,5.281L233.404,17.162L233.404,17.162z M248.191,20.507h-0.088c-0.353,0.66-1.584,0.88-2.332,1.012
		c-4.709,0.836-10.562,0.792-10.562,5.237c0,2.771,2.465,4.488,5.061,4.488c4.226,0,7.967-2.685,7.922-7.129V20.507L248.191,20.507z
		"/>
	<path fill="#FFFFFF" d="M256.549,1.496h2.773v31.42h-2.773V1.496z"/>
	<path fill="#FFFFFF" d="M264.689,1.496h2.771V5.94h-2.771V1.496z M264.689,10.209h2.771v22.707h-2.771V10.209z"/>
	<path fill="#FFFFFF" d="M272.521,17.162c0.264-5.325,4.004-7.613,9.196-7.613c4.005,0,8.361,1.232,8.361,7.305v12.059
		c0,1.057,0.526,1.672,1.627,1.672c0.31,0,0.66-0.088,0.881-0.176v2.332c-0.616,0.133-1.058,0.176-1.805,0.176
		c-2.816,0-3.257-1.584-3.257-3.96h-0.088c-1.937,2.947-3.916,4.62-8.272,4.62c-4.181,0-7.613-2.068-7.613-6.646
		c0-6.381,6.205-6.601,12.189-7.305c2.288-0.265,3.563-0.572,3.563-3.081c0-3.74-2.684-4.665-5.939-4.665
		c-3.434,0-5.985,1.584-6.073,5.281L272.521,17.162L272.521,17.162z M287.307,20.507h-0.088c-0.352,0.66-1.584,0.88-2.332,1.012
		c-4.709,0.836-10.562,0.792-10.562,5.237c0,2.771,2.464,4.488,5.061,4.488c4.226,0,7.966-2.685,7.921-7.129V20.507L287.307,20.507z
		"/>
	<path fill="#FFFFFF" d="M308.381,1.496h2.992v28.868h17.604v2.552h-20.596V1.496z"/>
	<path fill="#FFFFFF" d="M331.523,1.496h2.772V5.94h-2.772V1.496z M331.523,10.209h2.772v22.707h-2.772V10.209z"/>
	<path fill="#FFFFFF" d="M339.621,10.209h2.552v3.829h0.132c1.452-2.729,3.828-4.488,7.438-4.488c2.991,0,5.676,1.452,6.513,4.444
		c1.364-2.992,4.225-4.444,7.217-4.444c4.973,0,7.525,2.596,7.525,7.965v15.402h-2.771V17.647c0-3.74-1.408-5.765-5.369-5.765
		c-4.797,0-6.16,3.96-6.16,8.185v12.851h-2.773V17.514c0.045-3.081-1.23-5.633-4.752-5.633c-4.797,0-6.732,3.609-6.777,8.361v12.673
		h-2.771V10.209H339.621z"/>
	<path fill="#FFFFFF" d="M376.316,1.496h2.771V5.94h-2.771V1.496z M376.316,10.209h2.771v22.707h-2.771V10.209z"/>
	<path fill="#FFFFFF" d="M388.812,10.209h4.621v2.333h-4.621v15.313c0,1.806,0.264,2.861,2.244,2.992
		c0.793,0,1.584-0.043,2.377-0.131v2.376c-0.836,0-1.629,0.088-2.466,0.088c-3.696,0-4.973-1.231-4.929-5.104V12.542h-3.96v-2.333
		h3.96V3.388h2.771v6.821H388.812z"/>
	<path fill="#FFFFFF" d="M399.064,22.311c0.043,4.049,2.156,8.935,7.479,8.935c4.049,0,6.25-2.376,7.129-5.81h2.772
		c-1.188,5.148-4.182,8.142-9.901,8.142c-7.217,0-10.254-5.545-10.254-12.014c0-5.984,3.037-12.014,10.254-12.014
		c7.306,0,10.209,6.381,9.99,12.761H399.064z M413.762,19.979c-0.131-4.181-2.729-8.097-7.217-8.097c-4.533,0-7.041,3.96-7.48,8.097
		H413.762z"/>
	<path fill="#FFFFFF" d="M440.25,32.916h-2.553v-4.312h-0.088c-1.188,2.949-4.795,4.974-8.097,4.974
		c-6.91,0-10.211-5.588-10.211-12.014c0-6.425,3.301-12.014,10.211-12.014c3.39,0,6.688,1.716,7.877,4.973h0.088V1.496h2.771
		L440.25,32.916L440.25,32.916z M429.514,31.244c5.896,0,7.965-4.974,7.965-9.682c0-4.709-2.067-9.682-7.965-9.682
		c-5.28,0-7.438,4.973-7.438,9.682C422.076,26.271,424.232,31.244,429.514,31.244z"/>
</g>
</svg>
