<?xml version="1.0" encoding="utf-8"?>
<!-- Generator: Adobe Illustrator 16.0.0, SVG Export Plug-In . SVG Version: 6.00 Build 0)  -->
<!DOCTYPE svg PUBLIC "-//W3C//DTD SVG 1.1//EN" "http://www.w3.org/Graphics/SVG/1.1/DTD/svg11.dtd">
<svg version="1.1" id="Layer_1" xmlns="http://www.w3.org/2000/svg" xmlns:xlink="http://www.w3.org/1999/xlink" x="0px" y="0px"
	 width="286px" height="156px" viewBox="0 0 286 156" enable-background="new 0 0 286 156" xml:space="preserve">
<path fill="#37B34A" d="M163.012,130.083l-0.062-0.003c0.033,0.005,0.056,0.013,0.056,0.025c0,0,0,0.119,0,0.121L163.012,130.083z"
	/>
<g>
	
		<polyline fill="none" stroke="#FFFFFF" stroke-width="1.0308" stroke-linecap="round" stroke-linejoin="round" stroke-miterlimit="10" points="
		209.941,81.028 239.096,69.565 285,69.565 	"/>
	<g>
		<path fill="#FFFFFF" d="M240.979,57.513h0.77v7.438h4.535v0.657h-5.305V57.513z"/>
		<path fill="#FFFFFF" d="M246.863,61.549c0.068-1.372,1.031-1.962,2.369-1.962c1.031,0,2.154,0.317,2.154,1.883v3.106
			c0,0.271,0.135,0.431,0.42,0.431c0.078,0,0.17-0.023,0.227-0.046v0.602c-0.16,0.033-0.273,0.045-0.465,0.045
			c-0.727,0-0.84-0.408-0.84-1.021h-0.023c-0.498,0.76-1.008,1.19-2.131,1.19c-1.076,0-1.961-0.533-1.961-1.712
			c0-1.644,1.598-1.7,3.141-1.882c0.59-0.068,0.918-0.147,0.918-0.794c0-0.963-0.691-1.201-1.531-1.201
			c-0.883,0-1.541,0.408-1.564,1.36H246.863z M250.672,62.41h-0.023c-0.09,0.17-0.408,0.227-0.6,0.261
			c-1.213,0.216-2.721,0.204-2.721,1.35c0,0.714,0.635,1.156,1.303,1.156c1.088,0,2.053-0.691,2.041-1.837V62.41z"/>
		<path fill="#FFFFFF" d="M252.816,57.513h0.713v3.355h0.023c0.307-0.839,1.156-1.281,2.029-1.281c1.779,0,2.631,1.44,2.631,3.096
			s-0.852,3.095-2.631,3.095c-0.941,0-1.758-0.487-2.086-1.281h-0.023v1.111h-0.656V57.513z M255.582,60.188
			c-1.52,0-2.053,1.281-2.053,2.494s0.533,2.494,2.053,2.494c1.359,0,1.916-1.281,1.916-2.494S256.941,60.188,255.582,60.188z"/>
		<path fill="#FFFFFF" d="M259.324,59.758h0.656v1.371h0.023c0.363-0.94,1.156-1.496,2.211-1.451v0.715
			c-1.293-0.068-2.178,0.884-2.178,2.097v3.118h-0.713V59.758z"/>
		<path fill="#FFFFFF" d="M262.826,61.549c0.068-1.372,1.031-1.962,2.369-1.962c1.033,0,2.154,0.317,2.154,1.883v3.106
			c0,0.271,0.137,0.431,0.42,0.431c0.08,0,0.17-0.023,0.227-0.046v0.602c-0.158,0.033-0.271,0.045-0.465,0.045
			c-0.725,0-0.838-0.408-0.838-1.021h-0.023c-0.498,0.76-1.01,1.19-2.131,1.19c-1.078,0-1.963-0.533-1.963-1.712
			c0-1.644,1.6-1.7,3.141-1.882c0.59-0.068,0.92-0.147,0.92-0.794c0-0.963-0.693-1.201-1.531-1.201c-0.885,0-1.541,0.408-1.564,1.36
			H262.826z M266.637,62.41h-0.023c-0.09,0.17-0.408,0.227-0.602,0.261c-1.213,0.216-2.721,0.204-2.721,1.35
			c0,0.714,0.635,1.156,1.305,1.156c1.088,0,2.051-0.691,2.041-1.837V62.41z"/>
		<path fill="#FFFFFF" d="M273.926,65.607h-0.656v-1.111h-0.023c-0.307,0.76-1.236,1.281-2.086,1.281
			c-1.779,0-2.631-1.439-2.631-3.095s0.852-3.096,2.631-3.096c0.873,0,1.723,0.442,2.029,1.281h0.023v-3.355h0.713V65.607z
			 M271.16,65.177c1.52,0,2.053-1.281,2.053-2.494s-0.533-2.494-2.053-2.494c-1.361,0-1.916,1.281-1.916,2.494
			S269.799,65.177,271.16,65.177z"/>
		<path fill="#FFFFFF" d="M280.525,62.683c0,1.678-0.975,3.095-2.766,3.095s-2.766-1.417-2.766-3.095s0.975-3.096,2.766-3.096
			S280.525,61.005,280.525,62.683z M275.707,62.683c0,1.247,0.682,2.494,2.053,2.494s2.053-1.247,2.053-2.494
			s-0.682-2.494-2.053-2.494S275.707,61.436,275.707,62.683z"/>
		<path fill="#FFFFFF" d="M281.592,59.758h0.658v1.371h0.021c0.363-0.94,1.156-1.496,2.211-1.451v0.715
			c-1.293-0.068-2.176,0.884-2.176,2.097v3.118h-0.715V59.758z"/>
	</g>
	<circle fill="#FFFFFF" cx="209.942" cy="81.028" r="2.321"/>
</g>
</svg>
