<?xml version="1.0" encoding="utf-8"?>
<!-- Generator: Adobe Illustrator 16.0.0, SVG Export Plug-In . SVG Version: 6.00 Build 0)  -->
<!DOCTYPE svg PUBLIC "-//W3C//DTD SVG 1.1//EN" "http://www.w3.org/Graphics/SVG/1.1/DTD/svg11.dtd">
<svg version="1.1" id="Layer_1" xmlns="http://www.w3.org/2000/svg" xmlns:xlink="http://www.w3.org/1999/xlink" x="0px" y="0px"
	 width="286px" height="156px" viewBox="0 0 286 156" enable-background="new 0 0 286 156" xml:space="preserve">
<path fill="#37B34A" d="M163.012,130.083l-0.062-0.003c0.032,0.005,0.056,0.013,0.056,0.025c0,0,0,0.119,0,0.121L163.012,130.083z"
	/>
<g>
	
		<polyline fill="none" stroke="#FFFFFF" stroke-width="1.0308" stroke-linecap="round" stroke-linejoin="round" stroke-miterlimit="10" points="
		192.426,112.367 220.58,100.904 266.484,100.904 	"/>
	<g>
		<path fill="#FFFFFF" d="M222.462,88.852h5.136v0.657h-4.365v2.925h3.879v0.658h-3.879v3.854h-0.771V88.852z"/>
		<path fill="#FFFFFF" d="M227.757,91.098h0.761l1.928,4.987l1.803-4.987h0.714l-2.54,6.744c-0.408,0.986-0.646,1.27-1.541,1.27
			c-0.283-0.01-0.432-0.01-0.545-0.057v-0.601c0.17,0.034,0.329,0.057,0.487,0.057c0.636,0,0.782-0.374,1.021-0.918l0.25-0.669
			L227.757,91.098z"/>
		<path fill="#FFFFFF" d="M237.168,92.809c-0.034-0.885-0.715-1.281-1.529-1.281c-0.637,0-1.385,0.25-1.385,1.01
			c0,0.635,0.727,0.861,1.213,0.986l0.953,0.216c0.816,0.124,1.666,0.601,1.666,1.62c0,1.271-1.258,1.758-2.348,1.758
			c-1.359,0-2.289-0.635-2.402-2.062h0.714c0.058,0.963,0.771,1.463,1.724,1.463c0.67,0,1.6-0.295,1.6-1.111
			c0-0.68-0.635-0.907-1.281-1.065l-0.918-0.204c-0.93-0.25-1.633-0.566-1.633-1.563c0-1.19,1.168-1.646,2.199-1.646
			c1.168,0,2.098,0.612,2.143,1.883h-0.715V92.809z"/>
		<path fill="#FFFFFF" d="M239.105,88.852h0.715v3.254h0.022c0.261-0.703,1.044-1.18,1.87-1.18c1.645,0,2.143,0.862,2.143,2.258
			v3.764h-0.713v-3.65c0-1.009-0.33-1.77-1.485-1.77c-1.134,0-1.813,0.861-1.837,2.008v3.412h-0.715V88.852L239.105,88.852z"/>
		<path fill="#FFFFFF" d="M244.617,91.098h0.76l1.496,5.01h0.021l1.43-5.01h0.805l1.43,5.01h0.021l1.497-5.01h0.76l-1.882,5.85
			h-0.783l-1.439-4.92h-0.021l-1.429,4.92H246.5L244.617,91.098z"/>
		<path fill="#FFFFFF" d="M253.619,88.852h0.715v1.146h-0.715V88.852z M253.619,91.098h0.715v5.85h-0.715V91.098z"/>
		<path fill="#FFFFFF" d="M259.832,92.934c-0.191-0.873-0.727-1.406-1.655-1.406c-1.37,0-2.052,1.248-2.052,2.494
			c0,1.248,0.682,2.494,2.052,2.494c0.886,0,1.61-0.69,1.701-1.666h0.714c-0.191,1.405-1.111,2.268-2.415,2.268
			c-1.791,0-2.766-1.417-2.766-3.096c0-1.678,0.975-3.096,2.766-3.096c1.247,0,2.212,0.67,2.37,2.008H259.832z"/>
		<path fill="#FFFFFF" d="M261.591,88.852h0.714v5.08l3.242-2.834h0.952l-2.494,2.164l2.665,3.686h-0.896l-2.312-3.187l-1.155,0.964
			v2.223h-0.715L261.591,88.852L261.591,88.852z"/>
	</g>
	<circle fill="#FFFFFF" cx="192.426" cy="112.367" r="2.321"/>
</g>
</svg>
