<?xml version="1.0" encoding="utf-8"?>
<!-- Generator: Adobe Illustrator 16.0.0, SVG Export Plug-In . SVG Version: 6.00 Build 0)  -->
<!DOCTYPE svg PUBLIC "-//W3C//DTD SVG 1.1//EN" "http://www.w3.org/Graphics/SVG/1.1/DTD/svg11.dtd">
<svg version="1.1" id="Layer_1" xmlns="http://www.w3.org/2000/svg" xmlns:xlink="http://www.w3.org/1999/xlink" x="0px" y="0px"
	 width="286px" height="156px" viewBox="-77.5 70.5 286 156" enable-background="new -77.5 70.5 286 156" xml:space="preserve">
<path fill="#003056" d="M137.312,149.945c-0.367-0.913,0.433-3.166,0.062-2.98c-0.367,0.186-3.312-2.373-3.929-4.502
	c-0.612-2.13-1.655-1.462-2.147-2.07c-0.487-0.607-0.062-2.129-0.61-2.25c-0.556-0.123-1.535,0.975-1.229-2.252
	c0.308-3.227-0.733-3.164-0.733-3.164s0.188,1.156-0.556,0.547c-0.733-0.607-1.842-2.555-1.842-1.096
	c0,1.461-0.646,0.428-0.646,0.428s-0.951-0.305-1.013-1.584c-0.062-1.275,0.367-1.764-0.433-2.676c-0.799-0.914,0-1.277-0.553-2.008
	c-0.556-0.73-1.904-1.705-1.781-2.252s1.047-0.121,1.047-0.121s-0.924-1.339-1.291-1.703c-0.366-0.365-0.799-0.062-0.799-0.062
	s-0.553-0.486-0.553-0.79s0-0.122-1.046-0.729c-1.043-0.609-0.799-1.156-1.043-0.609c-0.245,0.549-0.981-1.217-1.409-1.764
	c-0.435-0.549-1.658,0-1.603-0.853c0.062-0.853,0,0.425-1.164-0.365c-1.166-0.791-1.899-1.644-1.596-2.981
	c0.307-1.34-0.308-1.459-0.615-1.399c-0.308,0.062,0.558-1.399-0.123-4.26c-0.674-2.859-2.086-2.737-2.086-4.259
	c0-1.521-0.799-4.563-0.369-5.842c0.433-1.277-1.965-1.703-2.332-2.312c-0.366-0.608-1.166-1.947-1.166-1.947
	s-0.489,0.608-0.979,0.608c-0.489,0-0.858,1.824-1.532,0.607c-0.679-1.217-1.535-3.955-1.354-5.416s0.186-2.007,0.186-2.007
	s-1.163-0.183-0.799-0.548c0.367-0.365,0.062-0.426-0.187-0.791c-0.241-0.366-1.043-0.73-0.799-1.521
	c0.246-0.791,0.558-0.974-0.369-1.277c-0.92-0.305-0.674-1.582-0.674-3.042c0-1.461-0.31-0.486-0.797-1.278
	c-0.492-0.79-0.246-2.312-1.045-1.582c-0.798,0.73-0.921,1.278-1.351,1.826c-0.433,0.547-0.31,2.738-0.8,3.467
	c-0.491,0.731,0,1.338-0.799,1.583c-0.8,0.243-1.104,1.46-0.92,1.644c0.185,0.183,1.043,0.486,1.043,0.486s-0.49,0.73-0.736,0.912
	c-0.245,0.184-0.674,0.731-0.307,1.4c0.365,0.669-0.556,1.582-0.801,2.129c-0.245,0.548,0,1.156,0.245,1.643
	c0.244,0.487,0.369,1.035,0.123,1.34c-0.246,0.304,0.062,1.095,0,1.826c-0.062,0.729,0.612,0.668-0.368,2.676
	s-0.677,3.529-1.043,4.32c-0.368,0.791-1.533,2.86-1.779,3.467c-0.244,0.609-1.599,3.043-3.375,2.436
	c-1.781-0.607-2.211-0.549-2.767-1.278c-0.554-0.729-1.776-1.095-1.845-1.764c-0.059-0.655,0.505-1.19-1.418-1.317l-0.941,41.192
	l8.975,0.112l0.475,0.504l-0.645,12.488c3.979,0.293,28.34,2.076,29.719,2.248c0.75,0.094,0.899-0.059,1.274-0.416
	c0.218-0.207,0.484-0.465,0.907-0.709c1.354-0.783,3.459-1.063,4.689-0.047c0.57,0.475,0.97,0.539,1.316,0.598
	c0.271,0.045,0.577,0.096,0.832,0.347c0.293,0.289,0.854,1.192,1.198,1.764c0.544-0.329,1.44-0.771,2.157-0.612
	c0.146-0.035,0.281-0.438,0.342-0.608c0.105-0.312,0.206-0.606,0.412-0.812c0.377-0.373,1.066-0.625,2.115-0.774
	c0.408-0.058,0.859,0.101,1.299,0.253c0.22,0.077,0.55,0.189,0.656,0.18c0.52-0.472,1.57-0.352,1.875-0.305
	c0.061-0.48,0.086-0.854,0.073-1.083c0,0-0.188-0.485-0.557-1.276c-0.368-0.793-0.368-2.188,0-2.678
	c0.366-0.488,0.123-2.557,0.188-3.469C136.945,150.615,137.682,150.857,137.312,149.945z"/>
</svg>
