<?xml version="1.0" encoding="utf-8"?>
<!-- Generator: Adobe Illustrator 16.0.0, SVG Export Plug-In . SVG Version: 6.00 Build 0)  -->
<!DOCTYPE svg PUBLIC "-//W3C//DTD SVG 1.1//EN" "http://www.w3.org/Graphics/SVG/1.1/DTD/svg11.dtd">
<svg version="1.1" id="Layer_1" xmlns="http://www.w3.org/2000/svg" xmlns:xlink="http://www.w3.org/1999/xlink" x="0px" y="0px"
	 width="286px" height="156px" viewBox="-77.5 70.5 286 156" enable-background="new -77.5 70.5 286 156" xml:space="preserve">
	<path fill="#0075A0" d="M-26.535,140.857c-2.286-11.496,2.6-13.897,9.523-17.211c8.602-4.114,17.145,1.729,21.334-9.42
		c4.189-11.151,7.122-12.443,15.62-18.154c2.234-1.502-1.225-6.374,1.578-8.983c3.882-3.616,14.236,0,18.734,0
		c5.184,0,6.354-9.569,17.021-9.569c10.666,0,13.375-7.02,17.586-2.636c7.742,8.06-0.801,17.41,2.377,21.981
		c3.178,4.572,9.688,0.223,10.104-3.451c0.412-3.673,1.178-19.674,6.891-21.197c5.715-1.524,12.934-4.758,15.99,5.431
		c3.058,10.189-0.754,23.458,9.916,25.776c10.666,2.318,16.008,5.746,17.338,15.651s5.592,18.827,6.889,26.748
		c1.299,7.921,5.182,30.7,0,35.692c-5.18,4.989-15.846,2.392-15.846,11.5c0,9.106,3.43,15.205-4.951,15.967
		c-8.383,0.763-11.096,2.668-11.07,6.856c0.022,4.188-7.707,9.146-10.317,9.146s-9.618-0.906-10.229-11.87
		c-0.613-10.964-7.818-1.386-12.097-8.597c-9.196-15.511-15.715-8.42-24.479-11.502c-8.763-3.08,4.877-16.104-7.086-13.781
		c-11.967,2.32-23.395,16.796-30.252,16.796s-33.524,8.382-33.524-0.382c0-8.762,9.145-9.867,3.81-16.742
		c-5.335-6.877-12.954-11.785-12.954-17.521S-26.535,140.857-26.535,140.857z"/>
	<path fill="#37B34A" d="M108.148,208.45h-0.944c0,0-2.472,0.599-3.486,0.72c-1.017,0.119-2.104-0.242-2.688-0.66
		s-2.09-1.732-2.76-1.732c-0.437,0,0.942,5.508,1.233,6.225c0.291,0.723,0.146,0.48-0.508,0.604
		c-0.654,0.119,0.871,2.215,1.088,2.812c0.219,0.603,0.942,0.838,1.455,1.438c0.508,0.601,0.649,0.719,1.45,1.314
		c0.8,0.6,1.89,0.119,1.962-0.12c0.069-0.237,0.801-1.677,1.231-1.854c0.438-0.178,1.312-1.195,1.452-1.854
		c0.146-0.658-0.071-1.854,0.511-2.634c0.58-0.78,1.159-1.317,1.813-2.575c0.651-1.259-0.146-2.035-0.146-2.035L108.148,208.45z"/>
	<path fill="#37B34A" d="M85.313,199.794l2.727-52.899l-46.913-0.744l-0.067,26.593H40.94c1.159,1,4.707-2.214,6.313-2.146
		c2.947,0.123,5.896-2.107,7.858-0.164c1.964,1.945,3.068,2.107,4.787,3.205c1.72,1.096,1.229,2.452,2.578,3.791
		c1.354,1.34,4.174,6.338,4.174,6.338s1.359-1.141,2.689-2.093c0.75-0.534,1.488-1.01,1.977-1.187
		c1.354-0.487,3.688-3.527,3.688-3.527s-0.246,2.921-0.615,3.287c-0.367,0.365-1.352,4.259-1.842,4.381
		c-0.104,0.025-0.33,0.159-0.576,0.346l1.203,1.51c0.287-0.034,0.605-0.082,0.969-0.147c5.402-0.974,3.316-0.853,3.316-0.364
		c0,0.485,0,1.461,0.979,2.312c0.979,0.851,3.562,4.14,3.312,5.354c-0.246,1.219,0.489,4.381,1.967,5.479
		c0.396,0.298,0.922,0.709,1.629,0.709c0.104,0,0.238-0.006,0.35-0.006L85.313,199.794z"/>
	<path fill="#37B34A" d="M42.285,96.143l-1.031-0.047l-0.125,49.25l37.486,0.469l0.943-41.217
		c-1.521-0.285-2.979-1.039-3.275-1.873c-0.368-1.033-1.041-0.668-1.717-1.154c-0.674-0.486-2.083-1.034-2.329-1.096
		c-0.245-0.062-0.551-0.425-1.104-0.729c-0.551-0.305-1.229-1.219-1.719-1.583c-0.49-0.366-0.184,0.669-0.43,0.853
		c-0.246,0.183-0.799-0.062-1.289-0.853s-2.641-3.042-1.965-4.198c0.677-1.156,1.412-2.068,1.354-2.98
		c-0.062-0.914-0.615-2.252,0.307-2.435c0.92-0.183,2.334,0.974,2.762-0.792c0.432-1.764,0.859-3.285,0.125-3.285
		c-0.738,0-1.537,0.062-1.537,0.486c0,0.426-1.104,0.184-1.104,0.184s-1.168-0.549-1.107-1.097
		c0.062-0.547-1.104-0.244-0.857-0.487c0.244-0.242-1.533,0.062-2.086,0.184c-0.555,0.122-1.66,1.095-2.148-0.061
		c-0.492-1.156-0.858-0.183-1.598-0.123c-0.736,0.062-1.045,0.123-1.045,0.123s-0.121-0.365-0.307-0.608
		c-0.184-0.243-0.859,0.304-1.043-0.185c-0.187-0.486,0.613-0.607-0.676-0.486s-1.412-0.547-1.72,0
		c-0.307,0.548,0.308,2.373-0.858,2.19c-1.166-0.182-2.334,0.183-2.519-0.485c-0.185-0.67-0.553-0.123-0.553-0.123
		s-0.92-0.305-0.98,0.184c-0.062,0.486-0.924,0.912-1.721,1.277c-0.799,0.365-1.043,2.13-1.533,2.252
		c-0.491,0.121,0.613,1.033-0.062,1.643c-0.675,0.608-1.533,0.608-1.533,0.608l-0.123,1.46c0,0-0.492,1.338-0.98,1.46
		c-0.491,0.122-0.983,0.729-0.615,1.339c0.369,0.607,1.104,1.945,1.104,1.945l-0.611,0.365L42.285,96.143z"/>
	<path fill="#37B34A" d="M40.098,172.742l0.192-77l-0.375,0.132l-1.608,1.063c-0.013,0.295-0.384,0.272-0.384,0.272
		s0.054-1.133-1.353-2.524c-2.823-2.799-3.069-4.011-6.017-2.064c-2.946,1.947-8.013,6.088-8.013,7.304
		c0,1.218-0.951,4.017-0.951,4.017s-2.088,0.123-2.18,0.123c-0.091,0-1.013,1.705-1.013,1.705l0.368,3.285l-3.808-3.285
		c0,0-1.842,3.896-1.842,5.354s-2.455,8.03-4.297,8.64c-1.842,0.608-6.753,2.799-8.595,3.408c-1.842,0.607-4.175,2.189-5.895,2.678
		c-1.719,0.486-1.474-0.609-3.438,0.364c-1.965,0.974-3.193,3.286-4.789,4.502c-1.597,1.216-4.177,4.989-4.177,4.989
		s-1.842-0.607-1.473,1.216c0.369,1.828,0.246,5.479,0,5.965c-0.242,0.488-0.365,2.556,1.107,4.748
		c1.475,2.188,3.315,4.989,2.456,5.72c-0.858,0.729-0.981,0.485,0,3.164c0.98,2.678,3.438,6.328,4.051,7.059
		c0.615,0.73,2.089,4.26,2.089,5.477s2.946,5.479,3.805,6.692c0.859,1.218,0.736,4.259,0.981,4.989
		c0.247,0.729,1.229,2.679-0.612,4.017c-1.842,1.341-0.123,2.8,0.859,3.408c0.981,0.608,4.911,2.19,7.733,1.825
		c2.824-0.365,5.281-2.922,5.646-3.166c0.37-0.242,2.947-2.433,2.947-2.433s0.614-0.729,3.438-1.097
		c2.824-0.364,6.078-0.364,7.582-0.364s3.102-2.68,4.941-4.625c1.842-1.946,4.299-4.903,7.858-4.299
		c1.421,0.243,3.166-0.263,4.902-1.263c0,0,0,0,0.002,0L40.098,172.742L40.098,172.742z"/>
	<path fill="#37B34A" d="M137.312,149.945c-0.367-0.913,0.433-3.166,0.062-2.98c-0.367,0.186-3.312-2.373-3.929-4.502
		c-0.612-2.13-1.655-1.462-2.147-2.07c-0.487-0.607-0.062-2.129-0.61-2.25c-0.556-0.123-1.535,0.975-1.229-2.252
		c0.308-3.227-0.733-3.164-0.733-3.164s0.188,1.156-0.556,0.547c-0.733-0.607-1.842-2.555-1.842-1.096
		c0,1.461-0.646,0.428-0.646,0.428s-0.951-0.305-1.013-1.584c-0.062-1.275,0.367-1.764-0.433-2.676
		c-0.799-0.914,0-1.277-0.553-2.008c-0.556-0.73-1.904-1.705-1.781-2.252s1.047-0.121,1.047-0.121s-0.924-1.339-1.291-1.703
		c-0.366-0.365-0.799-0.062-0.799-0.062s-0.553-0.486-0.553-0.79s0-0.122-1.046-0.729c-1.043-0.609-0.799-1.156-1.043-0.609
		c-0.245,0.549-0.981-1.217-1.409-1.764c-0.435-0.549-1.658,0-1.603-0.853c0.062-0.853,0,0.425-1.164-0.365
		c-1.166-0.791-1.899-1.644-1.596-2.981c0.307-1.34-0.308-1.459-0.615-1.399c-0.308,0.062,0.558-1.399-0.123-4.26
		c-0.674-2.859-2.086-2.737-2.086-4.259c0-1.521-0.799-4.563-0.369-5.842c0.433-1.277-1.965-1.703-2.332-2.312
		c-0.366-0.608-1.166-1.947-1.166-1.947s-0.489,0.608-0.979,0.608c-0.489,0-0.858,1.824-1.532,0.607
		c-0.679-1.217-1.535-3.955-1.354-5.416s0.186-2.007,0.186-2.007s-1.163-0.183-0.799-0.548c0.367-0.365,0.062-0.426-0.187-0.791
		c-0.241-0.366-1.043-0.73-0.799-1.521c0.246-0.791,0.558-0.974-0.369-1.277c-0.92-0.305-0.674-1.582-0.674-3.042
		c0-1.461-0.31-0.486-0.797-1.278c-0.492-0.79-0.246-2.312-1.045-1.582c-0.798,0.73-0.921,1.278-1.351,1.826
		c-0.433,0.547-0.31,2.738-0.8,3.467c-0.491,0.731,0,1.338-0.799,1.583c-0.8,0.243-1.104,1.46-0.92,1.644
		c0.185,0.183,1.043,0.486,1.043,0.486s-0.49,0.73-0.736,0.912c-0.245,0.184-0.674,0.731-0.307,1.4
		c0.365,0.669-0.556,1.582-0.801,2.129c-0.245,0.548,0,1.156,0.245,1.643c0.244,0.487,0.369,1.035,0.123,1.34
		c-0.246,0.304,0.062,1.095,0,1.826c-0.062,0.729,0.612,0.668-0.368,2.676s-0.677,3.529-1.043,4.32
		c-0.368,0.791-1.533,2.86-1.779,3.467c-0.244,0.609-1.599,3.043-3.375,2.436c-1.781-0.607-2.211-0.549-2.767-1.278
		c-0.554-0.729-1.776-1.095-1.845-1.764c-0.059-0.655,0.505-1.19-1.418-1.317l-0.941,41.192l8.975,0.112l0.475,0.504l-0.645,12.488
		c3.979,0.293,28.34,2.076,29.719,2.248c0.75,0.094,0.899-0.059,1.274-0.416c0.218-0.207,0.484-0.465,0.907-0.709
		c1.354-0.783,3.459-1.063,4.689-0.047c0.57,0.475,0.97,0.539,1.316,0.598c0.271,0.045,0.577,0.096,0.832,0.347
		c0.293,0.289,0.854,1.192,1.198,1.764c0.544-0.329,1.44-0.771,2.157-0.612c0.146-0.035,0.281-0.438,0.342-0.608
		c0.105-0.312,0.206-0.606,0.412-0.812c0.377-0.373,1.066-0.625,2.115-0.774c0.408-0.058,0.859,0.101,1.299,0.253
		c0.22,0.077,0.55,0.189,0.656,0.18c0.52-0.472,1.57-0.352,1.875-0.305c0.061-0.48,0.086-0.854,0.073-1.083
		c0,0-0.188-0.485-0.557-1.276c-0.368-0.793-0.368-2.188,0-2.678c0.366-0.488,0.123-2.557,0.188-3.469
		C136.945,150.615,137.682,150.857,137.312,149.945z"/>
	<path fill="#37B34A" d="M135.845,161.109c-0.404,0.347-0.971,0.146-1.518-0.045c-0.299-0.104-0.666-0.235-0.849-0.209
		c-1.119,0.16-1.476,0.408-1.569,0.506c-0.052,0.056-0.131,0.287-0.183,0.438c-0.173,0.507-0.494,1.446-1.456,1.237
		c-0.43-0.094-1.324,0.378-1.826,0.742l-0.695-0.146c-0.406-0.698-1.08-1.78-1.306-2.002c-0.034-0.034-0.17-0.059-0.312-0.082
		c-0.398-0.063-1.002-0.166-1.772-0.805c-0.853-0.705-2.53-0.479-3.599,0.139c-0.322,0.188-0.526,0.386-0.725,0.572
		c-0.441,0.424-0.861,0.825-2.062,0.676c-1.336-0.166-25.771-1.957-29.646-2.239l-1.092,21.146c0.598,0.1,1.794,0.326,3.312,0.783
		c1.377,0.416,1.891,1.57,2.016,2.599c0.314-0.207,0.68-0.34,1.034-0.221l0.139,0.044c0.611,0.191,1.884,0.595,1.757,1.74
		c-0.068,0.584,0.62,1.535,1.279,2.025c0.684,0.508,2.355,2.479,2.998,3.271c0.374-0.312,0.99-0.812,1.872-0.812
		c1.065,0,2.674,0.614,3.849,1.063c0.241,0.094,0.461,0.176,0.646,0.241l0.392,0.146c0.652,0.239,0.771,0.283,1.476,0.283
		c0.252,0,0.506-0.125,0.828-0.281c0.569-0.281,1.28-0.635,2.385-0.438c0.404,0.068,0.729,0.293,0.939,0.646
		c0.541,0.897,0.205,2.506,0.006,3.25l5.623,3.259c1.09-2.668,1.756-7.156,3.021-8.052c1.717-1.218,3.293-7.91,8.151-10.467
		c4.094-2.152,7.265-14.058,8.09-19.142C136.669,160.93,136.056,160.93,135.845,161.109z"/>
	<path fill="#37B34A" d="M111.352,196.027l-0.218-0.562c0.26-0.793,0.539-2.265,0.197-2.834c-0.067-0.113-0.152-0.172-0.283-0.195
		c-0.793-0.139-1.278,0.104-1.797,0.355c-0.381,0.188-0.774,0.381-1.252,0.381c-0.875,0-1.108-0.087-1.809-0.345l-0.385-0.142
		c-0.188-0.066-0.411-0.152-0.661-0.248c-1.041-0.398-2.612-1-3.504-1c-0.552,0-0.974,0.349-1.274,0.604
		c-0.25,0.206-0.459,0.385-0.759,0.344l-0.39-0.244c-0.18-0.266-2.354-2.854-3.021-3.354c-0.712-0.527-1.794-1.784-1.664-2.904
		c0.036-0.332-0.543-0.545-1.091-0.718l-0.146-0.048c-0.14,0.005-0.565,0.371-0.852,0.744l-0.854-0.371
		c0.017-0.092,0.358-2.236-1.32-2.744c-1.374-0.414-2.482-0.635-3.082-0.734l-1.062,17.834l-0.229-0.006v0.01
		c2,0.336,4.021,0.819,5.294,2.305c2.086,2.438,3.39,1.828,4.614,0.729c1.229-1.096,3.473-3.407,3.842-2.799
		c0.367,0.608-0.229,1.703-0.229,1.703s0.744,0.976,1.48,0.976c0.732,0,3.314,0.607,4.547,1.584
		c1.229,0.973,2.092-2.438,4.18-3.046c2.086-0.604,4.664,0.121,6.752-0.729c0.367-0.146,0.666-0.566,0.953-1.08L111.352,196.027z"
		/>
	<path fill="#37B34A" d="M85.905,199.825l-0.062-0.003c0.033,0.005,0.055,0.013,0.055,0.025c0,0,0,0.12,0,0.122L85.905,199.825z"/>
</svg>
