<?xml version="1.0" encoding="utf-8"?>
<!-- Generator: Adobe Illustrator 16.0.0, SVG Export Plug-In . SVG Version: 6.00 Build 0)  -->
<!DOCTYPE svg PUBLIC "-//W3C//DTD SVG 1.1//EN" "http://www.w3.org/Graphics/SVG/1.1/DTD/svg11.dtd">
<svg version="1.1" id="Layer_1" xmlns="http://www.w3.org/2000/svg" xmlns:xlink="http://www.w3.org/1999/xlink" x="0px" y="0px"
	 width="286px" height="156px" viewBox="-77.5 70.5 286 156" enable-background="new -77.5 70.5 286 156" xml:space="preserve">
<path fill="#003056" d="M135.845,161.109c-0.404,0.347-0.971,0.146-1.518-0.045c-0.299-0.104-0.666-0.235-0.849-0.209
	c-1.119,0.16-1.476,0.408-1.569,0.506c-0.052,0.056-0.131,0.287-0.183,0.438c-0.173,0.507-0.494,1.446-1.456,1.237
	c-0.43-0.094-1.324,0.378-1.826,0.742l-0.695-0.146c-0.406-0.698-1.08-1.78-1.306-2.002c-0.034-0.034-0.17-0.059-0.312-0.082
	c-0.398-0.063-1.002-0.166-1.772-0.805c-0.853-0.705-2.53-0.479-3.599,0.139c-0.322,0.188-0.526,0.386-0.725,0.572
	c-0.441,0.424-0.861,0.825-2.062,0.676c-1.336-0.166-25.771-1.957-29.646-2.239l-1.092,21.146c0.598,0.1,1.794,0.326,3.312,0.783
	c1.377,0.416,1.891,1.57,2.016,2.599c0.314-0.207,0.68-0.34,1.034-0.221l0.139,0.044c0.611,0.191,1.884,0.595,1.757,1.74
	c-0.068,0.584,0.62,1.535,1.279,2.025c0.684,0.508,2.355,2.479,2.998,3.271c0.374-0.312,0.99-0.812,1.872-0.812
	c1.065,0,2.674,0.614,3.849,1.063c0.241,0.094,0.461,0.176,0.646,0.241l0.392,0.146c0.652,0.239,0.771,0.283,1.476,0.283
	c0.252,0,0.506-0.125,0.828-0.281c0.569-0.281,1.28-0.635,2.385-0.438c0.404,0.068,0.729,0.293,0.939,0.646
	c0.541,0.897,0.205,2.506,0.006,3.25l5.623,3.259c1.09-2.668,1.756-7.156,3.021-8.052c1.717-1.218,3.293-7.91,8.151-10.467
	c4.094-2.152,7.265-14.058,8.09-19.142C136.669,160.93,136.056,160.93,135.845,161.109z"/>
</svg>
