<?xml version="1.0" encoding="utf-8"?>
<!-- Generator: Adobe Illustrator 16.0.0, SVG Export Plug-In . SVG Version: 6.00 Build 0)  -->
<!DOCTYPE svg PUBLIC "-//W3C//DTD SVG 1.1//EN" "http://www.w3.org/Graphics/SVG/1.1/DTD/svg11.dtd">
<svg version="1.1" id="Layer_1" xmlns="http://www.w3.org/2000/svg" xmlns:xlink="http://www.w3.org/1999/xlink" x="0px" y="0px"
	 width="550px" height="266px" viewBox="0 0 550 266" enable-background="new 0 0 550 266" xml:space="preserve">
<g>
	<polygon fill="#BDBEC1" points="0.039,194.128 0.094,194.128 0.039,194.128 	"/>
	<path fill="#BDBEC1" d="M549.875,214.394c0-3.375-1.404-3.375-1.404-6.75c0-3.377,1.404-3.377,1.404-6.753
		s-1.404-3.376-1.404-6.751L0.094,194.128c0,3.375,1.404,3.375,1.404,6.75c0,3.377-1.404,3.377-1.404,6.753s1.404,3.376,1.404,6.751
		L549.875,214.394z"/>
</g>
<rect x="79.808" y="104.293" fill="#00AEEF" width="70.87" height="5.669"/>
<rect x="109.617" y="109.963" fill="#6D6F71" width="11.339" height="20.143"/>
<rect x="445.93" y="115.549" fill="#939598" width="17.009" height="8.421"/>
<rect x="445.909" y="125.349" fill="#A7AAAC" width="17.008" height="53.858"/>
<polygon fill="#D18316" points="328.56,194.128 319.967,194.128 319.967,191.768 307.885,191.768 307.885,184.681 292.65,184.681 
	292.65,191.768 287.835,191.768 287.835,187.612 278.708,187.612 278.708,191.768 274.171,191.768 274.171,194.128 265.835,194.128 
	265.835,214.435 274.171,214.435 274.171,216.794 278.708,216.794 278.708,218.99 287.835,218.99 287.835,216.794 319.967,216.794 
	319.967,214.435 328.56,214.435 "/>
<g>
	<polygon fill="#818385" points="155.624,179.943 155.624,187.612 139.171,187.612 139.171,168.229 144.507,168.229 
		144.507,159.481 84.941,159.481 84.941,168.229 91.401,168.229 91.401,187.612 76.63,187.612 76.63,179.943 63.066,179.943 
		63.066,226.973 76.63,226.973 76.63,218.99 91.401,218.99 91.401,230.351 139.171,230.351 139.171,218.99 155.624,218.99 
		155.624,226.973 169.188,226.973 169.188,179.943 	"/>
	<polygon fill="#818385" points="144.506,148.967 128.433,148.967 128.433,130.106 102.139,130.106 102.139,148.967 84.94,148.967 
		84.94,157.714 144.506,157.714 	"/>
</g>
<rect x="76.63" y="187.612" fill="#6D6F71" width="4.718" height="31.378"/>
<rect x="150.906" y="187.612" fill="#6D6F71" width="4.718" height="31.378"/>
<rect x="91.401" y="168.229" fill="#6D6F71" width="47.771" height="4.718"/>
<rect x="91.401" y="218.99" fill="#6D6F71" width="47.771" height="4.718"/>
<rect x="109.617" y="109.963" fill="#595A5C" width="11.339" height="4.718"/>
<rect x="319.967" y="194.128" fill="#AA710A" width="3.056" height="20.307"/>
<rect x="271.116" y="194.128" fill="#AA710A" width="3.056" height="20.307"/>
<rect x="277.265" y="191.768" fill="#AA710A" width="1.442" height="25.026"/>
<rect x="292.65" y="185.842" fill="#AA710A" width="15.235" height="1.527"/>
<rect x="426.124" y="191.193" fill="#E7E8E9" width="56.578" height="25.512"/>
<rect x="443.074" y="178.223" fill="#E7E8E9" width="22.678" height="19.949"/>
<rect x="428.582" y="210.225" fill="#D1D3D4" width="51.366" height="4.21"/>
<path fill="#FFD200" d="M336.864,169.099h-62.263v7.604l13.296,1.028v5.528c0,1.427,1.157,2.583,2.583,2.583h19.149
	c1.427,0,2.583-1.156,2.583-2.583v-4.824l24.651-2.191V169.099z"/>
<path fill="#EEB111" d="M310.657,181.975c0,1.191-0.966,2.156-2.156,2.156h-1.444c-1.19,0-2.156-0.965-2.156-2.156v-8.716
	c0-1.19,0.966-2.156,2.156-2.156h1.444c1.19,0,2.156,0.966,2.156,2.156V181.975z"/>
</svg>
