<?xml version="1.0" encoding="utf-8"?>
<!-- Generator: Adobe Illustrator 16.0.0, SVG Export Plug-In . SVG Version: 6.00 Build 0)  -->
<!DOCTYPE svg PUBLIC "-//W3C//DTD SVG 1.1//EN" "http://www.w3.org/Graphics/SVG/1.1/DTD/svg11.dtd">
<svg version="1.1" id="Layer_1" xmlns="http://www.w3.org/2000/svg" xmlns:xlink="http://www.w3.org/1999/xlink" x="0px" y="0px"
	 width="750px" height="205px" viewBox="-199.5 0 750 205" enable-background="new -199.5 0 750 205" xml:space="preserve">
<rect x="-199.5" y="12.773" fill="#808184" width="750" height="192.754"/>
<rect x="43.624" y="118.504" fill="#BBBDBF" width="95.362" height="87.023"/>
<rect x="43.624" y="109.148" fill="#A6A8AB" width="95.362" height="9.354"/>
<rect x="-199.5" fill="#A6A8AB" width="750" height="9.354"/>
<rect x="211.014" y="109.148" fill="#A6A8AB" width="95.362" height="9.354"/>
<rect x="211.016" y="118.504" fill="#BBBDBF" width="95.362" height="87.023"/>
<rect x="190.115" y="176.107" fill="#58595B" width="15.117" height="29.42"/>
<rect x="383.568" y="109.148" fill="#A6A8AB" width="95.362" height="9.354"/>
<rect x="383.57" y="118.504" fill="#BBBDBF" width="95.362" height="87.023"/>
<rect x="362.67" y="176.107" fill="#58595B" width="15.117" height="29.42"/>
<rect x="-133.348" y="109.148" fill="#A6A8AB" width="95.362" height="9.354"/>
<rect x="-133.346" y="118.504" fill="#BBBDBF" width="95.362" height="87.023"/>
<rect x="22.645" y="176.107" fill="#58595B" width="15.117" height="29.42"/>
<g>
	<path fill="#003767" d="M178.564,29.755c-24.143,0-42.361,3.716-42.361,3.716s-3.036,0.475-3.036,3.266v19.157
		c0,2.644,3.036,3.157,3.036,3.157s18.446,4.03,42.361,4.03c23.912,0,42.36-4.03,42.36-4.03s3.036-0.514,3.036-3.157V36.736
		c0-2.791-3.036-3.266-3.036-3.266S202.706,29.755,178.564,29.755z"/>
	<path fill="#FFFFFF" d="M148.526,42.605h0.051c0.895-1.608,2.427-2.322,4.239-2.322h0.895v4.469
		c-0.638-0.357-1.251-0.434-1.968-0.434c-2.577,0-3.217,1.711-3.217,3.957v5.285h-4.647v-13.1h4.647V42.605z"/>
	<path fill="#FFFFFF" d="M169.272,47.79h-9.781c0,1.889,0.997,2.911,2.911,2.911c0.997,0,1.71-0.332,2.223-1.201h4.468
		c-0.739,3.09-3.678,4.494-6.664,4.494c-4.343,0-7.585-2.449-7.585-6.971c0-4.365,2.987-6.995,7.252-6.995
		c4.545,0,7.175,2.809,7.175,7.277L169.272,47.79L169.272,47.79z M164.956,45.108c-0.229-1.251-1.379-2.067-2.63-2.067
		c-1.352,0-2.478,0.714-2.756,2.067H164.956z"/>
	<path fill="#FFFFFF" d="M185.255,47.79h-9.779c0,1.889,0.995,2.911,2.913,2.911c0.993,0,1.709-0.332,2.221-1.201h4.469
		c-0.74,3.09-3.678,4.494-6.664,4.494c-4.341,0-7.583-2.449-7.583-6.971c0-4.365,2.987-6.995,7.252-6.995
		c4.545,0,7.173,2.809,7.173,7.277L185.255,47.79L185.255,47.79z M180.939,45.108c-0.229-1.251-1.377-2.067-2.629-2.067
		c-1.354,0-2.478,0.714-2.758,2.067H180.939z"/>
	<path fill="#FFFFFF" d="M213.557,47.79h-9.781c0,1.889,0.998,2.911,2.91,2.911c0.998,0,1.713-0.332,2.225-1.201h4.468
		c-0.739,3.09-3.678,4.494-6.665,4.494c-4.342,0-7.584-2.449-7.584-6.971c0-4.365,2.987-6.995,7.252-6.995
		c4.545,0,7.178,2.809,7.178,7.277v0.485H213.557z M209.238,45.108c-0.229-1.251-1.379-2.067-2.629-2.067
		c-1.354,0-2.477,0.714-2.758,2.067H209.238z"/>
	<path fill="#FFFFFF" d="M197.148,44.724c-0.688-0.512-1.508-0.919-2.4-0.919c-1.788,0-3.193,1.378-3.193,3.193
		c0,1.891,1.354,3.219,3.271,3.219c0.817,0,1.713-0.332,2.323-0.895l1.184,3.277c-1.455,1.116-3.328,1.396-4.453,1.396
		c-3.882,0-7.127-2.885-7.127-6.846c0-4.215,3.221-7.126,7.334-7.126c1.072,0,3.124,0.474,4.275,1.466L197.148,44.724z"/>
</g>
</svg>
