<?xml version="1.0" encoding="utf-8"?>
<!-- Generator: Adobe Illustrator 15.0.2, SVG Export Plug-In . SVG Version: 6.00 Build 0)  -->
<!DOCTYPE svg PUBLIC "-//W3C//DTD SVG 1.1//EN" "http://www.w3.org/Graphics/SVG/1.1/DTD/svg11.dtd">
<svg version="1.1" id="Layer_1" xmlns="http://www.w3.org/2000/svg" xmlns:xlink="http://www.w3.org/1999/xlink" x="0px" y="0px"
	 width="317px" height="160px" viewBox="0 0 317 160" enable-background="new 0 0 317 160" xml:space="preserve">
<rect x="7.957" width="303.555" height="137.53"/>
<path fill="#3AAA35" d="M291,120.588c0,11.008-8.954,19.932-20,19.932s-20-8.924-20-19.932c0-9.429,6.567-17.327,15.392-19.4
	c1.479-0.348,4.608,3.455,4.608,3.455s2.37-3.882,3.51-3.68C283.882,102.615,291,110.772,291,120.588z"/>
<polygon fill="#FFFFFF" points="48.408,137.53 26.917,137.53 26.917,133.654 46.408,133.654 "/>
<polygon fill="#B17F4A" points="268.601,89.525 271,89.525 271,104.643 270.601,104.643 "/>
<path fill="#DEDC00" d="M270.601,104.643c0,0,2.629-11.164,7.588-12.152c4.959-0.987,11.241,1.648,11.241,1.648
	s-0.992,5.065-6.943,6.816S270.601,104.643,270.601,104.643z"/>
<rect y="137.53" fill="#683C11" width="317" height="16.309"/>
<path fill="#006633" d="M280.016,106.306c0,0,8.812,5.945,9.414,13.18c0.602,7.233-9.414,16.106-9.414,16.106
	s3.463-7.012,3.463-14.854C283.479,112.896,280.016,106.306,280.016,106.306z"/>
<rect x="15.193" y="153.839" fill="#7D4E24" width="287.778" height="6.161"/>
</svg>
