<?xml version="1.0" encoding="utf-8"?>
<!-- Generator: Adobe Illustrator 16.0.0, SVG Export Plug-In . SVG Version: 6.00 Build 0)  -->
<!DOCTYPE svg PUBLIC "-//W3C//DTD SVG 1.1//EN" "http://www.w3.org/Graphics/SVG/1.1/DTD/svg11.dtd">
<svg version="1.1" id="Layer_1" xmlns="http://www.w3.org/2000/svg" xmlns:xlink="http://www.w3.org/1999/xlink" x="0px" y="0px"
	 width="186px" height="128px" viewBox="0 0 186 128" enable-background="new 0 0 186 128" xml:space="preserve">
<path fill="#EC1C24" d="M181.514,0H4.485C2.008,0,0,2.002,0,4.473v108.029C0,114.973,2.008,117,4.485,117H17v2.963
	c0,4.439,1.526,8.037,4.003,8.037h144.576c2.478,0,4.421-3.598,4.421-8.037V117h11.514c2.478,0,4.486-2.027,4.486-4.499V4.473
	C186,2.002,183.991,0,181.514,0z M132,98.829c0,2.47-1.98,4.171-4.458,4.171H21.003C18.526,103,17,101.298,17,98.829V20.722
	C17,18.251,18.526,16,21.003,16h106.539c2.478,0,4.458,2.251,4.458,4.722V98.829z"/>
<path fill="#404041" d="M179.223,3H7.651C5.174,3,3,5.413,3,7.883v102.136C3,112.488,5.174,114,7.651,114h171.571
	c2.478,0,4.777-1.512,4.777-3.981V7.883C184,5.413,181.7,3,179.223,3z M132,98.829c0,2.47-1.98,4.171-4.458,4.171H21.003
	C18.526,103,17,101.298,17,98.829V20.722C17,18.251,18.526,16,21.003,16h106.539c2.478,0,4.458,2.251,4.458,4.722V98.829z"/>
<path fill="#58595B" d="M138.748,8.148c1.311,0,2.377,1.061,2.377,2.364v97.601c0,1.303-1.066,2.364-2.377,2.364H10.835
	c-1.311,0-2.377-1.061-2.377-2.364V10.512c0-1.304,1.066-2.364,2.377-2.364H138.748 M138.748,6.04H10.835
	c-2.478,0-4.486,2.003-4.486,4.473v97.601c0,2.471,2.008,4.472,4.486,4.472h127.913c2.478,0,4.486-2.001,4.486-4.472V10.512
	C143.234,8.043,141.226,6.04,138.748,6.04L138.748,6.04z"/>
<path fill="none" stroke="#231F20" stroke-width="0.5271" stroke-miterlimit="10" d="M132.028,98.829
	c0,2.47-2.009,4.471-4.486,4.471H21.003c-2.478,0-4.486-2.001-4.486-4.471V20.722c0-2.471,2.009-4.472,4.486-4.472h106.539
	c2.478,0,4.486,2.001,4.486,4.472V98.829z"/>
<line fill="none" stroke="#58595B" stroke-width="2.1084" stroke-miterlimit="10" x1="149.526" y1="63.209" x2="178.014" y2="63.209"/>
<line fill="none" stroke="#58595B" stroke-width="2.1084" stroke-miterlimit="10" x1="149.526" y1="66.812" x2="178.014" y2="66.812"/>
<line fill="none" stroke="#58595B" stroke-width="2.1084" stroke-miterlimit="10" x1="149.526" y1="70.414" x2="178.014" y2="70.414"/>
<line fill="none" stroke="#58595B" stroke-width="2.1084" stroke-miterlimit="10" x1="149.526" y1="74.015" x2="178.014" y2="74.015"/>
<line fill="none" stroke="#58595B" stroke-width="2.1084" stroke-miterlimit="10" x1="149.526" y1="77.616" x2="178.014" y2="77.616"/>
<line fill="none" stroke="#58595B" stroke-width="2.1084" stroke-miterlimit="10" x1="149.526" y1="81.218" x2="178.014" y2="81.218"/>
<line fill="none" stroke="#58595B" stroke-width="2.1084" stroke-miterlimit="10" x1="149.526" y1="84.819" x2="178.014" y2="84.819"/>
<line fill="none" stroke="#58595B" stroke-width="2.1084" stroke-miterlimit="10" x1="149.526" y1="88.42" x2="178.014" y2="88.42"/>
<line fill="none" stroke="#58595B" stroke-width="2.1084" stroke-miterlimit="10" x1="149.526" y1="92.022" x2="178.014" y2="92.022"/>
<line fill="none" stroke="#58595B" stroke-width="2.1084" stroke-miterlimit="10" x1="149.526" y1="95.623" x2="178.014" y2="95.623"/>
<line fill="none" stroke="#58595B" stroke-width="2.1084" stroke-miterlimit="10" x1="149.526" y1="99.225" x2="178.014" y2="99.225"/>
<line fill="none" stroke="#58595B" stroke-width="2.1084" stroke-miterlimit="10" x1="149.526" y1="102.826" x2="178.014" y2="102.826"/>
<line fill="none" stroke="#58595B" stroke-width="2.1084" stroke-miterlimit="10" x1="149.526" y1="106.427" x2="178.014" y2="106.427"/>
</svg>
