<?xml version="1.0" encoding="utf-8"?>
<!-- Generator: Adobe Illustrator 16.0.0, SVG Export Plug-In . SVG Version: 6.00 Build 0)  -->
<!DOCTYPE svg PUBLIC "-//W3C//DTD SVG 1.1//EN" "http://www.w3.org/Graphics/SVG/1.1/DTD/svg11.dtd">
<svg version="1.1" id="Layer_1" xmlns="http://www.w3.org/2000/svg" xmlns:xlink="http://www.w3.org/1999/xlink" x="0px" y="0px"
	 width="492px" height="180px" viewBox="0 0 492 180" enable-background="new 0 0 492 180" xml:space="preserve">
<ellipse fill="#F4D19F" cx="246.518" cy="30.437" rx="26.703" ry="24.576"/>
<rect id="LeftEyebrow" x="231.449" y="15.732" transform="matrix(-0.9741 0.2259 -0.2259 -0.9741 473.4317 -19.2283)" fill="#8A5D3B" width="12.734" height="3.491"/>
<rect id="RightEyebroe" x="248.777" y="17.725" fill="#8A5D3B" width="12.733" height="3.49"/>
<polygon fill="#8A5D3B" points="225.233,25.775 225.233,15.599 234.161,12.216 237.827,9.25 241.561,13.063 259.05,9.25 
	266.759,17.513 267.543,27.471 273.221,27.471 272.764,16.029 261.087,5.859 261.4,0.352 258.271,5.859 257.243,0.352 
	255.146,3.741 223.814,5.317 215.9,24.08 "/>
<path fill="#F3BC7B" d="M271.165,109.113c0,3.131-2.538,5.668-5.669,5.668h-37.957c-3.131,0-5.669-2.537-5.669-5.668v-0.521
	c0-3.131,2.538-5.668,5.669-5.668h37.957c3.131,0,5.669,2.537,5.669,5.668V109.113z"/>
<path fill="#FFFFFF" d="M276.625,114.107c0,16.768-13.592,30.36-30.36,30.36c-16.77,0-30.364-13.594-30.364-30.36H276.625z"/>
<rect x="234.161" y="135.789" fill="#FFFFFF" width="24.713" height="31.33"/>
<path fill="#F4D19F" d="M245.193,160.943c0,4.629-3.754,8.385-8.385,8.385l0,0c-4.63,0-8.384-3.756-8.384-8.385v-50.31
	c0-4.631,3.754-8.385,8.384-8.385l0,0c4.631,0,8.385,3.754,8.385,8.385V160.943z"/>
<path fill="#F4D19F" d="M265.052,160.943c0,4.629-3.755,8.385-8.385,8.385l0,0c-4.63,0-8.384-3.756-8.384-8.385v-50.31
	c0-4.631,3.754-8.385,8.384-8.385l0,0c4.63,0,8.385,3.754,8.385,8.385V160.943z"/>
<path fill="#262261" d="M289.32,144.291c0,0-11.912,3.904-19.414,3.463s-18.534,0-18.534,0l-6.179,9.268l-5.295-9.463
	c0,0,1.765,0.244-9.268,0c-11.032-0.246-28.378-3.774-28.378-3.774l-8.826,10.082l3.089,3.155h-3.089v5.009h5.295l-2.206,2.936
	l-3.089,5.229H299.1l-4.412-6.111h-3.6l-1.768-5.295h5.298l-1.765-4.922h2.205l-5.738-3.904V144.291L289.32,144.291z"/>
<path fill="#603813" d="M208.907,172.789c0-9.016,7.31-16.326,16.327-16.326c9.018,0,16.327,7.311,16.327,16.326H208.907z"/>
<path fill="#603813" d="M249.743,172.789c0-9.016,7.309-16.326,16.327-16.326c9.018,0,16.326,7.311,16.326,16.326H249.743z"/>
<polygon fill="#FFFFFF" points="308.788,103.854 246.764,107.854 183.374,103.854 183.374,20.243 246.764,24.243 308.788,20.243 "/>
<polygon fill="#F1F1F2" points="246.764,107.854 183.374,103.854 183.374,20.243 246.764,24.243 "/>
<rect x="174.825" y="63.355" fill="#F4D19F" width="17.008" height="5.213"/>
<rect x="175.825" y="57.701" fill="#F4D19F" width="14.785" height="5.213"/>
<rect x="175.825" y="69.01" fill="#F4D19F" width="14.785" height="5.213"/>
<polygon fill="#F4D19F" points="189.067,82.544 178.434,80.552 179.139,75.405 189.772,77.398 "/>
<rect x="299.603" y="63.355" fill="#F4D19F" width="17.009" height="5.213"/>
<rect x="300.826" y="57.701" fill="#F4D19F" width="14.784" height="5.213"/>
<rect x="300.826" y="69.01" fill="#F4D19F" width="14.784" height="5.213"/>
<polygon fill="#F4D19F" points="302.368,82.544 313.002,80.552 312.297,75.405 301.663,77.398 "/>
<g>
	<path fill="#231F20" d="M263.188,34.814c3.097-0.162,4.918,2.053,4.918,5.022c0,2.886-1.821,5.293-4.918,5.455
		c-3.096,0.162-4.916-2.054-4.916-4.939C258.271,37.383,260.093,34.977,263.188,34.814z M263.188,43.442
		c1.976-0.104,2.719-1.823,2.719-3.49c0-1.751-0.743-3.393-2.719-3.289c-1.975,0.104-2.717,1.823-2.717,3.574
		C260.473,41.904,261.214,43.546,263.188,43.442z"/>
	<path fill="#231F20" d="M275.832,44.392l-1.893,0.099v-1.009l-0.041,0.003c-0.504,0.839-1.373,1.276-2.213,1.32
		c-2.115,0.111-2.647-1.052-2.647-2.845v-4.455l1.989-0.104v4.091c0,1.19,0.351,1.76,1.273,1.711
		c1.078-0.057,1.541-0.682,1.541-2.153v-3.796l1.989-0.104L275.832,44.392L275.832,44.392z"/>
	<path fill="#231F20" d="M279.511,36.956l1.457-0.076v1.331l-1.457,0.076v3.586c0,0.672,0.169,0.832,0.841,0.797
		c0.211-0.011,0.406-0.036,0.616-0.089v1.555c-0.336,0.074-0.77,0.111-1.161,0.132c-1.22,0.063-2.283-0.161-2.283-1.604v-4.272
		l-1.205,0.063v-1.331l1.205-0.063V34.89l1.988-0.104L279.511,36.956L279.511,36.956z"/>
	<path fill="#231F20" d="M281.624,34.087l1.987-0.104v10.001l-1.987,0.104V34.087z"/>
	<path fill="#231F20" d="M286.469,40.696c0.057,1.258,0.674,1.8,1.778,1.742c0.799-0.042,1.442-0.566,1.569-1.021l1.75-0.092
		c-0.561,1.738-1.75,2.529-3.391,2.615c-2.283,0.12-3.697-1.375-3.697-3.616c0-2.171,1.498-3.903,3.697-4.019
		c2.467-0.129,3.656,1.882,3.518,4.117L286.469,40.696z M289.704,39.266c-0.183-0.999-0.616-1.509-1.582-1.458
		c-1.263,0.066-1.625,1.065-1.653,1.628L289.704,39.266z"/>
	<path fill="#231F20" d="M295.037,36.143l1.456-0.076v1.331l-1.456,0.076v3.586c0,0.672,0.168,0.832,0.841,0.797
		c0.209-0.011,0.406-0.036,0.615-0.089v1.555c-0.336,0.074-0.771,0.11-1.162,0.131c-1.22,0.064-2.283-0.16-2.283-1.603v-4.272
		l-1.205,0.063v-1.331l1.205-0.063v-2.171l1.989-0.104V36.143L295.037,36.143z"/>
</g>
<path fill="#00ADEE" d="M277.115,63.787c-13.508,0-24.495-10.988-24.495-24.495c0-5.82,2.071-11.409,5.776-15.8l4.57-0.384
	c-4.67,4.086-7.348,9.984-7.348,16.184c0,11.853,9.643,21.495,21.495,21.495c11.852,0,21.495-9.643,21.495-21.495
	c0-7.182-3.565-13.86-9.539-17.866l4.578-0.211c5.039,4.608,7.961,11.137,7.961,18.077C301.61,52.799,290.622,63.787,277.115,63.787
	z"/>
<g>
	<path fill="#231F20" d="M260.854,77.338l-1.5,0.078v-0.924l4.098-0.215v0.924l-1.498,0.079v4.076l-1.1,0.058V77.338z"/>
	<path fill="#231F20" d="M263.743,76.262l0.993-0.053v1.885h0.021c0.253-0.42,0.688-0.639,1.059-0.658
		c1.058-0.056,1.324,0.525,1.324,1.422v2.227l-0.996,0.053v-2.045c0-0.596-0.174-0.881-0.638-0.856
		c-0.539,0.028-0.771,0.341-0.771,1.077v1.898l-0.993,0.052V76.262L263.743,76.262z"/>
	<path fill="#231F20" d="M268.537,79.443c0.027,0.628,0.337,0.898,0.89,0.87c0.399-0.021,0.722-0.283,0.784-0.511l0.876-0.046
		c-0.28,0.869-0.876,1.265-1.694,1.308c-1.143,0.06-1.85-0.688-1.85-1.808c0-1.086,0.749-1.952,1.85-2.009
		c1.232-0.064,1.828,0.939,1.758,2.059L268.537,79.443z M270.154,78.727c-0.09-0.498-0.307-0.754-0.79-0.729
		c-0.632,0.033-0.812,0.533-0.827,0.814L270.154,78.727z"/>
	<path fill="#231F20" d="M275.68,75.518c1.547-0.082,2.457,1.027,2.457,2.512c0,1.443-0.91,2.646-2.457,2.727
		c-1.549,0.082-2.459-1.026-2.459-2.47C273.221,76.802,274.131,75.598,275.68,75.518z M275.68,79.832
		c0.986-0.053,1.357-0.912,1.357-1.746c0-0.875-0.371-1.695-1.357-1.645c-0.988,0.053-1.359,0.912-1.359,1.787
		C274.32,79.062,274.691,79.883,275.68,79.832z"/>
	<path fill="#231F20" d="M278.82,77.516l-0.596,0.031v-0.664l0.596-0.031V76.57c0-0.637,0.397-1.119,1.211-1.162
		c0.176-0.01,0.357,0.002,0.525,0v0.742c-0.119-0.007-0.238-0.008-0.365-0.001c-0.266,0.015-0.377,0.132-0.377,0.433v0.217
		l0.687-0.035v0.664l-0.687,0.037v2.955l-0.994,0.053V77.516z"/>
	<path fill="#231F20" d="M280.852,77.41l-0.596,0.031v-0.666l0.596-0.031v-0.279c0-0.637,0.398-1.121,1.211-1.164
		c0.176-0.008,0.357,0.004,0.525,0.002v0.742c-0.119-0.008-0.238-0.008-0.363-0.002c-0.267,0.014-0.379,0.131-0.379,0.434v0.217
		l0.688-0.037v0.666l-0.688,0.035v2.957l-0.994,0.051V77.41z"/>
	<path fill="#231F20" d="M283.812,76.029l-0.994,0.052v-0.819l0.994-0.052V76.029z M282.818,76.642l0.994-0.052v3.621l-0.994,0.052
		V76.642z"/>
	<path fill="#231F20" d="M286.887,77.703c-0.062-0.403-0.322-0.606-0.734-0.584c-0.639,0.033-0.848,0.688-0.848,1.221
		c0,0.519,0.202,1.131,0.825,1.098c0.463-0.023,0.729-0.332,0.792-0.776l0.959-0.05c-0.126,0.966-0.791,1.525-1.744,1.575
		c-1.092,0.058-1.826-0.674-1.826-1.76c0-1.128,0.672-1.996,1.849-2.058c0.854-0.045,1.639,0.362,1.702,1.283L286.887,77.703z"/>
	<path fill="#231F20" d="M289.286,75.742l-0.994,0.053v-0.82l0.994-0.052V75.742z M288.292,76.355l0.994-0.053v3.621l-0.994,0.053
		V76.355z"/>
	<path fill="#231F20" d="M289.854,77.387c0.057-0.934,0.89-1.258,1.701-1.301c0.723-0.037,1.59,0.078,1.59,0.946v1.884
		c0,0.329,0.035,0.656,0.127,0.799l-1.01,0.053c-0.033-0.11-0.062-0.229-0.068-0.347c-0.315,0.346-0.777,0.489-1.219,0.513
		c-0.688,0.035-1.233-0.279-1.233-1.021c0-0.818,0.616-1.047,1.233-1.164c0.608-0.122,1.176-0.131,1.176-0.537
		c0-0.428-0.295-0.476-0.645-0.457c-0.378,0.02-0.623,0.188-0.658,0.58L289.854,77.387z M292.15,78.002
		c-0.168,0.156-0.52,0.181-0.827,0.254c-0.308,0.078-0.589,0.199-0.589,0.562c0,0.371,0.287,0.447,0.609,0.43
		c0.777-0.04,0.807-0.658,0.807-0.875V78.002z"/>
	<path fill="#231F20" d="M293.768,74.688l0.993-0.051v5l-0.993,0.053V74.688z"/>
	<path fill="#231F20" d="M250.839,83.938l2.696-0.141c0.896-0.047,1.464,0.547,1.464,1.303c0,0.589-0.237,1.042-0.791,1.295v0.014
		c0.539,0.113,0.692,0.631,0.729,1.133c0.021,0.314,0.014,0.902,0.209,1.172l-1.101,0.058c-0.133-0.308-0.119-0.792-0.174-1.188
		c-0.078-0.521-0.281-0.742-0.834-0.713l-1.101,0.059v1.953l-1.1,0.059L250.839,83.938L250.839,83.938z M251.938,86.143l1.205-0.062
		c0.49-0.025,0.756-0.25,0.756-0.755c0-0.483-0.266-0.679-0.756-0.653l-1.205,0.062V86.143z"/>
	<path fill="#231F20" d="M256.434,87.077c0.026,0.628,0.336,0.899,0.889,0.87c0.398-0.021,0.722-0.282,0.785-0.51l0.875-0.047
		c-0.28,0.869-0.875,1.266-1.695,1.309c-1.141,0.059-1.85-0.688-1.85-1.809c0-1.086,0.75-1.951,1.85-2.008
		c1.232-0.065,1.828,0.939,1.758,2.058L256.434,87.077z M258.05,86.361c-0.091-0.499-0.309-0.754-0.791-0.729
		c-0.631,0.033-0.812,0.533-0.825,0.813L258.05,86.361z"/>
	<path fill="#231F20" d="M260.273,86.876c0.028,0.628,0.336,0.899,0.891,0.87c0.398-0.021,0.722-0.283,0.784-0.511l0.876-0.046
		c-0.28,0.869-0.876,1.265-1.694,1.308c-1.144,0.06-1.851-0.687-1.851-1.808c0-1.086,0.75-1.951,1.851-2.009
		c1.231-0.064,1.827,0.94,1.759,2.059L260.273,86.876z M261.893,86.16c-0.091-0.499-0.308-0.754-0.791-0.729
		c-0.631,0.033-0.812,0.532-0.826,0.813L261.893,86.16z"/>
	<path fill="#231F20" d="M265.766,85.811c-0.064-0.403-0.322-0.607-0.736-0.585c-0.637,0.033-0.848,0.688-0.848,1.222
		c0,0.518,0.202,1.131,0.825,1.098c0.464-0.024,0.729-0.332,0.792-0.777l0.96-0.05c-0.127,0.967-0.791,1.526-1.743,1.575
		c-1.094,0.058-1.828-0.674-1.828-1.76c0-1.127,0.672-1.996,1.85-2.057c0.854-0.045,1.639,0.361,1.701,1.282L265.766,85.811z"/>
	<path fill="#231F20" d="M267.961,86.473c0.028,0.629,0.336,0.9,0.891,0.871c0.398-0.021,0.721-0.283,0.783-0.512l0.875-0.045
		c-0.279,0.869-0.875,1.264-1.693,1.307c-1.143,0.061-1.851-0.687-1.851-1.807c0-1.086,0.75-1.951,1.851-2.01
		c1.231-0.064,1.828,0.941,1.758,2.059L267.961,86.473z M269.579,85.758c-0.093-0.5-0.31-0.755-0.792-0.729
		c-0.63,0.033-0.812,0.533-0.826,0.813L269.579,85.758z"/>
	<path fill="#231F20" d="M276.193,84.291c-0.069-0.494-0.547-0.848-1.092-0.818c-0.987,0.051-1.358,0.911-1.358,1.786
		c0,0.834,0.371,1.655,1.358,1.603c0.672-0.035,1.051-0.517,1.135-1.18l1.063-0.055c-0.112,1.252-0.974,2.096-2.198,2.16
		c-1.549,0.08-2.459-1.027-2.459-2.471c0-1.484,0.91-2.688,2.459-2.77c1.1-0.057,2.023,0.539,2.156,1.688L276.193,84.291z"/>
	<path fill="#231F20" d="M281.164,87.35l-0.946,0.049v-0.504l-0.021,0.002c-0.252,0.42-0.688,0.637-1.106,0.659
		c-1.058,0.056-1.323-0.524-1.323-1.421v-2.229l0.994-0.052v2.045c0,0.596,0.176,0.88,0.637,0.856
		c0.541-0.029,0.771-0.342,0.771-1.076v-1.898l0.995-0.053L281.164,87.35L281.164,87.35z"/>
	<path fill="#231F20" d="M282.514,86.102c0.008,0.435,0.371,0.59,0.764,0.57c0.287-0.016,0.652-0.146,0.652-0.496
		c0-0.303-0.414-0.385-1.129-0.502c-0.574-0.096-1.148-0.269-1.148-0.906c0-0.924,0.8-1.204,1.576-1.245
		c0.791-0.042,1.521,0.187,1.598,1.071l-0.945,0.05c-0.027-0.384-0.322-0.474-0.68-0.454c-0.225,0.012-0.555,0.07-0.555,0.365
		c0,0.357,0.562,0.377,1.129,0.48c0.58,0.102,1.147,0.282,1.147,0.954c0,0.953-0.825,1.304-1.651,1.348
		c-0.842,0.044-1.66-0.228-1.703-1.186L282.514,86.102z"/>
	<path fill="#231F20" d="M286.588,83.444l0.729-0.038v0.665l-0.729,0.038v1.793c0,0.337,0.084,0.416,0.421,0.398
		c0.104-0.006,0.203-0.018,0.308-0.044v0.777c-0.168,0.037-0.385,0.056-0.58,0.065c-0.609,0.031-1.143-0.08-1.143-0.802v-2.137
		l-0.603,0.032v-0.666l0.603-0.031V82.41l0.994-0.052V83.444z"/>
	<path fill="#231F20" d="M289.374,83.201c1.142-0.061,1.877,0.656,1.877,1.812c0,1.148-0.735,1.943-1.877,2.004
		c-1.134,0.059-1.869-0.658-1.869-1.807C287.505,84.055,288.24,83.26,289.374,83.201z M289.374,86.268
		c0.681-0.035,0.883-0.627,0.883-1.201c0-0.582-0.202-1.152-0.883-1.117c-0.672,0.035-0.875,0.627-0.875,1.209
		C288.499,85.732,288.702,86.303,289.374,86.268z"/>
	<path fill="#231F20" d="M291.746,83.174l0.938-0.049v0.49l0.015-0.001c0.26-0.385,0.638-0.622,1.106-0.646
		c0.455-0.024,0.861,0.123,1.057,0.547c0.212-0.326,0.59-0.634,1.094-0.66c0.771-0.04,1.324,0.288,1.324,1.227v2.423l-0.995,0.052
		v-2.051c0-0.484-0.042-0.881-0.609-0.852c-0.56,0.029-0.665,0.497-0.665,0.952v2.018l-0.994,0.052v-2.031
		c0-0.42,0.027-0.904-0.603-0.871c-0.196,0.01-0.673,0.16-0.673,0.867v2.102l-0.994,0.053V83.174z"/>
	<path fill="#231F20" d="M298.704,84.861c0.028,0.629,0.337,0.9,0.89,0.871c0.399-0.021,0.723-0.283,0.784-0.511l0.876-0.046
		c-0.28,0.869-0.876,1.265-1.695,1.308c-1.142,0.06-1.849-0.688-1.849-1.808c0-1.086,0.749-1.951,1.849-2.009
		c1.233-0.065,1.828,0.94,1.759,2.058L298.704,84.861z M300.322,84.146c-0.091-0.5-0.309-0.754-0.791-0.729
		c-0.631,0.033-0.812,0.533-0.827,0.813L300.322,84.146z"/>
	<path fill="#231F20" d="M301.728,82.65l0.945-0.049v0.672h0.016c0.182-0.466,0.672-0.806,1.154-0.831
		c0.07-0.004,0.154,0.005,0.218,0.023v0.924c-0.092-0.016-0.237-0.022-0.356-0.017c-0.729,0.039-0.98,0.577-0.98,1.215v1.632
		l-0.995,0.052L301.728,82.65L301.728,82.65z"/>
	<path fill="#231F20" d="M270.259,93.031c0,1.352-0.799,2.051-2.136,2.121c-1.346,0.07-2.13-0.539-2.13-1.898v-3.11l1.1-0.058v3.111
		c0,0.545,0.142,1.076,1.03,1.031c0.784-0.043,1.036-0.398,1.036-1.142v-3.11l1.1-0.058V93.031L270.259,93.031z"/>
	<path fill="#231F20" d="M270.921,91.266l0.945-0.049v0.461h0.015c0.238-0.398,0.631-0.594,1.078-0.617
		c1.135-0.059,1.646,0.832,1.646,1.861c0,0.967-0.532,1.896-1.59,1.953c-0.436,0.021-0.849-0.145-1.086-0.49l-0.015,0.002v1.723
		l-0.995,0.052L270.921,91.266L270.921,91.266z M273.609,92.945c0-0.574-0.229-1.158-0.867-1.123
		c-0.651,0.033-0.861,0.625-0.861,1.215c0,0.588,0.225,1.137,0.868,1.102C273.4,94.105,273.609,93.533,273.609,92.945z"/>
	<path fill="#231F20" d="M277.607,94.074h-0.015c-0.229,0.404-0.637,0.594-1.1,0.617c-1.093,0.059-1.625-0.853-1.625-1.854
		c0-0.973,0.54-1.903,1.604-1.961c0.426-0.021,0.848,0.138,1.07,0.481h0.014v-1.821l0.995-0.052v5l-0.944,0.052V94.074
		L277.607,94.074z M276.739,91.611c-0.651,0.035-0.875,0.606-0.875,1.201c0,0.567,0.259,1.149,0.875,1.117
		c0.659-0.033,0.854-0.619,0.854-1.216C277.594,92.127,277.384,91.578,276.739,91.611z"/>
	<path fill="#231F20" d="M279.083,91.951c0.058-0.934,0.89-1.258,1.702-1.301c0.722-0.037,1.59,0.078,1.59,0.947v1.883
		c0,0.33,0.035,0.655,0.126,0.799l-1.009,0.053c-0.034-0.109-0.062-0.229-0.069-0.346c-0.315,0.346-0.776,0.488-1.219,0.512
		c-0.687,0.035-1.233-0.279-1.233-1.021c0-0.817,0.617-1.047,1.233-1.164c0.608-0.121,1.177-0.131,1.177-0.537
		c0-0.428-0.295-0.475-0.645-0.457c-0.379,0.021-0.623,0.188-0.658,0.58L279.083,91.951z M281.381,92.566
		c-0.168,0.156-0.52,0.182-0.826,0.254c-0.309,0.078-0.589,0.199-0.589,0.562c0,0.371,0.287,0.447,0.609,0.431
		c0.776-0.039,0.806-0.658,0.806-0.875V92.566z"/>
	<path fill="#231F20" d="M284.229,90.568l0.729-0.039v0.666l-0.729,0.037v1.793c0,0.338,0.084,0.418,0.422,0.399
		c0.104-0.006,0.203-0.018,0.308-0.045v0.777c-0.168,0.036-0.385,0.055-0.581,0.063c-0.609,0.033-1.143-0.078-1.143-0.801v-2.137
		l-0.603,0.031V90.65l0.603-0.031v-1.087l0.994-0.052V90.568z"/>
	<path fill="#231F20" d="M286.076,92.523c0.027,0.629,0.337,0.899,0.89,0.871c0.399-0.021,0.722-0.283,0.784-0.513l0.876-0.045
		c-0.28,0.869-0.876,1.265-1.694,1.308c-1.143,0.061-1.85-0.688-1.85-1.808c0-1.086,0.749-1.951,1.85-2.01
		c1.232-0.064,1.827,0.94,1.758,2.059L286.076,92.523z M287.693,91.809c-0.09-0.5-0.308-0.754-0.791-0.729
		c-0.631,0.033-0.812,0.531-0.826,0.812L287.693,91.809z"/>
</g>
<path fill="#FFFFFF" d="M116.562,84.713c0,2.55-2.067,4.617-4.618,4.617H32.936c-2.551,0-4.618-2.067-4.618-4.617v-18.39
	c0-2.551,2.067-4.618,4.618-4.618h79.008c2.551,0,4.618,2.067,4.618,4.618V84.713z"/>
<rect x="0.07" y="89.925" fill="#8A5D3B" width="142.74" height="9.929"/>
<rect x="346.017" y="78.975" fill="#D0D2D3" width="31.997" height="4.335"/>
<rect x="350.893" y="74.189" fill="#FFFFFF" width="22.079" height="92.6"/>
<rect x="369.393" y="150.104" fill="#FFFFFF" width="22.079" height="22.033"/>
<rect x="387.893" y="161.625" fill="#FFFFFF" width="22.079" height="13.512"/>
<polygon fill="#D0D2D3" points="350.893,166.789 369.393,150.104 369.393,166.789 "/>
<polygon fill="#D0D2D3" points="369.393,172.1 387.893,161.48 387.893,172.1 "/>
<polygon fill="#FFFFFF" points="421.972,179.648 399.893,179.648 387.893,175.137 409.972,175.137 "/>
<rect x="350.893" y="74.15" fill="#FFFFFF" width="22.079" height="18.318"/>
<rect x="350.893" y="89.303" fill="#F1F1F2" width="22.079" height="3.326"/>
<rect x="350.893" y="86.271" fill="#F1F1F2" width="22.079" height="1.662"/>
<rect x="68.358" y="40.124" fill="#D0D2D3" width="8.164" height="21.581"/>
</svg>
