<?xml version="1.0" encoding="utf-8"?>
<!-- Generator: Adobe Illustrator 16.0.0, SVG Export Plug-In . SVG Version: 6.00 Build 0)  -->
<!DOCTYPE svg PUBLIC "-//W3C//DTD SVG 1.1//EN" "http://www.w3.org/Graphics/SVG/1.1/DTD/svg11.dtd">
<svg version="1.1" id="Layer_1" xmlns="http://www.w3.org/2000/svg" xmlns:xlink="http://www.w3.org/1999/xlink" x="0px" y="0px"
	 width="420px" height="168px" viewBox="-306 70.5 420 168" enable-background="new -306 70.5 420 168" xml:space="preserve">
<polygon fill="#6D3D12" points="0.971,234.574 -204.121,234.574 -194.123,223.826 -7.027,223.826 "/>
<rect x="-213" y="70.5" fill="#9D9D9C" width="224.914" height="135.973"/>
<rect x="-202.181" y="81.195" fill="#3C3C3B" width="201.554" height="112.618"/>
<rect x="-133.054" y="206.473" fill="#9D9D9C" width="63.3" height="22.569"/>
<rect x="-138.37" y="226.732" fill="#9D9D9C" width="73.934" height="7.393"/>
<rect x="-133.054" y="206.473" fill="#838083" width="63.3" height="4.823"/>
<polygon fill="#6D3D12" points="114,238.5 49.611,238.5 52.75,233.126 111.488,233.126 "/>
<path fill="#FFFFFF" d="M88.135,238.137H46.137v-12.592c0-2.934,4.555-5.311,10.172-5.311h21.652c5.619,0,10.174,2.377,10.174,5.311
	V238.137L88.135,238.137z"/>
<rect x="46.137" y="229.186" fill="#F2F3F4" width="41.998" height="9.041"/>
<polygon fill="#5D5A5A" points="-0.627,193.812 -0.627,81.195 -40.939,81.195 -90.771,193.812 "/>
<polygon fill="#A5A3A6" points="-36.068,70.5 -40.801,81.195 -0.488,81.195 -0.488,193.812 -90.633,193.812 -96.234,206.473 
	11.914,206.473 11.914,70.5 "/>
</svg>
