<?xml version="1.0" encoding="utf-8"?>
<!-- Generator: Adobe Illustrator 16.0.0, SVG Export Plug-In . SVG Version: 6.00 Build 0)  -->
<!DOCTYPE svg PUBLIC "-//W3C//DTD SVG 1.1//EN" "http://www.w3.org/Graphics/SVG/1.1/DTD/svg11.dtd">
<svg version="1.1" id="Layer_1" xmlns="http://www.w3.org/2000/svg" xmlns:xlink="http://www.w3.org/1999/xlink" x="0px" y="0px"
	 width="420px" height="168px" viewBox="-306 70.5 420 168" enable-background="new -306 70.5 420 168" xml:space="preserve">
<rect x="-144.561" y="109.203" fill="#FFFFFF" width="90.434" height="53.302"/>
<polygon opacity="0.1" fill="#FFFFFF" enable-background="new    " points="-54.127,162.505 -54.127,111 -76.918,162.505 "/>
<g>
	<path fill="#003865" d="M-99.706,130.279c-14.606,0-25.626,2.244-25.626,2.244s-1.837,0.289-1.837,1.975v11.58
		c0,1.597,1.837,1.908,1.837,1.908s11.158,2.437,25.626,2.437c14.467,0,25.628-2.437,25.628-2.437s1.837-0.312,1.837-1.908v-11.58
		c0-1.686-1.837-1.975-1.837-1.975S-85.101,130.279-99.706,130.279z"/>
	<path fill="#FFFFFF" d="M-117.879,138.045h0.031c0.542-0.972,1.468-1.402,2.566-1.402h0.54v2.7
		c-0.386-0.217-0.756-0.262-1.19-0.262c-1.56,0-1.947,1.034-1.947,2.394v3.192h-2.811v-7.918h2.811V138.045z"/>
	<path fill="#FFFFFF" d="M-105.327,141.18h-5.918c0,1.141,0.604,1.76,1.761,1.76c0.604,0,1.036-0.199,1.345-0.727h2.704
		c-0.447,1.868-2.225,2.719-4.032,2.719c-2.627,0-4.588-1.481-4.588-4.216c0-2.639,1.807-4.228,4.386-4.228
		c2.751,0,4.342,1.697,4.342,4.4V141.18z M-107.938,139.561c-0.139-0.758-0.835-1.25-1.591-1.25c-0.818,0-1.499,0.431-1.667,1.25
		H-107.938z"/>
	<path fill="#FFFFFF" d="M-95.658,141.18h-5.916c0,1.141,0.603,1.76,1.761,1.76c0.604,0,1.035-0.199,1.343-0.727h2.704
		c-0.447,1.868-2.224,2.719-4.031,2.719c-2.626,0-4.589-1.481-4.589-4.216c0-2.639,1.808-4.228,4.388-4.228
		c2.75,0,4.341,1.697,4.341,4.4L-95.658,141.18L-95.658,141.18z M-98.269,139.561c-0.138-0.758-0.834-1.25-1.591-1.25
		c-0.817,0-1.498,0.431-1.667,1.25H-98.269z"/>
	<path fill="#FFFFFF" d="M-78.537,141.18h-5.916c0,1.141,0.602,1.76,1.76,1.76c0.603,0,1.036-0.199,1.345-0.727h2.703
		c-0.449,1.868-2.226,2.719-4.032,2.719c-2.627,0-4.587-1.481-4.587-4.216c0-2.639,1.806-4.228,4.386-4.228
		c2.749,0,4.342,1.697,4.342,4.4L-78.537,141.18L-78.537,141.18z M-81.146,139.561c-0.14-0.758-0.836-1.25-1.594-1.25
		c-0.818,0-1.496,0.431-1.668,1.25H-81.146z"/>
	<path fill="#FFFFFF" d="M-88.463,139.326c-0.416-0.311-0.911-0.557-1.453-0.557c-1.079,0-1.931,0.834-1.931,1.93
		c0,1.145,0.819,1.947,1.978,1.947c0.495,0,1.036-0.199,1.406-0.543l0.716,1.982c-0.88,0.674-2.014,0.846-2.693,0.846
		c-2.349,0-4.312-1.744-4.312-4.139c0-2.55,1.948-4.309,4.436-4.309c0.65,0,1.892,0.285,2.588,0.886L-88.463,139.326z"/>
</g>
<g>
	<path fill="#575756" d="M-123.004,126.111h-1.487l-0.783-3.935h-0.016l-0.784,3.935h-1.511l-1.543-5.709h1.487l0.808,4.174h0.016
		l0.84-4.174h1.399l0.84,4.174h0.016l0.808-4.174h1.487L-123.004,126.111z"/>
	<path fill="#575756" d="M-120.915,120.402h4.549v1.19h-3.062v0.999h2.798v1.152h-2.798v1.087h3.142v1.278h-4.629V120.402
		L-120.915,120.402z"/>
	<path fill="#575756" d="M-115.436,120.402h1.487v4.43h2.663v1.279h-4.15V120.402z"/>
	<path fill="#575756" d="M-106.759,122.441c-0.08-0.576-0.528-0.879-1.151-0.879c-0.959,0-1.328,0.847-1.328,1.694
		c0,0.849,0.368,1.695,1.328,1.695c0.695,0,1.095-0.4,1.151-1.056h1.487c-0.08,1.472-1.159,2.334-2.606,2.334
		c-1.727,0-2.846-1.318-2.846-2.975s1.119-2.974,2.846-2.974c1.231,0,2.567,0.782,2.606,2.159H-106.759z"/>
	<path fill="#575756" d="M-101.879,120.283c1.799,0,2.814,1.318,2.814,2.974s-1.016,2.976-2.814,2.976s-2.814-1.319-2.814-2.976
		C-104.693,121.602-103.678,120.283-101.879,120.283z M-101.879,124.952c0.959,0,1.327-0.849,1.327-1.695s-0.368-1.694-1.327-1.694
		c-0.96,0-1.327,0.847-1.327,1.694C-103.206,124.105-102.839,124.952-101.879,124.952z"/>
	<path fill="#575756" d="M-98.248,120.402h2.191l0.983,3.806h0.016l0.983-3.806h2.19v5.709h-1.398v-4.334H-93.3l-1.199,4.334h-1.135
		l-1.2-4.334h-0.016v4.334h-1.399L-98.248,120.402L-98.248,120.402z"/>
	<path fill="#575756" d="M-90.849,120.402h4.55v1.19h-3.062v0.999h2.798v1.152h-2.798v1.087h3.143v1.278h-4.63L-90.849,120.402
		L-90.849,120.402z"/>
	<path fill="#575756" d="M-78.325,121.682h-1.703v4.43h-1.487v-4.43h-1.703v-1.279h4.894L-78.325,121.682L-78.325,121.682z"/>
	<path fill="#575756" d="M-75.069,120.283c1.799,0,2.814,1.318,2.814,2.974s-1.016,2.976-2.814,2.976
		c-1.798,0-2.814-1.319-2.814-2.976C-77.883,121.602-76.868,120.283-75.069,120.283z M-75.069,124.952
		c0.959,0,1.327-0.849,1.327-1.695s-0.368-1.694-1.327-1.694c-0.96,0-1.327,0.847-1.327,1.694
		C-76.396,124.105-76.029,124.952-75.069,124.952z"/>
</g>
<polygon fill="#EEEDEE" points="-54.098,162.505 -76.819,162.505 -54.026,110.994 "/>
</svg>
