<?xml version="1.0" encoding="utf-8"?>
<!-- Generator: Adobe Illustrator 16.0.0, SVG Export Plug-In . SVG Version: 6.00 Build 0)  -->
<!DOCTYPE svg PUBLIC "-//W3C//DTD SVG 1.1//EN" "http://www.w3.org/Graphics/SVG/1.1/DTD/svg11.dtd">
<svg version="1.1" id="Layer_1" xmlns="http://www.w3.org/2000/svg" xmlns:xlink="http://www.w3.org/1999/xlink" x="0px" y="0px"
	 width="1088px" height="128px" viewBox="-544 -32 1088 128" enable-background="new -544 -32 1088 128" xml:space="preserve">
<polygon fill="#000026" points="-544,95.957 -544,29.234 -498.204,29.234 -498.204,58.609 -478.878,58.609 -478.878,-4.122 
	-452.928,-4.122 -452.928,-29.512 -386.722,-29.512 -386.722,64.084 -350.59,64.084 -350.59,21.268 -302.668,21.268 
	-302.668,52.133 -272.284,52.133 -272.284,-6.324 -230.406,-6.324 -230.406,84 -177.708,84 -177.708,10.314 -78.65,10.314 
	-78.65,45.166 -62.696,45.166 -62.696,-16.568 -16.654,-16.568 -16.654,48.152 37.109,48.152 37.109,22.264 58.092,22.264 
	58.092,69.062 111.107,69.062 111.107,23.258 164.857,23.258 164.857,68.066 250.99,68.066 250.99,-4.122 286.221,-4.122 
	286.221,35.207 317.902,35.207 317.902,69.062 351.611,69.062 351.611,83 381.145,83 381.145,-32 417.268,-32 417.268,60.1 
	444.309,60.1 444.309,27.99 476.246,27.99 476.246,-4.122 497.207,-4.122 497.207,62.09 517.166,62.09 517.166,27.99 544,27.99 
	544,96 "/>
</svg>
