<?xml version="1.0" encoding="utf-8"?>
<!-- Generator: Adobe Illustrator 16.0.0, SVG Export Plug-In . SVG Version: 6.00 Build 0)  -->
<!DOCTYPE svg PUBLIC "-//W3C//DTD SVG 1.1//EN" "http://www.w3.org/Graphics/SVG/1.1/DTD/svg11.dtd">
<svg version="1.1" id="Layer_1" xmlns="http://www.w3.org/2000/svg" xmlns:xlink="http://www.w3.org/1999/xlink" x="0px" y="0px"
	 width="286px" height="192px" viewBox="0 0 286 192" enable-background="new 0 0 286 192" xml:space="preserve">
<polygon fill="#231F20" points="55.288,96 4.5,192 114,192 82.931,96 "/>
<path fill="#231F20" d="M110.912,96c0,0-14.416,6.486-18.762,20.508C88.976,126.746,73.75,192,73.75,192h136.714
	c0,0-66.214-64-68.447-75.244C139.147,102.309,140.969,96,140.969,96H110.912z"/>
<path fill="#231F20" d="M163.317,192c0-52.404,20.568-94.887,45.941-94.887S255.2,139.596,255.2,192h-21.782h-22.756H163.317z"/>
<g>
	<path fill="#FFFFFF" d="M55.288,41.464H33.12V21.879c13.736,0.273,27.336-4.896,28.152-20.536h22.304V96H55.288V41.464z"/>
	<path fill="#FFFFFF" d="M169.528,23.375C146.271,44.863,140.696,73.561,140.969,96h-30.057c-0.272,0,0.816-30.328,19.312-56.713
		c8.976-13.328,11.696-14.823,11.56-14.823H96.496V1.343h73.033V23.375z"/>
	<path fill="#FFFFFF" d="M210.328,0.255c17.271,0,40.393,11.833,40.393,48.417S227.6,97.088,210.463,97.088
		c-17.136,0-40.256-11.832-40.256-48.416S193.327,0.255,210.328,0.255z M210.328,76.28c13.871,0,14.552-17.544,14.552-27.608
		c0-9.792-0.681-27.608-14.28-27.608c-14.008,0-14.553,17.408-14.553,27.608C196.047,58.6,196.592,76.28,210.328,76.28z"/>
</g>
</svg>
