<?xml version="1.0" encoding="utf-8"?>
<!-- Generator: Adobe Illustrator 16.0.0, SVG Export Plug-In . SVG Version: 6.00 Build 0)  -->
<!DOCTYPE svg PUBLIC "-//W3C//DTD SVG 1.1//EN" "http://www.w3.org/Graphics/SVG/1.1/DTD/svg11.dtd">
<svg version="1.1" id="Layer_1" xmlns="http://www.w3.org/2000/svg" xmlns:xlink="http://www.w3.org/1999/xlink" x="0px" y="0px"
	 width="420px" height="168px" viewBox="-306 70.5 420 168" enable-background="new -306 70.5 420 168" xml:space="preserve">
<g>
	<path fill="#FFFFFF" d="M40.5,197.374c-0.221-1.582-1.451-2.416-3.168-2.416c-2.641,0-3.652,2.328-3.652,4.658
		c0,2.327,1.012,4.657,3.652,4.657c1.914,0,3.014-1.1,3.168-2.899h4.094c-0.221,4.043-3.191,6.416-7.174,6.416
		c-4.752,0-7.834-3.626-7.834-8.174c0-4.55,3.082-8.175,7.834-8.175c3.389,0,7.062,2.152,7.174,5.933H40.5L40.5,197.374z"/>
	<path fill="#FFFFFF" d="M46.766,191.771h4.092v12.172h7.328v3.517h-11.42V191.771z"/>
	<path fill="#FFFFFF" d="M60.205,191.771h4.092v15.688h-4.092V191.771z"/>
	<path fill="#FFFFFF" d="M77.562,197.374c-0.222-1.582-1.453-2.416-3.17-2.416c-2.64,0-3.652,2.328-3.652,4.658
		c0,2.327,1.014,4.657,3.652,4.657c1.916,0,3.016-1.1,3.17-2.899h4.092c-0.221,4.043-3.189,6.416-7.174,6.416
		c-4.752,0-7.832-3.626-7.832-8.174c0-4.55,3.08-8.175,7.832-8.175c3.389,0,7.063,2.152,7.174,5.933H77.562L77.562,197.374z"/>
	<path fill="#FFFFFF" d="M83.828,191.771h4.092v6.021l5.172-6.021h5.082l-5.809,6.174l6.535,9.515h-5.084l-4.226-6.592l-1.672,1.758
		v4.834h-4.092L83.828,191.771L83.828,191.771z"/>
	<path fill="#FFFFFF" d="M99.928,203.373h4.095v4.087h-4.095V203.373z M103.91,195.661l-1.012,6.612h-1.826l-1.013-6.612v-3.89
		h3.851V195.661L103.91,195.661z"/>
</g>
</svg>
