<?xml version="1.0" encoding="utf-8"?>
<!-- Generator: Adobe Illustrator 16.0.0, SVG Export Plug-In . SVG Version: 6.00 Build 0)  -->
<!DOCTYPE svg PUBLIC "-//W3C//DTD SVG 1.1//EN" "http://www.w3.org/Graphics/SVG/1.1/DTD/svg11.dtd">
<svg version="1.1" id="Layer_1" xmlns="http://www.w3.org/2000/svg" xmlns:xlink="http://www.w3.org/1999/xlink" x="0px" y="0px"
	 width="142px" height="180px" viewBox="196.5 160.5 142 180" enable-background="new 196.5 160.5 142 180" xml:space="preserve">
<ellipse fill="#F4D19F" cx="268.192" cy="190.938" rx="26.703" ry="24.576"/>
<rect id="LeftEyebrow" x="253.135" y="176.224" transform="matrix(0.9742 -0.2259 0.2259 0.9742 -33.4908 63.2104)" fill="#8A5D3B" width="12.733" height="3.491"/>
<rect id="RightEyebroe" x="270.452" y="178.225" fill="#8A5D3B" width="12.732" height="3.49"/>
<polygon fill="#8A5D3B" points="246.908,186.275 246.908,176.1 255.836,172.716 259.502,169.75 263.236,173.562 280.725,169.75 
	288.434,178.014 289.218,187.971 294.896,187.971 294.438,176.529 282.762,166.359 283.075,160.852 279.946,166.359 
	278.918,160.852 276.821,164.241 245.489,165.816 237.575,184.58 "/>
<path fill="#F3BC7B" d="M292.84,269.613c0,3.131-2.538,5.668-5.669,5.668h-37.957c-3.131,0-5.669-2.537-5.669-5.668v-0.521
	c0-3.131,2.538-5.668,5.669-5.668h37.957c3.131,0,5.669,2.537,5.669,5.668V269.613z"/>
<path fill="#FFFFFF" d="M298.3,274.607c0,16.768-13.592,30.359-30.36,30.359c-16.77,0-30.364-13.594-30.364-30.359H298.3z"/>
<rect x="255.836" y="296.289" fill="#FFFFFF" width="24.713" height="31.33"/>
<path fill="#F4D19F" d="M266.867,321.443c0,4.629-3.754,8.385-8.385,8.385l0,0c-4.629,0-8.384-3.756-8.384-8.385v-50.311
	c0-4.631,3.755-8.385,8.384-8.385l0,0c4.631,0,8.385,3.754,8.385,8.385V321.443z"/>
<path fill="#F4D19F" d="M286.727,321.443c0,4.629-3.755,8.385-8.385,8.385l0,0c-4.63,0-8.384-3.756-8.384-8.385v-50.311
	c0-4.631,3.754-8.385,8.384-8.385l0,0c4.63,0,8.385,3.754,8.385,8.385V321.443z"/>
<path fill="#262261" d="M310.995,304.791c0,0-11.912,3.904-19.414,3.463s-18.534,0-18.534,0l-6.18,9.268l-5.295-9.463
	c0,0,1.766,0.244-9.268,0c-11.032-0.246-28.378-3.773-28.378-3.773l-8.826,10.082l3.089,3.154h-3.089v5.01h5.295l-2.206,2.936
	l-3.089,5.229h105.674l-4.412-6.11h-3.6l-1.768-5.295h5.298l-1.765-4.922h2.205l-5.738-3.904V304.791L310.995,304.791z"/>
<path fill="#603813" d="M230.582,333.289c0-9.016,7.31-16.326,16.326-16.326c9.019,0,16.328,7.311,16.328,16.326H230.582z"/>
<path fill="#603813" d="M271.418,333.289c0-9.016,7.309-16.326,16.327-16.326c9.018,0,16.326,7.311,16.326,16.326H271.418z"/>
<polygon fill="#FFFFFF" points="330.463,264.354 268.438,268.354 205.049,264.354 205.049,180.743 268.438,184.743 330.463,180.743 
	"/>
<polygon fill="#F1F1F2" points="268.438,268.354 205.049,264.354 205.049,180.743 268.438,184.743 "/>
<rect x="196.5" y="223.855" fill="#F4D19F" width="17.008" height="5.213"/>
<rect x="197.5" y="218.201" fill="#F4D19F" width="14.785" height="5.213"/>
<rect x="197.5" y="229.51" fill="#F4D19F" width="14.785" height="5.213"/>
<polygon fill="#F4D19F" points="210.742,243.044 200.109,241.052 200.814,235.904 211.447,237.898 "/>
<rect x="321.277" y="223.855" fill="#F4D19F" width="17.01" height="5.213"/>
<rect x="322.501" y="218.201" fill="#F4D19F" width="14.784" height="5.213"/>
<rect x="322.501" y="229.51" fill="#F4D19F" width="14.784" height="5.213"/>
<polygon fill="#F4D19F" points="324.043,243.044 334.677,241.052 333.972,235.904 323.338,237.898 "/>
<g>
	<path fill="#231F20" d="M284.862,195.314c3.098-0.162,4.918,2.053,4.918,5.021c0,2.887-1.82,5.293-4.918,5.455
		c-3.096,0.162-4.916-2.055-4.916-4.939C279.946,197.883,281.768,195.477,284.862,195.314z M284.862,203.941
		c1.977-0.104,2.72-1.822,2.72-3.489c0-1.751-0.743-3.394-2.72-3.289c-1.975,0.104-2.717,1.823-2.717,3.573
		C282.147,202.404,282.889,204.046,284.862,203.941z"/>
	<path fill="#231F20" d="M297.507,204.893l-1.893,0.099v-1.009l-0.041,0.002c-0.504,0.84-1.373,1.276-2.213,1.32
		c-2.115,0.111-2.647-1.052-2.647-2.845v-4.455l1.989-0.104v4.092c0,1.189,0.351,1.76,1.272,1.711
		c1.078-0.057,1.541-0.682,1.541-2.153v-3.796l1.989-0.104L297.507,204.893L297.507,204.893z"/>
	<path fill="#231F20" d="M301.186,197.456l1.457-0.076v1.331l-1.457,0.076v3.586c0,0.672,0.169,0.832,0.841,0.797
		c0.211-0.011,0.406-0.036,0.616-0.089v1.555c-0.336,0.074-0.77,0.111-1.161,0.132c-1.22,0.063-2.283-0.16-2.283-1.604v-4.271
		l-1.205,0.062v-1.331l1.205-0.063v-2.17l1.988-0.104L301.186,197.456L301.186,197.456z"/>
	<path fill="#231F20" d="M303.299,194.587l1.987-0.104v10.002l-1.987,0.104V194.587z"/>
	<path fill="#231F20" d="M308.144,201.195c0.057,1.259,0.674,1.801,1.778,1.742c0.799-0.041,1.442-0.565,1.569-1.021l1.75-0.092
		c-0.562,1.737-1.75,2.528-3.392,2.614c-2.282,0.121-3.696-1.375-3.696-3.615c0-2.172,1.498-3.903,3.696-4.02
		c2.468-0.129,3.656,1.883,3.519,4.117L308.144,201.195z M311.379,199.766c-0.183-0.998-0.616-1.509-1.582-1.457
		c-1.263,0.065-1.625,1.064-1.653,1.627L311.379,199.766z"/>
	<path fill="#231F20" d="M316.712,196.643l1.456-0.076v1.332l-1.456,0.076v3.586c0,0.672,0.168,0.832,0.841,0.797
		c0.209-0.012,0.406-0.037,0.615-0.09v1.556c-0.336,0.073-0.771,0.11-1.162,0.131c-1.22,0.063-2.283-0.16-2.283-1.603v-4.272
		l-1.205,0.063v-1.332l1.205-0.062v-2.171l1.989-0.104V196.643L316.712,196.643z"/>
</g>
<path fill="#00ADEE" d="M298.79,224.287c-13.508,0-24.495-10.988-24.495-24.495c0-5.819,2.071-11.409,5.776-15.8l4.569-0.385
	c-4.67,4.086-7.348,9.984-7.348,16.185c0,11.853,9.643,21.495,21.495,21.495c11.852,0,21.495-9.643,21.495-21.495
	c0-7.183-3.565-13.86-9.54-17.866l4.578-0.211c5.039,4.608,7.962,11.137,7.962,18.077
	C323.285,213.299,312.297,224.287,298.79,224.287z"/>
<g>
	<path fill="#231F20" d="M282.528,237.838l-1.5,0.078v-0.924l4.099-0.215v0.924l-1.498,0.078v4.076l-1.101,0.059V237.838z"/>
	<path fill="#231F20" d="M285.418,236.762l0.993-0.053v1.885h0.021c0.253-0.42,0.688-0.639,1.06-0.658
		c1.058-0.056,1.324,0.525,1.324,1.422v2.228l-0.996,0.054v-2.046c0-0.596-0.174-0.881-0.639-0.856
		c-0.539,0.029-0.771,0.342-0.771,1.078v1.897l-0.992,0.052L285.418,236.762L285.418,236.762z"/>
	<path fill="#231F20" d="M290.212,239.943c0.027,0.627,0.337,0.897,0.89,0.869c0.399-0.021,0.722-0.283,0.784-0.511l0.876-0.046
		c-0.28,0.869-0.876,1.266-1.694,1.309c-1.143,0.06-1.85-0.688-1.85-1.809c0-1.086,0.749-1.951,1.85-2.009
		c1.232-0.063,1.828,0.938,1.758,2.06L290.212,239.943z M291.829,239.227c-0.09-0.498-0.307-0.754-0.791-0.729
		c-0.631,0.033-0.812,0.533-0.826,0.814L291.829,239.227z"/>
	<path fill="#231F20" d="M297.354,236.018c1.547-0.082,2.457,1.027,2.457,2.512c0,1.443-0.91,2.646-2.457,2.728
		c-1.549,0.082-2.459-1.026-2.459-2.47C294.896,237.302,295.806,236.098,297.354,236.018z M297.354,240.332
		c0.986-0.053,1.357-0.912,1.357-1.746c0-0.875-0.371-1.695-1.357-1.645c-0.988,0.053-1.359,0.912-1.359,1.787
		C295.995,239.562,296.366,240.383,297.354,240.332z"/>
	<path fill="#231F20" d="M300.495,238.016l-0.596,0.031v-0.664l0.596-0.031v-0.281c0-0.637,0.396-1.119,1.211-1.162
		c0.176-0.01,0.357,0.002,0.525,0v0.742c-0.119-0.008-0.238-0.008-0.365-0.002c-0.267,0.016-0.377,0.133-0.377,0.434v0.217
		l0.687-0.035v0.664l-0.687,0.037v2.955l-0.994,0.053V238.016z"/>
	<path fill="#231F20" d="M302.526,237.91l-0.596,0.031v-0.666l0.596-0.031v-0.279c0-0.637,0.398-1.121,1.211-1.164
		c0.176-0.008,0.357,0.004,0.525,0.002v0.742c-0.119-0.008-0.238-0.008-0.363-0.002c-0.267,0.014-0.379,0.131-0.379,0.434v0.217
		l0.688-0.036v0.666l-0.688,0.034v2.957l-0.994,0.052V237.91z"/>
	<path fill="#231F20" d="M305.487,236.529l-0.994,0.052v-0.819l0.994-0.052V236.529z M304.493,237.143l0.994-0.053v3.621
		l-0.994,0.053V237.143z"/>
	<path fill="#231F20" d="M308.562,238.203c-0.062-0.403-0.322-0.605-0.734-0.584c-0.639,0.033-0.848,0.688-0.848,1.221
		c0,0.52,0.202,1.131,0.825,1.098c0.463-0.022,0.729-0.332,0.792-0.775l0.959-0.051c-0.126,0.967-0.791,1.525-1.744,1.576
		c-1.092,0.058-1.826-0.674-1.826-1.761c0-1.128,0.672-1.995,1.85-2.058c0.854-0.045,1.639,0.361,1.701,1.283L308.562,238.203z"/>
	<path fill="#231F20" d="M310.961,236.242l-0.994,0.053v-0.82l0.994-0.052V236.242z M309.967,236.855l0.994-0.054v3.621
		l-0.994,0.054V236.855z"/>
	<path fill="#231F20" d="M311.528,237.887c0.058-0.934,0.891-1.258,1.701-1.301c0.723-0.037,1.59,0.078,1.59,0.946v1.884
		c0,0.329,0.035,0.656,0.127,0.799l-1.01,0.053c-0.033-0.109-0.062-0.229-0.068-0.347c-0.314,0.347-0.776,0.489-1.219,0.513
		c-0.688,0.035-1.232-0.279-1.232-1.021c0-0.817,0.615-1.047,1.232-1.164c0.608-0.122,1.176-0.131,1.176-0.537
		c0-0.428-0.295-0.476-0.645-0.457c-0.378,0.021-0.623,0.188-0.658,0.58L311.528,237.887z M313.825,238.502
		c-0.168,0.156-0.521,0.182-0.827,0.254c-0.308,0.078-0.589,0.199-0.589,0.562c0,0.371,0.287,0.447,0.608,0.43
		c0.777-0.04,0.808-0.658,0.808-0.875V238.502L313.825,238.502z"/>
	<path fill="#231F20" d="M315.442,235.188l0.994-0.051v5l-0.994,0.053V235.188z"/>
	<path fill="#231F20" d="M272.514,244.438l2.696-0.141c0.896-0.047,1.464,0.547,1.464,1.303c0,0.59-0.237,1.043-0.791,1.295v0.015
		c0.539,0.112,0.692,0.631,0.729,1.133c0.021,0.313,0.014,0.901,0.209,1.172l-1.102,0.058c-0.133-0.308-0.119-0.791-0.174-1.188
		c-0.078-0.521-0.281-0.742-0.834-0.713l-1.102,0.059v1.953l-1.1,0.059L272.514,244.438L272.514,244.438z M273.612,246.643
		l1.205-0.062c0.49-0.024,0.756-0.25,0.756-0.755c0-0.483-0.266-0.68-0.756-0.653l-1.205,0.062V246.643z"/>
	<path fill="#231F20" d="M278.108,247.577c0.026,0.628,0.336,0.899,0.89,0.87c0.397-0.021,0.722-0.282,0.784-0.51l0.875-0.047
		c-0.279,0.868-0.875,1.266-1.694,1.309c-1.142,0.059-1.851-0.688-1.851-1.809c0-1.086,0.75-1.951,1.851-2.009
		c1.231-0.065,1.828,0.938,1.758,2.058L278.108,247.577z M279.725,246.861c-0.091-0.5-0.309-0.754-0.791-0.729
		c-0.631,0.033-0.812,0.533-0.825,0.813L279.725,246.861z"/>
	<path fill="#231F20" d="M281.948,247.376c0.027,0.628,0.336,0.899,0.891,0.87c0.398-0.021,0.722-0.283,0.784-0.512l0.876-0.045
		c-0.28,0.869-0.876,1.265-1.694,1.308c-1.144,0.06-1.851-0.687-1.851-1.808c0-1.086,0.75-1.951,1.851-2.01
		c1.231-0.063,1.827,0.94,1.759,2.06L281.948,247.376z M283.567,246.66c-0.091-0.499-0.308-0.754-0.791-0.729
		c-0.631,0.032-0.812,0.531-0.826,0.812L283.567,246.66z"/>
	<path fill="#231F20" d="M287.44,246.311c-0.063-0.402-0.322-0.606-0.736-0.584c-0.637,0.032-0.848,0.688-0.848,1.222
		c0,0.518,0.202,1.131,0.825,1.098c0.464-0.024,0.729-0.332,0.792-0.776l0.96-0.051c-0.127,0.967-0.791,1.526-1.743,1.575
		c-1.094,0.058-1.828-0.674-1.828-1.76c0-1.127,0.672-1.996,1.851-2.058c0.854-0.045,1.639,0.361,1.7,1.282L287.44,246.311z"/>
	<path fill="#231F20" d="M289.636,246.973c0.028,0.629,0.336,0.9,0.891,0.871c0.398-0.021,0.722-0.283,0.783-0.512l0.875-0.045
		c-0.279,0.869-0.875,1.264-1.693,1.307c-1.143,0.061-1.851-0.687-1.851-1.807c0-1.086,0.75-1.951,1.851-2.01
		c1.231-0.064,1.828,0.94,1.759,2.059L289.636,246.973z M291.254,246.258c-0.093-0.5-0.31-0.755-0.792-0.729
		c-0.63,0.033-0.812,0.533-0.826,0.812L291.254,246.258z"/>
	<path fill="#231F20" d="M297.868,244.791c-0.069-0.494-0.547-0.848-1.092-0.818c-0.988,0.051-1.358,0.911-1.358,1.786
		c0,0.834,0.37,1.655,1.358,1.603c0.672-0.034,1.051-0.516,1.135-1.18l1.062-0.055c-0.111,1.252-0.974,2.096-2.197,2.16
		c-1.55,0.08-2.459-1.027-2.459-2.471c0-1.484,0.909-2.688,2.459-2.771c1.1-0.057,2.022,0.539,2.155,1.688L297.868,244.791z"/>
	<path fill="#231F20" d="M302.839,247.85l-0.946,0.049v-0.504l-0.021,0.002c-0.252,0.42-0.688,0.638-1.106,0.66
		c-1.058,0.055-1.323-0.524-1.323-1.422v-2.229l0.994-0.053v2.045c0,0.597,0.176,0.881,0.637,0.856
		c0.541-0.028,0.771-0.342,0.771-1.075v-1.898l0.995-0.053L302.839,247.85L302.839,247.85z"/>
	<path fill="#231F20" d="M304.188,246.602c0.008,0.436,0.371,0.59,0.764,0.57c0.287-0.016,0.652-0.146,0.652-0.496
		c0-0.303-0.414-0.385-1.129-0.502c-0.574-0.096-1.148-0.27-1.148-0.906c0-0.924,0.801-1.203,1.576-1.244
		c0.791-0.043,1.521,0.187,1.599,1.07l-0.945,0.051c-0.026-0.385-0.321-0.475-0.68-0.455c-0.226,0.013-0.556,0.07-0.556,0.365
		c0,0.357,0.562,0.377,1.129,0.48c0.58,0.102,1.147,0.281,1.147,0.954c0,0.952-0.825,1.304-1.651,1.348
		c-0.842,0.044-1.66-0.228-1.703-1.187L304.188,246.602z"/>
	<path fill="#231F20" d="M308.263,243.943l0.729-0.037v0.664l-0.729,0.039v1.793c0,0.337,0.084,0.416,0.421,0.397
		c0.104-0.006,0.203-0.018,0.308-0.044v0.777c-0.168,0.037-0.385,0.056-0.58,0.064c-0.608,0.031-1.143-0.08-1.143-0.802v-2.137
		l-0.603,0.032v-0.666l0.603-0.031v-1.084l0.994-0.053V243.943z"/>
	<path fill="#231F20" d="M311.049,243.701c1.142-0.061,1.877,0.656,1.877,1.812c0,1.147-0.735,1.942-1.877,2.004
		c-1.134,0.059-1.869-0.658-1.869-1.808C309.18,244.555,309.915,243.76,311.049,243.701z M311.049,246.768
		c0.681-0.035,0.883-0.627,0.883-1.201c0-0.582-0.202-1.151-0.883-1.116c-0.672,0.034-0.875,0.627-0.875,1.209
		C310.174,246.232,310.377,246.803,311.049,246.768z"/>
	<path fill="#231F20" d="M313.421,243.674l0.938-0.049v0.49l0.016-0.001c0.26-0.386,0.638-0.622,1.105-0.646
		c0.455-0.024,0.861,0.123,1.057,0.548c0.213-0.326,0.591-0.635,1.095-0.66c0.771-0.041,1.323,0.287,1.323,1.227v2.423l-0.994,0.052
		v-2.051c0-0.484-0.042-0.881-0.609-0.852c-0.56,0.029-0.665,0.496-0.665,0.951v2.019l-0.993,0.052v-2.031
		c0-0.42,0.026-0.903-0.604-0.871c-0.196,0.011-0.673,0.16-0.673,0.867v2.103l-0.994,0.053L313.421,243.674L313.421,243.674z"/>
	<path fill="#231F20" d="M320.379,245.361c0.028,0.629,0.337,0.899,0.89,0.871c0.399-0.021,0.724-0.283,0.784-0.512l0.876-0.046
		c-0.28,0.869-0.876,1.265-1.695,1.308c-1.142,0.061-1.849-0.688-1.849-1.808c0-1.086,0.749-1.95,1.849-2.009
		c1.233-0.064,1.828,0.939,1.76,2.059L320.379,245.361z M321.997,244.646c-0.091-0.5-0.31-0.754-0.791-0.729
		c-0.631,0.033-0.812,0.533-0.827,0.813L321.997,244.646z"/>
	<path fill="#231F20" d="M323.402,243.15l0.945-0.049v0.672h0.017c0.182-0.467,0.672-0.807,1.153-0.832
		c0.07-0.004,0.154,0.006,0.218,0.023v0.924c-0.092-0.016-0.236-0.021-0.355-0.017c-0.729,0.039-0.98,0.577-0.98,1.215v1.632
		l-0.994,0.053L323.402,243.15L323.402,243.15z"/>
	<path fill="#231F20" d="M291.934,253.531c0,1.352-0.799,2.051-2.136,2.121c-1.346,0.07-2.13-0.539-2.13-1.898v-3.109l1.1-0.059
		v3.111c0,0.545,0.142,1.076,1.03,1.031c0.784-0.043,1.036-0.398,1.036-1.143v-3.109l1.1-0.059V253.531L291.934,253.531z"/>
	<path fill="#231F20" d="M292.596,251.766l0.945-0.049v0.461h0.015c0.238-0.398,0.631-0.594,1.078-0.617
		c1.135-0.059,1.646,0.832,1.646,1.861c0,0.967-0.532,1.896-1.59,1.953c-0.437,0.021-0.85-0.145-1.086-0.49l-0.016,0.002v1.723
		l-0.995,0.053L292.596,251.766L292.596,251.766z M295.284,253.445c0-0.574-0.229-1.158-0.867-1.123
		c-0.651,0.033-0.861,0.625-0.861,1.215c0,0.588,0.225,1.137,0.868,1.102C295.075,254.605,295.284,254.033,295.284,253.445z"/>
	<path fill="#231F20" d="M299.282,254.574h-0.016c-0.229,0.404-0.637,0.594-1.1,0.617c-1.094,0.059-1.625-0.854-1.625-1.854
		c0-0.973,0.54-1.903,1.604-1.961c0.426-0.021,0.848,0.138,1.07,0.481h0.014v-1.821l0.995-0.052v5l-0.944,0.052v-0.462H299.282z
		 M298.414,252.111c-0.651,0.035-0.875,0.605-0.875,1.201c0,0.566,0.259,1.148,0.875,1.117c0.659-0.033,0.854-0.619,0.854-1.217
		C299.269,252.627,299.059,252.078,298.414,252.111z"/>
	<path fill="#231F20" d="M300.758,252.451c0.058-0.934,0.89-1.258,1.702-1.301c0.722-0.037,1.59,0.078,1.59,0.947v1.883
		c0,0.33,0.035,0.654,0.126,0.799l-1.009,0.053c-0.034-0.109-0.062-0.229-0.069-0.346c-0.315,0.346-0.776,0.488-1.219,0.512
		c-0.687,0.035-1.233-0.279-1.233-1.021c0-0.816,0.617-1.047,1.233-1.164c0.608-0.121,1.177-0.131,1.177-0.537
		c0-0.428-0.295-0.475-0.645-0.457c-0.379,0.021-0.623,0.188-0.658,0.58L300.758,252.451z M303.056,253.066
		c-0.168,0.156-0.52,0.182-0.826,0.254c-0.309,0.078-0.589,0.199-0.589,0.562c0,0.371,0.287,0.447,0.609,0.431
		c0.776-0.039,0.806-0.658,0.806-0.875V253.066L303.056,253.066z"/>
	<path fill="#231F20" d="M305.903,251.068l0.729-0.039v0.666l-0.729,0.037v1.793c0,0.338,0.084,0.418,0.422,0.398
		c0.104-0.006,0.203-0.018,0.309-0.045v0.777c-0.168,0.035-0.385,0.055-0.581,0.062c-0.608,0.033-1.144-0.078-1.144-0.801v-2.137
		l-0.603,0.031v-0.662l0.603-0.031v-1.087l0.994-0.052V251.068z"/>
	<path fill="#231F20" d="M307.751,253.023c0.027,0.629,0.337,0.898,0.89,0.871c0.399-0.021,0.722-0.283,0.784-0.514l0.876-0.045
		c-0.28,0.869-0.876,1.266-1.694,1.309c-1.143,0.061-1.85-0.688-1.85-1.809c0-1.086,0.749-1.951,1.85-2.01
		c1.232-0.064,1.827,0.939,1.758,2.059L307.751,253.023z M309.368,252.309c-0.09-0.5-0.309-0.754-0.791-0.729
		c-0.631,0.033-0.812,0.531-0.826,0.812L309.368,252.309z"/>
</g>
</svg>
