<?xml version="1.0" encoding="utf-8"?>
<!-- Generator: Adobe Illustrator 16.0.0, SVG Export Plug-In . SVG Version: 6.00 Build 0)  -->
<!DOCTYPE svg PUBLIC "-//W3C//DTD SVG 1.1//EN" "http://www.w3.org/Graphics/SVG/1.1/DTD/svg11.dtd">
<svg version="1.1" id="Layer_1" xmlns="http://www.w3.org/2000/svg" xmlns:xlink="http://www.w3.org/1999/xlink" x="0px" y="0px"
	 width="90px" height="90px" viewBox="0 0 90 90" enable-background="new 0 0 90 90" xml:space="preserve">
<path fill="none" stroke="#ED2A7B" stroke-width="1.239" stroke-linecap="round" stroke-linejoin="round" stroke-miterlimit="10" stroke-dasharray="0.1,4" d="
	M46.978,87.136c-25.374-5.672-41.345-30.84-35.671-56.212c4.538-20.3,24.671-33.077,44.969-28.539
	c16.238,3.63,26.461,19.737,22.832,35.975c-2.906,12.991-15.791,21.17-28.783,18.264C39.932,54.3,33.391,43.991,35.714,33.599
	c1.859-8.312,10.105-13.545,18.42-11.688c6.65,1.486,10.838,8.085,9.35,14.734c-1.189,5.324-6.467,8.672-11.789,7.483
	c-4.256-0.951-6.936-5.176-5.984-9.432c0.762-3.405,4.14-5.548,7.545-4.788"/>
</svg>
