<?xml version="1.0" encoding="utf-8"?>
<!-- Generator: Adobe Illustrator 15.0.2, SVG Export Plug-In . SVG Version: 6.00 Build 0)  -->
<!DOCTYPE svg PUBLIC "-//W3C//DTD SVG 1.1//EN" "http://www.w3.org/Graphics/SVG/1.1/DTD/svg11.dtd">
<svg version="1.1" id="Layer_1" xmlns="http://www.w3.org/2000/svg" xmlns:xlink="http://www.w3.org/1999/xlink" x="0px" y="0px"
	 width="174px" height="200px" viewBox="0 0 174 200" enable-background="new 0 0 174 200" xml:space="preserve">
<rect y="12.43" fill="#878787" width="174" height="187.57"/>
<rect x="69.293" y="115.317" fill="#C6C6C6" width="93.077" height="84.683"/>
<rect x="69.293" y="106.214" fill="#B2B2B2" width="93.077" height="9.104"/>
<rect fill="#B2B2B2" width="174" height="9.103"/>
<rect y="9.66" fill="#575756" width="174" height="5.54"/>
<rect x="44.52" y="171.371" fill="#575756" width="14.755" height="28.629"/>
<g>
	<path fill="#575756" d="M60.366,63.916c-23.562,0-41.344,3.615-41.344,3.615s-2.963,0.462-2.963,3.178v18.642
		c0,2.573,2.963,3.073,2.963,3.073s18.003,3.921,41.344,3.921c23.342,0,41.346-3.921,41.346-3.921s2.964-0.5,2.964-3.073V70.709
		c0-2.716-2.964-3.178-2.964-3.178S83.93,63.916,60.366,63.916z"/>
</g>
<g>
	<path fill="#003865" d="M59.987,58.939c-23.562,0-41.344,3.615-41.344,3.615s-2.964,0.462-2.964,3.178v18.643
		c0,2.573,2.964,3.073,2.964,3.073s18.003,3.921,41.344,3.921s41.346-3.921,41.346-3.921s2.964-0.5,2.964-3.073V65.732
		c0-2.716-2.964-3.178-2.964-3.178S83.55,58.939,59.987,58.939z"/>
	<path fill="#FFFFFF" d="M30.669,71.444h0.05c0.873-1.565,2.368-2.26,4.138-2.26h0.873v4.348c-0.622-0.348-1.221-0.422-1.92-0.422
		c-2.516,0-3.141,1.665-3.141,3.85v5.145h-4.536V69.357h4.536V71.444z"/>
	<path fill="#FFFFFF" d="M50.918,76.489h-9.546c0,1.838,0.973,2.833,2.841,2.833c0.973,0,1.67-0.323,2.17-1.168h4.361
		c-0.723,3.006-3.59,4.374-6.505,4.374c-4.238,0-7.402-2.385-7.402-6.784c0-4.248,2.915-6.807,7.078-6.807
		c4.436,0,7.003,2.733,7.003,7.082V76.489z M46.706,73.88c-0.225-1.218-1.347-2.012-2.567-2.012c-1.319,0-2.418,0.694-2.69,2.012
		H46.706z"/>
	<path fill="#FFFFFF" d="M66.519,76.489h-9.544c0,1.838,0.97,2.833,2.841,2.833c0.97,0,1.669-0.323,2.167-1.168h4.362
		c-0.723,3.006-3.589,4.374-6.505,4.374c-4.237,0-7.402-2.385-7.402-6.784c0-4.248,2.917-6.807,7.079-6.807
		c4.436,0,7.002,2.733,7.002,7.082V76.489z M62.306,73.88c-0.224-1.218-1.344-2.012-2.565-2.012c-1.321,0-2.418,0.694-2.691,2.012
		H62.306z"/>
	<path fill="#FFFFFF" d="M94.14,76.489h-9.546c0,1.838,0.973,2.833,2.841,2.833c0.974,0,1.672-0.323,2.17-1.168h4.361
		c-0.724,3.006-3.59,4.374-6.506,4.374c-4.237,0-7.402-2.385-7.402-6.784c0-4.248,2.917-6.807,7.078-6.807
		c4.438,0,7.004,2.733,7.004,7.082V76.489z M89.928,73.88c-0.224-1.218-1.346-2.012-2.567-2.012c-1.32,0-2.416,0.694-2.692,2.012
		H89.928z"/>
	<path fill="#FFFFFF" d="M78.126,73.506c-0.672-0.498-1.47-0.896-2.344-0.896c-1.743,0-3.116,1.342-3.116,3.108
		c0,1.84,1.321,3.132,3.191,3.132c0.799,0,1.672-0.322,2.269-0.87l1.154,3.19c-1.42,1.086-3.249,1.359-4.346,1.359
		c-3.789,0-6.955-2.809-6.955-6.662c0-4.103,3.142-6.935,7.156-6.935c1.048,0,3.051,0.461,4.174,1.426L78.126,73.506z"/>
</g>
</svg>
