<?xml version="1.0" encoding="utf-8"?>
<!-- Generator: Adobe Illustrator 15.0.2, SVG Export Plug-In . SVG Version: 6.00 Build 0)  -->
<!DOCTYPE svg PUBLIC "-//W3C//DTD SVG 1.1//EN" "http://www.w3.org/Graphics/SVG/1.1/DTD/svg11.dtd">
<svg version="1.1" id="Layer_1" xmlns="http://www.w3.org/2000/svg" xmlns:xlink="http://www.w3.org/1999/xlink" x="0px" y="0px"
	 width="135px" height="106px" viewBox="0 0 135 106" enable-background="new 0 0 135 106" xml:space="preserve">
<path fill="#FFDE00" d="M29.777,83.464V63.007c0-0.491-0.398-0.891-0.89-0.891H15.639c-0.492,0-0.89,0.399-0.89,0.891v20.457H0.3
	v14.535h30.679V83.464H29.777z M16.529,63.897h11.468v19.566H16.529V63.897z"/>
<circle cx="4.726" cy="101.272" r="4.726"/>
<circle cx="22.263" cy="101.272" r="4.726"/>
<path fill="#C6C6C6" d="M5.476,72.655v-5.076c0-0.414-0.336-0.75-0.75-0.75H2.093c-0.414,0-0.75,0.336-0.75,0.75
	s0.336,0.75,0.75,0.75h1.882v4.326H2.909v10.809h3.634V72.655H5.476z"/>
</svg>
