<?xml version="1.0" encoding="utf-8"?>
<!-- Generator: Adobe Illustrator 15.0.2, SVG Export Plug-In . SVG Version: 6.00 Build 0)  -->
<!DOCTYPE svg PUBLIC "-//W3C//DTD SVG 1.1//EN" "http://www.w3.org/Graphics/SVG/1.1/DTD/svg11.dtd">
<svg version="1.1" id="Layer_1" xmlns="http://www.w3.org/2000/svg" xmlns:xlink="http://www.w3.org/1999/xlink" x="0px" y="0px"
	 width="91px" height="82px" viewBox="0 0 91 82" enable-background="new 0 0 91 82" xml:space="preserve">
<path fill="#FFDE00" d="M45.591,47.538V16.257c0-0.759-0.615-1.374-1.374-1.374H23.94c-0.759,0-1.374,0.615-1.374,1.374v31.281
	H0.459v22.228h46.96V47.538H45.591z M25.313,17.63h17.531v29.908H25.313V17.63z"/>
<circle cx="7.234" cy="74.771" r="7.234"/>
<circle cx="34.08" cy="74.771" r="7.233"/>
<path fill="#C6C6C6" d="M8.391,31.01v-7.762c0-0.639-0.518-1.157-1.157-1.157H3.206c-0.639,0-1.157,0.518-1.157,1.157
	s0.518,1.157,1.157,1.157h2.871v6.604H4.454v16.528h5.562V31.01H8.391z"/>
</svg>
