<?xml version="1.0" encoding="utf-8"?>
<!-- Generator: Adobe Illustrator 15.0.2, SVG Export Plug-In . SVG Version: 6.00 Build 0)  -->
<!DOCTYPE svg PUBLIC "-//W3C//DTD SVG 1.1//EN" "http://www.w3.org/Graphics/SVG/1.1/DTD/svg11.dtd">
<svg version="1.1" id="Layer_1" xmlns="http://www.w3.org/2000/svg" xmlns:xlink="http://www.w3.org/1999/xlink" x="0px" y="0px"
	 width="277px" height="121px" viewBox="0 0 277 121" enable-background="new 0 0 277 121" xml:space="preserve">
<path fill="#FFFFFF" d="M52.211,26.851c4.524,0,8.499,1.206,11.096,4.199h63.602l0.174-0.8h54.879c-0.11,0.262-0.213,0.535-0.32,0.8
	h33.646c2.655-3.082,6.38-5.049,11.625-5.049c5.04,0,8.649,1.971,11.246,5.049h33.695C262.593,8.158,242.577,0,226.572,0
	c-15.493,0-35.044,7.897-44.479,29.936V1.359h-81.158l-3.538,19.717C90.644,6.882,74.214,0,52.55,0
	C28.086,0,10.49,11.106,4.551,31.049H40.18C42.982,28.358,46.908,26.851,52.211,26.851z"/>
<path fill="#E30613" d="M35.944,38.095c0.938-2.836,2.328-5.214,4.235-7.046H4.551C3.884,33.287,3.366,35.637,3,38.095H35.944z"/>
<path fill="#E30613" d="M125.378,38.095l1.53-7.046H63.307c1.492,1.719,2.517,4.037,2.94,7.046"/>
<path fill="#E30613" d="M211.406,38.095c0.931-2.665,2.188-5.082,3.882-7.046h-33.646c-0.893,2.209-1.687,4.557-2.367,7.046"/>
<path fill="#E30613" d="M241.993,38.095h32.238c-0.68-2.494-1.482-4.833-2.377-7.046h-33.695
	C239.818,33.016,241.063,35.435,241.993,38.095z"/>
<path fill="#B3B3B3" d="M244.739,60.5c0,12.576-0.848,34.498-18.167,34.498c-17.148,0-17.826-22.092-17.826-34.498
	c0-6.489,0.181-15.306,2.66-22.405h-32.132c-0.922,3.375-1.645,7.002-2.116,10.921c-7.018-6.648-16.717-9.76-27.325-9.76
	c-8.829,0-18.505,1.529-25.806,6.968l-0.34-0.339l1.691-7.79H66.247c0.139,0.994,0.226,2.05,0.226,3.2
	c0,8.667-9.847,13.426-15.96,17.164C35.401,67.637,18.423,76.643,8.576,90.41c-5.773,7.986-9.168,17.844-8.49,29.23h102.381v-6.156
	c7.624,4.479,18.26,7.516,32.935,7.516c25.373,0,42.291-9.775,49.304-24.635C194.833,114.381,212.449,121,226.743,121
	C248.137,121,277,106.215,277,60.5c0-8.507-1.003-15.937-2.769-22.405h-32.238C244.511,45.293,244.739,54.217,244.739,60.5z
	 M136.42,94.148c-5.264,0-10.017-1.191-13.414-3.908c-2.376-1.871-4.074-4.76-4.753-7.818H84.806
	c-0.2,2.299-0.051,5.184,0.643,8.328H48.985v-0.17c13.633-8.334,29.999-15.141,40.633-26.125l-0.906,5.051h31.58
	c3.565-5.438,9.167-7.646,17.147-7.646c10.187,0,16.979,6.117,16.979,16.484C154.418,87.689,146.268,94.148,136.42,94.148z"/>
<g>
	<path fill="#003865" d="M227.502,7.788c-9.78,0-17.16,1.507-17.16,1.507s-1.23,0.192-1.23,1.324v7.768
		c0,1.072,1.23,1.281,1.23,1.281s7.472,1.634,17.16,1.634c9.689,0,17.162-1.634,17.162-1.634s1.231-0.209,1.231-1.281V10.62
		c0-1.132-1.231-1.324-1.231-1.324S237.283,7.788,227.502,7.788z"/>
	<path fill="#FFFFFF" d="M215.334,13h0.02c0.361-0.652,0.983-0.942,1.717-0.942h0.363v1.812c-0.259-0.145-0.506-0.175-0.798-0.175
		c-1.044,0-1.302,0.693-1.302,1.604v2.144h-1.884V12.13h1.884V13z"/>
	<path fill="#FFFFFF" d="M223.738,15.102h-3.963c0,0.766,0.403,1.18,1.181,1.18c0.402,0,0.692-0.134,0.899-0.487h1.812
		c-0.301,1.253-1.49,1.823-2.701,1.823c-1.76,0-3.073-0.994-3.073-2.827c0-1.77,1.211-2.837,2.938-2.837
		c1.842,0,2.907,1.139,2.907,2.951V15.102z M221.99,14.015c-0.094-0.508-0.56-0.838-1.065-0.838c-0.55,0-1.005,0.289-1.117,0.838
		H221.99z"/>
	<path fill="#FFFFFF" d="M230.213,15.102h-3.961c0,0.766,0.403,1.18,1.18,1.18c0.402,0,0.692-0.134,0.899-0.487h1.811
		c-0.3,1.253-1.489,1.823-2.701,1.823c-1.757,0-3.071-0.994-3.071-2.827c0-1.77,1.21-2.837,2.938-2.837
		c1.841,0,2.905,1.139,2.905,2.951V15.102z M228.466,14.015c-0.094-0.508-0.559-0.838-1.065-0.838c-0.549,0-1.004,0.289-1.117,0.838
		H228.466z"/>
	<path fill="#FFFFFF" d="M241.68,15.102h-3.963c0,0.766,0.404,1.18,1.179,1.18c0.404,0,0.694-0.134,0.9-0.487h1.811
		c-0.3,1.253-1.489,1.823-2.7,1.823c-1.759,0-3.073-0.994-3.073-2.827c0-1.77,1.213-2.837,2.939-2.837
		c1.842,0,2.907,1.139,2.907,2.951V15.102z M239.931,14.015c-0.093-0.508-0.559-0.838-1.066-0.838c-0.547,0-1.002,0.289-1.117,0.838
		H239.931z"/>
	<path fill="#FFFFFF" d="M235.033,13.858c-0.28-0.208-0.611-0.373-0.974-0.373c-0.725,0-1.295,0.559-1.295,1.295
		c0,0.767,0.549,1.305,1.326,1.305c0.331,0,0.692-0.134,0.942-0.363l0.479,1.329c-0.589,0.453-1.349,0.567-1.805,0.567
		c-1.572,0-2.887-1.171-2.887-2.776c0-1.709,1.303-2.89,2.97-2.89c0.435,0,1.267,0.192,1.734,0.595L235.033,13.858z"/>
</g>
</svg>
