<?xml version="1.0" encoding="utf-8"?>
<!-- Generator: Adobe Illustrator 15.0.2, SVG Export Plug-In . SVG Version: 6.00 Build 0)  -->
<!DOCTYPE svg PUBLIC "-//W3C//DTD SVG 1.1//EN" "http://www.w3.org/Graphics/SVG/1.1/DTD/svg11.dtd">
<svg version="1.1" id="Layer_1" xmlns="http://www.w3.org/2000/svg" xmlns:xlink="http://www.w3.org/1999/xlink" x="0px" y="0px"
	 width="496px" height="151px" viewBox="0 0 496 151" enable-background="new 0 0 496 151" xml:space="preserve">
<path d="M333.375,55.208c0.012,0.001,0.023,0.002,0.033,0.002"/>
<rect x="290.102" y="100.613" fill="#FFFFFF" width="0.313" height="0"/>
<path fill="#F39200" d="M357.498,132.983c-19.74,0-35.799-16.084-35.799-35.854s16.059-35.854,35.799-35.854
	s35.799,16.084,35.799,35.854S377.238,132.983,357.498,132.983z M357.498,69.966c-14.947,0-27.109,12.185-27.109,27.164
	s12.162,27.164,27.109,27.164c14.949,0,27.109-12.186,27.109-27.164S372.447,69.966,357.498,69.966z"/>
<path fill="#FFFFFF" d="M286.422,132.983c-19.738,0-35.799-16.084-35.799-35.854s16.061-35.854,35.799-35.854
	c19.74,0,35.801,16.084,35.801,35.854S306.162,132.983,286.422,132.983z M286.422,69.966c-14.947,0-27.109,12.185-27.109,27.164
	s12.162,27.164,27.109,27.164c14.949,0,27.111-12.186,27.111-27.164S301.371,69.966,286.422,69.966z"/>
<path d="M214.515,132.983c-19.74,0-35.799-16.084-35.799-35.854s16.06-35.854,35.799-35.854s35.8,16.084,35.8,35.854
	S234.254,132.983,214.515,132.983z M214.515,69.966c-14.948,0-27.109,12.185-27.109,27.164s12.161,27.164,27.109,27.164
	s27.109-12.186,27.109-27.164S229.462,69.966,214.515,69.966z"/>
<path fill="#706F6F" d="M250.631,71.708c-19.74,0-35.8-16.084-35.8-35.854S230.891,0,250.631,0
	c19.738,0,35.799,16.084,35.799,35.854S270.369,71.708,250.631,71.708z M250.631,8.69c-14.948,0-27.109,12.186-27.109,27.164
	c0,14.978,12.161,27.164,27.109,27.164c14.947,0,27.109-12.186,27.109-27.164C277.74,20.876,265.578,8.69,250.631,8.69z"/>
<path fill="#FFFFFF" d="M35.799,71.708C16.06,71.708,0,55.625,0,35.854S16.06,0,35.799,0c19.74,0,35.799,16.084,35.799,35.854
	S55.539,71.708,35.799,71.708z M35.799,8.69C20.851,8.69,8.69,20.876,8.69,35.854c0,14.978,12.161,27.164,27.108,27.164
	s27.109-12.186,27.109-27.164C62.908,20.876,50.747,8.69,35.799,8.69z"/>
<path fill="#706F6F" d="M143.372,132.983c-19.74,0-35.8-16.084-35.8-35.854s16.06-35.854,35.8-35.854
	c19.739,0,35.799,16.084,35.799,35.854S163.111,132.983,143.372,132.983z M143.372,69.966c-14.948,0-27.109,12.185-27.109,27.164
	s12.161,27.164,27.109,27.164c14.948,0,27.108-12.186,27.108-27.164S158.319,69.966,143.372,69.966z"/>
<path d="M71.463,132.983c-19.74,0-35.799-16.084-35.799-35.854s16.06-35.854,35.799-35.854s35.799,16.084,35.799,35.854
	S91.203,132.983,71.463,132.983z M71.463,69.966c-14.948,0-27.109,12.185-27.109,27.164s12.161,27.164,27.109,27.164
	s27.109-12.186,27.109-27.164S86.411,69.966,71.463,69.966z"/>
<path fill="#F39200" d="M107.578,71.708c-19.74,0-35.799-16.084-35.799-35.854S87.838,0,107.578,0c19.74,0,35.8,16.084,35.8,35.854
	S127.318,71.708,107.578,71.708z M107.578,8.69c-14.948,0-27.109,12.186-27.109,27.164c0,14.978,12.161,27.164,27.109,27.164
	c14.948,0,27.109-12.186,27.109-27.164C134.688,20.876,122.526,8.69,107.578,8.69z"/>
<path fill="#E94E1B" d="M179.235,71.708c-19.739,0-35.799-16.084-35.799-35.854S159.496,0,179.235,0
	c19.74,0,35.8,16.084,35.8,35.854S198.975,71.708,179.235,71.708z M179.235,8.69c-14.948,0-27.108,12.186-27.108,27.164
	c0,14.978,12.161,27.164,27.108,27.164c14.948,0,27.109-12.186,27.109-27.164C206.344,20.876,194.183,8.69,179.235,8.69z"/>
<path d="M321.604,71.708c-19.738,0-35.797-16.084-35.797-35.854S301.865,0,321.604,0c19.742,0,35.801,16.084,35.801,35.854
	S341.346,71.708,321.604,71.708z M321.604,8.69c-14.947,0-27.107,12.186-27.107,27.164c0,14.978,12.16,27.164,27.107,27.164
	c14.949,0,27.111-12.186,27.111-27.164C348.715,20.876,336.553,8.69,321.604,8.69z"/>
</svg>
