<?xml version="1.0" encoding="utf-8"?>
<!-- Generator: Adobe Illustrator 15.0.2, SVG Export Plug-In . SVG Version: 6.00 Build 0)  -->
<!DOCTYPE svg PUBLIC "-//W3C//DTD SVG 1.1//EN" "http://www.w3.org/Graphics/SVG/1.1/DTD/svg11.dtd">
<svg version="1.1" id="Layer_1" xmlns="http://www.w3.org/2000/svg" xmlns:xlink="http://www.w3.org/1999/xlink" x="0px" y="0px"
	 width="496px" height="151px" viewBox="0 0 496 151" enable-background="new 0 0 496 151" xml:space="preserve">
<g>
	<path d="M421.733,94.777c-0.889,1.335-1.185,2.967-1.925,4.376c-1.926,3.412-6.517,7.194-9.923,9.123
		c0.074,7.121,0.666,14.315,0.666,21.437c0,6.082-0.444,12.164-2.073,18.023c-0.296,1.261-0.519,2.597-1.852,3.115
		c-0.37,0.074-0.814,0.148-1.259,0.148c-1.259,0-3.184-0.667-3.851-1.854c-0.74-1.112-0.592-2.373-0.889-3.56
		c-0.444-1.706-1.185-3.338-1.406-5.044c-0.371-2.151-0.444-4.376-0.444-6.602c0-5.044,0.592-10.088,1.036-15.131
		c0.223-3.783,0.814-7.566,1.703-11.349c-1.259-0.148-1.555-1.188-1.555-2.3c0-4.153,1.852-10.458,2.369-14.908
		c0.223-1.78,0.297-3.561,0.297-5.341c0-5.267-0.667-10.385-1.111-15.576c-0.074-1.632-0.37-3.264-0.37-4.896
		c0-2.522,0.593-4.896,3.555-4.896c1.036,0,2.592,0.148,3.258,1.038c1.407,1.854,1.037,7.27,1.037,9.643
		c0,1.039,0.074,6.453,1.333,6.453c0.519,0,2.073-1.038,2.739-1.335c1.407-0.52,3.036-0.816,4.518-0.816
		c7.108,0,5.628,9.421,5.628,14.168c0,0.815,0.148,1.632,0.148,2.447C423.363,92.774,422.622,93.516,421.733,94.777z M415.365,80.61
		c-0.592,0-1.11,0.593-1.407,0.964c-0.889,1.038-1.11,1.706-2.369,2.447c-1.926,1.262-2.073,5.489-2.073,7.566
		c0,2.744,0.444,5.488,0.519,8.233c3.924-3.709,6.516-10.459,6.516-15.873C416.55,83.206,416.477,80.61,415.365,80.61z"/>
	<path d="M448.463,117.696c-1.111,0.371-2.296,0.52-3.406,0.52c-6.146,0-11.774-4.228-11.774-10.755
		c0-1.262,0.148-2.448,0.148-3.709c0-0.445,0-0.964-0.148-1.409c-0.223-0.594-4.146-1.409-4.146-4.673s4.591-5.859,7.404-6.379
		c0.815-1.335,0.889-3.041,1.556-4.45c1.999-4.673,7.479-10.533,12.885-10.533c4.888,0,7.035,5.638,7.035,9.791
		c0,0.594-0.074,1.261-0.148,1.929c-0.667,3.561-7.405,10.829-10.589,12.535c-1.186,0.668-5.184,1.706-5.776,2.818
		c-0.223,0.445-0.296,0.965-0.296,1.483c0,1.188,0.296,2.448,0.592,3.635c0.519,1.929,1.777,2.744,3.776,2.744
		c3.999,0,6.369-5.266,10.516-5.266c0.889,0,1.926,0.222,1.926,1.335C458.016,110.354,451.202,116.955,448.463,117.696z
		 M450.313,83.948c-1.185,0-5.035,5.34-5.554,6.526c-0.518,1.188-0.74,2.448-1.036,3.635v0.074c0.889-1.038,1.999-1.78,2.962-2.67
		c1.036-0.965,4.146-5.638,4.146-6.973C450.832,84.17,450.685,83.948,450.313,83.948z"/>
	<path d="M492.075,118.29c-1.11,0-3.48-0.742-4.221-1.706s-0.74-1.929-1.11-3.041c-2.147-5.934-4.073-12.238-4.073-18.543
		c0-3.709,0.519-7.344,0.519-11.052c0-0.891-0.074-1.854-0.148-2.745c-0.666,3.041-2.073,5.86-2.666,8.901
		c-0.37,1.706,0.223,4.005-0.889,5.414c-0.592,2.671-0.592,5.415-1.11,8.085c-0.296,1.632-1.037,3.189-1.407,4.821
		c-0.519,2.521-0.147,5.118-0.814,7.565c-0.444,1.854-2.222,2.819-3.999,2.819c-2.147,0-3.554-1.336-3.628-3.486
		c0-0.445,0.074-0.816,0.074-1.262c0-2.744-1.037-5.34-1.037-8.084c0-0.668,0.074-1.41,0.074-2.077
		c0-7.417-1.777-14.909-2.443-22.326c-0.148-1.483-0.741-2.967-0.741-4.524c0-0.52,0.074-1.112,0.223-1.558
		c0.37-1.187,2.369-2.596,3.702-2.596c3.185,0,5.109,2.521,5.109,5.562c0,1.706-0.666,3.338-0.666,5.044
		c0,2.447,0.444,5.118,0.74,7.491c1.556-7.343,4.073-14.241,6.812-21.214c0.444-1.038,0.37-2.299,1.333-3.041
		c0.74-0.519,2.74-1.038,3.703-1.038c2.962,0,3.036,2.893,3.48,5.044c0.296,1.261,0.962,2.373,1.185,3.635
		c0.444,2.225,0.519,4.599,0.519,6.823c0,4.154-0.371,8.233-0.371,12.387c0,3.264,0.223,6.527,1.037,9.717
		c0.593,2.3,1.333,4.524,1.777,6.898c0.296,0,0.593-0.074,0.889-0.074c1.48,0,2.073,1.78,2.073,3.041
		C496,115.101,494.297,118.29,492.075,118.29z"/>
</g>
</svg>
