<?xml version="1.0" encoding="utf-8"?>
<!-- Generator: Adobe Illustrator 16.0.0, SVG Export Plug-In . SVG Version: 6.00 Build 0)  -->
<!DOCTYPE svg PUBLIC "-//W3C//DTD SVG 1.1//EN" "http://www.w3.org/Graphics/SVG/1.1/DTD/svg11.dtd">
<svg version="1.1" id="Layer_1" xmlns="http://www.w3.org/2000/svg" xmlns:xlink="http://www.w3.org/1999/xlink" x="0px" y="0px"
	 width="82px" height="12px" viewBox="-8.5 77 82 12" enable-background="new -8.5 77 82 12" xml:space="preserve">
<circle fill="#FFFFFF" cx="9.206" cy="83.7" r="3.994"/>
<circle fill="#FFFFFF" cx="21.188" cy="83.7" r="3.994"/>
<circle fill="#FFFFFF" cx="21.188" cy="83.7" r="3.994"/>
<circle fill="#FFFFFF" cx="33.669" cy="83.7" r="3.994"/>
<circle fill="#FFFFFF" cx="58.332" cy="83.7" r="3.994"/>
<circle fill="#FFFFFF" cx="33.669" cy="83.7" r="3.994"/>
<circle fill="#FFFFFF" cx="49.646" cy="83.7" r="3.994"/>
<circle fill="#FFFFFF" cx="64.235" cy="84.919" r="2.87"/>
<circle fill="#FFFFFF" cx="28.726" cy="82.219" r="2.126"/>
<circle fill="#FFFFFF" cx="9.206" cy="83.7" r="3.994"/>
<circle fill="#FFFFFF" cx="14.2" cy="82.617" r="3.994"/>
<circle fill="#FFFFFF" cx="23.556" cy="82.281" r="3.994"/>
<circle fill="#FFFFFF" cx="20.342" cy="84.919" r="3.994"/>
<circle fill="#FFFFFF" cx="33.669" cy="83.7" r="3.994"/>
<circle fill="#FFFFFF" cx="33.669" cy="83.7" r="3.994"/>
<circle fill="#FFFFFF" cx="45.553" cy="83.512" r="2.313"/>
<circle fill="#FFFFFF" cx="43.48" cy="85.712" r="1.793"/>
<circle fill="#FFFFFF" cx="41.494" cy="83.059" r="2.321"/>
<circle fill="#FFFFFF" cx="15.327" cy="79.126" r="2.126"/>
<circle fill="#FFFFFF" cx="4.295" cy="83" r="2.126"/>
<circle fill="#FFFFFF" cx="-0.194" cy="84.874" r="3.642"/>
<circle fill="#FFFFFF" cx="54.119" cy="82.281" r="2.126"/>
<circle fill="#FFFFFF" cx="28.726" cy="85.864" r="2.126"/>
<circle fill="#FFFFFF" cx="38.26" cy="83.059" r="1.815"/>
<circle fill="#FFFFFF" cx="26.6" cy="84.408" r="1.418"/>
<circle fill="#FFFFFF" cx="53.41" cy="86.336" r="1.417"/>
</svg>
