<?xml version="1.0" encoding="utf-8"?>
<!-- Generator: Adobe Illustrator 16.0.0, SVG Export Plug-In . SVG Version: 6.00 Build 0)  -->
<!DOCTYPE svg PUBLIC "-//W3C//DTD SVG 1.1//EN" "http://www.w3.org/Graphics/SVG/1.1/DTD/svg11.dtd">
<svg version="1.1" id="Layer_1" xmlns="http://www.w3.org/2000/svg" xmlns:xlink="http://www.w3.org/1999/xlink" x="0px" y="0px"
	 width="82px" height="250px" viewBox="0 0 82 250" enable-background="new 0 0 82 250" xml:space="preserve">
<circle fill="#FFFFFF" cx="17.706" cy="21.477" r="3.994"/>
<circle fill="#FFFFFF" cx="33.683" cy="37.3" r="3.994"/>
<circle fill="#FFFFFF" cx="69.343" cy="53.358" r="3.994"/>
<circle fill="#FFFFFF" cx="21.7" cy="55.225" r="3.994"/>
<circle fill="#FFFFFF" cx="46.163" cy="94.166" r="3.994"/>
<circle fill="#FFFFFF" cx="29.688" cy="112.639" r="3.994"/>
<circle fill="#FFFFFF" cx="29.688" cy="90.172" r="3.994"/>
<circle fill="#FFFFFF" cx="42.169" cy="82.506" r="3.994"/>
<circle fill="#FFFFFF" cx="68.249" cy="83.385" r="3.994"/>
<circle fill="#FFFFFF" cx="54.15" cy="70.701" r="3.994"/>
<circle fill="#FFFFFF" cx="42.169" cy="5.498" r="3.994"/>
<circle fill="#FFFFFF" cx="58.146" cy="21.477" r="3.994"/>
<circle fill="#FFFFFF" cx="38.175" cy="65.289" r="1.418"/>
<circle fill="#FFFFFF" cx="55.24" cy="86.5" r="2.126"/>
<circle fill="#FFFFFF" cx="66.123" cy="31.18" r="2.126"/>
<circle fill="#FFFFFF" cx="21.701" cy="81.26" r="2.126"/>
<circle fill="#FFFFFF" cx="67.217" cy="101.86" r="2.126"/>
<circle fill="#FFFFFF" cx="65.35" cy="66.707" r="2.126"/>
<circle fill="#FFFFFF" cx="29.688" cy="53.358" r="2.126"/>
<circle fill="#FFFFFF" cx="38.176" cy="106.52" r="2.126"/>
<circle fill="#FFFFFF" cx="25.693" cy="11.491" r="2.126"/>
<circle fill="#FFFFFF" cx="56.01" cy="7.498" r="2.126"/>
<circle fill="#FFFFFF" cx="46.164" cy="49.812" r="1.417"/>
<circle fill="#FFFFFF" cx="54.152" cy="37.3" r="1.417"/>
<circle fill="#FFFFFF" cx="38.175" cy="17.483" r="1.418"/>
<circle fill="#FFFFFF" cx="17.706" cy="150.844" r="3.994"/>
<circle fill="#FFFFFF" cx="69.343" cy="123.836" r="3.994"/>
<circle fill="#FFFFFF" cx="33.683" cy="166.667" r="3.994"/>
<circle fill="#FFFFFF" cx="69.343" cy="182.725" r="3.994"/>
<circle fill="#FFFFFF" cx="21.7" cy="184.592" r="3.994"/>
<circle fill="#FFFFFF" cx="46.163" cy="223.533" r="3.994"/>
<circle fill="#FFFFFF" cx="29.688" cy="242.006" r="3.994"/>
<circle fill="#FFFFFF" cx="29.688" cy="219.539" r="3.994"/>
<circle fill="#FFFFFF" cx="42.169" cy="211.873" r="3.994"/>
<circle fill="#FFFFFF" cx="68.249" cy="212.752" r="3.994"/>
<circle fill="#FFFFFF" cx="54.15" cy="200.068" r="3.994"/>
<circle fill="#FFFFFF" cx="42.169" cy="136.865" r="3.994"/>
<circle fill="#FFFFFF" cx="58.146" cy="150.844" r="3.994"/>
<circle fill="#FFFFFF" cx="38.175" cy="194.656" r="1.418"/>
<circle fill="#FFFFFF" cx="55.24" cy="215.866" r="2.126"/>
<circle fill="#FFFFFF" cx="52.735" cy="238.012" r="2.126"/>
<circle fill="#FFFFFF" cx="66.123" cy="160.547" r="2.126"/>
<circle fill="#FFFFFF" cx="21.701" cy="210.627" r="2.126"/>
<circle fill="#FFFFFF" cx="13.712" cy="242.006" r="2.126"/>
<circle fill="#FFFFFF" cx="67.217" cy="231.227" r="2.126"/>
<circle fill="#FFFFFF" cx="65.35" cy="196.073" r="2.126"/>
<circle fill="#FFFFFF" cx="29.688" cy="182.725" r="2.126"/>
<circle fill="#FFFFFF" cx="38.176" cy="235.887" r="2.126"/>
<circle fill="#FFFFFF" cx="25.693" cy="140.858" r="2.126"/>
<circle fill="#FFFFFF" cx="56.01" cy="136.864" r="2.126"/>
<circle fill="#FFFFFF" cx="31.814" cy="125.961" r="2.126"/>
<circle fill="#FFFFFF" cx="46.164" cy="179.18" r="1.417"/>
<circle fill="#FFFFFF" cx="54.152" cy="166.666" r="1.417"/>
<circle fill="#FFFFFF" cx="38.175" cy="146.85" r="1.418"/>
<circle fill="#FFFFFF" cx="17.707" cy="128.797" r="1.417"/>
<circle fill="#FFFFFF" cx="50.158" cy="127.379" r="1.417"/>
</svg>
