<?xml version="1.0" encoding="utf-8"?>
<!-- Generator: Adobe Illustrator 16.0.0, SVG Export Plug-In . SVG Version: 6.00 Build 0)  -->
<!DOCTYPE svg PUBLIC "-//W3C//DTD SVG 1.1//EN" "http://www.w3.org/Graphics/SVG/1.1/DTD/svg11.dtd">
<svg version="1.1" id="Layer_1" xmlns="http://www.w3.org/2000/svg" xmlns:xlink="http://www.w3.org/1999/xlink" x="0px" y="0px"
	 width="409.61px" height="84.232px" viewBox="0 0 409.61 84.232" enable-background="new 0 0 409.61 84.232" xml:space="preserve">
<path fill="#FFFFFF" d="M407.243,76.649c0.307-0.369,0.5-0.837,0.5-1.354c0-1.112-0.861-2.018-1.953-2.106
	c-0.053-0.423-0.102-0.845-0.146-1.267c0.551-0.686,0.893-1.541,0.893-2.486c0-1.173-0.518-2.219-1.322-2.949
	c-0.059-1.002-0.102-1.85-0.141-2.432c-0.5-5.68-2.023-12.43-6.383-16.221c0.068-0.209,0.113-0.428,0.113-0.66
	c0-1.172-0.951-2.125-2.127-2.125c-0.602,0-1.043,0.254-1.43,0.656c-0.482-0.182-1.414-0.336-1.414-0.461v-0.221
	c4-1.582,7.051-4.356,9.1-7.782c1.611-0.515,2.734-2.006,2.734-3.787c0-0.659-0.199-1.271-0.482-1.819
	c0.014-0.052,0.018-0.104,0.029-0.156c1.486-0.582,2.535-2.021,2.535-3.712c0-1.399-0.727-2.627-1.816-3.34
	c-0.125-3.68-1.004-6.825-2.463-9.473c0.174-0.308,0.279-0.659,0.279-1.038c0-0.851-0.506-1.581-1.229-1.92
	c0.004-0.069,0.021-0.135,0.021-0.205c0-2.205-1.789-3.994-3.994-3.994c-0.537,0-1.047,0.109-1.514,0.301
	c-2.344-1.551-5.027-2.705-7.902-3.5c-0.381-1.808-1.984-3.167-3.906-3.167c-0.971,0-1.848,0.36-2.541,0.936
	c-0.381-0.565-1.027-0.937-1.764-0.937c-1.061,0-1.934,1-2.092,2.018c-0.125-0.001-0.25,0.214-0.375,0.214h-4.719
	c-0.174-2-1.869-3.661-3.961-3.661c-2.094,0-3.789,1.661-3.963,3.661h-5.508c-0.715-2-1.938-1.793-3.33-1.793
	c-1.391,0-2.613-0.207-3.328,1.793h-0.533c-0.162-1-1.033-1.793-2.096-1.793c-1.059,0-1.93,0.793-2.092,1.793h-0.604
	c-0.715-2-1.938-2.012-3.328-2.012c-1.096,0-2.086,0.333-2.809,1.046c-0.598-0.356-1.287-0.629-2.033-0.629
	c-2.205,0-3.994,1.762-3.994,3.967c0,1.099,0.443,2.08,1.164,2.802c-0.197,0.322-0.107,0.69-0.107,1.095
	c0,0.921,0.619,1.691,1.619,1.986v0.599c-1,0.438-0.266,0.907-0.266,1.402s-0.734,0.964,0.266,1.402v1.955
	c-1,0.721-1.15,1.709-1.15,2.802c0,1.093,0.15,2.081,1.15,2.802v5.631c-1,0.373-0.523,0.853-0.523,1.384
	c0,0.531-0.477,1.011,0.523,1.384v8.429c-1,0.295-1.408,1.072-1.408,1.993c0,0.92,0.408,1.698,1.408,1.993v4.454
	c-1,0.731-1.408,1.808-1.408,3.021s0.408,2.289,1.408,3.021v0.848c-1,0.295-1.408,1.071-1.408,1.992
	c0,0.922,0.408,1.699,1.408,1.994v0.473c-2,0.617-2.393,2.021-2.393,3.654c0,1.635,0.393,3.037,2.393,3.654v0.472
	c-1,0.295-1.619,1.071-1.619,1.992c0,0.772,0.312,1.442,0.926,1.813c-0.479,0.66-0.824,1.465-0.824,2.344
	c0,0.14,0.002,0.271,0.016,0.406c-1.926,0.285-3.422,1.932-3.422,3.936c0,0.137,0.02,0.268,0.033,0.398
	c-0.014,0-0.031-0.004-0.045-0.004c-1.174,0-2.127,0.953-2.127,2.127s0.951,2.125,2.125,2.125c0.859,0,1.594-0.512,1.93-1.244
	c0.604,0.367,1.516,0.592,2.273,0.592c0.182,0-0.266-0.03,0.734-0.053V81.66h19.146c0.703,1,1.611,1.051,2.619,1.051
	c0.969,0,1.846-0.334,2.535-0.907c0.381,0.36,0.893,0.599,1.457,0.599c1.176,0,2.127-0.945,2.127-2.119s-0.951-2.123-2.127-2.123
	c-0.02,0-0.039,0.008-0.059,0.008c-0.209-1.377-1.107-2.524-2.348-3.062c0.334-0.583,0.539-1.247,0.539-1.966
	c0-1.608-0.957-2.986-2.328-3.619c0.445-0.239,0.752-0.703,0.752-1.244c0-0.782-0.635-1.418-1.418-1.418
	c-0.27,0-0.537,0.079-0.752,0.209c-0.006-0.31-0.146-0.604-0.146-0.894v-5.303c1-0.647,2.279-2.002,2.279-3.582
	c0-0.949-0.334-1.809-0.887-2.494c0.383-0.385,0.625-0.666,0.625-1.252c0-0.045-0.006,0.119-0.008,0.119h4.008
	c0.357,0,1.055,1.133,1.867,1.133s1.512-1.133,1.869-1.133h4.561c0.357,0,1.057,0.883,1.867,0.883c0.422,0,0.812-0.25,1.143-0.461
	c0.727,0.742,1.734,1.143,2.854,1.143c0.545,0,1.064-0.143,1.539-0.34c0.322,0.223,0.629,0.445,0.912,0.705
	c-0.359,0.382-0.582,0.884-0.582,1.447c0,1.174,0.951,2.123,2.125,2.123c0.297,0,0.578-0.063,0.836-0.175
	c1.305,2.923,1.73,6.599,1.982,10.237c0.16,1.598,0.381,6.093,1.164,9.447c-0.463,0.39-0.764,0.965-0.764,1.617
	c0,1.174,0.953,2.075,2.125,2.075c0.604,0,1.143,0.296,1.529-0.704h12.033c0.588,2,2.02,2.572,3.705,2.572
	c2.207,0,3.994-1.764,3.994-3.969C409.61,78.64,408.635,77.272,407.243,76.649z M383.518,34.437
	c-0.699-0.604-1.602-0.983-2.598-0.983c-1.561,0-2.896,0.903-3.555,2.207c-0.66-0.484-1.469-0.611-2.352-0.611
	c-1.654,0-3.074,0.611-3.682,2.611h-9.041c-0.055-2-1.221-3.354-2.812-3.844c0.688-0.719,1.098-1.773,1.098-2.846
	c0-1.361-0.746-2.645-1.746-3.366V26.19c1-0.301,1.391-1.074,1.391-1.988s-0.391-1.686-1.391-1.986v-0.04
	c0,0.011,0.195,0.026,0.285,0.026c1.174,0,2.137-0.928,2.137-2.102c0-0.16-0.01-0.439-0.043-0.439h13.941
	c5.721,0,10.34,2.616,10.34,8.446C385.493,30.783,384.817,32.893,383.518,34.437z"/>
<g>
	<path fill="#00ADEE" d="M0,3.223h20.46v28.601h26.95V3.223h20.46v78.54H47.41v-32.34H20.46v32.34H0V3.223z"/>
	<path fill="#00ADEE" d="M121.22,81.763H97.68L72.93,3.223h21.34l15.4,58.411h0.22l15.4-58.411h21.34L121.22,81.763z"/>
	<path fill="#00ADEE" d="M161.15,3.223h20.79l29.37,78.54h-21.34l-4.84-14.08h-27.39l-4.95,14.08h-21.01L161.15,3.223z
		 M162.47,52.503h17.82l-8.69-27.5h-0.22L162.47,52.503z"/>
	<path fill="#00ADEE" d="M262.239,31.272c-1.1-7.92-7.26-12.1-15.84-12.1c-13.199,0-18.261,11.66-18.261,23.32
		c0,11.66,5.062,23.32,18.261,23.32c9.568,0,15.068-5.5,15.84-14.521H282.7c-1.101,20.24-15.949,32.121-35.859,32.121
		c-23.762,0-39.16-18.15-39.16-40.92c0-22.771,15.398-40.921,39.16-40.921c16.938,0,35.31,10.779,35.859,29.699h-20.461V31.272z"/>
	<path fill="#00ADEE" d="M289.079,48.763v-15.84h34.209v15.84H289.079z"/>
</g>
</svg>
