<?xml version="1.0" encoding="utf-8"?>
<!-- Generator: Adobe Illustrator 15.0.2, SVG Export Plug-In . SVG Version: 6.00 Build 0)  -->
<!DOCTYPE svg PUBLIC "-//W3C//DTD SVG 1.1//EN" "http://www.w3.org/Graphics/SVG/1.1/DTD/svg11.dtd">
<svg version="1.1" id="Layer_1" xmlns="http://www.w3.org/2000/svg" xmlns:xlink="http://www.w3.org/1999/xlink" x="0px" y="0px"
	 width="456px" height="134.861px" viewBox="0 0 456 134.861" enable-background="new 0 0 456 134.861" xml:space="preserve">
<circle fill="#FFFFFF" cx="360.213" cy="62.972" r="19.688"/>
<g>
	<path fill="#003767" d="M360.389,57.093c-8.225,0-14.434,1.268-14.434,1.268s-1.035,0.162-1.035,1.113V66
		c0,0.901,1.035,1.077,1.035,1.077s6.285,1.373,14.434,1.373c8.15,0,14.438-1.373,14.438-1.373s1.035-0.176,1.035-1.077v-6.525
		c0-0.951-1.035-1.113-1.035-1.113S368.616,57.093,360.389,57.093z"/>
	<path fill="#FFFFFF" d="M350.154,61.472h0.017c0.308-0.55,0.828-0.791,1.445-0.791h0.305v1.521
		c-0.217-0.122-0.426-0.146-0.67-0.146c-0.879,0-1.097,0.583-1.097,1.348v1.802h-1.584v-4.464h1.584V61.472L350.154,61.472z"/>
	<path fill="#FFFFFF" d="M357.223,63.239h-3.332c0,0.645,0.342,0.992,0.992,0.992c0.34,0,0.582-0.112,0.758-0.409h1.521
		c-0.252,1.053-1.252,1.532-2.271,1.532c-1.479,0-2.586-0.836-2.586-2.376c0-1.487,1.02-2.386,2.473-2.386
		c1.549,0,2.443,0.957,2.443,2.48L357.223,63.239L357.223,63.239z M355.752,62.326c-0.078-0.427-0.469-0.705-0.896-0.705
		c-0.461,0-0.844,0.243-0.938,0.705H355.752z"/>
	<path fill="#FFFFFF" d="M362.67,63.239h-3.332c0,0.645,0.338,0.992,0.992,0.992c0.338,0,0.582-0.112,0.756-0.409h1.523
		c-0.252,1.053-1.254,1.532-2.271,1.532c-1.479,0-2.584-0.836-2.584-2.376c0-1.487,1.02-2.386,2.471-2.386
		c1.551,0,2.445,0.957,2.445,2.48V63.239L362.67,63.239z M361.2,62.326c-0.078-0.427-0.47-0.705-0.896-0.705
		c-0.462,0-0.845,0.243-0.938,0.705H361.2z"/>
	<path fill="#FFFFFF" d="M372.312,63.239h-3.332c0,0.645,0.34,0.992,0.992,0.992c0.34,0,0.584-0.112,0.758-0.409h1.521
		C372,64.875,371,65.354,369.98,65.354c-1.479,0-2.584-0.836-2.584-2.376c0-1.487,1.019-2.386,2.474-2.386
		c1.547,0,2.442,0.957,2.442,2.48V63.239L372.312,63.239z M370.842,62.326c-0.078-0.427-0.469-0.705-0.895-0.705
		c-0.461,0-0.848,0.243-0.941,0.705H370.842z"/>
	<path fill="#FFFFFF" d="M366.723,62.194c-0.232-0.174-0.514-0.313-0.816-0.313c-0.609,0-1.088,0.472-1.088,1.088
		c0,0.646,0.461,1.1,1.111,1.1c0.279,0,0.584-0.113,0.793-0.305l0.402,1.115c-0.496,0.38-1.133,0.478-1.518,0.478
		c-1.322,0-2.43-0.983-2.43-2.333c0-1.438,1.1-2.43,2.498-2.43c0.367,0,1.064,0.161,1.457,0.498L366.723,62.194z"/>
</g>
<circle fill="none" stroke="#FFFFFF" stroke-width="1.2195" stroke-miterlimit="10" cx="360.212" cy="62.972" r="22.226"/>
</svg>
