<?xml version="1.0" encoding="utf-8"?>
<!-- Generator: Adobe Illustrator 16.0.0, SVG Export Plug-In . SVG Version: 6.00 Build 0)  -->
<!DOCTYPE svg PUBLIC "-//W3C//DTD SVG 1.1//EN" "http://www.w3.org/Graphics/SVG/1.1/DTD/svg11.dtd">
<svg version="1.1" id="Layer_1" xmlns="http://www.w3.org/2000/svg" xmlns:xlink="http://www.w3.org/1999/xlink" x="0px" y="0px"
	 width="410.918px" height="128.246px" viewBox="0 0 410.918 128.246" enable-background="new 0 0 410.918 128.246"
	 xml:space="preserve">
<path fill="#404041" d="M294.416,6.682c-15.215,0-34.326,7.562-44.051,28.541c-9.744-20.978-28.928-28.541-44.387-28.541
	c-14.129,0-31.618,6.522-41.831,24.249c-3.703-10.508-16.482-24.249-44.729-24.249c-13.318,0-25.611,3.244-34.66,9.902
	c-9.049,6.83-14.684,17.074-14.854,31.076h32.099c-0.342-9.902,7.17-14.855,16.39-14.855c7,0,15.537,2.902,15.537,10.416
	c0,9.219-9.049,10.756-16.22,10.756c-4.61,0-7.342-0.512-9.902-0.684v23.221c2.561-0.342,4.951-0.854,9.902-0.854
	c7.854,0,15.878,1.879,15.878,12.293c0,9.732-6.146,13.316-15.878,13.316c-5.976,0-10.927-1.365-14.171-5.293
	c-3.244-3.072-4.78-7.854-4.609-14.17h-32.44c-0.854,8.879-0.683,46.438,52.758,46.438c26.743,0,40.27-10.797,46.118-22.263
	c10.357,16.226,27.088,22.263,40.783,22.263c15.338,0,34.483-7.562,44.219-28.539c9.734,20.979,28.881,28.539,44.219,28.539
	c21.514,0,50.539-14.854,50.539-60.781C345.127,21.536,316.102,6.682,294.416,6.682z M149.64,63.025v-0.342
	c0-0.221,2.919-0.352,6.239-2.418c-0.118,1.66-0.19,3.371-0.225,5.124C152.301,63.851,149.64,63.531,149.64,63.025z
	 M205.979,102.125c-17.244,0-17.928-22.197-17.928-34.66c0-12.807,0.684-34.66,18.27-34.66c17.074,0,17.929,22.367,17.929,34.66
	C224.248,80.1,223.395,102.125,205.979,102.125z M294.416,102.125c-17.242,0-17.926-22.197-17.926-34.66
	c0-12.807,0.684-34.66,18.27-34.66c17.072,0,17.926,22.367,17.926,34.66C312.686,80.1,311.832,102.125,294.416,102.125z"/>
<rect x="311.568" y="0.062" fill="#EC1C24" width="52.691" height="29"/>
<rect x="260.84" y="0.062" fill="#FFFFFF" width="51.154" height="29"/>
<g>
	<path fill="#003056" d="M287.34,7.772c-9.836,0-17.258,1.514-17.258,1.514s-1.236,0.194-1.236,1.331v7.804
		c0,1.078,1.236,1.288,1.236,1.288s7.516,1.641,17.258,1.641s17.258-1.641,17.258-1.641s1.236-0.21,1.236-1.288v-7.804
		c0-1.137-1.236-1.331-1.236-1.331S297.176,7.772,287.34,7.772z"/>
	<path fill="#FFFFFF" d="M275.102,13.009h0.021c0.363-0.656,0.988-0.946,1.727-0.946h0.365v1.82c-0.26-0.146-0.51-0.177-0.803-0.177
		c-1.049,0-1.311,0.696-1.311,1.611v2.154h-1.894v-5.337h1.894V13.009L275.102,13.009z"/>
	<path fill="#FFFFFF" d="M283.555,15.12h-3.984c0,0.77,0.404,1.186,1.187,1.186c0.404,0,0.697-0.134,0.906-0.488h1.819
		c-0.303,1.259-1.5,1.831-2.717,1.831c-1.77,0-3.09-0.999-3.09-2.841c0-1.778,1.217-2.85,2.955-2.85
		c1.852,0,2.924,1.145,2.924,2.964V15.12z M281.797,14.028c-0.096-0.511-0.562-0.843-1.072-0.843c-0.551,0-1.01,0.29-1.123,0.843
		H281.797z"/>
	<path fill="#FFFFFF" d="M290.066,15.12h-3.984c0,0.77,0.406,1.186,1.186,1.186c0.404,0,0.697-0.134,0.906-0.488h1.82
		c-0.303,1.259-1.498,1.831-2.717,1.831c-1.769,0-3.088-0.999-3.088-2.841c0-1.778,1.217-2.85,2.953-2.85
		c1.854,0,2.924,1.145,2.924,2.964V15.12z M288.309,14.028c-0.096-0.511-0.562-0.843-1.072-0.843c-0.551,0-1.008,0.29-1.122,0.843
		H288.309z"/>
	<path fill="#FFFFFF" d="M301.596,15.12h-3.983c0,0.77,0.405,1.186,1.186,1.186c0.406,0,0.697-0.134,0.904-0.488h1.822
		c-0.304,1.259-1.498,1.831-2.718,1.831c-1.768,0-3.09-0.999-3.09-2.841c0-1.778,1.219-2.85,2.955-2.85
		c1.853,0,2.924,1.145,2.924,2.964V15.12L301.596,15.12z M299.838,14.028c-0.094-0.511-0.562-0.843-1.072-0.843
		c-0.551,0-1.008,0.29-1.123,0.843H299.838z"/>
	<path fill="#FFFFFF" d="M294.912,13.871c-0.281-0.209-0.615-0.374-0.979-0.374c-0.729,0-1.304,0.561-1.304,1.3
		c0,0.771,0.554,1.312,1.334,1.312c0.332,0,0.697-0.134,0.947-0.364l0.479,1.335c-0.592,0.456-1.354,0.569-1.813,0.569
		c-1.58,0-2.902-1.176-2.902-2.789c0-1.717,1.312-2.903,2.986-2.903c0.438,0,1.272,0.194,1.743,0.598L294.912,13.871z"/>
</g>
<g>
	<path fill="#FFFFFF" d="M317.545,9.203h0.975v0.631h0.019c0.289-0.532,0.848-0.757,1.443-0.757c1.469,0,2.182,1.118,2.182,2.479
		c0,1.254-0.631,2.435-2.012,2.435c-0.595,0-1.234-0.216-1.56-0.73h-0.02v2.327h-1.027V9.203L317.545,9.203z M319.846,9.888
		c-0.867,0-1.309,0.658-1.309,1.65c0,0.938,0.479,1.641,1.309,1.641c0.938,0,1.289-0.829,1.289-1.641
		C321.135,10.691,320.693,9.888,319.846,9.888z"/>
	<path fill="#FFFFFF" d="M323.059,7.426h1.027v6.438h-1.027V7.426z"/>
	<path fill="#FFFFFF" d="M329.299,13.865h-1.01v-0.649h-0.018c-0.253,0.469-0.812,0.775-1.326,0.775c-1.218,0-1.74-0.613-1.74-1.83
		V9.203h1.029v2.858c0,0.82,0.332,1.118,0.893,1.118c0.855,0,1.146-0.55,1.146-1.271V9.203h1.026V13.865z"/>
	<path fill="#FFFFFF" d="M330.385,9.203h0.974v0.649h0.026c0.308-0.46,0.695-0.775,1.435-0.775c0.567,0,1.102,0.243,1.309,0.775
		c0.342-0.479,0.785-0.775,1.461-0.775c0.982,0,1.562,0.433,1.562,1.568v3.22h-1.029v-2.724c0-0.739-0.045-1.253-0.848-1.253
		c-0.693,0-0.992,0.46-0.992,1.244v2.732h-1.027V10.87c0-0.64-0.199-0.982-0.82-0.982c-0.532,0-1.02,0.433-1.02,1.208v2.769h-1.027
		V9.203H330.385z"/>
	<path fill="#FFFFFF" d="M338.262,7.426h1.027v2.381h0.02c0.279-0.451,0.865-0.73,1.39-0.73c1.469,0,2.182,1.118,2.182,2.479
		c0,1.254-0.631,2.435-2.012,2.435c-0.631,0-1.308-0.153-1.613-0.767h-0.018v0.641h-0.976V7.426z M340.562,9.888
		c-0.867,0-1.31,0.658-1.31,1.65c0,0.938,0.479,1.641,1.31,1.641c0.938,0,1.288-0.829,1.288-1.641
		C341.852,10.691,341.41,9.888,340.562,9.888z"/>
	<path fill="#FFFFFF" d="M343.775,7.426h1.026V8.4h-1.026V7.426z M343.775,9.203h1.026v4.662h-1.026V9.203z"/>
	<path fill="#FFFFFF" d="M345.922,9.203h0.976v0.686l0.018,0.018c0.307-0.514,0.84-0.829,1.453-0.829
		c1.01,0,1.647,0.541,1.647,1.587v3.201h-1.026v-2.931c-0.019-0.73-0.308-1.046-0.91-1.046c-0.687,0-1.127,0.541-1.127,1.227v2.75
		h-1.029L345.922,9.203L345.922,9.203z"/>
	<path fill="#FFFFFF" d="M355.412,13.622c0,1.397-0.82,2.092-2.291,2.092c-0.938,0-1.992-0.36-2.084-1.452h1.029
		c0.125,0.587,0.596,0.686,1.116,0.686c0.83,0,1.199-0.424,1.199-1.19v-0.712h-0.018c-0.289,0.514-0.82,0.82-1.396,0.82
		c-1.479,0-2.094-1.118-2.094-2.453c0-1.253,0.785-2.335,2.111-2.335c0.586,0,1.116,0.243,1.379,0.766h0.018v-0.64h1.029
		L355.412,13.622L355.412,13.622z M354.383,11.43c0-0.803-0.358-1.542-1.252-1.542c-0.912,0-1.227,0.848-1.227,1.623
		c0,0.767,0.369,1.542,1.227,1.542C354.041,13.053,354.383,12.223,354.383,11.43z"/>
	<path fill="#FFFFFF" d="M320.666,18.883c-0.082-0.567-0.496-0.874-1.064-0.874c-0.532,0-1.28,0.279-1.28,1.695
		c0,0.775,0.344,1.596,1.235,1.596c0.595,0,1.011-0.396,1.109-1.063h1.027c-0.189,1.208-0.938,1.875-2.138,1.875
		c-1.461,0-2.264-1.037-2.264-2.407c0-1.407,0.766-2.507,2.299-2.507c1.082,0,2.002,0.541,2.103,1.686L320.666,18.883
		L320.666,18.883z"/>
	<path fill="#FFFFFF" d="M323.338,19.92c0,0.73,0.396,1.38,1.252,1.38c0.596,0,0.957-0.262,1.137-0.775h0.976
		c-0.228,1.02-1.092,1.587-2.111,1.587c-1.459,0-2.281-1.019-2.281-2.452c0-1.326,0.867-2.462,2.257-2.462
		c1.469,0,2.371,1.325,2.198,2.723L323.338,19.92L323.338,19.92z M325.736,19.245c-0.037-0.649-0.479-1.235-1.172-1.235
		c-0.714,0-1.199,0.541-1.228,1.235H325.736z"/>
	<path fill="#FFFFFF" d="M327.551,17.324h0.976v0.686l0.018,0.018c0.307-0.514,0.84-0.829,1.453-0.829
		c1.01,0,1.647,0.541,1.647,1.587v3.201h-1.026v-2.931c-0.019-0.73-0.308-1.046-0.91-1.046c-0.686,0-1.127,0.541-1.127,1.227v2.75
		h-1.029L327.551,17.324L327.551,17.324z"/>
	<path fill="#FFFFFF" d="M332.262,17.324h0.775v-1.398h1.029v1.398h0.928v0.767h-0.928v2.488c0,0.424,0.034,0.641,0.495,0.641
		c0.144,0,0.287,0,0.433-0.036v0.794c-0.226,0.018-0.441,0.054-0.666,0.054c-1.074,0-1.273-0.415-1.291-1.19v-2.75h-0.775V17.324
		L332.262,17.324z"/>
	<path fill="#FFFFFF" d="M335.734,17.324h0.965v0.901h0.02c0.117-0.496,0.73-1.027,1.361-1.027c0.234,0,0.297,0.018,0.387,0.026
		v0.992c-0.145-0.018-0.297-0.045-0.44-0.045c-0.703,0-1.263,0.568-1.263,1.596v2.219h-1.028L335.734,17.324L335.734,17.324z"/>
	<path fill="#FFFFFF" d="M339.553,19.92c0,0.73,0.396,1.38,1.254,1.38c0.597,0,0.955-0.262,1.138-0.775h0.973
		c-0.225,1.02-1.09,1.587-2.109,1.587c-1.461,0-2.28-1.019-2.28-2.452c0-1.326,0.864-2.462,2.254-2.462
		c1.471,0,2.371,1.325,2.201,2.723L339.553,19.92L339.553,19.92z M341.951,19.245c-0.035-0.649-0.478-1.235-1.172-1.235
		c-0.713,0-1.199,0.541-1.228,1.235H341.951z"/>
</g>
<polygon fill="#FFFFFF" points="373.018,94.617 368.979,94.617 368.357,84.055 373.639,84.055 "/>
<polygon fill="#FFFFFF" points="384.822,93.996 388.861,93.996 389.482,83.433 384.201,83.433 "/>
<path fill="#404041" d="M374.512,88.717c-0.299-1.338-1.627-2.184-2.967-1.883l-7.523,1.678l-4.051-3.299V79.68
	c0-0.971-0.789-1.76-1.762-1.76h-3.77c3.012-0.986,5.221-4.229,5.221-8.078c0-4.631-3.199-8.387-7.146-8.387
	c-3.944,0-7.145,3.756-7.145,8.387c0,3.85,2.209,7.092,5.221,8.078h-4.701c-0.975,0-1.762,0.789-1.762,1.76v22.885
	c0,0.973,0.787,1.762,1.762,1.762h2.222l5.11,12.314l-5.482,3.638c-1.01,0.678-1.381,1.986-0.877,3.094l1.553,3.416
	c0.404,0.889,1.287,1.457,2.263,1.457h2.485c1.371,0,2.484-1.111,2.484-2.484s-1.113-2.485-2.484-2.485h-0.887l-0.018-0.041
	l2.906-1.912l2.238,5.394c0.387,0.928,1.291,1.53,2.297,1.53h4.932c1.371,0,2.484-1.112,2.484-2.483
	c0-1.373-1.113-2.485-2.484-2.485h-3.272l-1.982-4.775l5.086-3.412c0.631-0.422,1.033-1.111,1.094-1.869
	c0.062-0.756-0.229-1.5-0.786-2.016l-7.41-6.877h0.852c0.973,0,1.762-0.789,1.762-1.763V91.623l1.849,1.504
	c0.446,0.365,1.002,0.559,1.567,0.559c0.183,0,0.363-0.02,0.541-0.061l8.699-1.939C373.967,91.385,374.811,90.056,374.512,88.717z
	 M357.432,113.815l-1.784-4.295l3.438,3.188L357.432,113.815z"/>
<path fill="#404041" d="M409.156,77.92h-3.769c3.011-0.986,5.22-4.229,5.22-8.078c0-4.631-3.199-8.387-7.146-8.387
	c-3.947,0-7.145,3.756-7.145,8.387c0,3.85,2.209,7.092,5.219,8.078h-4.701c-0.973,0-1.762,0.789-1.762,1.76v8.389l-8.806-1.863
	c-1.344-0.282-2.661,0.576-2.946,1.918c-0.283,1.345,0.576,2.662,1.918,2.945l9.834,2.08v9.416c0,0.973,0.789,1.762,1.762,1.762
	h0.785l-0.088,18.949h-4.4c-1.371,0-2.483,1.113-2.483,2.486c0,1.371,1.112,2.484,2.483,2.484h13.164
	c1.369,0,2.479-1.105,2.486-2.474l0.1-21.446h0.273c0.975,0,1.762-0.789,1.762-1.763V79.68
	C410.918,78.709,410.131,77.92,409.156,77.92z M403.824,123.274h-1.32l0.088-18.948h1.32L403.824,123.274z"/>
</svg>
