<?xml version="1.0" encoding="utf-8"?>
<!-- Generator: Adobe Illustrator 16.0.0, SVG Export Plug-In . SVG Version: 6.00 Build 0)  -->
<!DOCTYPE svg PUBLIC "-//W3C//DTD SVG 1.1//EN" "http://www.w3.org/Graphics/SVG/1.1/DTD/svg11.dtd">
<svg version="1.1" id="Layer_1" xmlns="http://www.w3.org/2000/svg" xmlns:xlink="http://www.w3.org/1999/xlink" x="0px" y="0px"
	 width="456px" height="134.861px" viewBox="0 0 456 134.861" enable-background="new 0 0 456 134.861" xml:space="preserve">
<circle fill="#FFFFFF" cx="360.213" cy="62.972" r="19.688"/>
<circle fill="none" stroke="#FFFFFF" stroke-width="1.2195" stroke-miterlimit="10" cx="360.212" cy="62.972" r="22.226"/>
<g enable-background="new    ">
	<path fill="#808284" d="M343.74,60.32h1.088v4.034h2.412v0.915h-3.5V60.32z"/>
	<path fill="#808284" d="M351.43,64.707c-0.382,0.492-0.88,0.679-1.358,0.679c-1.531,0-2.433-1.143-2.433-2.571
		c0-1.469,0.901-2.613,2.433-2.613c1.011,0,1.967,0.624,2.087,1.746h-1.042c-0.125-0.546-0.532-0.832-1.045-0.832
		c-0.978,0-1.345,0.832-1.345,1.698c0,0.825,0.367,1.656,1.345,1.656c0.707,0,1.115-0.381,1.178-1.067h-1.095v-0.812h2.079v2.676
		h-0.693L351.43,64.707z"/>
	<path fill="#808284" d="M358.346,61.984c-0.069-0.492-0.54-0.867-1.081-0.867c-0.978,0-1.344,0.832-1.344,1.698
		c0,0.825,0.366,1.656,1.344,1.656c0.666,0,1.038-0.458,1.122-1.109h1.053c-0.11,1.234-0.962,2.024-2.175,2.024
		c-1.533,0-2.433-1.143-2.433-2.571c0-1.469,0.899-2.613,2.433-2.613c1.087,0,2.002,0.638,2.134,1.781H358.346z"/>
	<path fill="#808284" d="M360.04,62.788c0.057-0.922,0.88-1.2,1.686-1.2c0.712,0,1.571,0.16,1.571,1.019v1.864
		c0,0.326,0.035,0.651,0.125,0.797h-0.998c-0.034-0.111-0.062-0.229-0.068-0.346c-0.313,0.326-0.77,0.443-1.206,0.443
		c-0.681,0-1.22-0.34-1.22-1.074c0-0.812,0.609-1.005,1.22-1.088c0.603-0.09,1.163-0.07,1.163-0.471c0-0.423-0.29-0.485-0.637-0.485
		c-0.375,0-0.616,0.152-0.651,0.541H360.04z M362.312,63.514c-0.165,0.146-0.512,0.153-0.816,0.208
		c-0.306,0.062-0.582,0.167-0.582,0.526c0,0.368,0.283,0.458,0.602,0.458c0.771,0,0.797-0.609,0.797-0.824V63.514z"/>
	<path fill="#808284" d="M364.063,61.685H365v0.666h0.013c0.181-0.451,0.665-0.763,1.145-0.763c0.068,0,0.151,0.014,0.216,0.035
		v0.915c-0.091-0.02-0.236-0.033-0.355-0.033c-0.721,0-0.97,0.519-0.97,1.15v1.614h-0.984V61.685z"/>
	<path fill="#808284" d="M369.196,64.81h-0.015c-0.229,0.388-0.631,0.555-1.088,0.555c-1.081,0-1.607-0.929-1.607-1.919
		c0-0.964,0.533-1.858,1.588-1.858c0.421,0,0.837,0.18,1.059,0.534h0.014V60.32h0.983v4.948h-0.934V64.81z M368.336,62.329
		c-0.645,0-0.867,0.556-0.867,1.145c0,0.562,0.258,1.15,0.867,1.15c0.651,0,0.846-0.569,0.846-1.158
		C369.182,62.885,368.974,62.329,368.336,62.329z"/>
	<path fill="#808284" d="M371.688,63.715c0.026,0.624,0.332,0.909,0.878,0.909c0.396,0,0.716-0.243,0.777-0.464h0.866
		c-0.276,0.845-0.866,1.205-1.677,1.205c-1.13,0-1.83-0.776-1.83-1.886c0-1.073,0.741-1.892,1.83-1.892
		c1.22,0,1.808,1.026,1.739,2.127H371.688z M373.288,63.093c-0.09-0.5-0.306-0.764-0.782-0.764c-0.624,0-0.804,0.486-0.817,0.764
		H373.288z"/>
	<path fill="#808284" d="M374.858,61.685h0.935v0.666h0.014c0.18-0.451,0.666-0.763,1.145-0.763c0.068,0,0.152,0.014,0.215,0.035
		v0.915c-0.09-0.02-0.235-0.033-0.354-0.033c-0.721,0-0.971,0.519-0.971,1.15v1.614h-0.983V61.685z"/>
</g>
</svg>
