<?xml version="1.0" encoding="utf-8"?>
<!-- Generator: Adobe Illustrator 16.0.0, SVG Export Plug-In . SVG Version: 6.00 Build 0)  -->
<!DOCTYPE svg PUBLIC "-//W3C//DTD SVG 1.1//EN" "http://www.w3.org/Graphics/SVG/1.1/DTD/svg11.dtd">
<svg version="1.1" id="Layer_1" xmlns="http://www.w3.org/2000/svg" xmlns:xlink="http://www.w3.org/1999/xlink" x="0px" y="0px"
	 width="456px" height="134.861px" viewBox="0 0 456 134.861" enable-background="new 0 0 456 134.861" xml:space="preserve">
<path fill="#005180" d="M369.036,12.737c-1.398,2.601-3.713,5.785-1.398,6.942c2.314,1.158,7.912,2.357,7.138,5.517
	c-0.771,3.164,0.967,6.495,1.834,8.305c0.866,1.807,3.975,4.446,3.725,7.467c-0.254,3.021,0.857,11.244,0.014,10.17
	c-0.846-1.072-2.291-0.962-3.737,1.729c-1.447,2.694-6.472,6.646-2.945,9.588c3.523,2.944,6.436,0.313,7.006,3.801
	c0.57,3.485-2.326,3.027-5.217,3.544c-2.896,0.521-4.439-5.295-6.416-3.544c-1.978,1.748-6.896,2.334-6.896,6.38
	c0,4.049-1.735,8.282-4.051,8.913c-2.315,0.632-0.291,6.424-2.315,6.424c-2.025-0.004-4.632,1.155-6.945,2.602
	c-2.312,1.447,0.867,5.251-4.053,5.663c-4.916,0.414-9.259,6.2-11.574,7.646c-2.312,1.448-9.547,9.839-8.969,13.022
	c0.58,3.182-1.115,8.139,3.491,7.832c4.611-0.31,6.927-1.431,8.373,0c1.445,1.426,2.025,2.862,5.496,3.304
	c3.474,0.439,12.427-1.262,12.437-3.304c0.008-2.046-1.15-3.49,2.612-3.783c3.763-0.288,3.763-1.156,3.763-3.76
	c0-2.605,2.604-7.525,2.604-9.839c0-2.312,0.578-3.186,3.763-3.186c3.182,0,8.391,2.316,8.391-0.288
	c0-2.604-0.289-4.879-0.289-7.646c0-2.771,5.422-5.372,5.461-6.531c0.037-1.156,6.404-6.765,4.666-8.156
	c-1.736-1.391,4.156-0.793,4.156-0.793s3.656,2.04,5.393,0c1.736-2.046-0.287-7.523,1.736-8.112c2.027-0.586,4.92-1.817,4.92-3.662
	c0-1.846,0.582-7.486,1.447-7.417c0.869,0.075,4.051-1.375,5.207-3.257c1.157-1.881,1.389-4.565,1.418-6.692
	c0.03-2.13,5.396-9.777,1.188-9.1c-4.59,0.745-8.678-1.606-9.838-0.938c-1.158,0.674-1.447,4.146-4.053,2.119
	c-2.603-2.026-1.445-0.868-2.603-6.077c-1.157-5.207-0.58-6.074-3.475-6.074c-2.894,0-6.078,1.94-6.078-1.49
	s-0.289-1.499-1.734-6.659c-1.444-5.161-3.473-4.229-5.786-5.13c-2.314-0.898-2.314-3.503-4.341-5.527
	c-2.026-2.028-3.521-1.157-3.521-1.157"/>
<g>
	<path fill="#39B54A" d="M372.557,99.595c-0.627,1.343-2.655,0-3.521,0c-0.867,0-7.049,2.326-8.301,3.67
		c-1.257,1.344-0.537,4.39-1.435,5.731c-0.896,1.345-1.612,1.793-1.883,3.228c-0.268,1.433-0.268,2.685-0.895,2.861
		c-0.627,0.182-1.257,1.434-1.257,1.434l1.347,0.631l-0.09,0.896l-3.045,0.537c0,0,0,0.896-0.896,1.791
		c-0.895,0.896-3.045,1.881-3.045,1.881l0.449,0.896c0,0-0.986,1.525-2.688,1.525s-4.211,0-4.211,0v-0.9c0,0-2.147,1.259-2.955,0.9
		c-0.805-0.359-0.627-1.702-1.342-2.15c-0.717-0.45-1.613,0.175-2.33-0.089c-0.715-0.269-0.268-0.896-1.076-1.438
		c-0.805-0.533-1.973-0.714-1.973-0.177c0,0.538-2.057,0.448-3.312,0.268c-1.254-0.177-2.146-0.896-2.327-2.328
		c-0.179-1.433,0.182-2.864,0.625-3.137c0.448-0.264,0.717-2.865,1.883-4.023c1.164-1.169,3.401-4.394,4.836-4.394
		c1.434,0,1.793,0,1.881-0.718c0.088-0.714,1.344-1.433,1.344-1.968c0-0.537-0.535-1.256-0.535-1.256s1.613-0.447,1.88-0.984
		c0.268-0.535,0.809-1.523,1.342-1.523c0.539,0,2.061,0,2.42-0.268c0.354-0.271,3.49-2.688,3.852-2.688
		c0.359,0,1.164-0.267,1.521-0.447c0.36-0.178,1.526-1.88,1.885-2.061c0.354-0.178,1.789-0.178,1.879-0.716
		c0.092-0.537,0.986-1.88,1.525-1.971c0.534-0.086,1.789-0.984,2.325-1.343c0.535-0.357,3.584-4.566,3.584-5.374
		c0-0.806,1.072-2.509,0.984-3.312c-0.092-0.806,0.182-1.701,0.182-1.701h0.896c0,0,1.521-0.805,2.508-2.328
		c0.986-1.521,0.986-2.686,0.986-3.492c0-0.806,0.18-1.703,0.18-1.703s0.801-1.523,1.25-1.7c0.447-0.181,2.033-1.971,2.033-1.971
		h0.834c0,0-0.986,0.896,0,2.146c0.984,1.256,1.701,1.062,1.701,1.062h0.358v1.001c0,0-0.541,1.345,0,2.149
		c0.537,0.806,1.882,0.985,1.882,0.985s0.444-0.628,0.713-0.985c0.271-0.356,1.256-1.343,1.795-1.343
		c0.537,0,1.166,0.537,1.166-0.271c0-0.805,1.969-1.162,1.969-0.805c0,0.356,0,1.434,0,1.434l-0.539,1.255
		c0,0,0.986-0.181,1.344-0.181c0.355,0-0.717,1.521-0.983,1.521c-0.268,0-0.269,0.719,0,1.343c0.268,0.632,0.268,0.988,0.268,1.256
		c0,0.271,0.791,0.538,0.791,0.538s-1.598,4.299-2.672,4.659c-1.072,0.357-2.508,3.401-2.865,3.849
		c-0.354,0.45-1.344,1.612-2.149,2.865c-0.808,1.255-1.791,1.075-1.791,1.881c0,0.809-0.896,2.574-0.984,3.169
		c-0.088,0.596,1.701,0.505,2.061,0.862C372.286,98.432,372.557,99.595,372.557,99.595z"/>
	<path fill="#39B54A" d="M401.395,56.962c-1.612,0.628-3.045,0.984-3.045,2.509c0,1.525,0,3.046,0,3.046h0.986
		c0,0-0.268,3.851-0.986,4.211c-0.719,0.357-2.241,0.445-2.241,1.254c0,0.805,0.538,1.522,0,1.7c-0.537,0.18-1.609,0.983-1.609,2.06
		s-1.791,1.434-1.881,2.866c-0.09,1.434,0,3.137-1.164,3.137c-1.168,0-3.584,1.7-3.584,1.7h-0.986c0,0,0.359-0.805-0.445-1.522
		c-0.807-0.716-1.79-0.178-1.79-0.178l-1.433-0.631c0,0-0.271-0.982,0-1.072c0.267-0.091,1.967-1.075,2.236-2.331
		c0.268-1.253,1.252-2.772,1.252-4.027c0-1.253,0.36-2.597-0.176-3.672c-0.541-1.074-1.076-2.062-2.509-2.062
		c-1.432,0-1.704,0-2.418-0.805c-0.721-0.806-0.032-1.796-1.27-1.885c-1.238-0.087-2.941-0.264-3.119-1.339
		c-0.182-1.079-0.002-2.778,0.533-2.959c0.539-0.178,0.805-0.985,1.795-0.985c0.984,0,2.773-0.447,2.773-0.981
		c0-0.541,0.721-0.897,0.721-1.974c0-1.072,0.086-1.972,0.266-2.688c0.181-0.717,0.539-2.057,0.539-2.057l-0.447-1.617l0.896-1.609
		l-0.447-1.881l-0.625-2.061l-1.166-2.328h0.806l0.182,0.715l0.893-0.715h1.076l-0.717-1.166l-0.719-0.534v-1.166h-0.625v1.7
		l-1.164,0.539l-0.271-2.239l-1.969-2.6h1.252l0.717,0.721l-0.088-1.795h-1.09l-0.613-1.432l-0.985-0.872l0.899,2.128l-1.082,0.176
		l-1.407-3.761l-5.037-6.987c0,0,0.985,0.721,0.985,0c0-0.712-0.985-3.224-0.985-3.224l-3.07-3.043l0.834-0.36h1.613
		c0,0,0.532,1.523,0.893,2.331c0.361,0.806,0.717,1.7,0.717,1.7l1.611,0.627c0,0,2.152,0.178,3.225,1.076
		c1.076,0.893,3.136,1.34,3.228,3.044c0.086,1.699,0.268,2.773,0.268,4.12c0,1.344,0.447,0.314,0.627,2.173
		c0.181,1.855,1.879,2.572,1.879,2.572l0.183,1.254v1.434l-0.09,1.343l1.194,0.271c0,0,0.863,0.628,1.402,0.628
		c0.537,0,0.986,1.522,0.986,1.972c0,0.444-1.076,1.253,0,1.342c1.071,0.091,1.608,0.091,1.608-1.165
		c0-1.253-0.627-3.133-0.627-3.489c0-0.36,0.271-1.885-0.088-1.885c-0.359,0-0.809-0.984-0.809-0.984h0.809l1.162,1.703l0.896,0.537
		l-0.271,0.985l0.9,0.269c0,0,0,1.343,0,2.239c0,0.894,0.715,0.716,0.715,1.431c0,0.719-0.537,1.165,0,2.778
		c0.539,1.61,1.166,1.163,1.791,1.163c0.631,0,2.062,0.627,2.776,1.164c0.72,0.539,1.252,1.973,2.06,1.656
		c0.809-0.312,1.789,0.226,2.51,0c0.719-0.223,1.521-0.67,2.057-1.745c0.539-1.075,1.705-2.146,2.779-2.146s3.402,0.623,3.402,0.623
		s-0.355,1.257-0.535,1.972c-0.182,0.719-1.076,1.793-1.076,2.599c0,0.805,0.359,2.058-0.357,2.775
		c-0.717,0.715-1.793,1.971-1.793,1.971s-0.354,1.7-0.354,1.971c0,0.271,0.088,1.703,0.088,1.703s-0.627-0.359-1.793-0.271
		C402.292,56.695,401.395,56.962,401.395,56.962z"/>
</g>
<path fill="#005180" d="M40.409,66.501c-1.858-9.342,2.112-11.295,7.739-13.983c6.989-3.345,13.93,1.403,17.335-7.654
	c3.405-9.062,5.788-10.113,12.692-14.752c1.817-1.221-0.995-5.181,1.283-7.301c3.155-2.938,11.57,0,15.223,0
	c4.212,0,5.164-7.776,13.832-7.776c8.667,0,10.869-5.704,14.29-2.142c6.291,6.549-0.651,14.146,1.93,17.86
	c2.583,3.715,7.874,0.183,8.209-2.805c0.336-2.983,0.956-15.985,5.599-17.223c4.643-1.239,10.507-3.867,12.992,4.412
	c2.486,8.278-0.61,19.061,8.058,20.945c8.669,1.885,13.008,4.67,14.088,12.717c1.081,8.05,4.544,15.3,5.601,21.734
	c1.053,6.439,4.206,24.949,0,29.004c-4.211,4.055-12.879,1.945-12.879,9.346c0,7.402,2.787,12.355-4.022,12.976
	c-6.812,0.619-9.017,2.168-8.997,5.572c0.019,3.403-6.263,7.43-8.385,7.43c-2.121,0-7.815-0.736-8.313-9.646
	c-0.497-8.905-6.353-1.125-9.829-6.981c-7.473-12.604-12.77-6.842-19.89-9.349c-7.12-2.504,3.964-13.084-5.757-11.196
	c-9.721,1.883-19.007,13.646-24.58,13.646c-5.573,0-27.242,6.812-27.242-0.309c0-7.121,7.43-8.021,3.096-13.607
	c-4.334-5.586-10.525-9.576-10.525-14.237S40.409,66.501,40.409,66.501z"/>
<path fill="#FFFFFF" d="M149.849,121.425h-0.767c0,0-2.009,0.486-2.834,0.586c-0.826,0.097-1.712-0.196-2.184-0.536
	c-0.473-0.343-1.698-1.41-2.243-1.41c-0.354,0,0.768,4.477,1.004,5.057c0.236,0.586,0.116,0.392-0.414,0.486
	c-0.531,0.1,0.709,1.803,0.886,2.289c0.178,0.485,0.768,0.68,1.181,1.168c0.414,0.485,0.531,0.584,1.181,1.067
	c0.648,0.488,1.533,0.101,1.593-0.096c0.059-0.193,0.65-1.363,1.003-1.51c0.355-0.146,1.062-0.973,1.181-1.506
	c0.117-0.535-0.06-1.511,0.414-2.142c0.471-0.633,0.943-1.069,1.476-2.092c0.529-1.021-0.12-1.656-0.12-1.656L149.849,121.425z"/>
<path fill="#FFFFFF" d="M113.301,70.763l-18.185-0.191h-0.231l-0.118,22.066c0.155-0.043,0.302-0.035,0.466,0.03
	c0.94,0.377,3.826-1.93,5.135-1.875c2.394,0.103,4.789-1.778,6.385-0.196c1.595,1.582,2.494,1.682,3.89,2.571
	c1.397,0.89,0.998,1.978,2.095,3.064c1.097,1.087,3.391,5.141,3.391,5.141s1.104-0.928,2.187-1.703
	c0.61-0.436,1.21-0.821,1.605-0.967c1.098-0.395,2.994-2.865,2.994-2.865s-0.2,2.373-0.501,2.67
	c-0.297,0.298-1.097,3.462-1.496,3.562c-0.083,0.02-0.269,0.127-0.469,0.279l0.978,1.225c0.233-0.027,0.493-0.068,0.788-0.121
	c4.39-0.789,2.695-0.69,2.695-0.299c0,0.396,0,1.188,0.798,1.883c0.798,0.689,2.894,3.363,2.693,4.348
	c-0.2,0.992,0.399,3.562,1.596,4.451c0.325,0.242,0.864,0.576,1.438,0.576c0.178,0,0.355-0.018,0.56,0.023l0,0l0.659-14.91
	c-0.003,0-0.008-0.002-0.008-0.002l0.586-13.066l0.186-4.221l0.316-8.228l0.111-2.989L113.301,70.763z"/>
<path fill="#FFFFFF" d="M152.272,108.029c-1.272-0.228-1.798,0.592-2.544,0.592c-0.75,0-0.823-0.074-1.647-0.371
	c-0.822-0.297-2.544-1.037-3.517-1.037s-1.496,0.963-1.646,0.74s-1.945-2.373-2.544-2.818c-0.6-0.442-1.273-1.336-1.197-2.004
	c0.073-0.668-0.823-0.889-1.273-1.034c-0.449-0.148-1.122,0.739-1.122,0.739s0.288-1.873-1.346-2.67
	c-1.636-0.797-2.365-0.58-2.679-0.627l-0.761,14.896c1.381,0.271,3.153,0.666,4.188,1.873c1.694,1.979,2.694,1.483,3.691,0.594
	c0.998-0.892,2.794-2.771,3.094-2.275c0.298,0.496-0.201,1.386-0.201,1.386s0.599,0.791,1.199,0.791c0.597,0,2.69,0.495,3.69,1.286
	c0.997,0.789,1.695-1.979,3.393-2.475c1.695-0.492,3.791,0.1,5.486-0.592c0.318-0.129,0.575-0.506,0.824-0.967
	c0.045-0.086,0.095-0.166,0.146-0.248l-4.86-2.814C152.647,110.994,153.543,108.25,152.272,108.029z"/>
<path fill="#39B54A" d="M133.852,70.941v0.035h0.001l-0.001,0.043l0.066,0.004l-0.446,10.076l-0.018,0.465
	c0,0,23.233,1.688,24.429,1.838c1.197,0.149,1.126-0.441,2.021-0.963c0.898-0.521,2.47-0.814,3.367-0.074
	c0.896,0.742,1.422,0.445,1.722,0.742c0.298,0.295,1.122,1.707,1.122,1.707s1.122-0.816,1.796-0.67
	c0.673,0.146,0.673-0.965,0.971-1.261c0.301-0.297,0.975-0.444,1.5-0.52c0.523-0.074,1.429,0.545,1.72,0.297
	c0.136-0.115,0.657-0.166,1.284-0.184c0.086-0.586,0.125-1.029,0.113-1.275c0,0-0.152-0.395-0.45-1.037
	c-0.299-0.645-0.299-1.781,0-2.176c0.298-0.396,0.1-2.076,0.15-2.818c0.05-0.741,0.648-0.543,0.348-1.282
	c-0.298-0.744,0.351-2.574,0.051-2.427c-0.299,0.152-2.692-1.928-3.193-3.657c-0.498-1.73-1.347-1.187-1.745-1.683
	s-0.05-1.729-0.498-1.828c-0.45-0.1-1.247,0.791-0.999-1.83s-0.599-2.569-0.599-2.569s0.15,0.938-0.448,0.44
	c-0.599-0.492-1.497-2.074-1.497-0.889c0,1.188-0.525,0.348-0.525,0.348s-0.771-0.248-0.821-1.285
	c-0.05-1.036,0.3-1.434-0.348-2.176c-0.649-0.742,0-1.037-0.449-1.633c-0.45-0.594-1.548-1.385-1.448-1.828
	c0.1-0.445,0.85-0.1,0.85-0.1s-0.75-1.086-1.051-1.383c-0.297-0.3-0.646-0.052-0.646-0.052s-0.448-0.396-0.448-0.643
	s0-0.098-0.849-0.594c-0.849-0.494-0.647-0.939-0.849-0.494c-0.199,0.444-0.797-0.988-1.146-1.435c-0.349-0.445-1.347,0-1.299-0.692
	c0.051-0.691,0,0.346-0.946-0.297c-0.947-0.642-1.547-1.332-1.297-2.423c0.25-1.088-0.25-1.186-0.499-1.137
	c-0.25,0.049,0.45-1.139-0.1-3.461c-0.547-2.324-1.695-2.227-1.695-3.461c0-1.236-0.65-3.709-0.3-4.746
	c0.35-1.039-1.598-1.387-1.896-1.881c-0.3-0.494-0.947-1.581-0.947-1.581s-0.4,0.494-0.799,0.494c-0.4,0-0.699,1.48-1.248,0.494
	c-0.549-0.988-1.246-3.214-1.097-4.4s0.149-1.631,0.149-1.631s-0.946-0.148-0.648-0.445c0.299-0.296,0.049-0.346-0.148-0.643
	c-0.2-0.297-0.849-0.594-0.649-1.237c0.199-0.642,0.449-0.791-0.3-1.039c-0.748-0.246-0.548-1.285-0.548-2.472
	s-0.25-0.396-0.648-1.039c-0.399-0.642-0.2-1.877-0.849-1.285c-0.647,0.593-0.748,1.038-1.098,1.484
	c-0.35,0.443-0.25,2.225-0.648,2.816c-0.399,0.595,0,1.089-0.648,1.286c-0.649,0.198-0.899,1.188-0.749,1.335
	c0.15,0.148,0.848,0.396,0.848,0.396s-0.398,0.593-0.598,0.741c-0.2,0.148-0.548,0.593-0.25,1.138
	c0.299,0.543-0.448,1.285-0.648,1.729c-0.2,0.446,0,0.94,0.2,1.336c0.197,0.396,0.299,0.842,0.1,1.089
	c-0.2,0.247,0.05,0.889,0,1.482c-0.05,0.594,0.498,0.543-0.3,2.174c-0.798,1.634-0.549,2.869-0.848,3.513
	c-0.299,0.643-1.247,2.323-1.447,2.817c-0.199,0.496-1.297,2.474-2.743,1.979c-1.448-0.494-1.797-0.445-2.246-1.039
	c-0.449-0.594-1.446-0.889-1.499-1.435c-0.048-0.543,0.436-0.987-1.251-1.077c-0.219-0.013-0.276,0.021-0.41,0.018l-0.653,33.686
	l0.653-33.686c-0.007,0-0.016-0.004-0.024-0.004l-0.642,33.781L133.852,70.941z"/>
<polygon points="133.421,82.236 133.404,82.656 133.454,81.564 133.472,81.099 "/>
<path fill="#39B54A" d="M95.083,30.111l-0.677-0.033l-1.309,0.799c-0.009,0.24-0.312,0.189-0.312,0.189l0.312-0.189
	c0.009-0.235-0.268-0.754-1.409-1.886c-2.295-2.273-2.494-3.263-4.889-1.681c-2.394,1.582-6.51,4.944-6.51,5.934
	s-0.773,3.264-0.773,3.264s-1.696,0.099-1.771,0.099c-0.075,0-0.824,1.385-0.824,1.385l0.299,2.67l-3.093-2.67
	c0,0-1.496,3.164-1.496,4.35c0,1.188-1.996,6.527-3.493,7.021c-1.496,0.494-5.487,2.275-6.984,2.77
	c-1.496,0.494-3.392,1.779-4.788,2.177c-1.397,0.395-1.197-0.496-2.793,0.297c-1.597,0.791-2.594,2.67-3.891,3.658
	c-1.297,0.987-3.394,4.055-3.394,4.055s-1.496-0.496-1.196,0.988c0.3,1.483,0.2,4.45,0,4.848c-0.2,0.395-0.299,2.074,0.898,3.854
	c1.197,1.779,2.694,4.056,1.995,4.646c-0.698,0.596-0.797,0.395,0,2.572c0.798,2.176,2.794,5.141,3.292,5.733
	c0.5,0.595,1.696,3.461,1.696,4.449c0,0.99,2.396,4.453,3.093,5.439c0.699,0.989,0.6,3.461,0.798,4.057
	c0.2,0.592,0.999,2.176-0.499,3.262c-1.496,1.09-0.1,2.275,0.699,2.771c0.798,0.494,3.991,1.778,6.285,1.481
	c2.295-0.297,4.291-2.375,4.589-2.569c0.299-0.199,2.395-1.978,2.395-1.978s0.5-0.596,2.793-0.891
	c2.295-0.297,4.939-0.297,6.162-0.297c1.222,0,2.519-2.177,4.015-3.759c1.497-1.584,3.493-3.854,6.386-3.36
	c1.155,0.197,2.573-0.33,3.984-0.896c0.001,0,0.003,0,0.005-0.004l0.168-22.096L95.083,30.111z"/>
<path fill="#39B54A" d="M152.272,108.029c-1.272-0.228-1.798,0.592-2.544,0.592c-0.75,0-0.823-0.074-1.647-0.371
	c-0.822-0.297-2.544-1.037-3.517-1.037s-1.496,0.963-1.646,0.74s-1.945-2.373-2.544-2.818c-0.6-0.442-1.273-1.336-1.197-2.004
	c0.073-0.668-0.823-0.889-1.273-1.034c-0.449-0.148-1.122,0.739-1.122,0.739s0.288-1.873-1.346-2.67
	c-1.636-0.797-2.365-0.58-2.679-0.627l-0.761,14.896c1.381,0.271,3.153,0.666,4.188,1.873c1.694,1.979,2.694,1.483,3.691,0.594
	c0.998-0.892,2.794-2.771,3.094-2.275c0.298,0.496-0.201,1.386-0.201,1.386s0.599,0.791,1.199,0.791c0.597,0,2.69,0.495,3.69,1.286
	c0.997,0.789,1.695-1.979,3.393-2.475c1.695-0.492,3.791,0.1,5.486-0.592c0.318-0.129,0.575-0.506,0.824-0.967
	c0.045-0.086,0.095-0.166,0.146-0.248l-4.86-2.814C152.647,110.994,153.543,108.25,152.272,108.029z"/>
<polygon points="133.851,70.976 133.852,70.941 126.223,70.855 126.223,70.896 "/>
<polygon points="133.421,82.236 133.472,81.099 133.737,74.009 "/>
<path fill="#39B54A" d="M160.131,106.916c1.395-0.99,2.675-6.43,6.624-8.506c3.433-1.807,6.065-12.049,6.631-15.932
	c-0.627,0.018-1.148,0.067-1.284,0.184c-0.291,0.248-1.196-0.371-1.72-0.297c-0.525,0.074-1.199,0.223-1.5,0.52
	c-0.298,0.296-0.298,1.406-0.971,1.261c-0.674-0.146-1.796,0.67-1.796,0.67s-0.824-1.412-1.122-1.707
	c-0.3-0.297-0.825,0-1.722-0.742c-0.897-0.74-2.469-0.445-3.367,0.074c-0.896,0.521-0.824,1.113-2.021,0.963
	c-1.195-0.148-24.429-1.838-24.429-1.838l-0.05,1.092l-0.646,16.883c0.313,0.047,1.063-0.063,2.679,0.627
	c1.614,0.691,1.346,2.67,1.346,2.67s0.673-0.889,1.122-0.739c0.451,0.146,1.347,0.366,1.273,1.034
	c-0.076,0.668,0.598,1.562,1.197,2.005c0.599,0.444,2.394,2.596,2.544,2.817c0.149,0.223,0.673-0.74,1.646-0.74
	s2.694,0.74,3.517,1.037c0.824,0.297,0.897,0.371,1.647,0.371c0.746,0,1.271-0.817,2.544-0.592c1.271,0.221,0.375,2.965,0.375,2.965
	l4.86,2.814c0.045-0.078,0.091-0.16,0.132-0.259C158.547,111.396,159.09,107.65,160.131,106.916z"/>
<path fill="#39B54A" d="M149.849,121.425h-0.767c0,0-2.009,0.486-2.834,0.586c-0.826,0.097-1.712-0.196-2.184-0.536
	c-0.473-0.343-1.698-1.41-2.243-1.41c-0.354,0,0.768,4.477,1.004,5.057c0.236,0.586,0.116,0.392-0.414,0.486
	c-0.531,0.1,0.709,1.803,0.886,2.289c0.178,0.485,0.768,0.68,1.181,1.168c0.414,0.485,0.531,0.584,1.181,1.067
	c0.648,0.488,1.533,0.101,1.593-0.096c0.059-0.193,0.65-1.363,1.003-1.51c0.355-0.146,1.062-0.973,1.181-1.506
	c0.117-0.535-0.06-1.511,0.414-2.142c0.471-0.633,0.943-1.069,1.476-2.092c0.529-1.021-0.12-1.656-0.12-1.656L149.849,121.425z"/>
<path d="M126.865,37.074c0.008,0,0.017,0.004,0.024,0.004"/>
<polygon points="133.472,81.099 133.918,71.023 133.852,71.019 133.737,74.009 "/>
<path fill="#FFFFFF" d="M95.083,30.111h0.018v-0.009v0.009l1.229,0.057l1.444,0.306l0.498-0.295c0,0-0.597-1.089-0.897-1.582
	s0.101-0.988,0.5-1.089c0.397-0.099,0.799-1.187,0.799-1.187l0.099-1.188c0,0,0.698,0,1.247-0.493
	c0.549-0.495-0.349-1.237,0.051-1.335c0.397-0.1,0.597-1.533,1.246-1.829c0.647-0.297,1.347-0.645,1.396-1.038
	c0.05-0.396,0.798-0.149,0.798-0.149s0.301-0.443,0.45,0.1c0.149,0.544,1.097,0.247,2.044,0.395c0.948,0.149,0.45-1.335,0.699-1.779
	c0.249-0.445,0.349,0.1,1.396,0c1.047-0.099,0.398,0,0.549,0.396c0.149,0.396,0.699-0.048,0.849,0.148
	c0.149,0.198,0.248,0.494,0.248,0.494s0.25-0.05,0.849-0.099c0.598-0.05,0.897-0.841,1.296,0.099c0.4,0.94,1.298,0.149,1.748,0.049
	c0.448-0.099,1.894-0.345,1.695-0.146c-0.2,0.197,0.747-0.05,0.697,0.396c-0.049,0.444,0.899,0.892,0.899,0.892
	s0.897,0.197,0.897-0.149s0.649-0.396,1.249-0.396c0.598,0,0.249,1.235-0.102,2.67c-0.347,1.435-1.496,0.495-2.244,0.644
	c-0.749,0.148-0.3,1.235-0.248,1.979c0.049,0.742-0.55,1.482-1.099,2.423c-0.549,0.938,1.197,2.77,1.596,3.41
	c0.399,0.645,0.848,0.842,1.047,0.692c0.201-0.147-0.049-0.989,0.35-0.692s0.949,1.041,1.397,1.289
	c0.449,0.246,0.699,0.541,0.898,0.592c0.2,0.049,1.347,0.494,1.894,0.889c0.55,0.396,1.099,0.101,1.398,0.939
	c0.249,0.696,1.504,1.328,2.777,1.543c0.044,0.008,0.08,0.014,0.113,0.014"/>
<path fill="#39B54A" d="M95.087,70.535l17.452,0.219l13.684,0.144v-0.041l-0.099-0.002l0.729-33.779
	c-0.033,0-0.068-0.006-0.113-0.014c-1.273-0.215-2.529-0.847-2.777-1.543c-0.3-0.84-0.849-0.543-1.398-0.939
	c-0.547-0.395-1.694-0.84-1.894-0.889c-0.2-0.051-0.45-0.347-0.898-0.592c-0.448-0.248-0.998-0.992-1.397-1.289
	c-0.398-0.297-0.149,0.545-0.35,0.692c-0.199,0.148-0.648-0.049-1.047-0.692c-0.398-0.642-2.145-2.473-1.596-3.41
	c0.548-0.939,1.147-1.682,1.099-2.423c-0.052-0.742-0.5-1.83,0.248-1.979c0.749-0.148,1.897,0.791,2.244-0.644
	c0.351-1.435,0.699-2.67,0.102-2.67c-0.6,0-1.249,0.049-1.249,0.396c0,0.346-0.897,0.149-0.897,0.149s-0.949-0.446-0.899-0.892
	c0.05-0.444-0.897-0.197-0.697-0.396c0.199-0.197-1.247,0.049-1.695,0.146c-0.449,0.101-1.348,0.892-1.748-0.049
	c-0.398-0.938-0.698-0.147-1.296-0.099c-0.6,0.049-0.849,0.099-0.849,0.099s-0.099-0.296-0.248-0.494
	c-0.15-0.196-0.7,0.247-0.849-0.148c-0.15-0.396,0.499-0.494-0.549-0.396c-1.047,0.1-1.147-0.445-1.396,0
	c-0.25,0.444,0.249,1.929-0.699,1.779c-0.947-0.147-1.896,0.149-2.044-0.395c-0.149-0.544-0.45-0.1-0.45-0.1
	s-0.748-0.247-0.798,0.149c-0.05,0.395-0.749,0.74-1.396,1.038c-0.649,0.296-0.849,1.729-1.246,1.829
	c-0.4,0.099,0.498,0.841-0.051,1.335c-0.548,0.493-1.247,0.493-1.247,0.493l-0.099,1.188c0,0-0.401,1.088-0.799,1.187
	c-0.398,0.101-0.799,0.596-0.5,1.088c0.3,0.494,0.897,1.582,0.897,1.582l-0.498,0.296l-1.444-0.306l-1.229-0.057L94.885,70.57h0.231
	L95.087,70.535z"/>
<polygon fill="#FFFFFF" points="94.885,70.572 95.101,30.111 95.083,30.111 94.849,70.57 "/>
<polygon fill="#FFFFFF" points="95.087,70.535 95.116,70.572 112.539,70.753 "/>
<path fill="#FFFFFF" d="M126.125,70.853l0.099,0.002l0.642-33.781c-0.003,0-0.006,0-0.011,0L126.125,70.853z"/>
<path fill="#FFFFFF" d="M94.885,70.572l-0.036-0.002L94.68,92.666c0.03-0.01,0.058-0.018,0.087-0.026L94.885,70.572z"/>
<polygon fill="#FFFFFF" points="133.235,86.457 133.404,82.656 133.421,82.236 "/>
<path fill="#FFFFFF" d="M132.657,99.525l-0.659,14.91c0.062,0.012-0.063-0.64,0-0.627l0.761-14.271
	C132.703,99.529,132.67,99.529,132.657,99.525z"/>
<polygon fill="#FFFFFF" points="126.223,70.9 113.301,70.763 133.849,71.019 133.851,70.976 126.223,70.896 "/>
<path fill="#39B54A" d="M113.301,70.763l-18.185-0.191h-0.231l-0.118,22.066c0.155-0.043,0.302-0.035,0.466,0.03
	c0.94,0.377,3.826-1.93,5.135-1.875c2.394,0.103,4.789-1.778,6.385-0.196c1.595,1.582,2.494,1.682,3.89,2.571
	c1.397,0.89,0.998,1.978,2.095,3.064c1.097,1.087,3.391,5.141,3.391,5.141s1.104-0.928,2.187-1.703
	c0.61-0.436,1.21-0.821,1.605-0.967c1.098-0.395,2.994-2.865,2.994-2.865s-0.2,2.373-0.501,2.67
	c-0.297,0.298-1.097,3.462-1.496,3.562c-0.083,0.02-0.269,0.127-0.469,0.279l0.978,1.225c0.233-0.027,0.493-0.068,0.788-0.121
	c4.39-0.789,2.695-0.69,2.695-0.299c0,0.396,0,1.188,0.798,1.883c0.798,0.689,2.894,3.363,2.693,4.348
	c-0.2,0.992,0.399,3.562,1.596,4.451c0.325,0.242,0.864,0.576,1.438,0.576c0.178,0,0.355-0.018,0.56,0.023l0,0l0.659-14.91
	c-0.003,0-0.008-0.002-0.008-0.002l0.586-13.066l0.186-4.221l0.316-8.228l0.111-2.989L113.301,70.763z"/>
<path fill="none" stroke="#007DB1" stroke-width="0.7805" stroke-miterlimit="1" d="M157.515,113.814l-4.867-2.82
	c0,0,0.896-2.744-0.375-2.965c-1.272-0.228-1.798,0.592-2.544,0.592c-0.75,0-0.823-0.074-1.647-0.371
	c-0.822-0.297-2.544-1.037-3.517-1.037s-1.496,0.963-1.646,0.74s-1.945-2.373-2.544-2.818c-0.6-0.442-1.273-1.336-1.197-2.004
	c0.073-0.668-0.823-0.889-1.273-1.034c-0.449-0.148-1.122,0.739-1.122,0.739s0.375-2.149-1.346-2.67
	c-1.722-0.52-2.962-0.674-2.962-0.674"/>
<path fill="#FFFFFF" d="M132.657,99.525c0.014,0.004,0.046,0.004,0.102,0.014l0.646-16.883l-0.169,3.801L132.657,99.525z"/>
<polygon fill="#FFFFFF" points="132.649,99.523 132.657,99.525 133.235,86.457 "/>
<rect x="133.851" y="70.976" fill="#FFFFFF" width="0.001" height="0.043"/>
<polygon fill="#FFFFFF" points="133.737,74.009 133.852,71.019 133.849,71.019 "/>
<polygon fill="#FFFFFF" points="94.885,70.572 95.116,70.572 95.116,70.572 "/>
<polygon fill="#FFFFFF" points="126.223,70.896 112.539,70.753 113.301,70.763 126.223,70.9 "/>
<polygon fill="#FFFFFF" points="94.849,70.57 94.885,70.572 94.885,70.572 "/>
<polyline fill="none" stroke="#007DB1" stroke-width="0.7805" stroke-miterlimit="1" points="95.087,70.535 133.918,71.023 
	131.683,114.412 "/>
<line fill="none" stroke="#007DB1" stroke-width="0.7805" stroke-miterlimit="1" x1="95.101" y1="30.102" x2="94.943" y2="92.669"/>
<line fill="none" stroke="#007DB1" stroke-width="0.7805" stroke-miterlimit="1" x1="127.008" y1="37.039" x2="126.236" y2="70.763"/>
<path fill="none" stroke="#007DB1" stroke-width="0.7805" stroke-miterlimit="1" d="M173.418,82.474c0,0-0.916-0.156-1.316,0.188
	c-0.291,0.248-1.196-0.371-1.72-0.297c-0.525,0.074-1.199,0.223-1.5,0.52c-0.298,0.296-0.298,1.406-0.971,1.261
	c-0.674-0.146-1.796,0.67-1.796,0.67s-0.824-1.412-1.122-1.707c-0.3-0.297-0.825,0-1.722-0.742c-0.897-0.74-2.469-0.445-3.367,0.074
	c-0.896,0.521-0.824,1.113-2.021,0.963c-1.195-0.148-24.541-1.853-24.541-1.853"/>
<circle fill="#FFFFFF" cx="110.498" cy="62.972" r="19.688"/>
<g enable-background="new    ">
	<path fill="#FFFFFF" d="M27.866,27.868h0.912l3.358,8.563H31.26l-1.043-2.662h-3.897l-1.032,2.662h-0.875L27.866,27.868z
		 M26.571,33.073h3.37l-1.655-4.39L26.571,33.073z"/>
	<path fill="#FFFFFF" d="M37.789,36.431h-0.696v-1.115h-0.024c-0.396,0.827-1.211,1.295-2.135,1.295
		c-1.559,0-2.171-0.911-2.171-2.351v-4.018h0.756v4.029c0.036,1.116,0.456,1.703,1.655,1.703c1.295,0,1.859-1.223,1.859-2.482v-3.25
		h0.756V36.431z"/>
	<path fill="#FFFFFF" d="M42.926,32.053c-0.036-0.936-0.756-1.354-1.619-1.354c-0.672,0-1.463,0.264-1.463,1.067
		c0,0.671,0.768,0.911,1.283,1.043l1.007,0.228c0.864,0.133,1.763,0.636,1.763,1.716c0,1.343-1.331,1.858-2.482,1.858
		c-1.439,0-2.423-0.672-2.543-2.183h0.756c0.06,1.02,0.815,1.547,1.823,1.547c0.708,0,1.691-0.312,1.691-1.175
		c0-0.72-0.672-0.96-1.355-1.128l-0.971-0.216c-0.984-0.264-1.727-0.6-1.727-1.655c0-1.259,1.235-1.738,2.327-1.738
		c1.235,0,2.219,0.647,2.267,1.99H42.926z"/>
	<path fill="#FFFFFF" d="M46.19,30.243h1.259v0.636H46.19v4.174c0,0.491,0.072,0.779,0.612,0.815c0.216,0,0.432-0.013,0.647-0.036
		v0.647c-0.228,0-0.444,0.024-0.671,0.024c-1.008,0-1.355-0.336-1.343-1.392v-4.233h-1.08v-0.636h1.08v-1.859h0.755V30.243z"/>
	<path fill="#FFFFFF" d="M48.543,30.243h0.695v1.451h0.024c0.384-0.995,1.224-1.583,2.339-1.535v0.756
		c-1.367-0.072-2.303,0.936-2.303,2.219v3.298h-0.755V30.243z"/>
	<path fill="#FFFFFF" d="M52.251,32.137c0.072-1.451,1.092-2.074,2.507-2.074c1.091,0,2.279,0.336,2.279,1.99v3.286
		c0,0.288,0.144,0.456,0.444,0.456c0.084,0,0.18-0.023,0.24-0.048v0.636c-0.168,0.036-0.288,0.048-0.492,0.048
		c-0.768,0-0.888-0.432-0.888-1.079h-0.024c-0.528,0.804-1.067,1.259-2.255,1.259c-1.139,0-2.075-0.563-2.075-1.811
		c0-1.739,1.691-1.799,3.322-1.991c0.624-0.072,0.971-0.156,0.971-0.84c0-1.02-0.731-1.271-1.619-1.271
		c-0.935,0-1.631,0.432-1.655,1.438H52.251z M56.281,33.05h-0.024c-0.096,0.18-0.432,0.239-0.636,0.275
		c-1.283,0.228-2.878,0.216-2.878,1.428c0,0.755,0.672,1.223,1.379,1.223c1.151,0,2.171-0.731,2.159-1.942V33.05z"/>
	<path fill="#FFFFFF" d="M58.563,27.868h0.756v8.563h-0.756V27.868z"/>
	<path fill="#FFFFFF" d="M60.783,27.868h0.756v1.212h-0.756V27.868z M60.783,30.243h0.756v6.188h-0.756V30.243z"/>
	<path fill="#FFFFFF" d="M62.919,32.137c0.072-1.451,1.092-2.074,2.507-2.074c1.091,0,2.279,0.336,2.279,1.99v3.286
		c0,0.288,0.144,0.456,0.444,0.456c0.084,0,0.18-0.023,0.24-0.048v0.636c-0.168,0.036-0.288,0.048-0.492,0.048
		c-0.768,0-0.888-0.432-0.888-1.079h-0.024c-0.528,0.804-1.067,1.259-2.255,1.259c-1.139,0-2.075-0.563-2.075-1.811
		c0-1.739,1.691-1.799,3.322-1.991c0.624-0.072,0.971-0.156,0.971-0.84c0-1.02-0.731-1.271-1.619-1.271
		c-0.935,0-1.631,0.432-1.655,1.438H62.919z M66.949,33.05h-0.024c-0.096,0.18-0.432,0.239-0.636,0.275
		c-1.283,0.228-2.878,0.216-2.878,1.428c0,0.755,0.672,1.223,1.379,1.223c1.151,0,2.171-0.731,2.159-1.942V33.05z"/>
</g>
<g enable-background="new    ">
	<path fill="#FFFFFF" d="M387.525,86.87h0.912l4.989,7.244h0.024V86.87h0.814v8.563h-0.911l-4.989-7.244h-0.023v7.244h-0.816V86.87z
		"/>
	<path fill="#FFFFFF" d="M396.285,92.543c0.012,1.104,0.588,2.435,2.039,2.435c1.104,0,1.703-0.647,1.943-1.583h0.756
		c-0.324,1.403-1.141,2.219-2.699,2.219c-1.967,0-2.795-1.511-2.795-3.274c0-1.631,0.828-3.273,2.795-3.273
		c1.991,0,2.783,1.738,2.723,3.478H396.285z M400.291,91.907c-0.035-1.139-0.743-2.206-1.967-2.206
		c-1.235,0-1.919,1.079-2.039,2.206H400.291z"/>
	<path fill="#FFFFFF" d="M401.445,89.245h0.805l1.582,5.301h0.025l1.51-5.301h0.852l1.512,5.301h0.023l1.584-5.301h0.803
		l-1.99,6.188h-0.828l-1.522-5.205h-0.024l-1.511,5.205h-0.827L401.445,89.245z"/>
	<path fill="#FFFFFF" d="M414.021,86.87h6.165v0.72l-5.637,7.148h5.757v0.695h-6.668v-0.72l5.637-7.147h-5.254V86.87z"/>
	<path fill="#FFFFFF" d="M421.63,92.543c0.012,1.104,0.587,2.435,2.038,2.435c1.104,0,1.703-0.647,1.943-1.583h0.756
		c-0.324,1.403-1.14,2.219-2.699,2.219c-1.967,0-2.794-1.511-2.794-3.274c0-1.631,0.827-3.273,2.794-3.273
		c1.992,0,2.783,1.738,2.723,3.478H421.63z M425.635,91.907c-0.035-1.139-0.742-2.206-1.967-2.206c-1.234,0-1.918,1.079-2.038,2.206
		H425.635z"/>
	<path fill="#FFFFFF" d="M427.342,91.139c0.072-1.451,1.092-2.074,2.506-2.074c1.092,0,2.279,0.336,2.279,1.99v3.286
		c0,0.288,0.145,0.456,0.443,0.456c0.084,0,0.18-0.023,0.24-0.048v0.636c-0.168,0.036-0.288,0.048-0.492,0.048
		c-0.768,0-0.887-0.432-0.887-1.079h-0.024c-0.528,0.804-1.067,1.259-2.255,1.259c-1.139,0-2.074-0.563-2.074-1.811
		c0-1.739,1.69-1.799,3.322-1.991c0.623-0.072,0.971-0.156,0.971-0.84c0-1.02-0.731-1.271-1.619-1.271
		c-0.936,0-1.631,0.432-1.654,1.438H427.342z M431.371,92.052h-0.023c-0.096,0.18-0.432,0.239-0.637,0.275
		c-1.283,0.228-2.878,0.216-2.878,1.428c0,0.755,0.672,1.223,1.38,1.223c1.15,0,2.17-0.731,2.158-1.942V92.052z"/>
	<path fill="#FFFFFF" d="M433.653,86.87h0.756v8.563h-0.756V86.87z"/>
	<path fill="#FFFFFF" d="M435.789,91.139c0.072-1.451,1.092-2.074,2.508-2.074c1.091,0,2.278,0.336,2.278,1.99v3.286
		c0,0.288,0.144,0.456,0.444,0.456c0.084,0,0.18-0.023,0.239-0.048v0.636c-0.168,0.036-0.288,0.048-0.491,0.048
		c-0.768,0-0.889-0.432-0.889-1.079h-0.023c-0.527,0.804-1.067,1.259-2.255,1.259c-1.14,0-2.075-0.563-2.075-1.811
		c0-1.739,1.691-1.799,3.322-1.991c0.624-0.072,0.972-0.156,0.972-0.84c0-1.02-0.731-1.271-1.619-1.271
		c-0.935,0-1.631,0.432-1.655,1.438H435.789z M439.819,92.052h-0.024c-0.096,0.18-0.432,0.239-0.635,0.275
		c-1.283,0.228-2.879,0.216-2.879,1.428c0,0.755,0.672,1.223,1.379,1.223c1.152,0,2.172-0.731,2.159-1.942V92.052z"/>
	<path fill="#FFFFFF" d="M442.078,89.245h0.756v1.067h0.023c0.275-0.744,1.104-1.247,1.979-1.247c1.739,0,2.268,0.911,2.268,2.387
		v3.981h-0.756v-3.862c0-1.067-0.348-1.87-1.571-1.87c-1.2,0-1.919,0.911-1.942,2.122v3.61h-0.756V89.245z"/>
	<path fill="#FFFFFF" d="M453.979,95.433h-0.695v-1.176h-0.024c-0.323,0.804-1.308,1.355-2.206,1.355
		c-1.883,0-2.783-1.523-2.783-3.274s0.9-3.273,2.783-3.273c0.923,0,1.822,0.468,2.146,1.354h0.023v-3.55h0.756V95.433z
		 M451.053,94.977c1.606,0,2.17-1.354,2.17-2.639c0-1.283-0.563-2.638-2.17-2.638c-1.439,0-2.027,1.354-2.027,2.638
		C449.025,93.623,449.613,94.977,451.053,94.977z"/>
</g>
<g>
	<path fill="#003767" d="M110.675,57.093c-8.226,0-14.435,1.267-14.435,1.267s-1.035,0.162-1.035,1.113V66
		c0,0.901,1.035,1.077,1.035,1.077s6.286,1.373,14.435,1.373c8.149,0,14.435-1.373,14.435-1.373s1.035-0.176,1.035-1.077v-6.526
		c0-0.951-1.035-1.113-1.035-1.113S118.901,57.093,110.675,57.093z"/>
	<path fill="#FFFFFF" d="M100.439,61.472h0.017c0.305-0.549,0.828-0.791,1.445-0.791h0.305v1.521
		c-0.218-0.122-0.427-0.146-0.67-0.146c-0.879,0-1.097,0.583-1.097,1.348v1.802h-1.583v-4.464h1.583V61.472z"/>
	<path fill="#FFFFFF" d="M107.509,63.239h-3.333c0,0.645,0.339,0.992,0.992,0.992c0.34,0,0.583-0.112,0.757-0.409h1.522
		c-0.252,1.053-1.253,1.532-2.271,1.532c-1.48,0-2.585-0.836-2.585-2.376c0-1.487,1.019-2.385,2.472-2.385
		c1.549,0,2.445,0.957,2.445,2.48L107.509,63.239L107.509,63.239z M106.038,62.326c-0.078-0.427-0.47-0.705-0.896-0.705
		c-0.461,0-0.844,0.243-0.939,0.705H106.038z"/>
	<path fill="#FFFFFF" d="M112.955,63.239h-3.332c0,0.645,0.339,0.992,0.992,0.992c0.339,0,0.583-0.112,0.756-0.409h1.522
		c-0.252,1.053-1.252,1.532-2.271,1.532c-1.479,0-2.584-0.836-2.584-2.376c0-1.487,1.018-2.385,2.472-2.385
		c1.549,0,2.444,0.957,2.444,2.48L112.955,63.239L112.955,63.239z M111.484,62.326c-0.078-0.427-0.469-0.705-0.896-0.705
		c-0.461,0-0.845,0.243-0.94,0.705H111.484z"/>
	<path fill="#FFFFFF" d="M122.599,63.239h-3.333c0,0.645,0.339,0.992,0.992,0.992c0.34,0,0.583-0.112,0.757-0.409h1.522
		c-0.252,1.053-1.253,1.532-2.271,1.532c-1.479,0-2.584-0.836-2.584-2.376c0-1.487,1.018-2.385,2.471-2.385
		c1.548,0,2.445,0.957,2.445,2.48L122.599,63.239L122.599,63.239z M121.128,62.326c-0.078-0.427-0.469-0.705-0.896-0.705
		c-0.461,0-0.844,0.243-0.94,0.705H121.128z"/>
	<path fill="#FFFFFF" d="M117.008,62.194c-0.234-0.174-0.514-0.313-0.818-0.313c-0.608,0-1.088,0.471-1.088,1.088
		c0,0.646,0.461,1.099,1.114,1.099c0.278,0,0.583-0.113,0.792-0.305l0.403,1.116c-0.496,0.38-1.134,0.477-1.517,0.477
		c-1.323,0-2.428-0.983-2.428-2.333c0-1.438,1.097-2.429,2.499-2.429c0.366,0,1.064,0.161,1.457,0.498L117.008,62.194z"/>
</g>
<circle fill="none" stroke="#FFFFFF" stroke-width="1.2195" stroke-miterlimit="10" cx="110.497" cy="62.972" r="22.226"/>
<circle fill="#FFFFFF" cx="360.213" cy="62.972" r="19.688"/>
<g>
	<path fill="#003767" d="M360.389,57.093c-8.225,0-14.434,1.267-14.434,1.267s-1.035,0.162-1.035,1.113V66
		c0,0.901,1.035,1.077,1.035,1.077s6.285,1.373,14.434,1.373c8.15,0,14.437-1.373,14.437-1.373s1.035-0.176,1.035-1.077v-6.526
		c0-0.951-1.035-1.113-1.035-1.113S368.616,57.093,360.389,57.093z"/>
	<path fill="#FFFFFF" d="M350.155,61.472h0.016c0.307-0.549,0.828-0.791,1.445-0.791h0.305v1.521
		c-0.217-0.122-0.426-0.146-0.67-0.146c-0.879,0-1.096,0.583-1.096,1.348v1.802h-1.584v-4.464h1.584V61.472L350.155,61.472z"/>
	<path fill="#FFFFFF" d="M357.223,63.239h-3.332c0,0.645,0.341,0.992,0.992,0.992c0.34,0,0.582-0.112,0.758-0.409h1.521
		c-0.252,1.053-1.252,1.532-2.271,1.532c-1.479,0-2.586-0.836-2.586-2.376c0-1.487,1.019-2.385,2.472-2.385
		c1.549,0,2.444,0.957,2.444,2.48L357.223,63.239L357.223,63.239z M355.752,62.326c-0.078-0.427-0.469-0.705-0.896-0.705
		c-0.462,0-0.845,0.243-0.939,0.705H355.752z"/>
	<path fill="#FFFFFF" d="M362.67,63.239h-3.332c0,0.645,0.338,0.992,0.992,0.992c0.338,0,0.582-0.112,0.756-0.409h1.523
		c-0.252,1.053-1.254,1.532-2.271,1.532c-1.479,0-2.584-0.836-2.584-2.376c0-1.487,1.019-2.385,2.471-2.385
		c1.55,0,2.445,0.957,2.445,2.48V63.239L362.67,63.239z M361.2,62.326c-0.078-0.427-0.469-0.705-0.896-0.705
		c-0.461,0-0.844,0.243-0.938,0.705H361.2z"/>
	<path fill="#FFFFFF" d="M372.312,63.239h-3.331c0,0.645,0.34,0.992,0.991,0.992c0.34,0,0.584-0.112,0.759-0.409h1.521
		c-0.252,1.053-1.252,1.532-2.271,1.532c-1.479,0-2.585-0.836-2.585-2.376c0-1.487,1.019-2.385,2.474-2.385
		c1.547,0,2.442,0.957,2.442,2.48V63.239L372.312,63.239z M370.842,62.326c-0.078-0.427-0.469-0.705-0.895-0.705
		c-0.461,0-0.847,0.243-0.941,0.705H370.842z"/>
	<path fill="#FFFFFF" d="M366.723,62.194c-0.233-0.174-0.514-0.313-0.817-0.313c-0.609,0-1.088,0.471-1.088,1.088
		c0,0.646,0.461,1.099,1.112,1.099c0.279,0,0.584-0.113,0.793-0.305l0.402,1.116c-0.496,0.38-1.133,0.477-1.518,0.477
		c-1.322,0-2.429-0.983-2.429-2.333c0-1.438,1.099-2.429,2.498-2.429c0.367,0,1.064,0.161,1.457,0.498L366.723,62.194z"/>
</g>
<circle fill="none" stroke="#FFFFFF" stroke-width="1.2195" stroke-miterlimit="10" cx="360.212" cy="62.972" r="22.226"/>
</svg>
