<?xml version="1.0" encoding="utf-8"?>
<!-- Generator: Adobe Illustrator 16.0.0, SVG Export Plug-In . SVG Version: 6.00 Build 0)  -->
<!DOCTYPE svg PUBLIC "-//W3C//DTD SVG 1.1//EN" "http://www.w3.org/Graphics/SVG/1.1/DTD/svg11.dtd">
<svg version="1.1" id="Layer_1" xmlns="http://www.w3.org/2000/svg" xmlns:xlink="http://www.w3.org/1999/xlink" x="0px" y="0px"
	 width="30px" height="30px" viewBox="0 0 30 30" enable-background="new 0 0 30 30" xml:space="preserve">
<path fill="none" stroke="#FFFFFF" stroke-width="0.5" stroke-miterlimit="10" d="M9,0c0,2.499-2,2.499-2,4.998c0,2.5,2,2.5,2,4.999
	c0,2.498-2,2.498-2,4.996c0,2.5,2,2.5,2,5c0,2.501-2,2.501-2,5.003S9,27.498,9,30"/>
<path fill="none" stroke="#FFFFFF" stroke-width="0.5" stroke-miterlimit="10" d="M7,0c0,2.499-2,2.499-2,4.998c0,2.5,2,2.5,2,4.999
	c0,2.498-2,2.498-2,4.996c0,2.5,2,2.5,2,5c0,2.501-2,2.501-2,5.003S7,27.498,7,30"/>
<path fill="none" stroke="#FFFFFF" stroke-width="0.5" stroke-miterlimit="10" d="M24,0c0,2.499-2,2.499-2,4.998
	c0,2.5,2,2.5,2,4.999c0,2.498-2,2.498-2,4.996c0,2.5,2,2.5,2,5c0,2.501-2,2.501-2,5.003s2,2.502,2,5.004"/>
<path fill="none" stroke="#FFFFFF" stroke-width="0.5" stroke-miterlimit="10" d="M22,0c0,2.499-2,2.499-2,4.998
	c0,2.5,2,2.5,2,4.999c0,2.498-2,2.498-2,4.996c0,2.5,2,2.5,2,5c0,2.501-2,2.501-2,5.003s2,2.502,2,5.004"/>
</svg>
