<?xml version="1.0" encoding="utf-8"?>
<!-- Generator: Adobe Illustrator 16.0.0, SVG Export Plug-In . SVG Version: 6.00 Build 0)  -->
<!DOCTYPE svg PUBLIC "-//W3C//DTD SVG 1.1//EN" "http://www.w3.org/Graphics/SVG/1.1/DTD/svg11.dtd">
<svg version="1.1" id="Layer_1" xmlns="http://www.w3.org/2000/svg" xmlns:xlink="http://www.w3.org/1999/xlink" x="0px" y="0px"
	 width="148px" height="172px" viewBox="0 0 148 172" enable-background="new 0 0 148 172" xml:space="preserve">
<polyline fill="#083744" points="111.743,55.922 111.743,154.756 42.28,154.756 42.281,55.922 111.743,55.922 "/>
<path fill="#8E475B" d="M59.256,129.875h-4.934v-1.723c0-1.086-0.047-1.766-0.141-2.039s-0.316-0.41-0.668-0.41
	c-0.305,0-0.512,0.117-0.621,0.352s-0.164,0.836-0.164,1.805v9.105c0,0.852,0.055,1.412,0.164,1.682s0.328,0.404,0.656,0.404
	c0.359,0,0.604-0.152,0.732-0.457s0.193-0.898,0.193-1.781v-2.25h-0.996v-2.883h5.777v10.184h-3.101l-0.456-1.359
	c-0.336,0.586-0.76,1.025-1.272,1.318s-1.116,0.439-1.812,0.439c-0.829,0-1.605-0.201-2.328-0.604
	c-0.724-0.402-1.272-0.9-1.648-1.494s-0.61-1.217-0.704-1.869s-0.141-1.631-0.141-2.936v-5.637c0-1.812,0.098-3.129,0.293-3.949
	s0.756-1.572,1.682-2.256s2.123-1.025,3.592-1.025c1.445,0,2.645,0.297,3.598,0.891s1.574,1.299,1.863,2.115
	s0.434,2.002,0.434,3.557V129.875z"/>
<path fill="#20847F" d="M60.507,131.703v-2.064h5.836v2.064h-1.204v5.529c0,0.738,0.031,1.27,0.092,1.594
	c0.062,0.326,0.224,0.594,0.488,0.805s0.598,0.316,1.002,0.316c0.416,0,0.762-0.1,1.038-0.299s0.452-0.447,0.531-0.746
	s0.119-0.908,0.119-1.828v-5.371h-1.187v-2.064h4.869v2.064h-1.494v6.117c0,0.832-0.043,1.438-0.131,1.814
	c-0.088,0.379-0.291,0.754-0.607,1.125c-0.316,0.373-0.774,0.676-1.375,0.906s-1.291,0.348-2.07,0.348
	c-0.902,0-1.671-0.129-2.307-0.383c-0.636-0.256-1.109-0.594-1.419-1.016s-0.51-0.84-0.598-1.256s-0.132-1.125-0.132-2.127v-5.529
	H60.507z"/>
<path fill="#582B59" d="M75.064,129.74c0-1.719-0.181-1.879-2.04-1.9v-0.539h6.98v0.539c-1.859,0.021-2.04,0.182-2.04,1.9v9.684
	c0,1.68,0.32,1.9,2.36,1.9c3.561,0,4.861-0.621,6.662-3.781l0.5,0.061l-1.181,4.26H73.024v-0.539c1.859-0.021,2.04-0.18,2.04-1.9
	V129.74z"/>
<path fill="#644A75" d="M88.757,130.436h2.688v9.252h3.89v2.176h-6.578V130.436z"/>
<path fill="#7E8E73" d="M99.748,135.119l-4.345-10.393h4.465l1.92,6.359h0.048l1.968-6.359h4.32l-4.344,10.393v6.744h-4.032V135.119
	z"/>
<path fill="#675DC6" d="M50.82,97.83h-4.2v-3.809h13.104v3.809h-4.2v16.184H50.82V97.83z"/>
<path fill="#64872B" d="M61.348,94.021h7.896c4.004,0,5.377,2.465,5.377,5.209c0,2.912-1.177,4.34-3.36,4.871v0.057
	c2.995,0.42,3.163,2.297,3.22,4.984c0.084,3.947,0.225,4.34,0.896,4.619v0.252h-5.068c-0.364-0.672-0.504-1.791-0.504-4.059
	c0-3.473-0.477-4.201-1.96-4.201h-1.792v8.26h-4.704V94.021z M66.052,102.451h1.456c1.903,0,2.407-1.43,2.407-2.605
	c0-1.512-0.56-2.52-2.436-2.52h-1.428V102.451z"/>
<path fill="#0D7C8E" d="M80.228,101.977c0-3.953,0-4.682-0.052-5.514c-0.052-0.883-0.261-1.299-1.118-1.482
	c-0.208-0.051-0.65-0.076-1.014-0.076c-0.287,0-0.442-0.053-0.442-0.234s0.182-0.234,0.571-0.234c0.703,0,1.457,0.025,2.106,0.025
	c0.677,0.027,1.274,0.053,1.638,0.053c0.832,0,6.007,0,6.501-0.025c0.494-0.053,0.91-0.105,1.118-0.156
	c0.13-0.027,0.285-0.105,0.416-0.105c0.13,0,0.156,0.105,0.156,0.234c0,0.182-0.131,0.494-0.209,1.691
	c-0.025,0.26-0.078,1.402-0.129,1.715c-0.026,0.131-0.078,0.287-0.261,0.287c-0.182,0-0.233-0.131-0.233-0.365
	c0-0.182-0.026-0.623-0.156-0.936c-0.182-0.469-0.442-0.779-1.742-0.936c-0.442-0.053-3.172-0.105-3.692-0.105
	c-0.13,0-0.182,0.078-0.182,0.262v6.578c0,0.182,0.026,0.285,0.182,0.285c0.572,0,3.562,0,4.16-0.053
	c0.624-0.051,1.015-0.129,1.248-0.389c0.183-0.209,0.286-0.338,0.416-0.338c0.104,0,0.183,0.051,0.183,0.207
	s-0.104,0.572-0.209,1.898c-0.025,0.52-0.104,1.561-0.104,1.742c0,0.207,0,0.494-0.234,0.494c-0.182,0-0.233-0.104-0.233-0.234
	c-0.026-0.26-0.026-0.598-0.104-0.936c-0.13-0.52-0.494-0.91-1.456-1.014c-0.493-0.053-3.067-0.078-3.692-0.078
	c-0.129,0-0.155,0.104-0.155,0.26v2.055c0,0.883-0.026,3.275,0,4.029c0.052,1.795,0.468,2.184,3.12,2.184
	c0.676,0,1.768,0,2.443-0.312c0.677-0.311,0.988-0.857,1.17-1.924c0.053-0.285,0.104-0.389,0.287-0.389
	c0.207,0,0.207,0.207,0.207,0.467c0,0.598-0.207,2.367-0.338,2.887c-0.182,0.676-0.416,0.676-1.404,0.676
	c-1.949,0-3.379-0.053-4.498-0.078c-1.117-0.051-1.924-0.078-2.703-0.078c-0.287,0-0.858,0-1.482,0.027
	c-0.598,0-1.274,0.051-1.794,0.051c-0.339,0-0.521-0.078-0.521-0.26c0-0.131,0.104-0.207,0.416-0.207
	c0.391,0,0.702-0.053,0.937-0.105c0.52-0.104,0.649-0.676,0.754-1.43c0.13-1.092,0.13-3.146,0.13-5.537V101.977z"/>
<path fill="#076865" d="M95.867,107.182v0.924c0,2.354,0.336,3.5,1.651,3.5c1.177,0,1.541-0.867,1.652-2.771h4.2
	c-0.084,3.752-2.128,5.572-5.88,5.572c-5.712,0-6.16-4.004-6.16-8.512c0-4.256,1.232-7.42,6.16-7.42c5.628,0,6.02,3.555,6.02,8.707
	H95.867z M99.144,104.551c0-2.129-0.28-3.277-1.541-3.277c-1.483,0-1.735,1.232-1.735,3.277H99.144z"/>
<path fill="#076865" d="M49.012,72.837h12.389v4.08h-7.35v4.29h6.9v4.08h-6.9v8.969h-5.04V72.837z"/>
<path fill="#644A75" d="M70.509,74.261v7.999h-2.314v-2.886h-1.962v3.589h2.447v2.051h-2.447v3.896h1.962v-2.916H70.7v8.262h-8.233
	V88.91h0.967v-9.537h-0.967v-5.112H70.509z"/>
<path fill="#076865" d="M83.677,93.746c0.06,0.201-0.021,0.359-0.24,0.48c-0.101,0.061-0.195,0.08-0.285,0.061
	c-0.09-0.021-0.186-0.021-0.285,0c-0.08,0.02-0.154,0.039-0.225,0.059s-0.146,0.01-0.225-0.029
	c-0.121-0.041-0.236-0.045-0.346-0.016c-0.109,0.031-0.215,0.045-0.314,0.045c-0.101,0-0.191-0.01-0.271-0.029
	c-0.08-0.02-0.17-0.029-0.271-0.029c-0.1,0-0.189,0.004-0.27,0.014s-0.17,0.016-0.27,0.016c-0.141-0.02-0.285-0.035-0.436-0.045
	s-0.275-0.086-0.375-0.225c-0.04-0.061-0.07-0.131-0.09-0.211s-0.051-0.15-0.09-0.209c-0.021-0.041-0.03-0.109-0.03-0.211
	c0-0.08-0.011-0.135-0.03-0.164c-0.02-0.031-0.05-0.086-0.09-0.166c-0.06-0.18-0.109-0.369-0.15-0.57
	c-0.039-0.199-0.09-0.398-0.149-0.6c-0.04-0.1-0.065-0.189-0.075-0.27s-0.035-0.17-0.074-0.27c0-0.041-0.031-0.121-0.09-0.24
	c-0.061-0.121-0.041-0.189,0.059-0.211c-0.16-0.1-0.25-0.273-0.27-0.525c-0.02-0.248-0.06-0.443-0.119-0.584
	c-0.041-0.1-0.07-0.211-0.091-0.33s-0.05-0.24-0.09-0.359c-0.021-0.041-0.04-0.09-0.06-0.15c-0.021-0.061-0.041-0.109-0.061-0.15
	c-0.02-0.08-0.025-0.154-0.015-0.225c0.01-0.07-0.005-0.145-0.046-0.225c-0.059-0.1-0.094-0.205-0.104-0.316
	c-0.011-0.109-0.035-0.225-0.075-0.344c-0.02-0.061-0.045-0.115-0.074-0.166c-0.03-0.049-0.045-0.104-0.045-0.164
	c0.02-0.08,0.034-0.121,0.045-0.121c0.01,0-0.006-0.039-0.045-0.119c-0.16-0.199-0.24-0.42-0.24-0.66c0.02-0.1,0-0.211-0.061-0.33
	c-0.06-0.119-0.1-0.24-0.119-0.359c-0.08-0.18-0.236-0.295-0.465-0.346c-0.23-0.049-0.387,0.025-0.466,0.225
	c-0.101,0.24-0.13,0.48-0.09,0.721s0.05,0.48,0.03,0.721c-0.041,0.58-0.045,1.164-0.016,1.754c0.03,0.59,0.025,1.176-0.015,1.756
	c0,0.219,0.005,0.445,0.015,0.674c0.01,0.23,0.016,0.455,0.016,0.676c0.02,0.141,0.024,0.279,0.015,0.42
	c-0.011,0.141-0.015,0.279-0.015,0.42c-0.021,0.16-0.021,0.32,0,0.48c0.02,0.16,0.029,0.32,0.029,0.479
	c-0.02,0.182-0.14,0.342-0.359,0.48c-0.12,0.061-0.24,0.086-0.36,0.076c-0.12-0.012-0.25-0.025-0.39-0.045
	c-0.141,0-0.275,0.004-0.405,0.014s-0.265,0.016-0.405,0.016c-0.02,0-0.07,0.004-0.15,0.016c-0.08,0.01-0.129-0.006-0.149-0.045
	c-0.021-0.041-0.015-0.076,0.015-0.105c0.03-0.031,0.025-0.055-0.015-0.076c-0.12,0-0.18,0.041-0.18,0.121s-0.07,0.109-0.21,0.09
	c-0.16-0.02-0.311-0.025-0.45-0.016s-0.29,0.006-0.45-0.014c-0.32-0.041-0.48-0.211-0.48-0.512v-1.109
	c0-0.639,0.006-1.27,0.016-1.891c0.01-0.619,0.005-1.238-0.016-1.859c-0.02-0.139-0.029-0.273-0.029-0.404s-0.01-0.256-0.03-0.375
	c0.04,0,0.075,0.01,0.104,0.029c0.031,0.02,0.065,0.031,0.105,0.031c-0.02-0.121-0.064-0.23-0.135-0.33
	c-0.07-0.102-0.086-0.211-0.045-0.33c0.061,0.039,0.109,0.049,0.15,0.029c0.039-0.02,0.09-0.049,0.149-0.09
	c-0.021-0.1-0.06-0.131-0.12-0.09c-0.06,0.039-0.119,0.049-0.18,0.029c0.039-0.16,0.055-0.305,0.045-0.436
	c-0.01-0.129-0.025-0.264-0.045-0.404c0-0.119,0.01-0.225,0.029-0.314c0.021-0.09,0.021-0.195,0-0.314
	c-0.06-0.301-0.074-0.611-0.045-0.932c0.031-0.318,0.035-0.639,0.016-0.959c0-0.121,0.01-0.24,0.029-0.359
	c0.021-0.121,0.021-0.25,0-0.391c-0.02-0.121-0.035-0.24-0.045-0.359c-0.01-0.121,0.006-0.24,0.045-0.361
	c0.021-0.02,0.051-0.055,0.091-0.105c0.04-0.049,0.04-0.094,0-0.135c-0.021-0.02-0.04-0.029-0.06-0.029
	c-0.021,0-0.031-0.02-0.031-0.061c0.021-0.199,0.031-0.389,0.031-0.57c0-0.18,0-0.359,0-0.539c-0.021-0.32-0.035-0.635-0.045-0.945
	c-0.012-0.31-0.016-0.625-0.016-0.945c0-0.12,0.016-0.245,0.045-0.375s0.025-0.255-0.016-0.375c0-0.06-0.014-0.125-0.045-0.195
	c-0.029-0.069-0.025-0.124,0.016-0.165c0.039-0.1,0.064-0.165,0.074-0.194c0.011-0.03,0.006-0.095-0.014-0.195
	c-0.041-0.24-0.051-0.48-0.031-0.72c0.021-0.24,0.021-0.49,0-0.75c0-0.14-0.004-0.28-0.014-0.42c-0.012-0.14-0.006-0.29,0.014-0.45
	c0-0.16-0.01-0.32-0.029-0.48c-0.02-0.159-0.02-0.319,0-0.479c0-0.16,0.01-0.295,0.029-0.405c0.021-0.109,0.021-0.244,0-0.405
	c-0.02-0.159-0.02-0.289,0-0.39c0.021-0.1,0.051-0.229,0.091-0.39c0.04-0.12,0.1-0.2,0.18-0.24c0.079-0.04,0.175-0.061,0.285-0.061
	s0.215,0.006,0.315,0.016c0.1,0.01,0.199,0.005,0.299-0.016c0.24-0.039,0.496-0.049,0.766-0.029s0.535,0.04,0.795,0.06
	c0.12,0,0.21-0.02,0.27-0.06c0.061,0.02,0.125,0.029,0.195,0.029s0.135,0,0.195,0c0.16,0,0.32-0.004,0.48-0.015
	c0.159-0.01,0.319-0.005,0.479,0.015c0.079,0,0.149,0.006,0.21,0.016s0.13,0.025,0.21,0.045c0.12-0.061,0.25-0.07,0.39-0.03
	c0.16,0,0.295,0,0.405,0s0.245-0.02,0.405-0.06c0.039,0,0.135,0.01,0.285,0.029c0.15,0.021,0.225,0.051,0.225,0.091
	c0.04,0,0.07-0.016,0.09-0.045c0.02-0.03,0.061-0.046,0.12-0.046c0.101,0.041,0.195,0.07,0.285,0.091
	c0.09,0.02,0.185,0.05,0.285,0.09c0.159,0.04,0.305,0.08,0.435,0.12c0.131,0.04,0.275,0.08,0.436,0.12
	c0.1,0.04,0.18,0.095,0.24,0.164c0.06,0.07,0.149,0.096,0.27,0.075c0.1,0.08,0.199,0.16,0.3,0.24s0.21,0.141,0.33,0.18
	c0.101,0.101,0.19,0.21,0.271,0.33c0.079,0.12,0.17,0.23,0.27,0.33c0.16,0.2,0.289,0.41,0.391,0.63
	c0.039,0.101,0.084,0.195,0.135,0.285c0.049,0.09,0.094,0.186,0.135,0.285c0.1,0.221,0.16,0.431,0.18,0.63
	c0.02,0.2,0.05,0.41,0.09,0.63c0.02,0.08,0.04,0.141,0.061,0.181c0.02,0.04,0.029,0.1,0.029,0.18c0,0.18,0.01,0.32,0.031,0.42
	c0.02,0.14,0.023,0.275,0.014,0.405s-0.014,0.265-0.014,0.404c0,0.08,0.014,0.131,0.045,0.15c0.029,0.021,0.024,0.07-0.016,0.15
	c-0.02,0.06-0.025,0.119-0.016,0.18c0.01,0.06,0.016,0.12,0.016,0.18c0.02,0.181,0.035,0.351,0.045,0.51
	c0.01,0.161-0.005,0.33-0.045,0.511c-0.02,0.119-0.02,0.26,0,0.42s0.01,0.289-0.029,0.389c-0.041,0.102-0.051,0.201-0.031,0.301
	s-0.01,0.189-0.09,0.27c0.04,0.26,0.005,0.5-0.104,0.721c-0.11,0.221-0.175,0.459-0.195,0.719c-0.08,0.102-0.146,0.191-0.194,0.271
	c-0.051,0.08-0.086,0.17-0.105,0.27c-0.1,0.1-0.19,0.205-0.27,0.314c-0.08,0.111-0.17,0.215-0.271,0.314
	c-0.08,0.082-0.165,0.156-0.255,0.227s-0.176,0.135-0.255,0.195c-0.101,0.08-0.2,0.148-0.3,0.209
	c-0.101,0.061-0.201,0.08-0.301,0.061c0.04,0.08,0.045,0.154,0.016,0.225c-0.03,0.07-0.035,0.154-0.016,0.256
	c0,0.08,0.02,0.17,0.061,0.27c0.039,0.1,0.07,0.189,0.09,0.27c0.04,0.18,0.09,0.35,0.15,0.51c0.06,0.16,0.109,0.32,0.149,0.48
	c0.101,0.34,0.2,0.654,0.3,0.945c0.1,0.289,0.2,0.596,0.301,0.914c0.1,0.32,0.189,0.641,0.27,0.961s0.17,0.65,0.27,0.99
	c0.061,0.16,0.105,0.334,0.136,0.523c0.03,0.191,0.095,0.365,0.194,0.525c0.1,0.201,0.155,0.41,0.166,0.631
	c0.01,0.221,0.074,0.42,0.194,0.6c-0.021,0.119,0.021,0.23,0.12,0.33c0.04,0.1,0.064,0.199,0.075,0.301
	C83.611,93.547,83.636,93.646,83.677,93.746z M72.906,85.736c-0.021,0.02-0.025,0.051-0.015,0.09
	c0.01,0.041,0.045,0.051,0.105,0.029C72.997,85.816,72.966,85.777,72.906,85.736z M73.087,76.586c-0.08-0.08-0.121-0.07-0.121,0.03
	C73.007,76.657,73.046,76.646,73.087,76.586z M73.206,87.867c0.04-0.102,0.08-0.125,0.12-0.076c0.04,0.051,0.091,0.035,0.15-0.045
	c-0.04-0.039-0.07-0.08-0.091-0.119c-0.02-0.041-0.06-0.061-0.119-0.061c0,0.041-0.006,0.07-0.016,0.09s-0.015,0.051-0.015,0.09
	c-0.12,0.041-0.21,0.111-0.271,0.211c0.08,0,0.136,0.014,0.166,0.045C73.161,88.031,73.187,87.986,73.206,87.867z M73.026,77.936
	c0.04,0.021,0.061,0.006,0.061-0.045c0-0.05-0.021-0.064-0.061-0.045V77.936z M73.056,82.646c0.041,0.02,0.061,0.02,0.061,0
	s0.02-0.029,0.061-0.029c0.02-0.08,0-0.111-0.061-0.092C73.056,82.547,73.036,82.586,73.056,82.646z M73.087,84.447
	c0.06,0,0.074-0.021,0.045-0.061C73.102,84.346,73.087,84.367,73.087,84.447z M73.296,80.486c-0.08-0.02-0.135-0.01-0.164,0.029
	c-0.03,0.041-0.025,0.08,0.015,0.121c0.04-0.02,0.075-0.035,0.104-0.045C73.281,80.582,73.296,80.547,73.296,80.486z M73.116,83.605
	c0.1,0.041,0.154,0,0.165-0.119c0.01-0.119-0.045-0.18-0.165-0.18c0.02,0.061,0.035,0.109,0.045,0.15
	C73.171,83.496,73.156,83.547,73.116,83.605z M73.116,88.525l0.061,0.061c0-0.039-0.011-0.074-0.03-0.105
	C73.126,88.451,73.116,88.467,73.116,88.525z M73.236,86.066c0.04,0.02,0.06,0,0.06-0.061c0-0.059-0.02-0.07-0.06-0.029V86.066z
	 M73.326,74.936l0.06,0.03c0-0.06-0.02-0.09-0.06-0.09V74.936z M73.386,84.775c-0.039,0-0.06,0.012-0.06,0.031
	c0.021,0,0.024,0.01,0.015,0.029c-0.01,0.021,0.006,0.031,0.045,0.031V84.775z M73.446,81.297c0.02-0.02,0.025-0.051,0.016-0.09
	c-0.011-0.041-0.035-0.051-0.076-0.031c0.021,0.021,0.031,0.041,0.031,0.061S73.427,81.277,73.446,81.297z M73.566,83.516
	c-0.12,0.041-0.181,0.09-0.181,0.15c0.061,0.02,0.101,0.025,0.121,0.016C73.526,83.672,73.546,83.617,73.566,83.516z M73.477,88.736
	c0-0.061-0.03-0.09-0.091-0.09v0.09H73.477z M73.477,83.816c0-0.02-0.021,0.01-0.06,0.09c0.039,0.041,0.074,0.035,0.104-0.016
	C73.552,83.842,73.536,83.816,73.477,83.816z M73.446,84.297h0.12c0-0.041-0.04-0.08-0.12-0.121V84.297z M73.776,81.775
	c0.061-0.059,0.075-0.109,0.045-0.148c-0.029-0.041-0.074-0.061-0.135-0.061s-0.11,0.016-0.15,0.045s-0.04,0.096,0,0.195
	c0.04,0.02,0.064,0.02,0.075,0c0.01-0.02,0.034-0.031,0.075-0.031c0.039,0.082,0.035,0.137-0.016,0.166
	c-0.05,0.029-0.074,0.074-0.074,0.135c0.08,0.02,0.16-0.02,0.24-0.119c0.06-0.08,0.069-0.111,0.029-0.09
	C73.826,81.887,73.796,81.857,73.776,81.775z M73.536,82.406c-0.02,0.041-0.01,0.051,0.03,0.029c0.04-0.02,0.06-0.039,0.06-0.059
	h-0.06C73.546,82.377,73.536,82.387,73.536,82.406z M73.656,85.496c0.04-0.1,0.056-0.154,0.045-0.164s-0.065-0.016-0.165-0.016
	C73.556,85.377,73.597,85.436,73.656,85.496z M73.716,86.516c-0.039-0.1-0.064-0.129-0.074-0.09c-0.011,0.041-0.045,0.07-0.105,0.09
	c0.04,0.041,0.055,0.111,0.045,0.211s0.035,0.141,0.135,0.119C73.757,86.707,73.757,86.596,73.716,86.516z M73.566,88.197
	c0.02,0,0.05-0.021,0.09-0.061C73.576,88.137,73.546,88.156,73.566,88.197z M73.566,84.656c0.079,0,0.12-0.039,0.12-0.119
	C73.606,84.537,73.566,84.576,73.566,84.656z M74.046,85.287c0,0.1-0.025,0.164-0.074,0.193c-0.051,0.031-0.105,0.051-0.166,0.061
	c-0.059,0.01-0.115,0.025-0.164,0.045c-0.051,0.021-0.075,0.061-0.075,0.121c0,0.059,0.03,0.1,0.09,0.119s0.11,0.01,0.149-0.029
	c0.08-0.041,0.121-0.08,0.121-0.121c0.039-0.02,0.069-0.02,0.09,0c0.02,0.021,0.049,0.031,0.09,0.031
	c0.039-0.1,0.064-0.205,0.074-0.316c0.011-0.109,0.035-0.215,0.076-0.314l-0.301-0.301c-0.119,0-0.154,0.082-0.104,0.24
	C73.901,85.176,73.966,85.268,74.046,85.287z M73.806,84.926c-0.039-0.039-0.09-0.059-0.149-0.059s-0.08,0.039-0.06,0.119
	c0.039,0.041,0.084,0.051,0.135,0.029C73.781,84.996,73.806,84.967,73.806,84.926z M73.656,83.396
	c0.04-0.039,0.056-0.086,0.045-0.135c-0.011-0.051-0.045-0.064-0.104-0.045C73.597,83.357,73.616,83.416,73.656,83.396z
	 M73.687,88.887c0.039-0.02,0.055-0.055,0.045-0.105c-0.01-0.049-0.035-0.055-0.075-0.016c0,0.021-0.005,0.051-0.015,0.09
	C73.631,88.896,73.646,88.906,73.687,88.887z M73.866,81.057c-0.16,0-0.23,0.051-0.21,0.15c0.04,0.039,0.085,0.039,0.136,0
	C73.841,81.166,73.866,81.117,73.866,81.057z M73.656,86.217c0.04,0.039,0.091,0.049,0.149,0.029
	c0.061-0.02,0.101-0.061,0.121-0.119C73.767,86.127,73.677,86.156,73.656,86.217z M73.866,87.746c0.04-0.02,0.02-0.039-0.061-0.061
	c-0.08-0.02-0.119,0.021-0.119,0.121c0.061,0.039,0.095,0.051,0.105,0.029C73.802,87.816,73.826,87.787,73.866,87.746z
	 M73.896,82.676c0.06,0.041,0.085,0.076,0.075,0.105c-0.011,0.029-0.035,0.064-0.075,0.105c-0.04,0.039-0.08,0.074-0.12,0.105
	c-0.041,0.029-0.051,0.064-0.029,0.104c0.079,0.021,0.129-0.004,0.149-0.074c0.02-0.07,0.079-0.096,0.18-0.074
	c0.101,0.039,0.175,0.059,0.226,0.059c0.049,0,0.084-0.049,0.104-0.15c-0.06,0-0.125,0.016-0.194,0.045
	c-0.07,0.031-0.096-0.004-0.076-0.104c0.101-0.061,0.131-0.145,0.091-0.256c-0.04-0.109-0.03-0.205,0.03-0.285
	c0.06,0.041,0.104,0.051,0.135,0.031c0.029-0.02,0.015-0.061-0.045-0.121c-0.041-0.061-0.011-0.125,0.09-0.195
	c0.1-0.068,0.14-0.055,0.119,0.045c0.061-0.02,0.121-0.045,0.181-0.074s0.09-0.074,0.09-0.135c0-0.041,0-0.086,0-0.135
	c0-0.051-0.03-0.064-0.09-0.045c-0.021,0.039-0.03,0.094-0.03,0.164s-0.029,0.105-0.09,0.105c-0.02-0.1-0.074-0.154-0.165-0.166
	c-0.09-0.01-0.155-0.045-0.194-0.104c-0.041,0.039-0.045,0.07-0.016,0.09c0.03,0.02,0.045,0.049,0.045,0.09
	c-0.1,0.061-0.16,0.1-0.18,0.119c-0.02,0.061-0.065,0.115-0.135,0.166c-0.07,0.049-0.096,0.125-0.075,0.225
	c0.1-0.02,0.159,0.029,0.18,0.15c0.021,0.119,0.03,0.221,0.03,0.299c-0.041,0-0.075-0.023-0.105-0.074
	C73.972,82.643,73.937,82.637,73.896,82.676z M73.866,77.367c0-0.061-0.01-0.085-0.029-0.075c-0.021,0.01-0.051,0.015-0.09,0.015
	c0,0.061,0.01,0.08,0.029,0.061C73.796,77.346,73.826,77.346,73.866,77.367z M74.136,81.326c-0.08,0-0.145,0.016-0.194,0.045
	s-0.104,0.045-0.165,0.045c0,0.02,0.005,0.035,0.016,0.045c0.01,0.01,0.014,0.025,0.014,0.045c0.061-0.02,0.121-0.039,0.181-0.059
	C74.046,81.426,74.097,81.387,74.136,81.326z M73.837,84.057c-0.041,0.02-0.061,0.045-0.061,0.074c0,0.031,0.02,0.057,0.061,0.076
	c0.02-0.02,0.034-0.045,0.045-0.076C73.892,84.102,73.876,84.076,73.837,84.057z M73.837,84.416
	c-0.061,0.041-0.041,0.111,0.06,0.211c0.04-0.041,0.09-0.07,0.149-0.09c0.061-0.02,0.1-0.061,0.121-0.121
	C74.026,84.457,73.916,84.457,73.837,84.416z M73.927,79.526h-0.121v0.061c0.021,0.04,0.046,0.05,0.076,0.03
	C73.911,79.596,73.927,79.567,73.927,79.526z M73.837,78.987c0,0.04,0.01,0.06,0.029,0.06c0.061,0,0.08-0.03,0.061-0.09
	C73.886,78.957,73.856,78.966,73.837,78.987z M73.986,80.367c0,0.08-0.025,0.148-0.075,0.209s-0.055,0.121-0.015,0.18
	c0.12,0,0.19-0.055,0.21-0.164S74.087,80.406,73.986,80.367z M73.896,80.967c0.1,0.039,0.13,0.01,0.09-0.09
	C73.927,80.877,73.896,80.906,73.896,80.967z M73.927,75.386c0,0.061,0.024,0.101,0.074,0.12c0.051,0.021,0.075,0.06,0.075,0.12
	c0,0.101-0.035,0.185-0.104,0.255c-0.07,0.07-0.045,0.125,0.074,0.165c0.1,0.021,0.17,0.13,0.211,0.33v0.21
	c0.1,0,0.159-0.04,0.18-0.12c-0.021-0.04-0.045-0.06-0.075-0.06s-0.056-0.021-0.075-0.061c0.08-0.04,0.13-0.12,0.15-0.24
	c-0.08,0-0.15-0.034-0.21-0.104s-0.06-0.135,0-0.195c0.02-0.02,0.069-0.064,0.149-0.135s0.07-0.125-0.029-0.165
	c-0.041,0.021-0.056,0.045-0.045,0.075c0.01,0.03-0.006,0.065-0.045,0.104C74.156,75.566,74.046,75.466,73.927,75.386z
	 M73.927,81.867c0.06,0,0.09-0.031,0.09-0.092C73.956,81.775,73.927,81.807,73.927,81.867z M74.106,85.797
	c-0.041,0.02-0.08,0.025-0.12,0.014c-0.04-0.01-0.06,0.006-0.06,0.045c0.119,0.121,0.24,0.102,0.359-0.059
	c0.04-0.041,0.07-0.09,0.09-0.15s-0.02-0.08-0.119-0.061C74.236,85.707,74.187,85.777,74.106,85.797z M73.986,86.486
	c-0.021,0.061-0.011,0.09,0.03,0.09c0.039,0,0.08-0.004,0.119-0.016c0.041-0.01,0.07-0.029,0.091-0.059
	c0.02-0.031,0.01-0.064-0.03-0.105c-0.02,0.041-0.051,0.055-0.09,0.045C74.065,86.432,74.026,86.447,73.986,86.486z M74.106,86.246
	c0-0.061-0.016-0.09-0.045-0.09c-0.03,0-0.056,0.02-0.075,0.061C74.006,86.236,74.046,86.246,74.106,86.246z M74.106,91.137
	c0,0.039-0.016,0.061-0.045,0.061c-0.03,0-0.056,0.02-0.075,0.059c0.04,0.041,0.085,0.031,0.136-0.029
	C74.171,91.166,74.167,91.137,74.106,91.137z M74.227,80.066c-0.081-0.039-0.146-0.039-0.195,0c-0.05,0.041-0.056,0.1-0.015,0.18
	C74.156,80.246,74.227,80.186,74.227,80.066z M74.046,83.307c-0.04,0.061-0.05,0.109-0.029,0.15c0.08,0.039,0.119,0.02,0.119-0.061
	S74.106,83.287,74.046,83.307z M74.017,81.057c0.02,0.061,0.06,0.109,0.119,0.15c0.061,0.039,0.121,0.039,0.181,0
	c-0.021-0.041-0.05-0.08-0.09-0.121C74.167,81.025,74.097,81.016,74.017,81.057z M74.017,94.047c0.02,0.039,0.049,0.08,0.09,0.119
	c0.039,0.041,0.07,0.031,0.09-0.029c-0.04-0.02-0.064-0.041-0.074-0.061C74.11,94.057,74.076,94.047,74.017,94.047z M74.046,81.656
	c-0.02,0.08-0.01,0.1,0.03,0.061C74.116,81.676,74.106,81.656,74.046,81.656z M74.136,77.606c-0.06,0-0.09,0.021-0.09,0.061
	C74.065,77.667,74.097,77.647,74.136,77.606z M74.046,86.787c0.041,0,0.064-0.01,0.076-0.031c0.01-0.02-0.006-0.039-0.046-0.059
	C74.056,86.717,74.046,86.746,74.046,86.787z M74.106,87.266c0.1,0,0.12-0.023,0.061-0.074
	C74.106,87.143,74.087,87.166,74.106,87.266z M74.196,86.066c0.02-0.039,0-0.061-0.061-0.061
	C74.136,86.066,74.156,86.086,74.196,86.066z M74.316,87.896c0-0.061-0.021-0.096-0.06-0.105c-0.041-0.01-0.08-0.025-0.121-0.045
	v0.15H74.316z M74.257,89.037c0.02-0.041,0.015-0.07-0.016-0.09c-0.029-0.021-0.055-0.012-0.074,0.029
	C74.126,89.076,74.156,89.096,74.257,89.037z M74.227,79.436c0.079-0.12,0.06-0.159-0.06-0.12
	C74.146,79.397,74.167,79.436,74.227,79.436z M74.167,87.477c0.1,0.1,0.219,0.15,0.359,0.15l-0.21-0.24
	c0.02,0.039-0.005,0.049-0.075,0.029S74.146,87.416,74.167,87.477z M74.196,79.586c-0.04,0.06-0.025,0.08,0.045,0.06
	C74.312,79.626,74.296,79.607,74.196,79.586z M74.437,78.867c-0.041-0.04-0.096-0.061-0.165-0.061c-0.07,0-0.095,0.04-0.075,0.12
	C74.336,78.926,74.416,78.907,74.437,78.867z M74.196,77.216c0.061,0,0.075-0.015,0.045-0.045
	C74.212,77.141,74.196,77.157,74.196,77.216z M74.316,77.516c0-0.079-0.04-0.109-0.12-0.09
	C74.196,77.487,74.236,77.516,74.316,77.516z M74.316,80.426c0.04-0.02,0.045-0.049,0.015-0.09c-0.029-0.039-0.074-0.039-0.135,0
	C74.196,80.416,74.236,80.447,74.316,80.426z M74.196,81.506c0,0.041,0.02,0.061,0.061,0.061c0.039,0,0.049-0.02,0.029-0.061h-0.029
	H74.196z M74.196,83.217c0.061,0.059,0.09,0.049,0.09-0.031C74.227,83.127,74.196,83.137,74.196,83.217z M74.257,84.025
	c0-0.059-0.021-0.09-0.061-0.09v0.09H74.257z M74.196,90.117c0.04,0.059,0.08,0.059,0.12,0c0.04-0.061,0.03-0.102-0.03-0.121
	c0,0.041-0.015,0.061-0.045,0.061C74.212,90.057,74.196,90.076,74.196,90.117z M74.227,84.627c0.12-0.02,0.159-0.006,0.12,0.045
	c-0.041,0.049-0.041,0.094,0,0.135c0.06-0.061,0.115-0.115,0.164-0.166c0.051-0.049,0.125-0.055,0.226-0.014
	c0.02-0.061,0.01-0.096-0.03-0.105s-0.05-0.035-0.029-0.074c0.06-0.021,0.139-0.021,0.24,0c0.1,0.02,0.139-0.021,0.119-0.121
	c-0.1-0.02-0.195-0.029-0.285-0.029s-0.185-0.01-0.285-0.031c-0.039,0.041-0.039,0.07,0,0.09c0.041,0.021,0.051,0.051,0.031,0.092
	c-0.021,0.059-0.061,0.094-0.121,0.104C74.316,84.562,74.267,84.586,74.227,84.627z M74.257,80.547c0,0.119,0.049,0.15,0.149,0.09
	C74.406,80.576,74.356,80.547,74.257,80.547z M74.347,83.217c0.02,0.039,0.015,0.09-0.016,0.15
	c-0.029,0.059-0.025,0.109,0.016,0.148c0.1,0,0.145-0.049,0.135-0.148C74.472,83.266,74.427,83.217,74.347,83.217z M74.437,79.617
	c-0.08,0-0.12,0.05-0.12,0.149c0.04,0,0.064-0.015,0.075-0.045C74.401,79.691,74.416,79.657,74.437,79.617z M74.316,79.947
	c0.02,0.059,0.055,0.116,0.104,0.165c0.051,0.051,0.105,0.055,0.166,0.016c-0.041-0.041-0.076-0.08-0.105-0.121
	C74.451,79.966,74.396,79.947,74.316,79.947z M74.376,85.197c-0.04,0.039-0.029,0.064,0.03,0.074s0.079-0.004,0.06-0.045
	C74.466,85.207,74.437,85.197,74.376,85.197z M74.376,84.986c-0.02,0.041,0,0.07,0.061,0.09s0.09,0,0.09-0.061
	C74.526,84.938,74.476,84.926,74.376,84.986z M74.466,86.936c0-0.059-0.004-0.078-0.015-0.059s-0.035,0.02-0.075,0
	c0,0.08,0.01,0.109,0.03,0.09S74.446,86.936,74.466,86.936z M74.497,76.046c0.02-0.08,0.014-0.115-0.016-0.105
	c-0.03,0.011-0.055,0.016-0.075,0.016C74.406,76.016,74.437,76.046,74.497,76.046z M74.437,77.966
	c-0.021,0.04-0.01,0.056,0.029,0.045c0.041-0.01,0.051-0.024,0.031-0.045c0-0.02-0.012-0.034-0.031-0.045
	C74.446,77.912,74.437,77.926,74.437,77.966z M74.616,78.386c-0.061-0.06-0.119-0.06-0.18,0c-0.021,0.061,0.004,0.085,0.074,0.075
	S74.616,78.426,74.616,78.386z M74.466,83.996h0.061c0-0.039-0.02-0.061-0.061-0.061V83.996z M74.856,85.707
	c-0.02-0.061,0.016-0.105,0.105-0.135c0.09-0.031,0.154-0.066,0.194-0.105c0.079-0.1,0.095-0.17,0.045-0.211
	c-0.05-0.039-0.115-0.07-0.194-0.09c-0.041,0.061-0.07,0.121-0.09,0.18c-0.021,0.061-0.061,0.111-0.121,0.15
	c-0.06,0.041-0.125,0.07-0.194,0.09c-0.07,0.021-0.116,0.07-0.136,0.15c0.041,0.041,0.086,0.045,0.136,0.016
	c0.05-0.031,0.095-0.035,0.135-0.016c0.04,0.061,0.069,0.125,0.09,0.195s0.011,0.145-0.03,0.225c0.1,0.02,0.146,0.006,0.135-0.045
	c-0.01-0.049-0.004-0.105,0.016-0.164c0-0.041,0.03-0.047,0.09-0.016c0.061,0.029,0.109,0.045,0.15,0.045
	c0-0.02,0.01-0.105,0.029-0.256c0.02-0.148-0.02-0.174-0.119-0.074c-0.041,0.041-0.08,0.074-0.12,0.105
	C74.937,85.781,74.896,85.766,74.856,85.707z M74.466,86.605c0.041,0.041,0.096,0.111,0.166,0.211c0.069,0.1,0.135,0.09,0.194-0.029
	c-0.04-0.041-0.08-0.055-0.12-0.045s-0.04-0.025,0-0.105c0.04-0.1,0.016-0.141-0.074-0.121
	C74.542,86.537,74.485,86.566,74.466,86.605z M74.646,89.127c-0.04-0.02-0.101-0.031-0.181-0.031
	c0.02,0.021,0.031,0.061,0.031,0.121C74.556,89.217,74.606,89.186,74.646,89.127z M74.466,89.576c0.02,0.041,0.041,0.07,0.061,0.09
	c0.04,0.061,0.07,0.08,0.09,0.061s0.05-0.07,0.09-0.15s0.061-0.15,0.061-0.209c-0.061,0.02-0.101,0.064-0.12,0.135
	C74.626,89.572,74.566,89.596,74.466,89.576z M74.677,73.976c-0.021-0.02-0.056-0.029-0.105-0.029c-0.051,0-0.074,0.02-0.074,0.06
	c0.039,0,0.069,0.015,0.09,0.045C74.606,74.082,74.636,74.056,74.677,73.976z M74.497,81.596c0.039,0.121,0.074,0.135,0.104,0.045
	S74.597,81.537,74.497,81.596z M74.886,82.197c0-0.021-0.055-0.041-0.164-0.061c-0.11-0.02-0.186-0.02-0.225,0
	c0,0.039,0.02,0.074,0.059,0.105c0.041,0.029,0.08,0.035,0.121,0.014c0.079-0.039,0.114-0.02,0.104,0.061
	c-0.011,0.08,0.005,0.141,0.045,0.18c0.08,0,0.115-0.039,0.104-0.119C74.921,82.297,74.906,82.236,74.886,82.197z M74.556,82.557
	c-0.039,0.039-0.059,0.1-0.059,0.18s0.049,0.109,0.149,0.09c0-0.061-0.011-0.109-0.03-0.15
	C74.597,82.637,74.576,82.596,74.556,82.557z M74.556,83.787c-0.02,0.059,0.006,0.084,0.076,0.074
	c0.069-0.01,0.094-0.045,0.074-0.105C74.626,83.756,74.576,83.768,74.556,83.787z M74.736,78.596c-0.021-0.1-0.056-0.12-0.104-0.06
	c-0.051,0.06-0.076,0.12-0.076,0.18c0.08-0.02,0.16,0.011,0.24,0.09c0.08,0.08,0.15,0.07,0.211-0.03
	c-0.08-0.039-0.135-0.06-0.166-0.06C74.812,78.716,74.776,78.676,74.736,78.596z M75.546,87.146c-0.04,0.02-0.074,0.016-0.104-0.016
	c-0.03-0.029-0.075-0.045-0.136-0.045c0,0.041,0.011,0.07,0.031,0.09c0.02,0.021,0.029,0.051,0.029,0.09
	c-0.04,0.021-0.064,0.045-0.074,0.076c-0.011,0.029-0.035,0.045-0.076,0.045c-0.039,0.02-0.064,0.014-0.074-0.016
	c-0.011-0.029-0.025-0.045-0.045-0.045c-0.021,0.02-0.03,0.041-0.03,0.061s0.01,0.039,0.03,0.061
	c0.08,0.039,0.094,0.074,0.045,0.104c-0.051,0.031-0.096,0.057-0.135,0.076c-0.041,0.02-0.086,0.035-0.135,0.045
	c-0.051,0.01-0.096,0.035-0.136,0.074c-0.021,0.02-0.04,0.061-0.06,0.121c-0.021,0.059-0.041,0.09-0.061,0.09
	c0.08,0.039,0.09,0.09,0.03,0.148c-0.06,0.061-0.08,0.111-0.06,0.15c0.06,0,0.1-0.014,0.119-0.045c0.02-0.029,0.05-0.064,0.09-0.105
	c0.061-0.1,0.07-0.148,0.03-0.148s-0.06-0.031-0.06-0.09c0.06-0.021,0.129-0.061,0.21-0.121c0.079-0.061,0.14-0.039,0.18,0.061
	c-0.04,0.039-0.085,0.09-0.135,0.15c-0.05,0.059-0.056,0.119-0.015,0.18c0.039-0.061,0.114-0.096,0.225-0.105
	c0.109-0.01,0.185,0.016,0.225,0.074c0.061,0.102,0.035,0.131-0.074,0.092c-0.111-0.041-0.176-0.041-0.195,0
	c0.061,0.039,0.109,0.08,0.15,0.119c0.039,0.041,0.109,0.051,0.209,0.029c-0.04,0.041-0.05,0.09-0.029,0.15
	c0.119,0.02,0.154-0.039,0.105-0.18c-0.051-0.141-0.057-0.25-0.016-0.33c-0.101,0-0.16-0.029-0.18-0.09
	c-0.021-0.061-0.061-0.1-0.121-0.121c-0.059,0-0.084-0.029-0.074-0.09c0.01-0.059,0.039-0.123,0.09-0.193
	c0.05-0.07,0.1-0.141,0.15-0.211C75.521,87.211,75.546,87.166,75.546,87.146z M74.587,75.626c0.039,0.06,0.104,0.125,0.194,0.195
	c0.091,0.07,0.165,0.064,0.226-0.016c-0.101,0-0.176-0.04-0.226-0.12C74.731,75.607,74.666,75.586,74.587,75.626z M74.587,79.167
	c0,0.06,0.049,0.11,0.149,0.149c0.02-0.039,0.02-0.069,0-0.09c-0.021-0.02-0.021-0.05,0-0.09c0.04,0.04,0.085,0.05,0.136,0.03
	c0.049-0.02,0.074-0.061,0.074-0.12c-0.061-0.02-0.125-0.03-0.195-0.03S74.626,79.067,74.587,79.167z M74.706,86.486
	c0.02-0.02,0.025-0.049,0.016-0.09c-0.011-0.039-0.035-0.061-0.075-0.061C74.587,86.396,74.606,86.447,74.706,86.486z
	 M74.616,83.457c0.061,0.08,0.14,0.125,0.24,0.135c0.1,0.01,0.199,0.025,0.3,0.045c0-0.1-0.025-0.15-0.075-0.15
	s-0.095-0.049-0.135-0.15c-0.04-0.1-0.096-0.115-0.165-0.045C74.711,83.361,74.656,83.416,74.616,83.457z M74.706,87.326
	c0.04-0.1,0.01-0.15-0.09-0.15C74.616,87.277,74.646,87.326,74.706,87.326z M74.706,90.926c0-0.039,0-0.074,0-0.104
	c0-0.031-0.02-0.076-0.06-0.137c0,0.041-0.005,0.086-0.015,0.137C74.621,90.871,74.646,90.906,74.706,90.926z M75.036,79.976
	c0.04,0,0.095-0.005,0.165-0.015c0.069-0.01,0.104-0.055,0.104-0.135s-0.055-0.11-0.164-0.09c-0.11,0.02-0.186,0.05-0.225,0.09
	c-0.041-0.04-0.051-0.085-0.031-0.136c0.021-0.049,0.01-0.095-0.029-0.135c-0.16-0.04-0.23,0.011-0.21,0.15
	c0.079,0,0.109,0.015,0.09,0.045c-0.021,0.03-0.011,0.065,0.03,0.104c0.06,0.061,0.094,0.096,0.105,0.105
	C74.882,79.971,74.937,79.976,75.036,79.976z M74.646,80.217c0.04,0,0.095,0.004,0.165,0.014c0.07,0.012,0.064-0.023-0.016-0.104
	C74.696,80.127,74.646,80.156,74.646,80.217z M74.677,78.237c-0.041,0.08-0.03,0.115,0.029,0.104c0.061-0.01,0.08-0.045,0.061-0.104
	H74.677z M74.706,90.025c0.04,0.041,0.08,0.051,0.12,0.031s0.075-0.051,0.104-0.09c0.031-0.041,0.046-0.076,0.046-0.105
	s-0.021-0.045-0.06-0.045c0,0.08-0.031,0.119-0.091,0.119S74.726,89.967,74.706,90.025z M75.156,82.617
	c-0.04-0.021-0.07-0.051-0.09-0.092c-0.021-0.039-0.06-0.049-0.12-0.029c0,0.061-0.02,0.09-0.061,0.09
	c-0.039,0-0.08-0.02-0.119-0.061c-0.08,0.082-0.07,0.141,0.029,0.182c0.1,0.039,0.17,0.07,0.211,0.09
	c0.02-0.041,0.049-0.07,0.09-0.09C75.136,82.688,75.156,82.656,75.156,82.617z M74.736,76.917c0.04,0.04,0.06,0.03,0.06-0.03
	c0-0.06-0.02-0.069-0.06-0.03V76.917z M74.736,83.996c0.04,0.041,0.06,0.041,0.06,0C74.796,83.957,74.776,83.957,74.736,83.996z
	 M74.917,77.667c0-0.1-0.051-0.13-0.15-0.09c-0.021,0.06-0.011,0.095,0.029,0.104C74.837,77.692,74.876,77.686,74.917,77.667z
	 M74.826,75.447c0,0.04,0.021,0.06,0.06,0.06c0.041,0,0.051-0.02,0.031-0.06c0-0.021-0.016-0.03-0.045-0.03
	C74.841,75.417,74.826,75.426,74.826,75.447z M74.826,84.207c0.101,0.039,0.15,0.01,0.15-0.09c-0.06-0.021-0.11-0.01-0.15,0.029
	V84.207z M75.007,89.396c-0.08-0.02-0.125,0-0.135,0.061c-0.012,0.059-0.025,0.119-0.046,0.18c0.06,0.061,0.125,0.049,0.195-0.031
	C75.091,89.527,75.086,89.457,75.007,89.396z M74.826,93.896c0.101,0,0.15-0.061,0.15-0.18c-0.081,0-0.116,0.014-0.104,0.045
	C74.882,93.791,74.866,93.836,74.826,93.896z M74.946,80.666c0.04-0.039,0.01-0.09-0.09-0.15
	C74.796,80.617,74.826,80.666,74.946,80.666z M75.007,76.346c0,0.08-0.025,0.135-0.076,0.165c-0.049,0.03-0.074,0.075-0.074,0.135
	c0.08,0.061,0.13,0.045,0.15-0.045c0.02-0.09,0.049-0.154,0.09-0.194c-0.041,0-0.056-0.016-0.045-0.045
	C75.062,76.332,75.046,76.327,75.007,76.346z M74.856,90.326c0.039,0.041,0.08,0.045,0.12,0.016c0.04-0.031,0.05-0.064,0.03-0.105
	c-0.041-0.039-0.076-0.045-0.105-0.016C74.872,90.252,74.856,90.287,74.856,90.326z M75.007,83.275c0-0.039,0.02-0.068,0.06-0.09
	c0.04-0.02,0.079-0.049,0.12-0.09c0.039-0.078,0.015-0.109-0.075-0.09c-0.09,0.021-0.146,0.012-0.165-0.029
	C74.826,83.137,74.847,83.236,75.007,83.275z M75.066,87.236c-0.04-0.039-0.06-0.135-0.06-0.285s-0.03-0.174-0.09-0.074
	c-0.041,0.059-0.051,0.16-0.031,0.299C74.906,87.316,74.966,87.336,75.066,87.236z M74.917,82.076c0.039,0,0.06-0.02,0.06-0.061
	h-0.091C74.866,82.057,74.876,82.076,74.917,82.076z M74.946,80.426l0.03-0.029c-0.021-0.02-0.04-0.029-0.06-0.029l-0.031,0.029
	C74.906,80.416,74.927,80.426,74.946,80.426z M74.886,84.986c0,0.041,0.016,0.074,0.045,0.105c0.031,0.029,0.056,0.025,0.076-0.016
	C75.046,84.977,75.007,84.947,74.886,84.986z M74.886,88.287c0,0.039,0.016,0.074,0.045,0.104c0.031,0.031,0.065,0.025,0.105-0.014
	c0.02-0.041,0.01-0.076-0.029-0.105C74.966,88.242,74.927,88.246,74.886,88.287z M75.036,75.417c-0.04,0-0.07,0.02-0.09,0.06
	c0.04,0,0.064,0.006,0.075,0.016C75.031,75.501,75.036,75.476,75.036,75.417z M75.337,79.167c0,0.101-0.056,0.146-0.166,0.135
	c-0.109-0.01-0.185,0.015-0.225,0.075c0.08,0.06,0.16,0.07,0.24,0.03s0.17-0.07,0.27-0.091c0.18-0.02,0.215-0.039,0.105-0.06
	C75.451,79.237,75.376,79.207,75.337,79.167z M75.007,86.186c-0.041,0.041-0.051,0.076-0.03,0.105
	c0.02,0.031,0.069,0.045,0.149,0.045c0.02-0.061,0.016-0.094-0.015-0.105C75.081,86.221,75.046,86.207,75.007,86.186z
	 M75.276,80.996c0.04-0.061,0.04-0.105,0-0.135c-0.041-0.029-0.09-0.045-0.15-0.045c-0.06,0-0.104,0.016-0.135,0.045
	c-0.029,0.029-0.025,0.064,0.016,0.105c0.06-0.02,0.109-0.02,0.149,0S75.235,80.996,75.276,80.996z M75.187,75.987
	c0.08-0.061,0.119-0.105,0.119-0.136c0-0.029-0.024-0.034-0.074-0.015c-0.051,0.021-0.105,0.05-0.165,0.09s-0.09,0.09-0.09,0.15
	c0.04,0.04,0.064,0.08,0.075,0.12c0.01,0.04,0.055,0.06,0.135,0.06c0.039-0.04,0.039-0.08,0-0.12
	C75.146,76.096,75.146,76.046,75.187,75.987z M75.156,82.406c0.079,0,0.11-0.01,0.091-0.029c-0.061-0.041-0.086-0.061-0.076-0.061
	s0.016-0.049,0.016-0.15c-0.041-0.119-0.075-0.119-0.105,0c-0.029,0.121-0.055,0.201-0.074,0.24H75.156z M75.337,90.717
	c0.02,0,0.074-0.02,0.164-0.061c0.09-0.039,0.086-0.08-0.015-0.119c-0.06-0.02-0.11-0.01-0.149,0.029
	c-0.041,0.041-0.09,0.041-0.15,0c-0.12-0.119-0.18-0.09-0.18,0.09c0.079,0.02,0.135,0.041,0.164,0.061
	C75.201,90.736,75.257,90.736,75.337,90.717z M75.396,81.506c-0.04-0.08-0.03-0.129,0.03-0.15c0.06-0.02,0.1-0.068,0.119-0.148
	c-0.04-0.1-0.1-0.115-0.18-0.045s-0.119,0.135-0.119,0.193c-0.041,0-0.096-0.014-0.166-0.045c-0.07-0.029-0.085,0.016-0.045,0.137
	c0.02,0.08,0.075,0.119,0.165,0.119C75.292,81.566,75.356,81.547,75.396,81.506z M75.337,74.516c0-0.079-0.021-0.12-0.061-0.12
	c-0.041,0-0.086,0.016-0.135,0.045c-0.051,0.03-0.086,0.075-0.105,0.136c-0.02,0.06,0,0.109,0.061,0.149
	c0.039-0.06,0.069-0.114,0.09-0.165C75.206,74.511,75.257,74.497,75.337,74.516z M75.036,74.997c0.04,0,0.08,0.01,0.12,0.029
	c0.04,0.021,0.079,0.011,0.12-0.029c0.02-0.08-0.016-0.115-0.105-0.105C75.081,74.902,75.036,74.936,75.036,74.997z M75.187,76.886
	c0.02-0.04,0-0.06-0.061-0.06c-0.06,0-0.09,0.02-0.09,0.06c0.04,0,0.064,0.011,0.075,0.03
	C75.121,76.936,75.146,76.926,75.187,76.886z M75.366,78.386c-0.02-0.1-0.074-0.104-0.165-0.015c-0.09,0.09-0.135,0.155-0.135,0.194
	c0.1,0.081,0.175,0.096,0.226,0.046C75.341,78.562,75.366,78.487,75.366,78.386z M75.066,81.146c0.04,0.02,0.06,0.006,0.06-0.045
	s-0.02-0.064-0.06-0.045V81.146z M75.097,81.775c-0.021,0.121,0.01,0.156,0.09,0.105c0.08-0.049,0.13-0.105,0.15-0.164
	c-0.061-0.02-0.096-0.006-0.105,0.045C75.222,81.811,75.177,81.816,75.097,81.775z M75.247,75.626
	c-0.041-0.04-0.057-0.085-0.046-0.135s-0.015-0.065-0.075-0.045c-0.04,0.04-0.04,0.074,0,0.104S75.206,75.607,75.247,75.626z
	 M75.126,78.026c-0.02,0.081,0.01,0.12,0.09,0.12C75.257,78.026,75.226,77.987,75.126,78.026z M75.187,79.136
	c-0.021-0.04-0.006-0.055,0.045-0.045c0.05,0.011,0.074-0.005,0.074-0.045c-0.039,0-0.055-0.015-0.045-0.045
	s-0.004-0.035-0.045-0.015c-0.02,0.02-0.039,0.045-0.06,0.074C75.136,79.091,75.146,79.117,75.187,79.136z M75.156,84.176
	c0.06,0,0.104-0.068,0.136-0.209c0.029-0.141-0.006-0.199-0.105-0.18C75.187,83.947,75.177,84.076,75.156,84.176z M75.247,89.547
	c0.02-0.061,0.02-0.096,0-0.105c-0.021-0.01-0.041-0.01-0.061,0c-0.021,0.01-0.03,0.025-0.03,0.045S75.187,89.527,75.247,89.547z
	 M75.187,84.387c-0.021,0.061,0,0.084,0.061,0.074c0.059-0.01,0.09-0.035,0.09-0.074C75.316,84.346,75.267,84.346,75.187,84.387z
	 M75.276,86.127c0-0.061-0.029-0.08-0.09-0.061C75.187,86.107,75.216,86.127,75.276,86.127z M75.247,90.297
	c0-0.02-0.006-0.045-0.016-0.076c-0.01-0.029-0.016-0.023-0.016,0.016c-0.02,0.02-0.025,0.045-0.015,0.074
	C75.212,90.342,75.226,90.336,75.247,90.297z M75.247,88.676c0.059,0,0.1-0.029,0.119-0.09s0.01-0.109-0.029-0.15
	c-0.061-0.02-0.102,0.006-0.121,0.076S75.206,88.637,75.247,88.676z M75.216,83.336c0.041,0.041,0.07,0.061,0.09,0.061
	c0.041-0.039,0.035-0.07-0.014-0.09C75.241,83.287,75.216,83.297,75.216,83.336z M75.276,93.926c-0.041,0.08-0.035,0.131,0.016,0.15
	c0.049,0.02,0.094,0.01,0.135-0.029C75.427,93.967,75.376,93.926,75.276,93.926z M75.636,79.617
	c0.021-0.101-0.045-0.136-0.194-0.105s-0.206,0.105-0.165,0.226C75.437,79.657,75.556,79.617,75.636,79.617z M75.306,84.926
	c0.041-0.039,0.056-0.08,0.046-0.119c-0.011-0.041-0.035-0.061-0.075-0.061C75.276,84.867,75.286,84.926,75.306,84.926z
	 M75.366,89.096c-0.061,0-0.09,0.031-0.09,0.09c0.04,0.021,0.064,0.031,0.075,0.031C75.361,89.217,75.366,89.176,75.366,89.096z
	 M75.306,82.346c0.08,0,0.101-0.014,0.061-0.045C75.326,82.271,75.306,82.287,75.306,82.346z M75.667,84.447
	c0.1-0.061,0.169-0.15,0.209-0.271c-0.08-0.039-0.185-0.064-0.314-0.074c-0.131-0.01-0.215,0.035-0.256,0.135
	c0.061,0.041,0.125,0.045,0.195,0.016c0.07-0.031,0.105,0.004,0.105,0.104c-0.02,0.061-0.041,0.121-0.061,0.182
	c-0.02,0.059,0.02,0.09,0.121,0.09c0.1,0,0.124-0.025,0.074-0.076C75.691,84.502,75.667,84.467,75.667,84.447z M75.366,75.537
	c0,0.04,0.01,0.07,0.03,0.09c0.02,0,0.03-0.01,0.03-0.03C75.427,75.556,75.406,75.537,75.366,75.537z M75.546,83.666
	c-0.02-0.061-0.055-0.08-0.104-0.061c-0.05,0.021-0.075,0.061-0.075,0.121c0.02,0.02,0.064,0.025,0.135,0.016
	S75.587,83.707,75.546,83.666z M75.396,77.636c0.04,0.04,0.075,0.056,0.104,0.045c0.03-0.01,0.045-0.045,0.045-0.104
	C75.446,77.577,75.396,77.596,75.396,77.636z M75.427,82.076c0.02,0.121,0.055,0.186,0.104,0.195s0.095,0,0.136-0.029
	c0.039-0.031,0.069-0.076,0.09-0.137c0.02-0.059,0.01-0.1-0.03-0.119c-0.06,0.1-0.116,0.125-0.165,0.074
	c-0.051-0.049-0.096-0.064-0.135-0.045V82.076z M75.427,86.877c0,0.1,0.02,0.135,0.06,0.104c0.04-0.029,0.06-0.064,0.06-0.104
	H75.427z M75.606,76.886c-0.041,0.021-0.086,0.045-0.135,0.075c-0.051,0.03-0.056,0.065-0.016,0.104
	c0.02-0.039,0.055-0.06,0.105-0.06C75.61,77.006,75.626,76.966,75.606,76.886z M75.456,81.506c0,0.102,0.03,0.135,0.09,0.105
	c0.061-0.029,0.11-0.064,0.15-0.105C75.597,81.447,75.517,81.447,75.456,81.506z M75.606,78.056c-0.041-0.04-0.075-0.04-0.105,0
	c-0.029,0.04-0.025,0.08,0.016,0.12c0.039,0,0.06-0.015,0.06-0.045S75.587,78.077,75.606,78.056z M75.606,85.826
	c-0.101-0.02-0.135-0.016-0.105,0.016C75.531,85.871,75.565,85.867,75.606,85.826z M75.696,90.926c0-0.039-0.051-0.059-0.15-0.059
	c-0.02,0.039-0.01,0.07,0.03,0.09S75.656,90.967,75.696,90.926z M75.606,80.127c0.061-0.061,0.039-0.09-0.061-0.09v0.09H75.606z
	 M75.546,82.797c0,0.059,0.025,0.125,0.076,0.195c0.049,0.07,0.114,0.104,0.194,0.104c0.02-0.059,0.01-0.1-0.03-0.119
	s-0.07-0.051-0.09-0.09c0.061,0.02,0.095,0.01,0.105-0.031c0.01-0.039,0.015-0.078,0.015-0.119c-0.04-0.039-0.085-0.035-0.136,0.016
	C75.632,82.801,75.587,82.816,75.546,82.797z M75.546,88.646c0.02,0,0.035,0.006,0.045,0.016s0.025,0.014,0.045,0.014
	c0-0.039-0.02-0.068-0.06-0.09C75.576,88.607,75.565,88.627,75.546,88.646z M75.606,91.197c0-0.102-0.006-0.156-0.016-0.166
	s-0.02,0-0.029,0.029c-0.01,0.031-0.016,0.061-0.016,0.09C75.546,91.182,75.565,91.197,75.606,91.197z M75.757,75.146
	c0.039-0.039,0.09-0.069,0.149-0.09c0.06-0.02,0.101-0.06,0.12-0.12c-0.041-0.02-0.08-0.045-0.12-0.074
	c-0.04-0.03-0.08-0.056-0.12-0.075c0,0.1-0.07,0.149-0.21,0.149c0.021,0.041,0.05,0.07,0.091,0.09
	C75.706,75.046,75.736,75.086,75.757,75.146z M75.696,83.906c0.02-0.039,0.005-0.061-0.045-0.061c-0.051,0-0.075,0.021-0.075,0.061
	c0.04-0.02,0.06-0.02,0.06,0S75.656,83.926,75.696,83.906z M75.636,89.877c-0.039,0.08-0.029,0.109,0.031,0.09
	C75.727,89.947,75.716,89.916,75.636,89.877z M75.696,83.396c0.1,0.02,0.125-0.004,0.075-0.074s-0.095-0.086-0.136-0.047
	c0.041,0,0.051,0.021,0.031,0.061C75.646,83.377,75.656,83.396,75.696,83.396z M75.966,74.186c0.02-0.1-0.015-0.109-0.104-0.029
	s-0.135,0.149-0.135,0.21c0.06-0.021,0.095-0.061,0.104-0.12C75.841,74.186,75.886,74.167,75.966,74.186z M75.847,76.526
	c-0.041,0-0.051-0.015-0.03-0.045c0.02-0.029,0-0.045-0.06-0.045c-0.021,0.041-0.016,0.075,0.015,0.105S75.826,76.567,75.847,76.526
	z M75.966,86.217c0.061,0,0.09-0.031,0.09-0.09C75.956,86.107,75.927,86.137,75.966,86.217z M76.056,75.327
	c-0.059-0.02-0.09,0.005-0.09,0.074c0,0.07,0.02,0.105,0.061,0.105c0.02-0.04,0.045-0.07,0.075-0.09S76.116,75.367,76.056,75.327z
	 M76.087,84.207c0-0.061,0.024-0.096,0.074-0.105s0.075-0.045,0.075-0.105c-0.06-0.08-0.13-0.07-0.21,0.029
	C75.946,84.127,75.966,84.188,76.087,84.207z M75.997,84.416c0.039,0,0.069-0.02,0.09-0.061c-0.021-0.02-0.051-0.029-0.09-0.029
	V84.416z M76.087,80.666c0.06,0,0.079-0.029,0.06-0.09c-0.021-0.02-0.05-0.01-0.091,0.029L76.087,80.666z M76.206,74.966
	c-0.08-0.04-0.115-0.03-0.104,0.03c0.01,0.06,0.005,0.11-0.015,0.149C76.166,75.146,76.206,75.086,76.206,74.966z M76.087,83.637
	c0,0.039,0.029,0.061,0.09,0.061c0.06,0,0.079-0.021,0.06-0.061c-0.04-0.041-0.065-0.055-0.075-0.045S76.126,83.617,76.087,83.637z
	 M76.087,88.557c0.02,0.061,0.049,0.055,0.09-0.016c0.039-0.07,0.02-0.074-0.061-0.016c0,0.021-0.005,0.025-0.015,0.016
	C76.091,88.531,76.087,88.537,76.087,88.557z M76.326,74.636c-0.04,0.08-0.07,0.15-0.09,0.21c-0.021,0.061,0.02,0.11,0.12,0.15
	c0-0.061,0.01-0.13,0.029-0.21C76.406,74.707,76.386,74.657,76.326,74.636z M76.356,79.167c0.039,0.04,0.07,0.03,0.09-0.03
	C76.386,79.077,76.356,79.086,76.356,79.167z M76.417,82.496c0.1,0,0.154-0.016,0.164-0.045s0-0.049-0.029-0.061
	c-0.03-0.01-0.061-0.01-0.09,0C76.431,82.402,76.417,82.436,76.417,82.496z M77.796,82.105c0.1,0.041,0.256,0.051,0.465,0.031
	c0.211-0.02,0.365-0.061,0.466-0.121c0.06-0.059,0.124-0.104,0.194-0.135c0.07-0.029,0.146-0.064,0.226-0.105
	c0.06-0.1,0.114-0.193,0.165-0.283c0.049-0.092,0.095-0.186,0.135-0.285c0.061-0.141,0.09-0.301,0.09-0.48
	c-0.02-0.1-0.01-0.18,0.03-0.24s0.05-0.141,0.03-0.24c-0.021-0.08-0.021-0.16,0-0.24c0.02-0.08,0.039-0.16,0.06-0.24
	c0-0.12-0.005-0.24-0.015-0.359c-0.011-0.12-0.016-0.24-0.016-0.36c0.02-0.14,0.02-0.295,0-0.465s-0.04-0.335-0.06-0.495
	c-0.021-0.16-0.03-0.335-0.03-0.525c0-0.189-0.04-0.364-0.119-0.524c-0.08-0.16-0.15-0.315-0.211-0.465
	c-0.06-0.15-0.18-0.275-0.359-0.375c-0.141-0.08-0.281-0.13-0.42-0.15c-0.101,0-0.17-0.01-0.211-0.03
	c-0.039-0.04-0.074-0.045-0.104-0.015s-0.065,0.045-0.104,0.045c-0.041,0-0.086-0.02-0.135-0.06c-0.051-0.04-0.105-0.05-0.166-0.03
	h-0.479c-0.06,0.02-0.126,0.03-0.195,0.03c-0.07,0-0.146,0.02-0.226,0.06c-0.14,0.04-0.199,0.11-0.18,0.21
	c0.02,0.101,0.02,0.21,0,0.33c-0.04,0.16-0.055,0.335-0.045,0.525c0.01,0.189,0.005,0.375-0.015,0.555
	c-0.021,0.2-0.021,0.395,0,0.585c0.02,0.19,0.04,0.375,0.06,0.555c0,0.101-0.015,0.186-0.045,0.255
	c-0.029,0.07-0.025,0.155,0.016,0.255c0.039,0.101,0.049,0.176,0.029,0.226s-0.04,0.125-0.06,0.225c-0.04,0.2-0.04,0.396,0,0.585
	s0.06,0.385,0.06,0.584c0.02,0.182,0.01,0.381-0.029,0.602c-0.041,0.219,0,0.41,0.119,0.568c0.181,0.021,0.365,0.051,0.556,0.092
	C77.462,82.236,77.636,82.207,77.796,82.105z M76.566,73.466c0.1,0,0.124-0.024,0.075-0.075
	C76.591,73.341,76.566,73.367,76.566,73.466z M76.806,83.967c0.041-0.041,0.051-0.076,0.031-0.105
	c-0.021-0.029-0.051-0.045-0.09-0.045c-0.021,0.02-0.031,0.055-0.031,0.105C76.716,83.971,76.747,83.986,76.806,83.967z
	 M76.986,82.797c0-0.041-0.03-0.055-0.09-0.045s-0.08,0.035-0.06,0.074c0.039,0.02,0.069,0.029,0.09,0.029
	C76.966,82.855,76.986,82.836,76.986,82.797z M76.927,75.296c0.02,0.04,0.01,0.06-0.03,0.06s-0.04,0.011,0,0.03
	c0-0.02,0.015-0.034,0.045-0.045C76.972,75.332,76.966,75.317,76.927,75.296z M76.927,83.486c0.02,0,0.049,0.02,0.09,0.061
	c0.02-0.041,0.045-0.109,0.074-0.211c0.031-0.1,0.006-0.139-0.074-0.119c-0.021,0.059-0.025,0.109-0.016,0.15
	C77.011,83.406,76.986,83.447,76.927,83.486z M77.017,83.906c0.039,0.041,0.08,0.029,0.119-0.029
	C77.056,83.797,77.017,83.807,77.017,83.906z M77.136,85.287c0-0.041-0.02-0.061-0.06-0.061v0.029
	C77.076,85.277,77.097,85.287,77.136,85.287z M77.106,84.146c0.061,0.041,0.12,0.025,0.18-0.045c0.061-0.07,0.05-0.125-0.029-0.166
	c-0.021,0.041-0.056,0.066-0.105,0.076C77.101,84.021,77.087,84.066,77.106,84.146z M77.167,85.076c0.079,0,0.109-0.029,0.09-0.09
	c-0.041,0-0.076,0.006-0.105,0.016S77.126,85.037,77.167,85.076z M77.437,83.037c0.039-0.102,0.02-0.15-0.061-0.15
	C77.316,82.947,77.336,82.996,77.437,83.037z M77.556,83.457c0-0.041-0.029-0.061-0.09-0.061v0.061H77.556z M77.677,83.967
	c-0.101,0.039-0.15,0.074-0.15,0.105c0,0.029,0.016,0.055,0.045,0.074c0.03,0.02,0.061,0.016,0.09-0.016
	C77.691,84.102,77.696,84.047,77.677,83.967z M77.736,82.947c0.02,0,0.03,0.004,0.03,0.014s0.01,0.016,0.029,0.016
	c0.041-0.041,0.045-0.064,0.016-0.076C77.781,82.891,77.756,82.906,77.736,82.947z M77.946,84.176c-0.061,0-0.096,0.012-0.105,0.031
	s-0.025,0.049-0.045,0.09C77.876,84.297,77.927,84.256,77.946,84.176z M77.826,84.627c0.08,0,0.125-0.031,0.136-0.09
	c0.01-0.061,0.015-0.111,0.015-0.15C77.876,84.387,77.826,84.467,77.826,84.627z M77.856,86.307c-0.02,0.08-0.01,0.1,0.029,0.061
	C77.927,86.326,77.917,86.307,77.856,86.307z M78.007,83.217c0.119,0,0.145-0.025,0.074-0.076
	C78.011,83.092,77.986,83.117,78.007,83.217z M78.036,84.146c0.061,0,0.09-0.02,0.09-0.061
	C78.086,84.086,78.056,84.107,78.036,84.146z M78.216,84.686c-0.06,0.041-0.039,0.076,0.061,0.105c0.1,0.031,0.15,0.006,0.15-0.074
	c0-0.041-0.03-0.064-0.09-0.076C78.276,84.631,78.235,84.646,78.216,84.686z M78.306,83.637c0.041-0.02,0.051-0.045,0.031-0.076
	c-0.021-0.029-0.031-0.064-0.031-0.104c-0.059,0-0.084,0.025-0.074,0.074C78.241,83.582,78.267,83.617,78.306,83.637z
	 M78.337,84.355c-0.041-0.02-0.056-0.039-0.045-0.059c0.01-0.02-0.006,0.01-0.045,0.09C78.286,84.387,78.316,84.377,78.337,84.355z
	 M78.486,83.547c0.04,0,0.069-0.01,0.09-0.031c0.021-0.02,0.011-0.049-0.03-0.09c0,0.041-0.015,0.061-0.045,0.061
	C78.472,83.486,78.466,83.506,78.486,83.547z M78.696,84.387c-0.12,0-0.17,0.061-0.15,0.18s0.08,0.17,0.181,0.15
	c0.04-0.061,0.05-0.109,0.03-0.15C78.736,84.527,78.716,84.467,78.696,84.387z M78.546,85.287c0.041,0.08,0.09,0.094,0.15,0.045
	c0.061-0.051,0.09-0.096,0.09-0.135c-0.04,0.02-0.085,0.029-0.135,0.029C78.601,85.227,78.565,85.246,78.546,85.287z M78.727,83.967
	c0-0.061-0.011-0.08-0.03-0.061s-0.051,0.02-0.09,0c0,0.08,0.01,0.109,0.029,0.09C78.656,83.977,78.687,83.967,78.727,83.967z
	 M78.727,83.006c-0.06,0.061-0.05,0.09,0.03,0.09C78.816,83.037,78.806,83.006,78.727,83.006z M78.786,83.666
	c-0.08-0.02-0.1,0.02-0.06,0.121C78.786,83.787,78.806,83.746,78.786,83.666z M78.906,87.506c-0.04-0.039-0.08-0.035-0.12,0.016
	s-0.04,0.096,0,0.135C78.866,87.656,78.906,87.607,78.906,87.506z M78.937,86.186c-0.041-0.039-0.08-0.045-0.12-0.014
	c-0.04,0.029-0.05,0.074-0.03,0.135c0.02,0.02,0.055,0.02,0.105,0C78.94,86.287,78.956,86.246,78.937,86.186z M78.906,89.275
	c-0.04-0.1-0.025-0.148,0.045-0.148c0.069,0,0.095-0.041,0.075-0.121c-0.1-0.039-0.165-0.01-0.195,0.09
	C78.802,89.197,78.826,89.256,78.906,89.275z M78.876,84.506c0.061,0,0.075-0.014,0.045-0.045
	C78.892,84.432,78.876,84.447,78.876,84.506z M79.236,84.717c-0.021-0.1,0.01-0.154,0.09-0.166c0.08-0.01,0.14-0.045,0.181-0.104
	c-0.08,0-0.15,0.02-0.211,0.059c-0.06,0.041-0.14,0.07-0.24,0.09c0,0.061,0.016,0.105,0.046,0.135
	c0.03,0.031-0.005,0.045-0.104,0.045c-0.102,0.021-0.131,0.057-0.091,0.105c0.04,0.051,0.101,0.057,0.181,0.016
	c0.039-0.039,0.079-0.064,0.119-0.074C79.246,84.811,79.256,84.775,79.236,84.717z M78.966,87.297
	c0.041-0.041,0.105-0.125,0.195-0.256c0.09-0.129,0.085-0.215-0.015-0.254c-0.04,0.039-0.06,0.1-0.06,0.18
	c-0.021,0.02-0.061,0.07-0.121,0.15C78.906,87.197,78.906,87.256,78.966,87.297z M79.056,83.426c0.021-0.02,0.021-0.039,0-0.059
	c-0.02-0.021-0.039-0.031-0.059-0.031c-0.041,0.021-0.051,0.045-0.031,0.076C78.985,83.441,79.017,83.447,79.056,83.426z
	 M79.056,85.377c0.08-0.08,0.07-0.121-0.029-0.121c-0.041,0.021-0.055,0.045-0.045,0.076C78.991,85.361,79.017,85.377,79.056,85.377
	z M79.206,83.576c-0.06,0-0.109,0.051-0.15,0.15c-0.039,0.1-0.029,0.17,0.031,0.209c0.06-0.039,0.094-0.094,0.104-0.164
	C79.201,83.701,79.206,83.637,79.206,83.576z M79.056,84.986c-0.02,0.08,0,0.119,0.061,0.119s0.08-0.039,0.061-0.119H79.056z
	 M79.056,87.326c0,0.1,0.031,0.135,0.091,0.105c0.06-0.031,0.079-0.076,0.06-0.135C79.126,87.297,79.076,87.307,79.056,87.326z
	 M79.087,90.117c0.079,0,0.1-0.016,0.06-0.045C79.106,90.041,79.087,90.057,79.087,90.117z M79.116,90.627
	c0.04,0,0.08-0.02,0.12-0.061c-0.021-0.02-0.035-0.029-0.045-0.029c-0.011,0-0.025-0.01-0.045-0.031
	C79.126,90.527,79.116,90.566,79.116,90.627z M79.146,87.926c0.159,0,0.22-0.08,0.18-0.24c-0.06-0.078-0.11-0.084-0.149-0.014
	C79.136,87.742,79.126,87.826,79.146,87.926z M79.177,75.056c0.02,0,0.029,0.005,0.029,0.016c0,0.01,0.01,0.015,0.03,0.015
	c0-0.04-0.021-0.07-0.06-0.09V75.056z M79.177,83.367c0,0.08,0.039,0.119,0.119,0.119c0.041-0.039,0.041-0.07,0-0.09
	C79.256,83.377,79.216,83.367,79.177,83.367z M79.296,89.127c0.02,0,0.03-0.02,0.03-0.061c0-0.02-0.011-0.039-0.03-0.061
	c0.02-0.039,0.07-0.059,0.15-0.059s0.13-0.031,0.15-0.092c-0.101-0.078-0.205-0.068-0.315,0.031S79.177,89.066,79.296,89.127z
	 M79.417,82.826c0-0.02,0.01-0.039,0.029-0.061c-0.02,0-0.029-0.004-0.029-0.014s-0.011-0.016-0.031-0.016l-0.029,0.061
	C79.396,82.797,79.417,82.807,79.417,82.826z M79.386,85.256c0.041,0.021,0.07-0.004,0.091-0.074c0.02-0.07,0-0.096-0.06-0.076
	C79.396,85.127,79.386,85.176,79.386,85.256z M79.417,86.547c-0.021,0.039-0.031,0.109-0.031,0.209c0.101,0,0.15-0.029,0.15-0.09
	S79.496,86.566,79.417,86.547z M79.417,87.477c0,0.1,0.055,0.16,0.164,0.18s0.166-0.029,0.166-0.15
	c-0.061-0.039-0.111-0.045-0.15-0.014C79.556,87.521,79.496,87.518,79.417,87.477z M79.417,87.775c0.06,0,0.074-0.014,0.045-0.045
	C79.431,87.701,79.417,87.717,79.417,87.775z M79.566,89.037c-0.06-0.041-0.101-0.045-0.12-0.016s0.01,0.064,0.09,0.105
	c0.1,0.039,0.199,0.074,0.301,0.104c0.1,0.031,0.199,0.045,0.299,0.045c0.021-0.078,0.006-0.148-0.045-0.209
	c-0.05-0.061-0.035-0.109,0.045-0.15c0.08-0.039,0.105-0.09,0.076-0.15c-0.031-0.059-0.025-0.119,0.015-0.18
	c-0.06-0.061-0.12-0.061-0.181,0c-0.02,0.08-0.015,0.131,0.016,0.15c0.029,0.02-0.006,0.061-0.105,0.119
	c-0.04,0.041-0.104,0.092-0.195,0.15C79.671,89.066,79.606,89.076,79.566,89.037z M79.507,83.096c0-0.059-0.021-0.09-0.061-0.09
	v0.061C79.466,83.066,79.486,83.076,79.507,83.096z M79.747,83.457c0.059-0.1,0.039-0.17-0.061-0.211
	c-0.101-0.039-0.17-0.049-0.21-0.029c0.04,0.059,0.085,0.105,0.135,0.135S79.706,83.416,79.747,83.457z M79.507,88.346
	c0.1,0,0.124-0.023,0.074-0.074S79.507,88.246,79.507,88.346z M79.597,87.896c-0.061,0.061-0.051,0.09,0.029,0.09
	C79.626,87.926,79.616,87.896,79.597,87.896z M79.566,86.967c0.06,0,0.075-0.016,0.045-0.045
	C79.581,86.891,79.566,86.906,79.566,86.967z M79.597,83.816c0,0.08,0.02,0.1,0.06,0.061C79.696,83.836,79.677,83.816,79.597,83.816
	z M79.597,86.096c0.06,0,0.074-0.014,0.045-0.045C79.611,86.021,79.597,86.037,79.597,86.096z M79.896,89.697
	c0.04-0.041,0.069-0.096,0.09-0.166c0.02-0.07,0-0.125-0.06-0.164c-0.041,0.08-0.096,0.135-0.166,0.164s-0.115,0.096-0.135,0.195
	c0.1,0.1,0.18,0.16,0.24,0.18c0.04-0.061,0.04-0.1,0-0.119S79.837,89.736,79.896,89.697z M79.927,84.867
	c-0.021-0.102-0.035-0.146-0.045-0.137c-0.011,0.012-0.035,0.035-0.076,0.076c-0.02,0.039-0.045,0.061-0.074,0.061
	c-0.03,0-0.055,0.02-0.075,0.059c0.06,0.041,0.125,0.07,0.195,0.09C79.921,85.037,79.946,84.986,79.927,84.867z M79.656,87.207
	c0.06,0,0.075-0.016,0.045-0.045C79.671,87.131,79.656,87.146,79.656,87.207z M79.986,88.137c-0.06-0.121-0.08-0.23-0.06-0.33
	c0.02-0.1-0.061-0.121-0.24-0.061c0,0.061,0.015,0.1,0.045,0.121c0.029,0.02,0.064,0.049,0.105,0.09
	c0.039,0.039,0.049,0.084,0.029,0.135C79.847,88.141,79.886,88.156,79.986,88.137z M79.986,82.826c-0.04,0-0.08,0.006-0.12,0.016
	s-0.08-0.006-0.119-0.045c0.02,0.039,0.034,0.084,0.045,0.135c0.01,0.051,0.045,0.086,0.104,0.105c0-0.041,0.024-0.076,0.075-0.105
	C80.021,82.9,80.026,82.867,79.986,82.826z M79.837,73.346c0-0.04-0.011-0.06-0.031-0.06c-0.02,0-0.029,0.02-0.029,0.06H79.837z
	 M79.896,86.066c0.04-0.02,0.05-0.045,0.03-0.074c-0.021-0.031-0.041-0.057-0.061-0.076c-0.04,0.02-0.055,0.055-0.045,0.105
	S79.856,86.086,79.896,86.066z M79.896,83.426c0-0.039-0.021-0.059-0.06-0.059v0.059H79.896z M79.866,87.086
	c-0.02,0.041-0.005,0.061,0.045,0.061s0.064-0.02,0.045-0.061H79.866z M79.866,87.537c0,0.059,0.03,0.109,0.09,0.148
	c0.061,0.041,0.109,0.041,0.15,0c-0.041-0.039-0.07-0.078-0.09-0.119C79.996,87.527,79.946,87.518,79.866,87.537z M80.017,88.467
	c0.02-0.1-0.03-0.15-0.15-0.15c0,0.041,0.016,0.08,0.045,0.119C79.941,88.477,79.976,88.486,80.017,88.467z M80.046,86.486
	c-0.06-0.039-0.109-0.039-0.149,0c0,0.061,0.024,0.09,0.075,0.09C80.021,86.576,80.046,86.547,80.046,86.486z M80.106,84.387
	c0-0.1-0.035-0.145-0.105-0.135s-0.095,0.055-0.074,0.135C79.986,84.426,80.046,84.426,80.106,84.387z M79.956,87.416
	c0.061,0.08,0.096,0.076,0.105-0.016C80.071,87.311,80.036,87.316,79.956,87.416z M79.986,86.246c0.04,0.08,0.085,0.1,0.136,0.061
	c0.049-0.041,0.045-0.09-0.016-0.15c-0.041-0.039-0.075-0.045-0.105-0.016C79.972,86.172,79.966,86.207,79.986,86.246z
	 M79.986,82.496c0.04,0,0.069-0.02,0.09-0.061c-0.021-0.02-0.05-0.029-0.09-0.029V82.496z M80.046,84.057
	c0.08,0,0.121-0.02,0.121-0.061c0-0.039-0.011-0.07-0.031-0.09c-0.02-0.02-0.045-0.025-0.074-0.016
	C80.031,83.902,80.026,83.957,80.046,84.057z M80.167,76.077c-0.061-0.04-0.096-0.05-0.105-0.03c-0.01,0.021-0.01,0.04,0,0.06
	c0.01,0.021,0.025,0.035,0.045,0.045C80.126,76.162,80.146,76.136,80.167,76.077z M80.106,89.846
	c-0.061,0.061-0.055,0.125,0.016,0.195c0.069,0.07,0.154,0.076,0.254,0.016C80.296,89.916,80.206,89.846,80.106,89.846z
	 M80.076,86.846c0,0.041,0.021,0.121,0.06,0.24c0.041-0.039,0.076-0.045,0.105-0.014c0.03,0.029,0.061,0.055,0.09,0.074
	c0.03,0.02,0.05,0.025,0.061,0.016c0.01-0.01,0.004-0.076-0.016-0.195c0.141-0.121,0.141-0.166,0-0.135
	C80.236,86.861,80.136,86.867,80.076,86.846z M80.136,90.355c0.041,0,0.061-0.02,0.061-0.059c-0.061-0.041-0.086-0.051-0.074-0.031
	C80.132,90.287,80.136,90.316,80.136,90.355z M80.316,85.525c0.02-0.059-0.005-0.084-0.075-0.074s-0.096,0.035-0.074,0.074
	c0.039,0.021,0.069,0.025,0.09,0.016C80.276,85.531,80.296,85.525,80.316,85.525z M80.167,88.287c0,0.059,0.029,0.09,0.09,0.09
	C80.276,88.297,80.246,88.268,80.167,88.287z M80.497,89.787c-0.041-0.141-0.016-0.25,0.074-0.33s0.185-0.17,0.285-0.271
	c-0.101,0-0.146-0.02-0.135-0.059c0.01-0.041,0.024-0.09,0.045-0.15c0.02-0.061,0.029-0.121,0.029-0.18
	c0-0.061-0.04-0.1-0.119-0.121c-0.021,0.041-0.056,0.07-0.105,0.09c-0.051,0.021-0.055,0.051-0.016,0.09
	c0.041-0.078,0.08-0.074,0.121,0.016c0.039,0.09-0.011,0.135-0.15,0.135c0.04-0.059,0.035-0.094-0.016-0.105
	c-0.049-0.01-0.095,0.006-0.135,0.047c-0.04,0.039-0.055,0.09-0.045,0.148c0.01,0.061,0.055,0.08,0.135,0.061
	c0.02-0.02,0.02-0.049,0-0.09c-0.02-0.039-0.01-0.049,0.031-0.029c0.059-0.02,0.09,0.02,0.09,0.119
	c-0.021,0.141-0.07,0.23-0.15,0.27c-0.08,0.041-0.16,0.111-0.24,0.211c0.04,0.039,0.09,0.064,0.15,0.074
	C80.406,89.721,80.456,89.746,80.497,89.787z M80.227,83.516c0,0.08,0.03,0.125,0.09,0.135c0.06,0.012,0.1-0.004,0.12-0.045
	C80.416,83.527,80.347,83.496,80.227,83.516z M80.437,87.867c0.02-0.08-0.021-0.121-0.12-0.121c-0.021,0.061-0.015,0.09,0.015,0.09
	C80.361,87.836,80.396,87.846,80.437,87.867z M80.347,82.377c-0.041,0.039-0.035,0.07,0.015,0.09s0.075,0.01,0.075-0.031
	c-0.041,0.021-0.056,0.012-0.045-0.029C80.401,82.367,80.386,82.357,80.347,82.377z M80.347,90.986
	c0.02,0.041,0.055,0.07,0.104,0.09s0.095,0.051,0.136,0.09C80.546,91.006,80.466,90.947,80.347,90.986z M80.406,80.336
	c-0.021,0.041-0.005,0.08,0.045,0.121c0.05,0.039,0.085,0.039,0.104,0c0.041-0.08,0.08-0.1,0.121-0.061
	c0.039,0.041,0.049,0.09,0.029,0.15c-0.04,0.08-0.025,0.145,0.045,0.195c0.07,0.049,0.145,0.045,0.226-0.016
	c-0.021-0.061-0.03-0.135-0.03-0.225s-0.04-0.125-0.12-0.105s-0.12,0-0.12-0.061s0.02-0.09,0.061-0.09
	c0.06,0.02,0.129,0.045,0.21,0.076c0.079,0.029,0.12-0.006,0.12-0.105c0-0.061-0.045-0.115-0.135-0.166
	c-0.09-0.049-0.176-0.054-0.256-0.014c-0.04,0.039-0.045,0.064-0.015,0.074s0.045,0.035,0.045,0.074
	c-0.06,0.041-0.12,0.057-0.181,0.045C80.497,80.221,80.446,80.256,80.406,80.336z M80.406,91.736c0.12-0.039,0.181-0.09,0.181-0.15
	C80.507,91.566,80.446,91.617,80.406,91.736z M80.437,87.416c0,0.102,0.015,0.131,0.045,0.09
	C80.511,87.467,80.497,87.436,80.437,87.416z M80.587,77.907c-0.08,0-0.121,0.01-0.121,0.029
	C80.546,77.897,80.587,77.886,80.587,77.907z M80.677,89.936c0,0.08,0.049,0.137,0.149,0.166s0.15-0.006,0.15-0.105
	c-0.081-0.02-0.155-0.049-0.226-0.09c-0.07-0.039-0.154-0.039-0.254,0c0,0.08,0.02,0.109,0.059,0.09
	C80.597,89.977,80.636,89.957,80.677,89.936z M80.706,78.296c0.02-0.1-0.01-0.154-0.09-0.165c-0.08-0.01-0.109,0.035-0.09,0.135
	C80.566,78.287,80.626,78.296,80.706,78.296z M80.706,82.047c-0.04,0-0.085,0.055-0.135,0.164c-0.051,0.111-0.055,0.195-0.016,0.256
	C80.716,82.346,80.767,82.207,80.706,82.047z M80.677,86.996c-0.021,0-0.035-0.016-0.045-0.045
	c-0.011-0.029-0.035-0.035-0.076-0.016c-0.039,0.061-0.029,0.096,0.031,0.105C80.646,87.051,80.677,87.037,80.677,86.996z
	 M80.587,77.546c0.1,0,0.129-0.02,0.09-0.06C80.636,77.447,80.606,77.466,80.587,77.546z M80.616,86.727
	c0.061,0.041,0.09,0.01,0.09-0.09c-0.04,0-0.07-0.01-0.09-0.031V86.727z M80.736,88.586c0.04-0.039,0.045-0.09,0.015-0.15
	c-0.029-0.059-0.074-0.09-0.135-0.09C80.656,88.486,80.696,88.566,80.736,88.586z M80.646,82.736c0.079,0.041,0.14,0.029,0.18-0.029
	c0.04-0.061,0.069-0.121,0.091-0.182c0.06-0.139,0.064-0.189,0.014-0.148c-0.049,0.039-0.084,0.109-0.104,0.209
	c-0.04,0.041-0.08,0.061-0.12,0.061S80.646,82.676,80.646,82.736z M80.856,78.686c-0.08,0-0.125,0.03-0.135,0.09
	c-0.011,0.061-0.025,0.12-0.045,0.181c0.079,0.08,0.17,0.101,0.27,0.06c-0.02-0.079-0.051-0.135-0.09-0.165
	C80.815,78.822,80.815,78.766,80.856,78.686z M80.706,88.137c-0.02,0.1,0.01,0.141,0.09,0.119c0.08-0.02,0.11-0.07,0.09-0.15
	c-0.039-0.02-0.07-0.02-0.09,0C80.776,88.127,80.746,88.137,80.706,88.137z M80.796,79.586c0.041-0.02,0.045-0.04,0.016-0.061
	c-0.03-0.02-0.065-0.029-0.105-0.029C80.706,79.596,80.736,79.626,80.796,79.586z M80.706,80.996c0.08,0,0.1-0.016,0.061-0.045
	C80.726,80.922,80.706,80.936,80.706,80.996z M80.977,81.207c-0.04,0.02-0.091,0.029-0.15,0.029s-0.101,0.041-0.12,0.119
	c0.12,0.08,0.221,0.121,0.301,0.121c0.02-0.041,0.02-0.061,0-0.061c-0.021,0-0.041-0.02-0.061-0.061c-0.04-0.039-0.04-0.064,0-0.074
	S80.996,81.246,80.977,81.207z M80.796,81.746c-0.06,0-0.09,0.02-0.09,0.061C80.767,81.807,80.796,81.787,80.796,81.746z
	 M80.856,91.316c0-0.1-0.041-0.15-0.12-0.15c-0.04,0.041-0.04,0.076,0,0.105S80.815,91.316,80.856,91.316z M80.736,86.666
	c-0.021,0.061,0.005,0.09,0.075,0.09s0.095-0.029,0.074-0.09c-0.039,0-0.064-0.004-0.074-0.016
	C80.802,86.641,80.776,86.646,80.736,86.666z M80.826,89.637c0.08,0.02,0.12,0.014,0.12-0.016s-0.016-0.061-0.045-0.09
	s-0.061-0.039-0.09-0.029C80.781,89.512,80.786,89.557,80.826,89.637z M80.826,81.537c-0.04,0.039-0.035,0.08,0.015,0.119
	c0.051,0.041,0.096,0.061,0.136,0.061C80.996,81.637,80.946,81.576,80.826,81.537z M80.946,79.376c0-0.08-0.04-0.109-0.12-0.09
	C80.826,79.346,80.866,79.376,80.946,79.376z M80.856,82.016c0.039,0.121,0.109,0.211,0.21,0.271
	C81.066,82.105,80.996,82.016,80.856,82.016z M80.856,87.896c0.061,0,0.074-0.02,0.045-0.061
	C80.872,87.797,80.856,87.816,80.856,87.896z M80.856,87.957c0.061,0,0.074-0.016,0.045-0.045
	C80.872,87.881,80.856,87.896,80.856,87.957z M81.126,82.707c0.02-0.041,0.005-0.076-0.045-0.105s-0.095-0.025-0.135,0.016
	c-0.04,0.039-0.029,0.09,0.03,0.148C81.036,82.826,81.086,82.807,81.126,82.707z M81.066,75.686c-0.08-0.02-0.12,0.021-0.12,0.12
	c0.04,0.021,0.07,0.045,0.09,0.075s0.061,0.035,0.12,0.015c-0.04-0.039-0.075-0.064-0.104-0.074
	C81.021,75.811,81.026,75.766,81.066,75.686z M81.066,78.237c-0.08,0-0.12,0.06-0.12,0.18
	C81.046,78.376,81.086,78.317,81.066,78.237z M81.187,89.605c-0.041,0.021-0.086,0.025-0.135,0.016
	c-0.051-0.01-0.086,0.006-0.105,0.045c0.04,0.041,0.09,0.066,0.15,0.076C81.156,89.752,81.187,89.707,81.187,89.605z M81.216,78.716
	c0-0.04-0.004-0.08-0.015-0.12s0.005-0.069,0.046-0.09c-0.041-0.04-0.096-0.05-0.166-0.03c-0.07,0.021-0.104,0.061-0.104,0.12
	C81.056,78.716,81.136,78.756,81.216,78.716z M81.216,81.025c-0.039-0.039-0.08-0.049-0.119-0.029
	c-0.041,0.02-0.07,0.061-0.09,0.121c0.039,0.039,0.09,0.049,0.149,0.029S81.235,81.086,81.216,81.025z M81.216,89.307
	c-0.1,0-0.17,0.051-0.209,0.15c0.06,0.039,0.119,0.039,0.18,0C81.247,89.416,81.257,89.367,81.216,89.307z M81.216,90.297
	c0.041-0.041,0.086-0.055,0.136-0.045s0.095,0.004,0.135-0.016c0.02-0.08,0.005-0.119-0.045-0.119s-0.104,0-0.165,0
	c-0.041-0.021-0.08-0.061-0.12-0.121s-0.09-0.07-0.149-0.029C81.126,90.047,81.196,90.156,81.216,90.297z M81.187,77.216
	c-0.08-0.02-0.12,0-0.12,0.06c0,0.061-0.011,0.11-0.03,0.15c0.061,0,0.109-0.024,0.15-0.075
	C81.226,77.301,81.226,77.256,81.187,77.216z M81.427,79.136c0.079-0.1,0.039-0.149-0.121-0.149s-0.25,0-0.27,0
	c0.04,0.06,0.1,0.109,0.18,0.149S81.366,79.176,81.427,79.136z M81.276,77.606c0.02-0.1,0-0.135-0.061-0.104
	c-0.06,0.03-0.109,0.045-0.149,0.045c0,0.04,0.005,0.085,0.015,0.135c0.01,0.051,0.016,0.096,0.016,0.135
	C81.177,77.816,81.235,77.747,81.276,77.606z M81.636,79.617c0.021-0.061,0.01-0.105-0.029-0.136c-0.041-0.029-0.041-0.084,0-0.165
	c-0.061,0-0.105,0.016-0.135,0.046c-0.03,0.029-0.065,0.064-0.105,0.104c-0.1,0.04-0.135,0.03-0.105-0.03
	c0.031-0.06,0.016-0.1-0.045-0.12c0,0.041-0.025,0.056-0.074,0.046c-0.051-0.011-0.065,0.005-0.045,0.045
	c0.08,0.04,0.119,0.085,0.119,0.135s0.041,0.055,0.121,0.015c0.1-0.04,0.154-0.034,0.164,0.016S81.556,79.636,81.636,79.617z
	 M81.097,79.886c0.039,0,0.09,0.005,0.15,0.015c0.059,0.011,0.079-0.015,0.059-0.074c-0.02-0.061-0.064-0.08-0.135-0.061
	C81.101,79.787,81.076,79.827,81.097,79.886z M81.126,91.947c-0.04,0.059-0.029,0.084,0.03,0.074s0.079-0.035,0.06-0.074H81.126z
	 M81.456,80.637c-0.14,0.039-0.205,0.01-0.195-0.09s-0.035-0.15-0.135-0.15c0,0.061,0.025,0.125,0.075,0.195
	s0.046,0.145-0.015,0.225c0.061,0.041,0.115,0.035,0.165-0.016C81.401,80.752,81.437,80.697,81.456,80.637z M81.187,83.096
	c-0.041,0.041-0.056,0.086-0.045,0.135c0.01,0.051,0.055,0.066,0.135,0.045C81.276,83.156,81.247,83.096,81.187,83.096z
	 M81.187,81.986c0.061,0,0.074-0.02,0.045-0.061C81.201,81.887,81.187,81.906,81.187,81.986z M81.187,82.496
	c0,0.1,0.055,0.205,0.165,0.314c0.109,0.111,0.235,0.137,0.375,0.076c0-0.08-0.04-0.115-0.12-0.105s-0.141,0.016-0.18,0.016
	c-0.041-0.08-0.07-0.15-0.09-0.211C81.316,82.525,81.267,82.496,81.187,82.496z M81.337,91.977c0,0.08,0.01,0.115,0.029,0.105
	s0.04-0.035,0.061-0.076c0.02-0.039,0.024-0.07,0.015-0.09C81.431,91.896,81.396,91.916,81.337,91.977z M81.517,80.396
	c0-0.039,0-0.074,0-0.105c0-0.029-0.051-0.045-0.15-0.045C81.366,80.387,81.416,80.438,81.517,80.396z M81.696,81.146
	c0.12-0.039,0.154-0.074,0.105-0.105c-0.051-0.029-0.065-0.064-0.045-0.105c0.079,0,0.1-0.039,0.06-0.119s-0.09-0.09-0.149-0.029
	c-0.041,0.039-0.045,0.07-0.016,0.09s0.055,0.039,0.075,0.059c-0.161,0.121-0.28,0.24-0.36,0.361c0.04,0.02,0.085,0.029,0.135,0.029
	c0.051,0,0.096,0.01,0.135,0.029c0-0.039,0.01-0.059,0.031-0.059c0.02-0.061-0.011-0.086-0.091-0.076
	C81.496,81.232,81.536,81.207,81.696,81.146z M81.486,89.936c0-0.078,0.05-0.139,0.149-0.18c-0.039-0.039-0.084-0.049-0.135-0.029
	c-0.05,0.02-0.095,0.041-0.135,0.061C81.366,89.846,81.406,89.896,81.486,89.936z M81.366,90.836c0.04,0,0.08-0.039,0.12-0.119
	C81.406,90.717,81.366,90.756,81.366,90.836z M81.546,80.156c0.02-0.039,0.02-0.064,0-0.074s-0.04-0.025-0.06-0.045
	c-0.04,0.039-0.05,0.074-0.03,0.104C81.476,80.172,81.506,80.176,81.546,80.156z M81.456,78.176c-0.02,0.04-0.01,0.07,0.03,0.09
	c0.04,0.021,0.06-0.02,0.06-0.12C81.506,78.146,81.476,78.157,81.456,78.176z M81.606,80.547c-0.041,0.139-0.09,0.23-0.15,0.27
	c0,0.061,0.03,0.1,0.09,0.119c0.02-0.059,0.03-0.139,0.03-0.238c0.08-0.021,0.14-0.08,0.181-0.182
	c-0.041-0.02-0.061-0.045-0.061-0.074S81.667,80.447,81.606,80.547z M81.636,81.836c0.08-0.039,0.086-0.09,0.016-0.15
	c-0.07-0.059-0.125-0.068-0.165-0.029c0.04,0.041,0.065,0.074,0.075,0.105C81.571,81.791,81.597,81.816,81.636,81.836z
	 M81.606,77.577c0,0.02-0.01,0.029-0.03,0.029s-0.03,0.021-0.03,0.061h0.09C81.636,77.626,81.626,77.596,81.606,77.577z
	 M81.786,80.066c-0.04-0.02-0.07-0.049-0.09-0.09c-0.02-0.04-0.051-0.06-0.09-0.06c-0.041,0.06-0.025,0.115,0.045,0.166
	c0.07,0.049,0.085,0.115,0.045,0.193c-0.04,0.141-0.016,0.172,0.075,0.092c0.09-0.08,0.114-0.17,0.075-0.271
	c0.02-0.02,0.069-0.01,0.15,0.031c-0.041-0.061-0.061-0.121-0.061-0.18c0-0.061-0.03-0.101-0.09-0.12c-0.041,0.02-0.041,0.06,0,0.12
	C81.886,80.006,81.866,80.047,81.786,80.066z M81.606,82.197c0.061,0,0.095-0.012,0.105-0.031c0.01-0.02,0.004-0.035-0.016-0.045
	s-0.045-0.016-0.074-0.016C81.591,82.105,81.587,82.137,81.606,82.197z M81.757,81.986c0.06-0.02,0.09-0.061,0.09-0.119
	C81.727,81.826,81.696,81.867,81.757,81.986z M81.757,78.806c-0.041,0.101-0.03,0.15,0.029,0.15
	C81.847,78.896,81.836,78.846,81.757,78.806z M81.786,88.137c0.08,0,0.1-0.016,0.061-0.045
	C81.806,88.061,81.786,88.076,81.786,88.137z M81.847,80.396c0.039,0.061,0.049,0.119,0.029,0.18s0.02,0.07,0.121,0.029
	c0.1-0.02,0.169-0.1,0.209-0.238c-0.08-0.041-0.145-0.041-0.195,0C81.962,80.406,81.906,80.416,81.847,80.396z M81.937,78.716
	c0,0.06,0.02,0.09,0.061,0.09L81.937,78.716z M81.966,79.766c0.061,0,0.076-0.015,0.045-0.045
	C81.981,79.691,81.966,79.707,81.966,79.766z M82.087,81.326c0.039-0.061,0.055-0.139,0.045-0.24c-0.011-0.1-0.065-0.1-0.166,0
	c0.02,0.041,0.035,0.086,0.045,0.135C82.021,81.271,82.046,81.307,82.087,81.326z M82.087,79.466c0.039,0.021,0.064,0.03,0.074,0.03
	s0.035,0.01,0.075,0.029c0.02-0.039,0.015-0.09-0.015-0.149c-0.03-0.061-0.075-0.08-0.135-0.061V79.466z M82.177,81.416
	c-0.041,0.061-0.041,0.086,0,0.076C82.216,81.482,82.216,81.457,82.177,81.416z M82.146,82.436c0.06,0,0.095-0.01,0.104-0.029
	s0.01-0.039,0-0.061c-0.01-0.02-0.029-0.023-0.06-0.014S82.146,82.377,82.146,82.436z M82.177,79.707
	c0,0.06,0.024,0.115,0.074,0.165c0.051,0.05,0.096,0.035,0.135-0.045c-0.039-0.02-0.074-0.055-0.104-0.105
	C82.251,79.671,82.216,79.667,82.177,79.707z M82.236,74.457c0.04,0.02,0.06,0,0.06-0.061c0-0.06-0.02-0.069-0.06-0.029V74.457z
	 M82.386,80.127c0.021-0.041,0.021-0.061,0-0.061c-0.02,0-0.039,0.02-0.06,0.061H82.386z M82.386,77.966
	c0.061,0,0.076-0.015,0.045-0.045C82.401,77.891,82.386,77.907,82.386,77.966z M82.446,79.676c0.04,0.021,0.08-0.01,0.12-0.09h-0.12
	V79.676z M82.536,76.497c0.061,0,0.075-0.016,0.045-0.045C82.552,76.421,82.536,76.436,82.536,76.497z M82.806,82.436
	c0.041-0.059,0.031-0.09-0.029-0.09s-0.09,0.021-0.09,0.061c0.039,0.02,0.061,0.045,0.061,0.074
	C82.747,82.512,82.767,82.496,82.806,82.436z M82.837,81.477c-0.021,0.041-0.006,0.07,0.045,0.09c0.049,0.02,0.074-0.02,0.074-0.119
	C82.916,81.426,82.876,81.436,82.837,81.477z"/>
<path fill="#77650B" d="M86.017,72.837h5.789l4.141,13.918h0.059V72.837h4.681v21.418h-5.7l-4.41-14.759h-0.06v14.759h-4.499V72.837
	z"/>
<rect x="43.308" y="141.863" fill="#264047" width="67.408" height="1.418"/>
<rect x="43.308" y="114.014" fill="#264047" width="67.408" height="1.416"/>
<rect x="43.308" y="66.377" fill="#264047" width="67.408" height="1.418"/>
</svg>
