<?xml version="1.0" encoding="utf-8"?>
<!-- Generator: Adobe Illustrator 16.0.0, SVG Export Plug-In . SVG Version: 6.00 Build 0)  -->
<!DOCTYPE svg PUBLIC "-//W3C//DTD SVG 1.1//EN" "http://www.w3.org/Graphics/SVG/1.1/DTD/svg11.dtd">
<svg version="1.1" id="Layer_1" xmlns="http://www.w3.org/2000/svg" xmlns:xlink="http://www.w3.org/1999/xlink" x="0px" y="0px"
	 width="360px" height="138px" viewBox="0 0 360 138" enable-background="new 0 0 360 138" xml:space="preserve">
<path fill="#A28541" d="M210.577,11.661v2.326v1.254l-1.079,3.402l1.079,1.431l-4.301,4.836l2.147,1.432l-6.444,5.373l0.899,1.433
	l-5.556,4.296l1.793,1.971l-5.19,4.654v2.328l-4.482,4.119v3.043l-8.413,10.563l-4.835,1.076c0,0-1.252-1.254-1.252,0
	c0,1.253,1.075,2.146,1.075,2.146s8.414,8.777,15.036,9.67c6.626,0.896,13.075-1.971,13.075-1.971s1.493-0.806,1.973-0.177
	c1.073,1.428-5.196,7.342-11.646,10.025c-6.441,2.688-14.362,6.09-14.362,6.09l12.665,2.686c0,0-1.742,0.933-2.745,1.761
	c-1.04,0.86-1.821,1.999-1.821,1.999s-2.903-1-5.051-1c-2.148,0-5.692,1-5.692,1s-4.116-6.803-6.269-6.803
	c-2.146,0-17.513-2.996-22.021-6.268c-9.132-6.626-15.938-19.337-20.055-20.948c-2.013-0.79-4.118-1.432-4.118-1.432
	s-5.372,0.893-9.133-0.18c-3.759-1.074-7.517-3.6-7.517-3.6s-12.895-0.341-12.895-2.31c0-1.97,11.641-5.371,11.641-5.371
	s5.195-5.817,8.055-5.729c5.912,0.177,10.744,5.371,10.744,5.371s9.568,7.09,21.846,4.386c5.281-1.165,1.791-16.026,11.995-23.546
	c9.123-6.72,14.146-5.548,23.099-8.055C191.776,20.434,210.577,11.661,210.577,11.661z"/>
<path fill="#A28541" d="M82.668,1v1.63v0.878l-0.754,2.384l0.754,1.003l-3.013,3.389l1.504,1.003l-4.514,3.763l0.625,1.004
	l-3.889,3.011l1.257,1.379L71,23.706v1.631l-3.137,2.888v2.13l-5.898,7.403l-3.385,0.754c0,0-0.88-0.881-0.88,0
	c0,0.875,0.754,1.502,0.754,1.502s5.896,6.147,10.54,6.775c4.641,0.628,9.155-1.378,9.155-1.378s1.049-0.565,1.382-0.129
	c0.755,1.004-3.637,5.145-8.156,7.027c-4.516,1.883-10.063,4.268-10.063,4.268l8.873,1.878c0,0-1.222,0.654-1.921,1.233
	c-0.729,0.605-1.276,1.403-1.276,1.403s-2.035-0.705-3.541-0.705c-1.504,0-3.99,0.705-3.99,0.705s-2.884-4.769-4.389-4.769
	c-1.506,0-12.272-2.098-15.43-4.389c-6.398-4.644-11.166-13.551-14.052-14.678c-1.411-0.552-2.885-1.003-2.885-1.003
	s-3.765,0.625-6.398-0.125c-2.635-0.754-5.27-2.522-5.27-2.522S2,33.366,2,31.986c0-1.381,8.156-3.761,8.156-3.761
	s3.638-4.079,5.645-4.015c4.139,0.124,7.527,3.76,7.527,3.76s6.704,4.967,15.303,3.073c3.702-0.815,1.255-11.226,8.406-16.494
	c6.392-4.71,9.913-3.891,16.184-5.648C69.495,7.149,82.668,1,82.668,1z"/>
<path fill="#A28541" d="M358.102,31.044v2.804v1.511l-1.296,4.099l1.296,1.726l-5.176,5.825l2.592,1.724l-7.768,6.476l1.076,1.723
	l-6.684,5.179l2.152,2.374l-6.258,5.61V72.9l-5.396,4.961v3.67l-10.133,12.727l-5.826,1.296c0,0-1.515-1.515-1.515,0
	c0,1.508,1.296,2.587,1.296,2.587s10.145,10.571,18.124,11.651c7.98,1.079,15.747-2.369,15.747-2.369s1.804-0.976,2.372-0.222
	c1.302,1.728-6.253,8.852-14.02,12.082c-7.767,3.238-17.314,7.335-17.314,7.335l15.262,3.238c0,0-2.105,1.121-3.307,2.121
	c-1.248,1.038-2.188,2.41-2.188,2.41s-3.503-1.21-6.094-1.21c-2.584,0-6.855,1.21-6.855,1.21s-4.963-8.201-7.554-8.201
	c-2.585,0-21.101-3.608-26.537-7.548c-11.003-7.986-19.201-23.301-24.164-25.244c-2.425-0.946-4.957-1.728-4.957-1.728
	s-6.478,1.082-11.003-0.216c-4.533-1.29-9.068-4.33-9.068-4.33s-15.531-0.414-15.531-2.786c0-2.375,14.025-6.474,14.025-6.474
	s6.26-7.006,9.705-6.902c7.128,0.216,12.949,6.47,12.949,6.47s11.522,8.545,26.323,5.289c6.364-1.402,2.152-19.311,14.451-28.372
	c10.991-8.097,17.048-6.687,27.832-9.709C335.451,41.618,358.102,31.044,358.102,31.044z"/>
</svg>
