<?xml version="1.0" encoding="utf-8"?>
<!-- Generator: Adobe Illustrator 16.0.0, SVG Export Plug-In . SVG Version: 6.00 Build 0)  -->
<!DOCTYPE svg PUBLIC "-//W3C//DTD SVG 1.1//EN" "http://www.w3.org/Graphics/SVG/1.1/DTD/svg11.dtd">
<svg version="1.1" id="Layer_1" xmlns="http://www.w3.org/2000/svg" xmlns:xlink="http://www.w3.org/1999/xlink" x="0px" y="0px"
	 width="147px" height="266px" viewBox="0 0 147 266" enable-background="new 0 0 147 266" xml:space="preserve">
<polygon fill="#39356A" points="34,0 112.922,0 146.922,221.017 0,221.017 "/>
<g>
	<path fill="#FFFFFF" d="M14.602,111.268h1.87v8.785h0.06c0.801-2.196,3.027-3.354,5.312-3.354c4.66,0,6.886,3.769,6.886,8.102
		s-2.226,8.103-6.886,8.103c-2.463,0-4.6-1.276-5.46-3.354h-0.06v2.909h-1.721V111.268z M21.843,118.272
		c-3.977,0-5.372,3.354-5.372,6.529c0,3.176,1.395,6.529,5.372,6.529c3.562,0,5.016-3.354,5.016-6.529
		C26.859,121.625,25.404,118.272,21.843,118.272z"/>
	<path fill="#FFFFFF" d="M31.455,121.833c0.178-3.591,2.701-5.134,6.203-5.134c2.701,0,5.639,0.831,5.639,4.927v8.132
		c0,0.712,0.356,1.128,1.098,1.128c0.208,0,0.445-0.06,0.593-0.119v1.574c-0.415,0.088-0.712,0.118-1.217,0.118
		c-1.899,0-2.196-1.068-2.196-2.671h-0.06c-1.306,1.988-2.641,3.116-5.58,3.116c-2.819,0-5.134-1.396-5.134-4.481
		c0-4.304,4.185-4.452,8.221-4.927c1.543-0.178,2.404-0.386,2.404-2.078c0-2.522-1.811-3.146-4.007-3.146
		c-2.315,0-4.036,1.068-4.096,3.561H31.455z M41.427,124.089h-0.06c-0.237,0.445-1.068,0.593-1.573,0.683
		c-3.176,0.563-7.123,0.534-7.123,3.532c0,1.87,1.662,3.027,3.413,3.027c2.849,0,5.372-1.81,5.342-4.808V124.089z"/>
	<path fill="#FFFFFF" d="M50.001,117.144h3.116v1.573h-3.116v10.328c0,1.217,0.178,1.93,1.514,2.018
		c0.534,0,1.068-0.029,1.603-0.088v1.602c-0.564,0-1.098,0.061-1.662,0.061c-2.493,0-3.354-0.832-3.324-3.443v-10.477H45.46v-1.573
		h2.671v-4.6h1.87V117.144z"/>
	<path fill="#FFFFFF" d="M55.786,111.268h1.87v8.518h0.06c0.683-1.84,2.73-3.086,4.897-3.086c4.303,0,5.609,2.256,5.609,5.906v9.853
		h-1.87v-9.557c0-2.641-0.86-4.629-3.888-4.629c-2.968,0-4.749,2.255-4.808,5.253v8.933h-1.87V111.268z"/>
	<path fill="#FFFFFF" d="M71.75,117.144h1.721v3.591h0.06c0.95-2.463,3.027-3.917,5.787-3.799v1.87
		c-3.383-0.178-5.698,2.315-5.698,5.49v8.162h-1.87V117.144z"/>
	<path fill="#FFFFFF" d="M94.278,124.801c0,4.393-2.553,8.103-7.241,8.103c-4.689,0-7.241-3.71-7.241-8.103
		c0-4.392,2.552-8.102,7.241-8.102C91.726,116.699,94.278,120.409,94.278,124.801z M81.665,124.801c0,3.265,1.781,6.529,5.372,6.529
		s5.371-3.265,5.371-6.529s-1.78-6.529-5.371-6.529S81.665,121.536,81.665,124.801z"/>
	<path fill="#FFFFFF" d="M110.775,124.801c0,4.393-2.553,8.103-7.241,8.103c-4.689,0-7.242-3.71-7.242-8.103
		c0-4.392,2.553-8.102,7.242-8.102C108.223,116.699,110.775,120.409,110.775,124.801z M98.162,124.801
		c0,3.265,1.78,6.529,5.372,6.529c3.591,0,5.371-3.265,5.371-6.529s-1.78-6.529-5.371-6.529
		C99.942,118.272,98.162,121.536,98.162,124.801z"/>
	<path fill="#FFFFFF" d="M113.562,117.144h1.722v2.582h0.089c0.979-1.84,2.582-3.027,5.016-3.027c2.019,0,3.829,0.979,4.393,2.998
		c0.92-2.018,2.85-2.998,4.867-2.998c3.354,0,5.075,1.751,5.075,5.372v10.387h-1.87V122.16c0-2.523-0.949-3.888-3.62-3.888
		c-3.235,0-4.155,2.671-4.155,5.52v8.666h-1.87v-10.387c0.03-2.078-0.831-3.799-3.205-3.799c-3.234,0-4.541,2.434-4.57,5.639v8.547
		h-1.87V117.144z"/>
	<path fill="#FFFFFF" d="M16.817,140.973h7.103v80.502h-7.103V140.973z"/>
	<path fill="#FFFFFF" d="M37.676,140.973h7.103v11.388h-7.103V140.973z M37.676,163.297h7.103v58.178h-7.103V163.297z"/>
	<path fill="#FFFFFF" d="M80.86,169.272H69.359v52.202h-7.103v-52.202h-9.922v-5.976h9.922v-5.299
		c-0.113-10.034,2.706-17.025,14.093-17.025c2.03,0,3.721,0.113,5.976,0.451v6.089c-1.916-0.339-3.495-0.564-5.186-0.564
		c-7.893,0-7.667,4.961-7.78,11.275v5.073H80.86V169.272z"/>
	<path fill="#FFFFFF" d="M91.797,194.303c0.112,10.372,5.524,22.888,19.167,22.888c10.373,0,16.01-6.089,18.265-14.883h7.104
		c-3.044,13.191-10.711,20.858-25.368,20.858c-18.49,0-26.27-14.206-26.27-30.78c0-15.334,7.779-30.78,26.27-30.78
		c18.716,0,26.157,16.349,25.594,32.697H91.797z M129.454,188.327c-0.338-10.711-6.99-20.746-18.49-20.746
		c-11.613,0-18.04,10.147-19.167,20.746H129.454z"/>
</g>
<path fill="#8F6E52" d="M146.922,221.017c0,8.687-32.888,15.728-73.461,15.728C32.89,236.744,0,229.703,0,221.017H146.922z"/>
</svg>
