<?xml version="1.0" encoding="utf-8"?>
<!-- Generator: Adobe Illustrator 16.0.0, SVG Export Plug-In . SVG Version: 6.00 Build 0)  -->
<!DOCTYPE svg PUBLIC "-//W3C//DTD SVG 1.1//EN" "http://www.w3.org/Graphics/SVG/1.1/DTD/svg11.dtd">
<svg version="1.1" id="Layer_1" xmlns="http://www.w3.org/2000/svg" xmlns:xlink="http://www.w3.org/1999/xlink" x="0px" y="0px" viewBox="0 0 776.822 254" enable-background="new 0 0 776.822 254" preserveAspectRatio="none" xml:space="preserve">
<g>
	
		<line fill="none" stroke="#FAAF40" stroke-width="2" stroke-linecap="round" stroke-miterlimit="10" x1="262.479" y1="237.232" x2="262.479" y2="252.977"/>
	
		<line fill="none" stroke="#FAAF40" stroke-width="2" stroke-linecap="round" stroke-miterlimit="10" x1="266.982" y1="237.232" x2="266.982" y2="252.977"/>
	
		<line fill="none" stroke="#FAAF40" stroke-width="2" stroke-linecap="round" stroke-miterlimit="10" x1="271.485" y1="237.232" x2="271.485" y2="252.977"/>
	
		<line fill="none" stroke="#FAAF40" stroke-width="2" stroke-linecap="round" stroke-miterlimit="10" x1="275.988" y1="237.232" x2="275.988" y2="252.977"/>
	
		<line fill="none" stroke="#FAAF40" stroke-width="2" stroke-linecap="round" stroke-miterlimit="10" x1="280.491" y1="237.232" x2="280.491" y2="252.977"/>
	
		<line fill="none" stroke="#FAAF40" stroke-width="2" stroke-linecap="round" stroke-miterlimit="10" x1="284.994" y1="237.232" x2="284.994" y2="252.977"/>
	
		<line fill="none" stroke="#FAAF40" stroke-width="2" stroke-linecap="round" stroke-miterlimit="10" x1="289.497" y1="237.232" x2="289.497" y2="252.977"/>
	
		<line fill="none" stroke="#FAAF40" stroke-width="2" stroke-linecap="round" stroke-miterlimit="10" x1="294" y1="237.232" x2="294" y2="252.977"/>
	
		<line fill="none" stroke="#FAAF40" stroke-width="2" stroke-linecap="round" stroke-miterlimit="10" x1="298.503" y1="237.232" x2="298.503" y2="252.977"/>
	
		<line fill="none" stroke="#FAAF40" stroke-width="2" stroke-linecap="round" stroke-miterlimit="10" x1="303.006" y1="237.232" x2="303.006" y2="252.977"/>
	
		<line fill="none" stroke="#FAAF40" stroke-width="2" stroke-linecap="round" stroke-miterlimit="10" x1="307.509" y1="237.232" x2="307.509" y2="252.977"/>
	
		<line fill="none" stroke="#FAAF40" stroke-width="2" stroke-linecap="round" stroke-miterlimit="10" x1="312.012" y1="237.232" x2="312.012" y2="252.977"/>
	
		<line fill="none" stroke="#FAAF40" stroke-width="2" stroke-linecap="round" stroke-miterlimit="10" x1="316.515" y1="237.232" x2="316.515" y2="252.977"/>
	
		<line fill="none" stroke="#FAAF40" stroke-width="2" stroke-linecap="round" stroke-miterlimit="10" x1="321.018" y1="237.232" x2="321.018" y2="252.977"/>
	
		<line fill="none" stroke="#FAAF40" stroke-width="2" stroke-linecap="round" stroke-miterlimit="10" x1="325.521" y1="237.232" x2="325.521" y2="252.977"/>
	
		<line fill="none" stroke="#FAAF40" stroke-width="2" stroke-linecap="round" stroke-miterlimit="10" x1="330.023" y1="237.232" x2="330.023" y2="252.977"/>
	
		<line fill="none" stroke="#FAAF40" stroke-width="2" stroke-linecap="round" stroke-miterlimit="10" x1="334.526" y1="237.232" x2="334.526" y2="252.977"/>
	
		<line fill="none" stroke="#FAAF40" stroke-width="2" stroke-linecap="round" stroke-miterlimit="10" x1="339.029" y1="237.232" x2="339.029" y2="252.977"/>
	
		<line fill="none" stroke="#FAAF40" stroke-width="2" stroke-linecap="round" stroke-miterlimit="10" x1="343.532" y1="237.232" x2="343.532" y2="252.977"/>
	
		<line fill="none" stroke="#FAAF40" stroke-width="2" stroke-linecap="round" stroke-miterlimit="10" x1="348.035" y1="237.232" x2="348.035" y2="252.977"/>
	
		<line fill="none" stroke="#FAAF40" stroke-width="2" stroke-linecap="round" stroke-miterlimit="10" x1="352.538" y1="237.232" x2="352.538" y2="252.977"/>
	
		<line fill="none" stroke="#FAAF40" stroke-width="2" stroke-linecap="round" stroke-miterlimit="10" x1="357.041" y1="237.232" x2="357.041" y2="252.977"/>
	
		<line fill="none" stroke="#FAAF40" stroke-width="2" stroke-linecap="round" stroke-miterlimit="10" x1="361.544" y1="237.232" x2="361.544" y2="252.977"/>
	
		<line fill="none" stroke="#FAAF40" stroke-width="2" stroke-linecap="round" stroke-miterlimit="10" x1="366.047" y1="237.232" x2="366.047" y2="252.977"/>
	
		<line fill="none" stroke="#FAAF40" stroke-width="2" stroke-linecap="round" stroke-miterlimit="10" x1="370.55" y1="237.232" x2="370.55" y2="252.977"/>
	
		<line fill="none" stroke="#FAAF40" stroke-width="2" stroke-linecap="round" stroke-miterlimit="10" x1="375.053" y1="237.232" x2="375.053" y2="252.977"/>
	
		<line fill="none" stroke="#FAAF40" stroke-width="2" stroke-linecap="round" stroke-miterlimit="10" x1="379.556" y1="237.232" x2="379.556" y2="252.977"/>
	
		<line fill="none" stroke="#FAAF40" stroke-width="2" stroke-linecap="round" stroke-miterlimit="10" x1="384.059" y1="237.232" x2="384.059" y2="252.977"/>
	
		<line fill="none" stroke="#FAAF40" stroke-width="2" stroke-linecap="round" stroke-miterlimit="10" x1="388.562" y1="237.232" x2="388.562" y2="252.977"/>
	
		<line fill="none" stroke="#FAAF40" stroke-width="2" stroke-linecap="round" stroke-miterlimit="10" x1="393.063" y1="237.232" x2="393.063" y2="252.977"/>
	
		<line fill="none" stroke="#FAAF40" stroke-width="2" stroke-linecap="round" stroke-miterlimit="10" x1="397.567" y1="237.232" x2="397.567" y2="252.977"/>
	
		<line fill="none" stroke="#FAAF40" stroke-width="2" stroke-linecap="round" stroke-miterlimit="10" x1="402.069" y1="237.232" x2="402.069" y2="252.977"/>
	
		<line fill="none" stroke="#FAAF40" stroke-width="2" stroke-linecap="round" stroke-miterlimit="10" x1="406.573" y1="237.232" x2="406.573" y2="252.977"/>
	
		<line fill="none" stroke="#FAAF40" stroke-width="2" stroke-linecap="round" stroke-miterlimit="10" x1="411.075" y1="237.232" x2="411.075" y2="252.977"/>
	
		<line fill="none" stroke="#FAAF40" stroke-width="2" stroke-linecap="round" stroke-miterlimit="10" x1="415.579" y1="237.232" x2="415.579" y2="252.977"/>
	
		<line fill="none" stroke="#FAAF40" stroke-width="2" stroke-linecap="round" stroke-miterlimit="10" x1="420.081" y1="237.232" x2="420.081" y2="252.977"/>
	
		<line fill="none" stroke="#FAAF40" stroke-width="2" stroke-linecap="round" stroke-miterlimit="10" x1="424.585" y1="237.232" x2="424.585" y2="252.977"/>
	
		<line fill="none" stroke="#FAAF40" stroke-width="2" stroke-linecap="round" stroke-miterlimit="10" x1="429.087" y1="237.232" x2="429.087" y2="252.977"/>
	
		<line fill="none" stroke="#FAAF40" stroke-width="2" stroke-linecap="round" stroke-miterlimit="10" x1="433.591" y1="237.232" x2="433.591" y2="252.977"/>
	
		<line fill="none" stroke="#FAAF40" stroke-width="2" stroke-linecap="round" stroke-miterlimit="10" x1="438.093" y1="237.232" x2="438.093" y2="252.977"/>
	
		<line fill="none" stroke="#FAAF40" stroke-width="2" stroke-linecap="round" stroke-miterlimit="10" x1="442.597" y1="237.232" x2="442.597" y2="252.977"/>
	
		<line fill="none" stroke="#FAAF40" stroke-width="2" stroke-linecap="round" stroke-miterlimit="10" x1="447.099" y1="237.232" x2="447.099" y2="252.977"/>
	
		<line fill="none" stroke="#FAAF40" stroke-width="2" stroke-linecap="round" stroke-miterlimit="10" x1="451.603" y1="237.232" x2="451.603" y2="252.977"/>
	
		<line fill="none" stroke="#FAAF40" stroke-width="2" stroke-linecap="round" stroke-miterlimit="10" x1="456.104" y1="237.232" x2="456.104" y2="252.977"/>
	
		<line fill="none" stroke="#FAAF40" stroke-width="2" stroke-linecap="round" stroke-miterlimit="10" x1="460.608" y1="237.232" x2="460.608" y2="252.977"/>
	
		<line fill="none" stroke="#FAAF40" stroke-width="2" stroke-linecap="round" stroke-miterlimit="10" x1="465.11" y1="237.232" x2="465.11" y2="252.977"/>
	
		<line fill="none" stroke="#FAAF40" stroke-width="2" stroke-linecap="round" stroke-miterlimit="10" x1="469.614" y1="237.232" x2="469.614" y2="252.977"/>
	
		<line fill="none" stroke="#FAAF40" stroke-width="2" stroke-linecap="round" stroke-miterlimit="10" x1="474.116" y1="237.232" x2="474.116" y2="252.977"/>
	
		<line fill="none" stroke="#FAAF40" stroke-width="2" stroke-linecap="round" stroke-miterlimit="10" x1="478.62" y1="237.232" x2="478.62" y2="252.977"/>
	
		<line fill="none" stroke="#FAAF40" stroke-width="2" stroke-linecap="round" stroke-miterlimit="10" x1="483.122" y1="237.232" x2="483.122" y2="252.977"/>
	
		<line fill="none" stroke="#FAAF40" stroke-width="2" stroke-linecap="round" stroke-miterlimit="10" x1="487.626" y1="237.232" x2="487.626" y2="252.977"/>
	
		<line fill="none" stroke="#FAAF40" stroke-width="2" stroke-linecap="round" stroke-miterlimit="10" x1="492.128" y1="237.232" x2="492.128" y2="252.977"/>
	
		<line fill="none" stroke="#FAAF40" stroke-width="2" stroke-linecap="round" stroke-miterlimit="10" x1="496.632" y1="237.232" x2="496.632" y2="252.977"/>
	
		<line fill="none" stroke="#FAAF40" stroke-width="2" stroke-linecap="round" stroke-miterlimit="10" x1="501.134" y1="237.232" x2="501.134" y2="252.977"/>
	
		<line fill="none" stroke="#FAAF40" stroke-width="2" stroke-linecap="round" stroke-miterlimit="10" x1="505.638" y1="237.232" x2="505.638" y2="252.977"/>
	
		<line fill="none" stroke="#FAAF40" stroke-width="2" stroke-linecap="round" stroke-miterlimit="10" x1="510.14" y1="237.232" x2="510.14" y2="252.977"/>
	
		<line fill="none" stroke="#FAAF40" stroke-width="2" stroke-linecap="round" stroke-miterlimit="10" x1="514.644" y1="237.232" x2="514.644" y2="252.977"/>
	
		<line fill="none" stroke="#FAAF40" stroke-width="2" stroke-linecap="round" stroke-miterlimit="10" x1="1.31" y1="237.232" x2="1.31" y2="252.977"/>
	
		<line fill="none" stroke="#FAAF40" stroke-width="2" stroke-linecap="round" stroke-miterlimit="10" x1="5.812" y1="237.232" x2="5.812" y2="252.977"/>
	
		<line fill="none" stroke="#FAAF40" stroke-width="2" stroke-linecap="round" stroke-miterlimit="10" x1="10.315" y1="237.232" x2="10.315" y2="252.977"/>
	
		<line fill="none" stroke="#FAAF40" stroke-width="2" stroke-linecap="round" stroke-miterlimit="10" x1="14.818" y1="237.232" x2="14.818" y2="252.977"/>
	
		<line fill="none" stroke="#FAAF40" stroke-width="2" stroke-linecap="round" stroke-miterlimit="10" x1="19.321" y1="237.232" x2="19.321" y2="252.977"/>
	
		<line fill="none" stroke="#FAAF40" stroke-width="2" stroke-linecap="round" stroke-miterlimit="10" x1="23.824" y1="237.232" x2="23.824" y2="252.977"/>
	
		<line fill="none" stroke="#FAAF40" stroke-width="2" stroke-linecap="round" stroke-miterlimit="10" x1="28.327" y1="237.232" x2="28.327" y2="252.977"/>
	
		<line fill="none" stroke="#FAAF40" stroke-width="2" stroke-linecap="round" stroke-miterlimit="10" x1="32.83" y1="237.232" x2="32.83" y2="252.977"/>
	
		<line fill="none" stroke="#FAAF40" stroke-width="2" stroke-linecap="round" stroke-miterlimit="10" x1="37.333" y1="237.232" x2="37.333" y2="252.977"/>
	
		<line fill="none" stroke="#FAAF40" stroke-width="2" stroke-linecap="round" stroke-miterlimit="10" x1="41.836" y1="237.232" x2="41.836" y2="252.977"/>
	
		<line fill="none" stroke="#FAAF40" stroke-width="2" stroke-linecap="round" stroke-miterlimit="10" x1="46.339" y1="237.232" x2="46.339" y2="252.977"/>
	
		<line fill="none" stroke="#FAAF40" stroke-width="2" stroke-linecap="round" stroke-miterlimit="10" x1="50.842" y1="237.232" x2="50.842" y2="252.977"/>
	
		<line fill="none" stroke="#FAAF40" stroke-width="2" stroke-linecap="round" stroke-miterlimit="10" x1="55.345" y1="237.232" x2="55.345" y2="252.977"/>
	
		<line fill="none" stroke="#FAAF40" stroke-width="2" stroke-linecap="round" stroke-miterlimit="10" x1="59.848" y1="237.232" x2="59.848" y2="252.977"/>
	
		<line fill="none" stroke="#FAAF40" stroke-width="2" stroke-linecap="round" stroke-miterlimit="10" x1="64.351" y1="237.232" x2="64.351" y2="252.977"/>
	
		<line fill="none" stroke="#FAAF40" stroke-width="2" stroke-linecap="round" stroke-miterlimit="10" x1="68.854" y1="237.232" x2="68.854" y2="252.977"/>
	
		<line fill="none" stroke="#FAAF40" stroke-width="2" stroke-linecap="round" stroke-miterlimit="10" x1="73.356" y1="237.232" x2="73.356" y2="252.977"/>
	
		<line fill="none" stroke="#FAAF40" stroke-width="2" stroke-linecap="round" stroke-miterlimit="10" x1="77.859" y1="237.232" x2="77.859" y2="252.977"/>
	
		<line fill="none" stroke="#FAAF40" stroke-width="2" stroke-linecap="round" stroke-miterlimit="10" x1="82.362" y1="237.232" x2="82.362" y2="252.977"/>
	
		<line fill="none" stroke="#FAAF40" stroke-width="2" stroke-linecap="round" stroke-miterlimit="10" x1="86.865" y1="237.232" x2="86.865" y2="252.977"/>
	
		<line fill="none" stroke="#FAAF40" stroke-width="2" stroke-linecap="round" stroke-miterlimit="10" x1="91.368" y1="237.232" x2="91.368" y2="252.977"/>
	
		<line fill="none" stroke="#FAAF40" stroke-width="2" stroke-linecap="round" stroke-miterlimit="10" x1="95.871" y1="237.232" x2="95.871" y2="252.977"/>
	
		<line fill="none" stroke="#FAAF40" stroke-width="2" stroke-linecap="round" stroke-miterlimit="10" x1="100.374" y1="237.232" x2="100.374" y2="252.977"/>
	
		<line fill="none" stroke="#FAAF40" stroke-width="2" stroke-linecap="round" stroke-miterlimit="10" x1="104.877" y1="237.232" x2="104.877" y2="252.977"/>
	
		<line fill="none" stroke="#FAAF40" stroke-width="2" stroke-linecap="round" stroke-miterlimit="10" x1="109.38" y1="237.232" x2="109.38" y2="252.977"/>
	
		<line fill="none" stroke="#FAAF40" stroke-width="2" stroke-linecap="round" stroke-miterlimit="10" x1="113.883" y1="237.232" x2="113.883" y2="252.977"/>
	
		<line fill="none" stroke="#FAAF40" stroke-width="2" stroke-linecap="round" stroke-miterlimit="10" x1="118.386" y1="237.232" x2="118.386" y2="252.977"/>
	
		<line fill="none" stroke="#FAAF40" stroke-width="2" stroke-linecap="round" stroke-miterlimit="10" x1="122.889" y1="237.232" x2="122.889" y2="252.977"/>
	
		<line fill="none" stroke="#FAAF40" stroke-width="2" stroke-linecap="round" stroke-miterlimit="10" x1="127.392" y1="237.232" x2="127.392" y2="252.977"/>
	
		<line fill="none" stroke="#FAAF40" stroke-width="2" stroke-linecap="round" stroke-miterlimit="10" x1="131.895" y1="237.232" x2="131.895" y2="252.977"/>
	
		<line fill="none" stroke="#FAAF40" stroke-width="2" stroke-linecap="round" stroke-miterlimit="10" x1="136.396" y1="237.232" x2="136.396" y2="252.977"/>
	
		<line fill="none" stroke="#FAAF40" stroke-width="2" stroke-linecap="round" stroke-miterlimit="10" x1="140.9" y1="237.232" x2="140.9" y2="252.977"/>
	
		<line fill="none" stroke="#FAAF40" stroke-width="2" stroke-linecap="round" stroke-miterlimit="10" x1="145.402" y1="237.232" x2="145.402" y2="252.977"/>
	
		<line fill="none" stroke="#FAAF40" stroke-width="2" stroke-linecap="round" stroke-miterlimit="10" x1="149.906" y1="237.232" x2="149.906" y2="252.977"/>
	
		<line fill="none" stroke="#FAAF40" stroke-width="2" stroke-linecap="round" stroke-miterlimit="10" x1="154.408" y1="237.232" x2="154.408" y2="252.977"/>
	
		<line fill="none" stroke="#FAAF40" stroke-width="2" stroke-linecap="round" stroke-miterlimit="10" x1="158.912" y1="237.232" x2="158.912" y2="252.977"/>
	
		<line fill="none" stroke="#FAAF40" stroke-width="2" stroke-linecap="round" stroke-miterlimit="10" x1="163.414" y1="237.232" x2="163.414" y2="252.977"/>
	
		<line fill="none" stroke="#FAAF40" stroke-width="2" stroke-linecap="round" stroke-miterlimit="10" x1="167.918" y1="237.232" x2="167.918" y2="252.977"/>
	
		<line fill="none" stroke="#FAAF40" stroke-width="2" stroke-linecap="round" stroke-miterlimit="10" x1="172.42" y1="237.232" x2="172.42" y2="252.977"/>
	
		<line fill="none" stroke="#FAAF40" stroke-width="2" stroke-linecap="round" stroke-miterlimit="10" x1="176.924" y1="237.232" x2="176.924" y2="252.977"/>
	
		<line fill="none" stroke="#FAAF40" stroke-width="2" stroke-linecap="round" stroke-miterlimit="10" x1="181.426" y1="237.232" x2="181.426" y2="252.977"/>
	
		<line fill="none" stroke="#FAAF40" stroke-width="2" stroke-linecap="round" stroke-miterlimit="10" x1="185.93" y1="237.232" x2="185.93" y2="252.977"/>
	
		<line fill="none" stroke="#FAAF40" stroke-width="2" stroke-linecap="round" stroke-miterlimit="10" x1="190.432" y1="237.232" x2="190.432" y2="252.977"/>
	
		<line fill="none" stroke="#FAAF40" stroke-width="2" stroke-linecap="round" stroke-miterlimit="10" x1="194.936" y1="237.232" x2="194.936" y2="252.977"/>
	
		<line fill="none" stroke="#FAAF40" stroke-width="2" stroke-linecap="round" stroke-miterlimit="10" x1="199.438" y1="237.232" x2="199.438" y2="252.977"/>
	
		<line fill="none" stroke="#FAAF40" stroke-width="2" stroke-linecap="round" stroke-miterlimit="10" x1="203.941" y1="237.232" x2="203.941" y2="252.977"/>
	
		<line fill="none" stroke="#FAAF40" stroke-width="2" stroke-linecap="round" stroke-miterlimit="10" x1="208.443" y1="237.232" x2="208.443" y2="252.977"/>
	
		<line fill="none" stroke="#FAAF40" stroke-width="2" stroke-linecap="round" stroke-miterlimit="10" x1="212.947" y1="237.232" x2="212.947" y2="252.977"/>
	
		<line fill="none" stroke="#FAAF40" stroke-width="2" stroke-linecap="round" stroke-miterlimit="10" x1="217.449" y1="237.232" x2="217.449" y2="252.977"/>
	
		<line fill="none" stroke="#FAAF40" stroke-width="2" stroke-linecap="round" stroke-miterlimit="10" x1="221.953" y1="237.232" x2="221.953" y2="252.977"/>
	
		<line fill="none" stroke="#FAAF40" stroke-width="2" stroke-linecap="round" stroke-miterlimit="10" x1="226.455" y1="237.232" x2="226.455" y2="252.977"/>
	
		<line fill="none" stroke="#FAAF40" stroke-width="2" stroke-linecap="round" stroke-miterlimit="10" x1="230.959" y1="237.232" x2="230.959" y2="252.977"/>
	
		<line fill="none" stroke="#FAAF40" stroke-width="2" stroke-linecap="round" stroke-miterlimit="10" x1="235.461" y1="237.232" x2="235.461" y2="252.977"/>
	
		<line fill="none" stroke="#FAAF40" stroke-width="2" stroke-linecap="round" stroke-miterlimit="10" x1="239.965" y1="237.232" x2="239.965" y2="252.977"/>
	
		<line fill="none" stroke="#FAAF40" stroke-width="2" stroke-linecap="round" stroke-miterlimit="10" x1="244.467" y1="237.232" x2="244.467" y2="252.977"/>
	
		<line fill="none" stroke="#FAAF40" stroke-width="2" stroke-linecap="round" stroke-miterlimit="10" x1="248.971" y1="237.232" x2="248.971" y2="252.977"/>
	
		<line fill="none" stroke="#FAAF40" stroke-width="2" stroke-linecap="round" stroke-miterlimit="10" x1="253.473" y1="237.232" x2="253.473" y2="252.977"/>
	
		<line fill="none" stroke="#FAAF40" stroke-width="2" stroke-linecap="round" stroke-miterlimit="10" x1="257.977" y1="237.232" x2="257.977" y2="252.977"/>
	
		<line fill="none" stroke="#FAAF40" stroke-width="2" stroke-linecap="round" stroke-miterlimit="10" x1="519.132" y1="237.232" x2="519.132" y2="252.977"/>
	
		<line fill="none" stroke="#FAAF40" stroke-width="2" stroke-linecap="round" stroke-miterlimit="10" x1="523.635" y1="237.232" x2="523.635" y2="252.977"/>
	
		<line fill="none" stroke="#FAAF40" stroke-width="2" stroke-linecap="round" stroke-miterlimit="10" x1="528.138" y1="237.232" x2="528.138" y2="252.977"/>
	
		<line fill="none" stroke="#FAAF40" stroke-width="2" stroke-linecap="round" stroke-miterlimit="10" x1="532.641" y1="237.232" x2="532.641" y2="252.977"/>
	
		<line fill="none" stroke="#FAAF40" stroke-width="2" stroke-linecap="round" stroke-miterlimit="10" x1="537.144" y1="237.232" x2="537.144" y2="252.977"/>
	
		<line fill="none" stroke="#FAAF40" stroke-width="2" stroke-linecap="round" stroke-miterlimit="10" x1="541.646" y1="237.232" x2="541.646" y2="252.977"/>
	
		<line fill="none" stroke="#FAAF40" stroke-width="2" stroke-linecap="round" stroke-miterlimit="10" x1="546.149" y1="237.232" x2="546.149" y2="252.977"/>
	
		<line fill="none" stroke="#FAAF40" stroke-width="2" stroke-linecap="round" stroke-miterlimit="10" x1="550.652" y1="237.232" x2="550.652" y2="252.977"/>
	
		<line fill="none" stroke="#FAAF40" stroke-width="2" stroke-linecap="round" stroke-miterlimit="10" x1="555.155" y1="237.232" x2="555.155" y2="252.977"/>
	
		<line fill="none" stroke="#FAAF40" stroke-width="2" stroke-linecap="round" stroke-miterlimit="10" x1="559.658" y1="237.232" x2="559.658" y2="252.977"/>
	
		<line fill="none" stroke="#FAAF40" stroke-width="2" stroke-linecap="round" stroke-miterlimit="10" x1="564.161" y1="237.232" x2="564.161" y2="252.977"/>
	
		<line fill="none" stroke="#FAAF40" stroke-width="2" stroke-linecap="round" stroke-miterlimit="10" x1="568.664" y1="237.232" x2="568.664" y2="252.977"/>
	
		<line fill="none" stroke="#FAAF40" stroke-width="2" stroke-linecap="round" stroke-miterlimit="10" x1="573.167" y1="237.232" x2="573.167" y2="252.977"/>
	
		<line fill="none" stroke="#FAAF40" stroke-width="2" stroke-linecap="round" stroke-miterlimit="10" x1="577.67" y1="237.232" x2="577.67" y2="252.977"/>
	
		<line fill="none" stroke="#FAAF40" stroke-width="2" stroke-linecap="round" stroke-miterlimit="10" x1="582.173" y1="237.232" x2="582.173" y2="252.977"/>
	
		<line fill="none" stroke="#FAAF40" stroke-width="2" stroke-linecap="round" stroke-miterlimit="10" x1="586.676" y1="237.232" x2="586.676" y2="252.977"/>
	
		<line fill="none" stroke="#FAAF40" stroke-width="2" stroke-linecap="round" stroke-miterlimit="10" x1="591.179" y1="237.232" x2="591.179" y2="252.977"/>
	
		<line fill="none" stroke="#FAAF40" stroke-width="2" stroke-linecap="round" stroke-miterlimit="10" x1="595.682" y1="237.232" x2="595.682" y2="252.977"/>
	
		<line fill="none" stroke="#FAAF40" stroke-width="2" stroke-linecap="round" stroke-miterlimit="10" x1="600.185" y1="237.232" x2="600.185" y2="252.977"/>
	
		<line fill="none" stroke="#FAAF40" stroke-width="2" stroke-linecap="round" stroke-miterlimit="10" x1="604.688" y1="237.232" x2="604.688" y2="252.977"/>
	
		<line fill="none" stroke="#FAAF40" stroke-width="2" stroke-linecap="round" stroke-miterlimit="10" x1="609.19" y1="237.232" x2="609.19" y2="252.977"/>
	
		<line fill="none" stroke="#FAAF40" stroke-width="2" stroke-linecap="round" stroke-miterlimit="10" x1="613.693" y1="237.232" x2="613.693" y2="252.977"/>
	
		<line fill="none" stroke="#FAAF40" stroke-width="2" stroke-linecap="round" stroke-miterlimit="10" x1="618.196" y1="237.232" x2="618.196" y2="252.977"/>
	
		<line fill="none" stroke="#FAAF40" stroke-width="2" stroke-linecap="round" stroke-miterlimit="10" x1="622.699" y1="237.232" x2="622.699" y2="252.977"/>
	
		<line fill="none" stroke="#FAAF40" stroke-width="2" stroke-linecap="round" stroke-miterlimit="10" x1="627.202" y1="237.232" x2="627.202" y2="252.977"/>
	
		<line fill="none" stroke="#FAAF40" stroke-width="2" stroke-linecap="round" stroke-miterlimit="10" x1="631.705" y1="237.232" x2="631.705" y2="252.977"/>
	
		<line fill="none" stroke="#FAAF40" stroke-width="2" stroke-linecap="round" stroke-miterlimit="10" x1="636.208" y1="237.232" x2="636.208" y2="252.977"/>
	
		<line fill="none" stroke="#FAAF40" stroke-width="2" stroke-linecap="round" stroke-miterlimit="10" x1="640.711" y1="237.232" x2="640.711" y2="252.977"/>
	
		<line fill="none" stroke="#FAAF40" stroke-width="2" stroke-linecap="round" stroke-miterlimit="10" x1="645.214" y1="237.232" x2="645.214" y2="252.977"/>
	
		<line fill="none" stroke="#FAAF40" stroke-width="2" stroke-linecap="round" stroke-miterlimit="10" x1="649.717" y1="237.232" x2="649.717" y2="252.977"/>
	
		<line fill="none" stroke="#FAAF40" stroke-width="2" stroke-linecap="round" stroke-miterlimit="10" x1="654.219" y1="237.232" x2="654.219" y2="252.977"/>
	
		<line fill="none" stroke="#FAAF40" stroke-width="2" stroke-linecap="round" stroke-miterlimit="10" x1="658.723" y1="237.232" x2="658.723" y2="252.977"/>
	
		<line fill="none" stroke="#FAAF40" stroke-width="2" stroke-linecap="round" stroke-miterlimit="10" x1="663.225" y1="237.232" x2="663.225" y2="252.977"/>
	
		<line fill="none" stroke="#FAAF40" stroke-width="2" stroke-linecap="round" stroke-miterlimit="10" x1="667.729" y1="237.232" x2="667.729" y2="252.977"/>
	
		<line fill="none" stroke="#FAAF40" stroke-width="2" stroke-linecap="round" stroke-miterlimit="10" x1="672.23" y1="237.232" x2="672.23" y2="252.977"/>
	
		<line fill="none" stroke="#FAAF40" stroke-width="2" stroke-linecap="round" stroke-miterlimit="10" x1="676.734" y1="237.232" x2="676.734" y2="252.977"/>
	
		<line fill="none" stroke="#FAAF40" stroke-width="2" stroke-linecap="round" stroke-miterlimit="10" x1="681.236" y1="237.232" x2="681.236" y2="252.977"/>
	
		<line fill="none" stroke="#FAAF40" stroke-width="2" stroke-linecap="round" stroke-miterlimit="10" x1="685.74" y1="237.232" x2="685.74" y2="252.977"/>
	
		<line fill="none" stroke="#FAAF40" stroke-width="2" stroke-linecap="round" stroke-miterlimit="10" x1="690.242" y1="237.232" x2="690.242" y2="252.977"/>
	
		<line fill="none" stroke="#FAAF40" stroke-width="2" stroke-linecap="round" stroke-miterlimit="10" x1="694.746" y1="237.232" x2="694.746" y2="252.977"/>
	
		<line fill="none" stroke="#FAAF40" stroke-width="2" stroke-linecap="round" stroke-miterlimit="10" x1="699.248" y1="237.232" x2="699.248" y2="252.977"/>
	
		<line fill="none" stroke="#FAAF40" stroke-width="2" stroke-linecap="round" stroke-miterlimit="10" x1="703.752" y1="237.232" x2="703.752" y2="252.977"/>
	
		<line fill="none" stroke="#FAAF40" stroke-width="2" stroke-linecap="round" stroke-miterlimit="10" x1="708.254" y1="237.232" x2="708.254" y2="252.977"/>
	
		<line fill="none" stroke="#FAAF40" stroke-width="2" stroke-linecap="round" stroke-miterlimit="10" x1="712.758" y1="237.232" x2="712.758" y2="252.977"/>
	
		<line fill="none" stroke="#FAAF40" stroke-width="2" stroke-linecap="round" stroke-miterlimit="10" x1="717.26" y1="237.232" x2="717.26" y2="252.977"/>
	
		<line fill="none" stroke="#FAAF40" stroke-width="2" stroke-linecap="round" stroke-miterlimit="10" x1="721.764" y1="237.232" x2="721.764" y2="252.977"/>
	
		<line fill="none" stroke="#FAAF40" stroke-width="2" stroke-linecap="round" stroke-miterlimit="10" x1="726.266" y1="237.232" x2="726.266" y2="252.977"/>
	
		<line fill="none" stroke="#FAAF40" stroke-width="2" stroke-linecap="round" stroke-miterlimit="10" x1="730.77" y1="237.232" x2="730.77" y2="252.977"/>
	
		<line fill="none" stroke="#FAAF40" stroke-width="2" stroke-linecap="round" stroke-miterlimit="10" x1="735.271" y1="237.232" x2="735.271" y2="252.977"/>
	
		<line fill="none" stroke="#FAAF40" stroke-width="2" stroke-linecap="round" stroke-miterlimit="10" x1="739.775" y1="237.232" x2="739.775" y2="252.977"/>
	
		<line fill="none" stroke="#FAAF40" stroke-width="2" stroke-linecap="round" stroke-miterlimit="10" x1="744.277" y1="237.232" x2="744.277" y2="252.977"/>
	
		<line fill="none" stroke="#FAAF40" stroke-width="2" stroke-linecap="round" stroke-miterlimit="10" x1="748.781" y1="237.232" x2="748.781" y2="252.977"/>
	
		<line fill="none" stroke="#FAAF40" stroke-width="2" stroke-linecap="round" stroke-miterlimit="10" x1="753.283" y1="237.232" x2="753.283" y2="252.977"/>
	
		<line fill="none" stroke="#FAAF40" stroke-width="2" stroke-linecap="round" stroke-miterlimit="10" x1="757.787" y1="237.232" x2="757.787" y2="252.977"/>
	
		<line fill="none" stroke="#FAAF40" stroke-width="2" stroke-linecap="round" stroke-miterlimit="10" x1="762.289" y1="237.232" x2="762.289" y2="252.977"/>
	
		<line fill="none" stroke="#FAAF40" stroke-width="2" stroke-linecap="round" stroke-miterlimit="10" x1="766.793" y1="237.232" x2="766.793" y2="252.977"/>
	
		<line fill="none" stroke="#FAAF40" stroke-width="2" stroke-linecap="round" stroke-miterlimit="10" x1="771.295" y1="237.232" x2="771.295" y2="252.977"/>
	
		<line fill="none" stroke="#FAAF40" stroke-width="2" stroke-linecap="round" stroke-miterlimit="10" x1="775.799" y1="237.232" x2="775.799" y2="252.977"/>
</g>
<path fill="#EC1C24" d="M0-0.472v244.876c0,0,7.214-6,15.853-6s5.362,6,16.684,6c11.32,0,9.639-6,15.001-6s5.554,6,13.895,6
	s8.64-6,15.192-6c6.554,0,7.448,6,16.386,6c8.937,0,7.447-6,14.299-6s7.149,6,17.279,6c10.129,0,10.426-6,16.979-6
	c6.555,0,6.555,6,15.492,6s11.021-6,16.979-6c5.959,0,5.959,6,16.088,6c10.127,0,9.533-6,15.789-6s6.256,6,16.98,6s7.536-6,17.069-6
	c8.812,0,11.054,5.858,19.036,5.858s7.786-5.858,15.675-5.858c8.639,0,5.362,6,16.684,6c11.32,0,9.639-6,15.001-6s5.554,6,13.895,6
	s8.64-6,15.192-6c6.554,0,7.448,6,16.386,6c8.937,0,7.447-6,14.299-6s7.149,6,17.279,6c10.129,0,10.426-6,16.979-6
	c6.555,0,6.555,6,15.492,6s11.021-6,16.979-6c5.959,0,5.959,6,16.088,6c10.127,0,9.533-6,15.789-6s6.256,6,16.98,6s7.447-6,16.98-6
	s14.432,6,19.125,6s7.214-6,15.853-6s5.362,6,16.684,6c11.32,0,9.639-6,15.001-6s5.554,6,13.895,6s8.64-6,15.192-6
	c6.554,0,7.448,6,16.386,6c8.937,0,7.447-6,14.299-6s7.149,6,17.279,6c10.129,0,10.426-6,16.979-6c6.555,0,6.555,6,15.492,6
	s11.021-6,16.979-6c5.959,0,5.959,6,16.088,6c10.127,0,9.533-6,15.789-6s6.256,6,16.98,6s7.536-6,17.069-6s19.214,6,19.214,6V-0.472
	H0z"/>
<g>
	<path opacity="0.15" fill="#231F20" d="M237.789,0h-11.023v241.232c0,0,2.549-1.865,4.867-4.193s6.156-1.807,6.156-1.807V0z"/>
	<path opacity="0.15" fill="#231F20" d="M204.789,0h-11.023v241.232c0,0,3.266-1.865,4.867-4.193s6.156-1.807,6.156-1.807V0z"/>
	<path opacity="0.15" fill="#231F20" d="M139.521,0H128.5v241.232c0,0,3.617-1.248,5.865-4.193c1.332-1.743,5.156-1.807,5.156-1.807
		V0z"/>
	<path opacity="0.15" fill="#231F20" d="M107.022,0H96v241.232c0,0,3.21-2.188,4.866-4.193c1.657-2.005,6.156-1.807,6.156-1.807V0z"
		/>
	<path opacity="0.15" fill="#231F20" d="M76.022,0H65v241.232c0,0,3.419-2.331,4.866-4.193s6.156-1.807,6.156-1.807V0z"/>
	<path opacity="0.15" fill="#231F20" d="M45.022,0H34v239.232c0,0,2.395,0.256,4.866-3.193c2.662-3.715,6.156-2.807,6.156-2.807V0z"
		/>
	<path opacity="0.15" fill="#231F20" d="M11.022,0H0v239.232c0,0,2.834-2.046,4.866-4.193s6.156-1.807,6.156-1.807V0z"/>
	<path opacity="0.15" fill="#231F20" d="M170.789,0h-11.023v241.232c0,0,3.674-0.82,5.512-2.788c2.504-2.68,5.512-3.212,5.512-3.212
		V0z"/>
	<path opacity="0.15" fill="#231F20" d="M755.611,0h-11.023v241.232c0,0,2.549-1.865,4.867-4.193s6.156-1.807,6.156-1.807V0z"/>
	<path opacity="0.15" fill="#231F20" d="M722.611,0h-11.023v241.232c0,0,3.266-1.865,4.867-4.193s6.156-1.807,6.156-1.807V0z"/>
	<path opacity="0.15" fill="#231F20" d="M657.344,0h-11.021v241.232c0,0,3.617-1.248,5.865-4.193
		c1.332-1.743,5.156-1.807,5.156-1.807V0z"/>
	<path opacity="0.15" fill="#231F20" d="M624.845,0h-11.022v241.232c0,0,3.21-2.188,4.866-4.193
		c1.657-2.005,6.156-1.807,6.156-1.807V0z"/>
	<path opacity="0.15" fill="#231F20" d="M593.845,0h-11.022v241.232c0,0,3.419-2.331,4.866-4.193s6.156-1.807,6.156-1.807V0z"/>
	<path opacity="0.15" fill="#231F20" d="M562.845,0h-11.022v239.232c0,0,2.395,0.256,4.866-3.193
		c2.662-3.715,6.156-2.807,6.156-2.807V0z"/>
	<path opacity="0.15" fill="#231F20" d="M528.845,0h-11.022v239.232c0,0,2.834-2.046,4.866-4.193s6.156-1.807,6.156-1.807V0z"/>
	<path opacity="0.15" fill="#231F20" d="M688.611,0h-11.023v241.232c0,0,3.674-0.82,5.512-2.788c2.504-2.68,5.512-3.212,5.512-3.212
		V0z"/>
	<path opacity="0.15" fill="#231F20" d="M496.611,0h-11.023v241.232c0,0,2.549-1.865,4.867-4.193s6.156-1.807,6.156-1.807V0z"/>
	<path opacity="0.15" fill="#231F20" d="M463.611,0h-11.023v241.232c0,0,3.266-1.865,4.867-4.193s6.156-1.807,6.156-1.807V0z"/>
	<path opacity="0.15" fill="#231F20" d="M398.344,0h-11.021v241.232c0,0,3.617-1.248,5.865-4.193
		c1.332-1.743,5.156-1.807,5.156-1.807V0z"/>
	<path opacity="0.15" fill="#231F20" d="M365.845,0h-11.022v241.232c0,0,3.21-2.188,4.866-4.193
		c1.657-2.005,6.156-1.807,6.156-1.807V0z"/>
	<path opacity="0.15" fill="#231F20" d="M334.845,0h-11.022v241.232c0,0,3.419-2.331,4.866-4.193s6.156-1.807,6.156-1.807V0z"/>
	<path opacity="0.15" fill="#231F20" d="M303.845,0h-11.022v239.232c0,0,2.395,0.256,4.866-3.193
		c2.662-3.715,6.156-2.807,6.156-2.807V0z"/>
	<path opacity="0.15" fill="#231F20" d="M269.845,0h-11.022v239.232c0,0,2.834-2.046,4.866-4.193s6.156-1.807,6.156-1.807V0z"/>
	<path opacity="0.15" fill="#231F20" d="M429.611,0h-11.023v241.232c0,0,3.674-0.82,5.512-2.788c2.504-2.68,5.512-3.212,5.512-3.212
		V0z"/>
</g>
</svg>
