<?xml version="1.0" encoding="utf-8"?>
<!-- Generator: Adobe Illustrator 15.0.0, SVG Export Plug-In . SVG Version: 6.00 Build 0)  -->
<!DOCTYPE svg PUBLIC "-//W3C//DTD SVG 1.1//EN" "http://www.w3.org/Graphics/SVG/1.1/DTD/svg11.dtd">
<svg version="1.1" id="Layer_1" xmlns="http://www.w3.org/2000/svg" xmlns:xlink="http://www.w3.org/1999/xlink" x="0px" y="0px"
	 width="374px" height="128.298px" viewBox="0 0 374 128.298" enable-background="new 0 0 374 128.298" xml:space="preserve">
<g>
	<path fill="#404041" d="M264.662,6.765c-15.201,0-34.296,7.555-44.011,28.514c-9.735-20.959-28.9-28.514-44.345-28.514
		c-21.323,0-50.321,14.841-50.321,60.727c0,2.362,0.095,4.623,0.244,6.822h-1.776V8.129H90.509L36.264,71.244v32.068h52.709v24.986
		h35.48v-24.986h9.691c10.157,18.219,28.031,24.986,42.438,24.986c15.324,0,34.348-7.634,44.072-28.594
		c9.726,20.96,28.961,28.594,44.284,28.594c21.494,0,50.386-14.92,50.386-60.806S286.327,6.765,264.662,6.765z M88.974,74.314
		H59.975l28.999-33.263V74.314z M176.307,102.119c-17.229,0-17.911-22.176-17.911-34.627c0-12.794,0.682-34.628,18.252-34.628
		c17.059,0,17.911,22.347,17.911,34.628C194.559,80.114,193.706,102.119,176.307,102.119z M264.662,102.119
		c-17.228,0-17.91-22.176-17.91-34.627c0-12.794,0.683-34.628,18.252-34.628c17.059,0,17.911,22.347,17.911,34.628
		C282.915,80.114,282.062,102.119,264.662,102.119z"/>
	<rect x="282.586" fill="#EC1C24" width="51.174" height="29.135"/>
	<rect x="231.839" fill="#FFFFFF" width="51.174" height="29.135"/>
	<g>
		<path fill="#003767" d="M258.349,7.775c-9.84,0-17.265,1.515-17.265,1.515s-1.237,0.194-1.237,1.331v7.808
			c0,1.078,1.237,1.288,1.237,1.288s7.518,1.642,17.265,1.642s17.265-1.642,17.265-1.642s1.238-0.21,1.238-1.288v-7.808
			c0-1.137-1.238-1.331-1.238-1.331S268.188,7.775,258.349,7.775z"/>
		<path fill="#FFFFFF" d="M246.107,13.014h0.02c0.365-0.656,0.989-0.946,1.729-0.946h0.364v1.82
			c-0.26-0.146-0.509-0.176-0.802-0.176c-1.05,0-1.311,0.696-1.311,1.611v2.155h-1.895V12.14h1.895V13.014z"/>
		<path fill="#FFFFFF" d="M254.562,15.127h-3.986c0,0.77,0.405,1.186,1.187,1.186c0.405,0,0.697-0.134,0.906-0.488h1.821
			c-0.303,1.259-1.499,1.831-2.717,1.831c-1.771,0-3.092-0.999-3.092-2.842c0-1.778,1.218-2.851,2.956-2.851
			c1.853,0,2.925,1.146,2.925,2.966V15.127z M252.803,14.033c-0.094-0.51-0.562-0.843-1.071-0.843c-0.553,0-1.011,0.29-1.124,0.843
			H252.803z"/>
		<path fill="#FFFFFF" d="M261.077,15.127h-3.985c0,0.77,0.405,1.186,1.187,1.186c0.404,0,0.697-0.134,0.905-0.488h1.821
			c-0.303,1.259-1.499,1.831-2.717,1.831c-1.77,0-3.091-0.999-3.091-2.842c0-1.778,1.217-2.851,2.956-2.851
			c1.853,0,2.924,1.146,2.924,2.966V15.127z M259.318,14.033c-0.095-0.51-0.562-0.843-1.072-0.843c-0.552,0-1.009,0.29-1.124,0.843
			H259.318z"/>
		<path fill="#FFFFFF" d="M272.611,15.127h-3.986c0,0.77,0.406,1.186,1.186,1.186c0.406,0,0.699-0.134,0.906-0.488h1.821
			c-0.302,1.259-1.498,1.831-2.717,1.831c-1.77,0-3.091-0.999-3.091-2.842c0-1.778,1.219-2.851,2.956-2.851
			c1.853,0,2.925,1.146,2.925,2.966V15.127z M270.852,14.033c-0.094-0.51-0.562-0.843-1.072-0.843c-0.552,0-1.009,0.29-1.124,0.843
			H270.852z"/>
		<path fill="#FFFFFF" d="M265.923,13.877c-0.281-0.209-0.614-0.375-0.979-0.375c-0.728,0-1.302,0.562-1.302,1.301
			c0,0.771,0.552,1.312,1.333,1.312c0.333,0,0.698-0.135,0.947-0.364l0.482,1.335c-0.593,0.456-1.356,0.569-1.814,0.569
			c-1.583,0-2.905-1.176-2.905-2.79c0-1.718,1.312-2.904,2.988-2.904c0.438,0,1.274,0.194,1.744,0.598L265.923,13.877z"/>
	</g>
	<g>
		<path fill="#FFFFFF" d="M288.567,9.203h0.976v0.632h0.018c0.145-0.271,0.346-0.465,0.604-0.582s0.539-0.176,0.84-0.176
			c0.367,0,0.688,0.064,0.961,0.194c0.274,0.129,0.501,0.307,0.682,0.532s0.316,0.489,0.406,0.79
			c0.091,0.301,0.136,0.622,0.136,0.966c0,0.312-0.041,0.616-0.122,0.911s-0.204,0.556-0.37,0.781
			c-0.165,0.226-0.374,0.406-0.627,0.541c-0.253,0.136-0.551,0.203-0.894,0.203c-0.15,0-0.302-0.013-0.452-0.04
			s-0.295-0.071-0.433-0.131c-0.139-0.061-0.267-0.137-0.384-0.23c-0.117-0.093-0.215-0.203-0.293-0.329h-0.019v2.328h-1.029V9.203z
			 M292.16,11.541c0-0.21-0.027-0.415-0.081-0.613c-0.055-0.199-0.136-0.375-0.244-0.528s-0.243-0.276-0.406-0.37
			c-0.162-0.093-0.349-0.14-0.56-0.14c-0.433,0-0.76,0.15-0.979,0.451s-0.329,0.701-0.329,1.2c0,0.235,0.028,0.453,0.086,0.654
			c0.057,0.202,0.143,0.375,0.257,0.52s0.252,0.259,0.411,0.343s0.345,0.127,0.555,0.127c0.235,0,0.434-0.049,0.596-0.145
			c0.163-0.097,0.297-0.222,0.402-0.375c0.104-0.153,0.181-0.328,0.226-0.523S292.16,11.746,292.16,11.541z"/>
		<path fill="#FFFFFF" d="M294.083,7.425h1.029v6.445h-1.029V7.425z"/>
		<path fill="#FFFFFF" d="M300.329,13.87h-1.011v-0.65h-0.019c-0.126,0.235-0.314,0.423-0.563,0.564
			c-0.25,0.142-0.505,0.212-0.763,0.212c-0.614,0-1.059-0.151-1.332-0.455s-0.41-0.763-0.41-1.377V9.203h1.028v2.861
			c0,0.409,0.078,0.698,0.235,0.867c0.156,0.168,0.376,0.253,0.658,0.253c0.217,0,0.397-0.033,0.542-0.1s0.262-0.155,0.352-0.267
			c0.091-0.111,0.155-0.245,0.194-0.401s0.059-0.325,0.059-0.506V9.203h1.029V13.87z"/>
		<path fill="#FFFFFF" d="M301.413,9.203h0.975v0.65h0.027c0.078-0.114,0.162-0.22,0.252-0.316c0.091-0.096,0.191-0.177,0.303-0.243
			s0.239-0.119,0.384-0.158s0.31-0.059,0.496-0.059c0.283,0,0.546,0.063,0.79,0.189s0.417,0.322,0.52,0.587
			c0.174-0.241,0.376-0.431,0.604-0.569c0.229-0.138,0.515-0.207,0.857-0.207c0.493,0,0.877,0.12,1.15,0.361
			c0.274,0.24,0.411,0.644,0.411,1.209v3.223h-1.029v-2.726c0-0.187-0.006-0.357-0.018-0.511c-0.013-0.153-0.047-0.285-0.104-0.396
			c-0.058-0.111-0.144-0.197-0.258-0.258c-0.114-0.06-0.271-0.09-0.47-0.09c-0.349,0-0.602,0.108-0.758,0.324
			c-0.156,0.217-0.234,0.524-0.234,0.921v2.735h-1.029v-2.997c0-0.325-0.059-0.57-0.176-0.735s-0.333-0.248-0.646-0.248
			c-0.133,0-0.261,0.026-0.384,0.081c-0.123,0.054-0.231,0.133-0.325,0.234c-0.093,0.103-0.168,0.229-0.226,0.379
			c-0.057,0.151-0.086,0.322-0.086,0.515v2.771h-1.028V9.203z"/>
		<path fill="#FFFFFF" d="M309.292,7.425h1.029v2.384h0.019c0.071-0.114,0.159-0.217,0.262-0.308
			c0.102-0.09,0.215-0.167,0.338-0.229c0.123-0.063,0.253-0.111,0.389-0.145c0.135-0.033,0.269-0.05,0.401-0.05
			c0.367,0,0.688,0.064,0.961,0.194c0.274,0.129,0.501,0.307,0.682,0.532s0.316,0.489,0.406,0.79
			c0.091,0.301,0.136,0.622,0.136,0.966c0,0.312-0.041,0.616-0.122,0.911s-0.204,0.556-0.37,0.781
			c-0.165,0.226-0.374,0.406-0.627,0.541c-0.253,0.136-0.551,0.203-0.894,0.203c-0.157,0-0.314-0.01-0.475-0.031
			c-0.159-0.021-0.312-0.062-0.455-0.122c-0.145-0.06-0.275-0.138-0.394-0.234c-0.117-0.097-0.215-0.223-0.293-0.379h-0.018v0.641
			h-0.976V7.425z M312.884,11.541c0-0.21-0.027-0.415-0.081-0.613c-0.055-0.199-0.136-0.375-0.244-0.528s-0.243-0.276-0.406-0.37
			c-0.162-0.093-0.349-0.14-0.56-0.14c-0.433,0-0.76,0.15-0.979,0.451s-0.329,0.701-0.329,1.2c0,0.235,0.028,0.453,0.086,0.654
			c0.057,0.202,0.143,0.375,0.257,0.52s0.252,0.259,0.411,0.343s0.345,0.127,0.555,0.127c0.235,0,0.434-0.049,0.596-0.145
			c0.163-0.097,0.297-0.222,0.402-0.375c0.104-0.153,0.181-0.328,0.226-0.523S312.884,11.746,312.884,11.541z"/>
		<path fill="#FFFFFF" d="M314.807,7.425h1.029V8.4h-1.029V7.425z M314.807,9.203h1.029v4.667h-1.029V9.203z"/>
		<path fill="#FFFFFF" d="M316.956,9.203h0.975V9.89l0.018,0.018c0.157-0.259,0.361-0.462,0.614-0.609s0.532-0.221,0.84-0.221
			c0.511,0,0.914,0.132,1.209,0.397c0.295,0.265,0.442,0.661,0.442,1.191v3.204h-1.029v-2.934c-0.012-0.367-0.09-0.634-0.234-0.799
			s-0.37-0.248-0.677-0.248c-0.175,0-0.331,0.031-0.47,0.095c-0.139,0.062-0.256,0.15-0.352,0.262
			c-0.097,0.111-0.172,0.242-0.226,0.393c-0.055,0.15-0.082,0.31-0.082,0.479v2.753h-1.028V9.203z"/>
		<path fill="#FFFFFF" d="M326.452,13.626c0,0.704-0.197,1.229-0.592,1.575c-0.394,0.347-0.961,0.52-1.701,0.52
			c-0.234,0-0.471-0.024-0.709-0.072c-0.237-0.048-0.454-0.13-0.649-0.244s-0.359-0.265-0.492-0.451
			c-0.132-0.187-0.211-0.415-0.234-0.686h1.029c0.029,0.145,0.081,0.262,0.153,0.352c0.072,0.091,0.158,0.161,0.257,0.212
			c0.1,0.052,0.209,0.085,0.33,0.1c0.12,0.015,0.246,0.022,0.379,0.022c0.415,0,0.719-0.103,0.911-0.307
			c0.192-0.205,0.289-0.5,0.289-0.885v-0.713h-0.018c-0.145,0.259-0.342,0.46-0.592,0.604s-0.519,0.217-0.808,0.217
			c-0.373,0-0.69-0.064-0.952-0.194c-0.262-0.129-0.479-0.307-0.65-0.532c-0.171-0.226-0.296-0.486-0.374-0.781
			c-0.078-0.294-0.117-0.61-0.117-0.947c0-0.313,0.048-0.611,0.144-0.894c0.097-0.283,0.235-0.531,0.416-0.745
			c0.18-0.213,0.401-0.384,0.663-0.51s0.558-0.189,0.889-0.189c0.295,0,0.566,0.062,0.812,0.185
			c0.247,0.124,0.437,0.317,0.569,0.583h0.018V9.203h1.029V13.626z M324.167,13.058c0.229,0,0.423-0.047,0.583-0.14
			c0.159-0.094,0.288-0.217,0.388-0.37s0.172-0.328,0.217-0.523s0.067-0.393,0.067-0.592c0-0.198-0.024-0.391-0.072-0.577
			s-0.122-0.353-0.221-0.497c-0.1-0.145-0.229-0.259-0.389-0.343s-0.351-0.126-0.573-0.126c-0.229,0-0.421,0.048-0.577,0.145
			c-0.157,0.096-0.283,0.221-0.379,0.374c-0.097,0.153-0.166,0.328-0.208,0.523c-0.042,0.196-0.063,0.39-0.063,0.583
			c0,0.192,0.024,0.38,0.072,0.563s0.122,0.348,0.222,0.492c0.099,0.145,0.226,0.262,0.379,0.352
			C323.766,13.013,323.951,13.058,324.167,13.058z"/>
		<path fill="#FFFFFF" d="M291.69,18.889c-0.042-0.288-0.157-0.507-0.347-0.654s-0.429-0.221-0.718-0.221
			c-0.133,0-0.274,0.022-0.425,0.067s-0.288,0.13-0.415,0.253c-0.126,0.123-0.231,0.295-0.315,0.515
			c-0.085,0.22-0.127,0.507-0.127,0.861c0,0.193,0.022,0.386,0.068,0.578c0.045,0.192,0.117,0.364,0.216,0.515
			c0.1,0.15,0.228,0.272,0.384,0.365c0.156,0.094,0.347,0.141,0.569,0.141c0.301,0,0.549-0.094,0.744-0.28s0.317-0.448,0.365-0.785
			h1.029c-0.096,0.607-0.326,1.072-0.69,1.395s-0.847,0.482-1.448,0.482c-0.367,0-0.691-0.062-0.971-0.185
			c-0.28-0.123-0.517-0.292-0.709-0.506c-0.192-0.213-0.338-0.468-0.438-0.763s-0.148-0.613-0.148-0.957
			c0-0.349,0.048-0.677,0.144-0.983c0.097-0.307,0.241-0.573,0.434-0.799s0.432-0.403,0.718-0.532
			c0.286-0.13,0.621-0.194,1.007-0.194c0.271,0,0.527,0.034,0.771,0.104c0.243,0.069,0.46,0.173,0.649,0.312
			s0.345,0.313,0.465,0.523c0.121,0.211,0.193,0.461,0.217,0.749H291.69z"/>
		<path fill="#FFFFFF" d="M294.362,19.927c0,0.181,0.025,0.355,0.077,0.523c0.051,0.169,0.128,0.316,0.23,0.442
			c0.102,0.127,0.231,0.228,0.388,0.303s0.343,0.113,0.56,0.113c0.301,0,0.543-0.065,0.727-0.194c0.184-0.13,0.32-0.323,0.411-0.582
			h0.975c-0.054,0.252-0.147,0.478-0.28,0.677c-0.132,0.198-0.292,0.365-0.478,0.501c-0.188,0.135-0.396,0.237-0.628,0.307
			s-0.474,0.104-0.727,0.104c-0.367,0-0.692-0.06-0.975-0.18c-0.283-0.121-0.522-0.289-0.718-0.506s-0.343-0.476-0.442-0.776
			s-0.148-0.632-0.148-0.993c0-0.331,0.052-0.646,0.157-0.943s0.256-0.56,0.451-0.785c0.196-0.226,0.433-0.404,0.709-0.537
			c0.276-0.132,0.59-0.198,0.938-0.198c0.367,0,0.697,0.076,0.988,0.23c0.292,0.153,0.534,0.356,0.728,0.608
			c0.192,0.253,0.332,0.544,0.419,0.871c0.088,0.328,0.11,0.667,0.068,1.016H294.362z M296.763,19.25
			c-0.012-0.162-0.047-0.318-0.104-0.47c-0.058-0.15-0.136-0.281-0.235-0.393c-0.099-0.111-0.22-0.201-0.36-0.271
			c-0.142-0.069-0.3-0.104-0.475-0.104c-0.181,0-0.345,0.031-0.491,0.095c-0.147,0.062-0.274,0.15-0.38,0.262
			s-0.189,0.242-0.252,0.393c-0.063,0.15-0.099,0.312-0.104,0.487H296.763z"/>
		<path fill="#FFFFFF" d="M298.578,17.327h0.975v0.687l0.018,0.018c0.157-0.259,0.361-0.462,0.614-0.609s0.532-0.221,0.84-0.221
			c0.511,0,0.914,0.132,1.209,0.397c0.295,0.265,0.442,0.661,0.442,1.191v3.204h-1.029v-2.934c-0.012-0.367-0.09-0.634-0.234-0.799
			s-0.37-0.248-0.677-0.248c-0.175,0-0.331,0.031-0.47,0.095c-0.139,0.062-0.256,0.15-0.352,0.262
			c-0.097,0.111-0.172,0.242-0.226,0.393c-0.055,0.15-0.082,0.31-0.082,0.479v2.753h-1.028V17.327z"/>
		<path fill="#FFFFFF" d="M303.29,17.327h0.776v-1.398h1.029v1.398h0.93v0.768h-0.93v2.491c0,0.108,0.004,0.202,0.013,0.28
			c0.01,0.078,0.03,0.144,0.063,0.198c0.033,0.054,0.083,0.095,0.149,0.122c0.065,0.026,0.156,0.04,0.271,0.04
			c0.072,0,0.145-0.001,0.217-0.004s0.145-0.014,0.217-0.032v0.795c-0.114,0.012-0.226,0.023-0.334,0.036
			c-0.108,0.012-0.22,0.018-0.334,0.018c-0.271,0-0.489-0.025-0.654-0.076c-0.166-0.052-0.295-0.127-0.389-0.226
			c-0.094-0.1-0.156-0.225-0.189-0.375s-0.053-0.322-0.059-0.515v-2.753h-0.776V17.327z"/>
		<path fill="#FFFFFF" d="M306.765,17.327h0.966v0.903h0.018c0.03-0.127,0.089-0.25,0.176-0.37c0.088-0.121,0.192-0.23,0.316-0.33
			c0.123-0.099,0.26-0.179,0.41-0.239c0.15-0.06,0.305-0.09,0.461-0.09c0.12,0,0.203,0.003,0.248,0.009s0.092,0.012,0.14,0.019
			v0.992c-0.072-0.012-0.146-0.022-0.221-0.031s-0.149-0.014-0.222-0.014c-0.174,0-0.338,0.035-0.491,0.104
			c-0.154,0.069-0.288,0.172-0.402,0.308c-0.114,0.135-0.204,0.302-0.271,0.501c-0.066,0.198-0.1,0.427-0.1,0.686v2.221h-1.028
			V17.327z"/>
		<path fill="#FFFFFF" d="M310.583,19.927c0,0.181,0.025,0.355,0.077,0.523c0.051,0.169,0.128,0.316,0.23,0.442
			c0.102,0.127,0.231,0.228,0.388,0.303s0.343,0.113,0.56,0.113c0.301,0,0.543-0.065,0.727-0.194c0.184-0.13,0.32-0.323,0.411-0.582
			h0.975c-0.054,0.252-0.147,0.478-0.28,0.677c-0.132,0.198-0.292,0.365-0.478,0.501c-0.188,0.135-0.396,0.237-0.628,0.307
			s-0.474,0.104-0.727,0.104c-0.367,0-0.692-0.06-0.975-0.18c-0.283-0.121-0.522-0.289-0.718-0.506s-0.343-0.476-0.442-0.776
			s-0.148-0.632-0.148-0.993c0-0.331,0.052-0.646,0.157-0.943s0.256-0.56,0.451-0.785c0.196-0.226,0.433-0.404,0.709-0.537
			c0.276-0.132,0.59-0.198,0.938-0.198c0.367,0,0.697,0.076,0.988,0.23c0.292,0.153,0.534,0.356,0.728,0.608
			c0.192,0.253,0.332,0.544,0.419,0.871c0.088,0.328,0.11,0.667,0.068,1.016H310.583z M312.984,19.25
			c-0.012-0.162-0.047-0.318-0.104-0.47c-0.058-0.15-0.136-0.281-0.235-0.393c-0.099-0.111-0.22-0.201-0.36-0.271
			c-0.142-0.069-0.3-0.104-0.475-0.104c-0.181,0-0.345,0.031-0.491,0.095c-0.147,0.062-0.274,0.15-0.38,0.262
			s-0.189,0.242-0.252,0.393c-0.063,0.15-0.099,0.312-0.104,0.487H312.984z"/>
	</g>
</g>
</svg>
