<?xml version="1.0" encoding="utf-8"?>
<!-- Generator: Adobe Illustrator 15.0.0, SVG Export Plug-In . SVG Version: 6.00 Build 0)  -->
<!DOCTYPE svg PUBLIC "-//W3C//DTD SVG 1.1//EN" "http://www.w3.org/Graphics/SVG/1.1/DTD/svg11.dtd">
<svg version="1.1" id="Layer_1" xmlns="http://www.w3.org/2000/svg" xmlns:xlink="http://www.w3.org/1999/xlink" x="0px" y="0px"
	 width="600px" height="170.497px" viewBox="0 0 600 170.497" enable-background="new 0 0 600 170.497" xml:space="preserve">
<rect x="112.658" y="83.744" fill="#F1F1F2" width="375.37" height="41.379"/>
<g>
	<rect x="147.633" y="75.37" fill="#A6A8AB" width="33.005" height="8.374"/>
	<rect x="151.712" y="13.862" fill="#929497" width="24.848" height="61.507"/>
	<rect x="151.712" fill="#929497" width="24.848" height="11.33"/>
	<rect x="151.712" fill="#BBBDBF" width="24.848" height="5.665"/>
	<rect x="151.712" y="11.33" fill="#6D6E70" width="24.848" height="2.532"/>
	<rect x="154.022" y="13.862" fill="#F1F1F2" width="2.594" height="61.595"/>
	<rect x="155.022" y="17.242" fill="#BBBDBF" width="17.734" height="12.384"/>
	<rect x="158.339" y="17.242" fill="#F1F1F2" width="1.417" height="12.384"/>
	<rect x="152.726" fill="#F1F1F2" width="2.594" height="5.665"/>
	<rect x="152.726" y="75.369" fill="#F1F1F2" width="2.594" height="8.375"/>
	<rect x="159.934" y="29.625" opacity="0.23" fill="#231F20" enable-background="new    " width="8.867" height="2.555"/>
</g>
<g>
	<rect x="216.633" y="75.37" fill="#A6A8AB" width="33.006" height="8.374"/>
	<rect x="220.712" y="13.862" fill="#929497" width="24.849" height="61.507"/>
	<rect x="220.712" fill="#929497" width="24.849" height="11.33"/>
	<rect x="220.712" fill="#BBBDBF" width="24.849" height="5.665"/>
	<rect x="220.712" y="11.33" fill="#6D6E70" width="24.849" height="2.532"/>
	<rect x="223.022" y="13.862" fill="#F1F1F2" width="2.594" height="61.595"/>
	<rect x="224.022" y="17.242" fill="#BBBDBF" width="17.734" height="12.384"/>
	<rect x="227.339" y="17.242" fill="#F1F1F2" width="1.417" height="12.384"/>
	<rect x="221.726" fill="#F1F1F2" width="2.594" height="5.665"/>
	<rect x="221.726" y="75.369" fill="#F1F1F2" width="2.594" height="8.375"/>
	<rect x="228.934" y="29.625" opacity="0.23" fill="#231F20" enable-background="new    " width="8.867" height="2.555"/>
</g>
<g>
	<rect x="283.633" y="75.37" fill="#A6A8AB" width="33.006" height="8.374"/>
	<rect x="287.712" y="13.862" fill="#929497" width="24.849" height="61.507"/>
	<rect x="287.712" fill="#929497" width="24.849" height="11.33"/>
	<rect x="287.712" fill="#BBBDBF" width="24.849" height="5.665"/>
	<rect x="287.712" y="11.33" fill="#6D6E70" width="24.849" height="2.532"/>
	<rect x="290.022" y="13.862" fill="#F1F1F2" width="2.594" height="61.595"/>
	<rect x="291.022" y="17.242" fill="#BBBDBF" width="17.734" height="12.384"/>
	<rect x="294.339" y="17.242" fill="#F1F1F2" width="1.417" height="12.384"/>
	<rect x="288.726" fill="#F1F1F2" width="2.594" height="5.665"/>
	<rect x="288.726" y="75.369" fill="#F1F1F2" width="2.594" height="8.375"/>
	<rect x="295.934" y="29.625" opacity="0.23" fill="#231F20" enable-background="new    " width="8.867" height="2.555"/>
</g>
<g>
	<rect x="356.633" y="75.37" fill="#A6A8AB" width="33.006" height="8.374"/>
	<rect x="360.712" y="13.862" fill="#929497" width="24.849" height="61.507"/>
	<rect x="360.712" fill="#929497" width="24.849" height="11.33"/>
	<rect x="360.712" fill="#BBBDBF" width="24.849" height="5.665"/>
	<rect x="360.712" y="11.33" fill="#6D6E70" width="24.849" height="2.532"/>
	<rect x="363.021" y="13.862" fill="#F1F1F2" width="2.595" height="61.595"/>
	<rect x="364.021" y="17.242" fill="#BBBDBF" width="17.734" height="12.384"/>
	<rect x="367.339" y="17.242" fill="#F1F1F2" width="1.417" height="12.384"/>
	<rect x="361.727" fill="#F1F1F2" width="2.594" height="5.665"/>
	<rect x="361.727" y="75.369" fill="#F1F1F2" width="2.594" height="8.375"/>
	<rect x="368.934" y="29.625" opacity="0.23" fill="#231F20" enable-background="new    " width="8.867" height="2.555"/>
</g>
<g>
	<rect x="427.633" y="75.37" fill="#A6A8AB" width="33.006" height="8.374"/>
	<rect x="431.712" y="13.862" fill="#929497" width="24.849" height="61.507"/>
	<rect x="431.712" fill="#929497" width="24.849" height="11.33"/>
	<rect x="431.712" fill="#BBBDBF" width="24.849" height="5.665"/>
	<rect x="431.712" y="11.33" fill="#6D6E70" width="24.849" height="2.532"/>
	<rect x="434.021" y="13.862" fill="#F1F1F2" width="2.595" height="61.595"/>
	<rect x="435.021" y="17.242" fill="#BBBDBF" width="17.734" height="12.384"/>
	<rect x="438.339" y="17.242" fill="#F1F1F2" width="1.417" height="12.384"/>
	<rect x="432.727" fill="#F1F1F2" width="2.594" height="5.665"/>
	<rect x="432.727" y="75.369" fill="#F1F1F2" width="2.594" height="8.375"/>
	<rect x="439.934" y="29.625" opacity="0.23" fill="#231F20" enable-background="new    " width="8.867" height="2.555"/>
</g>
</svg>
