<?xml version="1.0" encoding="utf-8"?>
<!-- Generator: Adobe Illustrator 16.0.0, SVG Export Plug-In . SVG Version: 6.00 Build 0)  -->
<!DOCTYPE svg PUBLIC "-//W3C//DTD SVG 1.1//EN" "http://www.w3.org/Graphics/SVG/1.1/DTD/svg11.dtd">
<svg version="1.1" id="Layer_1" xmlns="http://www.w3.org/2000/svg" xmlns:xlink="http://www.w3.org/1999/xlink" x="0px" y="0px"
	 width="426px" height="154px" viewBox="0 0 426 154" enable-background="new 0 0 426 154" xml:space="preserve">
<path fill="#9A8478" d="M158.91,90.042c2.788,0.641,5.257,1.6,7.372,2.865c0.032-2.207,0.191-4.328,0.463-6.367
	c-1.91,1.363-4.444,2.5-7.835,3.283V90.042z"/>
<path fill="#9A8478" d="M304.547,72.443c-13.419,0-19.029,10.34-19.029,20.57c0.329,9.791,5.939,20.131,19.359,20.131
	c13.75,0,19.25-10.34,18.92-20.131C323.797,82.783,318.297,72.443,304.547,72.443z"/>
<path fill="#9A8478" d="M-14.173-14.173v182.346h454.499V-14.173H-14.173z M304.547,132.943c-22.805,0-37.904-7.424-44.662-20.939
	c-6.771,13.516-21.914,20.939-44.877,20.939c-20.294,0-34.478-5.885-42.121-16.703c-4.056,9.979-16.775,16.703-44.888,16.703
	c-23.43,0-49.61-1.539-51.26-27.5h31.68c0.33,2.75,1.54,4.84,4.18,6.271c2.64,1.43,6.93,2.09,13.31,2.09
	c14.19,0,15.84-3.961,15.84-7.48c0-4.84-4.18-6.16-11.99-6.16h-19.91v-17.82h21.34c6.82,0,8.36-2.42,8.36-5.17
	c0-3.301-1.98-6.051-13.86-6.051c-10.45,0-11.88,0.771-13.86,3.961H79.49c1.43-16.939,18.59-22.439,46.42-22.439
	c30.867,0,44.271,5.57,46.085,18.537c7.426-12.035,22.008-18.537,43.343-18.537c22.963,0,38.105,7.424,44.756,21.1
	c6.879-13.676,21.978-21.1,44.783-21.1c32.121,0,48.951,14.52,48.621,40.369C353.498,118.423,336.668,132.943,304.547,132.943z"/>
<rect x="386.74" y="47.951" fill="#8DC63F" width="4.018" height="32.314"/>
<rect x="398.889" y="28.413" fill="#00AEEF" width="4.02" height="51.853"/>
<g>
	<rect x="204.621" y="47.952" fill="#A7A9AC" width="21" height="5.329"/>
	<rect x="207.216" y="8.817" fill="#939598" width="15.81" height="39.134"/>
	<rect x="207.216" y="-0.002" fill="#939598" width="15.81" height="7.209"/>
	<rect x="207.216" y="-0.002" fill="#BCBEC0" width="15.81" height="3.604"/>
	<rect x="207.216" y="7.207" fill="#6D6E71" width="15.81" height="1.611"/>
	<rect x="208.686" y="8.817" fill="#F1F2F2" width="1.651" height="39.19"/>
	<rect x="209.322" y="10.968" fill="#BCBEC0" width="11.284" height="7.879"/>
	<rect x="211.433" y="10.968" fill="#F1F2F2" width="0.902" height="7.879"/>
	<rect x="207.861" y="-0.002" fill="#F1F2F2" width="1.651" height="3.604"/>
	<rect x="207.861" y="47.951" fill="#F1F2F2" width="1.651" height="5.33"/>
</g>
<path fill="#603913" d="M323.119,130.962c-5.477,1.306-11.669,1.98-18.572,1.98c-6.839,0-12.971-0.681-18.407-1.98h-52.612
	c-5.465,1.3-11.633,1.98-18.52,1.98c-6.833,0-12.956-0.683-18.387-1.98h-46.031c-6.086,1.279-13.536,1.98-22.591,1.98
	c-8.993,0-18.387-0.233-26.648-1.98H-14.173v37.21h454.346v-37.21H323.119z"/>
<path fill="#D7DF23" d="M63.945,123.63c0,2.514-2.038,4.553-4.552,4.553H25.102c-2.514,0-4.552-2.039-4.552-4.553v-3.186
	c0-2.514,2.038-4.553,4.552-4.553h34.291c2.514,0,4.552,2.039,4.552,4.553V123.63z"/>
<path fill="#C2B59B" d="M67.785,126.412c0,2.514-2.038,4.551-4.552,4.551H19.726c-2.514,0-4.552-2.037-4.552-4.551H67.785z"/>
<rect x="378.322" y="80.265" fill="#C2B59B" width="31.375" height="50.697"/>
<rect x="377.236" y="47.915" fill="#FFFFFF" width="8.512" height="18.174"/>
<rect x="403.572" y="28.384" fill="#FFFFFF" width="8.512" height="18.175"/>
<rect x="212.018" y="18.847" fill="#00AEEF" width="6.206" height="114.065"/>
<rect x="212.018" y="18.921" opacity="0.23" width="6.206" height="0.997"/>
<path fill="#9A8478" d="M215.008,72.443c-13.42,0-19.03,10.34-19.03,20.57c0.33,9.791,5.94,20.131,19.36,20.131
	c13.75,0,19.25-10.34,18.92-20.131C234.258,82.783,228.758,72.443,215.008,72.443z"/>
</svg>
