<?xml version="1.0" encoding="utf-8"?>
<!-- Generator: Adobe Illustrator 16.0.0, SVG Export Plug-In . SVG Version: 6.00 Build 0)  -->
<!DOCTYPE svg PUBLIC "-//W3C//DTD SVG 1.1//EN" "http://www.w3.org/Graphics/SVG/1.1/DTD/svg11.dtd">
<svg version="1.1" id="Layer_1" xmlns="http://www.w3.org/2000/svg" xmlns:xlink="http://www.w3.org/1999/xlink" x="0px" y="0px"
	 width="492px" height="184px" viewBox="0 0 492 184" enable-background="new 0 0 492 184" xml:space="preserve">
<path fill="#00ADEE" d="M170.805,144.277v-55.91h-15.543V74.912c13.224-0.117,18.792-2.785,21.575-12.76h15.544v82.125H170.805z"/>
<line fill="none" stroke="#00ADEE" stroke-width="1.0105" stroke-miterlimit="10" x1="154.802" y1="51.102" x2="154.802" y2="184.287"/>
<line fill="none" stroke="#00ADEE" stroke-width="1.0105" stroke-miterlimit="10" x1="157.732" y1="51.102" x2="157.732" y2="184.287"/>
<line fill="none" stroke="#00ADEE" stroke-width="1.0105" stroke-miterlimit="10" x1="160.663" y1="51.102" x2="160.663" y2="184.287"/>
<line fill="none" stroke="#00ADEE" stroke-width="1.0105" stroke-miterlimit="10" x1="163.594" y1="51.102" x2="163.594" y2="184.287"/>
<line fill="none" stroke="#00ADEE" stroke-width="1.0105" stroke-miterlimit="10" x1="166.524" y1="51.102" x2="166.524" y2="184.287"/>
<line fill="none" stroke="#00ADEE" stroke-width="1.0105" stroke-miterlimit="10" x1="169.455" y1="51.102" x2="169.455" y2="184.287"/>
<line fill="none" stroke="#00ADEE" stroke-width="1.0105" stroke-miterlimit="10" x1="172.386" y1="51.102" x2="172.386" y2="184.287"/>
<line fill="none" stroke="#00ADEE" stroke-width="1.0105" stroke-miterlimit="10" x1="175.316" y1="51.102" x2="175.316" y2="184.287"/>
<line fill="none" stroke="#00ADEE" stroke-width="1.0105" stroke-miterlimit="10" x1="178.247" y1="51.102" x2="178.247" y2="184.287"/>
<line fill="none" stroke="#00ADEE" stroke-width="1.0105" stroke-miterlimit="10" x1="181.178" y1="51.102" x2="181.178" y2="184.287"/>
<line fill="none" stroke="#00ADEE" stroke-width="1.0105" stroke-miterlimit="10" x1="184.108" y1="51.102" x2="184.108" y2="184.287"/>
<line fill="none" stroke="#00ADEE" stroke-width="1.0105" stroke-miterlimit="10" x1="187.039" y1="51.102" x2="187.039" y2="184.287"/>
<line fill="none" stroke="#00ADEE" stroke-width="1.0105" stroke-miterlimit="10" x1="189.97" y1="51.102" x2="189.97" y2="184.287"/>
<line fill="none" stroke="#00ADEE" stroke-width="1.0105" stroke-miterlimit="10" x1="192.9" y1="51.102" x2="192.9" y2="184.287"/>
</svg>
