<?xml version="1.0" encoding="utf-8"?>
<!-- Generator: Adobe Illustrator 16.0.0, SVG Export Plug-In . SVG Version: 6.00 Build 0)  -->
<!DOCTYPE svg PUBLIC "-//W3C//DTD SVG 1.1//EN" "http://www.w3.org/Graphics/SVG/1.1/DTD/svg11.dtd">
<svg version="1.1" id="Layer_1" xmlns="http://www.w3.org/2000/svg" xmlns:xlink="http://www.w3.org/1999/xlink" x="0px" y="0px"
	 width="492px" height="184px" viewBox="0 0 492 184" enable-background="new 0 0 492 184" xml:space="preserve">
<path fill="#00ADEE" d="M218.052,63.775h47.675v16.24h-31.204l-0.928,13.803c3.944-3.711,9.048-6.031,15.196-6.031
	c13.223,0,20.531,8.584,20.531,26.1c0,21.344-6.496,32.016-26.912,32.016c-19.023,0-26.911-8.7-26.911-23.548v-2.668h20.184v2.784
	c0,7.771,2.204,9.976,5.916,9.976c4.176,0,6.148-1.856,6.148-17.632c0-9.164-2.204-12.412-6.148-12.412
	c-3.596,0-5.916,2.088-5.916,6.961h-19.488L218.052,63.775z"/>
<line fill="none" stroke="#00ADEE" stroke-width="1.0105" stroke-miterlimit="10" x1="215.794" y1="51.102" x2="215.794" y2="184.287"/>
<line fill="none" stroke="#00ADEE" stroke-width="1.0105" stroke-miterlimit="10" x1="218.725" y1="51.102" x2="218.725" y2="184.287"/>
<line fill="none" stroke="#00ADEE" stroke-width="1.0105" stroke-miterlimit="10" x1="221.655" y1="51.102" x2="221.655" y2="184.287"/>
<line fill="none" stroke="#00ADEE" stroke-width="1.0105" stroke-miterlimit="10" x1="224.586" y1="51.102" x2="224.586" y2="184.287"/>
<line fill="none" stroke="#00ADEE" stroke-width="1.0105" stroke-miterlimit="10" x1="227.517" y1="51.102" x2="227.517" y2="184.287"/>
<line fill="none" stroke="#00ADEE" stroke-width="1.0105" stroke-miterlimit="10" x1="230.447" y1="51.102" x2="230.447" y2="184.287"/>
<line fill="none" stroke="#00ADEE" stroke-width="1.0105" stroke-miterlimit="10" x1="233.378" y1="51.102" x2="233.378" y2="184.287"/>
<line fill="none" stroke="#00ADEE" stroke-width="1.0105" stroke-miterlimit="10" x1="236.309" y1="51.102" x2="236.309" y2="184.287"/>
<line fill="none" stroke="#00ADEE" stroke-width="1.0105" stroke-miterlimit="10" x1="239.239" y1="51.102" x2="239.239" y2="184.287"/>
<line fill="none" stroke="#00ADEE" stroke-width="1.0105" stroke-miterlimit="10" x1="242.17" y1="51.102" x2="242.17" y2="184.287"/>
<line fill="none" stroke="#00ADEE" stroke-width="1.0105" stroke-miterlimit="10" x1="245.101" y1="51.102" x2="245.101" y2="184.287"/>
<line fill="none" stroke="#00ADEE" stroke-width="1.0105" stroke-miterlimit="10" x1="248.031" y1="51.102" x2="248.031" y2="184.287"/>
<line fill="none" stroke="#00ADEE" stroke-width="1.0105" stroke-miterlimit="10" x1="250.962" y1="51.102" x2="250.962" y2="184.287"/>
<line fill="none" stroke="#00ADEE" stroke-width="1.0105" stroke-miterlimit="10" x1="253.893" y1="51.102" x2="253.893" y2="184.287"/>
<line fill="none" stroke="#00ADEE" stroke-width="1.0105" stroke-miterlimit="10" x1="256.823" y1="51.102" x2="256.823" y2="184.287"/>
<line fill="none" stroke="#00ADEE" stroke-width="1.0105" stroke-miterlimit="10" x1="259.754" y1="51.102" x2="259.754" y2="184.287"/>
<line fill="none" stroke="#00ADEE" stroke-width="1.0105" stroke-miterlimit="10" x1="262.685" y1="51.102" x2="262.685" y2="184.287"/>
<line fill="none" stroke="#00ADEE" stroke-width="1.0105" stroke-miterlimit="10" x1="265.615" y1="51.102" x2="265.615" y2="184.287"/>
<line fill="none" stroke="#00ADEE" stroke-width="1.0105" stroke-miterlimit="10" x1="268.546" y1="51.102" x2="268.546" y2="184.287"/>
</svg>
