<?xml version="1.0" encoding="utf-8"?>
<!-- Generator: Adobe Illustrator 16.0.0, SVG Export Plug-In . SVG Version: 6.00 Build 0)  -->
<!DOCTYPE svg PUBLIC "-//W3C//DTD SVG 1.1//EN" "http://www.w3.org/Graphics/SVG/1.1/DTD/svg11.dtd">
<svg version="1.1" id="Layer_1" xmlns="http://www.w3.org/2000/svg" xmlns:xlink="http://www.w3.org/1999/xlink" x="0px" y="0px"
	 width="492px" height="184px" viewBox="0 0 492 184" enable-background="new 0 0 492 184" xml:space="preserve">
<path fill="#00ADEE" d="M290.847,81.523h6.961V63.08h20.879v18.443h8.236v14.035h-8.236v29.928c0,3.596,1.624,4.872,4.988,4.872
	h3.248v13.919c-3.828,0.465-7.889,0.696-11.368,0.696c-12.76,0-17.747-2.088-17.747-16.007V95.559h-6.961V81.523z"/>
<line fill="none" stroke="#00ADEE" stroke-width="1.0105" stroke-miterlimit="10" x1="291.405" y1="51.102" x2="291.405" y2="184.287"/>
<line fill="none" stroke="#00ADEE" stroke-width="1.0105" stroke-miterlimit="10" x1="294.336" y1="51.102" x2="294.336" y2="184.287"/>
<line fill="none" stroke="#00ADEE" stroke-width="1.0105" stroke-miterlimit="10" x1="297.267" y1="51.102" x2="297.267" y2="184.287"/>
<line fill="none" stroke="#00ADEE" stroke-width="1.0105" stroke-miterlimit="10" x1="300.197" y1="51.102" x2="300.197" y2="184.287"/>
<line fill="none" stroke="#00ADEE" stroke-width="1.0105" stroke-miterlimit="10" x1="303.128" y1="51.102" x2="303.128" y2="184.287"/>
<line fill="none" stroke="#00ADEE" stroke-width="1.0105" stroke-miterlimit="10" x1="306.059" y1="51.102" x2="306.059" y2="184.287"/>
<line fill="none" stroke="#00ADEE" stroke-width="1.0105" stroke-miterlimit="10" x1="308.989" y1="51.102" x2="308.989" y2="184.287"/>
<line fill="none" stroke="#00ADEE" stroke-width="1.0105" stroke-miterlimit="10" x1="311.92" y1="51.102" x2="311.92" y2="184.287"/>
<line fill="none" stroke="#00ADEE" stroke-width="1.0105" stroke-miterlimit="10" x1="314.851" y1="51.102" x2="314.851" y2="184.287"/>
<line fill="none" stroke="#00ADEE" stroke-width="1.0105" stroke-miterlimit="10" x1="317.781" y1="51.102" x2="317.781" y2="184.287"/>
<line fill="none" stroke="#00ADEE" stroke-width="1.0105" stroke-miterlimit="10" x1="320.712" y1="51.102" x2="320.712" y2="184.287"/>
<line fill="none" stroke="#00ADEE" stroke-width="1.0105" stroke-miterlimit="10" x1="323.643" y1="51.102" x2="323.643" y2="184.287"/>
<line fill="none" stroke="#00ADEE" stroke-width="1.0105" stroke-miterlimit="10" x1="326.573" y1="51.102" x2="326.573" y2="184.287"/>
</svg>
