<?xml version="1.0" encoding="utf-8"?>
<!-- Generator: Adobe Illustrator 16.0.0, SVG Export Plug-In . SVG Version: 6.00 Build 0)  -->
<!DOCTYPE svg PUBLIC "-//W3C//DTD SVG 1.1//EN" "http://www.w3.org/Graphics/SVG/1.1/DTD/svg11.dtd">
<svg version="1.1" id="Layer_1" xmlns="http://www.w3.org/2000/svg" xmlns:xlink="http://www.w3.org/1999/xlink" x="0px" y="0px"
	 width="492px" height="184px" viewBox="0 0 492 184" enable-background="new 0 0 492 184" xml:space="preserve">
<path fill="#00ADEE" d="M352.329,61.455h20.881v27.027h0.231c3.479-6.611,9.396-8.583,14.499-8.583
	c8.584,0,16.355,3.944,16.355,17.052v47.326h-20.879v-41.41c0-5.221-1.393-7.424-5.104-7.424c-3.713,0-5.104,2.203-5.104,7.424
	v41.41h-20.881V61.455z"/>
<line fill="none" stroke="#00ADEE" stroke-width="1.0105" stroke-miterlimit="10" x1="351.863" y1="51.102" x2="351.863" y2="184.287"/>
<line fill="none" stroke="#00ADEE" stroke-width="1.0105" stroke-miterlimit="10" x1="354.794" y1="51.102" x2="354.794" y2="184.287"/>
<line fill="none" stroke="#00ADEE" stroke-width="1.0105" stroke-miterlimit="10" x1="357.725" y1="51.102" x2="357.725" y2="184.287"/>
<line fill="none" stroke="#00ADEE" stroke-width="1.0105" stroke-miterlimit="10" x1="360.655" y1="51.102" x2="360.655" y2="184.287"/>
<line fill="none" stroke="#00ADEE" stroke-width="1.0105" stroke-miterlimit="10" x1="363.586" y1="51.102" x2="363.586" y2="184.287"/>
<line fill="none" stroke="#00ADEE" stroke-width="1.0105" stroke-miterlimit="10" x1="366.517" y1="51.102" x2="366.517" y2="184.287"/>
<line fill="none" stroke="#00ADEE" stroke-width="1.0105" stroke-miterlimit="10" x1="369.447" y1="51.102" x2="369.447" y2="184.287"/>
<line fill="none" stroke="#00ADEE" stroke-width="1.0105" stroke-miterlimit="10" x1="372.378" y1="51.102" x2="372.378" y2="184.287"/>
<line fill="none" stroke="#00ADEE" stroke-width="1.0105" stroke-miterlimit="10" x1="375.309" y1="51.102" x2="375.309" y2="184.287"/>
<line fill="none" stroke="#00ADEE" stroke-width="1.0105" stroke-miterlimit="10" x1="378.239" y1="51.102" x2="378.239" y2="184.287"/>
<line fill="none" stroke="#00ADEE" stroke-width="1.0105" stroke-miterlimit="10" x1="381.17" y1="51.102" x2="381.17" y2="184.287"/>
<line fill="none" stroke="#00ADEE" stroke-width="1.0105" stroke-miterlimit="10" x1="384.101" y1="51.102" x2="384.101" y2="184.287"/>
<line fill="none" stroke="#00ADEE" stroke-width="1.0105" stroke-miterlimit="10" x1="387.031" y1="51.102" x2="387.031" y2="184.287"/>
<line fill="none" stroke="#00ADEE" stroke-width="1.0105" stroke-miterlimit="10" x1="389.962" y1="51.102" x2="389.962" y2="184.287"/>
<line fill="none" stroke="#00ADEE" stroke-width="1.0105" stroke-miterlimit="10" x1="392.893" y1="51.102" x2="392.893" y2="184.287"/>
<line fill="none" stroke="#00ADEE" stroke-width="1.0105" stroke-miterlimit="10" x1="395.823" y1="51.102" x2="395.823" y2="184.287"/>
<line fill="none" stroke="#00ADEE" stroke-width="1.0105" stroke-miterlimit="10" x1="398.754" y1="51.102" x2="398.754" y2="184.287"/>
<line fill="none" stroke="#00ADEE" stroke-width="1.0105" stroke-miterlimit="10" x1="401.685" y1="51.102" x2="401.685" y2="184.287"/>
<line fill="none" stroke="#00ADEE" stroke-width="1.0105" stroke-miterlimit="10" x1="404.615" y1="51.102" x2="404.615" y2="184.287"/>
</svg>
