<?xml version="1.0" encoding="utf-8"?>
<!-- Generator: Adobe Illustrator 16.0.0, SVG Export Plug-In . SVG Version: 6.00 Build 0)  -->
<!DOCTYPE svg PUBLIC "-//W3C//DTD SVG 1.1//EN" "http://www.w3.org/Graphics/SVG/1.1/DTD/svg11.dtd">
<svg version="1.1" id="Layer_1" xmlns="http://www.w3.org/2000/svg" xmlns:xlink="http://www.w3.org/1999/xlink" x="0px" y="0px"
	 width="492px" height="184px" viewBox="0 0 492 184" enable-background="new 0 0 492 184" xml:space="preserve">
<rect x="-1.128" y="-0.89" fill="#414042" width="494.744" height="51.992"/>
<rect x="61.166" y="45.362" fill="#929497" width="71.955" height="5.74"/>
<rect x="84.835" y="40.862" fill="#929497" width="24.669" height="5.74"/>
<path fill="#808184" d="M492,51.102h-68.527v-5.74c0,0,11.02-13,34.328-13c23.312,0,34.199,13,34.199,13V51.102z"/>
<rect x="349.052" y="43.604" fill="#929497" width="57.244" height="7.497"/>
<rect x="171.044" fill="#929497" width="5.592" height="40.421"/>
<rect x="94.347" y="-0.189" fill="#929497" width="5.592" height="48.42"/>
<rect fill="#929497" width="8.504" height="184.627"/>
<rect x="236.892" fill="#A6A8AB" width="11.338" height="40.421"/>
<rect x="306.089" y="-0.34" fill="#A6A8AB" width="5.593" height="40.421"/>
<rect x="374.878" y="0.072" fill="#929497" width="5.593" height="48.42"/>
<rect x="455.227" y="-0.189" fill="#808184" width="5.593" height="48.42"/>
<rect x="289.288" y="31.479" fill="#A6A8AB" width="39.685" height="19.21"/>
<rect x="284.131" y="40.081" fill="#A6A8AB" width="49.76" height="11.021"/>
<rect x="214.215" y="39.551" fill="#A6A8AB" width="56.693" height="11.479"/>
<rect x="152.581" y="39.623" fill="#929497" width="42.52" height="11.479"/>
<rect x="185.083" y="39.623" fill="#808184" width="7.082" height="11.479"/>
<rect x="181.178" y="39.623" fill="#808184" width="2.541" height="11.479"/>
<rect x="126.137" y="45.362" fill="#6D6E70" width="4.438" height="5.74"/>
<rect x="122.646" y="45.362" fill="#808184" width="2.541" height="5.739"/>
<rect x="5.252" fill="#6D6E70" width="2.541" height="184.627"/>
<rect x="154.779" y="39.623" fill="#E6E7E8" width="1.316" height="11.479"/>
<rect x="63.707" y="45.362" fill="#E6E7E8" width="1.316" height="5.74"/>
<rect x="1" fill="#E6E7E8" width="1.316" height="184.627"/>
<rect x="65.821" y="45.362" fill="#E6E7E8" width="0.679" height="5.479"/>
<rect x="220.339" y="39.551" fill="#E6E7E8" width="1.316" height="11.479"/>
<rect x="285.764" y="40.081" fill="#E6E7E8" width="1.315" height="10.609"/>
<rect x="290.747" y="31.479" fill="#E6E7E8" width="1.315" height="8.602"/>
<rect x="261.02" y="39.551" fill="#808184" width="7.082" height="11.479"/>
<rect x="319.171" y="31.479" fill="#808184" width="7.082" height="8.554"/>
<rect x="314.809" y="31.479" fill="#808184" width="2.584" height="8.554"/>
<rect x="315.879" y="40.033" fill="#808184" width="2.584" height="11.068"/>
<rect x="310.336" fill="#808184" width="1.466" height="31.819"/>
<rect x="245.114" fill="#808184" width="2.116" height="39.551"/>
<rect x="242.995" fill="#808184" width="1.134" height="39.551"/>
<rect x="322.712" y="40.033" fill="#808184" width="7.082" height="11.068"/>
<rect x="257.111" y="39.551" fill="#808184" width="2.541" height="11.479"/>
<rect x="216.29" y="39.551" fill="#E6E7E8" width="2.485" height="11.479"/>
<circle fill="#929497" cx="27.178" cy="56.078" r="16.13"/>
<rect x="11.481" y="55.078" fill="#929497" width="5.591" height="54.82"/>
<rect x="11.481" y="112.188" fill="#929497" width="5.591" height="72.439"/>
<circle fill="#6D6E70" cx="27.178" cy="56.078" r="13.212"/>
<rect x="398.754" y="43.604" fill="#808184" width="4.932" height="7.497"/>
<rect x="395.172" y="43.604" fill="#808184" width="1.725" height="7.497"/>
<rect x="351.001" y="43.604" fill="#FFFFFF" width="1.726" height="7.497"/>
<rect x="375.387" fill="#FFFFFF" width="0.85" height="43.533"/>
<rect x="423.473" y="45.976" fill="#929497" width="68.527" height="4.865"/>
<polygon fill="#FFFFFF" points="449.784,34.925 427.908,45.976 440.988,45.976 "/>
<rect x="427.908" y="45.976" fill="#FFFFFF" width="13.08" height="4.865"/>
</svg>
