<?xml version="1.0" encoding="utf-8"?>
<!-- Generator: Adobe Illustrator 15.0.2, SVG Export Plug-In . SVG Version: 6.00 Build 0)  -->
<!DOCTYPE svg PUBLIC "-//W3C//DTD SVG 1.1//EN" "http://www.w3.org/Graphics/SVG/1.1/DTD/svg11.dtd">
<svg version="1.1" id="Layer_1" xmlns="http://www.w3.org/2000/svg" xmlns:xlink="http://www.w3.org/1999/xlink" x="0px" y="0px"
	 width="740px" height="350px" viewBox="0 0 740 350" enable-background="new 0 0 740 350" xml:space="preserve">
<g id="Layer_1_1_">
	<rect x="32" y="34.844" fill="#603913" width="675.334" height="315.156"/>
	<rect x="62.015" y="148.9" fill="#89D4E3" width="66.033" height="201.1"/>
	<rect x="140.054" y="148.9" fill="#89D4E3" width="69.034" height="201.1"/>
	<rect x="221.094" y="148.9" fill="#89D4E3" width="144.071" height="192.095"/>
	<rect x="377.171" y="148.9" fill="#89D4E3" width="144.071" height="192.095"/>
	<rect x="533.248" y="148.9" fill="#89D4E3" width="144.071" height="192.095"/>
	<rect x="79.783" y="59.194" fill="#FFFFFF" width="576.279" height="61.108"/>
	<g>
		<path fill="#3C2415" d="M178.565,81.805h-7.578v19.713h-6.619V81.805h-7.579v-5.694h21.778L178.565,81.805L178.565,81.805z"/>
		<path fill="#3C2415" d="M186.121,82.519c5.729,0,9.752,4.232,9.752,9.786c0,5.553-4.023,9.751-9.752,9.751
			c-5.73,0-9.717-4.199-9.717-9.751C176.404,86.751,180.39,82.519,186.121,82.519z M186.121,97.431c2.812,0,3.701-2.777,3.701-5.126
			c0-2.345-0.888-5.161-3.701-5.161s-3.666,2.815-3.666,5.161C182.455,94.654,183.311,97.431,186.121,97.431z"/>
		<path fill="#3C2415" d="M220.893,101.521h-6.123l-2.918-12.279h-0.069l-2.881,12.279h-6.12l-5.766-18.468h6.12l3.097,11.958h0.069
			l2.633-11.958h5.766l2.704,11.922h0.072l3.026-11.922h6.155L220.893,101.521z"/>
		<path fill="#3C2415" d="M228.691,83.054h5.87v2.527h0.073c1.104-1.888,3.592-3.062,5.801-3.062c6.157,0,6.655,4.484,6.655,7.153
			v11.849h-6.048V92.59c0-2.528,0.286-5.088-3.025-5.088c-2.279,0-3.276,1.921-3.276,3.947v10.07h-6.05V83.054z"/>
		<path fill="#3C2415" d="M262.577,76.111h12.063c4.734,0,9.182,2.173,9.182,8.188c0,6.301-3.592,8.755-9.182,8.755h-5.445v8.467
			h-6.618V76.111L262.577,76.111z M269.195,87.931h4.448c2.065,0,3.56-0.856,3.56-3.17c0-2.383-1.53-3.343-3.56-3.343h-4.448V87.931
			z"/>
		<path fill="#3C2415" d="M286.922,76.111h6.051v25.41h-6.051V76.111z"/>
		<path fill="#3C2415" d="M315.608,101.521h-5.871v-2.527h-0.073c-1.137,1.885-3.486,3.062-5.621,3.062
			c-5.304,0-6.832-3.062-6.832-7.901V83.054h6.051v10.709c0,2.456,1.065,3.313,2.99,3.313c1.317,0,3.311-0.854,3.311-4.13v-9.893
			h6.051v18.468H315.608z"/>
		<path fill="#3C2415" d="M319.668,83.054h5.871v2.527h0.074c1.104-1.851,3.06-3.062,5.302-3.062c2.314,0,4.376,0.747,5.373,2.99
			c1.46-1.957,3.275-2.99,5.766-2.99c5.871,0,6.512,4.449,6.512,7.973v11.03h-6.049V90.669c0-1.993-0.961-3.167-2.528-3.167
			c-2.599,0-2.848,1.993-2.848,4.983v9.037h-6.051V91.025c0-2.172-0.639-3.523-2.277-3.523c-2.171,0-3.096,1.243-3.096,5.018v9.001
			h-6.051L319.668,83.054L319.668,83.054z"/>
		<path fill="#3C2415" d="M352.628,76.111h6.05v8.968h0.069c1.246-1.704,2.99-2.563,5.269-2.563c5.231,0,7.794,4.556,7.794,9.359
			c0,5.195-2.455,10.178-8.257,10.178c-2.134,0-3.913-0.924-5.087-2.671h-0.069v2.137h-5.766L352.628,76.111L352.628,76.111z
			 M358.463,92.092c0,3.235,0.925,5.336,3.664,5.336c2.705,0,3.628-2.812,3.628-5.336c0-2.351-0.926-4.948-3.595-4.948
			C360.528,87.144,358.463,88.283,358.463,92.092z"/>
		<path fill="#3C2415" d="M381.315,80.74h-6.05v-4.628h6.05V80.74z M375.266,83.054h6.05v18.468h-6.05V83.054z"/>
		<path fill="#3C2415" d="M385.586,83.054h5.871v2.527h0.073c1.103-1.888,3.594-3.062,5.801-3.062c6.158,0,6.656,4.484,6.656,7.153
			v11.849h-6.05V92.59c0-2.528,0.287-5.088-3.024-5.088c-2.28,0-3.277,1.921-3.277,3.947v10.07h-6.05V83.054L385.586,83.054z"/>
		<path fill="#3C2415" d="M425.877,99.279c0,3.026-0.565,8.717-9.215,8.717c-4.309,0-8.362-0.957-9.075-5.907h6.05
			c0.146,0.816,0.463,1.314,1.035,1.603c0.533,0.283,1.281,0.39,2.207,0.39c2.878,0,3.166-2.029,3.166-4.308V98.03h-0.07
			c-1.103,1.709-2.955,2.706-4.91,2.706c-5.584,0-8.113-3.986-8.113-9.182c0-4.914,2.881-9.041,8.113-9.041
			c2.207,0,3.878,0.961,4.945,2.846h0.066v-2.314h5.807v16.234H425.877z M416.516,87.144c-2.674,0-3.523,2.351-3.523,4.625
			c0,2.173,0.996,4.344,3.488,4.344c2.562,0,3.664-1.993,3.664-4.31C420.145,89.458,419.221,87.144,416.516,87.144z"/>
		<path fill="#3C2415" d="M446.378,92.98c0.141,2.99,1.993,3.95,4.81,3.95c1.993,0,4.06-0.711,4.06-2.6
			c0-2.238-3.628-2.667-7.298-3.698c-3.629-1.032-7.439-2.667-7.439-7.33c0-5.553,5.587-7.723,10.353-7.723
			c5.054,0,10.142,2.456,10.177,8.188h-6.615c0.103-2.314-2.066-3.064-4.092-3.064c-1.428,0-3.198,0.498-3.198,2.176
			c0,1.954,3.664,2.311,7.363,3.341c3.664,1.032,7.363,2.744,7.363,7.333c0,6.441-5.476,8.503-11.068,8.503
			c-5.833,0-10.995-2.563-11.032-9.073L446.378,92.98L446.378,92.98z"/>
		<path fill="#3C2415" d="M483.072,101.521h-5.871v-2.527h-0.07c-1.14,1.885-3.487,3.062-5.621,3.062
			c-5.306,0-6.836-3.062-6.836-7.901V83.054h6.056v10.709c0,2.456,1.062,3.313,2.99,3.313c1.312,0,3.312-0.854,3.312-4.13v-9.893
			h6.053v18.468H483.072z"/>
		<path fill="#3C2415" d="M487.133,83.054h5.768v2.134h0.068c1.175-1.741,2.951-2.668,5.085-2.668c5.804,0,8.26,4.983,8.26,10.178
			c0,4.806-2.564,9.359-7.797,9.359c-2.28,0-4.024-0.853-5.27-2.528h-0.064v8.188h-6.056L487.133,83.054L487.133,83.054z
			 M492.971,92.092c0,3.235,0.927,5.336,3.664,5.336c2.706,0,3.629-2.812,3.629-5.336c0-2.351-0.926-4.948-3.594-4.948
			C495.035,87.144,492.971,88.283,492.971,92.092z"/>
		<path fill="#3C2415" d="M509.556,83.054h5.769v2.134h0.064c1.178-1.741,2.954-2.668,5.088-2.668c5.804,0,8.258,4.983,8.258,10.178
			c0,4.806-2.565,9.359-7.8,9.359c-2.274,0-4.021-0.853-5.265-2.528h-0.067v8.188h-6.053V83.054H509.556z M515.392,92.092
			c0,3.235,0.923,5.336,3.667,5.336c2.702,0,3.629-2.812,3.629-5.336c0-2.351-0.93-4.948-3.594-4.948
			C517.458,87.144,515.392,88.283,515.392,92.092z"/>
		<path fill="#3C2415" d="M532.195,76.111h6.05v25.41h-6.05V76.111z"/>
		<path fill="#3C2415" d="M548.78,80.74h-6.05v-4.628h6.05V80.74z M542.73,83.054h6.05v18.468h-6.05V83.054z"/>
		<path fill="#3C2415" d="M558.213,93.763c0.105,2.528,1.562,4.199,4.127,4.199c1.459,0,2.878-0.677,3.446-2.028h5.663
			c-1.102,4.271-5.056,6.12-9.186,6.12c-6.016,0-10.107-3.628-10.107-9.821c0-5.658,4.526-9.713,9.967-9.713
			c6.618,0,9.93,4.983,9.643,11.244H558.213z M565.722,90.383c-0.108-2.065-1.565-3.772-3.593-3.772
			c-2.135,0-3.559,1.53-3.916,3.772H565.722z"/>
		<path fill="#3C2415" d="M579.498,95.438c0,0.925,0.391,1.603,0.997,2.065c0.568,0.429,1.386,0.642,2.239,0.642
			c1.176,0,2.849-0.498,2.849-1.956c0-1.426-1.888-1.708-2.954-1.957c-3.811-0.961-8.576-1.065-8.576-6.051
			c0-4.448,4.81-5.658,8.438-5.658c4.057,0,8.289,1.174,8.5,5.979h-5.584c0-0.786-0.284-1.284-0.782-1.604
			c-0.498-0.318-1.182-0.458-1.926-0.458c-0.997,0-2.597,0.105-2.597,1.386c0,1.744,4.06,2.065,6.829,2.672
			c3.737,0.745,4.698,3.448,4.698,4.98c0,4.943-4.698,6.582-8.86,6.582c-4.376,0-8.861-1.455-9.04-6.618L579.498,95.438
			L579.498,95.438z"/>
	</g>
</g>
</svg>
