<?xml version="1.0" encoding="utf-8"?>
<!-- Generator: Adobe Illustrator 16.0.0, SVG Export Plug-In . SVG Version: 6.00 Build 0)  -->
<!DOCTYPE svg PUBLIC "-//W3C//DTD SVG 1.1//EN" "http://www.w3.org/Graphics/SVG/1.1/DTD/svg11.dtd">
<svg version="1.1" id="Layer_3" xmlns="http://www.w3.org/2000/svg" xmlns:xlink="http://www.w3.org/1999/xlink" x="0px" y="0px"
	 width="236px" height="112px" viewBox="0 0 236 112" enable-background="new 0 0 236 112" xml:space="preserve">
<rect x="5.667" y="7" fill="#414042" width="225" height="105"/>
<rect x="15.667" y="45" fill="#89D4E3" width="22" height="67"/>
<rect x="41.667" y="45" fill="#89D4E3" width="23" height="67"/>
<rect x="68.667" y="45" fill="#89D4E3" width="48" height="64"/>
<rect x="120.667" y="45" fill="#89D4E3" width="48" height="64"/>
<rect x="172.667" y="45" fill="#89D4E3" width="48" height="64"/>
<path d="M133.853,24.457c0.014,0.001,0.026,0.002,0.038,0.002"/>
<rect x="84.701" y="76.275" fill="#FFFFFF" width="0.355" height="0"/>
<rect x="81.298" fill="#E6E7E8" width="73.816" height="35.166"/>
<g>
	<path fill="#003767" d="M119.21,8.308c-14.926,0-26.186,2.297-26.186,2.297s-1.879,0.295-1.879,2.021V24.47
		c0,1.632,1.879,1.949,1.879,1.949s11.399,2.493,26.186,2.493c14.779,0,26.186-2.493,26.186-2.493s1.879-0.317,1.879-1.949V12.627
		c0-1.727-1.879-2.021-1.879-2.021S134.134,8.308,119.21,8.308z"/>
	<path fill="#FFFFFF" d="M100.639,16.254h0.031c0.556-0.994,1.501-1.436,2.623-1.436h0.549v2.759
		c-0.391-0.217-0.768-0.264-1.21-0.264c-1.596,0-1.993,1.057-1.993,2.444v3.268h-2.87V14.93h2.87V16.254z"/>
	<path fill="#FFFFFF" d="M113.462,19.46h-6.043c0,1.166,0.617,1.801,1.798,1.801c0.618,0,1.06-0.207,1.374-0.746h2.763
		c-0.46,1.913-2.276,2.78-4.118,2.78c-2.687,0-4.688-1.515-4.688-4.309c0-2.702,1.842-4.325,4.479-4.325
		c2.812,0,4.434,1.737,4.434,4.498V19.46z M110.794,17.803c-0.139-0.776-0.852-1.278-1.622-1.278c-0.838,0-1.532,0.439-1.704,1.278
		H110.794z"/>
	<path fill="#FFFFFF" d="M123.347,19.46h-6.05c0,1.166,0.621,1.801,1.805,1.801c0.612,0,1.054-0.207,1.37-0.746h2.762
		c-0.452,1.913-2.27,2.78-4.118,2.78c-2.681,0-4.687-1.515-4.687-4.309c0-2.702,1.846-4.325,4.478-4.325
		c2.812,0,4.44,1.737,4.44,4.498V19.46z M120.679,17.803c-0.145-0.776-0.857-1.278-1.628-1.278c-0.833,0-1.533,0.439-1.702,1.278
		H120.679z"/>
	<path fill="#FFFFFF" d="M140.84,19.46h-6.043c0,1.166,0.612,1.801,1.799,1.801c0.612,0,1.053-0.207,1.368-0.746h2.764
		c-0.456,1.913-2.271,2.78-4.12,2.78c-2.681,0-4.688-1.515-4.688-4.309c0-2.702,1.848-4.325,4.479-4.325
		c2.813,0,4.441,1.737,4.441,4.498V19.46z M138.172,17.803c-0.138-0.776-0.852-1.278-1.627-1.278c-0.833,0-1.528,0.439-1.703,1.278
		H138.172z"/>
	<path fill="#FFFFFF" d="M130.698,17.563c-0.424-0.316-0.934-0.568-1.483-0.568c-1.104,0-1.974,0.852-1.974,1.97
		c0,1.171,0.832,1.995,2.017,1.995c0.506,0,1.062-0.205,1.44-0.555l0.731,2.028c-0.903,0.688-2.057,0.863-2.751,0.863
		c-2.402,0-4.409-1.784-4.409-4.232c0-2.608,1.995-4.403,4.535-4.403c0.663,0,1.931,0.29,2.644,0.903L130.698,17.563z"/>
</g>
<rect x="172" fill="#ED1C24" width="64" height="23"/>
<g>
	<path fill="#FFFFFF" d="M179.389,5.569h1.043v0.663h0.019c0.309-0.559,0.907-0.795,1.544-0.795c1.574,0,2.336,1.174,2.336,2.604
		c0,1.316-0.676,2.556-2.152,2.556c-0.638,0-1.323-0.227-1.67-0.766h-0.02v2.442h-1.101V5.569z M181.851,6.289
		c-0.927,0-1.4,0.69-1.4,1.733c0,0.985,0.512,1.723,1.4,1.723c1.004,0,1.38-0.872,1.38-1.723
		C183.231,7.131,182.758,6.289,181.851,6.289z"/>
	<path fill="#FFFFFF" d="M185.286,3.705h1.1v6.76h-1.1V3.705z"/>
	<path fill="#FFFFFF" d="M191.965,10.464h-1.082V9.783h-0.019c-0.27,0.493-0.868,0.814-1.419,0.814
		c-1.303,0-1.863-0.643-1.863-1.921V5.569h1.101v3.002c0,0.861,0.356,1.174,0.955,1.174c0.918,0,1.226-0.578,1.226-1.335V5.569
		h1.101V10.464z"/>
	<path fill="#FFFFFF" d="M193.121,5.569h1.043v0.682h0.029c0.327-0.483,0.743-0.814,1.534-0.814c0.608,0,1.178,0.255,1.4,0.814
		c0.367-0.502,0.84-0.814,1.564-0.814c1.052,0,1.67,0.454,1.67,1.646v3.381h-1.101V7.605c0-0.776-0.048-1.316-0.908-1.316
		c-0.743,0-1.061,0.483-1.061,1.307v2.869h-1.101V7.321c0-0.672-0.212-1.032-0.879-1.032c-0.568,0-1.09,0.455-1.09,1.269v2.907
		h-1.101V5.569z"/>
	<path fill="#FFFFFF" d="M201.545,3.705h1.101v2.5h0.019c0.299-0.474,0.926-0.767,1.486-0.767c1.574,0,2.336,1.174,2.336,2.604
		c0,1.316-0.676,2.556-2.152,2.556c-0.676,0-1.4-0.161-1.729-0.804h-0.019v0.672h-1.042V3.705z M204.007,6.289
		c-0.927,0-1.4,0.69-1.4,1.733c0,0.985,0.512,1.723,1.4,1.723c1.004,0,1.38-0.872,1.38-1.723
		C205.387,7.131,204.914,6.289,204.007,6.289z"/>
	<path fill="#FFFFFF" d="M207.441,3.705h1.101v1.022h-1.101V3.705z M207.441,5.569h1.101v4.895h-1.101V5.569z"/>
	<path fill="#FFFFFF" d="M209.738,5.569h1.042v0.72l0.02,0.019c0.328-0.54,0.897-0.871,1.554-0.871c1.082,0,1.767,0.568,1.767,1.666
		v3.361h-1.101V7.387c-0.019-0.767-0.327-1.098-0.974-1.098c-0.734,0-1.207,0.568-1.207,1.288v2.888h-1.101V5.569z"/>
	<path fill="#FFFFFF" d="M219.891,10.209c0,1.467-0.878,2.196-2.452,2.196c-1.003,0-2.133-0.378-2.229-1.524h1.101
		c0.135,0.615,0.637,0.72,1.197,0.72c0.888,0,1.284-0.445,1.284-1.25V9.604h-0.02c-0.309,0.539-0.878,0.861-1.497,0.861
		c-1.582,0-2.238-1.174-2.238-2.575c0-1.316,0.839-2.453,2.258-2.453c0.628,0,1.197,0.255,1.478,0.804h0.02V5.569h1.1V10.209z
		 M218.791,7.908c0-0.843-0.387-1.619-1.343-1.619c-0.974,0-1.313,0.891-1.313,1.705c0,0.805,0.396,1.619,1.313,1.619
		C218.424,9.612,218.791,8.741,218.791,7.908z"/>
	<path fill="#FFFFFF" d="M182.729,15.919c-0.086-0.595-0.53-0.918-1.138-0.918c-0.569,0-1.372,0.294-1.372,1.779
		c0,0.814,0.367,1.677,1.322,1.677c0.638,0,1.082-0.417,1.188-1.117h1.101c-0.203,1.27-1.004,1.969-2.289,1.969
		c-1.563,0-2.422-1.088-2.422-2.528c0-1.475,0.82-2.631,2.462-2.631c1.158,0,2.143,0.568,2.249,1.77H182.729z"/>
	<path fill="#FFFFFF" d="M185.584,17.009c0,0.768,0.425,1.448,1.342,1.448c0.638,0,1.023-0.275,1.216-0.814h1.043
		c-0.241,1.069-1.168,1.666-2.259,1.666c-1.563,0-2.442-1.069-2.442-2.574c0-1.392,0.926-2.585,2.413-2.585
		c1.574,0,2.54,1.391,2.356,2.859H185.584z M188.152,16.298c-0.039-0.681-0.511-1.297-1.255-1.297c-0.762,0-1.284,0.568-1.312,1.297
		H188.152z"/>
	<path fill="#FFFFFF" d="M190.091,14.282h1.043v0.719l0.019,0.019c0.328-0.54,0.897-0.871,1.554-0.871
		c1.081,0,1.766,0.568,1.766,1.666v3.361h-1.1v-3.078c-0.02-0.766-0.328-1.098-0.975-1.098c-0.735,0-1.207,0.568-1.207,1.288v2.888
		h-1.101V14.282z"/>
	<path fill="#FFFFFF" d="M195.128,14.282h0.83v-1.467h1.101v1.467h0.995v0.805h-0.995v2.613c0,0.444,0.039,0.672,0.531,0.672
		c0.154,0,0.31,0,0.464-0.036v0.833c-0.242,0.019-0.474,0.055-0.714,0.055c-1.149,0-1.362-0.434-1.381-1.249v-2.887h-0.83V14.282z"
		/>
	<path fill="#FFFFFF" d="M198.844,14.282h1.033v0.947h0.02c0.125-0.521,0.782-1.079,1.458-1.079c0.25,0,0.319,0.019,0.416,0.028
		v1.042c-0.155-0.019-0.319-0.048-0.474-0.048c-0.753,0-1.351,0.597-1.351,1.677v2.329h-1.101V14.282z"/>
	<path fill="#FFFFFF" d="M202.926,17.009c0,0.768,0.425,1.448,1.342,1.448c0.638,0,1.024-0.275,1.216-0.814h1.043
		c-0.241,1.069-1.168,1.666-2.259,1.666c-1.563,0-2.442-1.069-2.442-2.574c0-1.392,0.927-2.585,2.413-2.585
		c1.574,0,2.54,1.391,2.355,2.859H202.926z M205.494,16.298c-0.038-0.681-0.511-1.297-1.255-1.297c-0.763,0-1.284,0.568-1.313,1.297
		H205.494z"/>
</g>
<rect x="84.701" y="76.019" fill="#FFFFFF" width="0.355" height="0"/>
</svg>
