<?xml version="1.0" encoding="utf-8"?>
<!-- Generator: Adobe Illustrator 15.0.2, SVG Export Plug-In . SVG Version: 6.00 Build 0)  -->
<!DOCTYPE svg PUBLIC "-//W3C//DTD SVG 1.1//EN" "http://www.w3.org/Graphics/SVG/1.1/DTD/svg11.dtd">
<svg version="1.1" id="Layer_1" xmlns="http://www.w3.org/2000/svg" xmlns:xlink="http://www.w3.org/1999/xlink" x="0px" y="0px"
	 width="178px" height="171px" viewBox="0 0 178 171" enable-background="new 0 0 178 171" xml:space="preserve">
<polygon fill="#804315" points="178,171 0,171 15,148.322 165,148.322 "/>
<line fill="none" stroke="#FFFFFF" stroke-width="2.0042" stroke-miterlimit="10" x1="49.364" y1="67.161" x2="49.364" y2="65.658"/>
<rect x="73.003" y="6.289" fill="#FFFFFF" width="56.665" height="44.6"/>
<g>
	
		<rect x="73.003" y="6.289" fill="none" stroke="#000000" stroke-width="3.7382" stroke-linecap="round" stroke-linejoin="round" stroke-miterlimit="10" width="56.665" height="44.6"/>
</g>
<rect x="73.003" y="100.198" fill="#908270" width="56.665" height="22.188"/>
<rect x="73.003" y="100.198" fill="none" stroke="#000000" stroke-width="3.7382" stroke-miterlimit="10" width="56.665" height="22.188"/>
<polygon fill="#003865" points="129.668,100.198 73.002,100.198 73.002,75.615 59.187,75.675 73.002,56.15 73.002,50.889 
	129.668,50.889 129.668,56.211 145.111,76.081 129.668,76.021 "/>
<polygon fill="none" stroke="#000000" stroke-width="3.7382" stroke-linecap="round" stroke-linejoin="round" stroke-miterlimit="10" points="
	129.668,100.198 73.002,100.198 73.002,75.615 59.187,75.675 73.002,56.15 73.002,50.889 129.668,50.889 129.668,56.211 
	145.111,76.081 129.668,76.021 "/>
<g>
	<path d="M88.767,19.004c0,1.63-1.322,2.949-2.951,2.949c-1.632,0-2.953-1.318-2.953-2.949c0-1.632,1.321-2.952,2.953-2.952
		C87.445,16.052,88.767,17.372,88.767,19.004"/>
	<path d="M108.723,19.004c0,1.63-1.324,2.949-2.951,2.949c-1.629,0-2.955-1.318-2.955-2.949c0-1.632,1.326-2.952,2.955-2.952
		C107.398,16.052,108.723,17.372,108.723,19.004"/>
</g>
<rect x="77.99" y="12.282" width="13.145" height="3.918"/>
<rect x="77.99" y="12.282" fill="none" stroke="#000000" stroke-width="1.4018" stroke-linecap="round" stroke-linejoin="round" stroke-miterlimit="10" width="13.145" height="3.918"/>
<rect x="100.785" y="9.073" transform="matrix(0.9289 0.3704 -0.3704 0.9289 11.7208 -38.9784)" width="13.148" height="3.918"/>
<g>
	
		<rect x="100.785" y="9.073" transform="matrix(0.9289 0.3704 -0.3704 0.9289 11.7208 -38.9784)" fill="none" stroke="#000000" stroke-width="1.4018" stroke-linecap="round" stroke-linejoin="round" stroke-miterlimit="10" width="13.148" height="3.918"/>
</g>
<rect x="68.835" y="19.002" width="3.059" height="10.754"/>
<rect x="131.244" y="19.002" width="3.062" height="10.754"/>
<rect x="74.851" y="29.758" fill="#DADADA" width="52.936" height="19.248"/>
<g>
	
		<path fill="none" stroke="#000000" stroke-width="3.041" stroke-linecap="round" stroke-linejoin="round" stroke-miterlimit="10" d="
		M86.134,34.875c0,0,2.483,14.924,23.524,0"/>
</g>
<rect x="11.209" y="98.513" fill="#FFFFFF" width="159.015" height="8.226"/>
<rect x="66.395" y="124.257" fill="#FFFFFF" width="68.102" height="9.897"/>
<rect x="66.395" y="124.257" fill="none" stroke="#000000" stroke-width="1.8253" stroke-miterlimit="10" width="68.102" height="9.897"/>
<rect x="70.354" y="134.474" fill="#FFFFFF" width="8.909" height="23.833"/>
<g>
	
		<rect x="70.354" y="134.474" fill="none" stroke="#000000" stroke-width="1.8253" stroke-miterlimit="10" width="8.909" height="23.833"/>
</g>
<rect x="15.81" y="106.792" fill="#FFFFFF" width="8.908" height="51.515"/>
<rect x="157.043" y="106.792" fill="#FFFFFF" width="8.908" height="51.515"/>
<g>
	
		<rect x="11.209" y="98.513" fill="none" stroke="#000000" stroke-width="1.8253" stroke-miterlimit="10" width="159.015" height="8.226"/>
	
		<rect x="15.81" y="106.792" fill="none" stroke="#000000" stroke-width="1.8253" stroke-miterlimit="10" width="8.908" height="51.515"/>
	
		<rect x="157.043" y="106.792" fill="none" stroke="#000000" stroke-width="1.8253" stroke-miterlimit="10" width="8.908" height="51.515"/>
</g>
<rect x="120.971" y="134.474" fill="#FFFFFF" width="8.906" height="23.833"/>
<g>
	
		<rect x="120.971" y="134.474" fill="none" stroke="#000000" stroke-width="2.0042" stroke-miterlimit="10" width="8.906" height="23.833"/>
	<path d="M97.08,131.691c2.551,11.571-0.004,21.973-5.701,23.227c-5.697,1.259-12.384-7.105-14.934-18.679
		c-2.551-11.573,0.001-21.974,5.7-23.228C87.843,111.756,94.529,120.12,97.08,131.691"/>
	<path d="M125.418,136.105c-2.396,11.604-8.975,20.055-14.689,18.871c-5.713-1.179-8.4-11.545-6.004-23.149
		c2.4-11.606,8.977-20.055,14.689-18.874C125.129,114.132,127.818,124.499,125.418,136.105"/>
</g>
<path fill="none" stroke="#000000" stroke-width="5.1401" stroke-linecap="round" stroke-linejoin="round" stroke-miterlimit="10" d="
	M82.206,97.232l4.471-12.15L75.621,93.72 M68.074,76.286L61.27,91.078l23.841-4.245l5.682,9.968 M105.771,93.603l10.525-3.038
	l-1.049,6.074 M136.904,76.286l1.768,14.278l-20.541-0.186l-10.771-5.278"/>
<rect x="29.83" y="47.881" fill="#3C3C3B" width="66.779" height="44.438"/>
<rect x="29.83" y="47.881" fill="none" stroke="#000000" stroke-width="3.0063" stroke-miterlimit="10" width="66.779" height="44.438"/>
<rect x="55.33" y="92.318" width="12.775" height="6.194"/>
<g>
	
		<line fill="#D9B084" stroke="#000000" stroke-width="1.3689" stroke-linecap="round" stroke-linejoin="round" stroke-miterlimit="10" x1="73.499" y1="6.29" x2="73.499" y2="0.703"/>
	
		<line fill="#D9B084" stroke="#000000" stroke-width="1.3689" stroke-linecap="round" stroke-linejoin="round" stroke-miterlimit="10" x1="76.502" y1="6.29" x2="76.502" y2="0.703"/>
	
		<line fill="#D9B084" stroke="#000000" stroke-width="1.3689" stroke-linecap="round" stroke-linejoin="round" stroke-miterlimit="10" x1="79.507" y1="6.29" x2="79.507" y2="0.703"/>
	
		<line fill="#D9B084" stroke="#000000" stroke-width="1.3689" stroke-linecap="round" stroke-linejoin="round" stroke-miterlimit="10" x1="82.51" y1="6.29" x2="82.51" y2="0.703"/>
	
		<line fill="#D9B084" stroke="#000000" stroke-width="1.3689" stroke-linecap="round" stroke-linejoin="round" stroke-miterlimit="10" x1="85.515" y1="6.29" x2="85.515" y2="0.703"/>
	
		<line fill="#D9B084" stroke="#000000" stroke-width="1.3689" stroke-linecap="round" stroke-linejoin="round" stroke-miterlimit="10" x1="88.519" y1="6.29" x2="88.519" y2="0.703"/>
	
		<line fill="#D9B084" stroke="#000000" stroke-width="1.3689" stroke-linecap="round" stroke-linejoin="round" stroke-miterlimit="10" x1="91.523" y1="6.29" x2="91.523" y2="0.703"/>
	
		<line fill="#D9B084" stroke="#000000" stroke-width="1.3689" stroke-linecap="round" stroke-linejoin="round" stroke-miterlimit="10" x1="94.527" y1="6.29" x2="94.527" y2="0.703"/>
	
		<line fill="#D9B084" stroke="#000000" stroke-width="1.3689" stroke-linecap="round" stroke-linejoin="round" stroke-miterlimit="10" x1="97.533" y1="6.29" x2="97.533" y2="0.703"/>
	
		<line fill="#D9B084" stroke="#000000" stroke-width="1.3689" stroke-linecap="round" stroke-linejoin="round" stroke-miterlimit="10" x1="100.535" y1="6.29" x2="100.535" y2="0.703"/>
	
		<line fill="#D9B084" stroke="#000000" stroke-width="1.3689" stroke-linecap="round" stroke-linejoin="round" stroke-miterlimit="10" x1="103.541" y1="6.29" x2="103.541" y2="0.703"/>
	
		<line fill="#D9B084" stroke="#000000" stroke-width="1.3689" stroke-linecap="round" stroke-linejoin="round" stroke-miterlimit="10" x1="106.545" y1="6.29" x2="106.545" y2="0.703"/>
	
		<line fill="#D9B084" stroke="#000000" stroke-width="1.3689" stroke-linecap="round" stroke-linejoin="round" stroke-miterlimit="10" x1="109.547" y1="6.29" x2="109.547" y2="0.703"/>
	
		<line fill="#D9B084" stroke="#000000" stroke-width="1.3689" stroke-linecap="round" stroke-linejoin="round" stroke-miterlimit="10" x1="112.553" y1="6.29" x2="112.553" y2="0.703"/>
	
		<line fill="#D9B084" stroke="#000000" stroke-width="1.3689" stroke-linecap="round" stroke-linejoin="round" stroke-miterlimit="10" x1="115.557" y1="6.29" x2="115.557" y2="0.703"/>
	
		<line fill="#D9B084" stroke="#000000" stroke-width="1.3689" stroke-linecap="round" stroke-linejoin="round" stroke-miterlimit="10" x1="118.561" y1="6.29" x2="118.561" y2="0.703"/>
	
		<line fill="#D9B084" stroke="#000000" stroke-width="1.3689" stroke-linecap="round" stroke-linejoin="round" stroke-miterlimit="10" x1="121.564" y1="6.29" x2="121.564" y2="0.703"/>
	
		<line fill="#D9B084" stroke="#000000" stroke-width="1.3689" stroke-linecap="round" stroke-linejoin="round" stroke-miterlimit="10" x1="124.568" y1="6.29" x2="124.568" y2="0.703"/>
	
		<line fill="#D9B084" stroke="#000000" stroke-width="1.3689" stroke-linecap="round" stroke-linejoin="round" stroke-miterlimit="10" x1="127.574" y1="6.29" x2="127.574" y2="0.703"/>
	
		<line fill="#D9B084" stroke="#000000" stroke-width="1.3689" stroke-linecap="round" stroke-linejoin="round" stroke-miterlimit="10" x1="130.576" y1="6.29" x2="130.576" y2="0.703"/>
</g>
<g>
	<g>
		<path fill="#003865" d="M114.555,66.018c-4.062,0-7.253-0.687-7.284-0.693c-0.241-0.041-0.719-0.26-0.719-0.787v-3.271
			c0-0.547,0.479-0.768,0.733-0.808c0.02-0.004,3.17-0.636,7.27-0.636c4.098,0,7.25,0.631,7.281,0.638
			c0.242,0.039,0.72,0.259,0.72,0.806v3.271c0,0.526-0.477,0.746-0.729,0.789C121.808,65.332,118.615,66.018,114.555,66.018z"/>
		<path fill="#FFFFFF" d="M114.555,60.077c4.119,0,7.23,0.633,7.23,0.633s0.518,0.082,0.518,0.558v3.271
			c0,0.451-0.518,0.539-0.518,0.539s-3.15,0.688-7.23,0.688c-4.082,0-7.23-0.688-7.23-0.688s-0.52-0.088-0.52-0.539v-3.271
			c0-0.476,0.52-0.558,0.52-0.558S110.434,60.077,114.555,60.077 M114.555,59.57c-4.125,0-7.202,0.617-7.331,0.643
			c-0.435,0.068-0.926,0.43-0.926,1.054v3.271c0,0.604,0.488,0.962,0.941,1.039c0.107,0.024,3.226,0.695,7.315,0.695
			c4.088,0,7.208-0.671,7.339-0.699c0.429-0.072,0.916-0.43,0.916-1.034v-3.271c0-0.624-0.49-0.986-0.945-1.058
			C121.757,60.187,118.678,59.57,114.555,59.57L114.555,59.57z"/>
	</g>
	<path fill="#FFFFFF" d="M109.428,62.27h0.008c0.152-0.274,0.414-0.396,0.725-0.396h0.15v0.764
		c-0.107-0.062-0.213-0.075-0.336-0.075c-0.439,0-0.547,0.293-0.547,0.676v0.901h-0.793v-2.235h0.793V62.27z"/>
	<path fill="#FFFFFF" d="M112.967,63.155h-1.668c0,0.321,0.17,0.495,0.498,0.495c0.168,0,0.291-0.055,0.379-0.204h0.762
		c-0.125,0.527-0.627,0.768-1.139,0.768c-0.74,0-1.293-0.418-1.293-1.19c0-0.745,0.51-1.195,1.238-1.195
		c0.775,0,1.223,0.48,1.223,1.244V63.155z M112.232,62.697c-0.041-0.214-0.236-0.353-0.451-0.353c-0.229,0-0.42,0.12-0.471,0.353
		H112.232z"/>
	<path fill="#FFFFFF" d="M115.695,63.155h-1.668c0,0.321,0.17,0.495,0.496,0.495c0.172,0,0.293-0.055,0.379-0.204h0.764
		c-0.127,0.527-0.629,0.768-1.139,0.768c-0.742,0-1.293-0.418-1.293-1.19c0-0.745,0.51-1.195,1.236-1.195
		c0.775,0,1.225,0.48,1.225,1.244V63.155z M114.961,62.697c-0.041-0.214-0.236-0.353-0.451-0.353c-0.23,0-0.42,0.12-0.471,0.353
		H114.961z"/>
	<path fill="#FFFFFF" d="M120.527,63.155h-1.67c0,0.321,0.17,0.495,0.496,0.495c0.172,0,0.293-0.055,0.381-0.204h0.762
		c-0.127,0.527-0.627,0.768-1.139,0.768c-0.738,0-1.293-0.418-1.293-1.19c0-0.745,0.51-1.195,1.236-1.195
		c0.775,0,1.227,0.48,1.227,1.244V63.155z M119.789,62.697c-0.039-0.214-0.234-0.353-0.447-0.353c-0.232,0-0.424,0.12-0.473,0.353
		H119.789z"/>
	<path fill="#FFFFFF" d="M117.727,62.632c-0.117-0.087-0.256-0.157-0.41-0.157c-0.305,0-0.547,0.234-0.547,0.546
		c0,0.322,0.232,0.548,0.561,0.548c0.141,0,0.291-0.057,0.396-0.152l0.201,0.559c-0.248,0.191-0.568,0.239-0.76,0.239
		c-0.662,0-1.217-0.493-1.217-1.167c0-0.721,0.549-1.219,1.252-1.219c0.182,0,0.535,0.083,0.73,0.25L117.727,62.632z"/>
</g>
<polygon fill="#FFFFFF" points="66.08,69.067 66.08,64.688 60.107,64.688 60.107,69.067 55.653,69.067 55.653,74.871 70.535,74.871 
	70.535,69.067 "/>
</svg>
