<?xml version="1.0" encoding="utf-8"?>
<!-- Generator: Adobe Illustrator 16.0.0, SVG Export Plug-In . SVG Version: 6.00 Build 0)  -->
<!DOCTYPE svg PUBLIC "-//W3C//DTD SVG 1.1//EN" "http://www.w3.org/Graphics/SVG/1.1/DTD/svg11.dtd">
<svg version="1.1" id="Layer_3" xmlns="http://www.w3.org/2000/svg" xmlns:xlink="http://www.w3.org/1999/xlink" x="0px" y="0px"
	 width="116px" height="137px" viewBox="0 0 116 137" enable-background="new 0 0 116 137" xml:space="preserve">
<g>
	
		<path fill="none" stroke="#000000" stroke-width="4.625" stroke-linecap="round" stroke-linejoin="round" stroke-miterlimit="10" d="
		M41.488,106.275h8.299l0.028,4.306h41.007v-74.65c0,0,0.143-31.604-23.896-31.604c-16.627,0-35.005,22.138-37,31.604
		c-1.06,5.032,11.562,0.386,11.562,0.386V106.275z"/>
	
		<polyline fill="none" stroke="#000000" stroke-width="4.625" stroke-linecap="round" stroke-linejoin="round" stroke-miterlimit="10" points="
		56.822,111.16 56.822,127.659 37.936,129.587 	"/>
	
		<polyline fill="none" stroke="#000000" stroke-width="4.625" stroke-linecap="round" stroke-linejoin="round" stroke-miterlimit="10" points="
		76.103,110.509 76.103,129.587 93.061,134.212 	"/>
	
		<line fill="none" stroke="#000000" stroke-width="4.625" stroke-linecap="round" stroke-linejoin="round" stroke-miterlimit="10" x1="90.822" y1="46.915" x2="41.488" y2="46.915"/>
	<circle cx="53.822" cy="17.783" r="2.731"/>
	<circle cx="63.073" cy="17.783" r="2.731"/>
	<path fill="none" stroke="#000000" stroke-width="3.0833" stroke-linecap="round" stroke-miterlimit="10" d="M70.749,33.083
		c0,0-10.407,13.875-20.813,0"/>
	
		<path fill="none" stroke="#000000" stroke-width="3.0833" stroke-linecap="round" stroke-linejoin="round" stroke-miterlimit="10" d="
		M90.822,31.89c4.258,6.039,12.604,7.482,18.642,3.226c4.831-3.406,5.986-10.083,2.58-14.914c-2.725-3.865-8.065-4.789-11.931-2.064
		c-3.092,2.18-3.83,6.452-1.65,9.544c1.743,2.473,5.162,3.064,7.635,1.321c1.979-1.395,2.452-4.13,1.058-6.108
		c-1.116-1.583-3.305-1.962-4.887-0.846c-1.267,0.893-1.569,2.644-0.677,3.91c0.715,1.013,2.115,1.255,3.128,0.541
		c0.81-0.571,1.005-1.691,0.433-2.502"/>
	<circle fill="#F7941E" cx="49.936" cy="56.454" r="3.886"/>
	<circle fill="#F7941E" cx="57.708" cy="63.938" r="3.886"/>
	<circle fill="#F7941E" cx="65.805" cy="56.454" r="3.886"/>
	<circle fill="#F7941E" cx="74.12" cy="63.938" r="3.886"/>
	<circle fill="#F7941E" cx="57.708" cy="79.482" r="3.886"/>
	<circle fill="#F7941E" cx="74.12" cy="79.482" r="3.886"/>
	<circle fill="#F7941E" cx="57.708" cy="93.39" r="3.886"/>
	<circle fill="#F7941E" cx="74.12" cy="93.39" r="3.886"/>
	<circle fill="#F7941E" cx="81.989" cy="56.454" r="3.886"/>
	<circle fill="#F7941E" cx="49.936" cy="71.679" r="3.886"/>
	<circle fill="#F7941E" cx="65.805" cy="71.679" r="3.886"/>
	<circle fill="#F7941E" cx="81.989" cy="71.679" r="3.886"/>
	<circle fill="#F7941E" cx="49.936" cy="87.191" r="3.886"/>
	<circle fill="#F7941E" cx="65.805" cy="87.191" r="3.886"/>
	<circle fill="#F7941E" cx="81.989" cy="87.191" r="3.886"/>
	<circle fill="#F7941E" cx="49.936" cy="99.81" r="3.886"/>
	<circle fill="#F7941E" cx="65.805" cy="99.81" r="3.886"/>
	<circle fill="#F7941E" cx="81.989" cy="99.81" r="3.886"/>
	
		<polyline fill="none" stroke="#000000" stroke-width="4.625" stroke-linecap="round" stroke-linejoin="round" stroke-miterlimit="10" points="
		41.188,55.684 29.109,70.946 14.111,68.46 4.091,64.22 	"/>
	
		<polyline fill="none" stroke="#000000" stroke-width="4.625" stroke-linecap="round" stroke-linejoin="round" stroke-miterlimit="10" points="
		8.201,76.46 13.111,68.46 2.931,71.679 	"/>
	
		<polyline fill="none" stroke="#000000" stroke-width="4.625" stroke-linecap="round" stroke-linejoin="round" stroke-miterlimit="10" points="
		90.664,55.395 101.275,68.946 78.505,77.217 73.042,71.563 	"/>
	
		<polyline fill="none" stroke="#000000" stroke-width="4.625" stroke-linecap="round" stroke-linejoin="round" stroke-miterlimit="10" points="
		69.943,78.217 78.265,77.322 72.72,84.191 	"/>
	
		<line fill="none" stroke="#000000" stroke-width="4.625" stroke-linecap="round" stroke-linejoin="round" stroke-miterlimit="10" x1="13.111" y1="69.068" x2="12.083" y2="60.34"/>
	
		<line fill="none" stroke="#000000" stroke-width="4.625" stroke-linecap="round" stroke-linejoin="round" stroke-miterlimit="10" x1="79.287" y1="77.068" x2="78.258" y2="68.34"/>
	
		<line fill="none" stroke="#000000" stroke-width="2.1437" stroke-miterlimit="10" x1="50.935" y1="47.859" x2="50.935" y2="106.131"/>
</g>
</svg>
