<?xml version="1.0" encoding="utf-8"?>
<!-- Generator: Adobe Illustrator 15.0.0, SVG Export Plug-In . SVG Version: 6.00 Build 0)  -->
<!DOCTYPE svg PUBLIC "-//W3C//DTD SVG 1.1//EN" "http://www.w3.org/Graphics/SVG/1.1/DTD/svg11.dtd">
<svg version="1.1" id="Layer_1" xmlns="http://www.w3.org/2000/svg" xmlns:xlink="http://www.w3.org/1999/xlink" x="0px" y="0px"
	 width="178px" height="171px" viewBox="0 0 178 171" enable-background="new 0 0 178 171" xml:space="preserve">
<polygon fill="#804315" points="178,171 0,171 15,148.322 165,148.322 "/>
<line fill="none" stroke="#FFFFFF" stroke-width="2.0042" stroke-miterlimit="10" x1="49.364" y1="67.161" x2="49.364" y2="65.658"/>
<rect x="73.003" y="6.289" fill="#FFFFFF" width="56.665" height="44.6"/>
<g>
	<path d="M129.668,52.758H73.003c-1.032,0-1.869-0.837-1.869-1.869v-44.6c0-1.032,0.837-1.869,1.869-1.869h56.665
		c1.032,0,1.869,0.837,1.869,1.869v44.6C131.537,51.921,130.7,52.758,129.668,52.758z M74.872,49.02h52.927V8.158H74.872V49.02z"/>
</g>
<rect x="73.003" y="100.198" fill="#908270" width="56.665" height="22.188"/>
<rect x="73.003" y="100.198" fill="none" stroke="#000000" stroke-width="3.7382" stroke-miterlimit="10" width="56.665" height="22.188"/>
<polygon fill="#003865" points="129.668,100.198 73.002,100.198 73.002,75.615 59.187,75.675 73.002,56.15 73.002,50.889 
	129.668,50.889 129.668,56.211 145.111,76.081 129.668,76.021 "/>
<polygon fill="none" stroke="#000000" stroke-width="3.7382" stroke-linecap="round" stroke-linejoin="round" stroke-miterlimit="10" points="
	129.668,100.198 73.002,100.198 73.002,75.615 59.187,75.675 73.002,56.15 73.002,50.889 129.668,50.889 129.668,56.211 
	145.111,76.081 129.668,76.021 "/>
<g>
	<path d="M88.767,19.004c0,1.63-1.322,2.949-2.951,2.949c-1.632,0-2.953-1.318-2.953-2.949c0-1.632,1.321-2.952,2.953-2.952
		C87.445,16.052,88.767,17.372,88.767,19.004"/>
	<path d="M108.723,19.004c0,1.63-1.324,2.949-2.951,2.949c-1.629,0-2.955-1.318-2.955-2.949c0-1.632,1.326-2.952,2.955-2.952
		C107.398,16.052,108.723,17.372,108.723,19.004"/>
</g>
<rect x="77.99" y="12.282" width="13.145" height="3.918"/>
<rect x="77.99" y="12.282" fill="none" stroke="#000000" stroke-width="1.4018" stroke-linecap="round" stroke-linejoin="round" stroke-miterlimit="10" width="13.145" height="3.918"/>
<rect x="100.786" y="9.076" transform="matrix(-0.9289 -0.3704 0.3704 -0.9289 202.9969 61.0517)" width="13.148" height="3.918"/>
<g>
	
		<rect x="100.786" y="9.076" transform="matrix(-0.9289 -0.3704 0.3704 -0.9289 202.9969 61.0517)" fill="none" stroke="#000000" stroke-width="1.4018" stroke-linecap="round" stroke-linejoin="round" stroke-miterlimit="10" width="13.148" height="3.918"/>
</g>
<rect x="68.835" y="19.002" width="3.059" height="10.754"/>
<rect x="131.244" y="19.002" width="3.062" height="10.754"/>
<rect x="74.851" y="29.758" fill="#DADADA" width="52.936" height="19.248"/>
<g>
	<path d="M94.199,43.03c-1.436,0-2.753-0.249-3.95-0.748c-4.699-1.956-5.58-6.946-5.615-7.158c-0.138-0.828,0.422-1.611,1.25-1.75
		c0.828-0.135,1.608,0.419,1.749,1.244c0.029,0.163,0.676,3.581,3.813,4.868c2.624,1.077,7.765,0.934,17.332-5.852
		c0.685-0.486,1.633-0.326,2.12,0.36c0.485,0.685,0.324,1.634-0.36,2.12C104.051,40.716,98.577,43.03,94.199,43.03z"/>
</g>
<rect x="11.209" y="98.514" fill="#FFFFFF" width="159.016" height="8.225"/>
<rect x="66.395" y="124.257" fill="#FFFFFF" width="68.102" height="9.897"/>
<rect x="66.395" y="124.257" fill="none" stroke="#000000" stroke-width="1.8253" stroke-miterlimit="10" width="68.102" height="9.897"/>
<rect x="70.354" y="134.475" fill="#FFFFFF" width="8.909" height="23.832"/>
<g>
	
		<rect x="70.354" y="134.475" fill="none" stroke="#000000" stroke-width="1.8253" stroke-miterlimit="10" width="8.909" height="23.832"/>
</g>
<rect x="15.81" y="106.792" fill="#FFFFFF" width="8.908" height="51.515"/>
<rect x="157.043" y="106.792" fill="#FFFFFF" width="8.908" height="51.515"/>
<g>
	
		<rect x="11.209" y="98.514" fill="none" stroke="#000000" stroke-width="1.8253" stroke-miterlimit="10" width="159.016" height="8.225"/>
	
		<rect x="15.81" y="106.792" fill="none" stroke="#000000" stroke-width="1.8253" stroke-miterlimit="10" width="8.908" height="51.515"/>
	
		<rect x="157.043" y="106.792" fill="none" stroke="#000000" stroke-width="1.8253" stroke-miterlimit="10" width="8.908" height="51.515"/>
</g>
<rect x="120.971" y="134.475" fill="#FFFFFF" width="8.906" height="23.832"/>
<g>
	
		<rect x="120.971" y="134.475" fill="none" stroke="#000000" stroke-width="2.0042" stroke-miterlimit="10" width="8.906" height="23.832"/>
	<path d="M97.08,131.691c2.551,11.57-0.004,21.973-5.701,23.227c-5.697,1.259-12.384-7.105-14.934-18.68
		c-2.551-11.572,0.001-21.973,5.7-23.227C87.843,111.756,94.529,120.12,97.08,131.691"/>
	<path d="M125.418,136.105c-2.396,11.604-8.975,20.055-14.689,18.871c-5.713-1.18-8.399-11.545-6.004-23.149
		c2.4-11.606,8.978-20.056,14.689-18.874C125.129,114.132,127.818,124.499,125.418,136.105"/>
</g>
<path fill="none" stroke="#000000" stroke-width="5.1401" stroke-linecap="round" stroke-linejoin="round" stroke-miterlimit="10" d="
	M82.206,97.232l4.471-12.15l-11.056,8.639 M68.074,76.286L61.27,91.078l23.841-4.245l5.682,9.968 M105.771,93.604l10.524-3.039
	l-1.049,6.074 M136.904,76.286l1.768,14.278l-20.541-0.187L107.359,85.1"/>
<rect x="29.83" y="47.881" fill="#3C3C3B" width="66.779" height="44.438"/>
<rect x="29.83" y="47.881" fill="none" stroke="#000000" stroke-width="3.0063" stroke-miterlimit="10" width="66.779" height="44.438"/>
<rect x="55.33" y="92.318" width="12.775" height="6.193"/>
<g>
	<path d="M73.499,6.975c-0.378,0-0.685-0.307-0.685-0.685V0.703c0-0.378,0.307-0.685,0.685-0.685s0.685,0.307,0.685,0.685V6.29
		C74.184,6.668,73.877,6.975,73.499,6.975z"/>
	<path d="M76.502,6.975c-0.378,0-0.685-0.307-0.685-0.685V0.703c0-0.378,0.307-0.685,0.685-0.685s0.685,0.307,0.685,0.685V6.29
		C77.187,6.668,76.88,6.975,76.502,6.975z"/>
	<path d="M79.507,6.975c-0.378,0-0.685-0.307-0.685-0.685V0.703c0-0.378,0.307-0.685,0.685-0.685s0.685,0.307,0.685,0.685V6.29
		C80.191,6.668,79.885,6.975,79.507,6.975z"/>
	<path d="M82.51,6.975c-0.378,0-0.685-0.307-0.685-0.685V0.703c0-0.378,0.307-0.685,0.685-0.685s0.685,0.307,0.685,0.685V6.29
		C83.194,6.668,82.888,6.975,82.51,6.975z"/>
	<path d="M85.515,6.975c-0.378,0-0.685-0.307-0.685-0.685V0.703c0-0.378,0.307-0.685,0.685-0.685S86.2,0.325,86.2,0.703V6.29
		C86.2,6.668,85.893,6.975,85.515,6.975z"/>
	<path d="M88.519,6.975c-0.378,0-0.685-0.307-0.685-0.685V0.703c0-0.378,0.307-0.685,0.685-0.685s0.685,0.307,0.685,0.685V6.29
		C89.204,6.668,88.897,6.975,88.519,6.975z"/>
	<path d="M91.523,6.975c-0.378,0-0.685-0.307-0.685-0.685V0.703c0-0.378,0.307-0.685,0.685-0.685s0.685,0.307,0.685,0.685V6.29
		C92.208,6.668,91.901,6.975,91.523,6.975z"/>
	<path d="M94.527,6.975c-0.378,0-0.685-0.307-0.685-0.685V0.703c0-0.378,0.307-0.685,0.685-0.685s0.685,0.307,0.685,0.685V6.29
		C95.212,6.668,94.905,6.975,94.527,6.975z"/>
	<path d="M97.533,6.975c-0.378,0-0.685-0.307-0.685-0.685V0.703c0-0.378,0.307-0.685,0.685-0.685s0.685,0.307,0.685,0.685V6.29
		C98.218,6.668,97.911,6.975,97.533,6.975z"/>
	<path d="M100.535,6.975c-0.378,0-0.685-0.307-0.685-0.685V0.703c0-0.378,0.307-0.685,0.685-0.685s0.685,0.307,0.685,0.685V6.29
		C101.22,6.668,100.913,6.975,100.535,6.975z"/>
	<path d="M103.541,6.975c-0.378,0-0.685-0.307-0.685-0.685V0.703c0-0.378,0.307-0.685,0.685-0.685s0.685,0.307,0.685,0.685V6.29
		C104.226,6.668,103.919,6.975,103.541,6.975z"/>
	<path d="M106.545,6.975c-0.378,0-0.685-0.307-0.685-0.685V0.703c0-0.378,0.307-0.685,0.685-0.685s0.685,0.307,0.685,0.685V6.29
		C107.229,6.668,106.923,6.975,106.545,6.975z"/>
	<path d="M109.547,6.975c-0.378,0-0.685-0.307-0.685-0.685V0.703c0-0.378,0.307-0.685,0.685-0.685s0.685,0.307,0.685,0.685V6.29
		C110.231,6.668,109.925,6.975,109.547,6.975z"/>
	<path d="M112.553,6.975c-0.378,0-0.685-0.307-0.685-0.685V0.703c0-0.378,0.307-0.685,0.685-0.685s0.685,0.307,0.685,0.685V6.29
		C113.237,6.668,112.931,6.975,112.553,6.975z"/>
	<path d="M115.557,6.975c-0.378,0-0.685-0.307-0.685-0.685V0.703c0-0.378,0.307-0.685,0.685-0.685s0.685,0.307,0.685,0.685V6.29
		C116.241,6.668,115.935,6.975,115.557,6.975z"/>
	<path d="M118.561,6.975c-0.378,0-0.685-0.307-0.685-0.685V0.703c0-0.378,0.307-0.685,0.685-0.685s0.685,0.307,0.685,0.685V6.29
		C119.245,6.668,118.938,6.975,118.561,6.975z"/>
	<path d="M121.564,6.975c-0.378,0-0.685-0.307-0.685-0.685V0.703c0-0.378,0.307-0.685,0.685-0.685s0.685,0.307,0.685,0.685V6.29
		C122.249,6.668,121.942,6.975,121.564,6.975z"/>
	<path d="M124.568,6.975c-0.378,0-0.685-0.307-0.685-0.685V0.703c0-0.378,0.307-0.685,0.685-0.685s0.685,0.307,0.685,0.685V6.29
		C125.253,6.668,124.946,6.975,124.568,6.975z"/>
	<path d="M127.574,6.975c-0.378,0-0.685-0.307-0.685-0.685V0.703c0-0.378,0.307-0.685,0.685-0.685s0.685,0.307,0.685,0.685V6.29
		C128.259,6.668,127.952,6.975,127.574,6.975z"/>
	<path d="M130.576,6.975c-0.378,0-0.685-0.307-0.685-0.685V0.703c0-0.378,0.307-0.685,0.685-0.685s0.685,0.307,0.685,0.685V6.29
		C131.261,6.668,130.954,6.975,130.576,6.975z"/>
</g>
<g>
	<g>
		<path fill="#003865" d="M114.555,66.018c-4.062,0-7.253-0.687-7.283-0.693c-0.242-0.041-0.72-0.26-0.72-0.787v-3.271
			c0-0.547,0.479-0.768,0.733-0.808c0.02-0.004,3.17-0.636,7.27-0.636c4.098,0,7.25,0.631,7.281,0.638
			c0.242,0.039,0.721,0.259,0.721,0.806v3.271c0,0.526-0.478,0.746-0.729,0.789C121.809,65.332,118.615,66.018,114.555,66.018z"/>
		<path fill="#FFFFFF" d="M114.555,60.077c4.119,0,7.23,0.633,7.23,0.633s0.518,0.082,0.518,0.558v3.271
			c0,0.451-0.518,0.539-0.518,0.539s-3.15,0.688-7.23,0.688c-4.082,0-7.229-0.688-7.229-0.688s-0.521-0.088-0.521-0.539v-3.271
			c0-0.476,0.521-0.558,0.521-0.558S110.434,60.077,114.555,60.077 M114.555,59.57c-4.125,0-7.201,0.617-7.33,0.643
			c-0.436,0.068-0.927,0.43-0.927,1.054v3.271c0,0.604,0.488,0.962,0.94,1.039c0.107,0.024,3.227,0.695,7.316,0.695
			c4.088,0,7.207-0.671,7.338-0.699c0.43-0.072,0.916-0.43,0.916-1.034v-3.271c0-0.624-0.49-0.986-0.945-1.058
			C121.757,60.187,118.678,59.57,114.555,59.57L114.555,59.57z"/>
	</g>
	<path fill="#FFFFFF" d="M109.428,62.27h0.008c0.152-0.274,0.414-0.396,0.726-0.396h0.149v0.764
		c-0.106-0.062-0.213-0.075-0.336-0.075c-0.438,0-0.547,0.293-0.547,0.676v0.901h-0.793v-2.235h0.793V62.27z"/>
	<path fill="#FFFFFF" d="M112.967,63.155h-1.668c0,0.321,0.17,0.495,0.498,0.495c0.168,0,0.291-0.055,0.379-0.204h0.762
		c-0.125,0.527-0.627,0.768-1.139,0.768c-0.74,0-1.293-0.418-1.293-1.19c0-0.745,0.51-1.195,1.238-1.195
		c0.775,0,1.223,0.48,1.223,1.244V63.155z M112.232,62.697c-0.041-0.214-0.236-0.353-0.451-0.353c-0.229,0-0.42,0.12-0.471,0.353
		H112.232z"/>
	<path fill="#FFFFFF" d="M115.695,63.155h-1.668c0,0.321,0.17,0.495,0.496,0.495c0.172,0,0.293-0.055,0.379-0.204h0.764
		c-0.127,0.527-0.629,0.768-1.139,0.768c-0.742,0-1.293-0.418-1.293-1.19c0-0.745,0.51-1.195,1.236-1.195
		c0.774,0,1.225,0.48,1.225,1.244V63.155z M114.961,62.697c-0.041-0.214-0.236-0.353-0.451-0.353c-0.23,0-0.42,0.12-0.471,0.353
		H114.961z"/>
	<path fill="#FFFFFF" d="M120.527,63.155h-1.67c0,0.321,0.17,0.495,0.496,0.495c0.172,0,0.293-0.055,0.381-0.204h0.762
		c-0.127,0.527-0.627,0.768-1.139,0.768c-0.738,0-1.293-0.418-1.293-1.19c0-0.745,0.51-1.195,1.235-1.195
		c0.775,0,1.228,0.48,1.228,1.244V63.155z M119.789,62.697c-0.039-0.214-0.234-0.353-0.447-0.353c-0.232,0-0.424,0.12-0.473,0.353
		H119.789z"/>
	<path fill="#FFFFFF" d="M117.727,62.632c-0.117-0.087-0.256-0.157-0.41-0.157c-0.305,0-0.547,0.234-0.547,0.546
		c0,0.322,0.232,0.548,0.562,0.548c0.142,0,0.291-0.057,0.396-0.152l0.201,0.559c-0.248,0.191-0.568,0.239-0.76,0.239
		c-0.662,0-1.217-0.493-1.217-1.167c0-0.721,0.549-1.219,1.252-1.219c0.182,0,0.535,0.083,0.73,0.25L117.727,62.632z"/>
</g>
<polygon fill="#FFFFFF" points="66.08,69.067 66.08,64.688 60.107,64.688 60.107,69.067 55.653,69.067 55.653,74.871 70.535,74.871 
	70.535,69.067 "/>
</svg>
