<?xml version="1.0" encoding="utf-8"?>
<!-- Generator: Adobe Illustrator 15.0.2, SVG Export Plug-In . SVG Version: 6.00 Build 0)  -->
<!DOCTYPE svg PUBLIC "-//W3C//DTD SVG 1.1//EN" "http://www.w3.org/Graphics/SVG/1.1/DTD/svg11.dtd">
<svg version="1.1" xmlns="http://www.w3.org/2000/svg" xmlns:xlink="http://www.w3.org/1999/xlink" x="0px" y="0px" width="740px"
	 height="350px" viewBox="0 0 740 350" enable-background="new 0 0 740 350" xml:space="preserve">
<g id="Layer_1">
	<rect x="32" y="34.844" fill="#414042" width="675.334" height="315.156"/>
	<rect x="62.015" y="148.9" fill="#89D4E3" width="66.033" height="201.1"/>
	<rect x="140.054" y="148.9" fill="#89D4E3" width="69.034" height="201.1"/>
	<rect x="221.094" y="148.9" fill="#89D4E3" width="144.071" height="192.095"/>
	<rect x="377.171" y="148.9" fill="#89D4E3" width="144.071" height="192.095"/>
	<rect x="533.248" y="148.9" fill="#89D4E3" width="144.071" height="192.095"/>
</g>
<g id="Layer_2">
	<rect x="230.694" y="15.41" fill="#E6E7E8" width="227.109" height="108.195"/>
	<g>
		<path fill="#003767" d="M347.338,40.971c-45.922,0-80.566,7.066-80.566,7.066s-5.781,0.908-5.781,6.218v36.441
			c0,5.021,5.781,5.996,5.781,5.996s35.071,7.671,80.566,7.671c45.472,0,80.568-7.671,80.568-7.671s5.781-0.975,5.781-5.996V54.259
			c0-5.313-5.781-6.218-5.781-6.218S393.255,40.971,347.338,40.971z"/>
		<path fill="#FFFFFF" d="M290.202,65.418h0.094c1.711-3.059,4.618-4.418,8.071-4.418h1.688v8.489
			c-1.202-0.668-2.361-0.813-3.722-0.813c-4.91,0-6.131,3.252-6.131,7.52V86.25h-8.831V61.346h8.831V65.418z"/>
		<path fill="#FFFFFF" d="M329.653,75.282h-18.593c0,3.587,1.899,5.54,5.532,5.54c1.902,0,3.262-0.635,4.228-2.293h8.501
			c-1.415,5.886-7.002,8.552-12.67,8.552c-8.268,0-14.424-4.661-14.424-13.257c0-8.312,5.668-13.306,13.78-13.306
			c8.651,0,13.643,5.344,13.643,13.839L329.653,75.282L329.653,75.282z M321.445,70.185c-0.428-2.389-2.622-3.933-4.991-3.933
			c-2.578,0-4.713,1.351-5.243,3.933H321.445z"/>
		<path fill="#FFFFFF" d="M360.069,75.282h-18.617c0,3.587,1.911,5.54,5.553,5.54c1.884,0,3.248-0.635,4.219-2.293h8.496
			c-1.388,5.886-6.985,8.552-12.667,8.552c-8.25,0-14.421-4.661-14.421-13.257c0-8.312,5.679-13.306,13.778-13.306
			c8.653,0,13.659,5.344,13.659,13.839V75.282L360.069,75.282z M351.86,70.185c-0.448-2.389-2.635-3.933-5.012-3.933
			c-2.563,0-4.716,1.351-5.236,3.933H351.86z"/>
		<path fill="#FFFFFF" d="M413.888,75.282h-18.593c0,3.587,1.884,5.54,5.535,5.54c1.883,0,3.238-0.635,4.208-2.293h8.507
			c-1.406,5.886-6.986,8.552-12.679,8.552c-8.249,0-14.423-4.661-14.423-13.257c0-8.312,5.685-13.306,13.779-13.306
			c8.656,0,13.665,5.344,13.665,13.839V75.282L413.888,75.282z M405.679,70.185c-0.424-2.389-2.62-3.933-5.006-3.933
			c-2.562,0-4.699,1.351-5.239,3.933H405.679z"/>
		<path fill="#FFFFFF" d="M382.685,69.446c-1.308-0.972-2.876-1.747-4.564-1.747c-3.395,0-6.071,2.621-6.071,6.06
			c0,3.603,2.56,6.139,6.204,6.139c1.556,0,3.27-0.631,4.432-1.708l2.25,6.241c-2.782,2.117-6.334,2.654-8.47,2.654
			c-7.388,0-13.561-5.488-13.561-13.02c0-8.024,6.137-13.546,13.954-13.546c2.034,0,5.937,0.892,8.134,2.778L382.685,69.446z"/>
	</g>
	<g>
		<rect x="510.758" y="34.41" fill="#ED1C24" width="196.909" height="70.764"/>
		<g>
			<path fill="#FFFFFF" d="M533.49,51.543h3.209v2.04h0.063c0.952-1.72,2.786-2.446,4.75-2.446c4.838,0,7.188,3.611,7.188,8.011
				c0,4.049-2.079,7.865-6.616,7.865c-1.968,0-4.074-0.698-5.145-2.357h-0.061v7.513h-3.389V51.543L533.49,51.543z M541.067,53.759
				c-2.854,0-4.305,2.123-4.305,5.332c0,3.03,1.575,5.302,4.305,5.302c3.09,0,4.243-2.684,4.243-5.302
				C545.311,56.349,543.856,53.759,541.067,53.759z"/>
			<path fill="#FFFFFF" d="M551.636,45.809h3.386v20.798h-3.386V45.809z"/>
			<path fill="#FFFFFF" d="M572.185,66.604h-3.329v-2.094h-0.061c-0.832,1.516-2.668,2.504-4.362,2.504
				c-4.009,0-5.733-1.978-5.733-5.912v-9.559h3.39v9.236c0,2.65,1.093,3.613,2.938,3.613c2.823,0,3.768-1.779,3.768-4.107v-8.742
				h3.392v15.06H572.185z"/>
			<path fill="#FFFFFF" d="M575.742,51.543h3.208v2.099h0.09c1.004-1.486,2.284-2.504,4.717-2.504c1.869,0,3.624,0.784,4.306,2.504
				c1.13-1.544,2.584-2.504,4.812-2.504c3.238,0,5.137,1.397,5.137,5.064v10.402h-3.389v-8.795c0-2.387-0.147-4.049-2.795-4.049
				c-2.283,0-3.263,1.486-3.263,4.021v8.826h-3.389v-9.674c0-2.067-0.649-3.174-2.704-3.174c-1.745,0-3.356,1.4-3.356,3.905v8.943
				h-3.386L575.742,51.543L575.742,51.543z"/>
			<path fill="#FFFFFF" d="M601.658,45.809h3.39v7.692h0.061c0.92-1.459,2.849-2.36,4.566-2.36c4.844,0,7.188,3.611,7.188,8.011
				c0,4.049-2.079,7.864-6.616,7.864c-2.08,0-4.303-0.495-5.318-2.474h-0.061v2.067h-3.205V45.809H601.658z M609.233,53.759
				c-2.852,0-4.306,2.123-4.306,5.332c0,3.03,1.578,5.302,4.306,5.302c3.092,0,4.245-2.684,4.245-5.302
				C613.479,56.349,612.024,53.759,609.233,53.759z"/>
			<path fill="#FFFFFF" d="M619.801,45.809h3.387v3.145h-3.387V45.809z M619.801,51.543h3.387v15.06h-3.387V51.543z"/>
			<path fill="#FFFFFF" d="M626.867,51.543h3.203v2.216l0.062,0.058c1.01-1.661,2.762-2.68,4.781-2.68
				c3.329,0,5.441,1.747,5.441,5.126v10.34h-3.393v-9.466c-0.058-2.36-1.003-3.378-2.996-3.378c-2.256,0-3.713,1.747-3.713,3.963
				v8.885h-3.387V51.543L626.867,51.543z"/>
			<path fill="#FFFFFF" d="M658.104,65.82c0,4.513-2.698,6.755-7.542,6.755c-3.089,0-6.562-1.163-6.856-4.688h3.389
				c0.416,1.893,1.963,2.216,3.682,2.216c2.737,0,3.95-1.369,3.95-3.846v-2.299h-0.065c-0.949,1.659-2.698,2.649-4.604,2.649
				c-4.867,0-6.884-3.611-6.884-7.921c0-4.049,2.582-7.548,6.947-7.548c1.932,0,3.684,0.784,4.552,2.474h0.06v-2.068h3.384V65.82
				H658.104z M654.72,58.741c0-2.594-1.19-4.981-4.132-4.981c-2.995,0-4.04,2.741-4.04,5.246c0,2.476,1.22,4.98,4.04,4.98
				C653.59,63.982,654.72,61.304,654.72,58.741z"/>
			<path fill="#FFFFFF" d="M543.766,83.387c-0.264-1.829-1.625-2.824-3.5-2.824c-1.751,0-4.222,0.904-4.222,5.473
				c0,2.501,1.131,5.16,4.069,5.16c1.965,0,3.328-1.283,3.652-3.437h3.393c-0.625,3.907-3.089,6.059-7.042,6.059
				c-4.805,0-7.451-3.347-7.451-7.777c0-4.539,2.52-8.096,7.573-8.096c3.563,0,6.599,1.747,6.92,5.446L543.766,83.387
				L543.766,83.387z"/>
			<path fill="#FFFFFF" d="M552.552,86.741c0,2.363,1.307,4.456,4.129,4.456c1.964,0,3.148-0.846,3.743-2.504h3.209
				c-0.745,3.289-3.594,5.126-6.952,5.126c-4.808,0-7.513-3.289-7.513-7.92c0-4.283,2.852-7.953,7.422-7.953
				c4.844,0,7.818,4.28,7.25,8.796H552.552L552.552,86.741z M560.454,84.553c-0.12-2.094-1.575-3.99-3.864-3.99
				c-2.347,0-3.948,1.747-4.038,3.99H560.454z"/>
			<path fill="#FFFFFF" d="M566.418,78.352h3.209v2.211l0.057,0.059c1.01-1.662,2.762-2.68,4.787-2.68
				c3.326,0,5.436,1.747,5.436,5.125v10.341h-3.387v-9.47c-0.063-2.357-1.01-3.378-3.002-3.378c-2.259,0-3.713,1.747-3.713,3.963
				v8.885h-3.39L566.418,78.352L566.418,78.352z"/>
			<path fill="#FFFFFF" d="M581.916,78.352h2.554v-4.515h3.386v4.515h3.064v2.476h-3.064v8.041c0,1.366,0.12,2.067,1.635,2.067
				c0.475,0,0.955,0,1.43-0.111v2.563c-0.744,0.059-1.46,0.17-2.198,0.17c-3.534,0-4.188-1.335-4.249-3.843v-8.883h-2.554
				L581.916,78.352L581.916,78.352z"/>
			<path fill="#FFFFFF" d="M593.348,78.352h3.18v2.913h0.06c0.385-1.603,2.409-3.32,4.489-3.32c0.77,0,0.979,0.058,1.28,0.087v3.206
				c-0.475-0.059-0.98-0.148-1.461-0.148c-2.315,0-4.158,1.837-4.158,5.16v7.166h-3.384V78.352H593.348z"/>
			<path fill="#FFFFFF" d="M605.907,86.741c0,2.363,1.311,4.456,4.128,4.456c1.968,0,3.152-0.846,3.744-2.504h3.209
				c-0.739,3.289-3.593,5.126-6.953,5.126c-4.804,0-7.508-3.289-7.508-7.92c0-4.283,2.852-7.953,7.418-7.953
				c4.844,0,7.818,4.28,7.247,8.796H605.907L605.907,86.741z M613.81,84.553c-0.117-2.094-1.574-3.99-3.864-3.99
				c-2.344,0-3.947,1.747-4.038,3.99H613.81z"/>
		</g>
	</g>
</g>
</svg>
