<?xml version="1.0" encoding="utf-8"?>
<!-- Generator: Adobe Illustrator 15.0.2, SVG Export Plug-In . SVG Version: 6.00 Build 0)  -->
<!DOCTYPE svg PUBLIC "-//W3C//DTD SVG 1.1//EN" "http://www.w3.org/Graphics/SVG/1.1/DTD/svg11.dtd">
<svg version="1.1" id="Layer_1" xmlns="http://www.w3.org/2000/svg" xmlns:xlink="http://www.w3.org/1999/xlink" x="0px" y="0px"
	 width="87px" height="100px" viewBox="0 0 87 100" enable-background="new 0 0 87 100" xml:space="preserve">
<path fill="#FFFFFF" d="M0,0v100h87V0H0z M78.44,90.592H8.56V56.849h69.88L78.44,90.592L78.44,90.592z M78.44,46.79H8.56V9.411
	h69.88L78.44,46.79L78.44,46.79z"/>
<g>
	<polygon points="78.44,56.767 78.44,90.592 8.56,90.592 8.56,56.767 7.031,56.767 7.031,92.113 79.967,92.113 79.967,56.767 	"/>
	<polygon points="8.56,46.79 8.56,9.411 78.44,9.411 78.44,46.79 79.967,46.79 79.967,7.887 7.031,7.887 7.031,46.79 	"/>
</g>
</svg>
