<?xml version="1.0" encoding="utf-8"?>
<!-- Generator: Adobe Illustrator 16.0.0, SVG Export Plug-In . SVG Version: 6.00 Build 0)  -->
<!DOCTYPE svg PUBLIC "-//W3C//DTD SVG 1.1//EN" "http://www.w3.org/Graphics/SVG/1.1/DTD/svg11.dtd">
<svg version="1.1" id="Layer_2" xmlns="http://www.w3.org/2000/svg" xmlns:xlink="http://www.w3.org/1999/xlink" x="0px" y="0px"
	 width="116px" height="137px" viewBox="0 0 116 137" enable-background="new 0 0 116 137" xml:space="preserve">
<g>
	
		<path fill="none" stroke="#000000" stroke-width="4.625" stroke-linecap="round" stroke-linejoin="round" stroke-miterlimit="10" d="
		M62.675,87.827h-6.646l0.125,5H13.341V34.254c0,0-0.142-31.604,23.896-31.604c16.628,0,35.005,22.138,37,31.604
		c1.06,5.032-11.562,0.386-11.562,0.386V87.827z"/>
	
		<polyline fill="none" stroke="#000000" stroke-width="4.625" stroke-linecap="round" stroke-linejoin="round" stroke-miterlimit="10" points="
		50.341,93.754 50.341,125.982 69.227,127.91 	"/>
	
		<polyline fill="none" stroke="#000000" stroke-width="4.625" stroke-linecap="round" stroke-linejoin="round" stroke-miterlimit="10" points="
		26.06,93.754 26.06,127.91 9.102,132.535 	"/>
	
		<line fill="none" stroke="#000000" stroke-width="4.625" stroke-linecap="round" stroke-linejoin="round" stroke-miterlimit="10" x1="13.341" y1="63.16" x2="62.675" y2="63.16"/>
	<circle cx="50.341" cy="16.106" r="2.732"/>
	<circle cx="41.089" cy="16.106" r="2.731"/>
	
		<polyline fill="none" stroke="#000000" stroke-width="4.625" stroke-linecap="round" stroke-linejoin="round" stroke-miterlimit="10" points="
		62.675,54.007 74.754,69.27 89.751,66.783 99.772,62.543 	"/>
	
		<polyline fill="none" stroke="#000000" stroke-width="4.625" stroke-linecap="round" stroke-linejoin="round" stroke-miterlimit="10" points="
		95.662,74.783 90.751,66.783 100.931,70.002 	"/>
	<path fill="none" stroke="#000000" stroke-width="3.0833" stroke-linecap="round" stroke-miterlimit="10" d="M33.415,31.406
		c0,0,10.406,13.875,20.812,0"/>
	<rect x="57.021" y="65.473" fill="#00AEEF" width="3.533" height="20.042"/>
	<rect x="45.142" y="65.473" fill="#00AEEF" width="5.557" height="25.106"/>
	<rect x="35.286" y="65.473" fill="#00AEEF" width="5.557" height="25.106"/>
	<rect x="15.573" y="65.473" fill="#00AEEF" width="5.558" height="25.106"/>
	<rect x="25.429" y="65.473" fill="#00AEEF" width="5.557" height="25.106"/>
	
		<polyline fill="none" stroke="#000000" stroke-width="4.625" stroke-linecap="round" stroke-linejoin="round" stroke-miterlimit="10" points="
		13.2,53.718 2.588,67.27 25.358,75.54 30.821,69.887 	"/>
	
		<polyline fill="none" stroke="#000000" stroke-width="4.625" stroke-linecap="round" stroke-linejoin="round" stroke-miterlimit="10" points="
		33.92,76.54 25.598,75.646 31.142,82.515 	"/>
	
		<line fill="none" stroke="#000000" stroke-width="4.625" stroke-linecap="round" stroke-linejoin="round" stroke-miterlimit="10" x1="90.751" y1="67.392" x2="91.78" y2="58.663"/>
	
		<line fill="none" stroke="#000000" stroke-width="4.625" stroke-linecap="round" stroke-linejoin="round" stroke-miterlimit="10" x1="24.576" y1="75.392" x2="25.604" y2="66.663"/>
	
		<line fill="none" stroke="#000000" stroke-width="2.1437" stroke-miterlimit="10" x1="54.484" y1="63.16" x2="54.484" y2="91.131"/>
</g>
</svg>
