<?xml version="1.0" encoding="utf-8"?>
<!-- Generator: Adobe Illustrator 15.0.2, SVG Export Plug-In . SVG Version: 6.00 Build 0)  -->
<!DOCTYPE svg PUBLIC "-//W3C//DTD SVG 1.1//EN" "http://www.w3.org/Graphics/SVG/1.1/DTD/svg11.dtd">
<svg version="1.1" id="Layer_1" xmlns="http://www.w3.org/2000/svg" xmlns:xlink="http://www.w3.org/1999/xlink" x="0px" y="0px"
	 width="154px" height="128px" viewBox="0 0 154 128" enable-background="new 0 0 154 128" xml:space="preserve">
<polygon fill="#804315" points="9.748,105.322 0.748,128 154,128 154,105.322 "/>
<path fill="#969200" d="M154,0.75H41.253c-4.421,0-8.005,7.66-8.005,17.109v64.287c0,9.448,3.584,17.109,8.005,17.109H154V0.75z"/>
<path fill="#BCBE00" d="M57.783,93.009H154V60.37H57.783c-3.886,0-7.035,2.538-7.035,5.669V36.657c0-3.131-2.538-5.67-5.669-5.67
	H21.417c-3.131,0-5.669,2.539-5.669,5.67v75.758c0,3.131,2.538,5.669,5.669,5.669h23.662c3.131,0,5.669-2.538,5.669-5.669v1.312
	c0,2.172,3.149,3.934,7.035,3.934H154V95.009H57.783c-3.886,0-7.035,1.761-7.035,3.936V87.34
	C50.748,90.471,53.897,93.009,57.783,93.009z"/>
</svg>
