<?xml version="1.0" encoding="utf-8"?>
<!-- Generator: Adobe Illustrator 16.0.0, SVG Export Plug-In . SVG Version: 6.00 Build 0)  -->
<!DOCTYPE svg PUBLIC "-//W3C//DTD SVG 1.1//EN" "http://www.w3.org/Graphics/SVG/1.1/DTD/svg11.dtd">
<svg version="1.1" id="Layer_1" xmlns="http://www.w3.org/2000/svg" xmlns:xlink="http://www.w3.org/1999/xlink" x="0px" y="0px"
	 width="320px" height="129px" viewBox="0 0 320 129" enable-background="new 0 0 320 129" xml:space="preserve">
<path fill="#404041" d="M250.888,6.899c-15.645,0-35.391,7.967-44.918,30.203V8.271h-81.954l-11.944,66.524h-2.111V8.271H75.842
	L21.319,71.708v32.233h52.979V129h35.662v-25.059h0.131c4.879,11.951,18.109,25.032,48.729,25.032
	c25.622,0,42.706-9.861,49.79-24.854c10.225,18.177,28.014,24.854,42.449,24.854c21.604,0,50.75-14.916,50.75-61.037
	C301.81,21.816,272.664,6.899,250.888,6.899z M74.299,74.795H45.152l29.147-33.434V74.795z M150.42,37.418h55.419
	c-2.293,5.438-3.982,11.713-4.852,18.933c-7.086-6.707-16.881-9.846-27.594-9.846c-8.916,0-18.688,1.543-26.06,7.029l-0.343-0.343
	L150.42,37.418z M159.85,101.884c-5.314,0-10.115-1.199-13.544-3.942c-2.4-1.887-4.115-4.802-4.8-7.888h-15.428v-13.03h17.485
	c3.6-5.486,9.258-7.715,17.317-7.715c10.287,0,17.146,6.172,17.146,16.631C178.025,95.369,169.794,101.884,159.85,101.884z
	 M250.888,102.741c-17.316,0-18.002-22.289-18.002-34.805c0-12.859,0.686-34.806,18.346-34.806
	c17.145,0,18.002,22.462,18.002,34.806C269.234,80.624,268.376,102.741,250.888,102.741z"/>
<rect x="268.761" fill="#EC1C24" width="51.367" height="29.245"/>
<rect x="217.822" fill="#FFFFFF" width="51.367" height="29.245"/>
<g>
	<path fill="#003056" d="M244.431,7.806c-9.875,0-17.328,1.52-17.328,1.52s-1.244,0.195-1.244,1.337v7.837
		c0,1.082,1.244,1.292,1.244,1.292s7.545,1.648,17.328,1.648c9.785,0,17.332-1.648,17.332-1.648s1.242-0.21,1.242-1.292v-7.837
		c0-1.142-1.242-1.337-1.242-1.337S254.308,7.806,244.431,7.806z"/>
	<path fill="#FFFFFF" d="M232.144,13.062h0.02c0.367-0.658,0.992-0.95,1.734-0.95h0.365v1.828c-0.26-0.146-0.51-0.177-0.805-0.177
		c-1.053,0-1.314,0.699-1.314,1.617v2.164h-1.902v-5.359h1.902V13.062z"/>
	<path fill="#FFFFFF" d="M240.63,15.184h-4.002c0,0.773,0.408,1.19,1.191,1.19c0.408,0,0.701-0.135,0.91-0.49h1.828
		c-0.303,1.264-1.506,1.839-2.727,1.839c-1.777,0-3.104-1.004-3.104-2.853c0-1.786,1.223-2.862,2.967-2.862
		c1.859,0,2.936,1.15,2.936,2.978V15.184z M238.865,14.087c-0.094-0.513-0.564-0.846-1.076-0.846c-0.553,0-1.014,0.291-1.127,0.846
		H238.865z"/>
	<path fill="#FFFFFF" d="M247.169,15.184h-4c0,0.773,0.406,1.19,1.191,1.19c0.406,0,0.699-0.135,0.908-0.49h1.828
		c-0.303,1.264-1.504,1.839-2.727,1.839c-1.777,0-3.104-1.004-3.104-2.853c0-1.786,1.223-2.862,2.967-2.862
		c1.861,0,2.936,1.15,2.936,2.978V15.184z M245.404,14.087c-0.094-0.513-0.562-0.846-1.076-0.846c-0.553,0-1.012,0.291-1.127,0.846
		H245.404z"/>
	<path fill="#FFFFFF" d="M258.748,15.184h-4.002c0,0.773,0.408,1.19,1.191,1.19c0.408,0,0.701-0.135,0.91-0.49h1.828
		c-0.303,1.264-1.506,1.839-2.729,1.839c-1.775,0-3.102-1.004-3.102-2.853c0-1.786,1.223-2.862,2.967-2.862
		c1.859,0,2.936,1.15,2.936,2.978V15.184z M256.982,14.087c-0.094-0.513-0.564-0.846-1.076-0.846c-0.553,0-1.012,0.291-1.129,0.846
		H256.982z"/>
	<path fill="#FFFFFF" d="M252.035,13.93c-0.281-0.21-0.615-0.377-0.982-0.377c-0.73,0-1.307,0.564-1.307,1.307
		c0,0.773,0.555,1.316,1.338,1.316c0.336,0,0.701-0.135,0.951-0.365l0.484,1.341c-0.596,0.457-1.361,0.571-1.822,0.571
		c-1.588,0-2.914-1.181-2.914-2.801c0-1.725,1.316-2.915,2.998-2.915c0.439,0,1.279,0.194,1.752,0.6L252.035,13.93z"/>
</g>
<g>
	<path fill="#FFFFFF" d="M274.766,9.236h0.979V9.87h0.019c0.29-0.534,0.852-0.761,1.45-0.761c1.477,0,2.193,1.124,2.193,2.492
		c0,1.26-0.635,2.447-2.021,2.447c-0.599,0-1.242-0.218-1.568-0.734h-0.018v2.339h-1.033V9.236z M277.076,9.925
		c-0.87,0-1.313,0.661-1.313,1.658c0,0.943,0.48,1.65,1.313,1.65c0.943,0,1.297-0.834,1.297-1.65
		C278.373,10.731,277.929,9.925,277.076,9.925z"/>
	<path fill="#FFFFFF" d="M280.302,7.45h1.033v6.472h-1.033V7.45z"/>
	<path fill="#FFFFFF" d="M286.573,13.922h-1.016V13.27h-0.019c-0.253,0.471-0.815,0.779-1.332,0.779
		c-1.224,0-1.749-0.616-1.749-1.84V9.236h1.033v2.873c0,0.824,0.335,1.124,0.897,1.124c0.861,0,1.15-0.554,1.15-1.278V9.236h1.034
		V13.922z"/>
	<path fill="#FFFFFF" d="M287.659,9.236h0.979v0.652h0.027c0.309-0.463,0.698-0.779,1.441-0.779c0.571,0,1.105,0.244,1.314,0.779
		c0.344-0.48,0.788-0.779,1.468-0.779c0.988,0,1.568,0.435,1.568,1.577v3.235h-1.033v-2.737c0-0.743-0.046-1.26-0.853-1.26
		c-0.697,0-0.997,0.462-0.997,1.251v2.746h-1.033v-3.009c0-0.644-0.199-0.988-0.824-0.988c-0.535,0-1.024,0.435-1.024,1.215v2.782
		h-1.033V9.236z"/>
	<path fill="#FFFFFF" d="M295.569,7.45h1.033v2.393h0.018c0.281-0.453,0.87-0.733,1.396-0.733c1.478,0,2.193,1.124,2.193,2.492
		c0,1.26-0.635,2.447-2.021,2.447c-0.635,0-1.314-0.154-1.622-0.771h-0.019v0.644h-0.979V7.45z M297.88,9.925
		c-0.87,0-1.313,0.661-1.313,1.658c0,0.943,0.48,1.65,1.313,1.65c0.943,0,1.297-0.834,1.297-1.65
		C299.177,10.731,298.732,9.925,297.88,9.925z"/>
	<path fill="#FFFFFF" d="M301.105,7.45h1.033V8.43h-1.033V7.45z M301.105,9.236h1.033v4.686h-1.033V9.236z"/>
	<path fill="#FFFFFF" d="M303.262,9.236h0.979v0.688l0.019,0.019c0.308-0.518,0.843-0.834,1.459-0.834
		c1.016,0,1.659,0.544,1.659,1.595v3.218h-1.033v-2.945c-0.019-0.734-0.309-1.052-0.916-1.052c-0.688,0-1.133,0.544-1.133,1.232
		v2.765h-1.033V9.236z"/>
	<path fill="#FFFFFF" d="M312.794,13.677c0,1.405-0.824,2.104-2.302,2.104c-0.942,0-2.003-0.363-2.094-1.46h1.033
		c0.127,0.59,0.599,0.689,1.124,0.689c0.834,0,1.205-0.426,1.205-1.196v-0.717h-0.018c-0.29,0.517-0.825,0.825-1.405,0.825
		c-1.486,0-2.103-1.124-2.103-2.465c0-1.261,0.788-2.348,2.121-2.348c0.589,0,1.124,0.244,1.387,0.771h0.018V9.236h1.033V13.677z
		 M311.761,11.475c0-0.807-0.362-1.55-1.26-1.55c-0.915,0-1.232,0.852-1.232,1.632c0,0.77,0.371,1.55,1.232,1.55
		C311.417,13.106,311.761,12.272,311.761,11.475z"/>
	<path fill="#FFFFFF" d="M277.901,18.958c-0.081-0.57-0.498-0.879-1.069-0.879c-0.535,0-1.287,0.281-1.287,1.704
		c0,0.779,0.345,1.604,1.241,1.604c0.599,0,1.016-0.399,1.115-1.07h1.033c-0.19,1.215-0.942,1.886-2.148,1.886
		c-1.468,0-2.274-1.042-2.274-2.42c0-1.414,0.771-2.52,2.312-2.52c1.087,0,2.012,0.544,2.111,1.694H277.901z"/>
	<path fill="#FFFFFF" d="M280.583,20.001c0,0.733,0.398,1.387,1.26,1.387c0.599,0,0.961-0.264,1.142-0.78h0.979
		c-0.227,1.024-1.097,1.596-2.121,1.596c-1.469,0-2.293-1.024-2.293-2.466c0-1.332,0.87-2.474,2.266-2.474
		c1.478,0,2.384,1.332,2.212,2.737H280.583z M282.994,19.32c-0.036-0.652-0.48-1.241-1.179-1.241c-0.716,0-1.205,0.544-1.232,1.241
		H282.994z"/>
	<path fill="#FFFFFF" d="M284.813,17.391h0.979v0.688l0.019,0.019c0.308-0.518,0.843-0.834,1.459-0.834
		c1.016,0,1.659,0.544,1.659,1.595v3.218h-1.034v-2.945c-0.018-0.734-0.308-1.052-0.915-1.052c-0.688,0-1.133,0.544-1.133,1.232
		v2.765h-1.033V17.391z"/>
	<path fill="#FFFFFF" d="M289.543,17.391h0.779v-1.405h1.033v1.405h0.934v0.77h-0.934v2.502c0,0.426,0.037,0.644,0.499,0.644
		c0.145,0,0.29,0,0.435-0.036v0.798c-0.227,0.018-0.443,0.054-0.67,0.054c-1.079,0-1.278-0.417-1.297-1.196V18.16h-0.779V17.391z"/>
	<path fill="#FFFFFF" d="M293.032,17.391h0.97v0.906h0.019c0.117-0.499,0.733-1.033,1.368-1.033c0.235,0,0.299,0.018,0.39,0.027
		v0.996c-0.145-0.018-0.299-0.045-0.444-0.045c-0.707,0-1.269,0.571-1.269,1.604v2.229h-1.033V17.391z"/>
	<path fill="#FFFFFF" d="M296.866,20.001c0,0.733,0.398,1.387,1.26,1.387c0.599,0,0.961-0.264,1.142-0.78h0.979
		c-0.227,1.024-1.097,1.596-2.121,1.596c-1.469,0-2.293-1.024-2.293-2.466c0-1.332,0.87-2.474,2.266-2.474
		c1.478,0,2.384,1.332,2.212,2.737H296.866z M299.277,19.32c-0.036-0.652-0.48-1.241-1.179-1.241c-0.716,0-1.205,0.544-1.232,1.241
		H299.277z"/>
</g>
</svg>
