<?xml version="1.0" encoding="utf-8"?>
<!-- Generator: Adobe Illustrator 16.0.0, SVG Export Plug-In . SVG Version: 6.00 Build 0)  -->
<!DOCTYPE svg PUBLIC "-//W3C//DTD SVG 1.1//EN" "http://www.w3.org/Graphics/SVG/1.1/DTD/svg11.dtd">
<svg version="1.1" id="Layer_1" xmlns="http://www.w3.org/2000/svg" xmlns:xlink="http://www.w3.org/1999/xlink" x="0px" y="0px"
	 width="400px" height="186px" viewBox="0 0 400 186" enable-background="new 0 0 400 186" xml:space="preserve">
<g>
	<path fill="#EC1C24" d="M34.558,10.41c0.395-1.585,0.594-2.775,0.594-3.667c0-1.585-1.784-2.578-4.56-2.578h-2.777
		c-0.594,0-0.792-0.397-0.693-0.792l0.395-2.281c0.099-0.594,0.495-0.594,1.29-0.594h7.538c2.677,0,5.256-0.1,7.833-0.199
		c2.577,0,5.257-0.1,7.833-0.1c2.378,0,11.006,0,16.263,3.272c3.173,1.984,5.95,5.555,5.95,10.511
		c0,12.097-10.709,17.254-20.625,19.036c-0.396,0-0.396,0.199-0.199,0.397c9.321,2.38,14.677,7.737,14.677,16.067
		c0,0.989-0.199,6.938-5.555,11.794c-3.767,3.374-9.916,5.955-22.013,5.955c-4.76,0-9.717-0.301-14.479-0.301
		c-4.56,0-9.319,0.301-13.883,0.301c-0.594,0-0.991-0.199-0.792-0.994l0.395-2.183c0-0.397,0.199-0.795,0.792-0.795h3.57
		c3.369,0,4.957-2.178,5.95-5.849L34.558,10.41z M33.368,56.817c-0.793,2.978-0.793,4.762,0.991,5.751
		c1.19,0.795,4.363,1.192,6.148,1.192c10.51,0,15.864-7.933,15.864-16.066c0-10.311-9.717-12.888-15.864-13.086h-1.19L33.368,56.817
		z M40.11,30.836c1.585,0.397,3.767,0.397,4.958,0.397c9.123,0,17.848-4.762,18.047-16.459c0-5.95-5.553-11.107-12.492-11.107
		c-1.19,0-2.182,0-3.174,0.197L40.11,30.836z"/>
	<path fill="#EC1C24" d="M118.236,25.483c0.594,0,0.792,0.397,0.594,0.989c-1.784,4.168-6.545,16.859-7.339,19.436
		c-0.396,1.784-4.165,13.288-4.165,14.477c0,0.993,0.396,1.192,1.188,1.192c1.389,0,5.355-4.762,6.148-5.751
		c0.396-0.397,0.594-0.597,0.991-0.301l1.19,0.893c0.196,0.198,0.196,0.596,0,1.192c-0.991,1.983-7.933,10.312-15.669,10.312
		c-2.182,0-3.173-0.993-3.173-2.58c0-1.387,0.594-3.568,4.164-13.879l-0.594-0.199c-4.165,6.147-12.296,16.658-20.428,16.658
		c-2.577,0-6.148-2.978-6.148-7.143c0-13.288,13.883-35.102,27.168-35.102c4.364,0,6.347,1.784,7.537,3.369l1.586-2.775
		c0.395-0.594,0.991-0.792,1.585-0.792h5.363V25.483z M103.363,42.936c1.389-2.776,2.38-5.753,2.38-8.924
		c0-1.587-1.784-4.364-4.562-4.364c-2.577,0-5.552,2.381-8.132,6.049c-5.554,7.833-8.33,16.757-8.33,22.308
		c0,2.184,0.793,3.177,2.379,3.177C90.867,61.182,101.578,46.703,103.363,42.936z"/>
	<path fill="#EC1C24" d="M134.492,54.039c-0.793,2.182-1.784,4.563-1.784,5.756c0,0.989,0.594,1.784,1.784,1.784
		c2.28,0,8.43-4.961,9.023-5.557c0.395-0.393,0.594-0.393,0.991,0l1.091,1.192c0.396,0.199,0.396,0.397,0.199,0.79
		c-1.19,1.592-10.115,9.92-19.039,9.92c-2.975,0-4.164-1.586-4.164-2.979c0-1.784,0.397-3.767,0.991-5.551l10.51-27.168h-7.339
		c-0.594,0-0.793-0.199-0.594-0.994l0.792-2.58c0.199-0.592,0.396-0.791,0.991-0.791h7.638l4.064-10.512
		c0.396-0.992,0.794-1.19,2.578-1.389c1.983-0.196,5.949-1.983,6.745-2.577c0.594-0.196,1.188-0.595,1.585-0.595
		c0.595,0,0.992,0.993,0.595,1.984l-6.445,13.089h10.212c0.397,0,0.594,0.395,0.397,0.989l-0.793,2.878
		c-0.099,0.395-0.395,0.497-0.991,0.497h-10.313L134.492,54.039z"/>
	<path fill="#EC1C24" d="M170.877,40.159c4.759-7.141,11.303-14.478,18.84-14.478c6.148,0,7.933,4.758,7.933,9.222
		c0,7.24-2.975,15.568-6.546,21.914c-4.361,7.933-9.916,13.289-16.459,13.289c-3.174,0-5.753-2.182-5.753-5.358
		c0-2.381,1.588-4.955,4.165-4.955c2.378,0,3.369,1.784,3.569,3.369c0.198,1.387,0.594,2.677,1.982,2.677
		c2.182,0,4.363-6.245,5.949-11.402c1.984-5.749,3.768-13.088,3.768-17.749c0-2.279-0.594-4.659-2.974-4.659
		c-4.362,0-11.701,8.331-14.477,11.896c-2.381,3.176-4.364,6.745-5.555,10.112l-5.156,12.101c-0.198,0.592-0.494,0.791-1.191,0.791
		h-6.346c-0.893,0-1.091-0.592-0.793-1.389l21.22-55.331c0.793-2.082,1.288-3.767,1.288-4.66c0-1.19-1.288-1.983-3.074-1.983h-2.975
		c-0.398,0-0.793-0.395-0.594-0.991l0.396-1.784C168.298,0.196,168.497,0,169.488,0h15.669c0.793,0,1.19,0.395,1.19,0.991
		c0,0.597-0.397,1.585-0.992,3.074l-15.072,35.498L170.877,40.159z"/>
	<path fill="#EC1C24" d="M204.579,66.931c-0.594,0-0.991-0.397-0.792-0.79l4.957-16.067c1.488-4.958,4.763-15.072,4.763-16.856
		c0-0.792-0.795-1.585-1.786-1.585c-1.784,0-5.752,3.767-7.142,5.75c-0.196,0.397-0.594,0.397-0.991,0.199l-1.192-0.792
		c-0.195-0.199-0.195-0.594,0-0.992c1.789-2.977,7.541-10.114,15.669-10.114c2.977,0,3.968,1.983,3.968,3.767
		c0,1.785-1.786,6.943-3.968,13.485l0.693,0.397c2.579-5.555,9.618-17.649,16.163-17.649c2.778,0,5.158,1.983,5.158,4.958
		c0,2.974-2.38,5.553-4.164,5.553c-1.192,0-2.182-0.199-2.977-0.795c-0.79-0.594-1.387-1.188-2.778-1.188
		c-2.775,0-8.329,8.131-11.301,13.879c-0.994,2.183-2.085,4.762-3.176,8.131l-3.371,10.118c-0.197,0.393-0.595,0.592-1.19,0.592
		H204.579z"/>
	<path fill="#EC1C24" d="M240.366,54.34c0-8.33,2.78-16.263,8.331-22.311c3.969-4.364,8.729-6.347,14.081-6.347
		c5.755,0,12.295,3.568,12.295,12.495c0,6.347-2.579,16.659-8.53,23.205c-3.767,4.364-8.331,6.546-14.275,6.546
		C246.419,67.925,240.366,63.458,240.366,54.34z M262.185,53.346c3.668-6.245,6.741-14.476,6.741-18.044
		c0-2.182-1.387-4.465-4.264-4.465c-4.065,0-7.832,3.471-12.689,11.6c-3.275,5.558-5.258,11.504-5.258,15.47
		c0,2.677,1.982,4.66,4.167,4.66C254.745,62.566,258.313,59.795,262.185,53.346z"/>
	<path fill="#EC1C24" d="M280.026,54.34c0-8.33,2.777-16.263,8.331-22.311c3.966-4.364,8.727-6.347,14.079-6.347
		c5.755,0,12.295,3.568,12.295,12.495c0,6.347-2.579,16.659-8.528,23.205c-3.769,4.364-8.331,6.546-14.277,6.546
		C286.079,67.925,280.026,63.458,280.026,54.34z M301.843,53.346c3.667-6.245,6.741-14.476,6.741-18.044
		c0-2.182-1.387-4.465-4.262-4.465c-4.067,0-7.834,3.471-12.692,11.6c-3.272,5.558-5.255,11.504-5.255,15.47
		c0,2.677,1.982,4.66,4.164,4.66C294.403,62.566,297.974,59.795,301.843,53.346z"/>
	<path fill="#EC1C24" d="M327.812,47.299c2.279-6.149,5.06-12.395,5.06-13.883c0-0.792-0.397-1.387-1.292-1.387
		c-1.188,0-6.347,4.759-7.137,5.949c-0.397,0.397-0.795,0.397-1.192,0l-1.19-0.991c-0.198-0.397-0.397-0.594-0.198-0.992
		c1.984-2.38,9.121-10.313,16.362-10.313c2.974,0,4.264,1.387,4.264,3.568c0,2.779-5.554,13.883-6.347,16.261l0.793,0.397
		c4.165-6.941,12.892-20.227,21.814-20.227c3.374,0,5.454,2.279,5.454,4.659c0,3.671-3.666,12.197-5.256,15.766l0.795,0.397
		c5.353-8.33,13.088-20.822,22.21-20.822c3.572,0,5.456,3.074,5.456,5.354c0,2.875-2.479,8.528-5.456,17.055
		c-1.983,5.751-3.966,9.913-3.966,11.504c0.198,0.791,0.596,1.387,1.192,1.387c2.182,0,6.939-6.347,7.536-7.142
		c0.199-0.394,0.594-0.394,0.793-0.296l1.389,0.892c0.396,0.397,0.396,0.597,0.199,1.392c-0.397,0.592-8.729,12.096-17.851,12.096
		c-2.18,0-3.37-1.585-3.37-2.978c0-2.182,2.182-8.33,5.949-17.846c3.075-7.739,4.264-11.106,4.264-12.691
		c0-1.193-0.693-1.985-2.08-1.985c-2.383,0-10.312,8.924-16.464,18.246c-0.592,0.989-2.378,3.568-3.768,6.942l-3.073,8.53
		c-0.199,0.591-0.693,0.79-1.488,0.79h-6.249c-0.791,0-1.188-0.397-0.989-0.989l6.247-16.459c2.579-6.944,5.059-13.488,5.059-14.876
		c0.097-1.19-0.795-1.983-2.085-1.983c-2.378,0-10.113,8.33-15.862,16.66c-1.39,1.983-2.978,4.756-4.562,8.329l-3.272,8.53
		c-0.199,0.592-0.693,0.79-1.488,0.79h-6.249c-0.594,0-1.091-0.397-0.793-1.188L327.812,47.299z"/>
	<path fill="#EC1C24" d="M29.796,124.032c-0.396,0-1.089,0.199-1.188,0.597l-6.94,21.516c-1.786,5.354-0.199,6.349,2.974,6.349
		h2.974c0.594,0,0.793,0.397,0.793,0.795l-0.396,2.182c-0.199,0.592-0.594,0.989-1.19,0.989c-0.992,0-4.957-0.296-13.683-0.296
		c-7.933,0-11.502,0.296-12.297,0.296c-0.594,0-0.991-0.397-0.792-0.989l0.395-2.182c0.199-0.597,0.396-0.795,0.992-0.795H3.82
		c3.173,0,4.958-2.182,6.642-7.241l15.567-47.3c0.991-2.977-0.793-4.56-2.975-4.56h-3.572c-0.395,0-0.792-0.397-0.594-0.994
		l0.395-2.182c0.199-0.592,0.397-0.79,0.992-0.79c0.792,0,6.148,0.296,13.882,0.296c6.348,0,11.305-0.296,12.296-0.296
		c0.793,0,0.992,0.397,0.992,0.79l-0.792,2.381c0,0.596-0.199,0.795-0.793,0.795h-2.378c-3.571,0-4.958,1.186-6.148,4.957
		l-6.94,21.317c-0.196,0.397,0.199,0.596,0.594,0.596h30.937c0.395,0,0.792-0.198,0.991-0.596l7.041-22.312
		c0.892-2.777-0.892-3.963-3.074-3.963h-1.984c-0.395,0-0.594-0.397-0.594-0.994l0.594-2.376c0-0.397,0.395-0.596,0.993-0.596
		c0.792,0,5.949,0.296,12.495,0.296c5.95,0,10.112-0.296,11.106-0.296c0.793,0,1.188,0.397,0.991,0.79l-0.594,2.381
		c0,0.397-0.396,0.795-0.793,0.795h-2.378c-2.577,0-4.166,1.186-5.356,4.957l-15.469,47.396c-1.191,3.767-0.594,6.743,1.983,6.743
		h3.57c0.594,0,0.992,0.397,0.793,0.994l-0.594,2.177c0,0.596-0.196,0.795-1.188,0.795c-0.991,0-4.165-0.296-12.691-0.296
		c-8.331,0-12.297,0.296-13.487,0.296c-0.594,0-0.793-0.397-0.793-1.188l0.396-1.784c0-0.597,0.199-0.994,0.792-0.994h2.775
		c3.373,0,5.356-1.784,7.538-8.429l6.348-19.232c0.196-0.596-0.199-0.795-0.594-0.795H29.796z"/>
	<path fill="#EC1C24" d="M124.382,114.707c0.594,0,0.793,0.397,0.594,0.994c-1.783,4.164-6.546,16.856-7.338,19.436
		c-0.396,1.784-4.165,13.284-4.165,14.477c0,0.989,0.396,1.188,1.19,1.188c1.387,0,5.353-4.756,6.147-5.749
		c0.395-0.397,0.594-0.597,0.992-0.296l1.19,0.892c0.196,0.199,0.196,0.592,0,1.188c-0.991,1.982-7.933,10.312-15.669,10.312
		c-2.18,0-3.173-0.989-3.173-2.574c0-1.392,0.594-3.573,4.164-13.885l-0.594-0.199c-4.166,6.147-12.296,16.658-20.428,16.658
		c-2.578,0-6.148-2.972-6.148-7.137c0-13.288,13.882-35.104,27.17-35.104c4.361,0,6.348,1.784,7.535,3.374l1.586-2.778
		c0.397-0.596,0.991-0.797,1.585-0.797h5.36V114.707z M109.508,132.16c1.39-2.777,2.382-5.75,2.382-8.923
		c0-1.586-1.785-4.365-4.563-4.365c-2.576,0-5.552,2.38-8.131,6.052c-5.555,7.837-8.33,16.761-8.33,22.312
		c0,2.184,0.792,3.173,2.38,3.173C97.016,150.403,107.724,135.928,109.508,132.16z"/>
	<path fill="#EC1C24" d="M131.516,175.597c-1.786,5.153-0.794,6.739,2.974,6.739h2.775c0.595,0,0.793,0.397,0.595,0.892
		l-0.495,2.087c-0.1,0.397-0.494,0.597-1.287,0.597c-0.991,0-3.966-0.301-11.503-0.301c-8.132,0-10.709,0.301-11.9,0.301
		c-0.594,0-0.792-0.199-0.692-0.597l0.494-2.184c0.198-0.397,0.396-0.795,0.793-0.795h2.379c3.372,0,5.554-2.08,7.537-7.735
		l18.542-52.551c-4.66,1.188-9.617,5.749-11.402,8.13c-0.397,0.397-0.793,0.397-1.19,0.097l-1.19-0.892
		c-0.198-0.194-0.198-0.592,0-0.989c2.775-3.374,7.538-8.729,15.667-11.701l3.073-9.517c0.196-0.795,0.594-1.192,1.586-1.387
		l8.824-2.778c0.196-0.102,0.495-0.198,0.793-0.198c0.198,0,0.398,0.198,0.398,0.397s-0.2,0.494-0.299,0.79l-4.957,11.107
		c1.485-0.199,2.676-0.199,3.667-0.199c9.519,0,14.477,6.147,14.477,13.189S168,142.275,159.076,148.82
		c-4.76,3.377-12.692,6.548-20.824,7.343L131.516,175.597z M139.646,152.585c9.718-1.483,22.014-9.912,22.014-21.913
		c0-8.028-3.767-11.005-7.339-11.005c-0.991,0-1.982,0-2.974,0.296L139.646,152.585z"/>
	<path fill="#EC1C24" d="M179.104,175.597c-1.784,5.153-0.793,6.739,2.975,6.739h2.775c0.594,0,0.794,0.397,0.594,0.892
		l-0.494,2.087c-0.1,0.397-0.495,0.597-1.288,0.597c-0.991,0-3.966-0.301-11.503-0.301c-8.132,0-10.708,0.301-11.898,0.301
		c-0.594,0-0.793-0.199-0.693-0.597l0.494-2.184c0.199-0.397,0.397-0.795,0.793-0.795h2.378c3.372,0,5.555-2.08,7.538-7.735
		l18.541-52.551c-4.66,1.188-9.617,5.749-11.403,8.13c-0.396,0.397-0.794,0.397-1.189,0.097l-1.19-0.892
		c-0.198-0.194-0.198-0.592,0-0.989c2.777-3.374,7.538-8.729,15.667-11.701l3.074-9.517c0.196-0.795,0.594-1.192,1.586-1.387
		l8.825-2.778c0.198-0.102,0.494-0.198,0.792-0.198c0.199,0,0.397,0.198,0.397,0.397s-0.198,0.494-0.298,0.79l-4.958,11.107
		c1.486-0.199,2.675-0.199,3.669-0.199c9.521,0,14.477,6.147,14.477,13.189s-3.171,14.176-12.097,20.721
		c-4.762,3.377-12.692,6.548-20.822,7.343L179.104,175.597z M187.234,152.585c9.718-1.483,22.014-9.912,22.014-21.913
		c0-8.028-3.77-11.005-7.342-11.005c-0.991,0-1.98,0-2.972,0.296L187.234,152.585z"/>
	<path fill="#EC1C24" d="M237.398,143.468c-1.387,3.768-1.784,5.353-1.784,6.349c0,0.791,0.397,1.387,1.188,1.387
		c1.982-0.198,7.141-5.554,7.737-6.349c0.198-0.397,0.594-0.397,0.892-0.097l1.091,1.091c0.397,0.393,0.594,0.592,0.199,0.989
		c-0.597,0.795-7.539,10.31-18.346,10.31c-2.082,0-2.875-1.188-2.875-2.773c0-1.982,1.586-6.646,5.552-17.651l2.777-7.733
		c0.994-2.681,1.586-4.562,1.586-5.754c0-0.791-0.394-1.188-1.188-1.188c-1.585,0-6.149,5.154-7.536,6.744
		c-0.397,0.397-0.795,0.397-1.19,0l-0.991-0.893c-0.397-0.3-0.596-0.499-0.397-0.892c0.594-0.597,9.52-12.101,18.246-12.101
		c2.38,0,3.568,1.192,3.568,3.175c0,1.983-1.287,5.655-2.975,10.312L237.398,143.468z M239.086,97.555
		c0-2.677,2.479-5.355,5.554-5.355c3.966,0,6.048,2.48,6.048,4.958c0,2.283-2.281,5.75-5.852,5.75
		C240.87,102.907,239.086,100.032,239.086,97.555z"/>
	<path fill="#EC1C24" d="M261.787,155.562c-0.198,0.397-0.397,0.596-1.389,0.596h-6.347c-0.892,0-0.993-0.693-0.795-1.289
		l6.744-18.346c2.182-6.346,4.562-12.491,4.562-13.878c0-0.994-0.594-1.592-1.485-1.592c-1.787,0-5.655,3.575-7.241,5.16
		c-0.198,0.397-0.596,0.397-0.892,0.097l-1.091-1.091c-0.397-0.198-0.597-0.591-0.199-0.988c1.387-1.784,7.935-9.321,16.954-9.321
		c2.88,0,3.771,1.983,3.771,3.374c0,2.182-2.875,8.921-4.663,13.284l0.596,0.397c2.977-4.564,12.097-17.056,21.517-17.056
		c3.672,0,5.655,2.778,5.655,5.556c0,2.575-1.29,7.238-5.355,17.449c-2.579,6.545-3.966,10.314-3.966,11.703
		c0,0.989,0.397,1.585,1.188,1.585c1.387,0,5.158-3.372,6.149-4.763c0.397-0.199,0.793-0.199,1.19,0.198l0.991,0.795
		c0.396,0.199,0.396,0.597,0,1.188c-1.19,1.592-8.133,8.53-16.462,8.53c-2.182,0-3.369-1.188-3.369-2.973s2.775-8.53,5.948-17.254
		c1.488-4.165,4.267-11.703,4.267-12.892c0-1.585-0.893-2.38-2.283-2.38c-2.975,0-11.301,7.932-15.466,14.675
		c-1.982,3.176-3.771,6.147-5.357,10.111L261.787,155.562z"/>
	<path fill="#EC1C24" d="M332.677,146.341c0.497,0.296,0.497,0.495,0.298,0.893c-2.182,3.567-8.925,9.914-17.649,9.914
		c-6.547,0-10.509-3.568-10.509-10.511c0-7.732,4.165-18.243,12.293-25.583c3.966-3.568,9.52-6.147,14.874-6.147
		c4.562,0,6.942,2.977,6.942,5.852c0,5.057-3.372,9.616-9.122,12.789c-5.356,2.778-10.709,3.971-14.477,4.164
		c-0.397,0.994-0.991,3.772-0.991,7.341c0,3.966,2.577,6.346,5.354,6.346c4.562,0,8.528-2.977,10.71-5.948
		c0.196-0.199,0.594-0.397,0.793-0.199L332.677,146.341z M316.118,134.541c1.784,0,6.545-1.188,9.914-3.768
		c2.182-1.784,4.165-4.761,4.165-7.538c0-1.784-0.791-3.568-2.973-3.568C322.266,119.667,317.309,129.188,316.118,134.541z"/>
	<path fill="#EC1C24" d="M348.038,157.147c-6.545,0-9.914-2.381-9.914-5.75c0-2.38,1.585-4.164,3.767-4.164
		c2.381,0,3.971,1.585,4.761,3.966c0.597,1.585,1.392,2.579,3.176,2.579c2.775,0,4.957-2.182,4.957-6.347
		c0.199-3.374-2.38-6.249-4.463-9.817c-1.982-3.369-3.868-5.852-3.67-10.014c0-6.349,5.357-12.69,14.676-12.69
		c3.374,0,7.737,1.392,7.737,5.556c0,2.575-1.588,4.165-3.771,4.165c-1.784,0-3.37-0.795-3.966-3.374
		c-0.397-1.188-0.791-2.773-2.381-2.773c-1.982,0-4.164,1.387-4.164,5.75c0,3.369,3.471,7.437,4.562,8.925
		c1.983,2.677,3.768,6.147,3.768,10.708C363.111,151.597,356.964,157.147,348.038,157.147z"/>
	<path fill="#EC1C24" d="M378.975,157.147c-6.545,0-9.915-2.381-9.915-5.75c0-2.38,1.588-4.164,3.768-4.164
		c2.38,0,3.97,1.585,4.761,3.966c0.596,1.585,1.391,2.579,3.175,2.579c2.773,0,4.957-2.182,4.957-6.347
		c0.199-3.374-2.378-6.249-4.462-9.817c-1.983-3.369-3.869-5.852-3.67-10.014c0-6.349,5.356-12.69,14.675-12.69
		c3.374,0,7.737,1.392,7.737,5.556c0,2.575-1.59,4.165-3.771,4.165c-1.784,0-3.372-0.795-3.966-3.374
		c-0.397-1.188-0.793-2.773-2.38-2.773c-1.983,0-4.165,1.387-4.165,5.75c0,3.369,3.472,7.437,4.562,8.925
		c1.982,2.677,3.767,6.147,3.767,10.708C394.045,151.597,387.897,157.147,378.975,157.147z"/>
</g>
</svg>
