<?xml version="1.0" encoding="utf-8"?>
<!-- Generator: Adobe Illustrator 16.0.0, SVG Export Plug-In . SVG Version: 6.00 Build 0)  -->
<!DOCTYPE svg PUBLIC "-//W3C//DTD SVG 1.1//EN" "http://www.w3.org/Graphics/SVG/1.1/DTD/svg11.dtd">
<svg version="1.1" id="Layer_1" xmlns="http://www.w3.org/2000/svg" xmlns:xlink="http://www.w3.org/1999/xlink" x="0px" y="0px"
	 width="236px" height="112px" viewBox="0 0 236 112" enable-background="new 0 0 236 112" xml:space="preserve">
<g id="Layer_1_1_">
	<rect x="5.667" y="7" fill="#603913" width="225" height="105"/>
	<rect x="15.667" y="45" fill="#89D4E3" width="22" height="67"/>
	<rect x="41.667" y="45" fill="#89D4E3" width="23" height="67"/>
	<rect x="68.667" y="45" fill="#89D4E3" width="48" height="64"/>
	<rect x="120.667" y="45" fill="#89D4E3" width="48" height="64"/>
	<rect x="172.667" y="45" fill="#89D4E3" width="48" height="64"/>
	<rect x="21.587" y="15.113" fill="#FFFFFF" width="191.998" height="20.359"/>
	<g>
		<path fill="#3C2415" d="M54.498,22.646h-2.525v6.568h-2.205v-6.568h-2.525v-1.897h7.256L54.498,22.646L54.498,22.646z"/>
		<path fill="#3C2415" d="M57.015,22.884c1.909,0,3.249,1.41,3.249,3.26s-1.34,3.249-3.249,3.249c-1.909,0-3.237-1.399-3.237-3.249
			S55.106,22.884,57.015,22.884z M57.015,27.852c0.937,0,1.233-0.925,1.233-1.708c0-0.781-0.296-1.719-1.233-1.719
			s-1.221,0.938-1.221,1.719C55.794,26.927,56.079,27.852,57.015,27.852z"/>
		<path fill="#3C2415" d="M68.6,29.215h-2.04l-0.972-4.091h-0.023l-0.96,4.091h-2.039l-1.921-6.153h2.039l1.032,3.984h0.023
			l0.877-3.984h1.921l0.901,3.972h0.024l1.008-3.972h2.051L68.6,29.215z"/>
		<path fill="#3C2415" d="M71.198,23.062h1.956v0.842h0.024c0.368-0.629,1.197-1.02,1.933-1.02c2.051,0,2.217,1.494,2.217,2.383
			v3.948h-2.015v-2.976c0-0.842,0.095-1.695-1.008-1.695c-0.759,0-1.091,0.64-1.091,1.315v3.355h-2.016V23.062z"/>
		<path fill="#3C2415" d="M82.488,20.749h4.019c1.577,0,3.059,0.724,3.059,2.728c0,2.099-1.197,2.917-3.059,2.917h-1.814v2.821
			h-2.205V20.749L82.488,20.749z M84.693,24.687h1.482c0.688,0,1.186-0.285,1.186-1.056c0-0.794-0.51-1.114-1.186-1.114h-1.482
			V24.687z"/>
		<path fill="#3C2415" d="M90.599,20.749h2.016v8.466h-2.016V20.749z"/>
		<path fill="#3C2415" d="M100.156,29.215H98.2v-0.842h-0.024c-0.379,0.628-1.162,1.02-1.873,1.02c-1.767,0-2.276-1.02-2.276-2.632
			v-3.699h2.016v3.568c0,0.818,0.355,1.104,0.996,1.104c0.439,0,1.103-0.285,1.103-1.376v-3.296h2.016v6.153H100.156z"/>
		<path fill="#3C2415" d="M101.509,23.062h1.956v0.842h0.024c0.368-0.617,1.02-1.02,1.767-1.02c0.771,0,1.458,0.249,1.79,0.996
			c0.486-0.652,1.091-0.996,1.921-0.996c1.956,0,2.169,1.482,2.169,2.656v3.675h-2.015v-3.616c0-0.664-0.32-1.055-0.842-1.055
			c-0.866,0-0.949,0.664-0.949,1.66v3.011h-2.016v-3.497c0-0.724-0.213-1.174-0.759-1.174c-0.723,0-1.031,0.414-1.031,1.672v2.999
			h-2.016L101.509,23.062L101.509,23.062z"/>
		<path fill="#3C2415" d="M112.49,20.749h2.016v2.988h0.023c0.415-0.568,0.996-0.854,1.755-0.854c1.743,0,2.597,1.518,2.597,3.118
			c0,1.731-0.818,3.391-2.751,3.391c-0.711,0-1.304-0.308-1.695-0.89h-0.023v0.712h-1.921L112.49,20.749L112.49,20.749z
			 M114.434,26.073c0,1.078,0.308,1.778,1.221,1.778c0.901,0,1.209-0.937,1.209-1.778c0-0.783-0.309-1.648-1.198-1.648
			C115.122,24.425,114.434,24.804,114.434,26.073z"/>
		<path fill="#3C2415" d="M122.048,22.291h-2.016v-1.542h2.016V22.291z M120.032,23.062h2.016v6.153h-2.016V23.062z"/>
		<path fill="#3C2415" d="M123.471,23.062h1.956v0.842h0.024c0.367-0.629,1.197-1.02,1.933-1.02c2.052,0,2.218,1.494,2.218,2.383
			v3.948h-2.016v-2.976c0-0.842,0.096-1.695-1.008-1.695c-0.76,0-1.092,0.64-1.092,1.315v3.355h-2.016V23.062L123.471,23.062z"/>
		<path fill="#3C2415" d="M136.895,28.468c0,1.008-0.189,2.904-3.071,2.904c-1.435,0-2.786-0.319-3.023-1.968h2.015
			c0.049,0.272,0.154,0.438,0.345,0.534c0.178,0.094,0.427,0.13,0.735,0.13c0.959,0,1.055-0.676,1.055-1.435v-0.581h-0.023
			c-0.367,0.569-0.984,0.901-1.636,0.901c-1.86,0-2.703-1.328-2.703-3.059c0-1.637,0.96-3.012,2.703-3.012
			c0.735,0,1.292,0.32,1.647,0.948h0.023v-0.771h1.934V28.468L136.895,28.468z M133.775,24.425c-0.89,0-1.174,0.783-1.174,1.541
			c0,0.724,0.332,1.447,1.162,1.447c0.854,0,1.221-0.664,1.221-1.436C134.984,25.196,134.677,24.425,133.775,24.425z"/>
		<path fill="#3C2415" d="M143.725,26.369c0.047,0.996,0.664,1.316,1.602,1.316c0.664,0,1.352-0.237,1.352-0.866
			c0-0.746-1.209-0.889-2.431-1.232c-1.209-0.344-2.478-0.889-2.478-2.442c0-1.85,1.861-2.573,3.449-2.573
			c1.684,0,3.379,0.818,3.391,2.728h-2.205c0.035-0.771-0.688-1.021-1.363-1.021c-0.475,0-1.066,0.166-1.066,0.725
			c0,0.651,1.221,0.77,2.453,1.113c1.221,0.344,2.454,0.914,2.454,2.443c0,2.146-1.825,2.833-3.687,2.833
			c-1.944,0-3.664-0.854-3.676-3.023L143.725,26.369L143.725,26.369z"/>
		<path fill="#3C2415" d="M155.95,29.215h-1.956v-0.842h-0.023c-0.38,0.628-1.162,1.02-1.873,1.02c-1.768,0-2.277-1.02-2.277-2.632
			v-3.699h2.017v3.568c0,0.818,0.354,1.104,0.996,1.104c0.438,0,1.103-0.285,1.103-1.376v-3.296h2.017v6.153H155.95z"/>
		<path fill="#3C2415" d="M157.303,23.062h1.922v0.711h0.022c0.392-0.58,0.983-0.889,1.694-0.889c1.934,0,2.752,1.66,2.752,3.391
			c0,1.601-0.854,3.118-2.598,3.118c-0.759,0-1.34-0.284-1.755-0.842h-0.022v2.728h-2.017L157.303,23.062L157.303,23.062z
			 M159.248,26.073c0,1.078,0.309,1.778,1.221,1.778c0.901,0,1.209-0.937,1.209-1.778c0-0.783-0.309-1.648-1.197-1.648
			C159.936,24.425,159.248,24.804,159.248,26.073z"/>
		<path fill="#3C2415" d="M164.773,23.062h1.922v0.711h0.022c0.392-0.58,0.984-0.889,1.695-0.889c1.933,0,2.751,1.66,2.751,3.391
			c0,1.601-0.854,3.118-2.598,3.118c-0.758,0-1.34-0.284-1.754-0.842h-0.023v2.728h-2.016V23.062L164.773,23.062z M166.718,26.073
			c0,1.078,0.308,1.778,1.222,1.778c0.9,0,1.209-0.937,1.209-1.778c0-0.783-0.31-1.648-1.198-1.648
			C167.406,24.425,166.718,24.804,166.718,26.073z"/>
		<path fill="#3C2415" d="M172.316,20.749h2.016v8.466h-2.016V20.749z"/>
		<path fill="#3C2415" d="M177.842,22.291h-2.016v-1.542h2.016V22.291z M175.826,23.062h2.016v6.153h-2.016V23.062z"/>
		<path fill="#3C2415" d="M180.984,26.63c0.035,0.842,0.521,1.399,1.375,1.399c0.486,0,0.959-0.226,1.149-0.676h1.886
			c-0.367,1.423-1.684,2.039-3.06,2.039c-2.004,0-3.367-1.209-3.367-3.272c0-1.885,1.507-3.236,3.32-3.236
			c2.205,0,3.308,1.66,3.213,3.746H180.984z M183.486,25.504c-0.036-0.688-0.521-1.257-1.197-1.257c-0.711,0-1.186,0.51-1.305,1.257
			H183.486z"/>
		<path fill="#3C2415" d="M188.076,27.188c0,0.308,0.13,0.534,0.332,0.688c0.189,0.143,0.462,0.214,0.746,0.214
			c0.392,0,0.949-0.166,0.949-0.652c0-0.475-0.629-0.569-0.984-0.652c-1.27-0.32-2.857-0.355-2.857-2.016
			c0-1.482,1.602-1.885,2.811-1.885c1.352,0,2.762,0.391,2.832,1.992h-1.86c0-0.262-0.095-0.428-0.261-0.534
			c-0.166-0.106-0.393-0.153-0.641-0.153c-0.332,0-0.865,0.035-0.865,0.462c0,0.581,1.352,0.688,2.275,0.89
			c1.245,0.248,1.565,1.149,1.565,1.659c0,1.647-1.565,2.193-2.952,2.193c-1.458,0-2.952-0.485-3.012-2.205L188.076,27.188
			L188.076,27.188z"/>
	</g>
</g>
</svg>
