<?xml version="1.0" encoding="utf-8"?>
<!-- Generator: Adobe Illustrator 15.0.0, SVG Export Plug-In . SVG Version: 6.00 Build 0)  -->
<svg version="1.2" baseProfile="tiny" id="Layer_1" xmlns="http://www.w3.org/2000/svg" xmlns:xlink="http://www.w3.org/1999/xlink"
	 x="0px" y="0px" width="400px" height="500.21px" viewBox="0 0 400 500.21" overflow="inherit" xml:space="preserve">
<g>
	
		<rect x="101.542" y="323.781" transform="matrix(0.2305 0.9731 -0.9731 0.2305 476.0769 215.0161)" fill="#404041" width="1.091" height="169.484"/>
	<rect x="195.79" y="-0.997" fill="#404041" width="1.091" height="381.333"/>
	
		<rect x="209.639" y="406.802" transform="matrix(0.968 0.2509 -0.2509 0.968 111.2522 -57.9921)" fill="#404041" width="146.877" height="1.092"/>
	<path fill="#003767" d="M36.133,438.385h0.277c4.855-8.733,13.17-12.611,23.012-12.611h4.851v24.249
		c-3.463-1.936-6.797-2.353-10.675-2.353c-14.01,0-17.465,9.292-17.465,21.491v28.684H10.913v-71.101h25.221V438.385z"/>
	<path fill="#003767" d="M148.732,466.517H95.651c0,10.265,5.407,15.806,15.8,15.806c5.405,0,9.287-1.807,12.061-6.512h24.252
		c-4.023,16.767-19.957,24.392-36.171,24.392c-23.56,0-41.168-13.302-41.168-37.839c0-23.701,16.223-37.984,39.367-37.984
		c24.661,0,38.941,15.256,38.941,39.504V466.517z M125.311,451.965c-1.246-6.789-7.479-11.224-14.273-11.224
		c-7.348,0-13.447,3.885-14.969,11.224H125.311z"/>
	<path fill="#003767" d="M235.49,466.517h-53.08c0,10.265,5.404,15.806,15.795,15.806c5.4,0,9.287-1.807,12.061-6.512h24.25
		c-4.021,16.767-19.955,24.392-36.171,24.392c-23.562,0-41.162-13.302-41.162-37.839c0-23.701,16.212-37.984,39.364-37.984
		c24.662,0,38.943,15.256,38.943,39.504V466.517z M212.062,451.965c-1.246-6.789-7.482-11.224-14.266-11.224
		c-7.354,0-13.455,3.885-14.975,11.224H212.062z"/>
	<path fill="#003767" d="M351.799,482.32c-10.383,0-15.789-5.545-15.789-15.809h52.865l0.213-2.627
		c0-24.261-14.277-39.506-38.945-39.506c-23.141,0-39.361,14.274-39.361,37.984c0,24.531,17.596,37.83,41.164,37.83
		c16.215,0,32.148-7.616,36.164-24.383h-24.246C361.098,480.516,357.215,482.32,351.799,482.32 M351.383,440.741
		c6.795,0,13.035,4.433,14.279,11.224h-29.248C337.941,444.617,344.043,440.741,351.383,440.741"/>
	<path fill="#003767" d="M300.041,449.877c-3.742-2.773-8.184-4.991-13.033-4.991c-9.705,0-17.338,7.487-17.338,17.336
		c0,10.252,7.346,17.465,17.748,17.465c4.439,0,9.299-1.803,12.623-4.85l6.418,17.789c-7.908,6.053-18.07,7.584-24.17,7.584
		c-21.078,0-38.678-15.662-38.678-37.161c0-22.874,17.465-38.683,39.793-38.683c5.816,0,16.957,2.578,23.215,7.958L300.041,449.877z
		"/>
	<path fill="#EE3124" d="M213.027,391.325c0,3.416-2.77,6.186-6.188,6.186h-21.008c-3.416,0-6.186-2.77-6.186-6.186v-4.802
		c0-3.418,2.77-6.188,6.186-6.188h21.008c3.418,0,6.188,2.77,6.188,6.188V391.325z"/>
	<path fill="#EE3124" d="M206.395,390.152c0,2.056-1.672,3.728-3.729,3.728h-12.662c-2.058,0-3.725-1.672-3.725-3.728v-2.894
		c0-2.057,1.667-3.728,3.725-3.728h12.662c2.057,0,3.729,1.671,3.729,3.728V390.152z"/>
	<path fill="none" stroke="#BE1E2D" stroke-width="0.5" stroke-miterlimit="10" d="M206.395,390.152
		c0,2.056-1.672,3.728-3.729,3.728h-12.662c-2.058,0-3.725-1.672-3.725-3.728v-2.894c0-2.057,1.667-3.728,3.725-3.728h12.662
		c2.057,0,3.729,1.671,3.729,3.728V390.152z"/>
	<path fill="#BE1E2D" d="M213.027,391.325v-4.802c0-3.416-2.77-6.188-6.189-6.188c0,0,6.877,11.507-11.354,11.507l-15.84-0.518
		c0,3.416,2.77,6.186,6.188,6.186h21.006C210.258,397.511,213.027,394.741,213.027,391.325z"/>
</g>
</svg>
