<?xml version="1.0" encoding="utf-8"?>
<!-- Generator: Adobe Illustrator 15.0.0, SVG Export Plug-In . SVG Version: 6.00 Build 0)  -->
<svg version="1.2" baseProfile="tiny" id="Layer_1" xmlns="http://www.w3.org/2000/svg" xmlns:xlink="http://www.w3.org/1999/xlink"
	 x="0px" y="0px" width="1209.829px" height="135.823px" viewBox="0 0 1209.829 135.823" overflow="inherit" xml:space="preserve">
<path fill="#6BD1F4" d="M0,135.823c0,0,2.2-27.399,35.438-30.693c33.24-3.293,56.787,7.816,56.787,7.816
	s14.142-42.393,60.212-37.585c45.262,4.725,69.393,18.971,69.393,18.971s20.438-50.937,98.116-50.939
	c77.677,0,76.56,46.218,76.56,46.218s27.17-65.545,130.629-65.545c61.176,0,116.998,55.879,116.998,55.879
	s24.327-81.197,132.028-79.93c106.545,1.251,129.98,68.057,129.98,68.057s50.496-43.534,96.367-19.942
	c35.633,18.326,31.258,64.816,31.258,64.816s13.368-16.618,41.323-13.215c27.956,3.403,20.662,29.229,20.662,29.229
	s12.117-25.235,40.321-21.16c28.207,4.075,32.164,21.16,32.164,21.16s15.211-14.74,28.402-13.514
	c13.191,1.225,13.191,7.824,13.191,7.824v12.552H0z"/>
</svg>
