<?xml version="1.0" encoding="utf-8"?>
<!-- Generator: Adobe Illustrator 15.0.0, SVG Export Plug-In . SVG Version: 6.00 Build 0)  -->
<svg version="1.2" baseProfile="tiny" id="Layer_1" xmlns="http://www.w3.org/2000/svg" xmlns:xlink="http://www.w3.org/1999/xlink"
	 x="0px" y="0px" width="119.15px" height="117.412px" viewBox="0 0 119.15 117.412" overflow="inherit" xml:space="preserve">
<polygon fill="#003767" points="0,12.017 11.116,12.017 11.116,13.789 6.536,13.789 6.536,29.705 4.579,29.705 4.579,13.789 
	0,13.789 "/>
<path fill="#003767" d="M24.565,12.017H28v17.688h-1.946V15.129c0-0.763,0.054-1.482,0-2.245H25.99
	c-0.195,1.044-0.361,1.702-0.537,2.383l-3.697,14.438h-2.342l-3.698-14.642c-0.172-0.615-0.312-1.203-0.526-2.179h-0.045
	c0,0.763,0.045,1.539,0.045,2.294v14.526h-1.953V12.017H16.7l3.48,13.804c0.185,0.752,0.275,1.489,0.372,2.621h0.043
	c0.129-0.905,0.245-1.771,0.453-2.645L24.565,12.017z"/>
<rect x="39.86" fill="#808184" width="7.971" height="79.499"/>
<g>
	<path fill="#007DB1" d="M55.797,73.767V23.328c0-0.012,0.009-0.021,0.021-0.021h29.01c0.011,0,0.021,0.009,0.021,0.021v54.415"/>
	<g>
		<polygon fill="#FFDD15" points="86.81,77.743 82.891,77.743 82.891,25.266 57.756,25.266 57.756,73.767 53.838,73.767 
			53.838,21.369 55.819,21.347 86.789,21.347 86.81,23.328 		"/>
	</g>
</g>
<rect x="1.605" y="31.96" fill="#58595B" width="46.228" height="5.738"/>
<rect x="51.21" y="68.148" fill="#FFDD15" width="67.282" height="31.861"/>
<path fill="#231F20" d="M98.422,107.184c0,5.724,4.639,10.364,10.364,10.364c5.721,0,10.363-4.641,10.363-10.364
	s-4.643-10.364-10.363-10.364C103.061,96.819,98.422,101.46,98.422,107.184"/>
<path fill="#231F20" d="M59.958,107.184c0,5.724,4.641,10.364,10.366,10.364c5.722,0,10.364-4.641,10.364-10.364
	s-4.643-10.364-10.364-10.364C64.599,96.819,59.958,101.46,59.958,107.184"/>
<rect x="104.803" y="44.454" fill="#808184" width="7.971" height="23.695"/>
<g>
	<path fill="#808184" d="M108.787,47.655c-0.911,0-1.65-0.739-1.65-1.65V33.327c0-0.911,0.739-1.65,1.65-1.65h5.774
		c0.911,0,1.65,0.739,1.65,1.65c0,0.911-0.739,1.65-1.65,1.65h-4.125v11.028C110.436,46.916,109.697,47.655,108.787,47.655z"/>
</g>
<polyline fill="none" stroke="#FFDD15" stroke-width="1.781" stroke-linecap="round" stroke-linejoin="round" stroke-miterlimit="10" points="
	458.858,258.916 458.858,235.979 472.064,235.979 472.064,260.724 "/>
</svg>
