<?xml version="1.0" encoding="utf-8"?>
<!-- Generator: Adobe Illustrator 16.0.0, SVG Export Plug-In . SVG Version: 6.00 Build 0)  -->
<!DOCTYPE svg PUBLIC "-//W3C//DTD SVG 1.1//EN" "http://www.w3.org/Graphics/SVG/1.1/DTD/svg11.dtd">
<svg version="1.1" id="Layer_1" xmlns="http://www.w3.org/2000/svg" xmlns:xlink="http://www.w3.org/1999/xlink" x="0px" y="0px"
	 width="83px" height="592px" viewBox="-37 338.5 83 592" enable-background="new -37 338.5 83 592" xml:space="preserve">
<polygon fill="#D6DE23" points="-2.913,450.9 -1.844,452.007 -1.844,463.195 -4.708,460.33 -4.708,452.695 "/>
<polygon fill="#D6DE23" points="-4.708,448.037 -4.708,440.4 -1.844,437.537 -1.844,448.761 -2.888,449.83 "/>
<polygon fill="#D6DE23" points="5.521,452.695 5.521,460.33 2.658,463.195 2.658,452.007 3.727,450.9 "/>
<polygon fill="#D6DE23" points="17.587,450.9 18.656,452.007 18.656,463.195 15.792,460.33 15.792,452.695 "/>
<polygon fill="#D6DE23" points="18.122,437.039 15.296,439.904 6.018,439.904 3.193,437.039 "/>
<polygon fill="#D6DE23" points="18.122,463.729 3.193,463.729 6.018,460.865 15.296,460.865 "/>
<polygon fill="#D6DE23" points="15.641,448.953 17.091,450.384 15.641,451.816 5.674,451.816 4.262,450.384 5.674,448.953 "/>
<polygon fill="#D6DE23" points="15.792,448.037 15.792,440.4 18.656,437.537 18.656,448.761 17.611,449.83 "/>
<polygon fill="#D6DE23" points="3.703,449.83 2.658,448.761 2.658,437.537 5.521,440.4 5.521,448.037 "/>
<path fill="#D6DE23" d="M33.376,440.414c0,3.404-2.729,5.629-5.629,5.629c-3.276,0-5.503-2.479-5.503-5.418
	c-0.042-3.234,2.479-5.672,5.587-5.672C31.277,434.953,33.376,437.559,33.376,440.414z M24.514,440.625
	c0,1.932,1.428,3.445,3.275,3.445c1.891,0,3.318-1.555,3.318-3.613c0-1.555-0.924-3.529-3.318-3.529
	C25.605,436.927,24.514,438.818,24.514,440.625z"/>
<path fill="#404041" d="M36.218,423.561c0,1.563-1.27,2.834-2.835,2.834h-60.515c-1.565,0-2.834-1.271-2.834-2.834v-2.664
	c0-1.564,1.269-2.834,2.834-2.834h60.515c1.565,0,2.835,1.27,2.835,2.834V423.561L36.218,423.561z"/>
<polygon fill="#D6DE23" points="-2.913,377.363 -1.844,378.47 -1.844,389.658 -4.708,386.793 -4.708,379.158 "/>
<polygon fill="#D6DE23" points="-4.708,374.5 -4.708,366.863 -1.844,364 -1.844,375.224 -2.888,376.293 "/>
<polygon fill="#D6DE23" points="17.587,377.363 18.656,378.47 18.656,389.658 15.792,386.793 15.792,379.158 "/>
<polygon fill="#D6DE23" points="18.122,363.502 15.296,366.367 6.018,366.367 3.193,363.502 "/>
<polygon fill="#D6DE23" points="15.792,374.5 15.792,366.863 18.656,364 18.656,375.224 17.611,376.293 "/>
<path fill="#D6DE23" d="M33.376,366.877c0,3.404-2.729,5.629-5.629,5.629c-3.276,0-5.503-2.479-5.503-5.418
	c-0.042-3.234,2.479-5.672,5.587-5.672C31.277,361.416,33.376,364.021,33.376,366.877z M24.514,367.088
	c0,1.932,1.428,3.445,3.275,3.445c1.891,0,3.318-1.555,3.318-3.613c0-1.555-0.924-3.529-3.318-3.529
	C25.605,363.39,24.514,365.281,24.514,367.088z"/>
<path fill="#404041" d="M36.218,350.023c0,1.563-1.27,2.834-2.835,2.834h-60.515c-1.565,0-2.834-1.271-2.834-2.834v-2.664
	c0-1.564,1.269-2.834,2.834-2.834h60.515c1.565,0,2.835,1.27,2.835,2.834V350.023L36.218,350.023z"/>
<polygon fill="#D6DE23" points="-2.913,524.9 -1.844,526.008 -1.844,537.195 -4.708,534.33 -4.708,526.695 "/>
<polygon fill="#D6DE23" points="-4.708,522.037 -4.708,514.4 -1.844,511.537 -1.844,522.762 -2.888,523.83 "/>
<polygon fill="#D6DE23" points="17.587,524.9 18.656,526.008 18.656,537.195 15.792,534.33 15.792,526.695 "/>
<polygon fill="#D6DE23" points="18.122,511.039 15.296,513.904 6.018,513.904 3.193,511.039 "/>
<polygon fill="#D6DE23" points="15.641,522.953 17.091,524.385 15.641,525.816 5.674,525.816 4.262,524.385 5.674,522.953 "/>
<polygon fill="#D6DE23" points="15.792,522.037 15.792,514.4 18.656,511.537 18.656,522.762 17.611,523.83 "/>
<polygon fill="#D6DE23" points="3.703,523.83 2.658,522.762 2.658,511.537 5.521,514.4 5.521,522.037 "/>
<path fill="#D6DE23" d="M33.376,514.414c0,3.404-2.729,5.629-5.629,5.629c-3.276,0-5.503-2.479-5.503-5.418
	c-0.042-3.234,2.479-5.672,5.587-5.672C31.277,508.953,33.376,511.559,33.376,514.414z M24.514,514.625
	c0,1.932,1.428,3.445,3.275,3.445c1.891,0,3.318-1.555,3.318-3.613c0-1.555-0.924-3.529-3.318-3.529
	C25.605,510.928,24.514,512.818,24.514,514.625z"/>
<path fill="#404041" d="M36.218,497.561c0,1.564-1.27,2.834-2.835,2.834h-60.515c-1.565,0-2.834-1.27-2.834-2.834v-2.664
	c0-1.563,1.269-2.834,2.834-2.834h60.515c1.565,0,2.835,1.271,2.835,2.834V497.561L36.218,497.561z"/>
<polygon fill="#D6DE23" points="-14.978,600.693 -14.978,608.329 -17.842,611.193 -17.842,600.007 -16.773,598.898 "/>
<polygon fill="#D6DE23" points="-2.378,585.038 -5.204,587.902 -14.482,587.902 -17.307,585.038 "/>
<polygon fill="#D6DE23" points="-2.378,611.729 -17.307,611.729 -14.482,608.864 -5.204,608.864 "/>
<polygon fill="#D6DE23" points="-4.86,596.952 -3.409,598.384 -4.86,599.814 -14.826,599.814 -16.238,598.384 -14.826,596.952 "/>
<polygon fill="#D6DE23" points="-4.708,596.036 -4.708,588.398 -1.844,585.536 -1.844,596.761 -2.888,597.829 "/>
<polygon fill="#D6DE23" points="5.521,600.693 5.521,608.329 2.658,611.193 2.658,600.007 3.727,598.898 "/>
<polygon fill="#D6DE23" points="17.587,598.898 18.656,600.007 18.656,611.193 15.792,608.329 15.792,600.693 "/>
<polygon fill="#D6DE23" points="18.122,585.038 15.296,587.902 6.018,587.902 3.193,585.038 "/>
<polygon fill="#D6DE23" points="18.122,611.729 3.193,611.729 6.018,608.864 15.296,608.864 "/>
<polygon fill="#D6DE23" points="15.792,596.036 15.792,588.398 18.656,585.536 18.656,596.761 17.611,597.829 "/>
<polygon fill="#D6DE23" points="3.703,597.829 2.658,596.761 2.658,585.536 5.521,588.398 5.521,596.036 "/>
<path fill="#D6DE23" d="M33.376,588.413c0,3.403-2.729,5.629-5.629,5.629c-3.276,0-5.503-2.479-5.503-5.418
	c-0.042-3.233,2.479-5.672,5.587-5.672C31.277,582.952,33.376,585.559,33.376,588.413z M24.514,588.624
	c0,1.933,1.428,3.444,3.275,3.444c1.891,0,3.318-1.555,3.318-3.612c0-1.556-0.924-3.529-3.318-3.529
	C25.605,584.927,24.514,586.816,24.514,588.624z"/>
<path fill="#404041" d="M36.218,571.561c0,1.563-1.27,2.834-2.835,2.834h-60.515c-1.565,0-2.834-1.271-2.834-2.834v-2.664
	c0-1.564,1.269-2.834,2.834-2.834h60.515c1.565,0,2.835,1.27,2.835,2.834V571.561L36.218,571.561z"/>
<polygon fill="#D6DE23" points="-14.978,674.693 -14.978,682.328 -17.842,685.193 -17.842,674.006 -16.773,672.898 "/>
<polygon fill="#D6DE23" points="-2.378,659.037 -5.204,661.902 -14.482,661.902 -17.307,659.037 "/>
<polygon fill="#D6DE23" points="-2.378,685.727 -17.307,685.727 -14.482,682.863 -5.204,682.863 "/>
<polygon fill="#D6DE23" points="-4.86,670.951 -3.409,672.383 -4.86,673.814 -14.826,673.814 -16.238,672.383 -14.826,670.951 "/>
<polygon fill="#D6DE23" points="-4.708,670.035 -4.708,662.398 -1.844,659.535 -1.844,670.76 -2.888,671.828 "/>
<polygon fill="#D6DE23" points="17.587,672.898 18.656,674.006 18.656,685.193 15.792,682.328 15.792,674.693 "/>
<polygon fill="#D6DE23" points="15.792,670.035 15.792,662.398 18.656,659.535 18.656,670.76 17.611,671.828 "/>
<path fill="#D6DE23" d="M33.376,662.412c0,3.404-2.729,5.629-5.629,5.629c-3.276,0-5.503-2.479-5.503-5.418
	c-0.042-3.234,2.479-5.672,5.587-5.672C31.277,656.951,33.376,659.557,33.376,662.412z M24.514,662.623
	c0,1.932,1.428,3.445,3.275,3.445c1.891,0,3.318-1.555,3.318-3.613c0-1.555-0.924-3.529-3.318-3.529
	C25.605,658.926,24.514,660.816,24.514,662.623z"/>
<path fill="#404041" d="M36.218,645.559c0,1.564-1.27,2.834-2.835,2.834h-60.515c-1.565,0-2.834-1.27-2.834-2.834v-2.664
	c0-1.563,1.269-2.834,2.834-2.834h60.515c1.565,0,2.835,1.271,2.835,2.834V645.559L36.218,645.559z"/>
<polygon fill="#D6DE23" points="-14.978,748.693 -14.978,756.328 -17.842,759.193 -17.842,748.006 -16.773,746.898 "/>
<polygon fill="#D6DE23" points="-2.378,733.037 -5.204,735.902 -14.482,735.902 -17.307,733.037 "/>
<polygon fill="#D6DE23" points="-2.378,759.727 -17.307,759.727 -14.482,756.863 -5.204,756.863 "/>
<polygon fill="#D6DE23" points="-4.86,744.951 -3.409,746.383 -4.86,747.814 -14.826,747.814 -16.238,746.383 -14.826,744.951 "/>
<polygon fill="#D6DE23" points="-4.708,744.035 -4.708,736.398 -1.844,733.535 -1.844,744.76 -2.888,745.828 "/>
<polygon fill="#D6DE23" points="5.521,748.693 5.521,756.328 2.658,759.193 2.658,748.006 3.727,746.898 "/>
<polygon fill="#D6DE23" points="18.122,733.037 15.296,735.902 6.018,735.902 3.193,733.037 "/>
<polygon fill="#D6DE23" points="18.122,759.727 3.193,759.727 6.018,756.863 15.296,756.863 "/>
<polygon fill="#D6DE23" points="15.641,744.951 17.091,746.383 15.641,747.814 5.674,747.814 4.262,746.383 5.674,744.951 "/>
<polygon fill="#D6DE23" points="15.792,744.035 15.792,736.398 18.656,733.535 18.656,744.76 17.611,745.828 "/>
<path fill="#D6DE23" d="M33.376,736.412c0,3.404-2.729,5.629-5.629,5.629c-3.276,0-5.503-2.479-5.503-5.418
	c-0.042-3.234,2.479-5.672,5.587-5.672C31.277,730.951,33.376,733.557,33.376,736.412z M24.514,736.623
	c0,1.932,1.428,3.445,3.275,3.445c1.891,0,3.318-1.555,3.318-3.613c0-1.555-0.924-3.529-3.318-3.529
	C25.605,732.926,24.514,734.816,24.514,736.623z"/>
<path fill="#404041" d="M36.218,719.559c0,1.564-1.27,2.834-2.835,2.834h-60.515c-1.565,0-2.834-1.27-2.834-2.834v-2.664
	c0-1.562,1.269-2.834,2.834-2.834h60.515c1.565,0,2.835,1.271,2.835,2.834V719.559L36.218,719.559z"/>
<polygon fill="#D6DE23" points="-14.978,822.693 -14.978,830.328 -17.842,833.193 -17.842,822.006 -16.773,820.898 "/>
<polygon fill="#D6DE23" points="-2.378,807.037 -5.204,809.902 -14.482,809.902 -17.307,807.037 "/>
<polygon fill="#D6DE23" points="-2.378,833.727 -17.307,833.727 -14.482,830.863 -5.204,830.863 "/>
<polygon fill="#D6DE23" points="-4.86,818.951 -3.409,820.383 -4.86,821.814 -14.826,821.814 -16.238,820.383 -14.826,818.951 "/>
<polygon fill="#D6DE23" points="-4.708,818.035 -4.708,810.398 -1.844,807.535 -1.844,818.76 -2.888,819.828 "/>
<polygon fill="#D6DE23" points="17.587,820.898 18.656,822.006 18.656,833.193 15.792,830.328 15.792,822.693 "/>
<polygon fill="#D6DE23" points="18.122,807.037 15.296,809.902 6.018,809.902 3.193,807.037 "/>
<polygon fill="#D6DE23" points="18.122,833.727 3.193,833.727 6.018,830.863 15.296,830.863 "/>
<polygon fill="#D6DE23" points="15.641,818.951 17.091,820.383 15.641,821.814 5.674,821.814 4.262,820.383 5.674,818.951 "/>
<polygon fill="#D6DE23" points="15.792,818.035 15.792,810.398 18.656,807.535 18.656,818.76 17.611,819.828 "/>
<path fill="#D6DE23" d="M33.376,810.412c0,3.404-2.729,5.629-5.629,5.629c-3.276,0-5.503-2.479-5.503-5.418
	c-0.042-3.234,2.479-5.672,5.587-5.672C31.277,804.951,33.376,807.557,33.376,810.412z M24.514,810.623
	c0,1.932,1.428,3.445,3.275,3.445c1.891,0,3.318-1.555,3.318-3.613c0-1.555-0.924-3.529-3.318-3.529
	C25.605,806.926,24.514,808.816,24.514,810.623z"/>
<path fill="#404041" d="M36.218,793.559c0,1.564-1.27,2.834-2.835,2.834h-60.515c-1.565,0-2.834-1.27-2.834-2.834v-2.664
	c0-1.562,1.269-2.834,2.834-2.834h60.515c1.565,0,2.835,1.271,2.835,2.834V793.559L36.218,793.559z"/>
<polygon fill="#D6DE23" points="-14.978,896.693 -14.978,904.328 -17.842,907.193 -17.842,896.006 -16.773,894.898 "/>
<polygon fill="#D6DE23" points="-2.378,881.037 -5.204,883.902 -14.482,883.902 -17.307,881.037 "/>
<polygon fill="#D6DE23" points="-2.378,907.727 -17.307,907.727 -14.482,904.863 -5.204,904.863 "/>
<polygon fill="#D6DE23" points="-4.86,892.951 -3.409,894.383 -4.86,895.814 -14.826,895.814 -16.238,894.383 -14.826,892.951 "/>
<polygon fill="#D6DE23" points="-4.708,892.035 -4.708,884.398 -1.844,881.535 -1.844,892.76 -2.888,893.828 "/>
<polygon fill="#D6DE23" points="17.587,894.898 18.656,896.006 18.656,907.193 15.792,904.328 15.792,896.693 "/>
<polygon fill="#D6DE23" points="15.641,892.951 17.091,894.383 15.641,895.814 5.674,895.814 4.262,894.383 5.674,892.951 "/>
<polygon fill="#D6DE23" points="15.792,892.035 15.792,884.398 18.656,881.535 18.656,892.76 17.611,893.828 "/>
<polygon fill="#D6DE23" points="3.703,893.828 2.658,892.76 2.658,881.535 5.521,884.398 5.521,892.035 "/>
<path fill="#D6DE23" d="M33.376,884.412c0,3.404-2.729,5.629-5.629,5.629c-3.276,0-5.503-2.479-5.503-5.418
	c-0.042-3.234,2.479-5.672,5.587-5.672C31.277,878.951,33.376,881.557,33.376,884.412z M24.514,884.623
	c0,1.932,1.428,3.445,3.275,3.445c1.891,0,3.318-1.557,3.318-3.613c0-1.555-0.924-3.529-3.318-3.529
	C25.605,880.926,24.514,882.816,24.514,884.623z"/>
<path fill="#404041" d="M36.218,867.559c0,1.564-1.27,2.834-2.835,2.834h-60.515c-1.565,0-2.834-1.27-2.834-2.834v-2.664
	c0-1.562,1.269-2.834,2.834-2.834h60.515c1.565,0,2.835,1.271,2.835,2.834V867.559L36.218,867.559z"/>
</svg>
