<?xml version="1.0" encoding="utf-8"?>
<!-- Generator: Adobe Illustrator 16.0.0, SVG Export Plug-In . SVG Version: 6.00 Build 0)  -->
<!DOCTYPE svg PUBLIC "-//W3C//DTD SVG 1.1//EN" "http://www.w3.org/Graphics/SVG/1.1/DTD/svg11.dtd">
<svg version="1.1" id="Layer_1" xmlns="http://www.w3.org/2000/svg" xmlns:xlink="http://www.w3.org/1999/xlink" x="0px" y="0px"
	 width="200px" height="200px" viewBox="21.5 179.5 200 200" enable-background="new 21.5 179.5 200 200" xml:space="preserve">
<circle opacity="0.27" fill="#231F20" enable-background="new    " cx="129.995" cy="285.988" r="81.392"/>
<circle fill="#BBBDBF" cx="121.5" cy="279.5" r="81.393"/>
<circle fill="#58595B" cx="121.534" cy="279.367" r="76.073"/>
<circle fill="#808184" cx="121.534" cy="279.367" r="44.376"/>
<g>
	<path fill="#A6A8AB" d="M121.534,318.215c-21.421,0-38.848-17.427-38.848-38.848c0-21.422,17.427-38.848,38.848-38.848
		c21.42,0,38.847,17.428,38.847,38.849S142.954,318.215,121.534,318.215z"/>
	<path fill="#231F20" d="M121.534,241.52c20.868,0,37.847,16.979,37.847,37.85c0,20.867-16.979,37.848-37.847,37.848
		c-20.869,0-37.848-16.979-37.848-37.848C83.686,258.499,100.665,241.52,121.534,241.52 M121.534,239.52
		c-22.007,0-39.848,17.842-39.848,39.85s17.841,39.848,39.848,39.848c22.007,0,39.847-17.84,39.847-39.848
		C161.381,257.359,143.541,239.52,121.534,239.52L121.534,239.52z"/>
</g>
<g>
	<g>
		<path fill="#96121C" d="M98.008,270.533l4.76,0.01l-0.617,12.205l-4.271-0.01l0.206-1.622l-2.892-0.007l-0.946,1.621l-4.691-0.014
			L98.008,270.533z M98.434,278.232l0.184-1.313c0.06-0.428,0.123-0.974,0.24-1.62c0.045-0.256,0.097-0.547,0.168-0.854
			c-0.398,0.818-0.725,1.416-0.918,1.755l-1.205,2.028L98.434,278.232z"/>
		<path fill="#96121C" d="M109.984,282.682c-0.789,0.271-1.537,0.406-2.276,0.402c-1.496-0.002-2.753-0.5-3.631-1.425
			c-0.978-1.025-1.369-2.599-1.063-4.304c0.323-1.81,1.164-3.412,2.489-4.705c1.548-1.518,3.587-2.383,5.772-2.377
			c1.144,0.002,2.111,0.244,2.937,0.707l-1.469,4.078c-0.738-0.481-1.466-0.738-2.257-0.742c-1.514-0.002-2.786,1.086-3.057,2.605
			c-0.232,1.299,0.447,2.104,1.728,2.104c0.673,0,1.559-0.252,2.421-0.745L109.984,282.682z"/>
		<polygon fill="#96121C" points="116.18,274.279 113.607,274.273 114.958,270.573 124.408,270.596 123.073,274.295 
			120.584,274.289 117.52,282.785 113.113,282.773 		"/>
		<path fill="#96121C" d="M124.979,270.596l4.625,0.012c3.517,0.008,5.063,1.311,4.642,3.682c-0.364,2.029-1.688,3.428-3.646,3.832
			l0.894,4.695l-4.455-0.01l-0.521-4.439l-1.603,4.435l-4.337-0.01L124.979,270.596z M127.68,276.014
			c1.312,0.002,2.006-0.404,2.174-1.344c0.129-0.718-0.306-1.025-1.381-1.027h-0.252l-0.861,2.369L127.68,276.014z"/>
		<path fill="#96121C" d="M134.986,281.715c-0.963-1.01-1.375-2.58-1.068-4.287c0.326-1.826,1.166-3.412,2.49-4.705
			c1.55-1.516,3.605-2.382,5.758-2.377c3.666,0.008,5.646,2.387,5.047,5.73c-0.32,1.808-1.168,3.428-2.486,4.705
			c-1.59,1.551-3.59,2.382-5.775,2.376C137.218,283.154,135.909,282.672,134.986,281.715 M138.322,276.977
			c-0.229,1.28,0.392,2.137,1.621,2.14c1.357,0.003,2.601-1.189,2.857-2.64c0.223-1.229-0.488-2.065-1.632-2.069
			C139.792,274.402,138.581,275.527,138.322,276.977"/>
		<polygon fill="#96121C" points="149.863,270.587 154.305,270.587 151.268,279.038 154.965,279.038 153.613,282.791 
			145.491,282.791 		"/>
	</g>
	<g>
		<polygon points="87.943,285.01 86.926,286.459 152.218,286.459 152.747,285.01 		"/>
		<polygon points="88.978,283.535 88.723,283.898 153.161,283.898 153.292,283.535 		"/>
		<polygon points="88.587,284.09 88.079,284.816 152.83,284.816 153.096,284.09 		"/>
	</g>
</g>
<path fill="#00ADEE" d="M121.5,225.493c29.828,0,54.009,24.181,54.009,54.007c0,29.827-24.181,54.008-54.009,54.008v9.898
	c35.296,0,63.908-28.611,63.908-63.906s-28.612-63.906-63.908-63.906V225.493z"/>
<path fill="#EC1C24" d="M121.5,333.506c-29.827,0-54.008-24.18-54.008-54.007s24.182-54.007,54.008-54.007v-9.898
	c-35.295,0-63.909,28.61-63.909,63.905s28.613,63.907,63.909,63.907V333.506z"/>
</svg>
