<?xml version="1.0" encoding="utf-8"?>
<!-- Generator: Adobe Illustrator 15.0.0, SVG Export Plug-In . SVG Version: 6.00 Build 0)  -->
<svg version="1.2" baseProfile="tiny" id="Layer_1" xmlns="http://www.w3.org/2000/svg" xmlns:xlink="http://www.w3.org/1999/xlink"
	 x="0px" y="0px" width="353.146px" height="105.383px" viewBox="0 0 353.146 105.383" overflow="inherit" xml:space="preserve">
<path fill="#7E8083" d="M70.079,69.923c-0.151,22.017-9.094,35.46-34.74,35.46c-15.617,0-31.094-6.574-32.45-22.304h9.548
	c2.131,10.86,12.292,14.728,22.901,14.728c17.6,0,25.186-9.867,25.186-27.884V59.916h-0.304
	c-4.398,9.006-13.653,15.155-24.882,15.155C10.319,75.071,0,58.201,0,37.179C0,16.878,12.74,0,35.338,0
	c11.384,0,21.09,6.725,24.882,14.875h0.304V2.146h9.554V69.923z M60.524,38.18c0-14.438-7.13-30.598-25.186-30.598
	c-18.193,0-25.783,15.299-25.783,30.598c0,14.867,8.195,29.316,25.783,29.316C51.878,67.496,60.524,53.193,60.524,38.18"/>
<path fill="#7E8083" d="M82.216,2.148h8.798v17.306h0.308c4.852-11.87,15.468-18.872,29.577-18.307v9.013
	c-17.294-0.861-29.127,11.148-29.127,26.45V75.93h-9.555V2.148z"/>
<path fill="#7E8083" d="M195.947,39.039c0,21.154-13.058,39.04-37.02,39.04c-23.971,0-37.007-17.886-37.007-39.04
	C121.92,17.877,134.956,0,158.927,0C182.889,0,195.947,17.877,195.947,39.039 M131.471,39.039c0,15.727,9.106,31.454,27.456,31.454
	c18.352,0,27.459-15.727,27.459-31.454c0-15.729-9.107-31.455-27.459-31.455C140.578,7.584,131.471,23.311,131.471,39.039"/>
<path fill="#7E8083" d="M268.01,75.93h-8.803V62.631h-0.303c-5.002,9.865-15.316,15.447-26.997,15.447
	c-19.721,0-27.457-10.867-27.457-28.031V2.148h9.556v48.045c0.458,13.297,5.765,20.299,20.939,20.299
	c16.377,0,23.51-14.584,23.51-29.591V2.148h9.555V75.93z"/>
<path fill="#7E8083" d="M280.941,2.148h8.796v14.012h0.301c4.396-10.005,15.316-16.156,27.913-16.156
	c23.805,0,35.195,18.161,35.195,39.035c0,20.88-11.391,39.04-35.195,39.04c-11.682,0-23.053-5.582-27.15-16.161h-0.303v43.466
	h-9.557V2.148z M317.951,7.584c-21.087,0-27.453,14.728-27.453,31.455c0,15.301,7.124,31.458,27.453,31.458
	c18.197,0,25.628-16.156,25.628-31.458C343.579,23.74,336.148,7.584,317.951,7.584"/>
</svg>
