<?xml version="1.0" encoding="utf-8"?>
<!-- Generator: Adobe Illustrator 15.0.0, SVG Export Plug-In . SVG Version: 6.00 Build 0)  -->
<!DOCTYPE svg PUBLIC "-//W3C//DTD SVG 1.1//EN" "http://www.w3.org/Graphics/SVG/1.1/DTD/svg11.dtd">
<svg version="1.1" id="Layer_1" xmlns="http://www.w3.org/2000/svg" xmlns:xlink="http://www.w3.org/1999/xlink" x="0px" y="0px"
	 width="100px" height="80px" viewBox="0 0 100 80" enable-background="new 0 0 100 80" xml:space="preserve">
<g>
	<path fill="#231F20" d="M4,5h15.964v22.861h0.197c2.661-5.716,7.487-7.194,11.922-7.194c13.105,0,15.47,11.923,15.47,28.478
		c0,19.903-5.714,27.588-16.455,27.588c-7.095,0-10.346-4.236-11.529-7.883h-0.196v6.504H4V5z M25.383,65.105
		c6.01,0,6.208-8.178,6.208-16.75c0-9.655-0.297-16.061-6.109-16.061c-5.419,0-5.815,7.292-5.815,16.75
		C19.667,59.395,20.652,65.105,25.383,65.105z"/>
	<path fill="#231F20" d="M55.135,22.046h15.371v6.306h0.198c2.267-4.729,6.897-7.685,12.81-7.685
		c9.065,0,13.895,4.533,13.895,14.779v39.908H81.443V38.994c0-3.841-1.674-6.109-4.631-6.109c-3.054,0-5.715,2.365-5.715,7.588
		v34.88H55.135V22.046z"/>
</g>
</svg>
