<?xml version="1.0" encoding="utf-8"?>
<!-- Generator: Adobe Illustrator 15.0.0, SVG Export Plug-In . SVG Version: 6.00 Build 0)  -->
<!DOCTYPE svg PUBLIC "-//W3C//DTD SVG 1.1//EN" "http://www.w3.org/Graphics/SVG/1.1/DTD/svg11.dtd">
<svg version="1.1" id="Layer_1" xmlns="http://www.w3.org/2000/svg" xmlns:xlink="http://www.w3.org/1999/xlink" x="0px" y="0px"
	 width="250px" height="77" viewBox="0 0 250 77" enable-background="new 0 0 250 77"
	 xml:space="preserve">
<g>
	<polygon fill="#231F20" points="164.984,63.614 148.152,63.614 144.656,53.594 100.657,53.594 96.239,63.614 45.905,63.614 
		45.905,5.682 164.984,5.682 	"/>
	<circle fill="#231F20" cx="109.677" cy="66" r="10.5"/>
	<circle fill="#FFFFFF" cx="109.678" cy="66" r="4.97"/>
	<circle fill="#231F20" cx="135.081" cy="66" r="10.5"/>
	<circle fill="#FFFFFF" cx="135.082" cy="66" r="4.97"/>
	<circle fill="#231F20" cx="33.095" cy="66" r="10.5"/>
	<circle fill="#FFFFFF" cx="33.095" cy="66" r="4.97"/>
	<path fill="#231F20" d="M47.27,45.377h-3.682V15.445H17.079L6.585,39.55l2.577,18.604H6.585v5.459h14.543
		c0,0,0.737-10.615,11.967-10.615c11.229,0,11.966,10.615,11.966,10.615h2.209V45.377z"/>
	<polygon fill="#FFFFFF" points="33.902,18.759 19.472,18.759 12.25,36.147 33.902,36.147 	"/>
	<rect x="30.114" y="37.93" fill="#FFFFFF" width="3.01" height="1.505"/>
	<rect x="6.585" y="42.663" fill="#231F20" width="3.494" height="7.023"/>
</g>
</svg>
