<?xml version="1.0" encoding="utf-8"?>
<!-- Generator: Adobe Illustrator 15.0.0, SVG Export Plug-In . SVG Version: 6.00 Build 0)  -->
<!DOCTYPE svg PUBLIC "-//W3C//DTD SVG 1.1//EN" "http://www.w3.org/Graphics/SVG/1.1/DTD/svg11.dtd">
<svg version="1.1" id="Layer_1" xmlns="http://www.w3.org/2000/svg" xmlns:xlink="http://www.w3.org/1999/xlink" x="0px" y="0px"
	 width="350px" height="205" viewBox="0 0 350 205" enable-background="new 0 0 350 205" xml:space="preserve">
<rect y="12.773" fill="#808184" width="350" height="192.754"/>
<rect x="43.624" y="118.504" fill="#BBBDBF" width="95.362" height="87.023"/>
<rect x="43.624" y="109.148" fill="#A6A8AB" width="95.362" height="9.355"/>
<rect fill="#A6A8AB" width="350" height="9.354"/>
<rect x="211.013" y="109.148" fill="#A6A8AB" width="95.363" height="9.355"/>
<rect x="211.015" y="118.504" fill="#BBBDBF" width="95.363" height="87.023"/>
<rect x="190.115" y="176.107" fill="#58595B" width="15.117" height="29.42"/>
<g>
	<path fill="#003767" d="M178.564,29.755c-24.142,0-42.361,3.716-42.361,3.716s-3.036,0.475-3.036,3.266v19.157
		c0,2.644,3.036,3.157,3.036,3.157s18.446,4.03,42.361,4.03c23.913,0,42.361-4.03,42.361-4.03s3.036-0.514,3.036-3.157V36.736
		c0-2.791-3.036-3.266-3.036-3.266S202.706,29.755,178.564,29.755z"/>
	<path fill="#FFFFFF" d="M148.526,42.605h0.051c0.895-1.608,2.427-2.322,4.239-2.322h0.895v4.469
		c-0.638-0.357-1.251-0.434-1.968-0.434c-2.577,0-3.217,1.711-3.217,3.957v5.285h-4.647v-13.1h4.647V42.605z"/>
	<path fill="#FFFFFF" d="M169.272,47.79h-9.781c0,1.889,0.997,2.911,2.911,2.911c0.997,0,1.71-0.332,2.223-1.201h4.468
		c-0.739,3.09-3.678,4.494-6.664,4.494c-4.343,0-7.585-2.449-7.585-6.971c0-4.365,2.987-6.995,7.252-6.995
		c4.545,0,7.175,2.809,7.175,7.277V47.79z M164.956,45.108c-0.229-1.251-1.379-2.067-2.63-2.067c-1.352,0-2.478,0.714-2.756,2.067
		H164.956z"/>
	<path fill="#FFFFFF" d="M185.255,47.79h-9.779c0,1.889,0.995,2.911,2.912,2.911c0.994,0,1.71-0.332,2.221-1.201h4.469
		c-0.74,3.09-3.677,4.494-6.664,4.494c-4.341,0-7.583-2.449-7.583-6.971c0-4.365,2.987-6.995,7.252-6.995
		c4.545,0,7.173,2.809,7.173,7.277V47.79z M180.94,45.108c-0.23-1.251-1.378-2.067-2.63-2.067c-1.354,0-2.477,0.714-2.757,2.067
		H180.94z"/>
	<path fill="#FFFFFF" d="M213.557,47.79h-9.781c0,1.889,0.997,2.911,2.91,2.911c0.997,0,1.713-0.332,2.224-1.201h4.468
		c-0.74,3.09-3.678,4.494-6.665,4.494c-4.342,0-7.584-2.449-7.584-6.971c0-4.365,2.987-6.995,7.252-6.995
		c4.545,0,7.177,2.809,7.177,7.277V47.79z M209.239,45.108c-0.229-1.251-1.379-2.067-2.63-2.067c-1.354,0-2.476,0.714-2.757,2.067
		H209.239z"/>
	<path fill="#FFFFFF" d="M197.148,44.724c-0.688-0.512-1.507-0.919-2.4-0.919c-1.788,0-3.193,1.378-3.193,3.193
		c0,1.891,1.353,3.219,3.27,3.219c0.817,0,1.713-0.332,2.324-0.895l1.183,3.277c-1.455,1.116-3.328,1.396-4.453,1.396
		c-3.882,0-7.127-2.885-7.127-6.846c0-4.215,3.221-7.126,7.334-7.126c1.072,0,3.124,0.474,4.276,1.466L197.148,44.724z"/>
</g>
</svg>
