<svg xmlns="http://www.w3.org/2000/svg"><symbol viewBox="0 0 70 70" id="shape-airdrop"><title>airdrop</title> <g id="airdrop-airdrop"> <circle display="inline" cx="17.1" cy="61.9" r="3.1"/> <circle display="inline" cx="17.1" cy="45.9" r="3.6"/> <circle display="inline" cx="17.1" cy="28" r="4.1"/> <circle display="inline" cx="17.1" cy="9.8" r="4.8"/> <circle display="inline" cx="35" cy="61.9" r="3.1"/> <circle display="inline" cx="35" cy="45.9" r="3.6"/> <circle display="inline" cx="35" cy="28" r="4.1"/> <circle display="inline" cx="35" cy="9.8" r="4.8"/> <circle display="inline" cx="52.9" cy="61.9" r="3.1"/> <circle display="inline" cx="52.9" cy="45.9" r="3.6"/> <circle display="inline" cx="52.9" cy="28" r="4.1"/> <circle display="inline" cx="52.9" cy="9.8" r="4.8"/> </g> </symbol><symbol viewBox="0 0 70 70" id="shape-body-spray"><title>body-spray</title> <g id="body-spray-body-spray"> <path display="inline" d="M12.4,34.7c0-0.1,0-0.1,0-0.2c0-0.1-0.1-0.2-0.1-0.2c0-0.2-0.1-0.3-0.1-0.5c0-0.1,0-0.2,0-0.2l0,0
		c0,0-0.1-0.1-0.1-0.1c0,0,0-0.1-0.1-0.1c-0.1-0.1-0.1-0.3-0.2-0.4c-0.1-0.1-0.2-0.2-0.3-0.4c-0.1-0.1-0.1-0.2-0.2-0.2
		c-0.1-0.1-0.1-0.1-0.2-0.1c-0.1-0.1-0.2-0.2-0.4-0.3c-0.1-0.1-0.3-0.2-0.4-0.2c0,0,0,0,0,0c-0.1,0-0.1-0.1-0.2-0.1c0,0-0.1,0-0.1,0
		c0,0-0.1,0-0.1,0c-0.1,0-0.3-0.1-0.4-0.1c-0.1,0-0.2-0.1-0.3-0.1c-0.1,0-0.1,0-0.2,0c-0.1,0-0.2,0-0.3,0c-0.1,0-0.2,0-0.3,0
		c-0.1,0-0.1,0-0.2,0c-0.1,0-0.1,0.1-0.2,0.1c-0.2,0-0.3,0.1-0.5,0.1c-0.1,0-0.1,0-0.2,0h0c-0.1,0-0.2,0.1-0.2,0.2
		c-0.1,0.1-0.3,0.1-0.4,0.2c-0.1,0.1-0.3,0.2-0.4,0.3c-0.1,0.1-0.1,0.1-0.2,0.2C6,32.4,6,32.5,6,32.6c-0.1,0.1-0.2,0.2-0.3,0.4
		c-0.1,0.1-0.2,0.3-0.2,0.4c0,0.1-0.1,0.1-0.1,0.2c0,0,0,0.1,0,0.1c0,0,0,0,0,0.1c0,0.2-0.1,0.3-0.1,0.5c0,0.1-0.1,0.1-0.1,0.2
		c0,0.1,0,0.1,0,0.2c0,0.1,0,0.2,0,0.3c0,0.1,0,0.2,0,0.3c0,0.1,0,0.1,0,0.2c0,0.1,0.1,0.1,0.1,0.2c0,0.2,0.1,0.3,0.1,0.5
		c0,0.1,0,0.2,0,0.2c0,0.1,0.1,0.1,0.2,0.2c0.1,0.1,0.1,0.3,0.2,0.4c0.1,0.1,0.2,0.3,0.3,0.4C6,37.5,6,37.6,6.1,37.7
		c0.1,0.1,0.1,0.1,0.2,0.2c0.1,0.1,0.2,0.2,0.4,0.3c0.1,0.1,0.3,0.2,0.4,0.2c0,0,0.1,0,0.1,0.1c0,0,0.1,0.1,0.1,0.1
		c0.1,0,0.2,0,0.2,0c0.2,0,0.3,0.1,0.5,0.1c0.1,0,0.2,0.1,0.3,0.1c0.1,0,0.2,0,0.2,0c0.1,0,0.2,0,0.2,0c0.1,0,0.2,0,0.3,0
		c0.1,0,0.1,0,0.2,0c0.1,0,0.2-0.1,0.2-0.1c0.2,0,0.3-0.1,0.5-0.1c0.2-0.1,0.3-0.1,0.5-0.2c0.1-0.1,0.3-0.1,0.4-0.2
		c0.1-0.1,0.2-0.2,0.4-0.3c0.1-0.1,0.2-0.1,0.2-0.2c0.1-0.1,0.1-0.1,0.1-0.2c0.1-0.1,0.2-0.2,0.3-0.4c0.1-0.1,0.2-0.3,0.2-0.4
		c0-0.1,0.1-0.1,0.1-0.2c0-0.1,0-0.2,0-0.2c0-0.2,0.1-0.3,0.1-0.5c0-0.1,0.1-0.2,0.1-0.2c0-0.1,0-0.1,0-0.2c0-0.1,0-0.2,0-0.3
		C12.5,34.9,12.4,34.8,12.4,34.7z"/> <path display="inline" d="M22.2,39.2c0,4.5-6.8,4.5-6.8,0C15.4,34.7,22.2,34.7,22.2,39.2"/> <path display="inline" d="M31.9,43.3c0,4.1-6.1,4.1-6.1,0C25.8,39.3,31.9,39.3,31.9,43.3"/> <path display="inline" d="M41.7,47.5c0,3.7-5.5,3.7-5.5,0C36.2,43.9,41.7,43.9,41.7,47.5"/> <path display="inline" d="M50,49.4c-1.3-0.5-2.7,0.1-3.2,1.3c-0.5,1.2,0.1,2.7,1.3,3.2c1.3,0.5,2.7-0.1,3.2-1.3
		C51.8,51.4,51.2,49.9,50,49.4z"/> <path display="inline" d="M61.3,55.9c0,3-4.4,3-4.4,0C56.9,52.9,61.3,52.9,61.3,55.9"/> <path display="inline" d="M33.4,35c0,4.1-6.1,4.1-6.1,0C27.3,30.9,33.4,30.9,33.4,35"/> <path display="inline" d="M41.5,36.6c-1.5-0.2-2.9,0.9-3.1,2.4c-0.2,1.5,0.9,2.9,2.4,3.1c1.5,0.2,2.9-0.9,3.1-2.3
		C44.1,38.1,43,36.7,41.5,36.6z"/> <path display="inline" d="M52.3,38.3c-1.3-0.2-2.6,0.8-2.8,2.1c-0.2,1.3,0.8,2.6,2.1,2.8c1.4,0.2,2.6-0.8,2.8-2.1
		C54.6,39.7,53.6,38.4,52.3,38.3z"/> <path display="inline" d="M63.1,39.9c-1.2-0.2-2.3,0.7-2.5,1.9c-0.2,1.2,0.7,2.3,1.9,2.5c1.2,0.2,2.3-0.7,2.5-1.9
		C65.1,41.2,64.3,40.1,63.1,39.9z"/> <path display="inline" d="M40.8,28c-1.5,0.2-2.6,1.6-2.4,3.1c0.2,1.5,1.6,2.6,3.1,2.4c1.5-0.2,2.5-1.6,2.3-3.1
		C43.7,28.9,42.3,27.8,40.8,28z"/> <path display="inline" d="M51.6,26.9c-1.3,0.2-2.3,1.4-2.1,2.8c0.2,1.3,1.4,2.3,2.8,2.1c1.3-0.2,2.3-1.4,2.1-2.8
		C54.2,27.6,53,26.7,51.6,26.9z"/> <path display="inline" d="M62.5,25.7c-1.2,0.2-2.1,1.3-1.9,2.5c0.2,1.2,1.3,2.1,2.5,1.9c1.2-0.2,2.1-1.3,1.9-2.5
		C64.8,26.4,63.7,25.5,62.5,25.7z"/> <path display="inline" d="M17.5,27.7c-1.7,0.7-2.5,2.7-1.8,4.4c0.7,1.7,2.7,2.5,4.4,1.8c1.7-0.7,2.5-2.7,1.8-4.4
		C21.2,27.8,19.2,27,17.5,27.7z"/> <path display="inline" d="M31.9,26.6c0,4.1-6.1,4.1-6.1,0C25.8,22.6,31.9,22.6,31.9,26.6"/> <path display="inline" d="M41.7,22.5c0,3.7-5.5,3.7-5.5,0C36.2,18.8,41.7,18.8,41.7,22.5"/> <path display="inline" d="M50,20.6c1.3-0.5,1.8-2,1.3-3.2c-0.5-1.3-2-1.9-3.2-1.3c-1.3,0.5-1.9,2-1.3,3.2
		C47.3,20.5,48.7,21.1,50,20.6z"/> <path display="inline" d="M59.9,16.2c1.1-0.5,1.7-1.8,1.2-2.9c-0.5-1.1-1.8-1.7-2.9-1.2c-1.1,0.5-1.7,1.8-1.2,2.9
		C57.5,16.1,58.8,16.7,59.9,16.2z"/> </g> </symbol><symbol viewBox="0 0 70 70" id="shape-intense-rain"><title>intense-rain</title> <g id="intense-rain-intense-rain"> <path d="M11.5,67.5C10.1,67.5,9,66.4,9,65V5c0-1.4,1.1-2.5,2.5-2.5S14,3.6,14,5v60C14,66.4,12.9,67.5,11.5,67.5z"/> <path d="M18.2,67.5c-1.4,0-2.5-1.1-2.5-2.5V5c0-1.4,1.1-2.5,2.5-2.5s2.5,1.1,2.5,2.5v60
		C20.7,66.4,19.6,67.5,18.2,67.5z"/> <path d="M24.9,67.5c-1.4,0-2.5-1.1-2.5-2.5V5c0-1.4,1.1-2.5,2.5-2.5s2.5,1.1,2.5,2.5v60
		C27.4,66.4,26.3,67.5,24.9,67.5z"/> <path d="M31.6,67.5c-1.4,0-2.5-1.1-2.5-2.5V5c0-1.4,1.1-2.5,2.5-2.5s2.5,1.1,2.5,2.5v60
		C34.1,66.4,33,67.5,31.6,67.5z"/> <path d="M38.4,67.5c-1.4,0-2.5-1.1-2.5-2.5V5c0-1.4,1.1-2.5,2.5-2.5s2.5,1.1,2.5,2.5v60
		C40.9,66.4,39.7,67.5,38.4,67.5z"/> <path d="M45.1,67.5c-1.4,0-2.5-1.1-2.5-2.5V5c0-1.4,1.1-2.5,2.5-2.5s2.5,1.1,2.5,2.5v60
		C47.6,66.4,46.4,67.5,45.1,67.5z"/> <path d="M51.8,67.5c-1.4,0-2.5-1.1-2.5-2.5V5c0-1.4,1.1-2.5,2.5-2.5s2.5,1.1,2.5,2.5v60
		C54.3,66.4,53.1,67.5,51.8,67.5z"/> <path d="M58.5,67.5c-1.4,0-2.5-1.1-2.5-2.5V5c0-1.4,1.1-2.5,2.5-2.5S61,3.6,61,5v60C61,66.4,59.9,67.5,58.5,67.5z"/> </g> </symbol><symbol viewBox="0 0 70 70" id="shape-led"><title>led</title> <g id="led-led"> <path display="inline" d="M65,42.2V40h-8.7v2.2H65z M61.5,27l-1.1-1.9l-7.6,4.4l1.1,1.9L61.5,27z M50.9,15.7L49,14.6l-4.4,7.6
		l1.9,1.1L50.9,15.7z M36.1,19.8v-8.7h-2.2v8.7L36.1,19.8L36.1,19.8z M25.3,22.1L21,14.6L19,15.7l4.4,7.6L25.3,22.1z M17.1,29.5
		l-7.6-4.4L8.5,27l7.6,4.4L17.1,29.5z M13.7,40H5v2.2h8.7V40z M35,26.5L35,26.5c-8,0-14.6,6.6-14.6,14.6v17.8h29.2V41.1
		C49.6,33.1,43,26.5,35,26.5z M35,29.7c6.3,0,11.4,5.1,11.4,11.4v14.7H23.6V41.1C23.6,34.8,28.7,29.7,35,29.7"/> </g> </symbol><symbol viewBox="0 0 70 70" id="shape-massage"><title>massage</title> <g id="massage-massage"> <path d="M24.9,67.5c-1.4,0-2.5-1.1-2.5-2.5V5c0-1.4,1.1-2.5,2.5-2.5s2.5,1.1,2.5,2.5v60
		C27.4,66.4,26.3,67.5,24.9,67.5z"/> <path d="M31.6,67.5c-1.4,0-2.5-1.1-2.5-2.5V5c0-1.4,1.1-2.5,2.5-2.5s2.5,1.1,2.5,2.5v60
		C34.1,66.4,33,67.5,31.6,67.5z"/> <path d="M38.4,67.5c-1.4,0-2.5-1.1-2.5-2.5V5c0-1.4,1.1-2.5,2.5-2.5s2.5,1.1,2.5,2.5v60
		C40.9,66.4,39.7,67.5,38.4,67.5z"/> <path d="M45.1,67.5c-1.4,0-2.5-1.1-2.5-2.5V5c0-1.4,1.1-2.5,2.5-2.5s2.5,1.1,2.5,2.5v60
		C47.6,66.4,46.4,67.5,45.1,67.5z"/> </g> </symbol><symbol viewBox="0 0 70 70" id="shape-raindance"><title>raindance</title> <g id="raindance-raindance"> <circle display="inline" cx="19.3" cy="62.4" r="2.6"/> <circle display="inline" cx="19.3" cy="53.5" r="3.1"/> <circle display="inline" cx="19.3" cy="43.7" r="3.5"/> <circle display="inline" cx="19.3" cy="33.7" r="4.1"/> <circle display="inline" cx="19.3" cy="22.7" r="4.5"/> <circle display="inline" cx="19.3" cy="10" r="5"/> <circle display="inline" cx="35" cy="62.4" r="2.6"/> <circle display="inline" cx="35" cy="53.5" r="3.1"/> <circle display="inline" cx="35" cy="43.7" r="3.5"/> <circle display="inline" cx="35" cy="33.7" r="4.1"/> <circle display="inline" cx="35" cy="22.7" r="4.5"/> <circle display="inline" cx="35" cy="10" r="5"/> <circle display="inline" cx="50.7" cy="62.4" r="2.6"/> <circle display="inline" cx="50.7" cy="53.5" r="3.1"/> <circle display="inline" cx="50.7" cy="43.7" r="3.5"/> <circle display="inline" cx="50.7" cy="33.7" r="4.1"/> <circle display="inline" cx="50.7" cy="22.7" r="4.5"/> <circle display="inline" cx="50.7" cy="10" r="5"/> </g> </symbol><symbol viewBox="0 0 70 70" id="shape-rejuvenation"><title>rejuvenation</title> <g id="rejuvenation-rejuvenation"> <path display="inline" d="M55.6,16.2c-4-4-10.5-4-14.5,0c-0.4,0.4-0.8,0.9-1.1,1.3l0,0c-0.1,0.1-0.1,0.2-0.2,0.3c0,0,0,0.1-0.1,0.1
		c-11.6,16.8-0.5,39-0.5,39c-1.5-15.1,11.9-23.2,14.3-24.6c0.1-0.1,0.3-0.1,0.4-0.2c0,0,0,0,0,0h0c0.6-0.4,1.1-0.8,1.6-1.3
		C59.6,26.7,59.6,20.2,55.6,16.2z"/> <path display="inline" d="M34.6,19.9c0.1,0,0.1-0.1,0.2-0.1l0,0c0.3-0.2,0.5-0.4,0.8-0.6c1.9-1.8,1.9-4.8,0-6.7c-1.9-1.8-5-1.8-7,0
		c-0.2,0.2-0.4,0.4-0.5,0.6l0,0c0,0-0.1,0.1-0.1,0.1c0,0,0,0,0,0c-5.6,7.7-0.2,18-0.2,18C27,24.3,33.4,20.5,34.6,19.9z"/> <path display="inline" d="M22.8,33.4C22.8,33.3,22.8,33.3,22.8,33.4c-0.1-0.1-0.2-0.1-0.2-0.2l0,0c-0.3-0.2-0.7-0.4-1.1-0.6
		c-3.8-1.5-8.1,0.4-9.5,4.1c-1.5,3.8,0.4,8,4.1,9.5c0.5,0.2,0.9,0.3,1.4,0.4v0h0c0.1,0,0.2,0,0.3,0c2,0.2,13.2,1.8,16.5,12.1
		C34.2,58.9,35.3,41.1,22.8,33.4z"/> </g> </symbol><symbol viewBox="0 0 70 70" id="shape-relaxation"><title>relaxation</title> <g id="relaxation-relaxation"> <path display="inline" d="M10.9,21.6c0,1.8,0,3.6,0,5.4C27,35.4,43,18.5,59.1,27c0-1.8,0-3.6,0-5.4C43,13.1,27,30.1,10.9,21.6z"/> <path display="inline" d="M10.9,37.7c16.1,8.5,32.2-8.5,48.2,0c0-1.8,0-3.6,0-5.4c-16.1-8.5-32.2,8.5-48.2,0
		C10.9,34.1,10.9,35.9,10.9,37.7z"/> <path display="inline" d="M10.9,48.4c16.1,8.5,32.2-8.5,48.2,0c0-1.8,0-3.6,0-5.4C43,34.6,27,51.5,10.9,43
		C10.9,44.8,10.9,46.6,10.9,48.4z"/> </g> </symbol><symbol viewBox="0 0 70 70" id="shape-soft-rain"><title>soft-rain</title> <g id="soft-rain-soft-rain"> <path d="M18.9,17c-1.4,0-2.5-1.1-2.5-2.5V5c0-1.4,1.1-2.5,2.5-2.5s2.5,1.1,2.5,2.5v9.5C21.4,15.9,20.3,17,18.9,17z"/> <path d="M18.9,67.5c-1.4,0-2.5-1.1-2.5-2.5v-9.5c0-1.4,1.1-2.5,2.5-2.5s2.5,1.1,2.5,2.5V65
		C21.4,66.4,20.3,67.5,18.9,67.5z"/> <path d="M18.9,27.2c-1.4,0-2.5-1.1-2.5-2.5V20c0-1.4,1.1-2.5,2.5-2.5s2.5,1.1,2.5,2.5v4.7
		C21.4,26.1,20.3,27.2,18.9,27.2z"/> <path d="M18.9,42.3c-1.4,0-2.5-1.1-2.5-2.5v-9.5c0-1.4,1.1-2.5,2.5-2.5s2.5,1.1,2.5,2.5v9.5
		C21.4,41.2,20.3,42.3,18.9,42.3z"/> <path d="M18.9,52.5c-1.4,0-2.5-1.1-2.5-2.5v-4.7c0-1.4,1.1-2.5,2.5-2.5s2.5,1.1,2.5,2.5V50
		C21.4,51.3,20.3,52.5,18.9,52.5z"/> <path d="M26.9,52.5c-1.4,0-2.5-1.1-2.5-2.5v-9.5c0-1.4,1.1-2.5,2.5-2.5s2.5,1.1,2.5,2.5V50
		C29.4,51.3,28.3,52.5,26.9,52.5z"/> <path d="M26.9,12.2c-1.4,0-2.5-1.1-2.5-2.5V5c0-1.4,1.1-2.5,2.5-2.5s2.5,1.1,2.5,2.5v4.7
		C29.4,11.1,28.3,12.2,26.9,12.2z"/> <path d="M26.9,27.2c-1.4,0-2.5-1.1-2.5-2.5v-9.5c0-1.4,1.1-2.5,2.5-2.5s2.5,1.1,2.5,2.5v9.5
		C29.4,26.1,28.3,27.2,26.9,27.2z"/> <path d="M26.9,37.4c-1.4,0-2.5-1.1-2.5-2.5v-4.7c0-1.4,1.1-2.5,2.5-2.5s2.5,1.1,2.5,2.5v4.7
		C29.4,36.3,28.3,37.4,26.9,37.4z"/> <path d="M35,17c-1.4,0-2.5-1.1-2.5-2.5V5c0-1.4,1.1-2.5,2.5-2.5s2.5,1.1,2.5,2.5v9.5C37.5,15.9,36.4,17,35,17z"/> <path d="M35,67.5c-1.4,0-2.5-1.1-2.5-2.5v-9.5c0-1.4,1.1-2.5,2.5-2.5s2.5,1.1,2.5,2.5V65
		C37.5,66.4,36.4,67.5,35,67.5z"/> <path d="M35,27.2c-1.4,0-2.5-1.1-2.5-2.5V20c0-1.4,1.1-2.5,2.5-2.5s2.5,1.1,2.5,2.5v4.7
		C37.5,26.1,36.4,27.2,35,27.2z"/> <path d="M35,42.3c-1.4,0-2.5-1.1-2.5-2.5v-9.5c0-1.4,1.1-2.5,2.5-2.5s2.5,1.1,2.5,2.5v9.5
		C37.5,41.2,36.4,42.3,35,42.3z"/> <path d="M35,52.5c-1.4,0-2.5-1.1-2.5-2.5v-4.7c0-1.4,1.1-2.5,2.5-2.5s2.5,1.1,2.5,2.5V50
		C37.5,51.3,36.4,52.5,35,52.5z"/> <path d="M51.1,17c-1.4,0-2.5-1.1-2.5-2.5V5c0-1.4,1.1-2.5,2.5-2.5s2.5,1.1,2.5,2.5v9.5C53.6,15.9,52.5,17,51.1,17z"/> <path d="M51.1,67.5c-1.4,0-2.5-1.1-2.5-2.5v-9.5c0-1.4,1.1-2.5,2.5-2.5s2.5,1.1,2.5,2.5V65
		C53.6,66.4,52.5,67.5,51.1,67.5z"/> <path d="M51.1,27.2c-1.4,0-2.5-1.1-2.5-2.5V20c0-1.4,1.1-2.5,2.5-2.5s2.5,1.1,2.5,2.5v4.7
		C53.6,26.1,52.5,27.2,51.1,27.2z"/> <path d="M51.1,42.3c-1.4,0-2.5-1.1-2.5-2.5v-9.5c0-1.4,1.1-2.5,2.5-2.5s2.5,1.1,2.5,2.5v9.5
		C53.6,41.2,52.5,42.3,51.1,42.3z"/> <path d="M51.1,52.5c-1.4,0-2.5-1.1-2.5-2.5v-4.7c0-1.4,1.1-2.5,2.5-2.5s2.5,1.1,2.5,2.5V50
		C53.6,51.3,52.5,52.5,51.1,52.5z"/> <path d="M43.1,52.5c-1.4,0-2.5-1.1-2.5-2.5v-9.5c0-1.4,1.1-2.5,2.5-2.5s2.5,1.1,2.5,2.5V50
		C45.6,51.3,44.4,52.5,43.1,52.5z"/> <path d="M43.1,12.2c-1.4,0-2.5-1.1-2.5-2.5V5c0-1.4,1.1-2.5,2.5-2.5s2.5,1.1,2.5,2.5v4.7
		C45.6,11.1,44.4,12.2,43.1,12.2z"/> <path d="M43.1,27.2c-1.4,0-2.5-1.1-2.5-2.5v-9.5c0-1.4,1.1-2.5,2.5-2.5s2.5,1.1,2.5,2.5v9.5
		C45.6,26.1,44.4,27.2,43.1,27.2z"/> <path d="M43.1,37.4c-1.4,0-2.5-1.1-2.5-2.5v-4.7c0-1.4,1.1-2.5,2.5-2.5s2.5,1.1,2.5,2.5v4.7
		C45.6,36.3,44.4,37.4,43.1,37.4z"/> </g> </symbol><symbol viewBox="0 0 70 70" id="shape-therapeutic"><title>therapeutic</title> <g id="therapeutic-therapeutic"> <path d="M26.1,16.4c-1.4,0-2.5-1.1-2.5-2.5V5c0-1.4,1.1-2.5,2.5-2.5s2.5,1.1,2.5,2.5v8.9
		C28.6,15.3,27.5,16.4,26.1,16.4z"/> <path d="M26.1,42c-1.4,0-2.5-1.1-2.5-2.5V21.4c0-1.4,1.1-2.5,2.5-2.5s2.5,1.1,2.5,2.5v18.1
		C28.6,40.8,27.5,42,26.1,42z"/> <path d="M26.1,58.3c-1.4,0-2.5-1.1-2.5-2.5v-8.9c0-1.4,1.1-2.5,2.5-2.5s2.5,1.1,2.5,2.5v8.9
		C28.6,57.2,27.5,58.3,26.1,58.3z"/> <path d="M35,25.6c-1.4,0-2.5-1.1-2.5-2.5V5c0-1.4,1.1-2.5,2.5-2.5s2.5,1.1,2.5,2.5v18.1
		C37.5,24.5,36.4,25.6,35,25.6z"/> <path d="M35,42c-1.4,0-2.5-1.1-2.5-2.5v-8.9c0-1.4,1.1-2.5,2.5-2.5s2.5,1.1,2.5,2.5v8.9C37.5,40.8,36.4,42,35,42z"/> <path d="M35,67.5c-1.4,0-2.5-1.1-2.5-2.5V46.9c0-1.4,1.1-2.5,2.5-2.5s2.5,1.1,2.5,2.5V65
		C37.5,66.4,36.4,67.5,35,67.5z"/> <path d="M43.9,16.4c-1.4,0-2.5-1.1-2.5-2.5V5c0-1.4,1.1-2.5,2.5-2.5s2.5,1.1,2.5,2.5v8.9
		C46.4,15.3,45.2,16.4,43.9,16.4z"/> <path d="M43.9,42c-1.4,0-2.5-1.1-2.5-2.5V21.4c0-1.4,1.1-2.5,2.5-2.5s2.5,1.1,2.5,2.5v18.1
		C46.4,40.8,45.2,42,43.9,42z"/> <path d="M43.9,58.3c-1.4,0-2.5-1.1-2.5-2.5v-8.9c0-1.4,1.1-2.5,2.5-2.5s2.5,1.1,2.5,2.5v8.9
		C46.4,57.2,45.2,58.3,43.9,58.3z"/> </g> </symbol><symbol viewBox="0 0 70 70" id="shape-turbine"><title>turbine</title> <g id="turbine-turbine"> <path d="M26.2,13.3c-0.1,0.1,2.2-0.4,5.2,2.8c2.8,2.9,6.3,9.5,4,18.3C34.4,28.2,32.6,21.6,26.2,13.3z"/> <path d="M43.9,56.6c0.1-0.1-2.2,0.4-5.2-2.8c-2.8-2.9-6.3-9.5-4-18.3C35.7,41.8,37.5,48.4,43.9,56.6z"/> <path d="M56.7,26.1c-0.1-0.1,0.4,2.2-2.8,5.2c-2.9,2.8-9.5,6.3-18.3,4C41.8,34.3,48.4,32.5,56.7,26.1z"/> <path d="M13.3,43.9c0.1,0.1-0.4-2.2,2.8-5.2c2.9-2.8,9.5-6.3,18.3-4C28.2,35.6,21.6,37.5,13.3,43.9z"/> <path d="M43.6,13c-0.1,0,2.1,1.9,2,6.2c0,4.1-2.2,10.6-10,15.6C39.3,29.6,42.6,23.8,43.6,13z"/> <path d="M26.4,57c0.1,0-2.1-1.9-2-6.2c0-4.1,2.2-10.6,10-15.6C30.8,40.4,27.4,46.2,26.4,57z"/> <path d="M57,43.6c0-0.1-1.9,2.1-6.2,2c-4.1,0-10.6-2.2-15.6-10C40.4,39.2,46.2,42.6,57,43.6z"/> <path d="M13,26.4c0,0.1,1.9-2.1,6.2-2c4.1,0,10.6,2.2,15.6,10C29.6,30.7,23.8,27.4,13,26.4z"/> <path d="M35,67C17.4,67,3,52.6,3,35C3,17.4,17.4,3,35,3s32,14.4,32,32C67,52.6,52.6,67,35,67z M35,7
		C19.6,7,7,19.6,7,35s12.6,28,28,28s28-12.6,28-28S50.4,7,35,7z M34.9,40.9c-3.4,0-6.1-2.7-6.1-6.1c0-3.4,2.7-6.1,6.1-6.1
		s6.1,2.7,6.1,6.1C41,38.2,38.3,40.9,34.9,40.9z M34.9,32.8c-1.2,0-2.1,0.9-2.1,2.1c0,1.2,0.9,2.1,2.1,2.1S37,36,37,34.8
		C37,33.7,36.1,32.8,34.9,32.8z"/> </g> </symbol><symbol viewBox="0 0 70 70" id="shape-waterfall"><title>waterfall</title> <g id="waterfall-waterfall"> <path d="M40.6,45.4L54.8,65H15.2l14.2-19.6L6.1,5h57.9L40.6,45.4z"/> </g> </symbol></svg>