<?xml version="1.0" encoding="utf-8"?>
<!-- Generator: Adobe Illustrator 18.1.0, SVG Export Plug-In . SVG Version: 6.00 Build 0)  -->
<svg version="1.1" id="Layer_1" xmlns="http://www.w3.org/2000/svg" xmlns:xlink="http://www.w3.org/1999/xlink" x="0px" y="0px"
	 width="61.2px" height="98.2px" viewBox="0 0 61.2 98.2" enable-background="new 0 0 61.2 98.2" xml:space="preserve">
<g>
	<path fill="#FFFFFF" d="M58.1,30.8l3.2-3.7l-4-2.9l2.2-4.4l-4.5-1.8l1.1-4.8l-4.8-0.7l-0.1-4.9l-4.8,0.5l-1.3-4.7l-4.6,1.6L38,0.9
		l-4.1,2.7L30.6,0l-3.3,3.6l-4.1-2.7l-2.4,4.3l-4.6-1.6L15,8.2l-4.9-0.5l-0.1,4.9l-4.8,0.7l1.1,4.8l-4.5,1.8L4,24.3l-4,2.9l3.2,3.7
		L0,34.6l4,2.9l-2.2,4.4l4.5,1.8l-1.1,4.8l4.8,0.7l0.1,4.9l4.9-0.5l1.3,4.7l4.6-1.6l2.4,4.3l4.1-2.7l3.3,3.6l3.3-3.6l4.1,2.7
		l2.4-4.3l4.6,1.6l1.3-4.7l4.8,0.5l0.1-4.9l4.8-0.7l-1.1-4.8l4.5-1.8l-2.2-4.4l4-2.9L58.1,30.8z M30.6,53.4
		c-12.5,0-22.6-10.1-22.6-22.6S18.2,8.3,30.6,8.3c12.5,0,22.6,10.1,22.6,22.6C53.2,43.3,43.1,53.4,30.6,53.4"/>
	<polygon fill="#FFFFFF" points="41,59.6 39.2,62.9 38.5,64.2 37.2,63.4 34.1,61.3 31.6,64 30.6,65.1 29.6,64 27.1,61.3 24,63.4 
		22.7,64.2 22,62.9 20.2,59.6 16.8,60.9 16.3,61 16.3,98.2 30.6,83.8 45,98.2 45,61 44.5,60.9 	"/>
	<path fill="#FFFFFF" d="M30.6,10.6c11.2,0,20.2,9,20.2,20.2s-9,20.2-20.2,20.2s-20.2-9-20.2-20.2S19.5,10.6,30.6,10.6"/>
</g>
</svg>
