<?xml version="1.0" encoding="utf-8"?>
<!-- Generator: Adobe Illustrator 18.1.0, SVG Export Plug-In . SVG Version: 6.00 Build 0)  -->
<svg version="1.1" id="Capa_1" xmlns="http://www.w3.org/2000/svg" xmlns:xlink="http://www.w3.org/1999/xlink" x="0px" y="0px"
	 width="95px" height="95px" viewBox="2.5 2.5 95 95" enable-background="new 2.5 2.5 95 95" xml:space="preserve">
<path fill="#FFFFFF" d="M50,2.5C23.8,2.5,2.5,23.8,2.5,50S23.8,97.5,50,97.5S97.5,76.2,97.5,50C97.5,23.8,76.2,2.5,50,2.5z
	 M73.6,39.3l0,1.5c0,15.5-11.8,33.3-33.3,33.3c-6.6,0-12.7-1.9-17.9-5.3c0.9,0.1,1.8,0.2,2.8,0.2c5.5,0,10.5-1.9,14.5-5
	c-5.1-0.1-9.4-3.5-10.9-8.1c0.7,0.1,1.4,0.2,2.2,0.2c1.1,0,2.1-0.1,3.1-0.4c-5.4-1.1-9.4-5.8-9.4-11.5v-0.2c1.6,0.9,3.4,1.4,5.3,1.5
	c-3.1-2.1-5.2-5.7-5.2-9.7c0-2.1,0.6-4.1,1.6-5.9c5.8,7.1,14.4,11.7,24.1,12.2c-0.2-0.9-0.3-1.8-0.3-2.7c0-6.5,5.2-11.7,11.7-11.7
	c3.4,0,6.4,1.4,8.5,3.7c2.7-0.5,5.2-1.5,7.4-2.8c-0.9,2.7-2.7,5-5.1,6.5c2.4-0.3,4.6-0.9,6.7-1.8C77.9,35.6,75.9,37.7,73.6,39.3z"/>
</svg>
