<svg version="1.1" xmlns="http://www.w3.org/2000/svg" x="0px" y="0px" viewBox="0 0 300 116.3">
<g>
	<path fill="#FFFFFF" d="M10.6,5.9c1.3,1.4,1.9,2.4,1.9,3.1c0,2.3-1.1,15.8-3.4,40.6v2.1c0,1,0.2,3,0.5,5.9H8
		c3.1-0.4,5.7-0.6,7.9-0.6H21c0-8.9-1-22.1-3.1-39.6c0.6-2.1,1.7-3.3,3.2-3.6H22c1.1,0,2.1,0.8,3.2,2.4v0.7c0,0.7,0.3,0.6,0.8-0.3
		c-0.1,0,0.6,13.5,1.9,40.4c0.9,0.1,1.3,0.9,1.3,2.2v1.3l-0.8,1.2c1.2,12,2.2,28.1,3,48.3l-3.2,1.9c-2.7-0.9-4-2.3-4-4.2v-0.6
		c0-1.2-0.2-1.9-0.6-1.9l0.6,1.2c0-10.6-0.9-25-2.6-43.3h-6.9c-1.9,0-4.4,0.4-7.7,1.2H6c-2.1,0-3.3-4.2-3.8-12.7
		c0-2.9,1.1-16.5,3.4-40.8L5.2,8.2C6.8,6.6,8.6,5.9,10.6,5.9z"/>
	<path fill="#FFFFFF" d="M106,5.1l1.8,2.2v1c0,0.7-0.9,1.7-2.8,3h-3.8c-4.6,0-7.7,1.7-9.3,5c-1.6,4.3-2.4,9.2-2.4,14.5
		c0,3.2,1.4,8.6,4.2,16.1c0.9,1.9,6.4,7.3,16.4,16.4c5.4,7.7,8.1,15.3,8.1,22.8c0,5.9-1.3,11.6-3.8,17.2c-1.3,3-4.7,5.6-10.2,7.6
		c-2.1,1.1-3.8,1.6-5.3,1.6c-2,0-3.3-0.8-4.1-2.5V109c0-1.5,1.6-2.4,4.8-2.7c5.9-2.2,8.8-4.5,8.8-6.9c1.9-3.7,2.8-8.4,2.8-14.1
		c0-7.5-3.3-14.8-10-21.9c-5.6-4.2-9.7-8.3-12.5-12.3c-2-2.2-4-7.7-5.9-16.6c0-1.1-0.1-2.4-0.3-4.1c0-6.8,1.3-13,3.9-18.3
		C89.7,7.4,96.2,5.1,106,5.1z"/>
	<path fill="#FFFFFF" d="M162.6,8.7l2,2.3v1.2c0,1.9-3.5,2.9-10.6,2.9h-8.7c0.6,0,1-0.1,1-0.2l0.6,14c-0.2,1.3-0.3,2-0.3,2.1
		c1.9,31.2,2.8,53.4,2.8,66.7c0.2,0.4,0.3,0.9,0.3,1.5c-0.2,0.3-0.3,0.4-0.3,0.3l0.4,2.1c-0.7,1.6-1.7,2.5-2.9,2.5h-1.2
		c-0.9,0-1.9-0.7-3.2-2.2c0-0.7,0.1-1.9,0.3-3.5c0-4.4-0.9-26.6-2.8-66.7c0-6.5-0.2-12.2-0.5-17l0.7,0.4h-0.3L129,16.1
		c-1.3-1.4-2-2.8-2-4c0-0.9,1-1.8,2.9-2.8c1.8,0.5,2.7,0.7,2.6,0.7c4-0.4,6.8-0.5,8.4-0.5h12.7C156.2,9.4,159.2,9.2,162.6,8.7z"/>
	<path fill="#FFFFFF" d="M192.9,2.9l0.7,0.4c-1.4,0-2.2-0.2-2.2-0.5c9.2,0.8,13.8,2.1,13.8,3.9v0.5c-0.7,1.9-1.9,2.9-3.6,2.9l-9-0.9
		c-0.4,0-1.7,0.1-3.9,0.2l0.2,2.2c0,3.4,0.5,16.5,1.5,39.3h0.3c1.5,0,2.8-0.1,3.9-0.3c4.8,0.4,8.7,0.6,11.4,0.6l1.8,2.4v1.3
		c0,1.6-1.1,2.5-3.2,2.5c-1.9,0-4.8-0.2-9-0.6c-2.7,0.2-4.5,0.3-5.2,0.3v-0.3c0,14.5,0.7,30.8,2.1,48.8c0.3,0,0.4,0.1,0.4,0.2
		c6.4-0.4,10.6-0.5,12.4-0.5c1.6,0.5,2.7,1.4,3.4,2.8v0.6c0,0.8-0.8,1.8-2.5,2.8c-8.2,0.2-13.1,0.4-14.8,0.6c-3.9,0-5.8-1.8-5.8-5.5
		c-1.4-19.7-2.2-36.1-2.2-49.2v-9.9c-1-18.1-1.5-30.3-1.5-36.6c-0.6-3.1-0.9-5-0.9-5.8l2.4-1.8h4.2C188.7,3.2,190.5,3.1,192.9,2.9z"
		/>
	<path fill="#FFFFFF" d="M228.5,1c11,0,18.4,4.8,22.3,14.4c0.7,2.1,1.1,4.6,1.3,7.4c0,13-2.3,27.3-6.9,42.9
		c-2.4,4.1-5.8,7.2-10.2,9.4c-1.6,0.1-2.4-0.2-2.4-0.6v0.3c0,2.7,0.1,4.9,0.3,6.8c-0.2,1.9-0.3,2.9-0.3,3.1
		c0.6,11.6,0.9,17.9,0.9,18.9c0.6,0.1,0.9,1.3,0.9,3.7v1.2c-0.8,2.2-1.9,3.5-3.3,4.1H230c-1.1,0-2.1-0.8-3.2-2.4v-2.5v-1.9
		c-0.2-0.9-0.4-3-0.6-6.4c0-1.3,0.1-1.9,0.2-1.9L225.6,86c0.2-2.1,0.3-3.7,0.3-4.6c-0.2-3.8-0.3-5.8-0.3-6.3
		c-0.8-0.4-1.2-1.3-1.2-2.6c0.5-1.8,0.8-2.6,1.1-2.6c-0.3-4.4-0.5-7.2-0.5-8.3l1.5-54.7c-0.4,0-0.5-0.7-0.5-2.2V3.8
		C225.9,3,226.8,2,228.5,1z M233.4,7.6l-1.5,54c0.2,4.3,0.3,7,0.3,8.1l-0.8-0.4c1.4,0,3.1-1.1,5.2-3.2c3.2-2.1,5.9-14.4,8.1-37
		c0.2-3.7,0.3-6.2,0.3-7.3c0-4.9-2.8-9.3-8.3-13.2C235.2,8,234.1,7.7,233.4,7.6z"/>
	<path fill="#FFFFFF" d="M285.3,5.1l1.8,2.2v1c0,0.7-0.9,1.7-2.8,3h-3.8c-4.6,0-7.7,1.7-9.3,5c-1.6,4.3-2.4,9.2-2.4,14.5
		c0,3.2,1.4,8.6,4.2,16.1c0.9,1.9,6.4,7.3,16.4,16.4c5.4,7.7,8.1,15.3,8.1,22.8c0,5.9-1.3,11.6-3.8,17.2c-1.3,3-4.7,5.6-10.2,7.6
		c-2.1,1.1-3.8,1.6-5.3,1.6c-2,0-3.3-0.8-4.1-2.5V109c0-1.5,1.6-2.4,4.8-2.7c5.9-2.2,8.8-4.5,8.8-6.9c1.9-3.7,2.8-8.4,2.8-14.1
		c0-7.5-3.3-14.8-10-21.9c-5.6-4.2-9.7-8.3-12.5-12.3c-2-2.2-4-7.7-5.9-16.6c0-1.1-0.1-2.4-0.3-4.1c0-6.8,1.3-13,3.9-18.3
		C269,7.4,275.6,5.1,285.3,5.1z"/>
</g>
</svg>