<svg xmlns="http://www.w3.org/2000/svg"><symbol viewBox="0 0 26 46" id="shape-arrow-left"><title>arrow-left</title> <g id="arrow-left-arrow-left"> <path d="M24.4,0.6C24.1,0.2,23.5,0,23,0c-0.5,0-1,0.2-1.4,0.6l-21,21c-0.8,0.8-0.8,2.1,0,2.8l21,21c0.8,0.8,2.1,0.8,2.8,0
		c0.8-0.8,0.8-2.1,0-2.8L4.9,23L24.4,3.4C25.2,2.6,25.2,1.4,24.4,0.6z"/> </g> </symbol><symbol viewBox="0 0 26 46" id="shape-arrow-right"><title>arrow-right</title> <g id="arrow-right-arrow-right"> <path d="M1.6,45.4C2,45.8,2.5,46,3,46c0.5,0,1-0.2,1.4-0.6l21-21c0.8-0.8,0.8-2.1,0-2.8l-21-21c-0.8-0.8-2.1-0.8-2.8,0
		c-0.8,0.8-0.8,2.1,0,2.8L21.2,23L1.6,42.6C0.8,43.4,0.8,44.7,1.6,45.4z"/> </g> </symbol><symbol viewBox="0 0 44 34" id="shape-cart"><title>cart</title> <path d="M34.2,33.5c2,0,3.7-1.7,3.7-3.7c0-2.1-1.7-3.7-3.7-3.7c-2,0-3.7,1.7-3.7,3.7S32.2,33.5,34.2,33.5"/> <path d="M13.8,33.5c2,0,3.7-1.7,3.7-3.7c0-2.1-1.7-3.7-3.7-3.7c-2,0-3.7,1.7-3.7,3.7S11.8,33.5,13.8,33.5"/> <path d="M13.8,28h20.4c0.5,0,0.9-0.4,0.9-0.9s-0.4-0.9-0.9-0.9H14.6L8.8,1.2C8.7,0.8,8.3,0.5,7.9,0.5H1.4c-0.5,0-0.9,0.4-0.9,0.9
	c0,0.5,0.4,0.9,0.9,0.9h5.8l5.7,24.9C13,27.7,13.4,28,13.8,28z"/> <path d="M12.9,24.2H37c0.4,0,0.8-0.3,0.9-0.6l5.6-16.8c0.1-0.3,0-0.6-0.1-0.8c-0.2-0.2-0.5-0.4-0.8-0.4H9.2C8.7,5.6,8.3,6,8.3,6.6
	c0,0.5,0.4,0.9,0.9,0.9h32.1l-4.9,14.9H12.9c-0.5,0-0.9,0.4-0.9,0.9C12,23.8,12.4,24.2,12.9,24.2z"/> </symbol></svg>