<svg xmlns="http://www.w3.org/2000/svg" width="115.062" height="115.07" viewBox="0 0 115.062 115.07">
  <path fill="#ffffff" class="cls-1" d="M648.715,5227.75a57.893,57.893,0,0,0,0,57.75,57.342,57.342,0,0,0,20.935,20.94,57.925,57.925,0,0,0,57.75,0,57.365,57.365,0,0,0,20.935-20.94,57.893,57.893,0,0,0,0-57.75,57.365,57.365,0,0,0-20.935-20.94,57.925,57.925,0,0,0-57.75,0A57.342,57.342,0,0,0,648.715,5227.75Zm37.826,56.96a4.585,4.585,0,0,1-2.4.68,5.307,5.307,0,0,1-2.4-.6,4.592,4.592,0,0,1-2.4-4.2v-47.93a4.592,4.592,0,0,1,2.4-4.2,4.486,4.486,0,0,1,4.794.08l40.746,23.97a4.731,4.731,0,0,1,0,8.23Z" transform="translate(-641 -5199.09)"/>
</svg>