<svg version="1.1" id="Layer_1" xmlns="http://www.w3.org/2000/svg" xmlns:xlink="http://www.w3.org/1999/xlink" x="0px" y="0px"
	 viewBox="0 0 227 129" enable-background="new 0 0 227 129" xml:space="preserve">
<rect x="53.387" y="79.936" fill="#3B2314" width="47.15" height="7.06"/>
<path fill="#3B2314" d="M58.44,0l-2.656,40H14v47h47V40l2.443-35.986c8.838-0.698,49.093-2.028,49.093,30.599
	C112.536,59.272,88,63.347,88,63.347V87h42V0H58.44z"/>
<path fill="#929497" d="M8.634,50.396c4.935,0,8.936,4.002,8.936,8.938c0,4.935-4.001,8.936-8.936,8.936V50.396z"/>
<path fill="#231F20" d="M29.22,128.717C13.108,128.717,0,115.608,0,99.496s13.108-29.22,29.22-29.22
	c16.112,0,29.22,13.107,29.22,29.22S45.332,128.717,29.22,128.717z M29.22,75.589c-13.183,0-23.908,10.725-23.908,23.907
	s10.725,23.908,23.908,23.908s23.907-10.726,23.907-23.908S42.403,75.589,29.22,75.589z"/>
<circle fill="#231F20" cx="29.22" cy="99.496" r="7.276"/>
<path fill="#231F20" d="M29.22,121.362c-12.057,0-21.866-9.81-21.866-21.866S17.163,77.63,29.22,77.63s21.866,9.81,21.866,21.866
	S41.277,121.362,29.22,121.362z M29.22,79.622c-10.958,0-19.874,8.915-19.874,19.874s8.916,19.874,19.874,19.874
	s19.874-8.915,19.874-19.874S40.179,79.622,29.22,79.622z"/>
<path fill="#231F20" d="M189.833,128.717c-16.111,0-29.219-13.108-29.219-29.221s13.107-29.22,29.219-29.22
	c16.112,0,29.221,13.107,29.221,29.22S205.945,128.717,189.833,128.717z M189.833,75.589c-13.182,0-23.906,10.725-23.906,23.907
	s10.725,23.908,23.906,23.908c13.183,0,23.908-10.726,23.908-23.908S203.016,75.589,189.833,75.589z"/>
<circle fill="#231F20" cx="189.834" cy="99.496" r="7.276"/>
<path fill="#231F20" d="M189.833,121.362c-12.057,0-21.865-9.81-21.865-21.866s9.809-21.866,21.865-21.866
	c12.058,0,21.867,9.81,21.867,21.866S201.891,121.362,189.833,121.362z M189.833,79.622c-10.958,0-19.873,8.915-19.873,19.874
	s8.915,19.874,19.873,19.874c10.959,0,19.875-8.915,19.875-19.874S200.792,79.622,189.833,79.622z"/>
<path fill="#603813" d="M84.509,95.104c-3.411,0-7.229-0.133-11.015-0.531c-6.433-0.677-10.594-5.82-14.999-11.265
	c-4.275-5.283-9.121-11.272-16.877-14.313C18.233,59.827,6.912,73.369,6.8,73.508c-0.923,1.141-2.597,1.315-3.736,0.393
	c-1.14-0.923-1.316-2.596-0.393-3.736c0.556-0.687,13.917-16.688,40.887-6.114c9.063,3.553,14.61,10.408,19.068,15.917
	c4.012,4.959,7.182,8.876,11.425,9.323c10.554,1.11,21.807,0.01,21.919-0.002c1.453-0.135,2.762,0.919,2.908,2.378
	c0.146,1.46-0.918,2.762-2.377,2.908C96.185,94.606,91.113,95.104,84.509,95.104z"/>
<rect x="132.356" y="51.725" fill="#3B2314" width="94.59" height="18.137"/>
<path fill="#C3996B" d="M50.818,50.729H21.612V40.247c0-0.184,0.148-0.332,0.332-0.332s0.332,0.148,0.332,0.332v9.817h27.878v-9.817
	c0-0.184,0.148-0.332,0.332-0.332s0.332,0.148,0.332,0.332V50.729z"/>
<path fill="#C3996B" d="M223.688,67.231h-87.982V54.095h87.982V67.231z M136.37,66.567h86.654V54.759H136.37V66.567z"/>
<path fill="#C3996B" d="M126.132,84.729H90.994V65.302l0.271-0.051c0.236-0.045,23.637-4.737,23.637-31.414
	c0-7.695-2.047-18.189-11.802-24.481C97.261,5.59,91.36,5.112,91.301,5.107l-0.307-0.023V2.643h35.138V84.729z M91.658,84.064h33.81
	V3.307h-33.81v1.171c2.816,0.343,23.908,3.779,23.908,29.359c0,25.661-21.245,31.392-23.908,32.007V84.064z"/>
<path fill="#3B2314" d="M159.618,82.925c-0.488,0-0.98-0.153-1.4-0.471c-1.023-0.773-1.226-2.231-0.451-3.256l7.488-9.902
	c0.438-0.58,1.125-0.922,1.854-0.922h43.684c0.65,0,1.271,0.272,1.712,0.752l9.094,9.902c0.868,0.945,0.806,2.416-0.14,3.284
	c-0.947,0.869-2.418,0.805-3.284-0.14l-8.403-9.15h-41.506l-6.791,8.98C161.017,82.606,160.322,82.925,159.618,82.925z"/>
<path fill="#231F20" d="M82.106,50.637l-4.995-14.804c-0.235-0.695-0.986-1.07-1.683-0.833c-0.695,0.234-1.068,0.988-0.833,1.683
	l2.203,6.528l-11.654,3.908L67.437,40H61v14h1.789l1.576-4.593l13.07-4.416l2.156,6.442c0.187,0.554,0.704,0.93,1.258,0.93
	c0.141,0,0.284-0.009,0.425-0.057C81.968,52.072,82.341,51.332,82.106,50.637z"/>
<rect x="164.269" y="5.368" fill="#9A8479" width="32.969" height="46.356"/>
<rect x="199.913" y="26.158" fill="#C1B49A" width="23.443" height="25.567"/>
<rect x="136.038" y="26.158" fill="#9A8479" width="23.441" height="25.567"/>
<rect x="143.503" y="11.8" fill="#9A8479" width="15.977" height="12.784"/>
</svg>
