<?xml version="1.0" encoding="utf-8"?>
<!-- Generator: Adobe Illustrator 18.1.0, SVG Export Plug-In . SVG Version: 6.00 Build 0)  -->
<svg version="1.1" id="cart" xmlns="http://www.w3.org/2000/svg" xmlns:xlink="http://www.w3.org/1999/xlink" x="0px" y="0px"
	 width="44px" height="34px" viewBox="0 0 44 34" enable-background="new 0 0 44 34" xml:space="preserve">
<path d="M34.2,33.5c2,0,3.7-1.7,3.7-3.7c0-2.1-1.7-3.7-3.7-3.7c-2,0-3.7,1.7-3.7,3.7S32.2,33.5,34.2,33.5"/>
<path d="M13.8,33.5c2,0,3.7-1.7,3.7-3.7c0-2.1-1.7-3.7-3.7-3.7c-2,0-3.7,1.7-3.7,3.7S11.8,33.5,13.8,33.5"/>
<path d="M13.8,28h20.4c0.5,0,0.9-0.4,0.9-0.9s-0.4-0.9-0.9-0.9H14.6L8.8,1.2C8.7,0.8,8.3,0.5,7.9,0.5H1.4c-0.5,0-0.9,0.4-0.9,0.9
	c0,0.5,0.4,0.9,0.9,0.9h5.8l5.7,24.9C13,27.7,13.4,28,13.8,28z"/>
<path d="M12.9,24.2H37c0.4,0,0.8-0.3,0.9-0.6l5.6-16.8c0.1-0.3,0-0.6-0.1-0.8c-0.2-0.2-0.5-0.4-0.8-0.4H9.2C8.7,5.6,8.3,6,8.3,6.6
	c0,0.5,0.4,0.9,0.9,0.9h32.1l-4.9,14.9H12.9c-0.5,0-0.9,0.4-0.9,0.9C12,23.8,12.4,24.2,12.9,24.2z"/>
</svg>