<?xml version="1.0" encoding="utf-8"?>
<!-- Generator: Adobe Illustrator 18.1.0, SVG Export Plug-In . SVG Version: 6.00 Build 0)  -->
<svg version="1.1" id="zoom" xmlns="http://www.w3.org/2000/svg" xmlns:xlink="http://www.w3.org/1999/xlink" x="0px" y="0px"
	 width="71px" height="70px" viewBox="0 0 71 70" enable-background="new 0 0 71 70" xml:space="preserve">
<path d="M55.1,31.4H44.4v10.8h-3.6V31.4H30.2v-3.6h10.7V17h3.6v10.8h10.7V31.4z"/>
<path d="M42.5,57.6c-15.7,0-28.5-12.9-28.5-28.8C14.1,12.9,26.8,0,42.5,0S71,12.9,71,28.8C71,44.6,58.2,57.6,42.5,57.6z M42.5,3.6
	c-13.7,0-24.9,11.3-24.9,25.2C17.6,42.7,28.8,54,42.5,54s24.9-11.3,24.9-25.2C67.4,14.9,56.3,3.6,42.5,3.6z M20.1,54.7l-5-5.1
	L0,64.9L5,70L20.1,54.7z"/>
</svg>
