<?xml version="1.0" encoding="utf-8"?>
<!-- Generator: Adobe Illustrator 19.2.1, SVG Export Plug-In . SVG Version: 6.00 Build 0)  -->
<svg version="1.1" id="Layer_1" xmlns="http://www.w3.org/2000/svg" xmlns:xlink="http://www.w3.org/1999/xlink" x="0px" y="0px"
	 width="75px" height="75px" viewBox="-909.5 590.5 75 75" enable-background="new -909.5 590.5 75 75" xml:space="preserve">
<linearGradient id="SVGID_1_" gradientUnits="userSpaceOnUse" x1="-872" y1="590.5" x2="-872" y2="665.5">
	<stop  offset="0" style="stop-color:#FFFFFF"/>
	<stop  offset="1" style="stop-color:#D7D7D7"/>
</linearGradient>
<path fill="url(#SVGID_1_)" d="M-885.4,631.3c1.9,0,3.7,0,5.6,0c0-8.1,0-16.2,0-24.3c0-0.8,0.7-1.5,1.5-1.5c4.2,0,8.3,0,12.4,0
	c0.8,0,1.5,0.7,1.5,1.5c0,8.1,0,16.2,0,24.3c1.9,0,3.7,0,5.6,0c1.4,0,1.9,1.6,1.1,2.6c-4.5,5.4-8.9,10.7-13.4,16.1
	c-0.3,0.4-0.7,0.5-1.1,0.5c-0.4,0-0.8-0.1-1.1-0.5c-4.5-5.4-8.9-10.7-13.4-16.1C-887.3,632.9-886.8,631.3-885.4,631.3z M-909.5,628
	c0-20.7,16.8-37.5,37.5-37.5s37.5,16.8,37.5,37.5s-16.8,37.5-37.5,37.5S-909.5,648.7-909.5,628z M-903.5,628
	c0,17.4,14.1,31.5,31.5,31.5s31.5-14.1,31.5-31.5s-14.1-31.5-31.5-31.5S-903.5,610.6-903.5,628z"/>
</svg>
