<?xml version="1.0" encoding="utf-8"?>
<!-- Generator: Adobe Illustrator 18.1.0, SVG Export Plug-In . SVG Version: 6.00 Build 0)  -->
<svg version="1.1" xmlns="http://www.w3.org/2000/svg" xmlns:xlink="http://www.w3.org/1999/xlink" x="0px" y="0px" width="70px"
	 height="70px" viewBox="0 0 70 70" enable-background="new 0 0 70 70" xml:space="preserve">
<g id="body-spray">
	<path display="inline" d="M12.4,34.7c0-0.1,0-0.1,0-0.2c0-0.1-0.1-0.2-0.1-0.2c0-0.2-0.1-0.3-0.1-0.5c0-0.1,0-0.2,0-0.2l0,0
		c0,0-0.1-0.1-0.1-0.1c0,0,0-0.1-0.1-0.1c-0.1-0.1-0.1-0.3-0.2-0.4c-0.1-0.1-0.2-0.2-0.3-0.4c-0.1-0.1-0.1-0.2-0.2-0.2
		c-0.1-0.1-0.1-0.1-0.2-0.1c-0.1-0.1-0.2-0.2-0.4-0.3c-0.1-0.1-0.3-0.2-0.4-0.2c0,0,0,0,0,0c-0.1,0-0.1-0.1-0.2-0.1c0,0-0.1,0-0.1,0
		c0,0-0.1,0-0.1,0c-0.1,0-0.3-0.1-0.4-0.1c-0.1,0-0.2-0.1-0.3-0.1c-0.1,0-0.1,0-0.2,0c-0.1,0-0.2,0-0.3,0c-0.1,0-0.2,0-0.3,0
		c-0.1,0-0.1,0-0.2,0c-0.1,0-0.1,0.1-0.2,0.1c-0.2,0-0.3,0.1-0.5,0.1c-0.1,0-0.1,0-0.2,0h0c-0.1,0-0.2,0.1-0.2,0.2
		c-0.1,0.1-0.3,0.1-0.4,0.2c-0.1,0.1-0.3,0.2-0.4,0.3c-0.1,0.1-0.1,0.1-0.2,0.2C6,32.4,6,32.5,6,32.6c-0.1,0.1-0.2,0.2-0.3,0.4
		c-0.1,0.1-0.2,0.3-0.2,0.4c0,0.1-0.1,0.1-0.1,0.2c0,0,0,0.1,0,0.1c0,0,0,0,0,0.1c0,0.2-0.1,0.3-0.1,0.5c0,0.1-0.1,0.1-0.1,0.2
		c0,0.1,0,0.1,0,0.2c0,0.1,0,0.2,0,0.3c0,0.1,0,0.2,0,0.3c0,0.1,0,0.1,0,0.2c0,0.1,0.1,0.1,0.1,0.2c0,0.2,0.1,0.3,0.1,0.5
		c0,0.1,0,0.2,0,0.2c0,0.1,0.1,0.1,0.2,0.2c0.1,0.1,0.1,0.3,0.2,0.4c0.1,0.1,0.2,0.3,0.3,0.4C6,37.5,6,37.6,6.1,37.7
		c0.1,0.1,0.1,0.1,0.2,0.2c0.1,0.1,0.2,0.2,0.4,0.3c0.1,0.1,0.3,0.2,0.4,0.2c0,0,0.1,0,0.1,0.1c0,0,0.1,0.1,0.1,0.1
		c0.1,0,0.2,0,0.2,0c0.2,0,0.3,0.1,0.5,0.1c0.1,0,0.2,0.1,0.3,0.1c0.1,0,0.2,0,0.2,0c0.1,0,0.2,0,0.2,0c0.1,0,0.2,0,0.3,0
		c0.1,0,0.1,0,0.2,0c0.1,0,0.2-0.1,0.2-0.1c0.2,0,0.3-0.1,0.5-0.1c0.2-0.1,0.3-0.1,0.5-0.2c0.1-0.1,0.3-0.1,0.4-0.2
		c0.1-0.1,0.2-0.2,0.4-0.3c0.1-0.1,0.2-0.1,0.2-0.2c0.1-0.1,0.1-0.1,0.1-0.2c0.1-0.1,0.2-0.2,0.3-0.4c0.1-0.1,0.2-0.3,0.2-0.4
		c0-0.1,0.1-0.1,0.1-0.2c0-0.1,0-0.2,0-0.2c0-0.2,0.1-0.3,0.1-0.5c0-0.1,0.1-0.2,0.1-0.2c0-0.1,0-0.1,0-0.2c0-0.1,0-0.2,0-0.3
		C12.5,34.9,12.4,34.8,12.4,34.7z"/>
	<path display="inline" d="M22.2,39.2c0,4.5-6.8,4.5-6.8,0C15.4,34.7,22.2,34.7,22.2,39.2"/>
	<path display="inline" d="M31.9,43.3c0,4.1-6.1,4.1-6.1,0C25.8,39.3,31.9,39.3,31.9,43.3"/>
	<path display="inline" d="M41.7,47.5c0,3.7-5.5,3.7-5.5,0C36.2,43.9,41.7,43.9,41.7,47.5"/>
	<path display="inline" d="M50,49.4c-1.3-0.5-2.7,0.1-3.2,1.3c-0.5,1.2,0.1,2.7,1.3,3.2c1.3,0.5,2.7-0.1,3.2-1.3
		C51.8,51.4,51.2,49.9,50,49.4z"/>
	<path display="inline" d="M61.3,55.9c0,3-4.4,3-4.4,0C56.9,52.9,61.3,52.9,61.3,55.9"/>
	<path display="inline" d="M33.4,35c0,4.1-6.1,4.1-6.1,0C27.3,30.9,33.4,30.9,33.4,35"/>
	<path display="inline" d="M41.5,36.6c-1.5-0.2-2.9,0.9-3.1,2.4c-0.2,1.5,0.9,2.9,2.4,3.1c1.5,0.2,2.9-0.9,3.1-2.3
		C44.1,38.1,43,36.7,41.5,36.6z"/>
	<path display="inline" d="M52.3,38.3c-1.3-0.2-2.6,0.8-2.8,2.1c-0.2,1.3,0.8,2.6,2.1,2.8c1.4,0.2,2.6-0.8,2.8-2.1
		C54.6,39.7,53.6,38.4,52.3,38.3z"/>
	<path display="inline" d="M63.1,39.9c-1.2-0.2-2.3,0.7-2.5,1.9c-0.2,1.2,0.7,2.3,1.9,2.5c1.2,0.2,2.3-0.7,2.5-1.9
		C65.1,41.2,64.3,40.1,63.1,39.9z"/>
	<path display="inline" d="M40.8,28c-1.5,0.2-2.6,1.6-2.4,3.1c0.2,1.5,1.6,2.6,3.1,2.4c1.5-0.2,2.5-1.6,2.3-3.1
		C43.7,28.9,42.3,27.8,40.8,28z"/>
	<path display="inline" d="M51.6,26.9c-1.3,0.2-2.3,1.4-2.1,2.8c0.2,1.3,1.4,2.3,2.8,2.1c1.3-0.2,2.3-1.4,2.1-2.8
		C54.2,27.6,53,26.7,51.6,26.9z"/>
	<path display="inline" d="M62.5,25.7c-1.2,0.2-2.1,1.3-1.9,2.5c0.2,1.2,1.3,2.1,2.5,1.9c1.2-0.2,2.1-1.3,1.9-2.5
		C64.8,26.4,63.7,25.5,62.5,25.7z"/>
	<path display="inline" d="M17.5,27.7c-1.7,0.7-2.5,2.7-1.8,4.4c0.7,1.7,2.7,2.5,4.4,1.8c1.7-0.7,2.5-2.7,1.8-4.4
		C21.2,27.8,19.2,27,17.5,27.7z"/>
	<path display="inline" d="M31.9,26.6c0,4.1-6.1,4.1-6.1,0C25.8,22.6,31.9,22.6,31.9,26.6"/>
	<path display="inline" d="M41.7,22.5c0,3.7-5.5,3.7-5.5,0C36.2,18.8,41.7,18.8,41.7,22.5"/>
	<path display="inline" d="M50,20.6c1.3-0.5,1.8-2,1.3-3.2c-0.5-1.3-2-1.9-3.2-1.3c-1.3,0.5-1.9,2-1.3,3.2
		C47.3,20.5,48.7,21.1,50,20.6z"/>
	<path display="inline" d="M59.9,16.2c1.1-0.5,1.7-1.8,1.2-2.9c-0.5-1.1-1.8-1.7-2.9-1.2c-1.1,0.5-1.7,1.8-1.2,2.9
		C57.5,16.1,58.8,16.7,59.9,16.2z"/>
</g>
</svg>