<?xml version="1.0" encoding="utf-8"?>
<!-- Generator: Adobe Illustrator 18.1.0, SVG Export Plug-In . SVG Version: 6.00 Build 0)  -->
<svg version="1.1" xmlns="http://www.w3.org/2000/svg" xmlns:xlink="http://www.w3.org/1999/xlink" x="0px" y="0px" width="70px"
	 height="70px" viewBox="0 0 70 70" enable-background="new 0 0 70 70" xml:space="preserve">
<g id="colour">
	<path d="M52.4,40.4l-4.7-5.8L44,37.4l7.7,3.6L52.4,40.4z M35,18.6l-4.7-5.8l-10.3,8l4.7,5.8L35,18.6z M47.7,42.3l0.4-0.7l-6.7-3.2
		l-1.9,3.9H47.7z M46.6,33.1l-4.7-5.8l-7.5,5.8l7.7,3.6L46.6,33.1z M25.8,28.1l1.3,1.5l5.6,2.6l8.2-6.4L36.3,20L25.8,28.1z
		 M28.5,57.2h7.5V44.2h-7.5V57.2z M32.8,34.4L29,42.3h8.2l2.2-4.7L32.8,34.4z M37.8,57.2h7.5V44.2h-7.5V57.2z M22.5,29.6l-6.7-3.2
		l-5.6,11.8l6.7,3.2L22.5,29.6z M47.1,44.2v13.1h13.1V44.2L47.1,44.2z M53.7,53.5c-1.5,0-2.8-1.3-2.8-2.8c0-1.5,1.3-2.8,2.8-2.8
		c1.5,0,2.8,1.3,2.8,2.8C56.5,52.4,55.2,53.5,53.7,53.5z M9.8,57.2h7.5V44.2H9.8V57.2z M24.2,30.3l-5.6,11.8l0.4,0.2h7.9l4.1-8.8
		L24.2,30.3z M19.1,57.2h7.5V44.2h-7.5V57.2z"/>
</g>
</svg>