<?xml version="1.0" encoding="utf-8"?>
<!-- Generator: Adobe Illustrator 18.1.0, SVG Export Plug-In . SVG Version: 6.00 Build 0)  -->
<svg version="1.1" xmlns="http://www.w3.org/2000/svg" xmlns:xlink="http://www.w3.org/1999/xlink" x="0px" y="0px" width="70px"
	 height="70px" viewBox="0 0 70 70" enable-background="new 0 0 70 70" xml:space="preserve">
<g id="intense-rain">
	<path d="M11.5,67.5C10.1,67.5,9,66.4,9,65V5c0-1.4,1.1-2.5,2.5-2.5S14,3.6,14,5v60C14,66.4,12.9,67.5,11.5,67.5z"/>
	<path d="M18.2,67.5c-1.4,0-2.5-1.1-2.5-2.5V5c0-1.4,1.1-2.5,2.5-2.5s2.5,1.1,2.5,2.5v60
		C20.7,66.4,19.6,67.5,18.2,67.5z"/>
	<path d="M24.9,67.5c-1.4,0-2.5-1.1-2.5-2.5V5c0-1.4,1.1-2.5,2.5-2.5s2.5,1.1,2.5,2.5v60
		C27.4,66.4,26.3,67.5,24.9,67.5z"/>
	<path d="M31.6,67.5c-1.4,0-2.5-1.1-2.5-2.5V5c0-1.4,1.1-2.5,2.5-2.5s2.5,1.1,2.5,2.5v60
		C34.1,66.4,33,67.5,31.6,67.5z"/>
	<path d="M38.4,67.5c-1.4,0-2.5-1.1-2.5-2.5V5c0-1.4,1.1-2.5,2.5-2.5s2.5,1.1,2.5,2.5v60
		C40.9,66.4,39.7,67.5,38.4,67.5z"/>
	<path d="M45.1,67.5c-1.4,0-2.5-1.1-2.5-2.5V5c0-1.4,1.1-2.5,2.5-2.5s2.5,1.1,2.5,2.5v60
		C47.6,66.4,46.4,67.5,45.1,67.5z"/>
	<path d="M51.8,67.5c-1.4,0-2.5-1.1-2.5-2.5V5c0-1.4,1.1-2.5,2.5-2.5s2.5,1.1,2.5,2.5v60
		C54.3,66.4,53.1,67.5,51.8,67.5z"/>
	<path d="M58.5,67.5c-1.4,0-2.5-1.1-2.5-2.5V5c0-1.4,1.1-2.5,2.5-2.5S61,3.6,61,5v60C61,66.4,59.9,67.5,58.5,67.5z"
		/>
</g>
</svg>