<?xml version="1.0" encoding="utf-8"?>
<!-- Generator: Adobe Illustrator 18.1.0, SVG Export Plug-In . SVG Version: 6.00 Build 0)  -->
<svg version="1.1" xmlns="http://www.w3.org/2000/svg" xmlns:xlink="http://www.w3.org/1999/xlink" x="0px" y="0px" width="70px"
	 height="70px" viewBox="0 0 70 70" enable-background="new 0 0 70 70" xml:space="preserve">
<g id="led">
	<path display="inline" d="M65,42.2V40h-8.7v2.2H65z M61.5,27l-1.1-1.9l-7.6,4.4l1.1,1.9L61.5,27z M50.9,15.7L49,14.6l-4.4,7.6
		l1.9,1.1L50.9,15.7z M36.1,19.8v-8.7h-2.2v8.7L36.1,19.8L36.1,19.8z M25.3,22.1L21,14.6L19,15.7l4.4,7.6L25.3,22.1z M17.1,29.5
		l-7.6-4.4L8.5,27l7.6,4.4L17.1,29.5z M13.7,40H5v2.2h8.7V40z M35,26.5L35,26.5c-8,0-14.6,6.6-14.6,14.6v17.8h29.2V41.1
		C49.6,33.1,43,26.5,35,26.5z M35,29.7c6.3,0,11.4,5.1,11.4,11.4v14.7H23.6V41.1C23.6,34.8,28.7,29.7,35,29.7"/>
</g>
</svg>