<?xml version="1.0" encoding="utf-8"?>
<!-- Generator: Adobe Illustrator 18.1.0, SVG Export Plug-In . SVG Version: 6.00 Build 0)  -->
<svg version="1.1" xmlns="http://www.w3.org/2000/svg" xmlns:xlink="http://www.w3.org/1999/xlink" x="0px" y="0px" width="70px"
	 height="70px" viewBox="0 0 70 70" enable-background="new 0 0 70 70" xml:space="preserve">
<g id="lighting">
	<path d="M35,21.3c-0.9,0-1.5-0.7-1.5-1.5V11c0-0.9,0.7-1.5,1.5-1.5c0.9,0,1.5,0.7,1.5,1.5v8.8C36.5,20.6,35.9,21.3,35,21.3z
		 M36.5,59v-8.8c0-0.9-0.7-1.5-1.5-1.5c-0.9,0-1.5,0.7-1.5,1.5V59c0,0.9,0.7,1.5,1.5,1.5C35.9,60.5,36.5,59.8,36.5,59z M60.5,35
		c0-0.9-0.7-1.5-1.5-1.5h-8.8c-0.9,0-1.5,0.7-1.5,1.5c0,0.9,0.7,1.5,1.5,1.5H59C59.8,36.5,60.5,35.9,60.5,35z M21.3,35
		c0-0.9-0.7-1.5-1.5-1.5H11c-0.9,0-1.5,0.7-1.5,1.5s0.7,1.5,1.5,1.5h8.8C20.6,36.5,21.3,35.9,21.3,35z M53,53c0.6-0.6,0.6-1.6,0-2.2
		l-6.2-6.2c-0.6-0.6-1.6-0.6-2.2,0c-0.6,0.6-0.6,1.6,0,2.2l6.2,6.2c0.3,0.3,0.7,0.5,1.1,0.5S52.7,53.4,53,53z M25.3,25.3
		c0.6-0.6,0.6-1.6,0-2.2L19.1,17c-0.6-0.6-1.6-0.6-2.2,0s-0.6,1.6,0,2.2l6.2,6.2c0.3,0.3,0.7,0.5,1.1,0.5
		C24.6,25.8,25,25.6,25.3,25.3z M19.1,53.1l6.2-6.2c0.6-0.6,0.6-1.6,0-2.2c-0.6-0.6-1.6-0.6-2.2,0L17,50.9c-0.6,0.6-0.6,1.6,0,2.2
		c0.3,0.3,0.7,0.5,1.1,0.5C18.4,53.5,18.8,53.4,19.1,53.1z M46.9,25.3l6.2-6.2c0.6-0.6,0.6-1.6,0-2.2c-0.6-0.6-1.6-0.6-2.2,0
		l-6.2,6.2c-0.6,0.6-0.6,1.6,0,2.2c0.3,0.3,0.7,0.5,1.1,0.5C46.2,25.8,46.5,25.6,46.9,25.3z"/>
	<path d="M35,43.3c-4.6,0-8.3-3.7-8.3-8.3c0-4.6,3.7-8.3,8.3-8.3c4.6,0,8.3,3.7,8.3,8.3C43.3,39.6,39.6,43.3,35,43.3z M35,29.2
		c-3.2,0-5.8,2.6-5.8,5.8c0,3.2,2.6,5.8,5.8,5.8s5.8-2.6,5.8-5.8C40.8,31.8,38.2,29.2,35,29.2z"/>
</g>
</svg>