<?xml version="1.0" encoding="utf-8"?>
<!-- Generator: Adobe Illustrator 18.1.0, SVG Export Plug-In . SVG Version: 6.00 Build 0)  -->
<svg version="1.1" xmlns="http://www.w3.org/2000/svg" xmlns:xlink="http://www.w3.org/1999/xlink" x="0px" y="0px" width="70px"
	 height="70px" viewBox="0 0 70 70" enable-background="new 0 0 70 70" xml:space="preserve">
<g id="play">
	<path d="M35,10c-13.8,0-25,11.2-25,25c0,13.8,11.2,25,25,25c13.8,0,25-11.2,25-25C60,21.2,48.8,10,35,10z M35,56.1
		c-11.7,0-21.1-9.4-21.1-21.1c0-11.6,9.4-21.1,21.1-21.1c11.7,0,21.1,9.4,21.1,21.1C56.1,46.7,46.7,56.1,35,56.1z"/>
	<path d="M28.7,27.2L44.4,35l-15.6,7.8V27.2z"/>
</g>
</svg>