<?xml version="1.0" encoding="utf-8"?>
<!-- Generator: Adobe Illustrator 18.1.0, SVG Export Plug-In . SVG Version: 6.00 Build 0)  -->
<svg version="1.1" xmlns="http://www.w3.org/2000/svg" xmlns:xlink="http://www.w3.org/1999/xlink" x="0px" y="0px" width="70px"
	 height="70px" viewBox="0 0 70 70" enable-background="new 0 0 70 70" xml:space="preserve">
<g id="rejuvenation">
	<path display="inline" d="M55.6,16.2c-4-4-10.5-4-14.5,0c-0.4,0.4-0.8,0.9-1.1,1.3l0,0c-0.1,0.1-0.1,0.2-0.2,0.3c0,0,0,0.1-0.1,0.1
		c-11.6,16.8-0.5,39-0.5,39c-1.5-15.1,11.9-23.2,14.3-24.6c0.1-0.1,0.3-0.1,0.4-0.2c0,0,0,0,0,0h0c0.6-0.4,1.1-0.8,1.6-1.3
		C59.6,26.7,59.6,20.2,55.6,16.2z"/>
	<path display="inline" d="M34.6,19.9c0.1,0,0.1-0.1,0.2-0.1l0,0c0.3-0.2,0.5-0.4,0.8-0.6c1.9-1.8,1.9-4.8,0-6.7c-1.9-1.8-5-1.8-7,0
		c-0.2,0.2-0.4,0.4-0.5,0.6l0,0c0,0-0.1,0.1-0.1,0.1c0,0,0,0,0,0c-5.6,7.7-0.2,18-0.2,18C27,24.3,33.4,20.5,34.6,19.9z"/>
	<path display="inline" d="M22.8,33.4C22.8,33.3,22.8,33.3,22.8,33.4c-0.1-0.1-0.2-0.1-0.2-0.2l0,0c-0.3-0.2-0.7-0.4-1.1-0.6
		c-3.8-1.5-8.1,0.4-9.5,4.1c-1.5,3.8,0.4,8,4.1,9.5c0.5,0.2,0.9,0.3,1.4,0.4v0h0c0.1,0,0.2,0,0.3,0c2,0.2,13.2,1.8,16.5,12.1
		C34.2,58.9,35.3,41.1,22.8,33.4z"/>
</g>
</svg>
