<?xml version="1.0" encoding="utf-8"?>
<!-- Generator: Adobe Illustrator 18.1.0, SVG Export Plug-In . SVG Version: 6.00 Build 0)  -->
<svg version="1.1" xmlns="http://www.w3.org/2000/svg" xmlns:xlink="http://www.w3.org/1999/xlink" x="0px" y="0px" width="70px"
	 height="70px" viewBox="0 0 70 70" enable-background="new 0 0 70 70" xml:space="preserve">
<g id="relaxation">
	<path display="inline" d="M10.9,21.6c0,1.8,0,3.6,0,5.4C27,35.4,43,18.5,59.1,27c0-1.8,0-3.6,0-5.4C43,13.1,27,30.1,10.9,21.6z"/>
	<path display="inline" d="M10.9,37.7c16.1,8.5,32.2-8.5,48.2,0c0-1.8,0-3.6,0-5.4c-16.1-8.5-32.2,8.5-48.2,0
		C10.9,34.1,10.9,35.9,10.9,37.7z"/>
	<path display="inline" d="M10.9,48.4c16.1,8.5,32.2-8.5,48.2,0c0-1.8,0-3.6,0-5.4C43,34.6,27,51.5,10.9,43
		C10.9,44.8,10.9,46.6,10.9,48.4z"/>
</g>
</svg>