<?xml version="1.0" encoding="utf-8"?>
<!-- Generator: Adobe Illustrator 18.1.0, SVG Export Plug-In . SVG Version: 6.00 Build 0)  -->
<svg version="1.1" xmlns="http://www.w3.org/2000/svg" xmlns:xlink="http://www.w3.org/1999/xlink" x="0px" y="0px" width="70px"
	 height="70px" viewBox="0 0 70 70" enable-background="new 0 0 70 70" xml:space="preserve">
<g id="scent">
	<path d="M41.9,61H28c-2.2,0-4-1.8-4-4V25.5c0-0.5,0.4-0.8,0.8-0.8h20.4c0.5,0,0.8,0.4,0.8,0.8v31.5C46,59.2,44.2,61,41.9,61z
		 M25.6,26.3v30.7c0,1.3,1.1,2.4,2.4,2.4h14c1.3,0,2.4-1.1,2.4-2.4V26.3H25.6z M35,24.2c-3,0-5.4-2.5-5.4-5.4c0-2.7,4.3-8.7,4.7-9.4
		C34.4,9.1,34.7,9,34.9,9s0.5,0.1,0.7,0.3c0.5,0.7,4.7,6.7,4.7,9.4C40.4,21.7,37.9,24.2,35,24.2z M35,11.3c-1.7,2.5-3.8,6.1-3.8,7.5
		c0,2.1,1.7,3.8,3.8,3.8s3.8-1.7,3.8-3.8C38.8,17.3,36.6,13.7,35,11.3z"/>
</g>
</svg>