<?xml version="1.0" encoding="utf-8"?>
<!-- Generator: Adobe Illustrator 18.1.0, SVG Export Plug-In . SVG Version: 6.00 Build 0)  -->
<svg version="1.1" xmlns="http://www.w3.org/2000/svg" xmlns:xlink="http://www.w3.org/1999/xlink" x="0px" y="0px" width="70px"
	 height="70px" viewBox="0 0 70 70" enable-background="new 0 0 70 70" xml:space="preserve">
<g id="soft-rain">
	<path d="M18.9,17c-1.4,0-2.5-1.1-2.5-2.5V5c0-1.4,1.1-2.5,2.5-2.5s2.5,1.1,2.5,2.5v9.5C21.4,15.9,20.3,17,18.9,17z"
		/>
	<path d="M18.9,67.5c-1.4,0-2.5-1.1-2.5-2.5v-9.5c0-1.4,1.1-2.5,2.5-2.5s2.5,1.1,2.5,2.5V65
		C21.4,66.4,20.3,67.5,18.9,67.5z"/>
	<path d="M18.9,27.2c-1.4,0-2.5-1.1-2.5-2.5V20c0-1.4,1.1-2.5,2.5-2.5s2.5,1.1,2.5,2.5v4.7
		C21.4,26.1,20.3,27.2,18.9,27.2z"/>
	<path d="M18.9,42.3c-1.4,0-2.5-1.1-2.5-2.5v-9.5c0-1.4,1.1-2.5,2.5-2.5s2.5,1.1,2.5,2.5v9.5
		C21.4,41.2,20.3,42.3,18.9,42.3z"/>
	<path d="M18.9,52.5c-1.4,0-2.5-1.1-2.5-2.5v-4.7c0-1.4,1.1-2.5,2.5-2.5s2.5,1.1,2.5,2.5V50
		C21.4,51.3,20.3,52.5,18.9,52.5z"/>
	<path d="M26.9,52.5c-1.4,0-2.5-1.1-2.5-2.5v-9.5c0-1.4,1.1-2.5,2.5-2.5s2.5,1.1,2.5,2.5V50
		C29.4,51.3,28.3,52.5,26.9,52.5z"/>
	<path d="M26.9,12.2c-1.4,0-2.5-1.1-2.5-2.5V5c0-1.4,1.1-2.5,2.5-2.5s2.5,1.1,2.5,2.5v4.7
		C29.4,11.1,28.3,12.2,26.9,12.2z"/>
	<path d="M26.9,27.2c-1.4,0-2.5-1.1-2.5-2.5v-9.5c0-1.4,1.1-2.5,2.5-2.5s2.5,1.1,2.5,2.5v9.5
		C29.4,26.1,28.3,27.2,26.9,27.2z"/>
	<path d="M26.9,37.4c-1.4,0-2.5-1.1-2.5-2.5v-4.7c0-1.4,1.1-2.5,2.5-2.5s2.5,1.1,2.5,2.5v4.7
		C29.4,36.3,28.3,37.4,26.9,37.4z"/>
	<path d="M35,17c-1.4,0-2.5-1.1-2.5-2.5V5c0-1.4,1.1-2.5,2.5-2.5s2.5,1.1,2.5,2.5v9.5C37.5,15.9,36.4,17,35,17z"/>
	<path d="M35,67.5c-1.4,0-2.5-1.1-2.5-2.5v-9.5c0-1.4,1.1-2.5,2.5-2.5s2.5,1.1,2.5,2.5V65
		C37.5,66.4,36.4,67.5,35,67.5z"/>
	<path d="M35,27.2c-1.4,0-2.5-1.1-2.5-2.5V20c0-1.4,1.1-2.5,2.5-2.5s2.5,1.1,2.5,2.5v4.7
		C37.5,26.1,36.4,27.2,35,27.2z"/>
	<path d="M35,42.3c-1.4,0-2.5-1.1-2.5-2.5v-9.5c0-1.4,1.1-2.5,2.5-2.5s2.5,1.1,2.5,2.5v9.5
		C37.5,41.2,36.4,42.3,35,42.3z"/>
	<path d="M35,52.5c-1.4,0-2.5-1.1-2.5-2.5v-4.7c0-1.4,1.1-2.5,2.5-2.5s2.5,1.1,2.5,2.5V50
		C37.5,51.3,36.4,52.5,35,52.5z"/>
	<path d="M51.1,17c-1.4,0-2.5-1.1-2.5-2.5V5c0-1.4,1.1-2.5,2.5-2.5s2.5,1.1,2.5,2.5v9.5C53.6,15.9,52.5,17,51.1,17z"
		/>
	<path d="M51.1,67.5c-1.4,0-2.5-1.1-2.5-2.5v-9.5c0-1.4,1.1-2.5,2.5-2.5s2.5,1.1,2.5,2.5V65
		C53.6,66.4,52.5,67.5,51.1,67.5z"/>
	<path d="M51.1,27.2c-1.4,0-2.5-1.1-2.5-2.5V20c0-1.4,1.1-2.5,2.5-2.5s2.5,1.1,2.5,2.5v4.7
		C53.6,26.1,52.5,27.2,51.1,27.2z"/>
	<path d="M51.1,42.3c-1.4,0-2.5-1.1-2.5-2.5v-9.5c0-1.4,1.1-2.5,2.5-2.5s2.5,1.1,2.5,2.5v9.5
		C53.6,41.2,52.5,42.3,51.1,42.3z"/>
	<path d="M51.1,52.5c-1.4,0-2.5-1.1-2.5-2.5v-4.7c0-1.4,1.1-2.5,2.5-2.5s2.5,1.1,2.5,2.5V50
		C53.6,51.3,52.5,52.5,51.1,52.5z"/>
	<path d="M43.1,52.5c-1.4,0-2.5-1.1-2.5-2.5v-9.5c0-1.4,1.1-2.5,2.5-2.5s2.5,1.1,2.5,2.5V50
		C45.6,51.3,44.4,52.5,43.1,52.5z"/>
	<path d="M43.1,12.2c-1.4,0-2.5-1.1-2.5-2.5V5c0-1.4,1.1-2.5,2.5-2.5s2.5,1.1,2.5,2.5v4.7
		C45.6,11.1,44.4,12.2,43.1,12.2z"/>
	<path d="M43.1,27.2c-1.4,0-2.5-1.1-2.5-2.5v-9.5c0-1.4,1.1-2.5,2.5-2.5s2.5,1.1,2.5,2.5v9.5
		C45.6,26.1,44.4,27.2,43.1,27.2z"/>
	<path d="M43.1,37.4c-1.4,0-2.5-1.1-2.5-2.5v-4.7c0-1.4,1.1-2.5,2.5-2.5s2.5,1.1,2.5,2.5v4.7
		C45.6,36.3,44.4,37.4,43.1,37.4z"/>
</g>
</svg>