<?xml version="1.0" encoding="utf-8"?>
<!-- Generator: Adobe Illustrator 18.1.0, SVG Export Plug-In . SVG Version: 6.00 Build 0)  -->
<svg version="1.1" xmlns="http://www.w3.org/2000/svg" xmlns:xlink="http://www.w3.org/1999/xlink" x="0px" y="0px" width="70px"
	 height="70px" viewBox="0 0 70 70" enable-background="new 0 0 70 70" xml:space="preserve">
<g id="therapeutic">
	<path d="M26.1,16.4c-1.4,0-2.5-1.1-2.5-2.5V5c0-1.4,1.1-2.5,2.5-2.5s2.5,1.1,2.5,2.5v8.9
		C28.6,15.3,27.5,16.4,26.1,16.4z"/>
	<path d="M26.1,42c-1.4,0-2.5-1.1-2.5-2.5V21.4c0-1.4,1.1-2.5,2.5-2.5s2.5,1.1,2.5,2.5v18.1
		C28.6,40.8,27.5,42,26.1,42z"/>
	<path d="M26.1,58.3c-1.4,0-2.5-1.1-2.5-2.5v-8.9c0-1.4,1.1-2.5,2.5-2.5s2.5,1.1,2.5,2.5v8.9
		C28.6,57.2,27.5,58.3,26.1,58.3z"/>
	<path d="M35,25.6c-1.4,0-2.5-1.1-2.5-2.5V5c0-1.4,1.1-2.5,2.5-2.5s2.5,1.1,2.5,2.5v18.1
		C37.5,24.5,36.4,25.6,35,25.6z"/>
	<path d="M35,42c-1.4,0-2.5-1.1-2.5-2.5v-8.9c0-1.4,1.1-2.5,2.5-2.5s2.5,1.1,2.5,2.5v8.9C37.5,40.8,36.4,42,35,42z"
		/>
	<path d="M35,67.5c-1.4,0-2.5-1.1-2.5-2.5V46.9c0-1.4,1.1-2.5,2.5-2.5s2.5,1.1,2.5,2.5V65
		C37.5,66.4,36.4,67.5,35,67.5z"/>
	<path d="M43.9,16.4c-1.4,0-2.5-1.1-2.5-2.5V5c0-1.4,1.1-2.5,2.5-2.5s2.5,1.1,2.5,2.5v8.9
		C46.4,15.3,45.2,16.4,43.9,16.4z"/>
	<path d="M43.9,42c-1.4,0-2.5-1.1-2.5-2.5V21.4c0-1.4,1.1-2.5,2.5-2.5s2.5,1.1,2.5,2.5v18.1
		C46.4,40.8,45.2,42,43.9,42z"/>
	<path d="M43.9,58.3c-1.4,0-2.5-1.1-2.5-2.5v-8.9c0-1.4,1.1-2.5,2.5-2.5s2.5,1.1,2.5,2.5v8.9
		C46.4,57.2,45.2,58.3,43.9,58.3z"/>
</g>
</svg>