<?xml version="1.0" encoding="utf-8"?>
<!-- Generator: Adobe Illustrator 18.1.0, SVG Export Plug-In . SVG Version: 6.00 Build 0)  -->
<svg version="1.1" xmlns="http://www.w3.org/2000/svg" xmlns:xlink="http://www.w3.org/1999/xlink" x="0px" y="0px" width="70px"
	 height="70px" viewBox="0 0 70 70" enable-background="new 0 0 70 70" xml:space="preserve">
<g id="turbine">
	<path d="M26.2,13.3c-0.1,0.1,2.2-0.4,5.2,2.8c2.8,2.9,6.3,9.5,4,18.3C34.4,28.2,32.6,21.6,26.2,13.3z"/>
	<path d="M43.9,56.6c0.1-0.1-2.2,0.4-5.2-2.8c-2.8-2.9-6.3-9.5-4-18.3C35.7,41.8,37.5,48.4,43.9,56.6z"/>
	<path d="M56.7,26.1c-0.1-0.1,0.4,2.2-2.8,5.2c-2.9,2.8-9.5,6.3-18.3,4C41.8,34.3,48.4,32.5,56.7,26.1z"/>
	<path d="M13.3,43.9c0.1,0.1-0.4-2.2,2.8-5.2c2.9-2.8,9.5-6.3,18.3-4C28.2,35.6,21.6,37.5,13.3,43.9z"/>
	<path d="M43.6,13c-0.1,0,2.1,1.9,2,6.2c0,4.1-2.2,10.6-10,15.6C39.3,29.6,42.6,23.8,43.6,13z"/>
	<path d="M26.4,57c0.1,0-2.1-1.9-2-6.2c0-4.1,2.2-10.6,10-15.6C30.8,40.4,27.4,46.2,26.4,57z"/>
	<path d="M57,43.6c0-0.1-1.9,2.1-6.2,2c-4.1,0-10.6-2.2-15.6-10C40.4,39.2,46.2,42.6,57,43.6z"/>
	<path d="M13,26.4c0,0.1,1.9-2.1,6.2-2c4.1,0,10.6,2.2,15.6,10C29.6,30.7,23.8,27.4,13,26.4z"/>
	<path d="M35,67C17.4,67,3,52.6,3,35C3,17.4,17.4,3,35,3s32,14.4,32,32C67,52.6,52.6,67,35,67z M35,7
		C19.6,7,7,19.6,7,35s12.6,28,28,28s28-12.6,28-28S50.4,7,35,7z M34.9,40.9c-3.4,0-6.1-2.7-6.1-6.1c0-3.4,2.7-6.1,6.1-6.1
		s6.1,2.7,6.1,6.1C41,38.2,38.3,40.9,34.9,40.9z M34.9,32.8c-1.2,0-2.1,0.9-2.1,2.1c0,1.2,0.9,2.1,2.1,2.1S37,36,37,34.8
		C37,33.7,36.1,32.8,34.9,32.8z"/>
</g>
</svg>