<?xml version="1.0" encoding="utf-8"?>
<!-- Generator: Adobe Illustrator 18.1.0, SVG Export Plug-In . SVG Version: 6.00 Build 0)  -->
<svg version="1.1" xmlns="http://www.w3.org/2000/svg" xmlns:xlink="http://www.w3.org/1999/xlink" x="0px" y="0px" width="70px"
	 height="70px" viewBox="0 0 70 70" enable-background="new 0 0 70 70" xml:space="preserve">
<g id="wave">
	<path d="M58.6,23.8c-1.5,2.2-4,2.2-5.6,0c-2.3-3.2-6-3.2-8.3,0h0c-1.5,2.2-4,2.2-5.6,0c-2.3-3.2-6-3.2-8.3,0c-1.5,2.2-4,2.2-5.6,0
		c-2.3-3.2-6-3.2-8.3,0c-1.5,2.2-4,2.2-5.6,0l-1.4,2c1.1,1.6,2.7,2.4,4.2,2.4c1.5,0,3-0.8,4.2-2.4c1.5-2.2,4-2.2,5.6,0
		c1.1,1.6,2.7,2.4,4.2,2.4c1.5,0,3-0.8,4.2-2.4c1.5-2.2,4-2.2,5.6,0c1.1,1.6,2.7,2.4,4.2,2.4c1.5,0,3-0.8,4.2-2.4
		c1.5-2.2,4-2.2,5.6,0c1.1,1.6,2.7,2.4,4.2,2.4c1.5,0,3-0.8,4.2-2.4L58.6,23.8z"/>
	<path d="M58.6,34c-1.5,2.2-4,2.2-5.6,0c-2.3-3.2-6-3.2-8.3,0h0c-1.5,2.2-4,2.2-5.6,0c-2.3-3.2-6-3.2-8.3,0c-1.5,2.2-4,2.2-5.6,0
		c-2.3-3.2-6-3.2-8.3,0c-1.5,2.2-4,2.2-5.6,0L10,36c1.1,1.6,2.7,2.4,4.2,2.4c1.5,0,3-0.8,4.2-2.4c1.5-2.2,4-2.2,5.6,0
		c1.1,1.6,2.7,2.4,4.2,2.4c1.5,0,3-0.8,4.2-2.4c1.5-2.2,4-2.2,5.6,0c1.1,1.6,2.7,2.4,4.2,2.4c1.5,0,3-0.8,4.2-2.4
		c1.5-2.2,4-2.2,5.6,0c1.1,1.6,2.7,2.4,4.2,2.4c1.5,0,3-0.8,4.2-2.4L58.6,34z"/>
	<path d="M58.6,44.2c-1.5,2.2-4,2.2-5.6,0c-2.3-3.2-6-3.2-8.3,0h0c-1.5,2.2-4,2.2-5.6,0c-2.3-3.2-6-3.2-8.3,0c-1.5,2.2-4,2.2-5.6,0
		c-2.3-3.2-6-3.2-8.3,0c-1.5,2.2-4,2.2-5.6,0l-1.4,2c1.1,1.6,2.7,2.4,4.2,2.4c1.5,0,3-0.8,4.2-2.4c1.5-2.2,4-2.2,5.6,0
		c1.1,1.6,2.7,2.4,4.2,2.4c1.5,0,3-0.8,4.2-2.4c1.5-2.2,4-2.2,5.6,0c1.1,1.6,2.7,2.4,4.2,2.4c1.5,0,3-0.8,4.2-2.4
		c1.5-2.2,4-2.2,5.6,0c1.1,1.6,2.7,2.4,4.2,2.4c1.5,0,3-0.8,4.2-2.4L58.6,44.2z"/>
</g>
</svg>