<?xml version="1.0" encoding="utf-8"?>
<!-- Generator: Adobe Illustrator 19.2.1, SVG Export Plug-In . SVG Version: 6.00 Build 0)  -->
<svg version="1.1" id="Layer_1" xmlns="http://www.w3.org/2000/svg" xmlns:xlink="http://www.w3.org/1999/xlink" x="0px" y="0px"
	 width="75px" height="75px" viewBox="-909.5 590.5 75 75" enable-background="new -909.5 590.5 75 75" xml:space="preserve">
<linearGradient id="SVGID_1_" gradientUnits="userSpaceOnUse" x1="-872" y1="590.5" x2="-872" y2="665.5">
	<stop  offset="0" style="stop-color:#FFFFFF"/>
	<stop  offset="1" style="stop-color:#D7D7D7"/>
</linearGradient>
<path fill="url(#SVGID_1_)" d="M-872,590.5c-20.7,0-37.5,16.8-37.5,37.5s16.8,37.5,37.5,37.5s37.5-16.8,37.5-37.5
	S-851.3,590.5-872,590.5z M-872,659.1c-17.2,0-31.1-13.9-31.1-31.1c0-17.2,13.9-31.1,31.1-31.1c17.2,0,31.1,13.9,31.1,31.1
	C-840.9,645.2-854.8,659.1-872,659.1z M-857.3,628.1c0.7,0.7,0.7,1.7,0,2.4l-22.2,12.3c-0.7,0.7-2.4,0.7-2.4,0v-27.1
	c0-0.7,1.7-0.7,2.4,0L-857.3,628.1z"/>
</svg>
