<?xml version="1.0" encoding="utf-8"?>
<!-- Generator: Adobe Illustrator 19.2.1, SVG Export Plug-In . SVG Version: 6.00 Build 0)  -->
<svg version="1.1" id="Layer_1" xmlns="http://www.w3.org/2000/svg" xmlns:xlink="http://www.w3.org/1999/xlink" x="0px" y="0px"
	 width="75px" height="75px" viewBox="-909.5 590.5 75 75" enable-background="new -909.5 590.5 75 75" xml:space="preserve">
<linearGradient id="SVGID_1_" gradientUnits="userSpaceOnUse" x1="-872" y1="592.0043" x2="-872" y2="665.1684">
	<stop  offset="0" style="stop-color:#FFFFFF"/>
	<stop  offset="1" style="stop-color:#D7D7D7"/>
</linearGradient>
<path fill="url(#SVGID_1_)" d="M-872,590.5c-20.7,0-37.5,16.8-37.5,37.5c0,20.7,16.8,37.5,37.5,37.5c20.7,0,37.5-16.8,37.5-37.5
	C-834.5,607.3-851.3,590.5-872,590.5z M-872,659.1c-17.2,0-31.1-13.9-31.1-31.1c0-17.2,13.9-31.1,31.1-31.1
	c17.2,0,31.1,13.9,31.1,31.1C-840.9,645.2-854.8,659.1-872,659.1z M-855.6,609.6h-32.7c-2.2,0-3.9,1.7-3.9,3.9v29.1
	c0,2.2,1.7,3.9,3.9,3.9h32.7c2.2,0,3.9-1.7,3.9-3.9v-29.1C-851.8,611.3-853.5,609.6-855.6,609.6z M-861.6,613.6c0-0.5,0.4-1,1-1h1
	c0.5,0,1,0.4,1,1v1c0,0.5-0.4,1-1,1h-1c-0.5,0-1-0.4-1-1V613.6z M-865.8,613.6c0-0.5,0.4-1,1-1h1c0.5,0,1,0.4,1,1v1c0,0.5-0.4,1-1,1
	h-1c-0.5,0-1-0.4-1-1V613.6z M-854.6,643.6h-34.9v-25.2h34.9V643.6z M-854.5,614.6c0,0.5-0.4,1-1,1h-1c-0.5,0-1-0.4-1-1v-1
	c0-0.5,0.4-1,1-1h1c0.5,0,1,0.4,1,1V614.6z M-886.5,624.8c0-0.1-0.1-0.2-0.1-0.3c0-0.4,0.3-0.7,0.7-0.7c0.3,0,0.6,0.2,0.7,0.5l1.3,4
	l1.3-4c0.1-0.3,0.4-0.6,0.7-0.6h0.1c0.4,0,0.6,0.2,0.7,0.6l1.3,4l1.3-4c0.1-0.3,0.3-0.5,0.7-0.5c0.4,0,0.7,0.3,0.7,0.7
	c0,0.1,0,0.2-0.1,0.3l-1.8,5.1c-0.1,0.4-0.4,0.6-0.7,0.6h-0.1c-0.3,0-0.6-0.2-0.7-0.6l-1.3-3.7l-1.3,3.7c-0.1,0.4-0.4,0.6-0.7,0.6
	h-0.1c-0.3,0-0.6-0.2-0.7-0.6L-886.5,624.8z M-876.8,624.8c0-0.1-0.1-0.2-0.1-0.3c0-0.4,0.3-0.7,0.7-0.7c0.3,0,0.6,0.2,0.7,0.5
	l1.3,4l1.3-4c0.1-0.3,0.4-0.6,0.7-0.6h0.1c0.4,0,0.6,0.2,0.7,0.6l1.3,4l1.3-4c0.1-0.3,0.3-0.5,0.7-0.5c0.4,0,0.7,0.3,0.7,0.7
	c0,0.1,0,0.2-0.1,0.3l-1.8,5.1c-0.1,0.4-0.4,0.6-0.7,0.6h-0.1c-0.3,0-0.6-0.2-0.7-0.6l-1.3-3.7l-1.3,3.7c-0.1,0.4-0.4,0.6-0.7,0.6
	h-0.1c-0.3,0-0.6-0.2-0.7-0.6L-876.8,624.8z M-867.1,624.8c0-0.1-0.1-0.2-0.1-0.3c0-0.4,0.3-0.7,0.7-0.7c0.3,0,0.6,0.2,0.7,0.5
	l1.3,4l1.3-4c0.1-0.3,0.4-0.6,0.7-0.6h0.1c0.4,0,0.6,0.2,0.7,0.6l1.3,4l1.3-4c0.1-0.3,0.3-0.5,0.7-0.5c0.4,0,0.7,0.3,0.7,0.7
	c0,0.1,0,0.2-0.1,0.3l-1.8,5.1c-0.1,0.4-0.4,0.6-0.7,0.6h-0.1c-0.3,0-0.6-0.2-0.7-0.6l-1.3-3.7l-1.3,3.7c-0.1,0.4-0.4,0.6-0.7,0.6
	h-0.1c-0.3,0-0.6-0.2-0.7-0.6L-867.1,624.8z"/>
</svg>
