<?xml version="1.0" encoding="utf-8"?>
<!-- Generator: Adobe Illustrator 18.1.0, SVG Export Plug-In . SVG Version: 6.00 Build 0)  -->
<svg version="1.1" xmlns="http://www.w3.org/2000/svg" xmlns:xlink="http://www.w3.org/1999/xlink" x="0px" y="0px" width="224.8px"
	 height="154px" viewBox="0 0 224.8 154" enable-background="new 0 0 224.8 154" xml:space="preserve">
<g id="Layer_1">
	<g>
		<path fill="#FFFFFF" d="M142.6,1l27.1,0c17,0.2,25.4,15.1,25.4,15.3l25.1,46.2c8.1,14.9-0.5,29.8-0.6,29.9l-27.7,46
			c-8.7,14.4-25.4,14.6-26.1,14.6l-23.1,0L142.6,1z"/>
		<path fill="#67C5B4" d="M169.7,2c16.4,0.2,24.5,14.6,24.6,14.8l25.1,46.2c7.8,14.4-0.5,28.8-0.6,28.9l-27.7,46
			c-8.4,14-24.5,14.1-25.3,14.1l-22.1,0L143.6,2L169.7,2 M169.7,0l-28.1,0l0.2,154l24.1,0c0,0,0,0,0,0c0.8,0,18-0.2,26.9-15.1
			l27.7-46c0,0,9.2-15.3,0.7-30.9l-25.1-46.2C196.1,15.8,187.5,0.2,169.7,0L169.7,0z"/>
	</g>
	<rect y="0" fill="#67C5B4" width="143.8" height="154"/>
</g>
<g id="Layer_2">
	<g>
		<path fill="#FFFFFF" d="M27.6,68.7L27.6,68.7c0-2.9,1.8-4.4,3.8-4.4c1.3,0,2.1,0.6,2.6,1.3v-4.2h2.4v11.5h-2.4v-1.2
			c-0.6,0.8-1.4,1.4-2.6,1.4C29.5,73.1,27.6,71.5,27.6,68.7z M34.2,68.7L34.2,68.7c0-1.4-0.9-2.4-2-2.4c-1.1,0-2.1,0.9-2.1,2.3v0
			c0,1.4,0.9,2.3,2.1,2.3C33.2,71,34.2,70.1,34.2,68.7z"/>
		<path fill="#FFFFFF" d="M38.3,68.7L38.3,68.7c0-2.4,1.7-4.4,4.2-4.4c2.8,0,4.1,2.2,4.1,4.6c0,0.2,0,0.4,0,0.6h-5.9
			c0.2,1.1,1,1.7,2.1,1.7c0.8,0,1.4-0.3,2-0.9l1.4,1.2c-0.8,1-1.9,1.6-3.5,1.6C40.1,73.1,38.3,71.3,38.3,68.7z M44.2,68
			c-0.1-1.1-0.8-1.8-1.8-1.8c-1,0-1.6,0.7-1.8,1.8H44.2z"/>
		<path fill="#FFFFFF" d="M47.7,71.8l1-1.6c0.9,0.7,1.9,1,2.7,1c0.7,0,1-0.3,1-0.6v0c0-0.5-0.8-0.7-1.7-1c-1.2-0.3-2.5-0.9-2.5-2.5
			v0c0-1.7,1.4-2.7,3.1-2.7c1.1,0,2.2,0.4,3.2,1L53.4,67c-0.8-0.5-1.7-0.8-2.3-0.8c-0.6,0-0.9,0.3-0.9,0.6v0c0,0.5,0.8,0.7,1.7,1
			c1.2,0.4,2.6,1,2.6,2.5v0c0,1.9-1.4,2.7-3.2,2.7C50.1,73.1,48.8,72.7,47.7,71.8z"/>
		<path fill="#FFFFFF" d="M56.5,70.5v-4h-1v-2h1v-2.2h2.4v2.2h2v2h-2v3.6c0,0.6,0.2,0.8,0.8,0.8c0.4,0,0.8-0.1,1.2-0.3v1.9
			c-0.5,0.3-1.1,0.5-1.9,0.5C57.5,73,56.5,72.5,56.5,70.5z"/>
		<path fill="#FFFFFF" d="M62.7,61.4h2.5v2.1h-2.5V61.4z M62.7,64.5h2.4v8.4h-2.4V64.5z"/>
		<path fill="#FFFFFF" d="M67.4,64.5h2.4v1.2c0.6-0.7,1.3-1.4,2.5-1.4c1.8,0,2.9,1.2,2.9,3.1v5.5h-2.4v-4.7c0-1.1-0.5-1.7-1.4-1.7
			c-0.9,0-1.5,0.6-1.5,1.7v4.7h-2.4V64.5z"/>
		<path fill="#FFFFFF" d="M76.7,70.5L76.7,70.5c0-1.9,1.4-2.7,3.4-2.7c0.9,0,1.5,0.1,2.1,0.3v-0.1c0-1-0.6-1.5-1.8-1.5
			c-0.9,0-1.6,0.2-2.3,0.5L77.4,65c0.9-0.4,1.8-0.7,3.3-0.7c1.3,0,2.3,0.3,2.9,0.9c0.6,0.6,0.9,1.6,0.9,2.7v4.9h-2.3V72
			c-0.6,0.6-1.4,1.1-2.6,1.1C78,73.1,76.7,72.1,76.7,70.5z M82.2,69.9v-0.4c-0.4-0.2-0.9-0.3-1.5-0.3c-1,0-1.7,0.4-1.7,1.2v0
			c0,0.6,0.5,1,1.3,1C81.4,71.4,82.2,70.8,82.2,69.9z"/>
		<path fill="#FFFFFF" d="M86.8,70.5v-4h-1v-2h1v-2.2h2.4v2.2h2v2h-2v3.6c0,0.6,0.2,0.8,0.8,0.8c0.4,0,0.8-0.1,1.2-0.3v1.9
			c-0.5,0.3-1.1,0.5-1.9,0.5C87.8,73,86.8,72.5,86.8,70.5z"/>
		<path fill="#FFFFFF" d="M93,61.4h2.5v2.1H93V61.4z M93.1,64.5h2.4v8.4h-2.4V64.5z"/>
		<path fill="#FFFFFF" d="M97.3,68.7L97.3,68.7c0-2.5,2-4.4,4.6-4.4c2.6,0,4.6,1.9,4.6,4.4v0c0,2.4-2,4.4-4.6,4.4
			C99.3,73.1,97.3,71.1,97.3,68.7z M104.1,68.7L104.1,68.7c0-1.3-0.9-2.4-2.2-2.4c-1.4,0-2.2,1.1-2.2,2.3v0c0,1.2,0.9,2.3,2.2,2.3
			C103.3,71,104.1,70,104.1,68.7z"/>
		<path fill="#FFFFFF" d="M108.2,64.5h2.4v1.2c0.6-0.7,1.3-1.4,2.5-1.4c1.8,0,2.9,1.2,2.9,3.1v5.5h-2.4v-4.7c0-1.1-0.5-1.7-1.4-1.7
			c-0.9,0-1.5,0.6-1.5,1.7v4.7h-2.4V64.5z"/>
	</g>
	<g>
		<path fill="#FFFFFF" d="M19.2,76.8h3.2v5.8c0.7-1,1.7-1.8,3.3-1.8c2.4,0,3.9,1.6,3.9,4.2v7.4h-3.2V86c0-1.5-0.7-2.3-2-2.3
			c-1.2,0-2,0.8-2,2.3v6.4h-3.2V76.8z"/>
		<path fill="#FFFFFF" d="M31.6,89.1L31.6,89.1c0-2.5,1.9-3.7,4.6-3.7c1.2,0,2,0.2,2.8,0.5v-0.2c0-1.3-0.8-2.1-2.4-2.1
			c-1.2,0-2.1,0.2-3.2,0.6l-0.8-2.5c1.3-0.6,2.5-0.9,4.4-0.9c1.8,0,3,0.5,3.9,1.3c0.9,0.9,1.2,2.1,1.2,3.6v6.6h-3.1v-1.2
			c-0.8,0.9-1.9,1.4-3.5,1.4C33.3,92.6,31.6,91.3,31.6,89.1z M39,88.3v-0.6c-0.6-0.3-1.3-0.4-2.1-0.4c-1.4,0-2.2,0.6-2.2,1.6v0
			c0,0.9,0.7,1.4,1.8,1.4C38,90.3,39,89.5,39,88.3z"/>
		<path fill="#FFFFFF" d="M44.7,80.9h3.2v1.6c0.8-1.1,1.9-1.9,3.6-1.9c2.7,0,5.2,2.1,5.2,5.9v0c0,3.8-2.5,5.9-5.2,5.9
			c-1.7,0-2.8-0.8-3.6-1.7v4.9h-3.2V80.9z M53.4,86.7L53.4,86.7c0-1.9-1.3-3.2-2.8-3.2c-1.5,0-2.8,1.3-2.8,3.2v0
			c0,1.9,1.3,3.2,2.8,3.2C52.1,89.8,53.4,88.6,53.4,86.7z"/>
		<path fill="#FFFFFF" d="M58.8,80.9h3.2v1.6c0.8-1.1,1.9-1.9,3.6-1.9c2.7,0,5.2,2.1,5.2,5.9v0c0,3.8-2.5,5.9-5.2,5.9
			c-1.7,0-2.8-0.8-3.6-1.7v4.9h-3.2V80.9z M67.6,86.7L67.6,86.7c0-1.9-1.3-3.2-2.8-3.2c-1.5,0-2.8,1.3-2.8,3.2v0
			c0,1.9,1.3,3.2,2.8,3.2C66.3,89.8,67.6,88.6,67.6,86.7z"/>
		<path fill="#FFFFFF" d="M73.1,76.8h3.4v2.9h-3.4V76.8z M73.2,80.9h3.2v11.4h-3.2V80.9z"/>
		<path fill="#FFFFFF" d="M79.3,80.9h3.2v1.6c0.7-1,1.7-1.8,3.3-1.8c2.4,0,3.9,1.6,3.9,4.2v7.4h-3.2V86c0-1.5-0.7-2.3-2-2.3
			c-1.2,0-2,0.8-2,2.3v6.4h-3.2V80.9z"/>
		<path fill="#FFFFFF" d="M91.8,86.7L91.8,86.7c0-3.3,2.3-6,5.6-6c3.8,0,5.6,3,5.6,6.2c0,0.3,0,0.6,0,0.9H95
			c0.3,1.5,1.3,2.2,2.8,2.2c1.1,0,1.9-0.3,2.8-1.2l1.9,1.6c-1.1,1.3-2.6,2.1-4.7,2.1C94.3,92.6,91.8,90.2,91.8,86.7z M99.8,85.8
			c-0.2-1.4-1-2.4-2.4-2.4c-1.3,0-2.2,1-2.5,2.4H99.8z"/>
		<path fill="#FFFFFF" d="M104.3,90.8l1.4-2.1c1.2,0.9,2.5,1.4,3.6,1.4c0.9,0,1.4-0.3,1.4-0.9v0c0-0.7-1.1-0.9-2.4-1.3
			c-1.6-0.5-3.4-1.2-3.4-3.4v0c0-2.3,1.9-3.6,4.2-3.6c1.4,0,3,0.5,4.3,1.3l-1.2,2.2c-1.1-0.7-2.3-1.1-3.1-1.1
			c-0.8,0-1.2,0.3-1.2,0.8v0c0,0.6,1.1,0.9,2.3,1.4c1.6,0.5,3.5,1.3,3.5,3.4v0c0,2.5-1.9,3.7-4.4,3.7
			C107.6,92.6,105.8,92,104.3,90.8z"/>
		<path fill="#FFFFFF" d="M114.6,90.8l1.4-2.1c1.2,0.9,2.5,1.4,3.6,1.4c0.9,0,1.4-0.3,1.4-0.9v0c0-0.7-1.1-0.9-2.4-1.3
			c-1.6-0.5-3.4-1.2-3.4-3.4v0c0-2.3,1.9-3.6,4.2-3.6c1.4,0,3,0.5,4.3,1.3l-1.2,2.2c-1.1-0.7-2.3-1.1-3.1-1.1
			c-0.8,0-1.2,0.3-1.2,0.8v0c0,0.6,1.1,0.9,2.3,1.4c1.6,0.5,3.5,1.3,3.5,3.4v0c0,2.5-1.9,3.7-4.4,3.7
			C117.9,92.6,116.1,92,114.6,90.8z"/>
	</g>
</g>
</svg>
