<?xml version="1.0" encoding="utf-8"?>
<!-- Generator: Adobe Illustrator 18.1.0, SVG Export Plug-In . SVG Version: 6.00 Build 0)  -->
<svg version="1.1" id="Layer_1" xmlns="http://www.w3.org/2000/svg" xmlns:xlink="http://www.w3.org/1999/xlink" x="0px" y="0px"
	 width="174.3px" height="19.1px" viewBox="-334.2 585.9 174.3 19.1" enable-background="new -334.2 585.9 174.3 19.1"
	 xml:space="preserve">
<g>
	<path fill="#FFFFFF" d="M-329,601.3c-1.7,0-2.8-1-3.5-1c-0.7,0-0.6,0.8-0.9,0.8c-0.1,0-0.2-0.1-0.2-0.2c0-0.2,0.2-0.9,0.7-3.4
		c0.4-1.9,0.4-2.2,0.6-2.2c0.1,0,0.2,0.1,0.2,0.3c0,0.3-0.1,0.5-0.1,0.9c0,2.5,1,4.3,3.2,4.3c1.6,0,3-1,3-2.6c0-3-5.7-2.5-5.7-5.9
		c0-1.5,1.5-3.9,4.4-3.9c2,0,2.6,1,3.4,1c0.6,0,0.4-0.8,0.7-0.8c0.1,0,0.2,0.1,0.2,0.3c0,0.2-0.1,0.6-0.3,2.8
		c-0.2,1.3-0.2,1.6-0.4,1.6c-0.4,0-0.1-1-0.5-2.3c-0.4-1.1-1.2-2.1-3-2.1c-1.6,0-2.3,1-2.3,2c0,2.7,5.9,2,5.9,6
		C-323.8,599.1-325.9,601.3-329,601.3z"/>
	<path fill="#FFFFFF" d="M-318.9,596L-318.9,596c1-1.7,1.9-3.3,3.5-3.3c1.2,0,2.1,0.8,2.1,2.1c0,1-1,4-1,4.8c0,0.5,0.2,0.7,0.5,0.7
		c0.3,0,0.7-0.4,1.1-1.2c0.3-0.6,0.3-0.9,0.5-0.9c0.1,0,0.1,0,0.1,0.2c0,0.1-0.6,2.9-2.8,2.9c-1,0-1.7-0.4-1.7-1.5
		c0-1.4,1-4.4,1-5.5c0-0.6-0.3-0.8-0.6-0.8c-0.5,0-1.1,0.5-1.8,1.7c-1,1.7-1.5,3.5-2,6.1c-0.2-0.2-0.6-0.3-1-0.3
		c-0.5,0-0.8,0.1-1.3,0.3c2.1-10.2,2.4-10.9,2.4-11.3c0-1.1-1.1-0.9-1.1-1.3c0-0.3,1,0,3.8-0.8L-318.9,596z"/>
	<path fill="#FFFFFF" d="M-305.7,598.7c-0.9,1.5-1.8,2.4-3.4,2.4c-1.6,0-2.4-1.3-2.4-2.8c0-2.7,2.2-5.7,4.8-5.7c0.9,0,1.7,0.5,2,1.9
		c1.2-1.2,2.3-1.7,2.7-1.7c0.1,0,0.2,0,0.2,0.1c0,0.2-0.6,1.2-1,3c-0.3,1.4-0.6,2.8-0.6,3.6c0,0.5,0.2,0.6,0.4,0.6
		c0.4,0,0.8-0.8,1-1.2c0.1-0.3,0.2-0.5,0.3-0.5c0.1,0,0.1,0.1,0.1,0.2c0,0.1-0.6,2.6-2.6,2.6C-305.7,601.2-305.7,600-305.7,598.7
		L-305.7,598.7z M-306.4,593.2c-1.8,0-2.7,4.1-2.7,5.9c0,0.8,0.3,1.4,1,1.4c1.6,0,3-3.3,3-5.4C-305.1,594.1-305.6,593.2-306.4,593.2
		z"/>
	<path fill="#FFFFFF" d="M-296.9,596.3c0.8-1.9,1.7-3.6,3.1-3.6c0.6,0,1.1,0.5,1.1,1.3c0,0.8-0.5,1.2-1.1,1.2
		c-0.7,0-0.8-0.5-1.4-0.5c-1.2,0-2,3.1-2.8,6.4c-0.3-0.2-0.7-0.3-1.1-0.3c-0.5,0-0.8,0.1-1.2,0.3c1-4.4,1.4-5.8,1.4-6.8
		c0-0.6-0.1-0.8-0.5-0.8c-0.3,0-0.6,0.4-0.9,1c-0.4,0.7-0.4,1.1-0.6,1.1c-0.1,0-0.1,0-0.1-0.1c0-0.2,0.6-2.7,2.5-2.7
		c1.2,0,1.7,0.7,1.7,1.8C-296.7,595.2-296.9,596-296.9,596.3L-296.9,596.3z"/>
	<path fill="#FFFFFF" d="M-287.2,592.7c1.5,0,2.7,0.8,2.7,1.8c0,1.7-3.6,2.5-5.6,2.7c0.1,1.4,0.8,2.4,2.4,2.4c2,0,2.6-1.4,2.8-1.4
		c0.1,0,0.2,0.1,0.2,0.2c0,0.2-1.2,2.7-4.2,2.7c-2.2,0-3.5-1.7-3.5-3.5C-292.4,595-290,592.7-287.2,592.7z M-290.1,596.8
		c2.2-0.2,3.7-1,3.7-2.6c0-0.7-0.5-1.1-1.1-1.1C-289.2,593.2-290.1,595.1-290.1,596.8z"/>
	<path fill="#FFFFFF" d="M-269.7,592.7c0.7,0,1.1,0.4,1.1,1.6c0,1.4-0.6,2.8-1.6,4.4c0.5,0.4,1.1,0.7,1.8,0.7c1.4,0,2.7-0.9,2.7-2.3
		c0-1.6-2.3-1.3-2.3-3.1c0-0.6,0.4-1.3,1.1-1.3c1.4,0,1.8,1.8,1.8,2.9c0,2.8-1.5,5.6-4.4,5.6c-1,0-1.7-0.3-2.3-1
		c-0.7,0.5-1.4,1-2.6,1c-1.8,0-2.5-1-2.5-2.4c0-1.6,1.4-3,2.5-4.2c-1.6,0-1.9-0.7-2.8-0.7c-0.6,0-0.9,0.3-0.9,0.8
		c0,0.2,0.1,0.4,0.5,0.4c0.2,0,0.4,0,0.6,0c0.6,0,0.9,0.4,0.9,0.8c0,0.5-0.5,1-1.2,1c-0.8,0-1.3-0.6-1.3-1.5c0-1.5,1.1-2.6,2.7-2.6
		c0.5,0,1,0.1,1.3,0.2c1.1,0.2,1.5,0,1.5,0.2c0,0.3-1.8,1.8-1.8,4.2c0,1,0.7,2.4,2.1,2.4c0.3,0,0.5-0.1,0.7-0.1
		c-0.3-0.5-0.5-1.1-0.5-2.1C-272.4,596.3-271.4,592.7-269.7,592.7z M-270.5,598.4c0.5-0.7,0.9-1.8,0.9-3.2c0-0.9-0.4-1.3-0.8-1.3
		c-0.6,0-1,0.8-1,1.8C-271.4,596.7-271.1,597.9-270.5,598.4z"/>
	<path fill="#FFFFFF" d="M-260.2,596L-260.2,596c1-1.7,1.9-3.3,3.5-3.3c1.2,0,2.1,0.8,2.1,2.1c0,1-1,4-1,4.8c0,0.5,0.2,0.7,0.5,0.7
		c0.3,0,0.7-0.4,1.1-1.2c0.3-0.6,0.3-0.9,0.5-0.9c0.1,0,0.1,0,0.1,0.2c0,0.1-0.6,2.9-2.8,2.9c-1,0-1.7-0.4-1.7-1.5
		c0-1.4,1-4.4,1-5.5c0-0.6-0.3-0.8-0.6-0.8c-0.5,0-1.1,0.5-1.8,1.7c-1,1.7-1.5,3.5-2,6.1c-0.2-0.2-0.6-0.3-1-0.3
		c-0.5,0-0.8,0.1-1.3,0.3c2.1-10.2,2.4-10.9,2.4-11.3c0-1.1-1.1-0.9-1.1-1.3c0-0.3,1,0,3.8-0.8L-260.2,596z"/>
	<path fill="#FFFFFF" d="M-247.1,598.7c-0.9,1.5-1.8,2.4-3.4,2.4c-1.6,0-2.4-1.3-2.4-2.8c0-2.7,2.2-5.7,4.8-5.7c0.9,0,1.7,0.5,2,1.9
		c1.2-1.2,2.3-1.7,2.7-1.7c0.1,0,0.2,0,0.2,0.1c0,0.2-0.6,1.2-1,3c-0.3,1.4-0.6,2.8-0.6,3.6c0,0.5,0.2,0.6,0.4,0.6
		c0.5,0,0.8-0.8,1-1.2c0.1-0.3,0.2-0.5,0.3-0.5c0.1,0,0.1,0.1,0.1,0.2c0,0.1-0.6,2.6-2.6,2.6C-247,601.2-247.1,600-247.1,598.7
		L-247.1,598.7z M-247.7,593.2c-1.8,0-2.7,4.1-2.7,5.9c0,0.8,0.3,1.4,1,1.4c1.6,0,3-3.3,3-5.4C-246.4,594.1-246.9,593.2-247.7,593.2
		z"/>
	<path fill="#FFFFFF" d="M-236,593.7h-2c-0.9,4.3-1.1,5.1-1.1,5.7c0,0.6,0.3,0.9,0.8,0.9c1,0,1.5-1,1.7-1c0.1,0,0.1,0.1,0.1,0.1
		c0,0.2-0.4,0.7-0.7,1c-0.6,0.5-1.3,0.8-2.2,0.8c-1.2,0-2.2-0.6-2.2-1.8c0-1,0.8-3.9,1.2-5.7h-1.4c1.7-0.9,3.3-2.3,4.5-4l-0.6,3.1
		h2.1L-236,593.7z"/>
	<path fill="#FFFFFF" d="M-230.5,595.9c-0.1,0-0.2-0.1-0.2-0.2c0-0.3,0.7-2.9,2.5-2.9c1.5,0,1.8,2,3.8,6.9c0.7-0.9,1.3-1.8,1.3-2.7
		c0-1.4-1.2-1.5-1.2-2.8c0-0.7,0.4-1.4,1.3-1.4c0.8,0,1.4,0.6,1.4,1.8c0,1.4-1,3.5-3,6.1c-2.2,2.9-3.9,3.9-5.3,3.9
		c-1,0-1.9-0.5-1.9-1.3c0-0.6,0.4-1.1,1.1-1.1c1.1,0,1.5,1.3,2.4,1.3c0.8,0,2.1-1.3,2.1-2.2c0-0.6-0.1-0.8-1.3-3.5
		c-1.2-2.7-1.3-3.3-1.8-3.3C-230.2,594.4-230.2,595.9-230.5,595.9z"/>
	<path fill="#FFFFFF" d="M-215.8,592.7c2.3,0,4.2,1.5,4.2,3.9c0,2.2-2.3,4.6-5.3,4.6c-2.3,0-4.1-1.5-4.1-3.9
		C-221.1,595.2-218.8,592.7-215.8,592.7z M-215.6,593.2c-2.2,0-3,3.6-3,5.4c0,1.4,0.5,2.2,1.5,2.2c2.2,0,3-3.6,3-5.4
		C-214.1,594-214.6,593.2-215.6,593.2z"/>
	<path fill="#FFFFFF" d="M-204.8,598.7c-0.3,0.6-1.2,2.5-3,2.5c-1.6-0.1-2.1-1-2.1-2.1c0-1.4,1-4.2,1-5.1c0-0.4-0.2-0.6-0.5-0.6
		c-0.4,0-0.8,0.5-1,0.9c-0.3,0.6-0.3,0.9-0.5,0.9c-0.1,0-0.2-0.1-0.2-0.2s0.3-0.9,0.8-1.6c0.4-0.5,0.9-0.8,1.7-0.8
		c1.3,0,1.9,0.7,1.9,1.8c0,1.2-1,4.3-1,5.1c0,0.6,0.3,0.9,0.7,0.9c0.4,0,1-0.3,1.8-1.6c0.6-1.1,0.7-1.7,1.8-6.2
		c0.2,0.2,0.6,0.3,1,0.3c0.4,0,0.8-0.1,1.3-0.3c-1,4.8-1.5,6.3-1.5,7.1c0,0.3,0.2,0.6,0.4,0.6c0.4,0,0.7-0.4,0.9-0.8
		c0.5-0.8,0.4-1.3,0.6-1.3c0,0,0.1,0,0.1,0.2c0,0.2-0.2,1-0.7,1.7c-0.4,0.6-1,1-1.8,1c-1.2,0-1.7-0.9-1.7-1.8
		C-204.8,599.1-204.8,598.9-204.8,598.7L-204.8,598.7z"/>
	<path fill="#FFFFFF" d="M-193.9,599.6c0-1.3,2-8.6,2-9.6c0-1.1-1.1-0.9-1.1-1.3c0-0.3,1.1,0,4.1-0.8c-2.4,10.3-2.6,11.3-2.6,11.8
		c0,0.4,0.2,0.6,0.5,0.6c0.3,0,0.6-0.2,1-0.9c0.4-0.6,0.4-1,0.6-1c0.1,0,0.1,0.1,0.1,0.1c0,0.2-0.3,1-0.8,1.6s-1.1,1-1.9,1
		C-193.1,601.2-193.9,600.7-193.9,599.6z"/>
	<path fill="#FFFFFF" d="M-183.1,592.7c2.3,0,4.2,1.5,4.2,3.9c0,2.2-2.3,4.6-5.3,4.6c-2.3,0-4.1-1.5-4.1-3.9
		C-188.4,595.2-186.1,592.7-183.1,592.7z M-182.9,593.2c-2.2,0-3,3.6-3,5.4c0,1.4,0.5,2.2,1.5,2.2c2.2,0,3-3.6,3-5.4
		C-181.4,594-181.9,593.2-182.9,593.2z"/>
	<path fill="#FFFFFF" d="M-169,595.6c0,2.8-1.9,5.6-4.7,5.6c-1.7,0-2.6-1.1-2.6-2.4c0-1.2,0.9-2.8,2-4.1c-1.3-0.3-1.6-0.8-2.5-0.8
		c-0.6,0-0.9,0.4-0.9,0.7c0,0.2,0.1,0.4,0.3,0.4c0.2,0,0.4,0,0.6,0c0.5,0,0.9,0.3,0.9,0.9c0,0.6-0.5,1.1-1.1,1.1
		c-0.7,0-1.3-0.6-1.3-1.6c0-1.2,1-2.5,2.5-2.5c0.5,0,1,0.2,1.9,0.3c0.8,0.1,1,0,1,0.1c0,0.3-1.7,1.6-1.7,3.9c0,1.2,0.9,2.5,2.4,2.5
		c1.5,0,2.5-1.4,2.5-2.4c0-1.9-2.2-1.1-2.2-3.1c0-0.8,0.4-1.3,1.2-1.3C-169.8,592.7-169,593.7-169,595.6z"/>
	<path fill="#FFFFFF" d="M-162.6,592.7c1.5,0,2.7,0.8,2.7,1.8c0,1.7-3.6,2.5-5.6,2.7c0.1,1.4,0.8,2.4,2.4,2.4c2,0,2.6-1.4,2.8-1.4
		c0.1,0,0.2,0.1,0.2,0.2c0,0.2-1.2,2.7-4.2,2.7c-2.2,0-3.5-1.7-3.5-3.5C-167.7,595-165.3,592.7-162.6,592.7z M-165.4,596.8
		c2.2-0.2,3.7-1,3.7-2.6c0-0.7-0.5-1.1-1.1-1.1C-164.5,593.2-165.4,595.1-165.4,596.8z"/>
</g>
</svg>
