<?xml version="1.0" encoding="utf-8"?>
<!-- Generator: Adobe Illustrator 18.1.0, SVG Export Plug-In . SVG Version: 6.00 Build 0)  -->
<svg version="1.1" id="Layer_1" xmlns="http://www.w3.org/2000/svg" xmlns:xlink="http://www.w3.org/1999/xlink" x="0px" y="0px"
	 width="223.8px" height="220.9px" viewBox="0 0 223.8 220.9" enable-background="new 0 0 223.8 220.9" xml:space="preserve">
<g>
	<g>
		<path fill="#FFFFFF" d="M0,183.7h6.9l8.7,27.1l9-27.2h5.4l9,27.2l8.7-27.1h6.7l-12.7,36.8h-5.6l-9-26.3l-9,26.3h-5.5L0,183.7z"/>
	</g>
	<g>
		<path fill="#FFFFFF" d="M54.8,202.1V202c0-10.3,7.9-18.9,19.2-18.9c11.2,0,19.1,8.5,19.1,18.8v0.1c0,10.3-7.9,18.9-19.2,18.9
			C62.7,220.9,54.8,212.4,54.8,202.1z M86.3,202.1V202c0-7.1-5.2-13-12.4-13c-7.3,0-12.3,5.8-12.3,12.9v0.1c0,7.1,5.2,13,12.4,13
			C81.3,215,86.3,209.2,86.3,202.1z"/>
	</g>
	<g>
		<path fill="#FFFFFF" d="M98.2,183.7h6.4v30.7h19.2v5.8H98.2V183.7z"/>
	</g>
	<g>
		<path fill="#FFFFFF" d="M128,183.7h27.2v5.8h-20.8v10h18.4v5.8h-18.4v14.9H128V183.7z"/>
	</g>
	<g>
		<path fill="#FFFFFF" d="M159.6,183.7h27.1v5.7H166v9.5h18.3v5.7H166v9.8H187v5.7h-27.4V183.7z"/>
	</g>
	<g>
		<path fill="#FFFFFF" d="M192,183.7h6l19.6,25.3v-25.3h6.3v36.6h-5.4l-20.2-26v26H192V183.7z"/>
	</g>
</g>
<path fill="#FFFFFF" d="M190.8,89.8l-21.1-52.2l1.9-33.7c0.1-1.5-0.7-2.8-2-3.5c-1.3-0.7-2.9-0.5-4,0.4l-42.9,33.8l-21.7,0L56,0.8
	c-1.2-0.9-2.8-1-4-0.3c-1.3,0.7-2,2.1-1.9,3.6L53.3,38L32.8,90.6c-0.7,1.9,0.2,4,2,4.8L86,116.3l3.7,30.2c0.2,1.9,1.8,3.3,3.7,3.3
	h37.1c1.9,0,3.5-1.4,3.7-3.3l3.7-30.3l51-21.5C190.6,93.8,191.5,91.7,190.8,89.8z M91.8,109.7L62.7,42.3h97.7L132,109.7H91.8z
	 M162.4,34.9h-28.1l29.4-23.2L162.4,34.9z M89,34.9H60.4l-2.2-23.1L89,34.9z M57.2,48.3l25.2,58.5L41,89.9L57.2,48.3z M96.7,142.3
	l-3-25.2h36.6l-3,25.2H96.7z M141.3,106.6L166,48.1l16.6,41.1L141.3,106.6z"/>
</svg>
