<?xml version="1.0" encoding="utf-8"?>
<!-- Generator: Adobe Illustrator 15.0.0, SVG Export Plug-In . SVG Version: 6.00 Build 0)  -->
<!DOCTYPE svg PUBLIC "-//W3C//DTD SVG 1.1//EN" "http://www.w3.org/Graphics/SVG/1.1/DTD/svg11.dtd">
<svg version="1.1" id="Layer_2" xmlns="http://www.w3.org/2000/svg" xmlns:xlink="http://www.w3.org/1999/xlink" x="0px" y="0px"
	 width="140px" height="140px" viewBox="0 0 140 140" enable-background="new 0 0 140 140" xml:space="preserve">
<rect x="62.606" y="-3.27" transform="matrix(0.7071 0.7071 -0.7071 0.7071 66.5621 -37.2134)" fill="#FFFFFF" width="31.188" height="130.016"/>
<rect x="112.042" y="29.525" transform="matrix(0.7071 0.7071 -0.7071 0.7071 76.4158 -62.6131)" fill="#FFFFFF" width="3.494" height="62.821"/>
<rect x="119.079" y="31.715" transform="matrix(-0.7071 -0.7071 0.7071 -0.7071 181.91 161.2197)" fill="#FFFFFF" width="10.532" height="22.44"/>
<g>
	<path fill="#FFFFFF" d="M22.626,104.369l12.942,12.941l-23.361,10.419L22.626,104.369 M21.204,96.679L3.452,136.484l39.805-17.75
		L21.204,96.679L21.204,96.679z"/>
</g>
<path fill="#FFFFFF" d="M90.346,81.908c-2.215-2.216-2.215-5.807,0-8.021c2.215-2.216,5.807-2.216,8.021,0"/>
</svg>
