<?xml version="1.0" encoding="utf-8"?>
<!-- Generator: Adobe Illustrator 15.0.0, SVG Export Plug-In . SVG Version: 6.00 Build 0)  -->
<!DOCTYPE svg PUBLIC "-//W3C//DTD SVG 1.1//EN" "http://www.w3.org/Graphics/SVG/1.1/DTD/svg11.dtd">
<svg version="1.1" id="Layer_1" xmlns="http://www.w3.org/2000/svg" xmlns:xlink="http://www.w3.org/1999/xlink" x="0px" y="0px"
	 width="220px" height="220px" viewBox="0 0 220 220" enable-background="new 0 0 220 220" xml:space="preserve">
<circle fill="#E50066" stroke="none" cx="110" cy="110" r="110"/>
<g display="none">
	<g display="inline">
		<defs>
			<rect id="SVGID_1_" x="9" y="7" width="173" height="173"/>
		</defs>
		<clipPath id="SVGID_2_">
			<use xlink:href="#SVGID_1_"  overflow="visible"/>
		</clipPath>
		
			<path clip-path="url(#SVGID_2_)" fill="none" stroke="#FFFFFF" stroke-width="4" stroke-linecap="round" stroke-linejoin="round" stroke-dasharray="0,7.93" d="
			M98.704,179.133c45.312-1.665,81.638-38.511,82.474-84.03"/>
	</g>
	<g display="inline">
		<defs>
			<rect id="SVGID_3_" x="9" y="7" width="173" height="173"/>
		</defs>
		<clipPath id="SVGID_4_">
			<use xlink:href="#SVGID_3_"  overflow="visible"/>
		</clipPath>
		
			<path clip-path="url(#SVGID_4_)" fill="none" stroke="#FFFFFF" stroke-width="4" stroke-linecap="round" stroke-linejoin="round" stroke-dasharray="0,7.93" d="
			M181.133,90.295c-1.665-45.311-38.511-81.637-84.03-82.472"/>
	</g>
	<g display="inline">
		<defs>
			<rect id="SVGID_5_" x="9" y="7" width="173" height="173"/>
		</defs>
		<clipPath id="SVGID_6_">
			<use xlink:href="#SVGID_5_"  overflow="visible"/>
		</clipPath>
		
			<path clip-path="url(#SVGID_6_)" fill="none" stroke="#FFFFFF" stroke-width="4" stroke-linecap="round" stroke-linejoin="round" stroke-dasharray="0,7.93" d="
			M92.295,7.867c-45.31,1.666-81.637,38.512-82.472,84.03"/>
	</g>
	<g display="inline">
		<defs>
			<rect id="SVGID_7_" x="9" y="7" width="173" height="173"/>
		</defs>
		<clipPath id="SVGID_8_">
			<use xlink:href="#SVGID_7_"  overflow="visible"/>
		</clipPath>
		
			<path clip-path="url(#SVGID_8_)" fill="none" stroke="#FFFFFF" stroke-width="4" stroke-linecap="round" stroke-linejoin="round" stroke-dasharray="0,7.93" d="
			M9.867,96.704c1.666,45.312,38.512,81.638,84.03,82.474"/>
	</g>
	<g display="inline">
		<defs>
			<rect id="SVGID_9_" x="9" y="7" width="173" height="173"/>
		</defs>
		<clipPath id="SVGID_10_">
			<use xlink:href="#SVGID_9_"  overflow="visible"/>
		</clipPath>
		
			<path clip-path="url(#SVGID_10_)" fill="none" stroke="#FFFFFF" stroke-width="4" stroke-linecap="round" stroke-linejoin="round" d="
			M95.5,179.189L95.5,179.189 M9.808,93.5L9.808,93.5 M95.5,7.808L95.5,7.808 M181.189,93.5L181.189,93.5"/>
	</g>
</g>
<g>
	<g>
		<path fill="#FFFFFF" d="M44.102,99.366c0-3.869-2.566-6.353-6.557-6.353h-7.737V105.8h7.696
			C41.862,105.8,44.102,103.56,44.102,99.366z M37.504,104.375h-6.19v-9.977h6.23c3.095,0,5.05,1.996,5.05,4.968
			C42.595,102.542,40.884,104.375,37.504,104.375z M37.667,90.529H27.161v27.448h1.506v-25.98h9c4.52,0,7.615,2.851,7.615,7.289
			c0,4.643-2.851,7.534-7.656,7.534h-7.818v11.158h1.506v-9.691h6.312c5.783,0,9.122-3.42,9.122-9
			C46.748,93.909,43.083,90.529,37.667,90.529z M64.216,92.484c-7.493,0-10.587,5.945-10.587,11.769
			c0,5.783,3.176,11.769,10.669,11.769c7.493,0,10.588-5.945,10.588-11.769C74.885,98.47,71.709,92.484,64.216,92.484z
			 M64.297,114.555c-6.353,0-9.122-5.292-9.122-10.302c0-5.09,2.728-10.303,9.04-10.303c6.353,0,9.122,5.294,9.122,10.303
			C73.338,109.343,70.609,114.555,64.297,114.555z M64.216,90c-9.04,0-13.397,6.801-13.397,14.212
			c0,7.493,4.439,14.293,13.479,14.293c9.041,0,13.397-6.801,13.397-14.212C77.695,96.8,73.215,90,64.216,90z M64.297,117.039
			c-8.022,0-11.932-6.107-11.932-12.828c0-6.638,3.869-12.746,11.85-12.746c8.022,0,11.932,6.108,11.932,12.827
			C76.147,110.932,72.279,117.039,64.297,117.039z M113.936,90.529l-7.003,26.184h-1.751l-6.516-23.578l-6.678,23.578h-1.67
			l-7.004-26.184h-1.588l7.412,27.651h4.113l5.375-20.198l5.334,20.198h4.194l7.453-27.651H113.936z M97.85,91.995h1.71
			l6.475,23.496l6.638-24.962h-1.588l-5.131,20.483l-5.172-20.483H96.71l-5.457,20.524l-4.887-20.524h-1.588l6.353,24.962
			L97.85,91.995z M133.152,90.529h-11.075v27.448h11.075c8.634,0,13.031-6.23,13.031-13.765
			C146.184,96.719,142.07,90.529,133.152,90.529z M133.152,116.51h-9.569V91.995h9.569c7.859,0,11.524,5.579,11.524,12.216
			C144.678,110.891,140.77,116.51,133.152,116.51z M132.949,93.054h-8.227v22.397h8.227c6.923,0,10.466-4.602,10.466-11.199
			C143.415,97.37,139.343,93.054,132.949,93.054z M132.949,113.984h-6.719V94.52h6.719c5.498,0,8.959,3.787,8.959,9.732
			C141.908,109.953,138.895,113.984,132.949,113.984z M153.756,91.995h15.516v-1.466H152.25v27.448h17.837v-1.467h-16.33
			L153.756,91.995L153.756,91.995z M169.271,94.52v-1.466h-14.375v10.221h13.153v-1.425h-11.647v-7.33H169.271z M156.402,105.718
			h11.646v-1.425h-13.152v11.158h15.188v-1.467H156.4v-8.267H156.402z M191.422,106.451c3.137-1.018,5.497-3.502,5.497-7.778
			c0-5.212-3.909-8.145-8.674-8.145h-10.466v27.447h1.507V91.954h8.959c3.95,0,7.167,2.525,7.167,6.719
			c0,4.643-3.38,6.556-6.475,6.882l8.471,12.419h1.873L191.422,106.451z M180.427,105.596v12.378h1.507v-10.954h4.887l7.248,10.954
			h1.834l-8.268-12.378H180.427z M194.23,98.714c0-3.624-2.688-5.742-6.107-5.742h-7.696v11.688h7.452
			C191.503,104.66,194.23,102.868,194.23,98.714z M181.934,94.438h6.189c2.605,0,4.602,1.588,4.602,4.275
			c0,3.054-2.035,4.521-4.846,4.521h-5.945V94.438z M73.826,130.989c0-5.214-3.909-8.146-8.674-8.146H54.687v27.446h1.507V124.27
			h8.959c3.95,0,7.167,2.525,7.167,6.721c0,4.643-3.38,6.556-6.475,6.882l8.47,12.42h1.874l-7.859-11.524
			C71.464,137.749,73.826,135.266,73.826,130.989z M57.333,137.912v12.379h1.507v-10.954h4.887l7.249,10.954h1.833l-8.267-12.379
			H57.333z M71.138,131.029c0-3.625-2.688-5.741-6.108-5.741h-7.697v11.688h7.452C68.41,136.977,71.138,135.184,71.138,131.029z
			 M58.84,126.754h6.19c2.606,0,4.602,1.588,4.602,4.275c0,3.055-2.036,4.521-4.846,4.521H58.84V126.754z M93.655,122.314
			c-9.041,0-13.397,6.802-13.397,14.213c0,7.492,4.438,14.293,13.479,14.293c9.04,0,13.397-6.801,13.397-14.213
			C107.134,129.116,102.655,122.314,93.655,122.314z M93.737,149.354c-8.022,0-11.932-6.107-11.932-12.826
			c0-6.639,3.869-12.746,11.85-12.746c8.022,0,11.932,6.107,11.932,12.826C105.587,143.246,101.718,149.354,93.737,149.354z
			 M93.655,124.799c-7.493,0-10.588,5.946-10.588,11.77c0,5.783,3.176,11.77,10.669,11.77c7.493,0,10.588-5.945,10.588-11.77
			C104.325,130.785,101.148,124.799,93.655,124.799z M93.737,146.871c-6.353,0-9.122-5.294-9.122-10.303
			c0-5.092,2.729-10.303,9.041-10.303c6.353,0,9.122,5.293,9.122,10.303C102.777,141.658,100.049,146.871,93.737,146.871z
			 M124.193,124.799c-7.491,0-10.586,5.946-10.586,11.77c0,5.783,3.176,11.77,10.668,11.77s10.588-5.945,10.588-11.77
			C134.863,130.785,131.688,124.799,124.193,124.799z M124.275,146.871c-6.353,0-9.121-5.294-9.121-10.303
			c0-5.092,2.729-10.303,9.039-10.303c6.354,0,9.123,5.293,9.123,10.303C133.316,141.658,130.588,146.871,124.275,146.871z
			 M124.193,122.314c-9.039,0-13.396,6.802-13.396,14.213c0,7.492,4.439,14.293,13.479,14.293c9.041,0,13.397-6.801,13.397-14.213
			C137.674,129.116,133.193,122.314,124.193,122.314z M124.275,149.354c-8.021,0-11.932-6.107-11.932-12.826
			c0-6.639,3.868-12.746,11.85-12.746c8.022,0,11.933,6.107,11.933,12.826C136.126,143.246,132.258,149.354,124.275,149.354z
			 M156.078,140.885l-9.773-15.066v24.474h1.467v-19.343l7.451,11.482h2.932l7.412-11.482v19.343h1.508v-24.394l-9.61,14.986
			H156.078z M156.771,137.383l-9.326-14.537h-3.664v27.445h1.466v-25.98h1.385l10.14,15.639l9.978-15.639h1.466v25.98h1.508v-27.446
			h-3.705L156.771,137.383z M89.81,77.999c0.695,0,1.522-0.229,2.481-0.687c1.366-0.65,2.84-1.711,4.422-3.181V71.06
			c-1.343,1.402-2.577,2.49-3.704,3.264c-0.911,0.628-1.558,0.942-1.941,0.942c-0.719,0-1.079-1.038-1.079-3.116
			c0-0.724,0.083-1.563,0.251-2.518c0.167-0.954,0.419-2.047,0.755-3.279l0.18-0.616h3.667l0.432-2.085l-3.312,0.011l2.53-7.738
			l-3.025-0.003l-2.665,8.019c-0.408,0.07-0.773,0.139-1.097,0.208c-0.324,0.069-0.498,0.195-0.521,0.38l-0.144,1.39l1.115-0.18
			l-0.288,1.085c-0.456,1.64-0.743,2.797-0.863,3.473c-0.121,0.675-0.18,1.507-0.18,2.496c0,1.567,0.27,2.827,0.809,3.779
			C88.174,77.523,88.898,77.999,89.81,77.999z M97.685,77.891h2.804l-0.108-3.272c0-0.671,0.012-1.187,0.036-1.546
			c0.024-0.359,0.072-0.851,0.144-1.474c1.438-1.702,2.732-3.008,3.883-3.919c1.15-0.911,2.061-1.366,2.732-1.366
			c0.408,0,0.611,0.252,0.611,0.755c0,0.695-0.324,1.918-0.971,3.667c-0.647,1.75-0.971,3.104-0.971,4.063
			c0,0.911,0.251,1.678,0.755,2.301c0.503,0.624,1.103,0.935,1.798,0.935c0.887,0,1.899-0.347,3.038-1.043
			c1.14-0.695,2.248-1.642,3.326-2.841v-3.056c-2.469,2.925-4.278,4.387-5.429,4.387c-0.384,0-0.575-0.263-0.575-0.791
			c0-0.863,0.311-2.169,0.935-3.919s0.935-3.104,0.935-4.063c0-0.982-0.18-1.738-0.539-2.265c-0.36-0.527-0.863-0.791-1.511-0.791
			c-0.479,0-0.965,0.102-1.456,0.306c-0.492,0.204-1.289,0.653-2.391,1.348c2.564-3.355,3.847-6.232,3.847-8.629
			c0-1.007-0.251-1.834-0.755-2.481c-0.503-0.647-1.15-0.971-1.942-0.971c-1.63,0-3.164,1.355-4.602,4.063
			c-1.199,2.229-2.193,5.046-2.985,8.45c-0.695,2.973-1.042,5.394-1.042,7.263c0,0.072,0.065,0.869,0.198,2.391
			C97.582,76.915,97.66,77.747,97.685,77.891z M102.844,59.931c1.066-2.888,1.996-4.333,2.787-4.333c0.479,0,0.719,0.444,0.719,1.33
			c0,1.319-0.444,2.847-1.331,4.584c-0.887,1.738-2.313,3.901-4.279,6.49C101.076,65.51,101.777,62.82,102.844,59.931z
			 M119.113,78.107c3.477,0,7.061-1.331,10.752-3.991v-3.021c-1.895,1.654-3.571,2.847-5.033,3.578
			c-1.463,0.731-2.913,1.097-4.352,1.097c-0.84,0-1.451-0.371-1.834-1.115c-0.265-0.503-0.396-1.162-0.396-1.978v-0.144l0.755-0.324
			c1.989-0.814,3.428-1.546,4.314-2.193c1.678-1.223,2.518-2.648,2.518-4.279c0-1.821-0.959-2.733-2.877-2.733
			c-2.038,0-3.836,1.013-5.395,3.039s-2.336,4.345-2.336,6.958c0,1.319,0.328,2.499,0.987,3.542
			C116.879,77.585,117.844,78.107,119.113,78.107z M120.266,66.727c0.814-0.971,1.617-1.456,2.408-1.456
			c0.553,0,0.827,0.264,0.827,0.791c0,0.719-0.442,1.444-1.33,2.175c-0.887,0.731-2.073,1.373-3.56,1.923
			C118.898,68.842,119.45,67.697,120.266,66.727z"/>
	</g>
</g>
<circle fill="none" stroke="#FFFFFF" stroke-width="3" stroke-dasharray="3,3" cx="110" cy="110" r="100"/>
</svg>
