<?xml version="1.0" encoding="utf-8"?>
<!-- Generator: Adobe Illustrator 15.0.0, SVG Export Plug-In . SVG Version: 6.00 Build 0)  -->
<!DOCTYPE svg PUBLIC "-//W3C//DTD SVG 1.1//EN" "http://www.w3.org/Graphics/SVG/1.1/DTD/svg11.dtd">
<svg version="1.1" id="Layer_1" xmlns="http://www.w3.org/2000/svg" xmlns:xlink="http://www.w3.org/1999/xlink" x="0px" y="0px"
	 width="50px" height="50px" viewBox="0 0 50 50" enable-background="new 0 0 50 50" xml:space="preserve">
<g>
	<g>
		<path fill="#FFFFFF" d="M11.104,11.183H0.125v28.683H1.7V12.714h9.405c4.724,0,7.958,2.979,7.958,7.618
			c0,4.851-2.979,7.873-8,7.873h-8.17v11.66h1.574V29.738h6.596c6.043,0,9.532-3.576,9.532-9.406
			C20.594,14.714,16.764,11.183,11.104,11.183z M17.828,20.418c0-4.044-2.68-6.64-6.851-6.64H2.892v13.362h8.043
			C15.488,27.141,17.828,24.8,17.828,20.418z M10.935,25.651H4.466V15.226h6.511c3.234,0,5.277,2.085,5.277,5.192
			C16.254,23.736,14.466,25.651,10.935,25.651z M44.6,19.736c0-3.787-2.809-6-6.385-6h-8.043v12.213h7.789
			C41.748,25.949,44.6,24.077,44.6,19.736z M31.746,15.268h6.469c2.723,0,4.811,1.659,4.811,4.468c0,3.192-2.129,4.724-5.064,4.724
			h-6.215V15.268z M41.662,27.82c3.277-1.062,5.744-3.658,5.744-8.127c0-5.446-4.084-8.51-9.064-8.51H27.406v28.683h1.574V12.672
			h9.361c4.129,0,7.49,2.637,7.49,7.021c0,4.853-3.531,6.852-6.766,7.192l8.854,12.98h1.955L41.662,27.82z M30.172,26.93v12.936
			h1.574V28.418h5.107l7.572,11.447h1.918L37.705,26.93H30.172z"/>
	</g>
</g>
</svg>
